<svg xmlns="http://www.w3.org/2000/svg" xmlns:xlink="http://www.w3.org/1999/xlink" width="47" height="43" viewBox="0 0 47 43">
    <defs>
        <path id="a" d="M4 0h39a4 4 0 0 1 4 4v35a4 4 0 0 1-4 4H4a4 4 0 0 1-4-4V4a4 4 0 0 1 4-4z"/>
        <mask id="b" width="47" height="43" x="0" y="0" fill="#fff">
            <use xlink:href="#a"/>
        </mask>
    </defs>
    <g fill="none" fill-rule="evenodd">
        <path fill="#fff" d="M-683-873h1920V324H-683z"/>
        <g opacity=".7">
            <use stroke="#979797" stroke-dasharray="3,1" stroke-width="2" mask="url(#b)" opacity=".4" xlink:href="#a"/>
            <path d="M4 2h40v40H4z"/>
            <g fill="#000" fill-rule="nonzero" opacity=".7">
                <path d="M38.591 8.409c-2.928-.481-5.85-.537-8.615-.172.281 4.718 4.07 8.506 8.787 8.787.365-2.765.31-5.687-.172-8.615zM10.237 27.976c-.365 2.765-.31 5.687.172 8.615 2.928.481 5.85.537 8.615.172-.281-4.718-4.07-8.506-8.787-8.787z"/>
                <path d="M28.29 8.516c-.488.097-.971.208-1.447.334-3.976 1.047-7.41 2.995-10.204 5.789-2.794 2.794-4.742 6.228-5.79 10.204-.124.476-.236.959-.333 1.448 5.432.41 9.783 4.76 10.193 10.193.49-.097.972-.209 1.448-.334 3.976-1.047 7.41-2.995 10.204-5.79 2.794-2.794 4.742-6.227 5.79-10.203.124-.476.236-.959.333-1.448-5.432-.41-9.783-4.76-10.193-10.193zm.34 13.977l-1.46-1.46-1.468 1.467 1.46 1.46-1.202 1.202-1.46-1.46-1.467 1.467 1.46 1.46-1.202 1.202-1.46-1.46-1.034 1.034-1.202-1.202 1.034-1.034-1.46-1.46 1.202-1.202 1.46 1.46 1.467-1.467-1.46-1.46 1.202-1.202 1.46 1.46 1.467-1.467-1.46-1.46 1.202-1.202 1.46 1.46 1.034-1.034 1.202 1.202-1.034 1.034 1.46 1.46-1.202 1.202z"/>
            </g>
        </g>
    </g>
</svg>
