<?xml version="1.0" encoding="UTF-8"?>
<svg width="30px" height="27px" viewBox="0 0 30 27" version="1.1" xmlns="http://www.w3.org/2000/svg" xmlns:xlink="http://www.w3.org/1999/xlink">
    <!-- Generator: Sketch 51 (57462) - http://www.bohemiancoding.com/sketch -->
    <title>Shape</title>
    <desc>Created with Sketch.</desc>
    <defs></defs>
    <g id="Desktop_vip2thankyou" stroke="none" stroke-width="1" fill="none" fill-rule="evenodd">
        <g id="Shopping-Cart_Cashondelivery-Copy" transform="translate(-820.000000, -882.000000)">
            <rect fill="#fff" x="0" y="0" width="1920" height="1197"></rect>
            <g id="Group-28" transform="translate(604.000000, 778.000000)" fill="#000000" fill-rule="nonzero" opacity="0.699999988">
                <g id="Group-20" transform="translate(207.000000, 95.000000)">
                    <g id="Group-38" transform="translate(4.000000, 2.000000)">
                        <g id="car-front" transform="translate(5.000000, 7.000000)">
                            <path d="M26.5,1.67592798 C26.1666013,0.689708824 25.1666667,0.0322293843 24.1666667,0.0322293843 L5.83333333,0.0322293843 C4.66666667,0.0322293843 3.83333333,0.689708824 3.5,1.67592798 L0,11.5381196 L0,24.6877084 C0,25.6739275 0.666666667,26.331407 1.66666667,26.331407 L3.33333333,26.331407 C4.33333333,26.331407 5,25.6739275 5,24.6877084 L5,23.0440098 L25,23.0440098 L25,24.6877084 C25,25.6739275 25.6666667,26.331407 26.6666667,26.331407 L28.3333333,26.331407 C29.3333333,26.331407 30,25.6739275 30,24.6877084 L30,11.5381196 L26.5,1.67592798 Z M5.83333333,18.112914 C4.5,18.112914 3.33333333,16.962325 3.33333333,15.6473661 C3.33333333,14.3324072 4.5,13.1818182 5.83333333,13.1818182 C7.16666667,13.1818182 8.33333333,14.3324072 8.33333333,15.6473661 C8.33333333,16.962325 7.16666667,18.112914 5.83333333,18.112914 Z M24.1666667,18.112914 C22.8333333,18.112914 21.6666667,16.962325 21.6666667,15.6473661 C21.6666667,14.3324072 22.8333333,13.1818182 24.1666667,13.1818182 C25.5,13.1818182 26.6666667,14.3324072 26.6666667,15.6473661 C26.6666667,16.962325 25.5,18.112914 24.1666667,18.112914 Z M3.33333333,9.89442098 L5.83333333,2.49777728 L24.1666667,2.49777728 L26.6666667,9.89442098 L3.33333333,9.89442098 Z" id="Shape"></path>
                        </g>
                    </g>
                </g>
            </g>
        </g>
    </g>
</svg>