<svg xmlns="http://www.w3.org/2000/svg" xmlns:xlink="http://www.w3.org/1999/xlink" width="47" height="43" viewBox="0 0 47 43">
    <defs>
        <path id="a" d="M4 0h39a4 4 0 0 1 4 4v35a4 4 0 0 1-4 4H4a4 4 0 0 1-4-4V4a4 4 0 0 1 4-4z"/>
        <mask id="b" width="47" height="43" x="0" y="0" fill="#fff">
            <use xlink:href="#a"/>
        </mask>
    </defs>
    <g fill="none" fill-rule="evenodd">
        <path fill="#fff" d="M-619-873h1920V324H-619z"/>
        <g opacity=".7">
            <use stroke="#979797" stroke-dasharray="3,1" stroke-width="2" mask="url(#b)" opacity=".4" xlink:href="#a"/>
            <path d="M4 2h40v40H4z"/>
            <path fill="#000" fill-rule="nonzero" d="M31.998 36.455c-.16-1.33-1.632-1.48-2.488-1.388-.911-3.425 2.267-8.529 2.454-9.738.2-1.298-.93-8.856-1.05-12.682-.123-3.929-5.838-8.265-6.793-7.574-.945 1.044 1.362 2.453.148 3.66-1.174 1.167-1.48 1.951-2.351 3.272-2.232 3.383 3.817 3.425 3.817 3.425S21 18.932 19.947 20.697c-.97 1.626-1.376 3.445-2.547 4.978-2.668 3.493-2.066 9.585-2.066 9.585s-5.054-1.651-2.273-7.41c2.117-4.384 3.16-10.853-1.603-9.19-1.843.644.412 1.998.801 2.432 1.302 1.45.202 3.89-.583 5.301-2.1 3.779-2.864 7.737 1.559 10.178 1.964 1.085 4.618 1.353 7.289 1.392l6.795.02c2.24.11 4.772-.307 4.679-1.528z" opacity=".7"/>
        </g>
    </g>
</svg>
