<svg xmlns="http://www.w3.org/2000/svg" xmlns:xlink="http://www.w3.org/1999/xlink" width="47" height="43" viewBox="0 0 47 43">
    <defs>
        <path id="a" d="M4 0h39a4 4 0 0 1 4 4v35a4 4 0 0 1-4 4H4a4 4 0 0 1-4-4V4a4 4 0 0 1 4-4z"/>
        <mask id="b" width="47" height="43" x="0" y="0" fill="#fff">
            <use xlink:href="#a"/>
        </mask>
    </defs>
    <g fill="none" fill-rule="evenodd">
        <path fill="#fff" d="M-747-873h1920V324H-747z"/>
        <g opacity=".7">
            <use stroke="#979797" stroke-dasharray="3,1" stroke-width="2" mask="url(#b)" opacity=".4" xlink:href="#a"/>
            <path d="M4 2h40v40H4z"/>
            <path fill="#000" fill-rule="nonzero" d="M24.004 37.434c7.167 0 12.976-5.839 12.976-13.044-7.167 0-12.976 5.841-12.976 13.044zm-9.226-17.03c0 2 1.615 3.624 3.604 3.624.762 0 1.455-.234 2.046-.636l-.029.274c0 1.999 1.615 3.623 3.604 3.623 1.99 0 3.604-1.624 3.604-3.623l-.028-.274a3.564 3.564 0 0 0 2.047.636c1.989 0 3.603-1.625 3.603-3.623 0-1.45-.848-2.68-2.06-3.262a3.608 3.608 0 0 0 2.06-3.257 3.614 3.614 0 0 0-3.603-3.623 3.6 3.6 0 0 0-2.047.635l.028-.274c.001-2-1.612-3.624-3.603-3.624-1.99 0-3.604 1.624-3.604 3.623l.03.274a3.571 3.571 0 0 0-2.048-.636 3.612 3.612 0 0 0-3.604 3.623c0 1.447.85 2.68 2.06 3.258a3.617 3.617 0 0 0-2.06 3.263zm9.226-6.884c1.991 0 3.604 1.625 3.604 3.623a3.613 3.613 0 0 1-3.604 3.623 3.613 3.613 0 0 1-3.604-3.623c0-1.998 1.614-3.623 3.604-3.623zM11.03 24.39c0 7.205 5.81 13.044 12.975 13.044 0-7.203-5.809-13.044-12.975-13.044z" opacity=".7"/>
        </g>
    </g>
</svg>
