<svg xmlns="http://www.w3.org/2000/svg" width="19" height="20" viewBox="0 0 19 20">
    <g fill="none" fill-rule="evenodd">
        <path fill="#fff" d="M-904-834h1920V363H-904z"/>
        <path fill="#000" fill-rule="nonzero" stroke="#FFF" d="M16.859 6.885l-2.113 1.153c.534.854.825 1.847.825 2.885 0 3.185-2.72 5.77-6.071 5.77-3.351 0-6.071-2.585-6.071-5.77 0-3.07 2.525-5.585 5.707-5.77V6.47c0 .508.388.716.85.462l1.311-.716c.462-.253 1.214-.669 1.676-.923l1.311-.715c.462-.254.462-.67 0-.923l-1.311-.716c-.462-.253-1.214-.669-1.676-.923l-1.311-.692c-.462-.254-.85-.07-.85.415v1.108C4.619 3.031 1 6.585 1 10.923 1 15.377 4.813 19 9.5 19c4.687 0 8.5-3.623 8.5-8.077a7.706 7.706 0 0 0-1.141-4.038z"/>
    </g>
</svg>
