<svg xmlns="http://www.w3.org/2000/svg" width="15" height="15" viewBox="0 0 15 15">
    <g fill="none" fill-rule="evenodd" transform="translate(-1 -1)">
        <rect width="17" height="17" rx=".88"/>
        <g fill="#000" fill-rule="nonzero">
            <path d="M13.595 2.775l-.46 11.597c-.012.333-.31.607-.658.607H4.523c-.348 0-.646-.274-.659-.607l-.46-11.597a.366.366 0 0 0-.386-.341.363.363 0 0 0-.358.368l.46 11.597c.027.714.654 1.29 1.403 1.29h7.954c.748 0 1.376-.576 1.404-1.29l.46-11.597a.363.363 0 0 0-.36-.368.366.366 0 0 0-.386.341z"/>
            <path d="M8.251 5.392v8.048c0 .196.167.355.373.355a.364.364 0 0 0 .373-.355V5.392a.364.364 0 0 0-.373-.355.364.364 0 0 0-.373.355zM5.393 5.403l.249 8.047c.006.196.178.35.384.345a.363.363 0 0 0 .361-.365L6.14 5.382a.366.366 0 0 0-.384-.345.363.363 0 0 0-.362.366zM10.861 5.382l-.248 8.048a.363.363 0 0 0 .361.365.366.366 0 0 0 .384-.345l.249-8.047a.363.363 0 0 0-.362-.366.366.366 0 0 0-.384.345zM2.287 3.025h12.426a.364.364 0 0 0 .373-.355.364.364 0 0 0-.373-.355H2.287a.364.364 0 0 0-.373.355c0 .196.167.355.373.355z"/>
            <path d="M6.36 2.684l.267-.634c.07-.168.316-.327.506-.327h2.734c.191 0 .435.157.506.327l.266.634.693-.264-.266-.634c-.185-.439-.703-.773-1.199-.773H7.133c-.495 0-1.014.335-1.199.773l-.266.634.693.264z"/>
        </g>
    </g>
</svg>
