<svg xmlns="http://www.w3.org/2000/svg" width="27" height="41" viewBox="0 0 27 41">
    <g fill="none" fill-rule="evenodd" stroke="#979797" stroke-width=".65">
        <path fill="#FFF" d="M.825 3.539h25.35v36.636H.825zM9.275 3.532h9.1V1.3A.975.975 0 0 0 17.4.325h-7.15a.975.975 0 0 0-.975.975v2.232z"/>
        <path fill="#F4F4F4" d="M.825 27.325h25.35v4.493H.825z"/>
        <path fill="#F4F4F4" d="M.825 31.182h25.35v4.493H.825zM.825 35.682v2.868c0 .897.728 1.625 1.625 1.625h22.1c.897 0 1.625-.728 1.625-1.625v-2.868H.825zM13.175 9.643h3.94L13.5 15.75l2.6.743-3.575 7.293.975-5.967-2.6-.14z"/>
    </g>
</svg>
