<svg xmlns="http://www.w3.org/2000/svg" width="16" height="16" viewBox="0 0 16 16">
    <g fill="none" fill-rule="evenodd">
        <circle cx="8" cy="8" r="8" fill="#9C3"/>
        <g fill="#FFF" fill-rule="nonzero">
            <path d="M7.038 9.703L5.198 7.86a.459.459 0 0 0-.65 0 .462.462 0 0 0 0 .652l1.995 1.764c.09.09.45.208.568.208.118 0-.163-.038-.073-.128a.462.462 0 0 0 0-.652z"/>
            <path d="M11.905 5.198a.441.441 0 0 0-.624 0L6.75 9.73a.441.441 0 1 0 .624.624l4.531-4.53a.441.441 0 0 0 0-.625z"/>
        </g>
    </g>
</svg>
