<svg xmlns="http://www.w3.org/2000/svg" width="11" height="15" viewBox="0 0 11 15">
    <g fill="#000" fill-rule="nonzero">
        <path d="M5.5 15a.623.623 0 0 1-.49-.233C4.804 14.507 0 8.352 0 5.192 0 2.33 2.468 0 5.5 0 8.533 0 11 2.33 11 5.192c0 3.16-4.805 9.315-5.01 9.575A.623.623 0 0 1 5.5 15zm0-13.846c-2.359 0-4.278 1.811-4.278 4.038 0 2.063 2.746 6.183 4.278 8.243 1.532-2.06 4.278-6.182 4.278-8.243 0-2.227-1.92-4.038-4.278-4.038z"/>
        <path d="M5.5 8A2.503 2.503 0 0 1 3 5.5C3 4.121 4.121 3 5.5 3S8 4.121 8 5.5 6.879 8 5.5 8zm0-3.75c-.69 0-1.25.56-1.25 1.25s.56 1.25 1.25 1.25 1.25-.56 1.25-1.25-.56-1.25-1.25-1.25z"/>
    </g>
</svg>
