<svg xmlns="http://www.w3.org/2000/svg" width="35" height="50" viewBox="0 0 35 50">
    <g fill="none" fill-rule="evenodd">
        <rect width="23.902" height="39.902" x=".299" y="9.299" fill="#FFF" stroke="#979797" stroke-width=".598" rx="2.39" transform="matrix(-1 0 0 1 24.5 0)"/>
        <rect width="6.125" height="1" x="9.438" y="45.438" fill="#D8D8D8" stroke="#D8D8D8" stroke-width=".875" rx=".5"/>
        <path fill="#D8D8D8" fill-rule="nonzero" stroke="#FFF" stroke-width=".5" d="M23.498 13.956l.656 1.911c.025.072.088.12.16.12a.171.171 0 0 0 .16-.12l.656-1.91c.53-1.548 1.666-2.767 3.107-3.338l1.78-.704a.183.183 0 0 0 .11-.172.183.183 0 0 0-.11-.171l-1.78-.705c-1.44-.57-2.576-1.79-3.107-3.337l-.657-1.91a.171.171 0 0 0-.16-.12.171.171 0 0 0-.159.12l-.656 1.91c-.531 1.547-1.667 2.766-3.107 3.337l-1.78.705a.183.183 0 0 0-.111.171c0 .077.044.145.111.172l1.78.704c1.44.57 2.576 1.79 3.107 3.337zM17.005 5.74l.329.959c.012.036.044.06.08.06a.086.086 0 0 0 .08-.06l.329-.958c.266-.775.835-1.387 1.557-1.673l.892-.353a.092.092 0 0 0 .056-.086.092.092 0 0 0-.056-.086l-.892-.353c-.722-.286-1.29-.897-1.557-1.672L17.494.56a.086.086 0 0 0-.08-.06.086.086 0 0 0-.08.06l-.329.958c-.266.775-.835 1.386-1.557 1.672l-.892.353a.092.092 0 0 0-.056.086c0 .039.022.073.056.086l.892.353c.722.286 1.29.898 1.557 1.673zM32.168 9.897l.198.576a.052.052 0 0 0 .048.036c.021 0 .04-.015.048-.036l.198-.576c.16-.465.501-.832.935-1.004l.535-.212a.055.055 0 0 0 .034-.052.055.055 0 0 0-.034-.051l-.535-.212a1.642 1.642 0 0 1-.935-1.005l-.198-.575a.052.052 0 0 0-.048-.036.052.052 0 0 0-.048.036l-.198.575c-.16.466-.501.833-.935 1.005l-.536.212a.055.055 0 0 0-.033.051c0 .023.013.044.033.052l.536.212c.434.172.775.539.935 1.004z"/>
    </g>
</svg>
