<svg xmlns="http://www.w3.org/2000/svg" width="23" height="23" viewBox="0 0 23 23">
    <defs>
        <filter id="a" width="106.4%" height="104%" x="-3.2%" y="-1.5%" filterUnits="objectBoundingBox">
            <feOffset dy="3" in="SourceAlpha" result="shadowOffsetOuter1"/>
            <feGaussianBlur in="shadowOffsetOuter1" result="shadowBlurOuter1" stdDeviation="1.5"/>
            <feColorMatrix in="shadowBlurOuter1" result="shadowMatrixOuter1" values="0 0 0 0 0 0 0 0 0 0 0 0 0 0 0 0 0 0 0.0738507699 0"/>
            <feMerge>
                <feMergeNode in="shadowMatrixOuter1"/>
                <feMergeNode in="SourceGraphic"/>
            </feMerge>
        </filter>
    </defs>
    <g fill="#FFF" fill-rule="nonzero" filter="url(#a)" transform="translate(-44 -11)">
        <path d="M49.747 17.7a.473.473 0 0 0 .125.492l2.457 2.34-.58 3.303a.476.476 0 0 0 .196.47.5.5 0 0 0 .518.036l3.037-1.56 3.037 1.56c.166.086.367.071.518-.036a.475.475 0 0 0 .196-.47l-.58-3.303 2.457-2.34a.473.473 0 0 0 .125-.493.49.49 0 0 0-.398-.327l-3.395-.482-1.519-3.005a.493.493 0 0 0-.441-.268.493.493 0 0 0-.441.268L53.54 16.89l-3.395.482a.49.49 0 0 0-.398.327zm4.19.106a.491.491 0 0 0 .371-.263l1.192-2.359 1.192 2.359c.071.141.21.24.37.263l2.665.378-1.928 1.835a.474.474 0 0 0-.142.426l.455 2.592-2.383-1.224a.503.503 0 0 0-.458 0l-2.383 1.224.455-2.592a.474.474 0 0 0-.142-.426l-1.928-1.835 2.665-.378zM55.008 11.076h1v1h-1zM55.008 24.607h1v3.318h-1zM47.156 17.365l.309-.951.95.309-.308.95zM60.358 21.545l.309-.95 3.156 1.025-.31.95zM50.042 26.04l.588-.808.809.587-.588.81zM58.184 15.118l1.997-2.748.809.588-1.997 2.748zM59.631 25.87l.81-.588.587.81-.809.587zM50.055 12.974l.81-.587 1.95 2.684-.81.588zM62.671 16.724l.951-.309.31.951-.952.31zM47.148 21.658l3.231-1.05.31.952-3.232 1.05z"/>
    </g>
</svg>
