<?xml version="1.0" encoding="UTF-8"?>
<svg width="70px" height="70px" viewBox="0 0 70 70" version="1.1" xmlns="http://www.w3.org/2000/svg" xmlns:xlink="http://www.w3.org/1999/xlink">
    <!-- Generator: Sketch 51.1 (57501) - http://www.bohemiancoding.com/sketch -->
    <defs></defs>
    <g id="Mailers" stroke="none" stroke-width="1" fill="none" fill-rule="evenodd" stroke-dasharray="62.73839024135046,193.5927433837149,125.4767804827009">
        <g id="Oval-LOADER" transform="translate(-8.000000, -8.000000)" stroke-width="7.17010186">
            <path d="M43,74.3691956 C60.3247284,74.3691956 74.3691956,60.3247284 74.3691956,43 C74.3691956,25.6752716 60.3247284,11.6308044 43,11.6308044 C25.6752716,11.6308044 11.6308044,25.6752716 11.6308044,43 C11.6308044,60.3247284 25.6752716,74.3691956 43,74.3691956 Z" id="Oval" stroke="#F26B6B"></path>
            <path d="M43,74.3691956 C60.3247284,74.3691956 74.3691956,60.3247284 74.3691956,43 C74.3691956,25.6752716 60.3247284,11.6308044 43,11.6308044 C25.6752716,11.6308044 11.6308044,25.6752716 11.6308044,43 C11.6308044,60.3247284 25.6752716,74.3691956 43,74.3691956 Z" id="Oval" stroke="#939393" transform="translate(43.000000, 43.000000) rotate(-120.000000) translate(-43.000000, -43.000000) "></path>
            <path d="M43,74.3691956 C60.3247284,74.3691956 74.3691956,60.3247284 74.3691956,43 C74.3691956,25.6752716 60.3247284,11.6308044 43,11.6308044 C25.6752716,11.6308044 11.6308044,25.6752716 11.6308044,43 C11.6308044,60.3247284 25.6752716,74.3691956 43,74.3691956 Z" id="Oval" stroke="#2AC497" transform="translate(43.000000, 43.000000) rotate(120.000000) translate(-43.000000, -43.000000) "></path>
        </g>
    </g>
</svg>
