<svg xmlns="http://www.w3.org/2000/svg" width="25" height="24" viewBox="0 0 25 24">
    <g fill="#000" fill-rule="nonzero">
        <path d="M22.825 9.252l.192-3.02a.478.478 0 0 0-.192-.387l-2.68-1.355-1.34-2.71c-.077-.154-.23-.232-.384-.193l-2.986.194L12.907.116a.411.411 0 0 0-.421 0L9.959 1.781l-2.987-.233a.47.47 0 0 0-.383.194l-1.34 2.71-2.681 1.354c-.153.078-.23.233-.192.388l.192 3.019-1.647 2.555a.423.423 0 0 0 0 .426l1.647 2.554-.23 3.02c0 .155.077.31.192.387l2.68 1.355 1.34 2.71c.077.154.23.232.383.193l2.987-.194 2.528 1.665c.076.039.153.077.191.077a.402.402 0 0 0 .192-.077l2.527-1.665 2.987.194a.47.47 0 0 0 .383-.194l1.34-2.71 2.68-1.354c.154-.078.23-.232.192-.387l-.191-3.02 1.646-2.554a.423.423 0 0 0 0-.426l-1.57-2.516zm-.69 5.187a.554.554 0 0 0-.076.232l.153 2.903-2.565 1.316c-.077.039-.115.116-.153.155l-1.302 2.594-2.872-.155c-.077 0-.154 0-.23.077l-2.413 1.587-2.412-1.587a.643.643 0 0 0-.192-.077h-.038l-2.872.155-1.302-2.594c-.038-.077-.115-.116-.153-.155l-2.566-1.316.154-2.903c0-.077 0-.155-.077-.232L1.649 12l1.57-2.439a.554.554 0 0 0 .077-.232l-.154-2.903L5.708 5.11c.077-.039.115-.116.153-.155L7.163 2.36l2.872.155c.077 0 .153 0 .23-.077L12.677.852l2.413 1.587c.076.038.153.077.23.077l2.872-.155 1.302 2.594c.038.077.115.116.153.155l2.565 1.316-.153 2.903c0 .077 0 .155.077.232L23.706 12l-1.57 2.439z"/>
        <path d="M9.69 11.11c1.38 0 2.451-1.123 2.451-2.478 0-1.355-1.11-2.477-2.45-2.477-1.379 0-2.451 1.122-2.451 2.477 0 1.355 1.11 2.478 2.45 2.478zm0-4.22c.92 0 1.685.775 1.685 1.704 0 .929-.765 1.703-1.684 1.703-.92 0-1.685-.774-1.685-1.703 0-.93.765-1.704 1.685-1.704zM15.664 12.89c-1.378 0-2.45 1.123-2.45 2.478 0 1.355 1.11 2.477 2.45 2.477 1.379 0 2.451-1.122 2.451-2.477 0-1.355-1.11-2.478-2.45-2.478zm0 4.22c-.919 0-1.685-.775-1.685-1.704 0-.929.766-1.703 1.685-1.703.92 0 1.685.774 1.685 1.703 0 .93-.766 1.704-1.685 1.704zM7.5 16.627l9.83-9.829.547.548-9.83 9.829z"/>
    </g>
</svg>
