<?xml version="1.0" encoding="UTF-8"?>
<svg width="280px" height="42px" viewBox="0 0 280 42" version="1.1" xmlns="http://www.w3.org/2000/svg" xmlns:xlink="http://www.w3.org/1999/xlink">
    <!-- Generator: sketchtool 57.1 (101010) - https://sketch.com -->
    <title>C7B4E9AF-E9B8-4E53-A6FF-9E19B5B1980B</title>
    <desc>Created with sketchtool.</desc>
    <defs>
        <path d="M280,0 L280,11 L280,11 C274.477153,11 270,15.4771525 270,21 C270,26.5228475 274.477153,31 280,31 L280,42 L0,42 L0,31 C5.5228475,31 10,26.5228475 10,21 C10,15.4771525 5.5228475,11 0,11 L0,0 L280,0 Z" id="path-1"></path>
        <mask id="mask-2" maskContentUnits="userSpaceOnUse" maskUnits="objectBoundingBox" x="0" y="0" width="280" height="42" fill="white">
            <use xlink:href="#path-1"></use>
        </mask>
        <path d="M57.1428571,1 L57.1428571,41 L1,41 L1.00084139,30.4718493 C5.79027739,29.9716649 9.52380952,25.921839 9.52380952,21 C9.52380952,16.078161 5.79027739,12.0283351 1.00084139,11.5281507 L1,1 L57.1428571,1 Z" id="path-3"></path>
        <mask id="mask-4" maskContentUnits="userSpaceOnUse" maskUnits="objectBoundingBox" x="0" y="0" width="56.1428571" height="40" fill="white">
            <use xlink:href="#path-3"></use>
        </mask>
    </defs>
    <g id="Desktop_vip2thankyou" stroke="none" stroke-width="1" fill="none" fill-rule="evenodd">
        <g id="Button-Arabic" transform="translate(-1371.000000, -170.000000)">
            <g id="Group-15" transform="translate(1511.000000, 191.000000) scale(-1, 1) translate(-1511.000000, -191.000000) translate(1371.000000, 170.000000)">
                <g id="Group-14">
                    <g id="Group-16">
                        <g id="Group-18">
                            <use id="Combined-Shape" stroke="#000000" mask="url(#mask-2)" stroke-width="4" stroke-dasharray="2,2" xlink:href="#path-1"></use>
                            <use id="Combined-Shape-Copy" stroke="#000000" mask="url(#mask-4)" stroke-width="4" fill="#000000" stroke-dasharray="2,2" xlink:href="#path-3"></use>
                            <g id="Group-11" transform="translate(19.000000, 9.000000)" fill="#FFFFFF" fill-rule="nonzero">
                                <path d="M21.9612903,9.19354839 L22.1527575,6.17419355 C22.1527575,6.01935484 22.0761707,5.86451613 21.9612903,5.78709677 L19.2807492,4.43225806 L17.9404787,1.72258065 C17.8638918,1.56774194 17.710718,1.49032258 17.5575442,1.52903226 L14.5706556,1.72258065 L12.0432882,0.0580645161 C11.9284079,-0.0193548387 11.7369407,-0.0193548387 11.6220604,0.0580645161 L9.09469303,1.72258065 L6.10780437,1.49032258 C5.95463059,1.49032258 5.80145682,1.56774194 5.72486993,1.68387097 L4.38459938,4.39354839 L1.70405827,5.7483871 C1.5508845,5.82580645 1.47429761,5.98064516 1.51259105,6.13548387 L1.70405827,9.15483871 L0.0574401665,11.7096774 C-0.0191467222,11.8258065 -0.0191467222,12.0193548 0.0574401665,12.1354839 L1.70405827,14.6903226 L1.47429761,17.7096774 C1.47429761,17.8645161 1.5508845,18.0193548 1.66576483,18.0967742 L4.34630593,19.4516129 L5.68657648,22.1612903 C5.76316337,22.316129 5.91633715,22.3935484 6.06951093,22.3548387 L9.05639958,22.1612903 L11.5837669,23.8258065 C11.6603538,23.8645161 11.7369407,23.9032258 11.7752341,23.9032258 C11.8135276,23.9032258 11.9284079,23.8645161 11.9667014,23.8258065 L14.4940687,22.1612903 L17.4809573,22.3548387 C17.6341311,22.3548387 17.7873049,22.2774194 17.8638918,22.1612903 L19.2041623,19.4516129 L21.8847034,18.0967742 C22.0378772,18.0193548 22.1144641,17.8645161 22.0761707,17.7096774 L21.8847034,14.6903226 L23.5313215,12.1354839 C23.6079084,12.0193548 23.6079084,11.8258065 23.5313215,11.7096774 L21.9612903,9.19354839 Z M21.2720083,14.3806452 C21.2337149,14.4580645 21.1954214,14.5354839 21.1954214,14.6129032 L21.3485952,17.516129 L18.7829344,18.8322581 C18.7063476,18.8709677 18.6680541,18.9483871 18.6297607,18.9870968 L17.3277836,21.5806452 L14.4557752,21.4258065 C14.3791883,21.4258065 14.3026015,21.4258065 14.2260146,21.5032258 L11.8135276,23.0903226 L9.40104058,21.5032258 C9.32445369,21.4645161 9.24786681,21.4258065 9.20957336,21.4258065 C9.20957336,21.4258065 9.20957336,21.4258065 9.17127992,21.4258065 L6.29927159,21.5806452 L4.99729448,18.9870968 C4.95900104,18.9096774 4.88241415,18.8709677 4.84412071,18.8322581 L2.27845994,17.516129 L2.43163371,14.6129032 C2.43163371,14.5354839 2.43163371,14.4580645 2.35504683,14.3806452 L0.785015609,11.9419355 L2.35504683,9.50322581 C2.39334027,9.42580645 2.43163371,9.3483871 2.43163371,9.27096774 L2.27845994,6.36774194 L4.84412071,5.0516129 C4.9207076,5.01290323 4.95900104,4.93548387 4.99729448,4.89677419 L6.29927159,2.30322581 L9.17127992,2.45806452 C9.24786681,2.45806452 9.32445369,2.45806452 9.40104058,2.38064516 L11.8135276,0.793548387 L14.2260146,2.38064516 C14.3026015,2.41935484 14.3791883,2.45806452 14.4557752,2.45806452 L17.3277836,2.30322581 L18.6297607,4.89677419 C18.6680541,4.97419355 18.744641,5.01290323 18.7829344,5.0516129 L21.3485952,6.36774194 L21.1954214,9.27096774 C21.1954214,9.3483871 21.1954214,9.42580645 21.2720083,9.50322581 L22.8420395,11.9419355 L21.2720083,14.3806452 Z" id="Shape"></path>
                                <path d="M8.82663892,11.0516129 C10.2052029,11.0516129 11.2774194,9.92903226 11.2774194,8.57419355 C11.2774194,7.21935484 10.1669095,6.09677419 8.82663892,6.09677419 C7.44807492,6.09677419 6.37585848,7.21935484 6.37585848,8.57419355 C6.37585848,9.92903226 7.48636837,11.0516129 8.82663892,11.0516129 Z M8.82663892,6.83225806 C9.74568158,6.83225806 10.5115505,7.60645161 10.5115505,8.53548387 C10.5115505,9.46451613 9.74568158,10.2387097 8.82663892,10.2387097 C7.90759625,10.2387097 7.14172737,9.46451613 7.14172737,8.53548387 C7.14172737,7.60645161 7.90759625,6.83225806 8.82663892,6.83225806 Z" id="Shape"></path>
                                <path d="M14.8004162,12.8322581 C13.4218522,12.8322581 12.3496358,13.9548387 12.3496358,15.3096774 C12.3496358,16.6645161 13.4601457,17.7870968 14.8004162,17.7870968 C16.1789802,17.7870968 17.2511967,16.6645161 17.2511967,15.3096774 C17.2511967,13.9548387 16.1406868,12.8322581 14.8004162,12.8322581 Z M14.8004162,17.0516129 C13.8813736,17.0516129 13.1155047,16.2774194 13.1155047,15.3483871 C13.1155047,14.4193548 13.8813736,13.6451613 14.8004162,13.6451613 C15.7194589,13.6451613 16.4853278,14.4193548 16.4853278,15.3483871 C16.4853278,16.2774194 15.7194589,17.0516129 14.8004162,17.0516129 Z" id="Shape"></path>
                                <polygon id="Rectangle-path" transform="translate(12.049792, 12.153668) rotate(-45.000000) translate(-12.049792, -12.153668) " points="5.0995989 11.4477854 18.9999859 11.4477854 18.9999859 12.2219715 5.0995989 12.2219715"></polygon>
                            </g>
                        </g>
                    </g>
                </g>
            </g>
        </g>
    </g>
</svg>