<svg xmlns="http://www.w3.org/2000/svg" width="33" height="37" viewBox="0 0 33 37">
    <defs>
        <filter id="a" width="106.4%" height="104%" x="-3.2%" y="-1.5%" filterUnits="objectBoundingBox">
            <feOffset dy="3" in="SourceAlpha" result="shadowOffsetOuter1"/>
            <feGaussianBlur in="shadowOffsetOuter1" result="shadowBlurOuter1" stdDeviation="1.5"/>
            <feColorMatrix in="shadowBlurOuter1" result="shadowMatrixOuter1" values="0 0 0 0 0 0 0 0 0 0 0 0 0 0 0 0 0 0 0.0738507699 0"/>
            <feMerge>
                <feMergeNode in="shadowMatrixOuter1"/>
                <feMergeNode in="SourceGraphic"/>
            </feMerge>
        </filter>
        <filter id="b" width="105.2%" height="114.8%" x="-2.6%" y="-4.9%" filterUnits="objectBoundingBox">
            <feOffset dy="3" in="SourceAlpha" result="shadowOffsetOuter1"/>
            <feGaussianBlur in="shadowOffsetOuter1" result="shadowBlurOuter1" stdDeviation="2.5"/>
            <feColorMatrix in="shadowBlurOuter1" result="shadowMatrixOuter1" values="0 0 0 0 0 0 0 0 0 0 0 0 0 0 0 0 0 0 0.0672554348 0"/>
            <feMerge>
                <feMergeNode in="shadowMatrixOuter1"/>
                <feMergeNode in="SourceGraphic"/>
            </feMerge>
        </filter>
    </defs>
    <g fill="#000" fill-rule="nonzero" filter="url(#b)" transform="translate(-78 -67)">
        <path d="M104.825 78.252l.192-3.02a.478.478 0 0 0-.192-.387l-2.68-1.355-1.34-2.71c-.077-.154-.23-.232-.384-.193l-2.986.194-2.528-1.665a.411.411 0 0 0-.421 0l-2.527 1.665-2.987-.233a.47.47 0 0 0-.383.194l-1.34 2.71-2.681 1.354c-.153.078-.23.233-.192.388l.192 3.019-1.647 2.555a.423.423 0 0 0 0 .426l1.647 2.554-.23 3.02c0 .155.077.31.192.387l2.68 1.355 1.34 2.71c.077.154.23.232.383.193l2.987-.194 2.528 1.665c.076.039.153.077.191.077a.402.402 0 0 0 .192-.077l2.527-1.665 2.987.194a.47.47 0 0 0 .383-.194l1.34-2.71 2.68-1.354c.154-.078.23-.232.192-.387l-.191-3.02 1.646-2.554a.423.423 0 0 0 0-.426l-1.57-2.516zm-.69 5.187a.554.554 0 0 0-.076.232l.153 2.903-2.565 1.316c-.077.039-.115.116-.153.155l-1.302 2.594-2.872-.155c-.077 0-.154 0-.23.077l-2.413 1.587-2.412-1.587a.643.643 0 0 0-.192-.077h-.038l-2.872.155-1.302-2.594c-.038-.077-.115-.116-.153-.155l-2.566-1.316.154-2.903c0-.077 0-.155-.077-.232L83.649 81l1.57-2.439a.554.554 0 0 0 .077-.232l-.154-2.903 2.566-1.316c.077-.039.115-.116.153-.155l1.302-2.594 2.872.155c.077 0 .153 0 .23-.077l2.412-1.587 2.413 1.587c.076.038.153.077.23.077l2.872-.155 1.302 2.594c.038.077.115.116.153.155l2.565 1.316-.153 2.903c0 .077 0 .155.077.232l1.57 2.439-1.57 2.439z"/>
        <path d="M91.69 80.11c1.38 0 2.451-1.123 2.451-2.478 0-1.355-1.11-2.477-2.45-2.477-1.379 0-2.451 1.122-2.451 2.477 0 1.355 1.11 2.478 2.45 2.478zm0-4.22c.92 0 1.685.775 1.685 1.704 0 .929-.765 1.703-1.684 1.703-.92 0-1.685-.774-1.685-1.703 0-.93.765-1.704 1.685-1.704zM97.664 81.89c-1.378 0-2.45 1.123-2.45 2.478 0 1.355 1.11 2.477 2.45 2.477 1.379 0 2.451-1.122 2.451-2.477 0-1.355-1.11-2.478-2.45-2.478zm0 4.22c-.919 0-1.685-.775-1.685-1.704 0-.929.766-1.703 1.685-1.703.92 0 1.685.774 1.685 1.703 0 .93-.766 1.704-1.685 1.704zM89.5 85.627l9.829-9.829.707.708-9.829 9.828z"/>
    </g>
</svg>
