<svg xmlns="http://www.w3.org/2000/svg" xmlns:xlink="http://www.w3.org/1999/xlink" width="280" height="42" viewBox="0 0 280 42">
    <defs>
        <path id="a" d="M280 0v11c-5.523 0-10 4.477-10 10s4.477 10 10 10v11H0V31c5.523 0 10-4.477 10-10S5.523 11 0 11V0h280z"/>
        <mask id="c" width="280" height="42" x="0" y="0" fill="#fff">
            <use xlink:href="#a"/>
        </mask>
        <path id="b" d="M57.143 1v40H1V30.472c4.79-.5 8.524-4.55 8.524-9.472S5.79 12.028 1 11.528L1 1h56.143z"/>
        <mask id="d" width="56.143" height="40" x="0" y="0" fill="#fff">
            <use xlink:href="#b"/>
        </mask>
    </defs>
    <g fill="none" fill-rule="evenodd">
        <use stroke="#000" stroke-dasharray="2,2" stroke-width="4" mask="url(#c)" xlink:href="#a"/>
        <use fill="#000" stroke="#000" stroke-dasharray="2,2" stroke-width="4" mask="url(#d)" xlink:href="#b"/>
        <g fill="#FFF" fill-rule="nonzero">
            <path d="M40.961 18.194l.192-3.02a.478.478 0 0 0-.192-.387l-2.68-1.355-1.34-2.71c-.077-.154-.23-.232-.383-.193l-2.987.194-2.528-1.665a.411.411 0 0 0-.42 0l-2.528 1.665-2.987-.233a.47.47 0 0 0-.383.194l-1.34 2.71-2.68 1.354c-.154.078-.23.233-.192.387l.191 3.02-1.647 2.555a.423.423 0 0 0 0 .425l1.647 2.555-.23 3.02c0 .155.077.31.192.387l2.68 1.355 1.34 2.71c.077.154.23.232.384.193l2.986-.194 2.528 1.665c.076.039.153.077.191.077a.402.402 0 0 0 .192-.077l2.527-1.665 2.987.194a.47.47 0 0 0 .383-.194l1.34-2.71 2.68-1.354c.154-.078.23-.232.192-.387l-.191-3.02 1.646-2.555a.423.423 0 0 0 0-.425l-1.57-2.516zm-.689 5.187c-.038.077-.077.154-.077.232l.154 2.903-2.566 1.316c-.077.039-.115.116-.153.155l-1.302 2.594-2.872-.155c-.077 0-.153 0-.23.077l-2.412 1.587-2.413-1.587a.643.643 0 0 0-.191-.077h-.039l-2.872.155-1.302-2.594c-.038-.077-.115-.116-.153-.155l-2.566-1.316.154-2.903c0-.078 0-.155-.077-.232l-1.57-2.44 1.57-2.438c.038-.077.077-.155.077-.232l-.154-2.903 2.566-1.316c.077-.04.115-.117.153-.155l1.302-2.594 2.872.155c.077 0 .153 0 .23-.077l2.413-1.587 2.412 1.587c.077.038.153.077.23.077l2.872-.155 1.302 2.594c.038.077.115.116.153.155l2.566 1.316-.154 2.903c0 .077 0 .155.077.232l1.57 2.439-1.57 2.439z"/>
            <path d="M27.827 20.052c1.378 0 2.45-1.123 2.45-2.478 0-1.355-1.11-2.477-2.45-2.477-1.379 0-2.451 1.122-2.451 2.477 0 1.355 1.11 2.478 2.45 2.478zm0-4.22c.919 0 1.685.774 1.685 1.703 0 .93-.766 1.704-1.685 1.704-.92 0-1.685-.774-1.685-1.704 0-.929.766-1.703 1.685-1.703zM33.8 21.832c-1.378 0-2.45 1.123-2.45 2.478 0 1.355 1.11 2.477 2.45 2.477 1.379 0 2.451-1.122 2.451-2.477 0-1.355-1.11-2.478-2.45-2.478zm0 4.22c-.919 0-1.684-.775-1.684-1.704 0-.929.765-1.703 1.684-1.703.92 0 1.685.774 1.685 1.703 0 .93-.766 1.704-1.685 1.704zM25.636 25.57l9.83-9.83.547.547-9.83 9.83z"/>
        </g>
    </g>
</svg>
