<svg xmlns="http://www.w3.org/2000/svg" width="16" height="17" viewBox="0 0 16 17">
    <g fill="#000" fill-rule="nonzero">
        <path d="M.328.361c.205-.23.492-.36.792-.36.3 0 .588.13.792.36L8 7.034 14.088.359C14.293.13 14.58 0 14.88 0c.3 0 .588.13.792.36.437.489.437 1.246 0 1.736l-6.88 7.542c-.204.23-.491.36-.792.362a1.068 1.068 0 0 1-.792-.36L.328 2.097a1.312 1.312 0 0 1 0-1.736z"/>
        <path d="M.328 16.639c.205.23.492.36.792.36.3 0 .588-.13.792-.36L8 9.966l6.088 6.675c.205.229.492.359.792.359.3 0 .588-.13.792-.36a1.314 1.314 0 0 0 0-1.736l-6.88-7.542A1.068 1.068 0 0 0 8 7c-.3.001-.587.131-.792.36l-6.88 7.543a1.312 1.312 0 0 0 0 1.736z"/>
    </g>
</svg>
