<svg xmlns="http://www.w3.org/2000/svg" xmlns:xlink="http://www.w3.org/1999/xlink" width="33" height="33" viewBox="0 0 33 33">
    <defs>
        <ellipse id="a" cx="16.429" cy="16.464" rx="16.429" ry="16.464"/>
        <filter id="b" width="106.1%" height="106.1%" x="-3%" y="-3%" filterUnits="objectBoundingBox">
            <feGaussianBlur in="SourceAlpha" result="shadowBlurInner1" stdDeviation=".5"/>
            <feOffset dy="1" in="shadowBlurInner1" result="shadowOffsetInner1"/>
            <feComposite in="shadowOffsetInner1" in2="SourceAlpha" k2="-1" k3="1" operator="arithmetic" result="shadowInnerInner1"/>
            <feColorMatrix in="shadowInnerInner1" values="0 0 0 0 0 0 0 0 0 0 0 0 0 0 0 0 0 0 0.093558785 0"/>
        </filter>
    </defs>
    <g fill="none" fill-rule="evenodd">
        <g opacity=".5">
            <use fill="#F1F1F1" xlink:href="#a"/>
            <use fill="#000" filter="url(#b)" xlink:href="#a"/>
        </g>
        <g fill-rule="nonzero">
            <path fill="#000" fill-opacity=".673" d="M21.767 10.041L16.92 7.893a.32.32 0 0 0-.258 0l-4.848 2.148a.327.327 0 0 0-.194.3v5.137a3.618 3.618 0 0 0 1.474 2.914l3.35 2.446a.586.586 0 0 0 .694 0l3.35-2.446a3.618 3.618 0 0 0 1.474-2.914v-5.137a.327.327 0 0 0-.194-.3zm-.452 5.437a2.96 2.96 0 0 1-1.206 2.384l-3.319 2.423-3.32-2.423a2.96 2.96 0 0 1-1.205-2.384v-4.923L16.79 8.55l4.525 2.005v4.923z"/>
            <path fill="#000" fill-opacity=".673" d="M16.66 9.321l-3.554 1.576a.327.327 0 0 0-.194.3v4.281a2.3 2.3 0 0 0 .937 1.853l2.752 2.01a.32.32 0 0 0 .378 0l2.752-2.01a2.3 2.3 0 0 0 .938-1.853v-4.281a.327.327 0 0 0-.194-.3l-3.556-1.576a.32.32 0 0 0-.258 0zm3.362 2.09v4.067a1.642 1.642 0 0 1-.669 1.322l-2.563 1.872-2.563-1.872a1.642 1.642 0 0 1-.669-1.322V11.41l3.232-1.432 3.232 1.432z"/>
            <path fill="#41BA93" stroke="#41BA93" stroke-width=".55" d="M15.046 13.922a.326.326 0 0 0-.42-.037c-.12.092-.127.258-.016.37l1.004 1.017a.328.328 0 0 0 .43.027l2.977-2.566a.234.234 0 0 0 .072-.25.303.303 0 0 0-.212-.194.312.312 0 0 0-.285.057l-2.759 2.377-.791-.801z"/>
            <path fill="#000" fill-opacity=".673" d="M9.747 19.113l-.699-1.654a1.025 1.025 0 1 0-1.774-.195c-.218.302-.26.697-.111 1.038l1.266 2.82c.171.382.409.73.702 1.026l1.992 2.017a.655.655 0 0 0-.175.444v2.618c0 .361.29.654.646.654h3.555a.65.65 0 0 0 .647-.654v-2.618a.65.65 0 0 0-.647-.654v-.609c.01-.775-.24-1.53-.708-2.143a2.329 2.329 0 0 0-1.077-.795 6.385 6.385 0 0 1-1.85-1.202 1.472 1.472 0 0 0-1.767-.093zm5.402 8.114h-3.555v-2.618h3.555v2.618zm-1.213-5.615c.377.497.577 1.108.567 1.734v.61H11.83l-2.242-2.27a2.83 2.83 0 0 1-.57-.834l-1.267-2.82a.393.393 0 0 1 .027-.372.383.383 0 0 1 .676.057l.723 1.707c.192.455.468.87.815 1.219l1.476 1.495a.32.32 0 0 0 .545-.145.33.33 0 0 0-.088-.318L10.45 20.18a3.219 3.219 0 0 1-.399-.49.832.832 0 0 1 1.047.017 6.88 6.88 0 0 0 2.062 1.322c.31.114.58.316.777.583z"/>
            <path fill="#E94E4B" d="M14.18 25.591h-.323a.325.325 0 0 0-.324.327c0 .18.145.327.324.327h.323a.325.325 0 0 0 .323-.327.325.325 0 0 0-.323-.327z"/>
            <path fill="#000" fill-opacity=".673" d="M25.101 21.122l1.267-2.82a1.054 1.054 0 0 0-.1-1.048 1.025 1.025 0 0 0-1.785.205l-.697 1.648a1.476 1.476 0 0 0-1.769.098 6.385 6.385 0 0 1-1.85 1.202c-.428.153-.802.43-1.077.795a3.456 3.456 0 0 0-.709 2.144v.61a.65.65 0 0 0-.646.653v2.618c0 .361.29.654.646.654h3.555a.65.65 0 0 0 .647-.654v-2.618a.655.655 0 0 0-.175-.444l1.992-2.017c.293-.296.53-.644.701-1.026zm-3.165 6.105h-3.555v-2.618h3.555v2.618zm-.236-3.272h-2.672v-.609c-.01-.626.19-1.237.566-1.734a1.7 1.7 0 0 1 .776-.583 6.877 6.877 0 0 0 2.062-1.322.832.832 0 0 1 1.05-.02 3.2 3.2 0 0 1-.401.493l-1.477 1.495a.33.33 0 0 0 .004.459.32.32 0 0 0 .453.004l1.477-1.495c.346-.35.623-.763.815-1.219l.723-1.707a.384.384 0 0 1 .676-.057c.07.111.08.251.026.372l-1.266 2.82a2.83 2.83 0 0 1-.57.834l-2.242 2.27z"/>
            <path fill="#E94E4B" d="M19.674 25.591h-.323a.325.325 0 0 0-.323.327c0 .18.144.327.323.327h.323a.325.325 0 0 0 .323-.327.325.325 0 0 0-.323-.327z"/>
            <g fill="#505050">
                <path d="M24.49 11.402h-.539a.196.196 0 0 1-.194-.196v-.34a1.91 1.91 0 0 1-.396-.163l-.237.238a.197.197 0 0 1-.276 0l-.383-.385a.202.202 0 0 1-.059-.137c0-.052.02-.101.059-.137l.237-.239a1.78 1.78 0 0 1-.166-.398h-.338a.196.196 0 0 1-.194-.196v-.542c0-.108.087-.196.194-.196h.338c.039-.14.094-.27.162-.398l-.237-.238a.202.202 0 0 1-.058-.137c0-.05.02-.102.058-.138l.383-.385a.197.197 0 0 1 .276 0l.237.238a1.56 1.56 0 0 1 .396-.163v-.343c0-.107.088-.195.195-.195h.54c.106 0 .194.088.194.195v.34c.136.04.27.095.396.166l.237-.238a.197.197 0 0 1 .276 0l.383.385a.2.2 0 0 1 0 .278l-.237.238c.071.124.127.258.162.395h.338c.107 0 .195.088.195.196v.542a.196.196 0 0 1-.195.196h-.338a2.01 2.01 0 0 1-.162.398l.237.239a.2.2 0 0 1 0 .277l-.383.385a.2.2 0 0 1-.136.06c-.052 0-.101-.02-.137-.06l-.237-.238a1.56 1.56 0 0 1-.396.163v.34a.195.195 0 0 1-.195.193zm-.344-.392h.15v-.297c0-.095.068-.177.162-.193.195-.036.376-.11.539-.225a.192.192 0 0 1 .25.023l.21.212.108-.108-.211-.212a.199.199 0 0 1-.023-.252c.114-.163.188-.349.224-.545a.192.192 0 0 1 .192-.16h.295v-.15h-.295a.195.195 0 0 1-.192-.16 1.373 1.373 0 0 0-.224-.542.195.195 0 0 1 .023-.251l.21-.212-.106-.108-.211.212a.196.196 0 0 1-.25.023 1.33 1.33 0 0 0-.54-.225.196.196 0 0 1-.161-.193v-.3h-.15v.3a.196.196 0 0 1-.162.193 1.357 1.357 0 0 0-.539.225.192.192 0 0 1-.25-.023l-.211-.212-.107.108.21.212a.199.199 0 0 1 .024.251c-.114.16-.189.343-.224.542a.192.192 0 0 1-.192.16h-.299v.15h.299c.094 0 .175.069.192.164.032.195.107.375.224.541a.195.195 0 0 1-.023.252l-.211.212.107.108.211-.212a.196.196 0 0 1 .25-.023c.162.114.344.19.539.225.094.016.159.098.159.193v.297h.003z"/>
                <path d="M24.22 10.164a.987.987 0 0 1 0-1.975c.543 0 .981.444.981.99a.982.982 0 0 1-.98.985zm0-1.583a.596.596 0 0 0 0 1.191.595.595 0 1 0 0-1.192z"/>
            </g>
            <g fill="#505050">
                <path d="M26.146 16.45h-.542a.196.196 0 0 1-.195-.196v-.34a1.823 1.823 0 0 1-.396-.166l-.237.239a.2.2 0 0 1-.137.058c-.052 0-.1-.02-.136-.058l-.383-.382a.202.202 0 0 1-.058-.137c0-.05.019-.102.058-.138l.24-.238a1.78 1.78 0 0 1-.165-.398h-.338a.196.196 0 0 1-.195-.196v-.545c0-.108.088-.196.195-.196h.338c.039-.137.094-.271.162-.395l-.24-.239a.202.202 0 0 1-.059-.137c0-.052.02-.1.059-.137l.383-.382a.197.197 0 0 1 .276 0l.237.238c.126-.071.256-.127.396-.166v-.34c0-.107.088-.195.195-.195h.542c.107 0 .195.088.195.195v.34c.136.04.27.095.396.163l.237-.238a.2.2 0 0 1 .136-.059c.052 0 .1.02.136.059l.38.382a.2.2 0 0 1 0 .277l-.237.239c.072.124.127.258.163.398h.337c.107 0 .195.088.195.196v.542a.196.196 0 0 1-.195.196h-.337a1.78 1.78 0 0 1-.166.398l.237.238a.2.2 0 0 1 0 .278l-.38.382a.2.2 0 0 1-.136.059c-.052 0-.1-.02-.137-.059l-.24-.238a1.734 1.734 0 0 1-.393.166v.34a.19.19 0 0 1-.191.192zm-.344-.391h.152v-.3c0-.096.068-.177.163-.193a1.33 1.33 0 0 0 .539-.226.192.192 0 0 1 .25.023l.21.212.108-.107-.211-.213a.199.199 0 0 1-.023-.251c.114-.163.188-.346.224-.542a.195.195 0 0 1 .191-.163h.3v-.15h-.3a.195.195 0 0 1-.191-.164 1.346 1.346 0 0 0-.224-.542.195.195 0 0 1 .023-.251l.21-.212-.106-.108-.211.212a.196.196 0 0 1-.25.023 1.33 1.33 0 0 0-.54-.225.196.196 0 0 1-.162-.193v-.3h-.152v.3a.196.196 0 0 1-.163.193 1.311 1.311 0 0 0-.539.225.192.192 0 0 1-.25-.023l-.21-.212-.108.108.211.212a.199.199 0 0 1 .023.251c-.114.164-.191.35-.224.542a.195.195 0 0 1-.192.164h-.298v.15h.295c.094 0 .176.068.192.163.036.196.11.379.224.542a.195.195 0 0 1-.023.251l-.21.213.106.107.211-.212a.196.196 0 0 1 .25-.023c.163.115.348.193.54.226a.196.196 0 0 1 .161.192v.3h.004z"/>
                <path d="M25.876 15.213a.984.984 0 0 1-.98-.986c0-.545.441-.986.98-.986.543 0 .984.444.984.986a.99.99 0 0 1-.984.986zm0-1.584a.595.595 0 0 0 0 1.189.595.595 0 0 0 .594-.594.6.6 0 0 0-.594-.595z"/>
            </g>
            <g fill="#505050">
                <path d="M7.93 11.08a.278.278 0 0 1 0 .13l-.223.728a.245.245 0 0 1-.276.17l-.753-.12a.243.243 0 0 1-.195-.171l-.243-.802a.25.25 0 0 1 .105-.28l.6-.373a.255.255 0 0 1 .3.027l.614.573c.037.029.06.07.072.118zm-.633.508l.116-.37-.37-.344-.28.172.143.475.391.067z"/>
                <path d="M8.72 13.423a.25.25 0 0 1-.454.19l-1.013-1.62a.25.25 0 0 1 .08-.342.25.25 0 0 1 .344.08l1.011 1.62a.277.277 0 0 1 .031.072z"/>
                <path d="M10.665 15.651a.738.738 0 0 1-1.347.564l-1.466-2.348a.232.232 0 0 1-.03-.187.252.252 0 0 1 .111-.154l.832-.516a.25.25 0 0 1 .343.08l1.465 2.348c.043.07.073.138.092.213zm-2.26-1.833l1.337 2.14a.244.244 0 0 0 .335.081.237.237 0 0 0 .107-.15.24.24 0 0 0-.028-.183l-1.337-2.139-.413.251z"/>
            </g>
        </g>
    </g>
</svg>
