<svg xmlns="http://www.w3.org/2000/svg" width="31" height="30" viewBox="0 0 31 30">
    <path fill="#7ED321" fill-rule="nonzero" d="M15.6 0C7.316 0 .6 6.716.6 15c0 8.284 6.716 15 15 15 8.284 0 15-6.716 15-15 0-8.284-6.716-15-15-15zm0 5.269l8.876 5.535H6.724L15.6 5.269zm8.987 14.373c0 .888-.72 1.608-1.608 1.608H8.221c-.888 0-1.607-.72-1.607-1.608v-8.486c0-.094.01-.185.025-.275l8.481 5.288c.01.007.022.011.032.017a.89.89 0 0 0 .219.09l.02.004c.069.017.139.027.209.027h.001c.07 0 .14-.01.21-.027l.02-.004a.9.9 0 0 0 .218-.09c.01-.006.022-.01.032-.017l8.48-5.288c.016.09.026.18.026.275v8.486z" opacity=".751"/>
</svg>
