<svg xmlns="http://www.w3.org/2000/svg" width="73" height="69" viewBox="0 0 73 69">
    <g fill="none" fill-rule="evenodd">
        <path fill="#F7931E" d="M29.933 13.24L17.379 34.785a.73.73 0 0 0 .259.995.72.72 0 0 0 .99-.26L31.18 13.975a.73.73 0 0 0-.259-.995.721.721 0 0 0-.99.26M40.38 13.975L52.932 35.52a.721.721 0 0 0 .99.26.73.73 0 0 0 .258-.995L41.627 13.24a.721.721 0 0 0-.99-.26.73.73 0 0 0-.258.995"/>
        <path fill="#FCD4A5" d="M35.533 13.88a.741.741 0 0 0-.721.525l-5.507 19.588c-.106.377.131.763.53.863a.794.794 0 0 0 .192.024c.33 0 .633-.209.721-.525l5.507-19.588c.106-.377-.132-.763-.53-.863a.783.783 0 0 0-.192-.024M38.027 13.88a.783.783 0 0 0-.192.024c-.399.1-.636.486-.53.863l5.507 19.588c.088.316.39.525.72.525a.794.794 0 0 0 .193-.024c.399-.1.636-.486.53-.863l-5.507-19.588a.741.741 0 0 0-.72-.525"/>
        <path fill="#E4FFB0" d="M53.588 61.88H17.972c-.93 0-1.692-.769-1.692-1.708V36.588c0-.94.761-1.708 1.692-1.708h35.616c.93 0 1.692.769 1.692 1.708v23.584c0 .94-.761 1.708-1.692 1.708"/>
        <path fill="#8CC63F" d="M53.89 62.16v-.72H18.67a.949.949 0 0 1-.674-.283.956.956 0 0 1-.282-.677v-23.2c0-.264.106-.5.282-.678a.948.948 0 0 1 .674-.282h35.22a.95.95 0 0 1 .674.282.956.956 0 0 1 .282.678v23.2c0 .263-.106.5-.282.677a.95.95 0 0 1-.674.283v1.44a2.4 2.4 0 0 0 2.39-2.4v-23.2a2.4 2.4 0 0 0-2.39-2.4H18.67a2.4 2.4 0 0 0-2.39 2.4v23.2a2.4 2.4 0 0 0 2.39 2.4h35.22v-.72"/>
        <path fill="#BEEA71" d="M17.28 60.88l18.613-23 18.387 23"/>
        <path fill="#8CC63F" d="M17.559 61.621L35.89 39.716 54 61.618a.729.729 0 0 0 1.015.101.707.707 0 0 0 .103-1.003L36.454 38.142a.725.725 0 0 0-1.116-.003L16.445 60.713a.707.707 0 0 0 .097 1.004.728.728 0 0 0 1.017-.096"/>
        <path fill="#BEEA71" d="M55.28 36.88c0 10.647-8.058 20-18.894 20-10.837 0-20.106-9.353-20.106-20"/>
        <path fill="#8CC63F" d="M54.843 37.586c0 5.037-1.927 9.768-5.136 13.228a17.779 17.779 0 0 1-5.69 4.124 17.202 17.202 0 0 1-7.138 1.529c-5.146 0-9.94-2.202-13.449-5.675-3.509-3.472-5.714-8.198-5.713-13.206A.713.713 0 0 0 17 36.88a.713.713 0 0 0-.719.706c.001 5.42 2.378 10.488 6.13 14.202 3.753 3.714 8.9 6.091 14.469 6.092 2.783 0 5.395-.596 7.74-1.659 3.518-1.595 6.433-4.236 8.468-7.484a21.024 21.024 0 0 0 3.193-11.15.713.713 0 0 0-.719-.707.713.713 0 0 0-.718.706"/>
        <path fill="#8CC63F" d="M31.28 41.38a1.5 1.5 0 1 1-3 0 1.5 1.5 0 0 1 3 0M43.28 41.38a1.5 1.5 0 1 1-3 0 1.5 1.5 0 0 1 3 0M33.28 47.607c0 .418.089.824.239 1.2a3.558 3.558 0 0 0 1.062 1.446c.469.377 1.055.627 1.699.627.428 0 .834-.111 1.193-.297.54-.28.981-.719 1.297-1.234a3.378 3.378 0 0 0 .51-1.742c0-.401-.298-.727-.667-.727-.368 0-.666.326-.666.727 0 .19-.042.404-.128.619a2.125 2.125 0 0 1-.629.855c-.276.22-.587.344-.91.344a1.35 1.35 0 0 1-.623-.157 1.972 1.972 0 0 1-.757-.726 1.845 1.845 0 0 1-.287-.935c0-.401-.298-.727-.666-.727-.369 0-.667.326-.667.727M54.718 43.447c.056.021 1.048.43 2.454.433.92 0 2.026-.183 3.108-.792 1.084-.607 2.12-1.632 2.928-3.222.174-.343.021-.754-.342-.918-.363-.164-.798-.02-.973.322-.71 1.39-1.543 2.176-2.359 2.636a4.775 4.775 0 0 1-2.362.598 5.853 5.853 0 0 1-1.756-.277 3.042 3.042 0 0 1-.095-.034l-.02-.007-.007.016.007-.016-.007.016.007-.016c-.369-.152-.799.007-.96.355-.161.348.008.754.377.906M15.921 43.118c-.023.024-.916.943-1.817 2.384-.45.72-.903 1.573-1.247 2.515-.343.942-.577 1.974-.577 3.052 0 .404.033.815.106 1.228.067.377.464.634.886.574.422-.06.71-.413.644-.79a5.801 5.801 0 0 1-.088-1.012c0-.897.198-1.79.502-2.625.455-1.252 1.151-2.37 1.732-3.166a14.73 14.73 0 0 1 .957-1.178l.056-.06.013-.014.003-.003-.084-.064.083.065-.083-.065.083.065a.64.64 0 0 0-.077-.975.84.84 0 0 0-1.092.069M40.303 61.82c.005.017.374 1.53.955 3.136.293.805.636 1.632 1.032 2.329.2.348.412.665.655.935.243.267.52.498.879.617.1.032.193.043.276.043.168-.001.3-.039.421-.083.21-.079.389-.188.562-.305.257-.175.493-.374.671-.531.178-.158.295-.275.302-.281a.8.8 0 0 0 .05-1.055.637.637 0 0 0-.96-.054l.096.117-.096-.117.096.117-.096-.117a7.341 7.341 0 0 1-.527.465 3.42 3.42 0 0 1-.402.282.908.908 0 0 1-.132.065l-.015.005-.005.001.035.179v-.181c-.026 0-.035.002-.035.002l.035.179v-.181.42l.108-.402a.345.345 0 0 0-.108-.018v.42l.108-.402c-.04-.01-.158-.079-.3-.238-.251-.274-.555-.788-.83-1.388-.416-.903-.788-2-1.05-2.862a34.368 34.368 0 0 1-.386-1.378c-.01-.035-.016-.063-.02-.08l-.007-.026c-.097-.398-.47-.634-.832-.527-.362.107-.577.516-.48.915M31.945 61.433l-.004.014c-.04.16-.412 1.635-.953 3.098-.27.73-.584 1.46-.9 1.999-.156.27-.313.49-.45.637-.135.15-.246.213-.286.224l.108.403v-.421a.345.345 0 0 0-.108.018l.108.403v-.421.196l.035-.194c-.001 0-.012-.002-.035-.002v.196l.035-.194-.019-.006a1.458 1.458 0 0 1-.279-.156 5.578 5.578 0 0 1-.535-.426 7.806 7.806 0 0 1-.233-.216l-.012-.011-.003-.003a.637.637 0 0 0-.96.054.8.8 0 0 0 .05 1.055c.01.01.277.274.624.553.175.14.368.283.577.404.105.06.214.115.334.16.12.044.253.082.42.083.084 0 .178-.01.277-.043.358-.119.636-.35.879-.617.423-.472.764-1.09 1.078-1.766.467-1.013.852-2.16 1.127-3.065.274-.902.434-1.558.437-1.568.097-.399-.118-.808-.48-.915-.362-.107-.735.129-.832.527"/>
        <path fill="#F2F2F2" d="M67.162 10.88H4.398c-.615 0-1.118-.45-1.118-1s.503-1 1.118-1h62.764c.615 0 1.118.45 1.118 1s-.503 1-1.118 1"/>
        <path fill="#E6E6E6" d="M67.45 11.093v-.787H5.11a.37.37 0 0 1-.274-.126.442.442 0 0 1-.116-.3c0-.116.043-.22.116-.3a.37.37 0 0 1 .274-.126h62.34c.106 0 .2.046.274.126.073.08.115.184.116.3 0 .117-.043.22-.116.3a.37.37 0 0 1-.274.126v1.574c.503 0 .964-.227 1.293-.587.33-.359.537-.862.537-1.413 0-.55-.208-1.054-.537-1.413a1.754 1.754 0 0 0-1.293-.587H5.11c-.503 0-.964.227-1.293.587-.33.359-.537.862-.537 1.413 0 .55.208 1.054.537 1.413.329.36.79.587 1.293.587h62.34v-.787"/>
        <path fill="#F2F2F2" d="M64.16 12.88v-11"/>
        <path fill="#E6E6E6" d="M64.28 12.16V1.6c0-.398-.224-.72-.5-.72s-.5.322-.5.72v10.56c0 .398.224.72.5.72s.5-.322.5-.72"/>
        <path fill="#E6E6E6" d="M64.28 14.88c-1.657 0-3-1.353-3-3.022V8.902c0-1.669 1.343-3.022 3-3.022s3 1.353 3 3.022v2.956c0 1.669-1.343 3.022-3 3.022"/>
        <path fill="#CCC" d="M64.28 15.13v-.751c-.686 0-1.3-.272-1.75-.715a2.41 2.41 0 0 1-.726-1.724V8.82c0-.676.276-1.28.725-1.725a2.483 2.483 0 0 1 1.751-.714c.686 0 1.3.272 1.75.714.45.444.726 1.05.726 1.725v3.12a2.41 2.41 0 0 1-.725 1.724 2.484 2.484 0 0 1-1.751.715v1.501a4.022 4.022 0 0 0 2.828-1.154 3.902 3.902 0 0 0 1.172-2.786V8.82a3.902 3.902 0 0 0-1.172-2.786A4.02 4.02 0 0 0 64.28 4.88a4.02 4.02 0 0 0-2.828 1.154A3.9 3.9 0 0 0 60.28 8.82v3.12c0 1.085.449 2.075 1.172 2.786a4.022 4.022 0 0 0 2.828 1.154v-.75"/>
        <path fill="#F2F2F2" d="M8.16 12.88v-11"/>
        <path fill="#E6E6E6" d="M9.28 12.16V1.6c0-.398-.224-.72-.5-.72s-.5.322-.5.72v10.56c0 .398.224.72.5.72s.5-.322.5-.72"/>
        <path fill="#E6E6E6" d="M8.28 14.88c-1.657 0-3-1.353-3-3.022V8.902c0-1.669 1.343-3.022 3-3.022s3 1.353 3 3.022v2.956c0 1.669-1.343 3.022-3 3.022"/>
        <path fill="#CCC" d="M8.28 15.13v-.751c-.686 0-1.3-.272-1.75-.715a2.41 2.41 0 0 1-.726-1.724V8.82c0-.676.276-1.28.725-1.725a2.483 2.483 0 0 1 1.751-.714c.686 0 1.3.272 1.75.714.45.444.726 1.05.726 1.725v3.12a2.41 2.41 0 0 1-.725 1.724 2.484 2.484 0 0 1-1.751.715v1.501a4.022 4.022 0 0 0 2.828-1.154 3.903 3.903 0 0 0 1.172-2.786V8.82a3.903 3.903 0 0 0-1.172-2.786A4.02 4.02 0 0 0 8.28 4.88a4.02 4.02 0 0 0-2.828 1.154A3.9 3.9 0 0 0 4.28 8.82v3.12c0 1.085.449 2.075 1.172 2.786A4.022 4.022 0 0 0 8.28 15.88v-.75"/>
        <path fill="#F2F2F2" d="M38.28 3.709V8.05c0 1.01-.895 1.829-2 1.829s-2-.819-2-1.829V3.71c0-1.01.895-1.829 2-1.829s2 .819 2 1.829"/>
        <path fill="#E6E6E6" d="M37.59 3.569h-.69V8.19c0 .336-.124.632-.328.853-.205.219-.48.352-.792.353-.312 0-.587-.134-.792-.353a1.244 1.244 0 0 1-.329-.853V3.57c0-.336.125-.632.329-.853.205-.219.48-.352.792-.353.312 0 .587.134.792.353.204.22.328.517.329.853h1.379c0-.74-.28-1.417-.732-1.902A2.41 2.41 0 0 0 35.78.88a2.41 2.41 0 0 0-1.768.787 2.788 2.788 0 0 0-.732 1.902V8.19c0 .74.28 1.417.732 1.902a2.41 2.41 0 0 0 1.768.787 2.41 2.41 0 0 0 1.768-.787 2.79 2.79 0 0 0 .732-1.902V3.57h-.69"/>
        <path fill="#E6E6E6" d="M38.733 14.88h-5.906c-2.5 0-4.547-2.025-4.547-4.5s2.046-4.5 4.547-4.5h5.906c2.5 0 4.547 2.025 4.547 4.5s-2.046 4.5-4.547 4.5"/>
        <path fill="#CCC" d="M39.155 15.13v-.751h-5.75c-1.024 0-1.952-.448-2.63-1.176a4.134 4.134 0 0 1-1.096-2.823c0-1.1.417-2.095 1.095-2.824.679-.727 1.607-1.175 2.631-1.175h5.75c1.024 0 1.952.448 2.63 1.175a4.135 4.135 0 0 1 1.096 2.824c0 1.1-.418 2.095-1.095 2.823-.679.728-1.607 1.176-2.631 1.176v1.501c1.41 0 2.694-.62 3.62-1.615a5.694 5.694 0 0 0 1.505-3.885 5.693 5.693 0 0 0-1.505-3.885c-.926-.995-2.21-1.615-3.62-1.615h-5.75c-1.41 0-2.694.62-3.62 1.615a5.693 5.693 0 0 0-1.505 3.885c0 1.513.578 2.892 1.505 3.885.926.995 2.21 1.615 3.62 1.615h5.75v-.75"/>
        <path fill="#E6E6E6" d="M.28 2.76h15"/>
        <path fill="#CCC" d="M.996 3.88h14.568c.395 0 .716-.224.716-.5s-.32-.5-.716-.5H.996c-.395 0-.716.224-.716.5s.32.5.716.5"/>
        <path fill="#E6E6E6" d="M56.28 2.76h15"/>
        <path fill="#CCC" d="M56.996 3.88h14.568c.395 0 .716-.224.716-.5s-.32-.5-.716-.5H56.996c-.395 0-.716.224-.716.5s.32.5.716.5"/>
    </g>
</svg>
