<svg xmlns="http://www.w3.org/2000/svg" width="17" height="18" viewBox="0 0 17 18">
    <path fill="#DD1E31" fill-rule="nonzero" d="M10.228 0c.252 0 .457.205.457.457v.798a.457.457 0 0 1-.457.457h-.542v.646a7.835 7.835 0 0 1 5.229 2.849l.954-.669a.37.37 0 0 1 .515.09l.558.797a.37.37 0 0 1-.088.513l-1.005.704a7.845 7.845 0 1 1-14.033.002L.81 5.94a.37.37 0 0 1-.09-.515l.558-.797a.37.37 0 0 1 .515-.09l.954.669a7.83 7.83 0 0 1 5.229-2.849v-.646h-.542a.457.457 0 0 1-.457-.457V.457c0-.252.205-.457.457-.457zM8.831 4.025a6.09 6.09 0 0 0-4.336 1.796A6.095 6.095 0 0 0 2.7 10.157a6.09 6.09 0 0 0 1.795 4.335 6.095 6.095 0 0 0 4.336 1.796 6.09 6.09 0 0 0 4.336-1.796 6.09 6.09 0 0 0 1.795-4.335 6.09 6.09 0 0 0-1.795-4.336A6.095 6.095 0 0 0 8.83 4.025zm0 .853v5.276l3.733 3.733A5.278 5.278 0 1 1 8.83 4.878z"/>
</svg>
