<svg xmlns="http://www.w3.org/2000/svg" xmlns:xlink="http://www.w3.org/1999/xlink" width="33" height="33" viewBox="0 0 33 33">
    <defs>
        <ellipse id="a" cx="16.429" cy="16.249" rx="16.429" ry="16.249"/>
        <filter id="b" width="106.1%" height="106.2%" x="-3%" y="-3.1%" filterUnits="objectBoundingBox">
            <feGaussianBlur in="SourceAlpha" result="shadowBlurInner1" stdDeviation=".5"/>
            <feOffset dy="1" in="shadowBlurInner1" result="shadowOffsetInner1"/>
            <feComposite in="shadowOffsetInner1" in2="SourceAlpha" k2="-1" k3="1" operator="arithmetic" result="shadowInnerInner1"/>
            <feColorMatrix in="shadowInnerInner1" values="0 0 0 0 0 0 0 0 0 0 0 0 0 0 0 0 0 0 0.093558785 0"/>
        </filter>
    </defs>
    <g fill="none" fill-rule="evenodd">
        <g opacity=".5">
            <use fill="#F1F1F1" xlink:href="#a"/>
            <use fill="#000" filter="url(#b)" xlink:href="#a"/>
        </g>
        <text fill="#4A4A4A" font-family="ProximaNova-Bold, Proxima Nova" font-size="2.816" font-weight="bold" transform="translate(5.588 5.588)">
            <tspan x="7.283" y="11.864">UPTO</tspan>  <tspan x="7.592" y="14.975" font-size="3.096">2 yrs</tspan>
        </text>
        <g fill-rule="nonzero">
            <path fill="#000" fill-opacity=".673" stroke="#F7F7F7" stroke-width=".55" d="M27.537 9.628l-.032-.006A29.845 29.845 0 0 1 17.019 5.66a.48.48 0 0 0-.503 0 29.5 29.5 0 0 1-10.42 3.952L6 9.628a.48.48 0 0 0-.397.472v6.27a14.09 14.09 0 0 0 3.11 8.81 14.135 14.135 0 0 0 7.953 4.921.485.485 0 0 0 .207 0 14.143 14.143 0 0 0 7.954-4.925 14.1 14.1 0 0 0 3.109-8.813V10.1a.48.48 0 0 0-.398-.472zm-.562 6.735c0 6.07-4.286 11.428-10.207 12.78-5.92-1.349-10.206-6.703-10.206-12.774V10.5a30.447 30.447 0 0 0 10.207-3.872A30.786 30.786 0 0 0 26.975 10.5v5.863z"/>
            <g stroke="#F7F7F7" stroke-width=".55">
                <path fill="#E94E4B" d="M16.757 9.069c.08 0 .162-.02.237-.063L17 9.003l.004-.002c.231-.13.312-.42.182-.651a.482.482 0 0 0-.655-.183l-.01.006a.479.479 0 0 0 .237.896z"/>
                <path fill="#505050" d="M14.645 9.143a31.688 31.688 0 0 1-6.499 2.264.48.48 0 0 0-.372.467v4.489c0 .519.035 1.043.104 1.557a.48.48 0 0 0 .951-.127 10.78 10.78 0 0 1-.095-1.43v-4.11a32.648 32.648 0 0 0 6.324-2.245.479.479 0 1 0-.413-.865zM25.283 11.395a.48.48 0 0 0-.48.48v4.488c0 4.258-2.52 8.165-6.421 9.954a.479.479 0 1 0 .4.87 11.987 11.987 0 0 0 5.05-4.365 11.81 11.81 0 0 0 1.93-6.46v-4.488a.48.48 0 0 0-.48-.479z"/>
                <path fill="#E94E4B" d="M16.664 26.935l-.019.005a.479.479 0 1 0 .246.926l.019-.005a.479.479 0 1 0-.246-.926z"/>
            </g>
            <path fill="#41BA93" stroke="#F7F7F7" stroke-width=".55" d="M23.66 17.704a1.332 1.332 0 0 0-.2-1.655l-.524-.517a.328.328 0 0 1-.098-.258l.053-.738a1.331 1.331 0 0 0-.949-1.377l-.694-.21a.328.328 0 0 1-.207-.183l-.29-.671a1.347 1.347 0 0 0-1.486-.781l-.705.138a.328.328 0 0 1-.27-.066l-.56-.454a1.345 1.345 0 0 0-1.682 0l-.561.454a.328.328 0 0 1-.27.066l-.705-.138a1.346 1.346 0 0 0-1.485.78l-.291.672a.328.328 0 0 1-.207.184l-.694.21a1.331 1.331 0 0 0-.949 1.376l.053.738a.328.328 0 0 1-.097.258l-.525.517c-.447.44-.53 1.12-.2 1.655l.387.63c.05.082.063.181.033.273l-.227.706c-.192.598.05 1.24.591 1.56l.629.374c.083.05.14.132.156.227l.124.726a1.33 1.33 0 0 0 1.252 1.112l.72.036a.328.328 0 0 1 .246.13l.439.577a1.345 1.345 0 0 0 1.632.403l.65-.304a.328.328 0 0 1 .278 0l.651.304a1.345 1.345 0 0 0 1.632-.403l.44-.578a.328.328 0 0 1 .244-.13l.72-.035a1.33 1.33 0 0 0 1.254-1.112l.123-.726a.328.328 0 0 1 .156-.227l.63-.373c.54-.321.782-.963.59-1.561l-.227-.706a.328.328 0 0 1 .033-.273l.388-.63zm-.81-.533l-.392.636a1.348 1.348 0 0 0-.135 1.12l.23.711a.33.33 0 0 1-.147.386l-.634.377c-.341.202-.575.542-.641.933l-.125.732a.329.329 0 0 1-.31.275l-.726.036c-.4.02-.766.213-1.008.53l-.442.583a.333.333 0 0 1-.404.1l-.657-.307a1.346 1.346 0 0 0-1.141 0l-.657.307a.333.333 0 0 1-.403-.1l-.443-.582a1.346 1.346 0 0 0-1.008-.531l-.726-.036a.329.329 0 0 1-.31-.275l-.124-.732c-.067-.39-.3-.731-.642-.933l-.634-.377a.33.33 0 0 1-.146-.386l.229-.712c.12-.375.071-.783-.135-1.12l-.392-.635a.33.33 0 0 1 .05-.41l.53-.52c.28-.278.426-.663.398-1.057l-.053-.744a.33.33 0 0 1 .235-.34l.7-.212c.381-.115.69-.39.849-.755l.293-.676a.333.333 0 0 1 .367-.193l.711.139c.393.077.797-.023 1.108-.274l.566-.457a.333.333 0 0 1 .415 0l.566.457c.312.251.715.35 1.108.274l.71-.14a.333.333 0 0 1 .368.194l.293.676c.159.365.468.64.849.755l.7.211a.33.33 0 0 1 .235.34l-.053.745c-.028.394.117.78.399 1.057l.53.52a.33.33 0 0 1 .049.41z"/>
            <g fill="#E94E4B">
                <path d="M14 24.91a.183.183 0 0 0-.252.071l-.992 1.792a.19.19 0 0 0 .07.257.184.184 0 0 0 .251-.071l.992-1.793a.19.19 0 0 0-.07-.256zM14.164 26.033a.56.56 0 0 0-.554.564.56.56 0 0 0 .554.565.56.56 0 0 0 .553-.565.56.56 0 0 0-.553-.564zm0 .752a.187.187 0 0 1-.185-.188c0-.104.083-.188.185-.188.101 0 .184.084.184.188a.187.187 0 0 1-.184.188zM12.874 24.582a.56.56 0 0 0-.554.565.56.56 0 0 0 .554.564.56.56 0 0 0 .554-.564.56.56 0 0 0-.554-.565zm0 .753a.187.187 0 0 1-.184-.188c0-.104.082-.188.184-.188s.185.084.185.188a.187.187 0 0 1-.185.188z"/>
            </g>
        </g>
    </g>
</svg>
