<svg xmlns="http://www.w3.org/2000/svg" width="30" height="30" viewBox="0 0 30 30">
    <g fill="none" fill-rule="nonzero" opacity=".751">
        <circle cx="14.893" cy="14.893" r="14.893" fill="#F14336"/>
        <g fill="#FFF">
            <path d="M9.823 16.967l-.625 2.365-2.287.049a9.148 9.148 0 0 1-1.07-4.312c0-1.509.362-2.931 1.004-4.184l2.036.378.892 2.048a5.47 5.47 0 0 0-.289 1.758c0 .668.12 1.308.339 1.898zM23.998 13.274a8.915 8.915 0 0 1-.04 3.586 9.04 9.04 0 0 1-3.25 5.175l-2.634-.132-.373-2.285a5.428 5.428 0 0 0 2.367-2.758h-4.935v-3.586h8.865z"/>
            <path d="M20.707 22.165h.001a9.188 9.188 0 0 1-5.736 1.994 9.175 9.175 0 0 1-8.07-4.765l2.97-2.403a5.445 5.445 0 0 0 5.1 3.495 5.464 5.464 0 0 0 2.751-.737l2.984 2.416zM20.973 7.962l-2.986 2.443a5.482 5.482 0 0 0-8.081 2.869l-3.003-2.457a9.216 9.216 0 0 1 8.187-4.976c2.236 0 4.287.796 5.883 2.12z"/>
        </g>
    </g>
</svg>
