<svg xmlns="http://www.w3.org/2000/svg" width="26" height="26" viewBox="0 0 26 26">
    <g fill="none" fill-rule="nonzero">
        <path fill="#000" d="M25.282 14.051l-.464-.638a.86.86 0 0 1-.005-1.011l.453-.644a2.167 2.167 0 0 0-.747-3.165l-.694-.373a.864.864 0 0 1-.448-.904l.133-.777a2.182 2.182 0 0 0-.453-1.724 2.184 2.184 0 0 0-1.596-.803l-.79-.032a.862.862 0 0 1-.796-.623l-.229-.75a2.185 2.185 0 0 0-2.952-1.388l-.726.308a.879.879 0 0 1-.987-.218l-.528-.585A2.181 2.181 0 0 0 12.836 0a2.19 2.19 0 0 0-1.644.745l-.513.596a.884.884 0 0 1-.987.234l-.731-.298a2.177 2.177 0 0 0-2.925 1.431l-.208.761a.866.866 0 0 1-.79.633l-.785.048a2.165 2.165 0 0 0-2.012 2.554l.144.772a.864.864 0 0 1-.432.914l-.689.384a2.175 2.175 0 0 0-1.067 1.43c-.134.607 0 1.246.368 1.746l.464.633a.86.86 0 0 1 .005 1.01l-.453.644a2.167 2.167 0 0 0 .747 3.165l.694.373a.863.863 0 0 1 .448.905l-.133.776c-.101.612.064 1.24.453 1.724.395.485.978.777 1.596.803l.79.032a.862.862 0 0 1 .795.623l.219.755a2.185 2.185 0 0 0 2.952 1.389l.725-.309a.88.88 0 0 1 .988.219l.528.584a2.188 2.188 0 0 0 1.618.724c.63 0 1.228-.271 1.645-.745l.517-.596a.885.885 0 0 1 .987-.234l.731.298a2.175 2.175 0 0 0 2.925-1.431l.208-.761a.869.869 0 0 1 .79-.633l.79-.048a2.164 2.164 0 0 0 2.012-2.553l-.144-.772a.863.863 0 0 1 .433-.915l.688-.383a2.176 2.176 0 0 0 1.068-1.431 2.16 2.16 0 0 0-.369-1.745zm-.907 1.463a.86.86 0 0 1-.427.57l-.688.383a2.162 2.162 0 0 0-1.084 2.287l.145.771a.848.848 0 0 1-.17.692.862.862 0 0 1-.636.33l-.785.048a2.17 2.17 0 0 0-1.975 1.591l-.208.756a.868.868 0 0 1-1.169.574l-.731-.298a2.223 2.223 0 0 0-.827-.165c-.63 0-1.228.271-1.644.745l-.518.59a.86.86 0 0 1-.657.298.85.85 0 0 1-.645-.287l-.529-.585a2.187 2.187 0 0 0-2.482-.548l-.726.308a.87.87 0 0 1-1.174-.553l-.218-.755A2.18 2.18 0 0 0 5.23 20.7l-.79-.031a.843.843 0 0 1-.635-.32.846.846 0 0 1-.181-.686l.133-.776a2.161 2.161 0 0 0-1.12-2.272l-.694-.373a.852.852 0 0 1-.438-.564.832.832 0 0 1 .139-.697l.453-.644c.54-.76.534-1.776-.021-2.531l-.464-.634a.835.835 0 0 1-.145-.696.86.86 0 0 1 .428-.57l.688-.383a2.163 2.163 0 0 0 1.083-2.288l-.138-.765a.848.848 0 0 1 .17-.692.862.862 0 0 1 .635-.33l.785-.048a2.176 2.176 0 0 0 1.975-1.59l.208-.761a.868.868 0 0 1 1.17-.575l.73.297c.267.107.545.165.828.165.63 0 1.227-.271 1.643-.744l.518-.59a.857.857 0 0 1 .657-.299c.25 0 .48.102.645.288l.529.584a2.188 2.188 0 0 0 2.482.549l.726-.309a.87.87 0 0 1 1.174.553l.219.756a2.18 2.18 0 0 0 1.996 1.564l.79.032c.251.011.48.122.64.32.161.196.225.44.182.685l-.133.777c-.155.92.293 1.83 1.12 2.272l.695.373a.849.849 0 0 1 .437.563.847.847 0 0 1-.133.697l-.453.644a2.16 2.16 0 0 0 .02 2.533l.465.632c.127.202.18.452.127.697z"/>
        <path fill="#010101" stroke="#FFF" stroke-width=".6" d="M16.363 9.02l-5.251 5.344-1.706-1.755a1.175 1.175 0 0 0-1.695 0 1.253 1.253 0 0 0-.009 1.736l2.557 2.628c.225.23.53.36.853.36.313 0 .617-.13.842-.36l6.104-6.209c.47-.481.47-1.254.01-1.735a1.196 1.196 0 0 0-1.705-.01z"/>
    </g>
</svg>
