<svg xmlns="http://www.w3.org/2000/svg" width="34" height="34" viewBox="0 0 34 34">
    <g fill="none" fill-rule="nonzero">
        <path fill="#6C717D" d="M17.048 6.958c-5.6 0-10.152 4.5-10.152 10.038 0 5.531 4.552 10.04 10.152 10.04 5.601 0 10.152-4.51 10.152-10.04 0-5.537-4.551-10.038-10.152-10.038zm0 18.373c-4.643 0-8.428-3.735-8.428-8.335 0-4.59 3.778-8.334 8.428-8.334s8.429 3.743 8.429 8.334c0 4.592-3.785 8.335-8.429 8.335z"/>
        <path fill="#6C717D" d="M33.342 18.374l-.612-.835a1.117 1.117 0 0 1-.007-1.321l.598-.842a2.822 2.822 0 0 0-.985-4.14l-.915-.486a1.127 1.127 0 0 1-.59-1.184l.175-1.015a2.837 2.837 0 0 0-.598-2.254 2.887 2.887 0 0 0-2.103-1.05l-1.042-.042a1.135 1.135 0 0 1-1.048-.815l-.302-.981c-.352-1.204-1.485-2.045-2.759-2.045-.387 0-.774.076-1.133.23l-.957.403c-.443.188-.985.07-1.3-.285l-.697-.766a2.885 2.885 0 0 0-4.298.028l-.676.78a1.172 1.172 0 0 1-1.301.306l-.964-.39a2.947 2.947 0 0 0-1.09-.215 2.866 2.866 0 0 0-2.766 2.087l-.274.994a1.14 1.14 0 0 1-1.041.828l-1.035.063a2.861 2.861 0 0 0-2.09 1.078 2.82 2.82 0 0 0-.563 2.262l.19 1.009c.092.48-.14.96-.57 1.196l-.907.501a2.847 2.847 0 0 0-1.407 1.872c-.176.793 0 1.627.486 2.281l.612.828c.288.39.296.926.006 1.322l-.597.842a2.82 2.82 0 0 0 .984 4.14l.915.486c.437.23.668.703.59 1.183l-.175 1.016c-.133.8.084 1.621.598 2.254a2.885 2.885 0 0 0 2.103 1.05l1.042.042c.492.021.915.348 1.048.814l.288.988c.352 1.204 1.485 2.046 2.758 2.046.387 0 .774-.077 1.133-.23l.956-.404c.444-.187.986-.07 1.302.286l.697.765a2.894 2.894 0 0 0 2.133.946c.83 0 1.618-.354 2.167-.974l.682-.78a1.173 1.173 0 0 1 1.302-.306l.963.39a2.96 2.96 0 0 0 1.091.216c1.287 0 2.427-.856 2.764-2.087l.275-.995c.127-.466.55-.8 1.042-.828l1.04-.062a2.874 2.874 0 0 0 2.09-1.079c.507-.64.71-1.46.563-2.26l-.19-1.01c-.091-.48.141-.96.57-1.196l.907-.502a2.848 2.848 0 0 0 1.408-1.87c.176-.794 0-1.629-.486-2.283zm-1.196 1.913c-.07.32-.274.585-.562.745l-.908.501a2.82 2.82 0 0 0-1.428 2.991l.19 1.01c.063.327-.022.647-.225.904-.204.258-.5.41-.837.431l-1.035.063a2.855 2.855 0 0 0-2.602 2.08l-.275.988a1.143 1.143 0 0 1-1.104.835c-.149 0-.296-.028-.437-.083l-.964-.39a2.95 2.95 0 0 0-1.09-.216c-.83 0-1.618.355-2.167.974l-.682.773c-.219.25-.528.389-.866.389-.33 0-.633-.132-.85-.375l-.698-.766a2.893 2.893 0 0 0-3.271-.716l-.957.402a1.146 1.146 0 0 1-1.548-.723l-.288-.988a2.87 2.87 0 0 0-2.632-2.045l-1.041-.041a1.114 1.114 0 0 1-.837-.418 1.1 1.1 0 0 1-.24-.897l.176-1.016a2.82 2.82 0 0 0-1.477-2.97l-.914-.488A1.115 1.115 0 0 1 2 20.504a1.081 1.081 0 0 1 .182-.912l.598-.842a2.804 2.804 0 0 0-.028-3.31l-.612-.829a1.085 1.085 0 0 1-.19-.91c.071-.32.275-.586.564-.745l.907-.501a2.82 2.82 0 0 0 1.428-2.992l-.183-1.002a1.102 1.102 0 0 1 .225-.904c.204-.258.5-.41.837-.431l1.035-.063a2.864 2.864 0 0 0 2.603-2.08l.274-.995a1.142 1.142 0 0 1 1.104-.835c.149 0 .296.028.437.083l.964.39a2.893 2.893 0 0 0 3.257-.758l.683-.772c.218-.251.528-.39.865-.39.33 0 .634.132.851.376l.697.764a2.894 2.894 0 0 0 3.272.717l.957-.403c.147-.063.294-.09.45-.09.506 0 .956.333 1.097.813l.288.988a2.87 2.87 0 0 0 2.632 2.045l1.041.043c.331.014.634.16.845.417.211.257.295.577.24.897l-.177 1.016a2.822 2.822 0 0 0 1.477 2.971l.915.487c.296.152.5.417.577.737a1.1 1.1 0 0 1-.176.911l-.597.842a2.805 2.805 0 0 0 .028 3.313l.612.827c.167.264.238.59.167.91z"/>
        <path fill="#696E79" d="M19.546 14.235l-3.771 3.708-1.225-1.218a.865.865 0 0 0-1.217 0 .848.848 0 0 0-.007 1.204l1.837 1.823a.868.868 0 0 0 1.217 0l4.383-4.307a.848.848 0 0 0 .008-1.204.88.88 0 0 0-1.225-.006z"/>
    </g>
</svg>
