<svg xmlns="http://www.w3.org/2000/svg" width="28" height="29" viewBox="0 0 28 29">
    <g fill="none" fill-rule="nonzero">
        <path fill="#6C717D" d="M14.04 6.23c-4.612 0-8.361 3.707-8.361 8.267 0 4.555 3.75 8.267 8.36 8.267 4.613 0 8.361-3.712 8.361-8.267 0-4.56-3.748-8.267-8.36-8.267zm0 15.13c-3.824 0-6.942-3.075-6.942-6.863 0-3.781 3.112-6.864 6.942-6.864s6.94 3.083 6.94 6.864c0 3.782-3.116 6.864-6.94 6.864z"/>
        <path fill="#6C717D" d="M27.458 15.632l-.504-.688a.92.92 0 0 1-.005-1.088l.492-.693a2.324 2.324 0 0 0-.811-3.41l-.754-.4a.928.928 0 0 1-.486-.975l.144-.836c.11-.66-.07-1.335-.492-1.856a2.378 2.378 0 0 0-1.732-.866l-.858-.034a.934.934 0 0 1-.863-.67l-.25-.809a2.37 2.37 0 0 0-2.27-1.684c-.32 0-.638.063-.934.19l-.788.331a.96.96 0 0 1-1.071-.234l-.574-.63a2.376 2.376 0 0 0-3.54.022l-.556.642a.965.965 0 0 1-1.071.252l-.794-.32a2.36 2.36 0 0 0-3.175 1.541l-.227.819a.939.939 0 0 1-.857.682l-.852.051a2.356 2.356 0 0 0-1.72.888 2.322 2.322 0 0 0-.465 1.863l.157.83a.928.928 0 0 1-.47.986l-.746.412a2.345 2.345 0 0 0-1.16 1.542c-.145.653 0 1.34.4 1.879l.505.682a.92.92 0 0 1 .005 1.088l-.492.693a2.323 2.323 0 0 0 .81 3.41l.754.4c.36.19.55.579.486.975l-.144.836c-.11.658.07 1.335.492 1.856.429.522 1.061.837 1.732.865l.858.035a.934.934 0 0 1 .863.67l.238.814a2.37 2.37 0 0 0 2.27 1.684c.32 0 .638-.063.934-.189l.787-.332a.961.961 0 0 1 1.072.235l.574.63c.448.493 1.09.779 1.756.779.685 0 1.333-.292 1.786-.802l.56-.642a.966.966 0 0 1 1.073-.252l.793.32a2.358 2.358 0 0 0 3.175-1.541l.226-.819a.941.941 0 0 1 .858-.682l.858-.05a2.366 2.366 0 0 0 1.72-.889 2.316 2.316 0 0 0 .464-1.862l-.156-.83a.927.927 0 0 1 .469-.986l.747-.413a2.346 2.346 0 0 0 1.16-1.541c.144-.653 0-1.34-.401-1.88zm-.985 1.575a.927.927 0 0 1-.463.614l-.747.412a2.323 2.323 0 0 0-1.177 2.463l.157.831a.908.908 0 0 1-.185.745.938.938 0 0 1-.69.355l-.852.052a2.351 2.351 0 0 0-2.143 1.714l-.226.813a.941.941 0 0 1-.91.688.977.977 0 0 1-.359-.069l-.794-.321a2.43 2.43 0 0 0-.898-.178c-.684 0-1.332.292-1.784.802l-.562.637a.936.936 0 0 1-.713.32.927.927 0 0 1-.7-.309l-.575-.63a2.382 2.382 0 0 0-2.694-.59l-.788.331a.943.943 0 0 1-1.274-.595l-.238-.814a2.363 2.363 0 0 0-2.167-1.684l-.858-.034a.917.917 0 0 1-.69-.344.906.906 0 0 1-.196-.74l.144-.836a2.322 2.322 0 0 0-1.216-2.446l-.753-.401a.918.918 0 0 1-.475-.608.89.89 0 0 1 .15-.75l.493-.694a2.309 2.309 0 0 0-.023-2.726l-.504-.682a.893.893 0 0 1-.157-.75.927.927 0 0 1 .464-.613l.747-.413a2.323 2.323 0 0 0 1.176-2.464l-.15-.825a.908.908 0 0 1 .185-.745.939.939 0 0 1 .69-.355l.851-.051a2.358 2.358 0 0 0 2.144-1.714l.226-.819a.94.94 0 0 1 .91-.688c.121 0 .243.024.359.07l.794.32a2.383 2.383 0 0 0 2.682-.624l.562-.636a.934.934 0 0 1 .713-.322c.272 0 .522.11.7.31l.574.63a2.383 2.383 0 0 0 2.695.59l.788-.332a.943.943 0 0 1 1.274.595l.238.815a2.363 2.363 0 0 0 2.167 1.684l.858.035a.938.938 0 0 1 .695.343.905.905 0 0 1 .197.739L24 8.15a2.324 2.324 0 0 0 1.217 2.446l.753.402a.915.915 0 0 1 .475.606.906.906 0 0 1-.145.75l-.492.694a2.31 2.31 0 0 0 .023 2.728l.504.681c.138.218.197.486.138.75z"/>
        <path fill="#696E79" d="M16.097 12.223l-3.106 3.053-1.009-1.002a.712.712 0 0 0-1.002 0 .698.698 0 0 0-.005.991l1.512 1.501a.715.715 0 0 0 1.002 0l3.61-3.547a.699.699 0 0 0 .006-.99.725.725 0 0 0-1.008-.006z"/>
    </g>
</svg>
