<svg xmlns="http://www.w3.org/2000/svg" xmlns:xlink="http://www.w3.org/1999/xlink" width="17" height="16" viewBox="0 0 17 16">
    <defs>
        <path id="a" d="M3.81 16a.915.915 0 0 1-.542-.182.894.894 0 0 1-.347-.944l1.083-4.518a.302.302 0 0 0-.098-.303L.323 7.026A.906.906 0 0 1 .84 5.427l4.74-.388a.304.304 0 0 0 .255-.181L7.66.552a.913.913 0 0 1 1.68 0l1.825 4.3a.304.304 0 0 0 .255.181l4.74.388a.906.906 0 1 1 .517 1.599l-3.583 3.027a.296.296 0 0 0-.098.303l1.083 4.518a.906.906 0 0 1-.328.912.916.916 0 0 1-.968.099L8.69 13.457a.305.305 0 0 0-.31 0l-4.114 2.422A.916.916 0 0 1 3.81 16zM8.524 1.619a.26.26 0 0 0-.245.159L6.683 5.545a.798.798 0 0 1-.671.477l-4.147.34a.264.264 0 1 0-.15.466l3.136 2.649c.23.192.332.498.261.79l-.974 3.952a.264.264 0 0 0 .1.276c.086.063.202.07.294.015l3.583-2.12c.25-.149.564-.149.814 0l3.578 2.12a.267.267 0 0 0 .294-.015.264.264 0 0 0 .1-.276l-.948-3.953a.787.787 0 0 1 .261-.79l3.136-2.649a.264.264 0 0 0-.15-.466l-4.147-.339a.798.798 0 0 1-.67-.477L8.786 1.783a.26.26 0 0 0-.261-.164z"/>
    </defs>
    <g fill="none" fill-rule="evenodd">
        <mask id="b" fill="#fff">
            <use xlink:href="#a"/>
        </mask>
        <use fill="#E1E1E1" fill-rule="nonzero" xlink:href="#a"/>
        <path fill="#FC3" fill-rule="nonzero" d="M-1-1H9v18H-1z" mask="url(#b)"/>
    </g>
</svg>
