<svg xmlns="http://www.w3.org/2000/svg" width="20" height="19" viewBox="0 0 20 19">
    <path fill="#0064BA" fill-rule="evenodd" d="M9.902 0a.76.76 0 0 1 .577.287l6.748 6.074 2.275 2.046a.76.76 0 1 1-1.018 1.13l-.251-.226v6.65c0 .569.003 1.005-.042 1.4-.044.393-.146.807-.467 1.129-.32.32-.735.424-1.13.468-.393.045-.83.042-1.4.042h-.76c-.568 0-1.005.003-1.399-.042-.394-.044-.808-.146-1.129-.467-.321-.32-.424-.735-.469-1.13-.044-.393-.041-.83-.041-1.4v-1.52c0-.567-.004-.983-.031-1.23a1.207 1.207 0 0 0-.04-.217 1.189 1.189 0 0 0-.219-.04c-.246-.028-.661-.032-1.23-.032-.568 0-.983.004-1.23.032a1.19 1.19 0 0 0-.218.04c-.009.03-.026.095-.04.218-.027.246-.031.662-.031 1.23v1.52c0 .568.003 1.004-.042 1.398-.044.394-.146.808-.467 1.13-.32.32-.735.424-1.129.468-.394.045-.832.042-1.4.042h-.76c-.57 0-1.007.003-1.401-.042-.394-.044-.808-.147-1.13-.468-.32-.322-.422-.736-.467-1.13-.044-.394-.041-.83-.041-1.399v-6.65l-.251.225A.76.76 0 1 1 .251 8.407l2.275-2.046L9.276.284A.76.76 0 0 1 9.903 0z"/>
</svg>
