<svg xmlns="http://www.w3.org/2000/svg" xmlns:xlink="http://www.w3.org/1999/xlink" width="45" height="53" viewBox="0 0 45 53">
    <defs>
        <path id="a" d="M0 .014h44.902v19.742H0z"/>
    </defs>
    <g fill="none" fill-rule="evenodd">
        <g transform="translate(0 32.537)">
            <mask id="b" fill="#fff">
                <use xlink:href="#a"/>
            </mask>
            <path fill="#000" d="M26.77 18.442c-.493.75-1.247.947-1.944.428-.297-.222-.583-.654-.592-.998-.005-.208.507-.478.829-.634.386-.187.817-.283 1.373-.466-.272-.31-.404-.521-.59-.663-1.045-.8-2.107-1.58-3.157-2.376-.378-.286-.722-.352-1.125-.02-1.045.86-2.11 1.697-3.166 2.543l.087.29c.46.153.935.273 1.375.473.255.116.628.351.635.545.011.285-.19.66-.42.856-.792.68-1.735.466-2.249-.464-.188-.34-.355-.693-.607-1.188-.689.57-1.322 1.092-1.953 1.617-1.626 1.35-3.784 1.432-5.302.106-.409-.357-.791-.935-.864-1.456-.229-1.65 1.15-2.596 2.821-1.973.456.17.856.515 1.254.817.817.62 1.199.57 1.973-.31.574-.655.541-.985-.17-1.697-.472-.473-.534-1.197-.142-1.672.335-.406 1.32-.602 1.698-.261.19.171.292.526.299.8.013.578-.063 1.158-.102 1.736l.198.129 3.486-3.014C14.924 5.402 8.163 2.006 0 1.367 2.16.28 4.375-.23 6.737.127c4.902.745 9.082 2.85 12.423 6.596.834.936 1.825 1.735 2.773 2.562.545.476 1.076.435 1.6-.136 1.006-1.093 2.02-2.182 3.095-3.206 3.715-3.536 8.185-5.291 13.26-5.52 1.765-.08 3.387.537 5.014 1.36-8.256.246-14.723 4.115-20.44 10.02l3.566 3.214.262-.2c-.099-.573-.194-1.148-.297-1.721-.119-.666.183-.93.824-.933.62-.003 1.375-.13 1.337.793-.021.517-.272 1.101-.6 1.51-.504.631-.227 1.034.215 1.432.45.404.845 1.091 1.61.482.747-.594 1.475-1.213 2.531-1.14.857.06 1.48.506 1.759 1.312.286.829.035 1.474-.614 2.02-1.847 1.553-3.76 1.581-5.632.068-.602-.486-1.207-.969-1.885-1.514-.294.507-.51.925-.768 1.316z" mask="url(#b)"/>
        </g>
        <path fill="#000" fill-rule="nonzero" d="M26.65 6.474l2.095-2.06-1.796.883 2.47-2.428-.973.147 1.946-1.324-1.123-.147L30.317.44c-5.389.957-6.287 5.297-6.287 7.651C23.656 5.591 22.084.589 14.823 0l1.946 1.766-.823.147 2.77 1.103-.974.147 2.47 1.324H19.09l2.694 1.692-1.422-.147.225.22c-2.47-.882-5.689-.293-8.758 5.739L14 10.52l-.298 1.03 2.095-1.766-.449 1.177 2.32-1.766-.224.957 2.77-1.324-.375.809h.075l-.674.441.974.294c-1.498.81-2.396 1.987-2.396 1.987l.898-.442c-1.122 1.324-.224 2.943-.224 2.943l.374-.81 1.647 2.575c-2.17-3.898.823-6.253 2.695-7.282-.15.073-.225.073-.225.073.075 0 .374.074.3.074-.075 2.648-.45 10.078-1.049 12.285-.523 2.207-1.721 9.048-1.87 11.697 0 .588.373 1.177.972 1.324 1.123.22 2.845.441 2.994-.368.3-1.324-.449-7.43-.224-9.858.224-2.133.748-11.108.449-14.786 2.096.956 5.164 3.531 3.368 9.858l.973-1.398.524.883-.224-2.502 1.047 1.325-.898-2.722 1.722 1.618-1.497-2.648 1.347.662-1.198-2.06 1.423.736-1.722-1.692 1.123.147-1.946-.662.973-.147-1.497-.589 1.123-.294-2.021-.294 1.197-.221-1.721-.294.374-.295-1.048-.147 2.245.074-.823-.736 2.92.074-1.198-.515 2.77-.294-.974-.589h2.77l-.749-.588 2.32.294 1.572.662c-2.919-4.34-7.185-2.943-10.18-.956z"/>
    </g>
</svg>
