<svg xmlns="http://www.w3.org/2000/svg" width="22" height="20" viewBox="0 0 22 20">
    <path fill="#FFF" fill-rule="nonzero" d="M21.896 9.9l-3.063-2.817a.327.327 0 0 0-.163-.15L11.228.09a.34.34 0 0 0-.458 0L3.33 6.933a.33.33 0 0 0-.166.153L.104 9.901a.319.319 0 0 0-.013.459.34.34 0 0 0 .471.013l2.562-2.356v11.291c0 .18.149.325.333.325h15.085a.329.329 0 0 0 .333-.325V8.016l2.563 2.357a.338.338 0 0 0 .471-.014.32.32 0 0 0-.013-.458zm-8.569 9.084H8.673v-6.387h4.654v6.387zm4.881 0h-4.214v-6.712c0-.179-.149-.324-.333-.324H8.34a.329.329 0 0 0-.334.325v6.71H3.79V7.404L11 .771l7.208 6.631v11.582z"/>
</svg>
