<svg xmlns="http://www.w3.org/2000/svg" width="12" height="12" viewBox="0 0 12 12">
    <g fill="#8A8A8F" fill-rule="nonzero">
        <path d="M6.641 11.722l5.088-5.088a.857.857 0 0 0 0-1.213.857.857 0 0 0-1.214 0l-4.48 4.484L1.55 5.421a.857.857 0 0 0-1.464.606c0 .22.082.44.25.607l5.088 5.088a.86.86 0 0 0 1.217 0z"/>
        <path d="M6.641 6.58l5.088-5.092a.857.857 0 0 0 0-1.214.857.857 0 0 0-1.214 0l-4.48 4.488L1.55.278A.857.857 0 0 0 .086.885c0 .219.082.438.25.606L5.424 6.58a.86.86 0 0 0 1.217 0z"/>
    </g>
</svg>
