<svg xmlns="http://www.w3.org/2000/svg" data-name="Layer 1" viewBox="0 0 512 512" x="0px" y="0px"><title>login</title><path fill="#000" d="M256,512C114.84,512,0,397.51,0,256.79A254.86,254.86,0,0,1,31.89,133.33,21.44,21.44,0,0,1,69.43,154,212.07,212.07,0,0,0,42.91,256.79c0,117.14,95.59,212.44,213.09,212.44s213.09-95.3,213.09-212.44a211.92,211.92,0,0,0-27.64-104.71A21.44,21.44,0,0,1,478.77,131,254.68,254.68,0,0,1,512,256.79C512,397.51,397.16,512,256,512Z"></path><path d="M256,282.46a21.42,21.42,0,0,1-21.45-21.39V21.39a21.45,21.45,0,0,1,42.91,0V261.07A21.42,21.42,0,0,1,256,282.46Z"></path></svg>