<?xml version="1.0" encoding="UTF-8"?>
<svg width="83px" height="80px" viewBox="0 0 83 80" version="1.1" xmlns="http://www.w3.org/2000/svg" xmlns:xlink="http://www.w3.org/1999/xlink">
    <!-- Generator: Sketch 51 (57462) - http://www.bohemiancoding.com/sketch -->
    <title>signup@1.5x</title>
    <desc>Created with Sketch.</desc>
    <defs></defs>
    <g id="iPhone-8" stroke="none" stroke-width="1" fill="none" fill-rule="evenodd">
        <g id="signup" fill="#45689a" fill-rule="nonzero">
            <path d="M27.23,42.586 L28.357,42.586 C35.677,42.586 41.632,36.63 41.632,29.31 L41.632,20.148 C41.632,12.828 35.677,6.872 28.357,6.872 L27.23,6.872 C19.909,6.872 13.953,12.828 13.953,20.148 L13.953,29.31 C13.953,36.63 19.909,42.586 27.23,42.586 Z M17.953,20.147 C17.953,15.032 22.115,10.871 27.23,10.871 L28.357,10.871 C33.471,10.871 37.632,15.032 37.632,20.147 L37.632,29.309 C37.632,34.424 33.471,38.585 28.357,38.585 L27.23,38.585 C22.115,38.585 17.953,34.424 17.953,29.309 L17.953,20.147 Z M43.586,47.558 L12,47.558 C5.383,47.558 0,52.941 0,59.558 L0,68 C0,74.617 5.383,80 12,80 L43.586,80 C50.203,80 55.586,74.617 55.586,68 L55.586,59.558 C55.586,52.94 50.203,47.558 43.586,47.558 Z M51.586,68 C51.586,72.411 47.997,76 43.586,76 L12,76 C7.589,76 4,72.411 4,68 L4,59.558 C4,55.147 7.589,51.558 12,51.558 L43.586,51.558 C47.997,51.558 51.586,55.147 51.586,59.558 L51.586,68 Z M81.012,14.5 L69.012,14.5 L69.012,2.5 C69.012,1.396 68.116,0.5 67.012,0.5 C65.908,0.5 65.012,1.396 65.012,2.5 L65.012,14.5 L53.012,14.5 C51.908,14.5 51.012,15.396 51.012,16.5 C51.012,17.604 51.908,18.5 53.012,18.5 L65.012,18.5 L65.012,30.5 C65.012,31.604 65.908,32.5 67.012,32.5 C68.116,32.5 69.012,31.604 69.012,30.5 L69.012,18.5 L81.012,18.5 C82.116,18.5 83.012,17.604 83.012,16.5 C83.012,15.396 82.116,14.5 81.012,14.5 Z" id="Shape"></path>
        </g>
    </g>
</svg>