<svg xmlns="http://www.w3.org/2000/svg" width="25" height="24" viewBox="0 0 25 24">
    <g fill="#000" fill-rule="nonzero" stroke="#E2E1E4">
        <path stroke-width=".5" d="M6.915 12.488h.014a400.712 400.712 0 0 0 5.914 3.438h.014a.688.688 0 0 0 .688 0 151.315 151.315 0 0 0 4.147-2.551c1.075-.688 1.834-1.318 1.48-1.423-.352-.106-1.255.208-2.346.779-1.09.57-2.154 1.146-3.208 1.723.03-.102.052-.207.064-.314.1-.916.257-1.833.142-2.766.014-.114.03-.229.04-.343a7.913 7.913 0 0 0-.06-2.127c.215-.133.43-.266.641-.406l.614-.309a33.037 33.037 0 0 0 3.378-1.994c.01 1.471.025 2.94.046 4.405.022.329.09.654.2.965.153.366.27.075.368-.436.341-2 .524-4.023.548-6.052a.458.458 0 0 0-.22-.41h-.016l-.27-.163-5.597-3.383a.591.591 0 0 0-.59 0h-.02A360.983 360.983 0 0 0 6.93 4.493a.66.66 0 0 0-.328.572c0 1.07.013 2.147.039 3.232l-.04 2.062-.017 1.545a.67.67 0 0 0 .332.584zm6.327-4.56c-1.457-1.164-3.144-1.996-4.746-2.95.662-.34 1.32-.687 1.978-1.04l.016.016c.277.245.576.463.894.653.517.284 1.063.518 1.604.772.55.674 1.297 1.032 2.016 1.437-.593.372-1.175.74-1.762 1.112zm2.622-1.657a1.517 1.517 0 0 0-.49-.605c-.718-.532-1.41-1.11-2.242-1.458-.09-.066-.176-.135-.268-.199a9.022 9.022 0 0 0-1.215-.717c.514-.281 1.028-.566 1.543-.853a399.99 399.99 0 0 0 4.743 2.75c-.584.277-1.17.562-1.725.892l-.346.19zm-8.138-.848c.379.495.845.918 1.375 1.247 1.194.779 2.374 1.585 3.619 2.291a5.73 5.73 0 0 0-.101 1.025c.011.611.082 1.221.13 1.833-.293.802-.25 1.604-.229 2.43-.318-.187-.635-.377-.955-.56a410.896 410.896 0 0 0-3.74-2.115l-.085-6.08-.014-.071z"/>
        <path stroke-width=".5" d="M22.585 8.194a1.859 1.859 0 0 0-2.495 1.514 2.026 2.026 0 0 0-.016.266v3.357a1.755 1.755 0 0 0-1.618.353c-.04.035-.099.085-.117.106l-.326.311-.644.633c-.429.419-.844.85-1.244 1.297l-.66.607-1.029.981-.254.248c-.1.095-.196.195-.287.3a3.146 3.146 0 0 0-.765 2.083v.364c.018.472.045.944.08 1.414.041.537.202.981.52.942.319-.039.504-.417.539-.967.03-.495.062-.99.085-1.487v-.186-.153c.038-.297.134-.584.281-.844.073-.137.16-.266.26-.385.022-.03.052-.057.077-.087l.101-.105.206-.216.823-.868 1.627-1.737c.289-.217.57-.442.846-.674l.412-.35c.11-.103.225-.198.346-.285a.532.532 0 0 1 .443-.039c.14.05.25.16.298.3a.474.474 0 0 1-.053.413l-.032.044c-.014.013-.019.022-.058.061l-.19.195-.38.388a64.556 64.556 0 0 1-1.55 1.521.619.619 0 0 0-.132.424c.032.209.25.197.502.101a7.72 7.72 0 0 0 2.365-1.57l.165-.151c.055-.05.105-.094.188-.181a1.703 1.703 0 0 0 .298-1.84 1.767 1.767 0 0 0-.386-.548c.277-1.048.424-2.125.44-3.208l.021-.58a.646.646 0 0 1 .092-.319.614.614 0 0 1 .508-.305.58.58 0 0 1 .6.493.36.36 0 0 1 0 .069V10.286a84.927 84.927 0 0 0 0 4.647l-.038 1.146V16.496a2.351 2.351 0 0 1-.52 1.288c-.035.046-.076.09-.115.133l-.14.142-.646.646a65.116 65.116 0 0 0-2.5 2.656l-.108.127-.062.073a.458.458 0 0 0-.107.339c.055.614.215 1.093.508 1.047.23-.036.404-.339.489-.811l.052-.046a82.382 82.382 0 0 0 2.798-2.612l.539-.55a3.527 3.527 0 0 0 1.024-2.454l-.085-3.099c.101-.917.16-1.833.198-2.77l.011-.349v-.261-.103a1.82 1.82 0 0 0-.312-1.03 1.833 1.833 0 0 0-.873-.668z"/>
        <path stroke-width=".9" d="M1.222 17.06a3.275 3.275 0 0 0 .86 1.535c.071.076.148.146.224.218l.12.105.102.084.8.656a79.852 79.852 0 0 0 3.283 2.533c.094.465.284.798.568.759.284-.04.568-.447.648-1.064a.292.292 0 0 0-.083-.233l-.08-.084a4.678 4.678 0 0 0-.158-.153 95.586 95.586 0 0 0-3.235-2.838l-.681-.547a2.865 2.865 0 0 1-.494-.484 2.255 2.255 0 0 1-.472-1.205l-.099-3.117c.125-.931.199-1.862.244-2.814l.031-.698a.495.495 0 0 1 .256-.365.728.728 0 0 1 .503-.08c.231.049.405.206.44.4V10.995c0 .947 0 1.895-.023 2.84.01.132.057.26.136.375 0 .02-.022.041-.034.065-.24.572-.13 1.204.296 1.699a2.11 2.11 0 0 0 .323.312l.242.193.48.389c.639.519 1.272 1.04 1.885 1.573a.886.886 0 0 0 .526.135c.258-.033.244-.254.124-.51a7.926 7.926 0 0 0-1.945-2.402l-.216-.167c-.062-.056-.133-.119-.156-.145a.545.545 0 0 1-.05-.698.723.723 0 0 1 .442-.265.838.838 0 0 1 .506.044.672.672 0 0 1 .147.093c.02.016.02.014.06.049l.386.33.787.648c.528.432 1.068.855 1.621 1.268l.753.67 1.215 1.045c.193.166.443.366.568.478.137.134.251.283.34.442.09.159.155.326.194.498.013.084.02.169.02.254l.017.349c.022.48.056.958.1 1.436.05.545.249.996.644.957.394-.04.624-.424.667-.983.037-.502.077-1.005.105-1.51v-.189-.233a2.544 2.544 0 0 0-.414-1.305 3.26 3.26 0 0 0-.529-.617c-.048-.047-.105-.089-.156-.135l-.136-.098-.267-.21-1.076-.835-2.164-1.662c-.269-.293-.547-.58-.835-.859l-.434-.419a4.092 4.092 0 0 0-.548-.465c-.564-.359-1.302-.476-1.988-.314-.211.052-.412.13-.594.232.285-.98.44-1.983.466-2.99l.026-.59c.037-.894-.763-1.664-1.846-1.775a2.617 2.617 0 0 0-1.054.1c-.343.104-.65.276-.891.5a1.653 1.653 0 0 0-.509 1.031v.482a49.213 49.213 0 0 0-.02 4.713l-.048 1.164v.508a3 3 0 0 0 .08.57z"/>
    </g>
</svg>
