<svg xmlns="http://www.w3.org/2000/svg" width="12" height="12" viewBox="0 0 12 12">
    <g fill="#8A8A8F" fill-rule="nonzero">
        <path d="M5.359.278L.27 5.366a.857.857 0 0 0 0 1.213.857.857 0 0 0 1.214 0l4.48-4.484 4.485 4.484a.857.857 0 0 0 1.464-.606.854.854 0 0 0-.25-.607L6.576.278a.86.86 0 0 0-1.217 0z"/>
        <path d="M5.359 5.42L.27 10.513a.857.857 0 0 0 0 1.214.857.857 0 0 0 1.214 0l4.48-4.488 4.485 4.484a.857.857 0 0 0 1.464-.607.854.854 0 0 0-.25-.606L6.576 5.42a.86.86 0 0 0-1.217 0z"/>
    </g>
</svg>
