<svg xmlns="http://www.w3.org/2000/svg" width="23" height="24" viewBox="0 0 23 24">
    <g fill="none" fill-rule="evenodd">
        <path fill="#8A8A8F" fill-rule="nonzero" d="M5.773 12.446h.013a400.712 400.712 0 0 0 5.915 3.437h.014a.687.687 0 0 0 .688 0 151.315 151.315 0 0 0 4.147-2.55c1.075-.688 1.834-1.318 1.48-1.423-.352-.106-1.255.208-2.346.779-1.09.57-2.154 1.146-3.208 1.723.03-.102.052-.207.064-.314.1-.916.257-1.833.142-2.766.014-.114.03-.229.039-.344a7.913 7.913 0 0 0-.06-2.126c.216-.133.431-.266.642-.406l.614-.31a33.037 33.037 0 0 0 3.378-1.993c.01 1.471.025 2.94.046 4.405.022.329.089.653.2.964.153.367.27.076.368-.435.341-2 .524-4.024.548-6.052a.458.458 0 0 0-.22-.41h-.016l-.27-.163-5.597-3.383a.591.591 0 0 0-.59 0h-.02A360.983 360.983 0 0 0 5.787 4.45a.66.66 0 0 0-.327.573c0 1.07.013 2.147.039 3.231l-.04 2.063-.018 1.545a.67.67 0 0 0 .333.584zm6.327-4.56c-1.457-1.165-3.144-1.997-4.746-2.95.661-.34 1.32-.687 1.978-1.04l.016.016c.277.245.576.463.893.653.518.284 1.064.518 1.605.772.55.674 1.297 1.031 2.016 1.437-.593.371-1.175.74-1.762 1.111zm2.622-1.657a1.517 1.517 0 0 0-.49-.605c-.718-.532-1.41-1.11-2.242-1.458-.09-.066-.176-.135-.268-.2a9.022 9.022 0 0 0-1.215-.717c.514-.28 1.028-.565 1.543-.852a399.99 399.99 0 0 0 4.743 2.75c-.584.277-1.17.561-1.725.891l-.346.19zM6.584 5.38c.379.495.845.918 1.375 1.246 1.194.78 2.374 1.586 3.619 2.292a5.73 5.73 0 0 0-.101 1.024c.011.612.082 1.222.13 1.834-.293.802-.25 1.604-.229 2.429-.318-.186-.635-.376-.956-.56a410.896 410.896 0 0 0-3.74-2.114l-.084-6.08-.014-.071z"/>
        <path fill="#000" fill-rule="nonzero" stroke="#E2E1E4" stroke-width=".5" d="M5.773 12.446h.013a400.712 400.712 0 0 0 5.915 3.437h.014a.687.687 0 0 0 .688 0 151.315 151.315 0 0 0 4.147-2.55c1.075-.688 1.834-1.318 1.48-1.423-.352-.106-1.255.208-2.346.779-1.09.57-2.154 1.146-3.208 1.723.03-.102.052-.207.064-.314.1-.916.257-1.833.142-2.766.014-.114.03-.229.039-.344a7.913 7.913 0 0 0-.06-2.126c.216-.133.431-.266.642-.406l.614-.31a33.037 33.037 0 0 0 3.378-1.993c.01 1.471.025 2.94.046 4.405.022.329.089.653.2.964.153.367.27.076.368-.435.341-2 .524-4.024.548-6.052a.458.458 0 0 0-.22-.41h-.016l-.27-.163-5.597-3.383a.591.591 0 0 0-.59 0h-.02A360.983 360.983 0 0 0 5.787 4.45a.66.66 0 0 0-.327.573c0 1.07.013 2.147.039 3.231l-.04 2.063-.018 1.545a.67.67 0 0 0 .333.584z"/>
        <path fill="#000" fill-rule="nonzero" stroke="#E2E1E4" stroke-width=".5" d="M12.1 7.885C10.643 6.721 8.956 5.89 7.354 4.936c.661-.34 1.32-.687 1.978-1.04l.016.016c.277.245.576.463.893.653.518.284 1.064.518 1.605.772.55.674 1.297 1.031 2.016 1.437-.593.371-1.175.74-1.762 1.111zM14.722 6.229a1.517 1.517 0 0 0-.49-.605c-.718-.532-1.41-1.11-2.242-1.458-.09-.066-.176-.135-.268-.2a9.022 9.022 0 0 0-1.215-.717c.514-.28 1.028-.565 1.543-.852a399.99 399.99 0 0 0 4.743 2.75c-.584.277-1.17.561-1.725.891l-.346.19zM6.584 5.38c.379.496.845.919 1.375 1.247 1.194.78 2.374 1.586 3.619 2.292a5.73 5.73 0 0 0-.101 1.024c.011.612.082 1.222.13 1.834-.293.802-.25 1.604-.229 2.429-.318-.186-.635-.376-.956-.56a410.896 410.896 0 0 0-3.74-2.114l-.084-6.08-.014-.071z"/>
        <path fill="#FFF" fill-rule="nonzero" d="M12.1 7.885C10.643 6.721 8.956 5.89 7.354 4.936c.661-.34 1.32-.687 1.978-1.04l.016.016c.277.245.576.463.893.653.518.284 1.064.518 1.605.772.55.674 1.297 1.031 2.016 1.437-.593.371-1.175.74-1.762 1.111zM14.722 6.229a1.517 1.517 0 0 0-.49-.605c-.718-.532-1.41-1.11-2.242-1.458-.09-.066-.176-.135-.268-.2a9.022 9.022 0 0 0-1.215-.717c.514-.28 1.028-.565 1.543-.852a399.99 399.99 0 0 0 4.743 2.75c-.584.277-1.17.561-1.725.891l-.346.19zM6.584 5.38c.379.496.845.919 1.375 1.247 1.194.78 2.374 1.586 3.619 2.292a5.73 5.73 0 0 0-.101 1.024c.011.612.082 1.222.13 1.834-.293.802-.25 1.604-.229 2.429-.318-.186-.635-.376-.956-.56a410.896 410.896 0 0 0-3.74-2.114l-.084-6.08-.014-.071zM12.959 9.627l3.719-2.863-.243 4.464-3.171 3.21z"/>
        <path fill="#FFF" d="M1.358 9.793l.97-1.305 1.069 1.305v4.413H5.44l5.067 3.465 1.908 1.872 1.908-2.947 2.985-2.158 1-.423h1.15V9.793l1.285-1.305 1.21 1.305v6.803l-1.21 2.248-3.435 4.349H6.44L.858 16.596z"/>
        <path fill="#8A8A8F" fill-rule="nonzero" d="M21.443 8.151a1.859 1.859 0 0 0-2.495 1.515 2.026 2.026 0 0 0-.017.266v3.357a1.755 1.755 0 0 0-1.617.353c-.04.035-.099.085-.117.106l-.326.311-.644.633c-.429.418-.844.85-1.244 1.297l-.66.607-1.029.98-.254.248c-.1.096-.196.196-.287.3a3.146 3.146 0 0 0-.765 2.084v.364c.018.472.045.944.08 1.414.041.536.202.98.52.942.319-.039.504-.417.539-.967.03-.495.062-.99.084-1.487v-.186-.154c.039-.296.135-.583.282-.843.073-.137.16-.266.26-.385.022-.03.052-.057.077-.087l.101-.105.206-.216.823-.868 1.627-1.737c.289-.217.57-.442.846-.674l.412-.35c.11-.103.225-.198.346-.285a.532.532 0 0 1 .443-.039c.14.05.25.16.297.3a.474.474 0 0 1-.052.413l-.032.043c-.014.014-.019.023-.058.062l-.19.195-.38.387a64.556 64.556 0 0 1-1.55 1.522.619.619 0 0 0-.132.424c.032.208.25.197.502.1a7.72 7.72 0 0 0 2.365-1.57l.165-.15c.055-.05.105-.094.187-.181a1.703 1.703 0 0 0 .298-1.84 1.767 1.767 0 0 0-.385-.548c.276-1.048.424-2.125.44-3.209l.021-.58a.646.646 0 0 1 .092-.318.614.614 0 0 1 .508-.305.58.58 0 0 1 .6.493.36.36 0 0 1 0 .069V10.244a84.927 84.927 0 0 0 0 4.647l-.038 1.146V16.454a2.351 2.351 0 0 1-.52 1.288c-.035.046-.076.09-.115.133l-.14.142-.646.646a65.116 65.116 0 0 0-2.5 2.656l-.108.126-.062.074a.458.458 0 0 0-.107.339c.055.614.215 1.093.508 1.047.23-.037.404-.34.488-.811l.053-.046a82.382 82.382 0 0 0 2.798-2.613l.539-.55a3.527 3.527 0 0 0 1.024-2.454l-.085-3.098c.101-.917.16-1.834.197-2.77l.012-.35v-.26-.104a1.82 1.82 0 0 0-.312-1.029 1.833 1.833 0 0 0-.873-.669z"/>
        <path fill="#8A8A8F" fill-rule="nonzero" d="M.08 17.019a3.275 3.275 0 0 0 .86 1.533c.07.077.148.147.224.22l.12.104.102.084.8.656A79.852 79.852 0 0 0 5.47 22.15c.094.465.284.798.568.758.284-.04.568-.447.648-1.063a.292.292 0 0 0-.083-.233l-.08-.084a4.678 4.678 0 0 0-.158-.154 95.586 95.586 0 0 0-3.235-2.837l-.681-.547a2.865 2.865 0 0 1-.494-.484 2.255 2.255 0 0 1-.472-1.206l-.1-3.116c.126-.931.2-1.862.245-2.814l.031-.699a.495.495 0 0 1 .255-.364.728.728 0 0 1 .504-.08c.231.048.405.206.44.4V10.953c0 .947 0 1.895-.023 2.84.01.131.057.26.136.374 0 .021-.022.042-.034.065-.24.573-.13 1.205.296 1.7a2.11 2.11 0 0 0 .323.311l.242.194.48.388c.638.52 1.272 1.04 1.885 1.574a.886.886 0 0 0 .525.135c.259-.033.245-.254.125-.51a7.926 7.926 0 0 0-1.945-2.402l-.216-.168c-.062-.055-.133-.118-.156-.144a.545.545 0 0 1-.05-.698.723.723 0 0 1 .442-.265.838.838 0 0 1 .506.044.672.672 0 0 1 .147.093c.02.016.02.014.06.049l.386.33.787.647c.528.433 1.068.856 1.621 1.269l.753.67 1.215 1.045c.193.165.443.366.568.477.136.135.251.284.34.443.09.158.155.326.194.498.012.084.02.169.02.253l.017.35c.022.479.056.958.1 1.436.05.544.249.996.644.956.394-.04.624-.423.667-.982.037-.503.077-1.005.105-1.51v-.19-.232a2.544 2.544 0 0 0-.415-1.306 3.26 3.26 0 0 0-.528-.616c-.048-.047-.105-.089-.156-.135l-.136-.098-.267-.21-1.076-.835-2.164-1.662c-.269-.293-.547-.58-.835-.859l-.435-.419a4.092 4.092 0 0 0-.548-.465c-.563-.36-1.302-.476-1.987-.315-.211.053-.412.131-.594.233.284-.98.44-1.983.466-2.99l.025-.59c.038-.894-.762-1.664-1.845-1.776a2.617 2.617 0 0 0-1.054.1c-.343.104-.65.276-.892.5a1.653 1.653 0 0 0-.508 1.032v.482a49.213 49.213 0 0 0-.02 4.713L0 15.941v.507a3 3 0 0 0 .08.57z"/>
    </g>
</svg>
