<svg xmlns="http://www.w3.org/2000/svg" width="22" height="22" viewBox="0 0 22 22">
    <g fill="none" fill-rule="evenodd">
        <path d="M6.967 4.423l5.372-2.715 4.426 2.715v7.149l-4.899 2.452-4.9-2.452zM6.775 20.464L2.09 15.638V8.414h1.286l1.057 1.184v3.568H6.776l5.387 4.49v2.808zM12.27 17.78l5.377-5.066 1.113-.6.565-3.992h1.313l.673.983v6.334l-4.52 4.473v.578h-4.52z"/>
        <path fill="#000" fill-rule="nonzero" stroke="#F9F9F9" stroke-width=".4" d="M6.377 11.444h.013c1.785 1.056 3.575 2.1 5.377 3.125h.012a.625.625 0 0 0 .625 0 137.56 137.56 0 0 0 3.771-2.319c.977-.625 1.667-1.198 1.346-1.294-.321-.096-1.142.19-2.134.709-.991.518-1.958 1.041-2.916 1.566.028-.093.048-.188.058-.285.092-.833.233-1.667.13-2.515.012-.104.026-.208.035-.312.069-.644.05-1.295-.054-1.934.195-.12.391-.241.583-.368l.558-.282a30.033 30.033 0 0 0 3.071-1.812c.008 1.337.022 2.672.042 4.004.02.3.08.595.181.877.14.334.246.069.335-.396.31-1.818.477-3.658.498-5.502a.417.417 0 0 0-.2-.373h-.014l-.246-.148L12.36 1.11a.537.537 0 0 0-.537 0h-.017A328.167 328.167 0 0 0 6.39 4.175a.6.6 0 0 0-.298.52c0 .973.011 1.952.035 2.938l-.035 1.875-.017 1.405a.608.608 0 0 0 .302.53zm5.752-4.146C10.804 6.24 9.271 5.483 7.815 4.617c.601-.31 1.2-.625 1.798-.946l.014.014c.252.223.524.422.813.594.47.259.966.471 1.458.702.5.613 1.18.938 1.833 1.307-.54.337-1.069.672-1.602 1.01zm2.383-1.506a1.38 1.38 0 0 0-.445-.55c-.652-.484-1.282-1.009-2.038-1.325-.081-.06-.16-.123-.244-.182a8.202 8.202 0 0 0-1.104-.652c.467-.255.934-.514 1.402-.775 1.43.842 2.867 1.675 4.313 2.5-.531.252-1.065.51-1.569.81l-.315.174zM7.115 5.02c.344.45.768.834 1.25 1.133 1.085.708 2.158 1.442 3.29 2.083-.06.308-.09.62-.092.932.01.556.074 1.11.118 1.666-.266.73-.227 1.459-.208 2.209-.29-.169-.577-.342-.869-.509a373.54 373.54 0 0 0-3.4-1.922l-.077-5.528-.012-.064z"/>
        <path fill="#000" fill-rule="nonzero" stroke="#F9F9F9" stroke-width=".4" d="M20.623 7.54a1.69 1.69 0 0 0-2.283 1.618v3.053a1.596 1.596 0 0 0-1.471.32c-.036.031-.09.077-.106.096l-.296.283-.586.575c-.39.381-.767.774-1.131 1.18l-.6.552-.935.891-.232.225a3.769 3.769 0 0 0-.26.273 2.86 2.86 0 0 0-.696 1.894v.331c.017.43.041.858.073 1.286.038.487.183.891.473.856.29-.035.458-.38.49-.88.027-.45.056-.9.077-1.351v-.17-.139c.034-.27.121-.53.256-.766a1.97 1.97 0 0 1 .235-.35c.021-.027.048-.052.071-.08l.092-.095.187-.196.748-.79 1.48-1.579c.262-.197.518-.401.768-.612l.375-.32c.1-.092.204-.178.315-.258a.483.483 0 0 1 .402-.035.44.44 0 0 1 .27.273.431.431 0 0 1-.047.375l-.03.04c-.012.012-.016.02-.052.056l-.172.177-.346.352c-.465.469-.932.933-1.409 1.383a.563.563 0 0 0-.12.386c.029.19.227.179.456.091a7.019 7.019 0 0 0 2.15-1.427l.15-.137c.05-.046.096-.086.17-.165a1.548 1.548 0 0 0-.08-2.17 12.16 12.16 0 0 0 .401-2.917l.02-.527a.587.587 0 0 1 .083-.29.558.558 0 0 1 .462-.277.527.527 0 0 1 .546.448.327.327 0 0 1 0 .062v.357a77.206 77.206 0 0 0 0 4.225l-.036 1.041v.379a2.137 2.137 0 0 1-.473 1.17c-.03.043-.068.083-.104.122l-.127.13-.587.587c-.78.785-1.54 1.587-2.273 2.414l-.098.115-.056.067a.417.417 0 0 0-.098.308c.05.558.196.994.462.952.209-.033.367-.308.444-.737l.048-.042c.852-.769 1.71-1.55 2.544-2.375l.49-.5a3.206 3.206 0 0 0 .931-2.231l-.078-2.817c.092-.833.146-1.667.18-2.519l.01-.316v-.238-.094a1.654 1.654 0 0 0-.283-.935 1.667 1.667 0 0 0-.794-.608z"/>
        <path fill="#000" fill-rule="nonzero" stroke="#F9F9F9" stroke-width=".6" d="M1.201 15.6a2.977 2.977 0 0 0 .783 1.395c.064.07.134.133.204.199l.108.095.093.076.728.597c.973.79 1.964 1.56 2.984 2.302.085.424.258.726.516.69.259-.036.517-.406.59-.967a.266.266 0 0 0-.076-.211l-.072-.077a4.252 4.252 0 0 0-.145-.14 86.896 86.896 0 0 0-2.94-2.579l-.62-.497a2.605 2.605 0 0 1-.449-.44 2.05 2.05 0 0 1-.428-1.096l-.09-2.833c.113-.847.18-1.693.221-2.559l.029-.634a.45.45 0 0 1 .232-.332.662.662 0 0 1 .457-.073c.21.045.368.188.4.364V10.087c0 .86 0 1.722-.02 2.581.009.12.051.236.123.34 0 .02-.02.039-.03.06-.22.52-.12 1.095.268 1.545a1.919 1.919 0 0 0 .294.283l.22.176.436.353c.58.472 1.156.946 1.714 1.43a.805.805 0 0 0 .478.123c.235-.03.222-.23.113-.463a7.206 7.206 0 0 0-1.768-2.184l-.196-.152c-.057-.051-.122-.108-.142-.131a.495.495 0 0 1-.047-.635.657.657 0 0 1 .403-.241.762.762 0 0 1 .46.04.611.611 0 0 1 .134.084c.018.015.018.013.054.045l.351.3.715.589c.48.393.972.778 1.474 1.153l.684.61 1.105.95c.176.15.403.331.516.433.125.122.229.258.31.402.082.144.14.296.176.453.011.076.017.153.018.23l.015.318c.021.436.051.871.09 1.305.047.496.228.906.587.87.359-.036.568-.385.606-.893.034-.457.07-.914.096-1.373v-.171-.212a2.313 2.313 0 0 0-.377-1.187 2.963 2.963 0 0 0-.48-.56c-.044-.043-.096-.081-.142-.124l-.124-.088-.243-.19-.978-.76-1.967-1.511a18.655 18.655 0 0 0-.76-.781l-.394-.381A3.72 3.72 0 0 0 7 12.3c-.513-.326-1.184-.433-1.808-.286a2.186 2.186 0 0 0-.54.212c.26-.892.401-1.803.424-2.72l.024-.535c.034-.813-.694-1.513-1.678-1.614a2.379 2.379 0 0 0-.958.09c-.312.095-.59.252-.81.456a1.503 1.503 0 0 0-.463.937v.438a44.739 44.739 0 0 0-.018 4.285l-.044 1.058V15.083c.008.173.032.347.072.518z"/>
    </g>
</svg>
