<svg xmlns="http://www.w3.org/2000/svg" width="19" height="23" viewBox="0 0 19 23">
    <g fill="#FFF" fill-rule="nonzero">
        <path d="M17.83 13.164L8.996 7.38a1 1 0 0 0-1.546.901l.678 10.432a1 1 0 0 0 1.74.606l1.703-1.882 2.661 4.533a1 1 0 0 0 1.356.363l1.824-1.035a1 1 0 0 0 .368-1.376l-2.624-4.47 2.323-.472a1 1 0 0 0 .35-1.816zm-.919 7.268l-1.808 1.027-3.355-5.715-2.61 2.884-.676-10.401 8.822 5.776-3.705.752 3.332 5.677zM8.915 4.749V.679A.502.502 0 0 0 8.408.18a.502.502 0 0 0-.506.499v4.07c0 .275.227.498.506.498.28 0 .507-.223.507-.498zM5.288 8.304a.502.502 0 0 0-.507-.498H.642a.502.502 0 0 0-.506.498c0 .275.227.498.506.498h4.14c.279 0 .506-.223.506-.498zM11.517 8.316c0 .275.227.498.506.498h4.14c.28 0 .506-.223.506-.498a.502.502 0 0 0-.507-.498h-4.139a.502.502 0 0 0-.506.498zM10.966 6.294c.13 0 .26-.049.359-.146l2.927-2.878a.491.491 0 0 0 0-.704.512.512 0 0 0-.716 0l-2.927 2.878a.492.492 0 0 0 0 .704.51.51 0 0 0 .357.146zM5.48 10.472L2.552 13.35a.492.492 0 0 0 0 .704.51.51 0 0 0 .716 0l2.926-2.878a.492.492 0 0 0 0-.704.511.511 0 0 0-.716 0zM3.277 2.558a.512.512 0 0 0-.716 0 .492.492 0 0 0 0 .704L5.488 6.14a.51.51 0 0 0 .716 0 .491.491 0 0 0 0-.704L3.277 2.558z"/>
    </g>
</svg>
