<svg xmlns="http://www.w3.org/2000/svg" width="30" height="30" viewBox="0 0 30 30">
    <g fill="none" fill-rule="nonzero" opacity=".751">
        <path fill="#53D2B5" d="M15 0C6.72 0 0 6.72 0 15c0 8.28 6.72 15 15 15 8.28 0 15-6.72 15-15 0-8.28-6.72-15-15-15z"/>
        <path fill="#FFF" d="M17.34 7.62l-1.86 1.86a3.511 3.511 0 0 0-.36 4.53l-1.02 1.02c-.6-.42-1.29-.66-2.04-.66-.93 0-1.8.36-2.46 1.02l-1.86 1.86c-1.35 1.35-1.35 3.57 0 4.95.69.69 1.59 1.02 2.46 1.02.9 0 1.8-.33 2.46-1.02l1.86-1.86a3.511 3.511 0 0 0 .36-4.53l1.02-1.02c.6.45 1.32.66 2.04.66.9 0 1.8-.33 2.46-1.02l1.86-1.86c.66-.66 1.02-1.53 1.02-2.46 0-.93-.36-1.8-1.02-2.46a3.468 3.468 0 0 0-4.92-.03zm-3.6 11.91l-1.86 1.86c-.93.93-2.43.93-3.36 0-.93-.93-.93-2.43 0-3.36l1.86-1.86a2.36 2.36 0 0 1 1.68-.69c.45 0 .87.12 1.23.36l-1.17 1.17c-.21.21-.21.57 0 .78.12.12.24.15.39.15.15 0 .3-.06.39-.15l1.17-1.17c.57.9.45 2.13-.33 2.91zm7.77-7.74l-1.86 1.86c-.78.78-2.01.9-2.94.36l1.32-1.32c.21-.21.21-.57 0-.78a.562.562 0 0 0-.78 0l-1.32 1.29c-.57-.93-.45-2.13.36-2.94l1.86-1.86c.45-.45 1.08-.69 1.68-.69.6 0 1.23.24 1.68.69.45.45.69 1.05.69 1.68 0 .63-.24 1.26-.69 1.71z"/>
    </g>
</svg>
