<svg xmlns="http://www.w3.org/2000/svg" xmlns:xlink="http://www.w3.org/1999/xlink" width="101" height="146" viewBox="0 0 101 146">
    <defs>
        <path id="a" d="M47.108 23.698c0 13.023-10.506 23.58-23.466 23.58S.176 36.721.176 23.698C.176 10.675 10.682.118 23.642.118s23.466 10.557 23.466 23.58"/>
    </defs>
    <g fill="none" fill-rule="evenodd">
        <path fill="#E5E5E5" d="M63.779 95.07c-.008-1.682.09-1.87-1.28-2.612-1.095-.594-2.288-1.05-3.437-1.513a60.734 60.734 0 0 0-10.086-3.08 61.108 61.108 0 0 0-17.053-1.19c-2.605-2.109-5.497-3.908-8.216-5.803-2.08-1.45-4.329-3.406-6.723-4.627V50.54c0-4.511-3.64-8.168-8.128-8.168h-.07c-4.484 0-8.118 3.652-8.118 8.157v30.368c-.137 1.286.087 2.545.162 3.787.063 1.061.165 2.093.258 3.146a60.92 60.92 0 0 0 .393 3.32c.311 2.156.715 4.298 1.13 6.437.779 4.012 3.852 7.192 6.496 10.085 2.48 2.711 3.024 7.9 3.164 11.874l.012 1.122c.03 3.463.06 20.7.089 24.163 0 0 47.88.933 48.096.933l-.042-29.89c2.049-1.819 3.353-4.537 3.353-7.578v-.545c0-4.227.018-8.453 0-12.68"/>
        <path fill="#FFF" d="M11.773 108.59c.192.295.37.598.534.908.668 1.26 1.11 2.635 1.388 4.032.466 2.343.488 4.748.509 7.137.03 3.463.06 20.7.089 24.163 0 0 47.88.933 48.096.933l-.042-29.89c2.049-1.819 3.353-4.537 3.353-7.578v-.545c0-4.227.018-8.453 0-12.68-.008-1.682.09-1.87-1.28-2.612-1.095-.594-2.288-1.05-3.437-1.513a60.734 60.734 0 0 0-10.086-3.08c-9.138-1.947-18.686-1.795-27.743.555-3.2.83-6.429 1.976-8.923 4.241-.272.247-.532.505-.779.777-1.593 1.751-2.465 3.967-2.657 6.32-.042.52-.077 1.061-.04 1.584.03.456-.146.933-.235 1.386-.204 1.04-.334 2.113-.18 3.17.11.762.302 1.217.776 1.795.235.287.454.587.657.898"/>
        <path fill="#6A79A8" d="M62.86 143.22l-.028-18.147-.013-8.708c0-.127-.055-.401-.001-.52-.037.08.369-.253.432-.318.265-.273.513-.56.746-.862.46-.598.858-1.248 1.18-1.931 1.524-3.235.996-7.118 1-10.588.003-2.114.005-4.227-.002-6.34-.004-.921.248-2.26-.462-2.993-.94-.97-2.617-1.446-3.833-1.936-1.801-.726-3.618-1.4-5.474-1.972a61.822 61.822 0 0 0-22.637-2.574c-3.819.279-7.626.912-11.321 1.924-3.197.875-6.406 2.131-8.834 4.474-2.454 2.368-3.224 5.338-3.33 8.646-.057 1.819-.853 3.526-.246 5.364.206.625.615 1.08.996 1.602.622.852 1.11 1.795 1.484 2.782 1.214 3.204 1.197 6.695 1.22 10.074.013 1.89.018 3.782.025 5.672.016 4.694.026 9.388.048 14.083l.012 1.98c.004.499.945.368.942-.065-.068-8.125.091-16.262-.12-24.385-.09-3.431-.483-6.988-2.353-9.95-.404-.64-1.008-1.206-1.285-1.914-.348-.891-.302-1.94-.187-2.873.107-.872.402-1.714.399-2.594-.003-.886.046-1.767.21-2.64 1.451-7.752 10.45-9.794 17.03-10.864 7.608-1.238 15.436-.978 22.956.713 3.623.815 7.135 2 10.567 3.416 1.096.452 3.137.944 3.24 2.36.129 1.778.017 3.604.016 5.386 0 1.985-.004 3.97-.006 5.955-.002 1.705.124 3.46-.255 5.135a9.734 9.734 0 0 1-2.215 4.314c-.356.4-.81.633-.884 1.156-.111.79.002 1.681.004 2.477l.007 4.705.03 19.607v.415c0 .498.942.367.941-.066"/>
        <path fill="#FFF" d="M59.463 36.57c-2.913-3.64-2.338-8.965 1.285-11.893L85.907 4.35a8.348 8.348 0 0 1 11.776 1.285l.046.057c2.902 3.627 2.329 8.932-1.28 11.848L71.297 37.86a8.39 8.39 0 0 1-11.835-1.291"/>
        <path fill="#6A79A8" d="M59.892 36.38c-1.916-2.394-2.36-5.772-1.103-8.578.614-1.37 1.594-2.428 2.741-3.355l6.34-5.123L85.112 5.392c.505-.407.999-.839 1.53-1.213 2.655-1.875 6.252-1.819 8.903.037 4.563 3.194 4.638 9.873.387 13.339-5.064 4.13-10.165 8.214-15.248 12.32l-8.036 6.494c-.557.45-1.108.908-1.67 1.35-2.09 1.64-4.79 2.148-7.318 1.308-1.495-.496-2.767-1.436-3.768-2.647-.224-.271-1.114.069-.858.38 3.275 3.96 8.936 4.174 12.833 1.042 2.121-1.705 4.234-3.421 6.35-5.131l17.92-14.48c.96-.776 1.866-1.576 2.545-2.632 1.645-2.56 1.81-5.92.406-8.622C96.464 1.89 89.845.81 85.506 4.272c-5.27 4.204-10.488 8.475-15.732 12.711l-8.196 6.623c-.575.465-1.18.913-1.717 1.423a8.795 8.795 0 0 0-2.587 7.868 8.663 8.663 0 0 0 1.76 3.862c.22.274 1.111-.063.858-.38"/>
        <path fill="#E5E5E5" d="M24.957 2.39H63.81c3.542 0 6.413 3.407 6.413 7.611v92.204c0 4.204-2.871 7.612-6.413 7.612H24.957c-3.541 0-6.412-3.408-6.412-7.612V10c0-4.204 2.87-7.612 6.412-7.612"/>
        <path fill="#45689A" d="M25.996.652h45.141c4.115 0 7.451 3.408 7.451 7.612v92.204c0 4.204-3.336 7.612-7.45 7.612H25.995c-4.115 0-7.451-3.408-7.451-7.612V8.264c0-4.204 3.336-7.612 7.45-7.612"/>
        <path fill="#6A79A8" d="M24.018 107.52c-3.073-1.123-5.03-3.954-5.078-7.188-.005-.308 0-.616 0-.923v-5.843-22.873-28.946-24.374-7.161c0-1.891-.086-3.706.804-5.475.882-1.752 2.447-3.153 4.354-3.703.535-.155.482-.41-.067-.25-3.08.889-5.473 3.266-5.95 6.484-.087.586-.08 1.17-.08 1.759v89.677c0 2.211.007 4.31 1.361 6.252.93 1.333 2.24 2.312 3.768 2.87.254.093.94-.288.888-.307"/>
        <path fill="#FFF" d="M28.194.652h45.142c4.115 0 7.45 3.408 7.45 7.612v92.204c0 4.204-3.335 7.612-7.45 7.612H28.194c-4.115 0-7.45-3.408-7.45-7.612V8.264c0-4.204 3.335-7.612 7.45-7.612"/>
        <path fill="#6A79A8" d="M28.148.974H59.7c4.44 0 8.88-.023 13.32 0 4.059.02 7.221 3.27 7.298 7.33.01.534 0 1.068 0 1.6V95.675c0 2.628.409 5.898-.827 8.294a6.946 6.946 0 0 1-6.11 3.79c-.287.004-.575 0-.863 0h-42.39c-1.93 0-3.74.03-5.477-1.064-2.336-1.47-3.439-4.013-3.439-6.707v-8.855V74 52.878v-20.75-16.307c0-2.495-.023-4.991 0-7.486.037-3.948 2.904-7.289 6.936-7.361.514-.01.726-.656.093-.644-4.358.078-7.907 3.598-7.966 7.991-.009.654 0 1.31 0 1.964v86.959c0 .987-.003 1.974 0 2.961.007 2.87 1.263 5.557 3.763 7.072 1.775 1.076 3.663 1.125 5.641 1.125h42.804c2.658 0 5.16-.764 6.926-2.896 1.366-1.649 1.846-3.626 1.846-5.717v-9.716V72.13 50.375v-20.86-15.547c0-2.285.256-4.764-.099-7.037C80.544 3.01 77.118.346 73.254.33c-1.417-.006-2.835 0-4.252 0H28.241c-.516 0-.725.644-.093.644"/>
        <path fill="#E5E5E5" d="M24.07 94.235h53.39V13.388H24.07z"/>
        <path fill="#C9DFFF" d="M24.07 94.235h51.192V13.388H24.07z"/>
        <path fill="#6A79A8" d="M75.733 93.114v-7.88-18.819-22.747-19.669-6.51c0-.988.137-2.09 0-3.07-.006-.045 0-.095 0-.14 0-.502-.942-.375-.942.063V89.967c0 .988-.137 2.09 0 3.071.006.045 0 .094 0 .14 0 .501.942.374.942-.064"/>
        <path fill="#6A79A8" d="M23.767 94.43H77.158c.16 0 .767-.073.767-.309v-8.066-19.271-23.402-20.15-6.672-2.063c0-.285.108-.831 0-1.098-.014-.034 0-.098 0-.136 0-.053-.144-.06-.162-.06H24.372c-.16 0-.766.074-.766.31V93.137c0 .283-.11.833 0 1.098.013.034 0 .099 0 .136 0 .136.928.01.928-.25v-8.066-19.271-23.402-20.15-6.672-2.063c0-.312.094-.798 0-1.098-.012-.038 0-.096 0-.136l-.767.31H76.122c.28 0 .692-.08.963 0-.03-.01-.03-.1-.088.124-.068.26 0 .63 0 .898V91.115c0 .949-.079 1.937 0 2.883.01.123 0 .25 0 .373l.766-.31H24.372c-.191 0-1.047.37-.605.37"/>
        <path fill="#E5E5E5" d="M44.435 8.216h9.178c.57 0 1.23.08 1.79-.07 1.146-.308 1.699-2.127.32-2.56-.52-.165-1.203-.062-1.734-.062h-7.322c-.714 0-1.521-.105-2.229.044-1.466.309-1.776 2.416-.106 2.642.258.034 1.082-.392.581-.46-.618-.083-1.285-1.4-.449-1.755.116-.05.363 0 .485 0h8.391c.476 0 1.054-.09 1.524 0 .633.121 1.004 1.03.556 1.545-.241.277-.165.166-.49.205-1.735.204-3.616 0-5.362 0H44.81c-.312 0-.997.47-.376.47"/>
        <path fill="#6A79A8" d="M45.507 8.324h9.178c.562 0 1.254.096 1.795-.1 1.192-.435 1.388-2.335.061-2.746-.532-.165-1.232-.063-1.775-.063h-7.322c-.697 0-1.554-.134-2.24.057-1.56.433-1.393 2.637.183 2.85.46.061.943-.6.32-.683-.759-.103-.944-1.306-.16-1.536.16-.046.402 0 .567 0h8.368c.396 0 1.075-.136 1.454 0 .29.105.603.475.577.801-.016.198-.281.666-.467.732-.109.039-.304 0-.417 0H45.587c-.531 0-.71.688-.08.688"/>
        <path fill="#E5E5E5" d="M38.545 8.224c.764 0 1.758-.25 1.885-1.157.12-.85-.35-1.525-1.234-1.552-.762-.023-1.762.266-1.885 1.157-.12.869.352 1.497 1.234 1.552.328.02.994-.45.372-.488-.86-.054-.98-1.842-.093-1.733.524.065.704.57.688 1.033-.008.213-.036.418-.183.585-.128.145-.231.115-.412.115-.18 0-.522.065-.615.246-.093.183.08.242.243.242"/>
        <path fill="#6A79A8" d="M39.444 8.192c.752 0 1.76-.243 1.89-1.135.122-.824-.316-1.47-1.172-1.509-.727-.034-1.707.203-1.92 1.017-.21.813.244 1.572 1.1 1.625.205.013.5-.032.657-.176.12-.11.142-.231-.065-.244-.581-.036-.812-.545-.797-1.067.011-.407.146-.8.599-.726.517.086.696.597.683 1.06-.006.223-.037.47-.203.638-.128.128-.193.093-.383.093-.166 0-.53.07-.618.233-.096.174.081.191.229.191"/>
        <path fill="#E5E5E5" d="M49.429 106.094c2.003 0 3.86-.533 5.003-2.328 1.193-1.876.91-4.385-.672-5.944-3.04-2.993-9.221-1.078-9.224 3.477-.002 2.666 2.173 4.717 4.773 4.792.453.013.944-.667.32-.685-2.469-.072-4.413-2.19-4.123-4.699.29-2.5 2.439-3.694 4.75-3.579 2.454.122 4.294 2.375 3.935 4.821-.185 1.263-.951 2.405-2.079 3.007-.831.444-1.693.447-2.603.447-.533 0-.71.691-.08.691"/>
        <path fill="#6A79A8" d="M50.331 106.076c1.973 0 3.813-.51 4.964-2.26 1.264-1.92.961-4.535-.737-6.093-3.083-2.827-9.107-.905-9.113 3.58-.004 2.667 2.174 4.697 4.767 4.772.433.013.954-.635.328-.653-2.473-.072-4.418-2.212-4.128-4.72.29-2.5 2.426-3.71 4.748-3.59 2.458.126 4.297 2.395 3.94 4.842-.183 1.247-.921 2.37-2.021 2.987-.846.474-1.724.48-2.658.48-.52 0-.721.655-.09.655"/>
        <g transform="translate(26.34 28.85)">
            <mask id="b" fill="#fff">
                <use xlink:href="#a"/>
            </mask>
            <path fill="#ACF9D2" d="M47.108 23.698c0 13.023-10.506 23.58-23.466 23.58S.176 36.721.176 23.698C.176 10.675 10.682.118 23.642.118s23.466 10.557 23.466 23.58" mask="url(#b)"/>
            <path fill="#86E0B3" d="M23.642.118c12.96 0 23.466 10.557 23.466 23.58 0 7.284-2.816-7.194-10.592-15.872C30.39.99 17.931.118 23.642.118z" mask="url(#b)"/>
            <path stroke="#45689A" stroke-linecap="round" stroke-linejoin="round" stroke-width="1.92" d="M13.2 22.684l6.452 7.381L32.4 16.837" mask="url(#b)"/>
        </g>
        <path fill="#6A79A8" d="M72.985 52.674c-.054 9.67-6.114 18.628-15.224 21.924-9.167 3.315-19.652.08-25.688-7.512-5.96-7.497-6.72-18.233-1.892-26.51 5.023-8.61 15.226-13.092 24.915-10.758 9.119 2.197 16.202 9.953 17.619 19.265.18 1.19.263 2.388.27 3.591.001.214.93.06.928-.25-.056-10.069-6.558-19.23-16.089-22.438-9.28-3.122-19.906-.13-26.214 7.385-6.552 7.809-7.365 19.332-1.894 27.959 5.347 8.43 15.544 12.563 25.237 10.464 9.554-2.069 17.202-9.97 18.686-19.726a25.18 25.18 0 0 0 .274-3.644c.001-.21-.926-.062-.928.25"/>
        <path fill="#FFF" d="M41.13 113.713c.096-1.022.196-2.043.3-3.063.173-1.71.359-3.417.567-5.122.63-5.18-.224-9.692-3.386-13.997-3.358-4.573-8.416-7.476-12.983-10.659-2.08-1.45-4.329-3.406-6.723-4.627V50.54c0-4.511-3.64-8.168-8.128-8.168h-.07c-4.484 0-8.118 3.652-8.118 8.157v30.368c-.137 1.286.087 2.545.162 3.787.063 1.061.165 2.093.258 3.146a60.92 60.92 0 0 0 .393 3.32c.311 2.156.715 4.298 1.13 6.437.779 4.012 3.852 7.192 6.496 10.085 2.485 2.718 3.027 7.925 3.165 11.903l26.937-5.861"/>
        <path fill="#6A79A8" d="M41.593 113.588c.243-2.548.499-5.095.801-7.637.255-2.138.374-4.273.067-6.414-.582-4.049-2.617-7.645-5.44-10.548-2.993-3.078-6.674-5.341-10.191-7.75-1.78-1.218-3.453-2.584-5.236-3.797a24.21 24.21 0 0 0-1.397-.888c-.146-.085-.758-.3-.829-.45-.036-.08.012-.235 0-.32-.193-1.363 0-2.9 0-4.274v-7.184-12.89c0-1.75-.152-3.425-1.026-4.998-1.549-2.788-4.557-4.372-7.704-4.256-3.047.112-5.982 1.756-7.482 4.455-.854 1.537-1.03 3.181-1.03 4.894V77.51c0 1.12.027 2.246 0 3.367-.092 3.675.36 7.482.92 11.114.349 2.278.631 4.698 1.322 6.9.6 1.91 1.697 3.615 2.924 5.176 1.266 1.61 2.923 3 4.03 4.722 1.003 1.555 1.514 3.4 1.849 5.204.349 1.881.488 3.796.558 5.706.006.17.938.02.928-.25-.111-3.023-.354-6.171-1.46-9.014-1.143-2.935-3.74-4.895-5.562-7.388-.955-1.305-1.785-2.719-2.292-4.263-.57-1.737-.8-3.63-1.108-5.43-.637-3.729-1.105-7.578-1.218-11.363-.063-2.075.036-4.18.036-6.257V64.238 53.537c0-2.6-.2-5.183 1.277-7.492 1.726-2.7 4.913-4.021 8.02-3.251 2.777.689 5.014 2.896 5.788 5.657.62 2.211.303 4.865.303 7.13V76.37l.027.036c2.78 1.454 5.16 3.569 7.745 5.33 2.459 1.675 4.97 3.284 7.28 5.165 4.757 3.872 8.11 8.997 8.23 15.29.035 1.839-.22 3.65-.426 5.472a359.582 359.582 0 0 0-.631 6.175c-.013.133.9.037.927-.25"/>
        <path fill="#E5E5E5" d="M64.027 54.367c-2.88-3.441-2.437-8.577.988-11.47l16.066-13.574a8.022 8.022 0 0 1 11.34.986l.087.103c2.85 3.407 2.413 8.492-.978 11.356L75.443 55.36a8.075 8.075 0 0 1-11.416-.992"/>
        <path fill="#94C5E3" d="M70.738 89.5c-2.334-2.79-1.976-6.954.8-9.3l13.175-11.13a6.502 6.502 0 0 1 9.191.799l.05.06c2.323 2.776 1.967 6.918-.796 9.252L79.992 90.304a6.546 6.546 0 0 1-9.254-.804"/>
        <path fill="#94C5E3" d="M66.37 73.747c-2.935-3.508-2.484-8.743 1.007-11.693l14.762-12.471a8.162 8.162 0 0 1 11.539 1.003l.085.102c2.913 3.482 2.466 8.676-.999 11.603L78.007 74.759a8.232 8.232 0 0 1-11.637-1.012"/>
        <path fill="#FFF" d="M65.948 53.402c-2.88-3.442-2.437-8.577.988-11.47l16.066-13.574a8.022 8.022 0 0 1 11.34.986l.087.102c2.85 3.408 2.413 8.492-.978 11.357L77.364 54.394a8.075 8.075 0 0 1-11.416-.992"/>
        <path fill="#6A79A8" d="M66.381 53.226c-2.802-3.348-2.333-8.41.938-11.25 1.254-1.088 2.537-2.143 3.805-3.215l11.914-10.064c2.906-2.456 6.936-2.682 9.91-.149 3.513 2.993 3.902 8.547.544 11.827-1.116 1.09-2.391 2.045-3.58 3.05l-6.829 5.768-5.759 4.866c-1.141.964-2.4 1.694-3.9 1.922-2.674.407-5.296-.735-7.043-2.755-.192-.221-1.077.106-.865.352 2.891 3.342 7.903 3.884 11.525 1.398 1.52-1.043 2.884-2.376 4.288-3.563 4.13-3.49 8.282-6.956 12.392-10.47 3.07-2.624 4.017-7.088 1.886-10.622-2.261-3.75-7.019-5.092-10.959-3.293-1.798.821-3.309 2.366-4.805 3.63l-7.492 6.33c-1.832 1.547-3.666 3.092-5.495 4.642-2.69 2.28-4.003 5.793-2.853 9.244a8.34 8.34 0 0 0 1.513 2.704c.187.223 1.075-.1.865-.352"/>
        <path fill="#FFF" d="M72.659 88.535c-2.335-2.79-1.976-6.954.8-9.3l13.175-11.13a6.502 6.502 0 0 1 9.191.799l.05.06c2.323 2.776 1.967 6.918-.796 9.252L81.913 89.34a6.546 6.546 0 0 1-9.254-.804"/>
        <path fill="#6A79A8" d="M73.083 88.326c-2.241-2.678-1.855-6.637.74-8.913 1.06-.93 2.156-1.822 3.233-2.732 3.198-2.702 6.39-5.412 9.595-8.106 2.284-1.92 5.412-2.258 7.845-.343 2.967 2.337 3.273 6.969.48 9.579-2.642 2.47-5.552 4.698-8.314 7.031l-4.716 3.985c-2.705 2.285-6.457 2.257-8.863-.5-.286-.329-1.165.052-.848.416 2.447 2.805 6.655 3.31 9.662 1.076 1.211-.9 2.33-1.95 3.483-2.924 3.324-2.808 6.696-5.568 9.976-8.428 2.528-2.204 3.31-5.862 1.574-8.818-1.8-3.064-5.686-4.232-8.906-2.826-1.524.665-2.812 1.999-4.069 3.06l-6.168 5.212c-1.528 1.29-3.077 2.559-4.585 3.873-2.842 2.477-3.46 6.795-.967 9.775.28.334 1.16-.044.848-.417"/>
        <path fill="#FFF" d="M68.291 72.782c-2.935-3.508-2.484-8.743 1.007-11.693L84.06 48.618a8.162 8.162 0 0 1 11.539 1.003l.085.102c2.913 3.481 2.466 8.676-.999 11.603L79.928 73.794a8.232 8.232 0 0 1-11.637-1.012"/>
        <path fill="#6A79A8" d="M68.725 72.61c-2.856-3.413-2.38-8.567.94-11.473 1.115-.976 2.266-1.915 3.398-2.871 3.713-3.137 7.417-6.283 11.138-9.41 2.936-2.467 7.052-2.568 10.007-.033 3.22 2.763 3.905 7.68 1.35 11.13-1.03 1.392-2.601 2.476-3.91 3.582l-6.379 5.389c-1.814 1.532-3.624 3.068-5.441 4.597-3.42 2.878-8.17 2.48-11.103-.911-.183-.211-1.066.114-.867.344 2.8 3.237 7.57 3.909 11.23 1.742 1.601-.948 3.004-2.373 4.417-3.567 3.842-3.245 7.728-6.445 11.528-9.74 3.13-2.713 4.01-7.334 1.761-10.906-2.224-3.534-6.623-4.877-10.486-3.438-1.937.722-3.448 2.229-5.003 3.542l-7.091 5.991c-1.698 1.435-3.402 2.864-5.095 4.305-2.73 2.322-3.972 5.98-2.76 9.446a8.477 8.477 0 0 0 1.499 2.625c.178.213 1.064-.108.867-.344M74.483 87.482c-1.517-1.72-1.2-4.232.423-5.734.925-.856 1.867-1.849 2.915-2.55 2.44-1.634 5.492.739 5.552 3.38.046 2.015-1.37 3.127-2.721 4.33-.52.462-1.027.997-1.608 1.385-1.513 1.013-3.393.43-4.56-.811-.182-.193-1.053.14-.87.334 1.798 1.911 4.737 1.813 6.662.143 1.31-1.135 3.201-2.39 3.794-4.092.95-2.731-1.15-5.541-3.964-5.62-2.25-.062-3.677 1.427-5.23 2.81-.847.754-1.698 1.459-2.087 2.575a4.254 4.254 0 0 0 .825 4.184c.172.196 1.05-.13.87-.334"/>
        <path fill="#6A79A8" d="M70.196 71.402c-1.863-2.112-1.461-5.222.559-7.045.638-.576 1.285-1.144 1.927-1.716.64-.57 1.285-1.25 2.057-1.635 3.074-1.532 6.433 1.48 6.403 4.593-.022 2.417-1.8 3.744-3.424 5.19-.677.602-1.356 1.33-2.15 1.777-1.831 1.03-4.019.29-5.372-1.164-.158-.17-1.014.167-.875.316 2.14 2.3 5.625 2.131 7.922.168.831-.711 1.636-1.457 2.453-2.185.907-.807 1.733-1.609 2.123-2.808 1.065-3.275-1.457-6.591-4.825-6.64-2.66-.038-4.351 1.75-6.19 3.386-.965.86-1.934 1.656-2.418 2.909a5.095 5.095 0 0 0 .935 5.17c.15.17 1.013-.159.875-.316M67.667 52.047c-1.863-2.112-1.46-5.219.56-7.04.639-.577 1.285-1.145 1.928-1.717.64-.57 1.283-1.25 2.057-1.634 3.076-1.526 6.432 1.472 6.402 4.59-.022 2.415-1.802 3.741-3.425 5.187-.676.602-1.355 1.33-2.15 1.775-1.834 1.027-4.016.296-5.372-1.16-.16-.173-1.019.162-.874.318 2.136 2.295 5.631 2.143 7.922.169.83-.715 1.636-1.457 2.454-2.185.907-.807 1.732-1.61 2.122-2.81 1.065-3.275-1.458-6.593-4.826-6.644-2.659-.04-4.352 1.751-6.19 3.387-.965.86-1.934 1.657-2.418 2.91a5.1 5.1 0 0 0 .936 5.173c.153.174 1.018-.155.874-.319"/>
    </g>
</svg>
