<svg xmlns="http://www.w3.org/2000/svg" width="34" height="34" viewBox="0 0 34 34">
    <g fill="#4A4A4A" fill-rule="nonzero" opacity=".5">
        <path d="M27.348 28.087H24.39a.739.739 0 1 0 0 1.478h2.957a.739.739 0 1 0 0-1.478z"/>
        <path d="M31.783 8.87h-3.696V2.217A2.22 2.22 0 0 0 25.87 0H2.217A2.22 2.22 0 0 0 0 2.217v29.566A2.22 2.22 0 0 0 2.217 34h29.566A2.22 2.22 0 0 0 34 31.783V11.087a2.22 2.22 0 0 0-2.217-2.217zM2.217 32.522a.74.74 0 0 1-.739-.74V2.218a.74.74 0 0 1 .74-.739H25.87a.74.74 0 0 1 .739.74V8.87h-2.957V5.174c0-.408-.33-.74-.739-.74H5.173a.74.74 0 0 0-.738.74v23.652c0 .408.33.74.739.74h12.565v2.217c0 .26.053.507.136.739H2.217zM17.74 11.087v17H5.913V5.913h16.26V8.87h-2.216a2.22 2.22 0 0 0-2.218 2.217zm14.783 20.696a.74.74 0 0 1-.74.739H19.958a.74.74 0 0 1-.74-.74v-17h13.305v17zm0-18.479H19.217v-2.217a.74.74 0 0 1 .74-.74h11.826a.74.74 0 0 1 .739.74v2.217z"/>
    </g>
</svg>
