<svg xmlns="http://www.w3.org/2000/svg" xmlns:xlink="http://www.w3.org/1999/xlink" width="94" height="74" viewBox="0 0 94 74">
    <defs>
        <path id="a" d="M16.622 8.646a8.13 8.13 0 1 0-16.26-.18 8.13 8.13 0 0 0 16.26.18"/>
        <path id="c" d="M16.622 8.646a8.13 8.13 0 1 0-16.26-.18 8.13 8.13 0 0 0 16.26.18"/>
        <path id="e" d="M16.622 8.646a8.13 8.13 0 1 0-16.26-.18 8.13 8.13 0 0 0 16.26.18"/>
        <path id="g" d="M16.622 8.646a8.13 8.13 0 1 0-16.26-.18 8.13 8.13 0 0 0 16.26.18"/>
        <path id="i" d="M9.778 5.086A4.783 4.783 0 1 0 .213 4.98a4.783 4.783 0 0 0 9.565.106"/>
        <path id="k" d="M9.778 5.086A4.783 4.783 0 1 0 .213 4.98a4.783 4.783 0 0 0 9.565.106"/>
    </defs>
    <g fill="none" fill-rule="evenodd">
        <path fill="#E5E5E5" d="M23.271 58.631a166.1 166.1 0 0 1-7.953-.427c-1.022-.082-2.045-.18-2.982-.35-.346-.062-.693-.139-.894-.255-1.128-.652 1.916-1.387 3.333-1.531 1.997-.204 4.173-.13 6.24-.17 6.351-.124 12.734-.12 19.106.015 2.848.06 5.82.132 8.705.258 2.623.115 6.123.136 8.178.806.074.024.145.05.215.075.406.149.678.357.567.555-.095.169-.447.302-.816.414-2.456.747-5.565.849-8.741.893-4.094.056-8.216-.074-12.302-.1-4.218-.027-8.442-.048-12.656-.183"/>
        <path fill="#F0F9FC" d="M54.813 31.471l-20.482-15.9-20.587 15.9.007.006v25.93h41.153V31.471h-.091"/>
        <path fill="#6A79A8" d="M54.972 31.36l-6.93-5.38-11.033-8.565-2.519-1.955c-.074-.058-.225-.023-.291.029l-6.979 5.39-11.051 8.535-2.557 1.975c-.068.052-.107.131-.027.193-.069-.053-.034-.123-.04-.043-.003.047 0 .096 0 .143v25.744c0 .071.062.119.133.119h36.101c1.658 0 3.324.046 4.982 0h.07c.08 0 .28-.037.28-.156v-8.784V34.63v-3.177c0-.071-.062-.118-.133-.118h-.092c-.182 0-.422.274-.147.274h.092a88 88 0 0 0-.133-.118v25.936l.28-.156H14.443c-.148 0-.408-.051-.548 0-.018.007-.05 0-.07 0l.132.119v-8.902-14.024-2.255c0-.16.098-.73-.054-.848l-.026.193 6.978-5.39 11.052-8.535 2.557-1.975-.292.029 6.93 5.38 11.033 8.565 2.518 1.955c.13.1.495-.085.319-.222"/>
        <path fill="#6A79A8" d="M13.956 57.383v-8.784-13.976-3.177l-.283.143h40.535c.148 0 .406.05.548 0 .018-.007.05 0 .07 0l-.126-.093v25.936l.283-.142H18.882c-1.657 0-3.326-.061-4.982 0h-.07c-.157 0-.432.235-.157.235h36.101c1.656 0 3.326.061 4.982 0h.07c.065 0 .283-.038.283-.142v-8.784-13.976-3.177c0-.068-.063-.093-.126-.093H18.882c-1.657 0-3.326-.061-4.982 0h-.07c-.066 0-.283.039-.283.143v25.936c0 .172.409.088.409-.05"/>
        <path fill="#E5E5E5" d="M17.857 16.291l.001 33.17c0 .808.66 1.462 1.472 1.462h29.997c.813 0 1.472-.655 1.472-1.463v-5.17l-.025-2.849-.001-31.5c0-.807-.66-1.461-1.472-1.461H25.696l-7.839 7.804v.007"/>
        <path fill="#FFF" d="M50.799 44.363l-.024-2.78V10.86c-.001-.788-.627-1.426-1.4-1.426H26.95l-.323.331v5.823c0 .85-.692 1.54-1.546 1.54h-4.679c-.648 0-1.174.524-1.174 1.17l.001 31.109c0 .788.626 1.426 1.399 1.426H49.4c.773 0 1.399-.64 1.399-1.427v-5.042"/>
        <path fill="#FFC600" d="M30.705 23.445c-.95 0-1.723-.294-2.318-.883-.595-.59-.893-1.334-.893-2.233 0-.912.298-1.672.893-2.28.595-.608 1.368-.912 2.318-.912.963 0 1.742.304 2.337.912.595.608.893 1.368.893 2.28 0 .9-.298 1.643-.893 2.232-.595.59-1.374.884-2.337.884zm.19 6.555H29.47l8.094-12.673h1.444L30.895 30zm9.101-.665c-.595.595-1.368.893-2.318.893s-1.723-.298-2.318-.893-.893-1.343-.893-2.242c0-.912.298-1.672.893-2.28.595-.608 1.368-.912 2.318-.912s1.726.304 2.328.912c.601.608.902 1.368.902 2.28 0 .9-.304 1.647-.912 2.242zm-9.291-7.372c.443 0 .804-.149 1.083-.446.279-.298.418-.694.418-1.188 0-.52-.14-.931-.418-1.235-.279-.304-.64-.456-1.083-.456-.443 0-.804.152-1.083.456-.279.304-.418.716-.418 1.235 0 .481.142.874.427 1.178a1.41 1.41 0 0 0 1.074.456zm5.89 6.346c.279.291.64.437 1.083.437.443 0 .807-.149 1.092-.446.286-.298.428-.7.428-1.207 0-.52-.142-.931-.428-1.235-.285-.304-.649-.456-1.092-.456-.443 0-.804.152-1.083.456-.279.304-.418.716-.418 1.235 0 .507.14.912.418 1.216z"/>
        <path fill="#6A79A8" d="M17.653 16.255v32.844c0 .107-.003.215 0 .322.028.885.732 1.488 1.596 1.51 1.409.039 2.824 0 4.234 0H48.85c.93 0 1.962-.29 2.133-1.366.07-.444.019-.928.019-1.374v-2.44c0-1.623-.025-3.246-.025-4.87v-5.948-9.808-9.645l-.001-5.456c0-.97-.596-1.719-1.625-1.735-.582-.01-1.165 0-1.748 0H26.37c-.416 0-.708-.048-1.017.26l-6.094 6.067-1.188 1.182c-.09.09-.415.312-.418.457-.002.095.405.03.408-.11-.001.058-.01.04.037-.01.053-.054.108-.107.162-.16l.566-.564a39101.893 39101.893 0 0 1 6.08-6.053l.978-.973-.271.104h23.322c.154 0 .313-.01.465.015.72.113 1.152.755 1.169 1.444.031 1.296 0 2.597 0 3.894v8.096a343095.1 343095.1 0 0 0 0 16.796c0 1.014-.005 2.027.004 3.04.02 2.336.021 4.671.022 7.007 0 .547.05 1.1-.343 1.548-.268.306-.616.399-.998.402-.534.005-1.07 0-1.604 0H31.39l-8.189.001c-1.255 0-2.52.046-3.775 0-.98-.036-1.365-.864-1.365-1.706v-1.72a185207.256 185207.256 0 0 0 0-16.005v-8.74-5.635-.78c0-.098-.41-.03-.41.109"/>
        <path fill="#FFF" d="M25.712 8.39v6.286c0 .85-.691 1.54-1.545 1.54h-6.31l7.855-7.827"/>
        <path fill="#6A79A8" d="M25.508 8.444v5.367c0 .92.07 2.24-1.213 2.325-.724.048-1.467 0-2.191 0h-3.31c-.26 0-.522-.014-.78 0-.048.003.01.06.056.034.057-.033.108-.107.154-.154l3.983-3.968 3.69-3.676c.079-.079-.3-.034-.369.035l-6.864 6.839-.991.988c-.045.044.007.062.05.062h6.11c1.07 0 2.057-.549 2.084-1.726.023-1.03 0-2.062 0-3.092V8.335c0-.058-.409-.003-.409.109M20.975 35.148h13.107c.24 0 .307-.315.031-.315H21.006c-.24 0-.308.315-.031.315"/>
        <path fill="#BBDFF5" d="M40.911 39.458H27.088a.253.253 0 1 1 0-.506H40.91a.253.253 0 1 1 0 .506"/>
        <path fill="#6A79A8" d="M20.904 46.755h26.019c.121 0 .443-.18.172-.18H21.076c-.121 0-.442.18-.172.18M24.158 43.814h19.534c.179 0 .424-.267.149-.267H24.307c-.179 0-.424.267-.149.267M20.97 49.79h13.108c.228 0 .317-.283.04-.283H21.01c-.228 0-.317.283-.04.283"/>
        <path fill="#9FCDED" d="M27.581 42.175l-13.83-10.698v25.93h41.153V31.542L41.274 42.21l-13.693-.035"/>
        <path fill="#BBDFF5" d="M27.581 42.175l-12.29-9.47v17.231c0 3.28 2.668 5.937 5.96 5.937h33.653v-24.33L41.274 42.21l-13.693-.035"/>
        <path fill="#9FCDED" d="M14.521 53.694l4.571-3.729 7.282-5.94 1.666-1.36-.412.11H40.415c.038 0 .186.024.217 0-.01.008-.166-.116-.119-.02.068.134.348.282.463.375l2.165 1.762 6.658 5.415 2.875 2.34c.495.403.977.85 1.499 1.219.025.018.049.04.073.06.242.196.979-.157.64-.432l-7.6-6.183-4.743-3.858-1.249-1.016c-.201-.164-.344-.189-.604-.189H29.155c-.406 0-.818-.018-1.224 0-.397.018-.629.284-.92.522l-4.067 3.318-8.77 7.155-.177.145c-.428.349.241.537.524.306"/>
        <path fill="#6A79A8" d="M27.739 42.057l-4.683-3.622a440875.251 440875.251 0 0 0-9.147-7.076c-.096-.074-.364-.013-.364.133V57.423c0 .106.099.133.188.133h39.471c.532 0 1.082.041 1.612 0 .023-.002.047 0 .07 0 .08 0 .225-.069.225-.164v-8.75-13.935-3.18c0-.17-.246-.153-.342-.077l-3.822 2.991-6.802 5.324-2.39 1.871c-.176.137-.39.266-.545.426-.144.15.053-.088.081 0-.002-.008-.139 0-.148 0-.827-.054-1.673-.005-2.501-.007l-4.28-.011c-2.21-.006-4.43-.072-6.64-.018h-.123c-.232 0-.313.296-.036.297l5.71.015 7.514.02c.148 0 .323.027.47 0 .158-.027.275-.15.398-.247l1.96-1.534 6.735-5.272 3.013-2.358 1.031-.807c.177-.139.422-.275.57-.445.019-.024.051-.041.076-.06l-.343-.077v25.865l.225-.164H14.387c-.16 0-.393-.044-.548 0-.02.006-.048 0-.07 0l.19.133V48.61 34.637v-3.176l-.365.133 4.683 3.622 7.43 5.747 1.717 1.329c.143.11.5-.092.315-.235"/>
        <path fill="#6A79A8" d="M13.883 53.45l7.68-6.208 4.794-3.873 1.24-1.002c.257-.208.001.013-.057-.06.028.035.33 0 .373 0h11.816c.392 0 .86-.072 1.247 0-.161-.03.004.045.077.104l.476.385 4.19 3.388 8.851 7.156.174.14c.121.098.49-.078.32-.215l-7.808-6.313-4.781-3.866c-.384-.31-.76-.634-1.152-.931-.186-.14-.34-.112-.573-.112H28.833c-.374 0-.777-.043-1.15 0-.3.035-.557.339-.783.522l-4.125 3.333-8.98 7.257-.175.141c-.214.173.12.268.263.153"/>
        <g transform="translate(27)">
            <mask id="b" fill="#fff">
                <use xlink:href="#a"/>
            </mask>
            <path fill="#FFF" d="M12.524 22.975L-5.827 4.21l-.788.773 18.35 18.765.789-.772M14.703 20.844L-3.647 2.08l-.79.77 18.351 18.767.789-.772M16.882 18.713L-1.468-.053l-.789.772 18.35 18.767.789-.773M19.061 16.583L.711-2.183l-.789.77 18.35 18.766.789-.77M21.24 14.452L2.89-4.314l-.789.77 18.35 18.767.79-.771M23.42 12.32L5.07-6.444l-.789.771 18.35 18.766.789-.771" mask="url(#b)"/>
        </g>
        <g transform="translate(1 17)">
            <mask id="d" fill="#fff">
                <use xlink:href="#c"/>
            </mask>
            <path fill="#FFF" d="M12.524 22.975L-5.827 4.21l-.788.773 18.35 18.765.789-.772M14.703 20.844L-3.647 2.08l-.79.77 18.351 18.767.789-.772M16.882 18.713L-1.468-.053l-.789.772 18.35 18.767.789-.773M19.061 16.583L.711-2.183l-.789.77 18.35 18.766.789-.77M21.24 14.452L2.89-4.314l-.789.77 18.35 18.767.79-.771M23.42 12.32L5.07-6.444l-.789.771 18.35 18.766.789-.771" mask="url(#d)"/>
        </g>
        <g transform="translate(77 18)">
            <mask id="f" fill="#fff">
                <use xlink:href="#e"/>
            </mask>
            <path fill="#FFF" d="M12.524 22.975L-5.827 4.21l-.788.773 18.35 18.765.789-.772M14.703 20.844L-3.647 2.08l-.79.77 18.351 18.767.789-.772M16.882 18.713L-1.468-.053l-.789.772 18.35 18.767.789-.773M19.061 16.583L.711-2.183l-.789.77 18.35 18.766.789-.77M21.24 14.452L2.89-4.314l-.789.77 18.35 18.767.79-.771M23.42 12.32L5.07-6.444l-.789.771 18.35 18.766.789-.771" mask="url(#f)"/>
        </g>
        <g transform="translate(58 57)">
            <mask id="h" fill="#fff">
                <use xlink:href="#g"/>
            </mask>
            <path fill="#FFF" d="M12.524 22.975L-5.827 4.21l-.788.773 18.35 18.765.789-.772M14.703 20.844L-3.647 2.08l-.79.77 18.351 18.767.789-.772M16.882 18.713L-1.468-.053l-.789.772 18.35 18.767.789-.773M19.061 16.583L.711-2.183l-.789.77 18.35 18.766.789-.77M21.24 14.452L2.89-4.314l-.789.77 18.35 18.767.79-.771M23.42 12.32L5.07-6.444l-.789.771 18.35 18.766.789-.771" mask="url(#h)"/>
        </g>
        <g transform="translate(0 48)">
            <mask id="j" fill="#fff">
                <use xlink:href="#i"/>
            </mask>
            <path fill="#FFF" d="M7.367 13.515L-3.428 2.476l-.463.455L6.903 13.969l.464-.454M8.649 12.261L-2.146 1.223l-.463.453L8.185 12.715l.464-.454M9.93 11.008L-.863-.032l-.464.455 10.795 11.04.464-.455M11.212 9.754L.418-1.284l-.464.453 10.794 11.039.464-.454M12.494 8.501L1.7-2.538l-.464.454L12.03 8.955l.464-.454M13.776 7.247L2.982-3.79l-.464.453 10.794 11.04.464-.455" mask="url(#j)"/>
        </g>
        <g transform="translate(35 47)">
            <mask id="l" fill="#fff">
                <use xlink:href="#k"/>
            </mask>
            <path fill="#FFF" d="M7.367 13.515L-3.428 2.476l-.463.455L6.903 13.969l.464-.454M8.649 12.261L-2.146 1.223l-.463.453L8.185 12.715l.464-.454M9.93 11.008L-.863-.032l-.464.455 10.795 11.04.464-.455M11.212 9.754L.418-1.284l-.464.453 10.794 11.039.464-.454M12.494 8.501L1.7-2.538l-.464.454L12.03 8.955l.464-.454M13.776 7.247L2.982-3.79l-.464.453 10.794 11.04.464-.455" mask="url(#l)"/>
        </g>
        <path fill="#FFF" d="M51.55 29.285c1.775-1.924 4.633-2.258 6.886-.805 2.25 1.452 2.385 4.337.884 6.26-.635.813.714 1.765 1.351.947 2.148-2.75 1.651-6.267-1.192-8.434-2.84-2.165-7.04-1.344-9.28 1.084-.708.767.645 1.712 1.35.948"/>
        <path fill="#FFB49B" d="M20.002 55.765a1.227 1.227 0 0 0-.994.5c-.196.265-.278.59-.23.917a1.241 1.241 0 0 0 1.404 1.04c.326-.049.614-.221.81-.487.197-.264.278-.59.23-.916a1.24 1.24 0 0 0-1.22-1.054zM19.998 59a2.011 2.011 0 0 1-1.976-1.706 1.987 1.987 0 0 1 .372-1.485A1.986 1.986 0 0 1 20.002 55a2.01 2.01 0 0 1 1.976 1.706 1.986 1.986 0 0 1-.371 1.485 1.988 1.988 0 0 1-1.609.809z"/>
        <path fill="#6775A7" d="M45.003 63.148a1.84 1.84 0 0 0-1.49.75 1.838 1.838 0 0 0-.345 1.374 1.861 1.861 0 0 0 2.105 1.56c.489-.072.92-.331 1.215-.729.295-.397.417-.886.344-1.375a1.861 1.861 0 0 0-1.83-1.58zM44.997 68a3.017 3.017 0 0 1-2.964-2.56 2.982 2.982 0 0 1 .558-2.226A2.98 2.98 0 0 1 45.003 62c1.473 0 2.747 1.1 2.964 2.56a2.98 2.98 0 0 1-.557 2.226A2.982 2.982 0 0 1 44.997 68z"/>
        <path fill="#FFB49B" d="M69.502 14.956a1.534 1.534 0 0 0-1.242.624 1.532 1.532 0 0 0-.287 1.147 1.551 1.551 0 0 0 1.754 1.3c.408-.06.768-.276 1.013-.608a1.53 1.53 0 0 0 .287-1.146 1.55 1.55 0 0 0-1.525-1.317zM69.497 19a2.514 2.514 0 0 1-2.47-2.133c-.097-.66.068-1.32.465-1.856A2.483 2.483 0 0 1 69.502 14c1.228 0 2.29.917 2.47 2.133.098.66-.066 1.32-.464 1.856A2.485 2.485 0 0 1 69.498 19z"/>
        <path fill="#FFB49B" d="M63 47l-3.264 8L55 49.347 63 47" opacity=".3"/>
        <path fill="#6775A7" d="M80.004 46.913a3.07 3.07 0 0 0-2.484 1.249 3.062 3.062 0 0 0-.573 2.292 3.102 3.102 0 0 0 3.507 2.6 3.062 3.062 0 0 0 2.025-1.215 3.063 3.063 0 0 0 .574-2.292 3.102 3.102 0 0 0-3.049-2.634zM79.994 55c-2.454 0-4.577-1.834-4.939-4.266a4.967 4.967 0 0 1 .93-3.711 4.965 4.965 0 0 1 3.28-1.967c.245-.037.494-.056.74-.056 2.455 0 4.579 1.834 4.94 4.266a4.967 4.967 0 0 1-.929 3.711 4.97 4.97 0 0 1-3.282 1.968 5.045 5.045 0 0 1-.74.055z" opacity=".4"/>
    </g>
</svg>
