<svg xmlns="http://www.w3.org/2000/svg" width="58" height="61" viewBox="0 0 58 61">
    <g fill="none" fill-rule="evenodd">
        <path fill="#E5E5E5" d="M19.271 54.238c-2.686-.165-5.347-.42-7.953-.821-1.022-.158-2.045-.349-2.982-.674-.346-.12-.693-.267-.894-.49-1.128-1.255 1.916-2.668 3.333-2.946 1.997-.391 4.173-.25 6.24-.327 6.351-.237 12.734-.231 19.106.03 2.848.117 5.82.254 8.705.497 2.623.22 6.123.26 8.178 1.55.074.046.145.094.215.143.406.286.678.688.567 1.067-.095.325-.447.582-.816.798-2.456 1.435-5.565 1.632-8.741 1.716-4.094.108-8.216-.141-12.302-.192-4.218-.052-8.442-.092-12.656-.351"/>
        <path fill="#F0F9FC" stroke="#000" stroke-linecap="round" stroke-linejoin="round" d="M50.813 24.471L30.33 8.571 9.744 24.47l.007.006v25.93h41.153V24.471h-.091"/>
        <path fill="#101820" d="M50.972 24.36l-6.93-5.38-11.033-8.565L30.49 8.46c-.074-.058-.225-.023-.291.029l-6.979 5.39-11.051 8.535-2.557 1.975c-.068.052-.107.131-.027.193-.069-.053-.034-.123-.04-.043-.003.047 0 .096 0 .143v25.744c0 .071.062.119.133.119h36.101c1.658 0 3.324.046 4.982 0h.07c.08 0 .28-.037.28-.156v-8.784V27.63v-3.177c0-.071-.062-.118-.133-.118h-.092c-.182 0-.422.274-.147.274h.092a88 88 0 0 0-.133-.118v25.936l.28-.156H10.443c-.148 0-.408-.051-.548 0-.018.007-.05 0-.07 0l.132.119v-8.902-14.024-2.255c0-.16.098-.73-.054-.848l-.026.193 6.978-5.39 11.052-8.535 2.557-1.975-.292.029 6.93 5.38 11.033 8.565 2.518 1.955c.13.1.495-.085.319-.222"/>
        <path fill="#FFF" d="M46.799 37.363l-.025-2.78-.001-30.724c0-.788-.655-1.426-1.462-1.426h-23.44l-.339.331v5.823c0 .85-.723 1.54-1.615 1.54h-4.891c-.678 0-1.227.524-1.227 1.17v31.109c0 .788.655 1.426 1.463 1.426h30.075c.807 0 1.462-.64 1.462-1.427v-5.042"/>
        <path fill="#41BC98" d="M26.705 16.445c-.95 0-1.723-.294-2.318-.883-.595-.59-.893-1.334-.893-2.233 0-.912.298-1.672.893-2.28.595-.608 1.368-.912 2.318-.912.963 0 1.742.304 2.337.912.595.608.893 1.368.893 2.28 0 .9-.298 1.643-.893 2.232-.595.59-1.374.884-2.337.884zm.19 6.555H25.47l8.094-12.673h1.444L26.895 23zm9.101-.665c-.595.595-1.368.893-2.318.893s-1.723-.298-2.318-.893-.893-1.343-.893-2.242c0-.912.298-1.672.893-2.28.595-.608 1.368-.912 2.318-.912s1.726.304 2.328.912c.601.608.902 1.368.902 2.28 0 .9-.304 1.647-.912 2.242zm-9.291-7.372c.443 0 .804-.149 1.083-.446.279-.298.418-.694.418-1.188 0-.52-.14-.931-.418-1.235-.279-.304-.64-.456-1.083-.456-.443 0-.804.152-1.083.456-.279.304-.418.716-.418 1.235 0 .481.142.874.427 1.178a1.41 1.41 0 0 0 1.074.456zm5.89 6.346c.279.291.64.437 1.083.437.443 0 .807-.149 1.092-.447.286-.297.428-.7.428-1.206 0-.52-.142-.931-.428-1.235-.285-.304-.649-.456-1.092-.456-.443 0-.804.152-1.083.456-.279.304-.418.716-.418 1.235 0 .507.14.912.418 1.216z"/>
        <path fill="#101820" stroke="#101820" stroke-linecap="round" stroke-linejoin="round" d="M13.653 9.255v32.844c0 .107-.003.215 0 .322.028.885.732 1.488 1.596 1.51 1.409.039 2.824 0 4.234 0H44.85c.93 0 1.962-.29 2.133-1.366.07-.444.019-.928.019-1.374v-2.44c0-1.623-.025-3.246-.025-4.87v-5.948-9.808V8.48l-.001-5.456c0-.97-.596-1.719-1.625-1.735-.582-.01-1.165 0-1.748 0H22.37c-.416 0-.708-.048-1.017.26l-6.094 6.067-1.188 1.182c-.09.09-.415.312-.418.457-.002.095.405.03.408-.11-.001.058-.01.04.037-.01.053-.054.108-.107.162-.16l.566-.564a39101.893 39101.893 0 0 1 6.08-6.053l.978-.973-.271.104h23.322c.154 0 .313-.01.465.015.72.113 1.152.755 1.169 1.444.031 1.296 0 2.597 0 3.894v8.096a343095.1 343095.1 0 0 0 0 16.796c0 1.014-.005 2.027.004 3.04.02 2.336.021 4.671.022 7.007 0 .547.05 1.1-.343 1.548-.268.306-.616.399-.998.402-.534.005-1.07 0-1.604 0H27.39l-8.189.001c-1.255 0-2.52.046-3.775 0-.98-.036-1.365-.864-1.365-1.706v-1.72a185207.256 185207.256 0 0 0 0-16.005v-8.74-5.635-.78c0-.098-.41-.03-.41.109"/>
        <path fill="#FFF" d="M21.712 1.39v6.286c0 .85-.691 1.54-1.545 1.54h-6.31l7.855-7.827"/>
        <path fill="#101820" d="M21.508 1.444V6.81c0 .92.07 2.24-1.213 2.325-.724.048-1.467 0-2.191 0h-3.31c-.26 0-.522-.014-.78 0-.048.003.01.06.056.034.057-.033.108-.107.154-.154l3.983-3.968 3.69-3.676c.079-.079-.3-.034-.369.035l-6.864 6.839-.991.988c-.045.044.007.062.05.062h6.11c1.07 0 2.057-.549 2.084-1.726.023-1.03 0-2.062 0-3.092V1.335c0-.058-.409-.003-.409.109"/>
        <path fill="#41BC98" d="M16.975 28.148h13.107c.24 0 .307-.315.031-.315H17.006c-.24 0-.308.315-.031.315M36.911 32.458H23.088a.253.253 0 1 1 0-.506H36.91a.253.253 0 1 1 0 .506"/>
        <path fill="#101820" d="M16.904 39.755h26.019c.121 0 .443-.18.172-.18H17.076c-.121 0-.442.18-.172.18M20.158 36.814h19.534c.179 0 .424-.267.149-.267H20.307c-.179 0-.424.267-.149.267M16.97 42.79h13.108c.228 0 .317-.283.04-.283H17.01c-.228 0-.317.283-.04.283"/>
        <path fill="#FFF" d="M23.581 35.175L9.751 24.477v25.93h41.153V24.542L37.274 35.21l-13.693-.035"/>
        <path fill="#E6E6E6" d="M23.581 35.175l-12.29-9.47v17.231c0 3.28 2.668 5.937 5.96 5.937h33.653v-24.33L37.274 35.21l-13.693-.035"/>
        <path fill="#101820" stroke="#101820" stroke-linecap="round" stroke-linejoin="round" d="M23.739 35.057l-4.683-3.622a440875.251 440875.251 0 0 0-9.147-7.076c-.096-.074-.364-.013-.364.133V50.423c0 .106.099.133.188.133h39.471c.532 0 1.082.041 1.612 0 .023-.002.047 0 .07 0 .08 0 .225-.069.225-.164v-8.75-13.935-3.18c0-.17-.246-.153-.342-.077l-3.822 2.991-6.802 5.324-2.39 1.871c-.176.137-.39.266-.545.426-.144.15.053-.088.081 0-.002-.008-.139 0-.148 0-.827-.054-1.673-.005-2.501-.007l-4.28-.011c-2.21-.006-4.43-.072-6.64-.018h-.123c-.232 0-.313.296-.036.297l5.71.015 7.514.02c.148 0 .323.027.47 0 .158-.027.275-.15.398-.247l1.96-1.534 6.735-5.272 3.013-2.358 1.031-.807c.177-.139.422-.275.57-.445.019-.024.051-.041.076-.06l-.343-.077v25.865l.225-.164H10.387c-.16 0-.393-.044-.548 0-.02.006-.048 0-.07 0l.19.133V41.61 27.637v-3.176l-.365.133 4.683 3.622 7.43 5.747 1.717 1.329c.143.11.5-.092.315-.235"/>
        <path fill="#101820" stroke="#101820" d="M9.883 46.45l7.68-6.208 4.794-3.873 1.24-1.002c.257-.208.001.013-.057-.06.028.035.33 0 .373 0h11.816c.392 0 .86-.072 1.247 0-.161-.03.004.045.077.104l.476.385 4.19 3.388 8.851 7.156.174.14c.121.098.49-.078.32-.215l-7.808-6.313-4.781-3.866c-.384-.31-.76-.634-1.152-.931-.186-.14-.34-.112-.573-.112H24.833c-.374 0-.777-.043-1.15 0-.3.035-.557.339-.783.522l-4.125 3.333-8.98 7.257-.175.141c-.214.173.12.268.263.153"/>
        <path fill="#FD8989" d="M6.002 48.765a1.227 1.227 0 0 0-.994.5c-.196.265-.278.59-.23.917a1.241 1.241 0 0 0 1.404 1.04c.326-.049.614-.221.81-.487.197-.264.278-.59.23-.916a1.24 1.24 0 0 0-1.22-1.054zM5.998 52a2.011 2.011 0 0 1-1.976-1.706 1.987 1.987 0 0 1 .372-1.485A1.986 1.986 0 0 1 6.002 48a2.01 2.01 0 0 1 1.976 1.706 1.986 1.986 0 0 1-.371 1.485A1.988 1.988 0 0 1 5.998 52z"/>
        <path fill="#41BC98" d="M41.003 56.148a1.84 1.84 0 0 0-1.49.75 1.838 1.838 0 0 0-.345 1.374 1.861 1.861 0 0 0 2.105 1.56c.489-.072.92-.331 1.215-.729.295-.397.417-.886.344-1.375a1.861 1.861 0 0 0-1.83-1.58zM40.997 61a3.017 3.017 0 0 1-2.964-2.56 2.982 2.982 0 0 1 .558-2.226A2.98 2.98 0 0 1 41.003 55c1.473 0 2.747 1.1 2.964 2.56a2.98 2.98 0 0 1-.557 2.226A2.982 2.982 0 0 1 40.997 61z"/>
        <path fill="#FD8989" d="M55.502 7.956a1.534 1.534 0 0 0-1.242.624 1.532 1.532 0 0 0-.287 1.147 1.551 1.551 0 0 0 1.754 1.3c.408-.06.768-.276 1.013-.608a1.53 1.53 0 0 0 .287-1.146 1.55 1.55 0 0 0-1.525-1.317zM55.497 12a2.514 2.514 0 0 1-2.47-2.133c-.097-.66.068-1.32.465-1.856A2.483 2.483 0 0 1 55.502 7c1.228 0 2.29.917 2.47 2.133.098.66-.066 1.32-.464 1.856A2.485 2.485 0 0 1 55.498 12z"/>
        <path fill="#41BC98" d="M5.004 8.913a3.07 3.07 0 0 0-2.484 1.249 3.062 3.062 0 0 0-.573 2.292 3.102 3.102 0 0 0 3.507 2.6 3.062 3.062 0 0 0 2.025-1.215 3.063 3.063 0 0 0 .574-2.292 3.102 3.102 0 0 0-3.049-2.634zM4.994 17C2.54 17 .418 15.166.056 12.734a4.967 4.967 0 0 1 .93-3.711 4.965 4.965 0 0 1 3.28-1.967C4.51 7.019 4.76 7 5.005 7c2.455 0 4.579 1.834 4.94 4.266a4.967 4.967 0 0 1-.929 3.711 4.97 4.97 0 0 1-3.282 1.968 5.045 5.045 0 0 1-.74.055z"/>
    </g>
</svg>
