<svg xmlns="http://www.w3.org/2000/svg" width="26" height="25" viewBox="0 0 26 25">
    <g fill="none" fill-rule="evenodd">
        <path d="M-4-5h34v34H-4z"/>
        <path fill="#000" fill-rule="nonzero" stroke="#333" stroke-width=".55" d="M1.122 6.367c0-1.606 1.323-2.9 2.964-2.9h10.138c.147 0 .245.097.245.24 0 .144-.098.24-.245.24H4.086c-1.372 0-2.474 1.078-2.474 2.42v9.87c0 1.342 1.102 2.42 2.474 2.42h2.13c.147 0 .245.096.245.24v4.145l4.604-4.313a.225.225 0 0 1 .172-.072h9.355c1.004 0 1.935-.623 2.302-1.533.049-.12.196-.192.318-.144.123.048.196.192.147.312-.44 1.102-1.543 1.844-2.767 1.844h-9.257L6.388 23.76a.225.225 0 0 1-.172.072c-.024 0-.073 0-.098-.024-.098-.048-.147-.12-.147-.215v-4.457H4.086c-1.641 0-2.964-1.293-2.964-2.898V6.367zM24.83 8.259l-.858 5.32c-.147 1.221-1.028 1.94-2.424 1.94h-6.588a2.049 2.049 0 0 1-1.714-.935c-.22.336-.588.551-1.004.551h-1.372c-.66 0-1.2-.527-1.2-1.174V7.924c0-.647.54-1.174 1.2-1.174h1.372c.661 0 1.2.527 1.2 1.174v5.606c0 .815.686 1.486 1.518 1.486h6.612c.784 0 1.788-.264 1.935-1.51l.857-5.319c.05-.263.025-.527-.098-.742a1.522 1.522 0 0 0-1.396-.91h-3.722c-.147 0-.245-.096-.245-.24V3.54c0-.791-.22-1.342-.637-1.63-.514-.359-1.2-.287-1.518-.215v2.444c0 2.54-2.988 3.402-3.037 3.402-.122.048-.27-.048-.294-.168-.024-.12.05-.264.172-.288.098-.024 2.67-.766 2.67-2.946V1.503c0-.096.073-.192.17-.24.05-.023 1.25-.383 2.131.24.539.383.833 1.078.833 2.013V6.03h3.477c.809 0 1.543.48 1.862 1.198.122.336.171.671.098 1.03zM12.95 7.924a.703.703 0 0 0-.71-.695h-1.372a.703.703 0 0 0-.71.695v6.013c0 .384.319.695.71.695h1.372c.392 0 .71-.311.71-.694V7.923z"/>
    </g>
</svg>
