<svg xmlns="http://www.w3.org/2000/svg" width="237" height="137" viewBox="0 0 237 137">
    <g fill="none" fill-rule="evenodd">
        <g transform="translate(-1 3)">
            <path fill="#F26C6B" fill-rule="nonzero" d="M192.91 34.584l27.439 11.26-30.656 74.957-27.439-11.26z"/>
            <path fill="#40BB94" fill-rule="nonzero" d="M75.07 109.746l-27.438 11.26-35.97-87.95 27.439-11.26z"/>
            <g fill-rule="nonzero">
                <path fill="#E5E5E5" d="M83.92 105.02c-5.212.36-10.243 1.26-15.095 2.88-3.954-12.24-8.087-24.3-12.04-36.54 8.086-2.7 16.532-4.32 25.158-4.68.539 12.78 1.258 25.56 1.977 38.34z"/>
                <path fill="#000" d="M85.537 106.46H83.92c-5.032.18-9.884 1.26-14.736 2.7l-1.437.54-13.118-39.42 1.437-.54c8.266-2.7 16.892-4.32 25.517-4.86h1.618l2.336 41.58zm-15.814-.54c4.133-1.26 8.266-1.98 12.4-2.34L80.326 68.3c-7.368.54-14.736 1.98-21.744 4.14l11.141 33.48z"/>
            </g>
            <g fill-rule="nonzero">
                <path fill="#E5E5E5" d="M63.434 109.88c-7.368 3.24-14.017 8.1-19.587 14.4-11.142-9.9-22.103-19.8-33.245-29.52 9.704-10.98 21.564-19.62 34.682-25.38 6.11 13.5 12.22 27 18.15 40.5z"/>
                <path fill="#000" d="M44.026 126.44L8.446 94.76l1.078-1.08c9.884-10.98 21.744-19.8 35.221-25.74l1.438-.72L65.59 110.6l-1.437.72c-7.368 3.24-13.658 7.92-19.048 14.04l-1.079 1.08zM12.938 94.58l30.909 27.54c5.031-5.4 10.961-9.72 17.43-12.78h.18l-16.892-37.8c-12.04 5.4-22.642 13.32-31.627 23.04z"/>
            </g>
            <g fill-rule="nonzero">
                <path fill="#E5E5E5" d="M73.317 106.64c-6.29 1.62-12.22 4.14-17.79 7.74-5.032-7.56-9.883-15.3-14.915-22.86 7.907-5.22 16.892-9 26.056-11.34 2.337 8.64 4.493 17.64 6.65 26.46z"/>
                <path fill="#000" d="M75.114 107.72l-1.437.36c-6.11 1.44-11.86 3.96-17.251 7.38l-1.258.9L38.456 90.8l1.258-.9c8.086-5.4 17.071-9.18 26.595-11.52l1.438-.36 7.367 29.7zm-13.837 1.44a52.386 52.386 0 0 1 10.064-3.78L65.59 81.8c-8.087 2.16-15.814 5.4-22.823 9.9l13.118 20.34c1.797-.9 3.594-1.98 5.391-2.88z"/>
            </g>
            <path stroke="#020202" stroke-linecap="round" stroke-width="1.8" d="M15.095 98.72a95.55 95.55 0 0 1 19.407-16.74M18.868 101.96c5.391-6.12 11.68-11.52 18.51-15.84M22.462 105.2c5.212-5.76 10.962-10.8 17.431-14.94M26.236 108.62c4.852-5.4 10.423-10.26 16.532-14.22M54.629 99.08c4.851-2.52 10.063-4.5 15.454-5.76M56.605 103.22a70.84 70.84 0 0 1 14.556-5.4M58.582 107.18c4.313-2.16 8.805-3.96 13.477-5.04"/>
            <g fill-rule="nonzero">
                <path fill="#E5E5E5" d="M73.497 72.44c1.617 10.98 3.235 22.14 5.032 33.12"/>
                <path fill="#000" d="M79.068 107c-.18 0-.36.18-.36.18-.898.18-1.617-.54-1.797-1.26l-5.031-33.3c-.18-.9.539-1.62 1.258-1.8.898-.18 1.617.54 1.797 1.26l5.031 33.12c0 .9-.36 1.44-.898 1.8z"/>
            </g>
            <g fill-rule="nonzero">
                <path fill="#E5E5E5" d="M72.778 67.58c-2.875.36-5.75 1.08-8.625 1.62l-3.774-15.12c3.235-.72 6.649-1.44 9.883-1.98.899 5.04 1.618 10.26 2.516 15.48z"/>
                <path fill="#000" d="M74.395 68.84l-1.617.18c-2.875.36-5.57.9-8.446 1.62l-1.258.36-4.492-18.18 1.438-.36c3.234-.72 6.648-1.44 10.063-1.98l1.617-.18 2.695 18.54zm-9.164-1.44c1.797-.36 3.774-.72 5.57-1.08L69.006 53.9c-2.337.36-4.493.9-6.65 1.26l2.876 12.24z"/>
            </g>
            <g fill-rule="nonzero">
                <path fill="#E5E5E5" d="M66.13 52.82c-.36 0-.72.18-1.079.18-1.437-6.84-2.695-13.86-4.133-20.7.36 0 .899-.18 1.258-.18 1.438 6.84 2.695 13.68 3.953 20.7z"/>
                <path fill="#000" d="M67.926 54.08l-1.437.18c-.36 0-.72.18-1.078.18l-1.618.36-4.672-23.76 1.617-.36c.36 0 .899-.18 1.258-.18l1.618-.36 4.312 23.94z"/>
            </g>
            <g fill-rule="nonzero">
                <path fill="#E5E5E5" d="M40.612 71.54c-7.188 3.6-13.837 8.1-20.126 13.5-5.75-6.66-11.321-13.32-17.072-19.98 7.727-6.66 16.173-12.42 25.158-16.92 3.954 7.92 8.087 15.66 12.04 23.4z"/>
                <path fill="#000" d="M20.306 87.38L1.258 65.06l1.258-1.08c7.727-6.66 16.352-12.42 25.517-17.1l1.438-.72 13.297 26.1-1.437.72c-7.008 3.6-13.657 8.1-19.767 13.32l-1.258 1.08zM5.571 65.42l15.094 17.64c5.571-4.5 11.501-8.64 17.79-11.88l-10.422-20.7c-8.086 3.96-15.454 9-22.462 14.94z"/>
            </g>
            <g>
                <g fill-rule="nonzero">
                    <path fill="#E5E5E5" d="M155.08 108.44c5.212.36 10.243 1.26 15.095 2.88 3.954-12.24 8.087-24.3 12.04-36.54-8.086-2.7-16.532-4.32-25.158-4.68-.539 12.78-1.258 25.56-1.977 38.34z"/>
                    <path fill="#000" d="M155.8 68.3h1.617c8.625.54 17.25 2.16 25.517 4.86l1.437.54-13.118 39.42-1.437-.54c-4.672-1.62-9.704-2.52-14.736-2.7h-1.617L155.8 68.3zm24.618 7.56c-7.008-2.16-14.376-3.6-21.744-4.14L156.877 107c4.313.36 8.446 1.08 12.4 2.34l11.141-33.48z"/>
                </g>
                <g fill-rule="nonzero">
                    <path fill="#E5E5E5" d="M175.566 113.3c7.368 3.24 14.017 8.1 19.587 14.4 11.142-9.9 22.103-19.8 33.245-29.52-9.704-10.98-21.564-19.62-34.682-25.38-6.11 13.5-12.04 27-18.15 40.5z"/>
                    <path fill="#000" d="M194.075 128.78c-5.39-5.94-11.68-10.62-19.048-14.04l-1.438-.72 19.408-43.38 1.438.72c13.477 6.12 25.337 14.76 35.22 25.74l1.079 1.08-35.4 31.68-1.259-1.08zm.36-54l-16.892 37.8h.18c6.648 3.24 12.399 7.56 17.43 12.78L226.062 98c-8.985-9.72-19.588-17.64-31.627-23.22z"/>
                </g>
                <path stroke="#020202" stroke-linecap="round" stroke-width="1.8" d="M223.905 102.14a95.55 95.55 0 0 0-19.407-16.74M220.85 104.84c-5.75-6.48-11.5-11.34-18.509-16.02M217.975 107.54c-5.75-6.48-10.961-10.8-17.97-15.48"/>
                <g fill-rule="nonzero">
                    <path fill="#E5E5E5" d="M184.551 102.5c-4.852-2.52-10.063-4.5-15.454-5.76"/>
                    <path fill="#000" d="M168.378 98.18c.18 0 .18 0 .36.18 5.21 1.26 10.422 3.24 15.094 5.58.72.36 1.618 0 2.157-.72.36-.72 0-1.62-.72-2.16-5.03-2.52-10.422-4.5-15.813-5.94-.898-.18-1.617.36-1.797 1.08-.359.9 0 1.62.72 1.98z"/>
                </g>
                <g fill-rule="nonzero">
                    <path fill="#E5E5E5" d="M182.395 106.64a70.84 70.84 0 0 0-14.556-5.4"/>
                    <path fill="#000" d="M167.3 102.5c.18 0 .18 0 .36.18a78.903 78.903 0 0 1 14.196 5.22c.718.36 1.617 0 2.156-.72.36-.72 0-1.62-.719-2.16-4.672-2.34-9.704-4.32-14.915-5.58-.898-.18-1.617.36-1.797 1.08-.36 1.08 0 1.8.719 1.98z"/>
                </g>
                <g fill-rule="nonzero">
                    <path fill="#E5E5E5" d="M180.418 110.6c-4.313-2.16-8.805-3.96-13.477-5.04"/>
                    <path fill="#000" d="M166.222 107c.18 0 .18 0 .36.18 4.492 1.08 8.984 2.7 13.117 4.86.719.36 1.618 0 1.977-.72.36-.72 0-1.62-.719-2.16-4.313-2.16-8.985-3.96-13.837-5.22-.898-.18-1.617.36-1.797 1.08-.18.9.18 1.62.899 1.98z"/>
                </g>
                <g fill-rule="nonzero">
                    <path fill="#E5E5E5" d="M165.683 75.86c-1.618 10.98-3.235 22.14-5.032 33.12"/>
                    <path fill="#000" d="M159.932 110.42c.18 0 .36.18.36.18.898.18 1.617-.54 1.797-1.26l5.031-33.12c.18-.9-.539-1.62-1.258-1.8-.898-.18-1.617.54-1.797 1.26l-5.031 33.12c0 .72.36 1.26.898 1.62z"/>
                </g>
                <g fill-rule="nonzero">
                    <path fill="#E5E5E5" d="M166.402 71c2.875.36 5.75 1.08 8.625 1.62l3.774-15.12c-3.235-.72-6.65-1.44-9.884-1.98-1.078 5.22-1.797 10.26-2.515 15.48z"/>
                    <path fill="#000" d="M167.3 53.72l1.617.18c3.415.54 6.829 1.26 10.063 1.98l1.438.36-4.313 18.36-1.437-.36c-2.696-.72-5.571-1.26-8.446-1.62l-1.617-.18 2.695-18.72zm9.344 4.86c-2.156-.54-4.492-.9-6.649-1.26l-1.797 12.42c1.797.36 3.774.72 5.571 1.08l2.875-12.24z"/>
                </g>
                <g fill-rule="nonzero">
                    <path fill="#E5E5E5" d="M198.568 75.14c7.188 3.6 13.837 8.1 20.126 13.5 5.75-6.66 11.321-13.32 17.071-19.98-7.727-6.66-16.173-12.42-25.157-16.92-4.134 7.74-8.087 15.48-12.04 23.4z"/>
                    <path fill="#000" d="M217.616 89.72c-6.11-5.22-12.759-9.72-19.767-13.32l-1.438-.72 13.298-26.1 1.438.72c9.164 4.68 17.79 10.44 25.517 17.1l1.258 1.08-19.228 22.32-1.078-1.08zm-6.47-36l-10.422 20.7c6.29 3.42 12.22 7.38 17.79 11.88l15.095-17.64a157.13 157.13 0 0 0-22.462-14.94z"/>
                </g>
            </g>
            <path fill="#E5E5E5" fill-rule="nonzero" d="M168.738 120.5l-102.609 1.08c-12.938.18-26.056.36-38.096 4.86 8.087 5.76 19.767-.54 29.291 2.52 2.516.9 4.852 2.34 7.368 3.06 3.055 1.08 6.469 1.08 9.883 1.08 10.063.18 19.947.36 30.01.54 18.33.36 36.659.54 54.988-.18 14.735-.54 29.47-1.62 44.206-3.42 2.875-.36 6.29-1.08 6.829-3.96-14.736-2.34-26.955-5.76-41.87-5.58z"/>
            <path fill="#E5E5E5" fill-rule="nonzero" stroke="#000" stroke-linecap="round" stroke-width="5.4" d="M28.033 126.44s88.053-56.88 184.012 0"/>
            <ellipse cx="120.039" cy="112.58" fill="#40BB94" fill-rule="nonzero" rx="22.462" ry="5.04"/>
            <path fill="#F26C6B" fill-rule="nonzero" stroke="#000" stroke-width="5.4" d="M120.04.44c-18.69 0-33.964 15.3-33.964 34.02 0 0-2.875 37.62 34.143 74.88 0 0 34.502-33.48 33.783-74.88C153.642 15.74 138.728.44 120.04.44zm.179 66.31c-34.667 0-34.667-54 0-54 34.666 0 34.666 54 0 54z"/>
        </g>
        <path fill="#030303" fill-rule="nonzero" d="M127.823 55.35c-3.27-.747-9.495-1.962-15.72 0-.843.373-1.687-.747-.843-1.214 3.27-3.176 9.917-7.846 17.724 0 .527.747-.317 1.587-1.16 1.214z"/>
        <path fill="#010101" fill-rule="nonzero" d="M109.5 37.208c-1.477 0-2.426-.948-3.059-1.685-.422-.631-.633-1.368-.211-2 .211-.631.844-.631 1.266-.316 0 0 2.004 2.316 4.114 0 .422-.315.844-.315 1.266.316.21.632.21 1.369-.211 2-1.16 1.053-2.32 1.685-3.165 1.685zM129.835 37.208c-1.826 0-3.008-.948-3.76-1.685-.537-.315-.537-1.368-.215-2 .215-.631.967-.631 1.504-.316 0 0 2.578 2.316 5.049 0 .537-.315.966-.315 1.503.316.215.632.215 1.369-.214 2-1.29 1.053-2.578 1.685-3.867 1.685z"/>
    </g>
</svg>
