<svg xmlns="http://www.w3.org/2000/svg" width="222" height="122" viewBox="0 0 222 122">
    <g fill="none" fill-rule="evenodd">
        <path fill="#E3E3E3" d="M178.254 107.393c8.878 4.829-13.064 11.381-16.144 11.853-33.246 5.087-69.22 2.72-102.157-3.763-1.352-.266-2.747-.562-3.864-1.387-8.143-6.02 18.013-10.104 20.442-10.419 9.028-1.171 18.199-1.936 27.303-2.063 12.902-.18 63.414-.208 74.42 5.779" opacity=".494"/>
        <path fill="#DFF2FE" d="M95.74 41.664h44.098c3.817 0 6.941 3.115 6.941 6.921 0 3.807-3.124 6.922-6.941 6.922H95.74c-3.818 0-6.942-3.115-6.942-6.922 0-3.806 3.124-6.921 6.942-6.921M110.653 12.393c2.15 0 3.893 1.326 3.893 2.962 0 1.635-1.743 2.961-3.893 2.961h16.984c-2.15 0-3.892-1.326-3.892-2.961 0-1.636 1.743-2.962 3.892-2.962h-16.984M105.151 35.481c2.244 0 4.064 1.384 4.064 3.092 0 1.707-1.82 3.09-4.064 3.09h17.73c-2.245 0-4.064-1.383-4.064-3.09 0-1.708 1.82-3.092 4.063-3.092h-17.729"/>
        <path fill="#F26B6B" d="M206.08 45.981h1.532V42.2h-1.531zM206.08 53.64h1.532v-3.78h-1.531zM201.086 48.66h3.792v-1.527h-3.792zM208.767 48.66h3.794v-1.527h-3.794z"/>
        <path fill="#41BC98" d="M214.962 95.808l-4.003 1.06 1.592-3.813-2.248-3.468 4.129.33 2.613-3.203.959 4.017 3.863 1.488-3.534 2.152-.227 4.124-3.144-2.687M5.36 89.469a3.143 3.143 0 0 0-3.144 3.135A3.143 3.143 0 0 0 5.36 95.74a3.143 3.143 0 0 0 3.144-3.136A3.143 3.143 0 0 0 5.36 89.47zm0 8.306c-2.86 0-5.185-2.32-5.185-5.17 0-2.852 2.326-5.172 5.185-5.172 2.86 0 5.186 2.32 5.186 5.171 0 2.852-2.326 5.171-5.186 5.171z"/>
        <path fill="#F26B6B" d="M14.304 7.096h1.531V3.314h-1.53zM14.304 14.756h1.531v-3.782h-1.53zM9.31 9.774h3.792V8.247H9.309zM16.99 9.774h3.793V8.247h-3.792zM29.852 105.445h1.53v-3.782h-1.53zM29.852 113.104h1.53v-3.781h-1.53zM24.856 108.123h3.793v-1.527h-3.793zM32.538 108.123h3.793v-1.527h-3.793z"/>
        <path fill="#41BC98" d="M193.446 9.271l-4.003 1.06 1.591-3.813-2.247-3.468 4.127.33 2.614-3.203.96 4.017 3.863 1.489-3.534 2.151-.227 4.124-3.144-2.687"/>
        <path fill="#FFF" d="M46.273 100.065l130.59.398a2.727 2.727 0 0 0 2.739-2.723V7.9a2.726 2.726 0 0 0-2.73-2.722H49.652c-4.392.084-5.85 3-5.916 5.289v.147l-.111 83.885s.103 2.252.489 3.338c.386 1.085.91 2.19.91 2.19l1.248.038"/>
        <path fill="#101820" stroke="#101820" stroke-width="1.6" d="M46.282 99.556l130.582.398h.008c.591 0 1.148-.229 1.566-.646.422-.418.653-.975.653-1.568V7.9a2.22 2.22 0 0 0-2.22-2.213H49.653c-3.882.074-5.34 2.525-5.406 4.794v.135l-.11 83.884s.103 2.166.459 3.167c.258.725.583 1.469.76 1.86l.926.03zm130.59 1.416h-.011l-130.59-.398h-.014l-1.248-.04a.51.51 0 0 1-.446-.29c-.022-.046-.54-1.14-.93-2.238-.406-1.143-.513-3.388-.517-3.483l.111-84.059c.076-2.625 1.802-5.707 6.417-5.794H176.87a3.24 3.24 0 0 1 3.241 3.23v89.84c0 .865-.338 1.678-.953 2.29a3.223 3.223 0 0 1-2.287.942z"/>
        <path fill="#FFF" d="M43.626 94.5l.11-83.886.115-.759s.733 1.677 3.45 1.531h123.096a2.538 2.538 0 0 1 2.541 2.534v89.677c0 1.4-1.138 2.534-2.541 2.534H55.291c-6.443 0-11.665-5.207-11.665-11.632"/>
        <path fill="#030303" fill-rule="nonzero" d="M98.133 71.66c3.724-.85 10.81-2.23 17.897 0 .96.425 1.921-.85.96-1.38-3.723-3.61-11.29-8.92-20.178 0-.6.85.36 1.805 1.321 1.38z"/>
        <path fill="#010101" fill-rule="nonzero" d="M95.02 51.033c-1.68 0-2.761-1.078-3.482-1.915-.48-.719-.72-1.557-.24-2.275.24-.718.96-.718 1.441-.359 0 0 2.282 2.634 4.684 0 .48-.359.96-.359 1.44.36.241.717.241 1.555-.24 2.274-1.32 1.197-2.641 1.915-3.602 1.915zM118.17 51.033c-2.078 0-3.423-1.078-4.28-1.915-.61-.36-.61-1.557-.244-2.275.245-.718 1.1-.718 1.712-.359 0 0 2.935 2.634 5.748 0 .611-.359 1.1-.359 1.712.36.244.717.244 1.555-.245 2.274-1.467 1.197-2.935 1.915-4.402 1.915z"/>
        <path fill="#101820" stroke="#101820" stroke-width="1.6" d="M44.136 94.5c0 6.133 5.004 11.123 11.155 11.123h115.106a2.03 2.03 0 0 0 2.03-2.026V13.92a2.03 2.03 0 0 0-2.03-2.025H47.315c-1.496.077-2.467-.352-3.069-.815l-.11 83.42zm126.261 12.14H55.291c-6.714 0-12.176-5.446-12.176-12.14v-.001l.111-83.886c0-.025.002-.05.006-.075l.114-.758a.51.51 0 0 1 .972-.128c.024.05.66 1.35 2.957 1.226a.96.96 0 0 1 .027 0h123.095a3.05 3.05 0 0 1 3.052 3.042v89.677a3.05 3.05 0 0 1-3.052 3.043z"/>
        <path fill="#101820" d="M167.79 44.303a.51.51 0 0 1-.51-.51V29.308a.51.51 0 0 1 1.021 0v14.487a.51.51 0 0 1-.51.509M124.3 101.42h-7.077a.51.51 0 1 1 0-1.018h7.077a.51.51 0 1 1 0 1.018M104.856 101.42H72.392a.51.51 0 1 1 0-1.018h32.464a.51.51 0 1 1 0 1.018M48.679 54.785a.51.51 0 0 1-.51-.509v-26.46a.51.51 0 0 1 1.02 0v26.46a.51.51 0 0 1-.51.51M48.377 75.784a.51.51 0 0 1-.51-.509v-9.634a.51.51 0 0 1 1.02 0v9.634a.51.51 0 0 1-.51.509M72.392 30.949a.51.51 0 0 1-.37-.86l8.156-8.557a.511.511 0 0 1 .722-.018.508.508 0 0 1 .018.719l-8.156 8.557a.51.51 0 0 1-.37.159M78.338 29.932a.51.51 0 0 1-.334-.894l3.788-3.262a.511.511 0 0 1 .72.052.508.508 0 0 1-.053.718l-3.788 3.262a.508.508 0 0 1-.333.124"/>
        <path fill="#101820" d="M84.12 32.688a.51.51 0 0 1-.387-.178l-8.845-10.297a.508.508 0 0 1 .056-.717.512.512 0 0 1 .72.055l8.844 10.297a.508.508 0 0 1-.387.84M76.47 30.949a.51.51 0 0 1-.37-.159l-4.078-4.278a.508.508 0 0 1 .018-.72.511.511 0 0 1 .722.019l4.078 4.278a.508.508 0 0 1-.37.86M159.738 93.292a.51.51 0 0 1-.413-.806l.824-1.14h-3.728a.511.511 0 0 1-.43-.782l1.485-2.323-5.812 1.061a.51.51 0 0 1-.443-.87l5.103-4.834a.512.512 0 0 1 .722.019.508.508 0 0 1-.019.72l-3.86 3.656 5.277-.964a.51.51 0 0 1 .523.774l-1.616 2.526h3.795a.51.51 0 0 1 .414.806l-1.407 1.946a.51.51 0 0 1-.415.21"/>
        <path fill="#F26B6B" d="M180.712 49.804h-31.529l-5.72 5.705a6.391 6.391 0 0 0 .214 9.26l5.207 4.735h31.828v-19.7"/>
        <path fill="#101820" stroke="#101820" stroke-width="1.6" d="M180.712 70.014l-31.828-.001a.511.511 0 0 1-.344-.133l-5.207-4.734a6.844 6.844 0 0 1-2.26-4.95 6.842 6.842 0 0 1 2.028-5.047l5.722-5.705a.51.51 0 0 1 .36-.149h6.17a.51.51 0 1 1 0 1.018h-5.958l-5.572 5.556a5.834 5.834 0 0 0-1.73 4.304 5.837 5.837 0 0 0 1.928 4.221l5.06 4.6 31.12.002V50.313h-18.538a.51.51 0 1 1 0-1.018h19.049a.51.51 0 0 1 .51.509v19.7a.508.508 0 0 1-.51.51"/>
        <path fill="#101820" stroke="#101820" stroke-width="1.6" d="M158.536 56.333a3.554 3.554 0 0 0-3.554 3.545 3.554 3.554 0 0 0 3.554 3.545c1.96 0 3.555-1.59 3.555-3.545a3.554 3.554 0 0 0-3.555-3.545zm0 8.107c-2.523 0-4.575-2.046-4.575-4.562 0-2.516 2.052-4.563 4.575-4.563s4.576 2.047 4.576 4.563c0 2.516-2.053 4.562-4.576 4.562z"/>
    </g>
</svg>
