<svg xmlns="http://www.w3.org/2000/svg" width="163" height="144" viewBox="0 0 163 144">
    <g fill="none" fill-rule="nonzero">
        <path fill="#EEE" d="M3.018 128.816c-1.368 1.33-2.606 2.93-2.513 5.475.196 5.415 7.28 6.7 10.178 7.214 5.133.909 10.277.759 15.434 1.005 18.736.897 75.296 1.433 84.914.785 8.448-.57 19.425-.14 27.434-4.436 4.807-2.577 21.125-16.31 23.342-21.627 3.886-9.32-9.686-11.134-13.419-12.151-14.68-4-29.825-4.688-44.762-5.26-15.199-.58-30.445-.178-45.585 1.948-18.981 2.664-39.285 11.123-54.807 26.842l-.216.205"/>
        <path fill="#AA7637" d="M51.774 114.973h87.291V55.137h-87.29z"/>
        <path fill="#AA7637" d="M51.904 55.137L30.46 73.403v59.836l21.444-12.998V55.137"/>
        <path fill="#000" d="M51.512 55.05L32.704 71.072l-2.636 2.246c-.428.364.534.385.784.172L49.66 57.47l2.636-2.246c.428-.365-.534-.385-.784-.172m.879 17.362V57.175c0-.412-.974-.21-.974.119v15.238c0 .412.974.21.974-.118"/>
        <path fill="#000" d="M57.691 54.795h-5.668c-.544 0-.757.683-.094.683h5.668c.544 0 .757-.683.094-.683m37.229 0H68.204c-.545 0-.757.683-.095.683h26.716c.545 0 .758-.683.095-.683m44.193 0H105c-.544 0-.757.683-.094.683h34.112c.545 0 .757-.683.095-.683"/>
        <path fill="#FFF" d="M102.05 119.614c1.517.586 3.022 1.212 4.537 1.786 2.62.993 5.27 1.831 8.068 2.042 1.335.1 3.775.266 3.635-1.8-.113-1.656-1.923-1.226-3.015-2.02-4.51-3.282-2.552-12.39-2.666-17.088-.148-6.102-.567-12.21-1.564-18.237-.981-5.932-3.281-11.468-4.93-17.217-1.463-5.095-2.604-10.264-4.324-15.277-.253-.737-1.198-.936-1.74-.377-.687.711-1.506 1.443-1.793 1.775-1.082 1.252-2.197 2.483-3.248 3.761-.82.998-1.528 2.26-2.642 2.96-.946.594-1.912.207-3.066.204-5.779-.017-11.552.011-17.332-.07-1.364-.018-2.396-1.598-3.194-2.496a345.289 345.289 0 0 0-6.739-7.35.421.421 0 0 0-.694.125c-2.886 6.931-4.623 14.119-6.723 21.28-2.151 7.339-3.24 14.973-3.172 22.622.057 6.343 1.372 12.546 1.545 18.872.039 1.395.074 3.177-1.313 4.027-1.15.704-4.341-.576-3.83 1.937.355 1.737 5.242 2.125 6.643 2.305 2.124.272 4.297-.07 6.478-.667l41.078-1.097"/>
        <path fill="#000" d="M108.19 72.025c-1.098-3.346-2.064-6.72-2.96-10.124-.461-1.747-.919-3.495-1.41-5.234-.457-1.62-.812-3.475-1.542-4.995-1.077-2.242-3.65.675-4.463 1.558a72.272 72.272 0 0 0-3.342 3.879c-.416.522-.79 1.078-1.214 1.595-.246.3-.51.615-.819.852-.598.46-1.28.48-1.993.414-1.705-.16-3.454-.059-5.165-.06-1.838-.001-3.676-.002-5.514-.007a761.89 761.89 0 0 1-5.515-.032c-.812-.008-1.824.13-2.584-.171-.614-.243-1.095-.748-1.525-1.234-2.177-2.457-4.355-4.908-6.599-7.307-.64-.686-1.321-1.755-2.357-1.07-.351.232-.452.63-.604 1.007-.266.662-.52 1.329-.767 1.998-2.367 6.423-4.09 13.065-5.973 19.64-.064.222.888.096.962-.163 1.587-5.542 3.076-11.115 4.904-16.584a97.318 97.318 0 0 1 1.451-4.073c.109-.282.218-.563.33-.844.02-.05.339-.77.088-.69.188-.06 1.61 1.717 1.836 1.96a343.403 343.403 0 0 1 3.367 3.675c.946 1.048 1.825 2.198 2.824 3.195.93.928 1.762 1.054 3.036 1.069 1.707.02 3.415.031 5.122.038 3.479.014 6.958.008 10.438.016 1.185.003 2.478.317 3.639.004 1.061-.285 1.84-1.096 2.497-1.935 1.822-2.329 3.705-4.566 5.804-6.65.95-.942 1.274.497 1.53 1.284.3.92.583 1.846.855 2.776a212.823 212.823 0 0 1 1.482 5.413c.98 3.718 2.009 7.407 3.206 11.061.08.243 1.048-.037.974-.26"/>
        <path fill="#000" d="M71.792 68.838a1.512 1.512 0 1 1-3.024.023 1.512 1.512 0 0 1 3.024-.023m20.581-.05a1.512 1.512 0 1 1-3.024.023 1.512 1.512 0 0 1 3.024-.023m-12.125 3.497l-.018 1.213c-.003.231.97.074.974-.261l.017-1.213c.004-.232-.969-.075-.973.26"/>
        <path fill="#000" d="M80.605 72.788l-1.61-.948c-.182-.106-.104-.383.105-.38l3.29.045c.211.003.28.285.094.385l-1.679.902a.204.204 0 0 1-.2-.004m-12.647-2.511h4.223c.324 0 1.047-.487.396-.487h-4.223c-.324 0-1.046.487-.396.487m20.573-.027h4.223c.29 0 1.056-.432.41-.432h-4.222c-.29 0-1.056.431-.41.431"/>
        <path fill="#FFF" d="M116.076 73.119c1.694-.67 2.15-3.178.726-4.327-.753-.609-1.841-.598-2.775-.34-1.834.508-3.38 1.907-4.137 3.645-.37.851-.452 1.858-.627 2.766-.157.81-.166 1.632-.104 2.452.067.886.383 1.909 1.226 2.193.564.19 1.217-.045 1.612-.49.396-.444.556-1.062.539-1.656-.02-.644.13-.976.271-1.604.2-.893.824-1.68 1.647-2.08.515-.25 1.09-.349 1.622-.56"/>
        <path fill="#000" d="M117.257 72.64c1.81-1.882.58-4.667-2.015-4.588-2.54.078-4.797 1.877-5.836 4.118-.106.229.837.137.968-.145.837-1.806 2.78-3.761 4.948-3.456 2.05.29 2.294 2.79 1.04 4.095-.247.256.703.175.895-.023"/>
        <path fill="#BD8849" d="M117.621 73.78c-2.808 4.502-6.044 9.223-8.055 13.089-1.218 2.34-3.514 2.993-6.008 2.999l-73.499.174v42.739h87.562v-63 4-.001z"/>
        <path fill="#BD8849" d="M139.065 80.924l-7.12 6.826a5.834 5.834 0 0 1-6.836-1.909l-7.488-9.959v57.357l21.444-17.957V80.924"/>
        <path fill="#000" d="M117.135 76.09v55.046c0 .3.973.118.973-.26V75.829c0-.3-.973-.118-.973.26"/>
        <path fill="#000" d="M138.57 80.459v32.472c0 .678-.082 1.415 0 2.089.006.045.006.531.083.155.048-.237.002-.052-.192.093-1.774 1.331-3.426 2.869-5.125 4.292l-14.768 12.367c-.1.084-1.28.927-1.252 1.048-.038-.16.635-.08-.02-.117-1.054-.058-2.128 0-3.183 0H30.096l.458.35V91.707c0-.534-.99-.411-.99.06v41.503c0 .258.233.35.459.35h86.263c.539 0 1.225.126 1.7-.166.486-.299.923-.773 1.359-1.138l2.892-2.422 8.046-6.737 7.15-5.988c.632-.53 2.053-1.278 2.127-2.17.156-1.855 0-3.791 0-5.652V80.398c0-.535-.99-.411-.99.06"/>
        <path fill="#BD8849" d="M117.621 73.403H30.463L21.1 88.589a1.08 1.08 0 0 0 .93 1.628h84.234a2.52 2.52 0 0 0 2.169-1.238l9.187-15.576"/>
        <path fill="#000" d="M117.812 73.131H31.25c-.427 0-.914-.066-1.24.267-.245.248-.417.675-.598.969L27.98 76.69l-6.956 11.285c-.21.34-.506.716-.555 1.122-.101.858.643 1.342 1.4 1.391.4.026.81 0 1.212 0h81.912c.358 0 .719.01 1.077 0 1.722-.049 2.577-1.094 3.362-2.426l6.91-11.713 1.733-2.939c.227-.385-.745-.286-.905-.015l-6.623 11.227c-.845 1.433-1.623 2.945-2.552 4.326-.7 1.043-1.426.997-2.429.997H24.46c-.68 0-1.377.045-2.055 0-1.752-.114-.572-1.8-.107-2.554 2.645-4.29 5.29-8.58 7.934-12.872l.684-1.109-.643.264h76.398c3.524 0 7.083.144 10.604 0 .052-.002.105 0 .157 0 .36 0 1.036-.543.381-.543"/>
        <path fill="#BD8849" d="M139.065 55.137l-21.444 18.266 11.972 11.568c.307.307.74.37 1.118.084l19.38-17.115c.366-.365.78-1.097.332-1.545l-11.358-11.258"/>
        <path fill="#000" d="M138.674 55.052l-18.808 16.02-2.636 2.245c-.074.063-.148.193-.06.278l9.765 9.437c.978.945 2.52 3.22 4.08 2.174.915-.614 1.722-1.509 2.545-2.236l12.469-11.01 4.122-3.64c.448-.396.991-.892.954-1.545-.031-.537-.578-.917-.931-1.267l-10.657-10.564c-.247-.245-1.17.121-.903.385l9.222 9.141 1.812 1.797c.515.51.583 1.038-.023 1.654-.958.973-2.073 1.83-3.096 2.734l-12.011 10.607-3.866 3.413c-.324.286-.31.347-.689.025-.517-.439-.986-.953-1.474-1.424L118.073 73.21l-.06.278 18.808-16.02 2.636-2.246c.428-.364-.535-.383-.783-.17"/>
        <path fill="#101820" d="M113.869 71.791c2.212-12.633 2.797-25.481 4.57-38.174.04-.29-.928-.112-.965.154-1.773 12.693-2.358 25.54-4.57 38.174-.05.282.918.116.965-.154"/>
        <path fill="#41BC98" d="M146.565 40.445s-55.27-1.792-55.854-3.584c-1.552-4.765 1.4-32.64 2.472-34.73C94.2.149 154.697-1.683 152.624 4.704c-1.614 4.976-6.059 35.742-6.059 35.742"/>
        <path fill="#030303" d="M111.553 24.336c3.033-.79 8.805-2.075 14.577 0 .782.395 1.565-.79.782-1.285-3.032-3.36-9.196-8.3-16.435 0-.49.79.293 1.68 1.076 1.285z"/>
        <path fill="#010101" d="M108.716 14.537c-1.37 0-2.25-.889-2.837-1.58-.391-.594-.587-1.285-.196-1.878.196-.593.783-.593 1.174-.297 0 0 1.859 2.174 3.816 0 .39-.296.782-.296 1.173.297.196.593.196 1.284-.195 1.877-1.076.989-2.152 1.581-2.935 1.581zm19.272-.296c-1.663 0-2.739-.89-3.424-1.581-.489-.297-.489-1.285-.195-1.878.195-.592.88-.592 1.37-.296 0 0 2.347 2.174 4.597 0 .49-.296.88-.296 1.37.296.196.593.196 1.285-.196 1.878-1.174.988-2.348 1.581-3.522 1.581z"/>
        <path fill="#101820" d="M146.76 40.19c-4.121-.134-8.242-.289-12.363-.451-8.172-.323-16.343-.68-24.508-1.15-3.628-.208-7.256-.434-10.877-.739-2.272-.19-4.593-.337-6.83-.8-.384-.079-.894-.185-1.006-.389-.222-.405-.223-1.077-.27-1.525a27.596 27.596 0 0 1-.13-2.121c-.121-4.261.185-8.544.522-12.79.343-4.31.773-8.62 1.365-12.904.193-1.395.386-2.798.69-4.175.075-.34.182-.663.275-.996.02-.067-.099-.016.1-.064 1.41-.344 3.407-.575 5.057-.723 3.205-.288 6.421-.451 9.636-.577 8.095-.318 16.214-.378 24.311-.063 3.598.14 7.2.35 10.777.784 2.343.284 4.844.57 7.042 1.487.524.218 1.212.516 1.506 1.041.306.547-.064 1.208-.202 1.756-.832 3.315-1.367 6.716-1.94 10.082-1.31 7.692-2.482 15.407-3.614 23.126-.074.505-.148 1.009-.22 1.513-.05.344.925.17.97-.135.906-6.279 1.863-12.55 2.871-18.813.68-4.227 1.37-8.456 2.198-12.656.253-1.283.502-2.576.859-3.836.16-.57.298-1.01-.095-1.518-.997-1.29-3.352-1.628-4.822-1.925-3.098-.627-6.27-.901-9.42-1.12-8.27-.578-16.588-.589-24.872-.389-6.154.149-12.478.2-18.57 1.188-.633.102-1.317.195-1.91.452-.56.241-.677.58-.822 1.154-.806 3.197-1.067 6.59-1.424 9.857-.514 4.708-.92 9.434-1.137 14.165-.091 1.98-.154 3.965-.114 5.947.025 1.23-.044 2.708.367 3.89.356 1.022 2.617.983 3.49 1.093 2.96.375 5.94.587 8.915.795 8.372.587 16.758.971 25.142 1.328 5.913.252 11.828.48 17.743.68l.92.03c.342.011 1.043-.488.39-.509"/>
        <path fill="#000" d="M137.168 34.03c.622-1 1.816.556.937.985-.577.282-1.34-.34-.937-.986m3.298-1.27c.623-.999 1.817.557.938.986-.577.282-1.34-.34-.938-.986m-.966.755c.256-.111.403-.445.362-.731a.844.844 0 0 0-.482-.63c-.335-.157-.879.008-1.004.45-.178.63.633 1.126 1.124.911m2.14.901c-.264-.05-.516.334-.517.602.001.294.19.555.47.646a.465.465 0 0 0 .38-.032c.207-.126.263-.444.177-.67a1.238 1.238 0 0 0-.408-.506.29.29 0 0 0-.101-.04m-1.184.556c.091.273.409.375.525.636.128.285-.045.663-.305.845-.26.181-.576.211-.875.217-.808.015-1.725-.648-1.087-1.594.177-.262.698-.796.978-.88.58-.176.624.359.764.776"/>
    </g>
</svg>
