<svg xmlns="http://www.w3.org/2000/svg" xmlns:xlink="http://www.w3.org/1999/xlink" width="183" height="176" viewBox="0 0 183 176">
    <defs>
        <path id="a" d="M1.492.187C.746.187.187.747.187 1.495v4.852c0 .746.56 1.306 1.305 1.306h4.85c.746 0 1.308-.56 1.308-1.306V1.495C7.46.56 6.902.187 6.342.187h-4.85z"/>
        <path id="c" d="M1.151.766c-.384 0-.575.194-.575.58V3.84c0 .384.191.576.575.576h2.494c.384 0 .576-.192.576-.576V1.346c.192-.386-.192-.58-.576-.58H1.151z"/>
        <path id="e" d="M1.343.192C.959.192.767.386.767.768v2.496c0 .384.192.578.576.578h2.494c.384 0 .578-.194.578-.578V.96c0-.384-.194-.768-.578-.768H1.343z"/>
        <path id="g" d="M.72.384C.36.384.181.576.181.962v2.494c0 .384.178.576.537.576h2.339c.36 0 .54-.192.54-.576V.962c0-.194-.18-.578-.54-.578H.719z"/>
        <path id="i" d="M1.2.686c-.6 0-.998.34-.998.857V4.8c0 .514.398.857.997.857h3.797c.602 0 1-.343 1-.857V1.543c0-.516-.398-.857-1-.857H1.2z"/>
        <path id="k" d="M2.094.384C1.332.384.76.958.76 1.72V6.68c0 .764.571 1.336 1.333 1.336h4.948c.762 0 1.333-.572 1.333-1.336V1.72c0-.762-.571-1.336-1.333-1.336H2.094z"/>
        <path id="m" d="M.541.384C.18.384 0 .576 0 .962v2.494c0 .384.18.576.541.576h2.337c.361 0 .54-.192.54-.576V.962c0-.386-.179-.578-.54-.578H.54z"/>
        <path id="o" d="M.767.768c-.383 0-.575.192-.575.578V3.84c0 .386.192.576.575.576H3.26c.385 0 .577-.19.577-.576V1.346c.192-.194-.192-.578-.577-.578H.767z"/>
        <path id="q" d="M1.492 0C.746 0 .187.56.187 1.307v4.855c0 .745.56 1.307 1.305 1.307h4.85c.748 0 1.306-.562 1.306-1.307V1.307C7.46.56 6.902 0 6.342 0h-4.85z"/>
        <path id="s" d="M1.37.514c-.513 0-.856.345-.856.857V4.63c0 .514.343.858.856.858h3.253c.516 0 .859-.344.859-.858V1.37c0-.512-.343-.857-.859-.857H1.37z"/>
        <path id="u" d="M.96.18C.576.18.383.362.383.72v2.34c0 .36.193.54.575.54h2.494c.384 0 .576-.18.576-.54V.72c0-.358-.192-.54-.576-.54H.96z"/>
        <path id="w" d="M1.679.187C.933.187.37.747.37 1.493v4.854c0 .746.562 1.306 1.308 1.306h4.85c.746 0 1.305-.56 1.305-1.306V1.493c0-.746-.56-1.306-1.305-1.306h-4.85z"/>
        <path id="y" d="M1.151.576c-.384 0-.574.192-.574.574v2.69c0 .386.19.578.574.578h2.494c.384 0 .574-.192.574-.578V1.344c0-.384-.19-.768-.574-.768H1.151z"/>
        <path id="A" d="M1.732.005C.971.005.398.605.398 1.403v5.212c0 .801.573 1.404 1.334 1.404h4.949c.761 0 1.332-.603 1.332-1.404V1.403c0-.797-.57-1.398-1.332-1.398H1.732z"/>
        <path id="C" d="M1.151.576c-.384 0-.574.19-.574.576V3.84c0 .384.19.576.574.576h2.494c.386 0 .576-.192.576-.576V1.346c0-.386-.19-.77-.576-.77H1.151z"/>
        <path id="E" d="M1.494.56C.746.56.187 1.118.187 1.867V6.72c0 .749.56 1.307 1.307 1.307h4.848c.746 0 1.306-.558 1.306-1.307V1.867c0-.749-.56-1.307-1.306-1.307H1.494z"/>
        <path id="G" d="M1 0C.4 0 0 .4 0 1.002V4.8c0 .6.4 1 1 1h3.796c.6 0 1-.4 1-1V1.002C5.598.4 5.196 0 4.796 0H1z"/>
        <path id="I" d="M.72.768c-.36 0-.538.192-.538.576v2.498c0 .382.178.574.537.574h2.339c.36 0 .54-.192.54-.574V1.344c0-.192-.18-.576-.54-.576H.719z"/>
        <path id="K" d="M1.494.187C.746.187.188.747.188 1.493v4.854c0 .746.558 1.306 1.306 1.306h4.848c.748 0 1.306-.56 1.306-1.306V1.493C7.46.747 7.09.187 6.342.187H1.494z"/>
        <path id="M" d="M1.343.576c-.384 0-.576.192-.576.576v2.494c0 .386.192.58.576.58h2.492c.386 0 .578-.194.578-.58V1.152C4.605.768 4.22.576 3.835.576H1.343z"/>
        <path id="O" d="M2.198 3.367L.6 18.822c-.2 1.76.601 2.348 1.798 1.37l3.797-3.327 6.995-6.063 3.797-3.326c1.2-.98.998-2.152-.2-2.546L4.998 1.017a2.295 2.295 0 0 0-.604-.086c-1.127 0-2.023.934-2.195 2.436z"/>
        <path id="P" d="M44.574.972L3.508 25.262c-2.7 1.552-4.05 5.44-3.278 8.936l11.954 61.4 33.742 14.574 61.886-19.042 13.882-51.878c1.157-4.083-.578-8.744-3.856-10.106L48.818.583a4.185 4.185 0 0 0-1.662-.34c-.876 0-1.764.258-2.582.729z"/>
        <path id="R" d="M.574 4.611c-.574.601 0 1.202.955 1.202 7.66-.2 13.21 1.002 16.082 1.806.768.198 1.723-.403 1.34-1.004C15.995 1.634 12.76 0 9.784 0 5.82.003 2.324 2.896.574 4.61z"/>
        <path id="T" d="M.608 5.67c-.204.386.2 1.158.805.963 4.846-.964 8.682-.191 10.698.389.608 0 1.216-.58.81-.966C10.77 1.863 8.683.437 6.832.437 3.989.439 1.706 3.799.608 5.669z"/>
        <path id="V" d="M3.392 4.911C2.638 5.302-.754 8.837.377 8.837 9.422 7.461 12.248.199 24.119 5.498c.944 0 1.885-.392 1.508-.785C23.687 3.168 19.674.544 14.553.544c-3.34 0-7.146 1.115-11.161 4.367z"/>
        <path id="X" d="M16.959.838l-8.926 4.85c-.597.39-.99.778-1.19 1.358l-5.95 19.01c-.595 1.745.396 3.491 2.183 4.073l12.098 3.686c1.785.582 3.57-.388 4.165-2.134l5.949-19.01c.398-.388.2-1.164 0-1.746l-4.96-9.117c-.41-.803-1.292-1.237-2.193-1.237-.4 0-.807.087-1.176.267zM16.76 7.24c-2.976-.97-1.587-5.238 1.388-4.462 2.51.877 1.62 4.597-.623 4.597-.24 0-.496-.04-.765-.135z"/>
        <path id="Z" d="M.343 5.587s3.426-1.505 0-5.584c0 0 1.543 3.65 0 5.584z"/>
        <path id="aa" d="M1.542 4.74C.172 3.295.685.206.685.206c-1.37 3.504.857 4.534.857 4.534z"/>
        <path id="ab" d="M.21 1.374c5.329-.305 8.184.612 8.184.612C6.12 1.106 4.332.846 3.013.846c-1.882 0-2.804.528-2.804.528z"/>
        <path id="ac" d="M.195 3.24S6.625.9 10.522 1.26c0 0-.836-.427-2.482-.427-1.729 0-4.351.47-7.845 2.407z"/>
    </defs>
    <g fill="none" fill-rule="evenodd">
        <g transform="translate(116.482 103.2)">
            <mask id="b" fill="#fff">
                <use xlink:href="#a"/>
            </mask>
            <path fill="#3CB891" d="M-9.14 16.987h26.114V-9.147H-9.14z" mask="url(#b)"/>
        </g>
        <g transform="translate(91.3 46.8)">
            <mask id="d" fill="#fff">
                <use xlink:href="#c"/>
            </mask>
            <path fill="#3CB891" d="M-9.017 14.016h22.88V-8.832h-22.88z" mask="url(#d)"/>
        </g>
        <g transform="translate(70.916 67.2)">
            <mask id="f" fill="#fff">
                <use xlink:href="#e"/>
            </mask>
            <path fill="#CFD1D2" d="M-8.825 13.44h22.83V-9.408h-22.83z" mask="url(#f)"/>
        </g>
        <g transform="translate(148.858 122.4)">
            <mask id="h" fill="#fff">
                <use xlink:href="#g"/>
            </mask>
            <path fill="#929292" d="M-8.813 13.63h21.402V-9.216H-8.813z" mask="url(#h)"/>
        </g>
        <g transform="translate(176.438 100.8)">
            <mask id="j" fill="#fff">
                <use xlink:href="#i"/>
            </mask>
            <path fill="#3CB891" d="M-9.793 14.229h25.78V-7.886h-25.78z" mask="url(#j)"/>
        </g>
        <g transform="translate(45.735 148.8)">
            <mask id="l" fill="#fff">
                <use xlink:href="#k"/>
            </mask>
            <path fill="#F26B6B" d="M-8.755 17.558h26.647V-9.157H-8.755z" mask="url(#l)"/>
        </g>
        <g transform="translate(96.097 166.8)">
            <mask id="n" fill="#fff">
                <use xlink:href="#m"/>
            </mask>
            <path fill="#929292" d="M-8.993 13.63H12.41V-9.216H-8.993z" mask="url(#n)"/>
        </g>
        <g transform="translate(62.522 129.6)">
            <mask id="p" fill="#fff">
                <use xlink:href="#o"/>
            </mask>
            <path fill="#929292" d="M-9.401 14.016h22.883V-8.832H-9.401z" mask="url(#p)"/>
        </g>
        <g transform="translate(69.717 168)">
            <mask id="r" fill="#fff">
                <use xlink:href="#q"/>
            </mask>
            <path fill="#3CB891" d="M-9.14 16.8h26.114V-9.333H-9.14z" mask="url(#r)"/>
        </g>
        <g transform="translate(174.04 79.2)">
            <mask id="t" fill="#fff">
                <use xlink:href="#s"/>
            </mask>
            <path fill="#3CB891" d="M-8.051 14.057h22.096V-8.057H-8.05z" mask="url(#t)"/>
        </g>
        <g transform="translate(20.553 124.8)">
            <mask id="v" fill="#fff">
                <use xlink:href="#u"/>
            </mask>
            <path fill="#3CB891" d="M-9.21 12.6h22.832V-8.82H-9.21z" mask="url(#v)"/>
        </g>
        <g transform="translate(75.712 142.8)">
            <mask id="x" fill="#fff">
                <use xlink:href="#w"/>
            </mask>
            <path fill="#CFD1D2" d="M-8.953 16.987H17.16V-9.147H-8.953z" mask="url(#x)"/>
        </g>
        <g transform="translate(.168 144)">
            <mask id="z" fill="#fff">
                <use xlink:href="#y"/>
            </mask>
            <path fill="#CFD1D2" d="M-9.017 14.016h22.829v-23.04h-22.83z" mask="url(#z)"/>
        </g>
        <g transform="translate(75.712 28.8)">
            <mask id="B" fill="#fff">
                <use xlink:href="#A"/>
            </mask>
            <path fill="#F26B6B" d="M-9.117 18.036H17.53v-28.052H-9.117z" mask="url(#B)"/>
        </g>
        <g transform="translate(103.292 12)">
            <mask id="D" fill="#fff">
                <use xlink:href="#C"/>
            </mask>
            <path fill="#929292" d="M-9.017 14.016h22.829v-23.04h-22.83z" mask="url(#D)"/>
        </g>
        <g transform="translate(109.288 74.4)">
            <mask id="F" fill="#fff">
                <use xlink:href="#E"/>
            </mask>
            <path fill="#3CB891" d="M-9.14 17.36h26.114V-8.773H-9.14z" mask="url(#F)"/>
        </g>
        <g transform="translate(163.248 18)">
            <mask id="H" fill="#fff">
                <use xlink:href="#G"/>
            </mask>
            <path fill="#3CB891" d="M-9.993 15.798h25.781V-10h-25.78z" mask="url(#H)"/>
        </g>
        <g transform="translate(37.34)">
            <mask id="J" fill="#fff">
                <use xlink:href="#I"/>
            </mask>
            <path fill="#3CB891" d="M-8.813 14.016h21.402V-8.832H-8.813z" mask="url(#J)"/>
        </g>
        <g transform="translate(139.265)">
            <mask id="L" fill="#fff">
                <use xlink:href="#K"/>
            </mask>
            <path fill="#CFD1D2" d="M-9.14 16.987h26.114V-9.147H-9.14z" mask="url(#L)"/>
        </g>
        <g transform="translate(40.938 26.4)">
            <mask id="N" fill="#fff">
                <use xlink:href="#M"/>
            </mask>
            <path fill="#CFD1D2" d="M-8.825 13.824h22.882V-9.024H-8.825z" mask="url(#N)"/>
        </g>
        <g transform="translate(31.345 37.2)">
            <mask id="Q" fill="#fff">
                <use xlink:href="#P"/>
            </mask>
            <path fill="#BD8849" d="M-9.626 119.887h141.319V-9.473H-9.626z" mask="url(#Q)"/>
        </g>
        <g stroke="#010202" stroke-linecap="round" stroke-width="3.432">
            <path d="M139.025 128.42l13.912-51.878c1.16-4.083-.58-8.744-3.865-10.104L79.898 37.873c-1.353-.581-2.899-.389-4.251.39L34.489 62.552c-2.705 1.552-4.057 5.438-3.284 8.936l11.98 61.403 33.814 14.573 62.026-19.044zM75.647 38.262L77 147.462"/>
        </g>
        <g transform="translate(93.7 79.2)">
            <mask id="S" fill="#fff">
                <use xlink:href="#R"/>
            </mask>
            <path fill="#050706" d="M-9.225 17.673H28.61v-27.69H-9.225z" mask="url(#S)"/>
        </g>
        <g transform="translate(127.274 80.4)">
            <mask id="U" fill="#fff">
                <use xlink:href="#T"/>
            </mask>
            <path fill="#050706" d="M-9.541 16.682h32.686V-9.222H-9.541z" mask="url(#U)"/>
        </g>
        <g transform="translate(104.491 103.2)">
            <mask id="W" fill="#fff">
                <use xlink:href="#V"/>
            </mask>
            <path fill="#050706" d="M-9.273 18.65h44.406V-9.27H-9.273z" mask="url(#W)"/>
        </g>
        <path fill="#231F20" d="M43.336 57.223l8.625 78.354 11.76 4.823-2.744-93.6z"/>
        <path fill="#41BA93" d="M86.504 123.602V136.8l14.39-4.2V120z"/>
        <g transform="translate(15.757 54)">
            <mask id="Y" fill="#fff">
                <use xlink:href="#X"/>
            </mask>
            <path fill="#41BA93" d="M-9.197 43.683h44.634V-9.128H-9.197z" mask="url(#Y)"/>
        </g>
        <g stroke="#010202">
            <path stroke-width=".78" d="M41.35 63.952l-4.879-9.244c-.585-1.18-2.146-1.574-3.315-.984l-8.783 4.917c-.587.394-.976.787-1.173 1.377l-5.855 19.275c-.585 1.77.39 3.54 2.15 4.128l11.902 3.74c1.759.59 3.513-.394 4.099-2.164L41.35 65.72c.39-.392.198-1.178 0-1.768zm-8.392-3.737c-2.927-.984-1.56-5.313 1.367-4.524 2.734.983 1.368 5.507-1.367 4.524z"/>
            <path stroke-width="1.716" d="M35.107 59.428c-1.952-.786-3.125-2.753-3.125-4.917 0-2.95 2.344-5.31 5.271-5.31 2.928 0 5.27 2.36 5.27 5.31v.59M24.567 63.952l13.271 4.327M23.397 67.492l13.27 4.327"/>
        </g>
        <g transform="translate(61.323 94.8)">
            <mask id="ad" fill="#fff">
                <use xlink:href="#ac"/>
            </mask>
            <path fill="#050706" d="M-9.548 12.24h29.813V-8.168H-9.548z" mask="url(#ad)"/>
        </g>
    </g>
</svg>
