<svg xmlns="http://www.w3.org/2000/svg" width="145" height="149" viewBox="0 0 145 149">
    <g fill="none" fill-rule="evenodd">
        <path fill="#FFF" d="M95.863 56.197c4.265-4.611 11.133-5.41 16.546-1.928 5.406 3.48 5.73 10.395 2.124 15.003-1.526 1.95 1.715 4.232 3.246 2.273 5.16-6.593 3.967-15.023-2.864-20.218-6.824-5.19-16.916-3.222-22.297 2.597-1.703 1.84 1.55 4.105 3.245 2.273"/>
        <path fill="#FFB49B" d="M138.999 21.851c-.183 0-.368.014-.551.041a3.687 3.687 0 0 0-2.434 1.456 3.666 3.666 0 0 0-.689 2.748 3.724 3.724 0 0 0 4.214 3.115 3.68 3.68 0 0 0 2.433-1.456c.591-.793.836-1.77.69-2.747a3.723 3.723 0 0 0-3.663-3.157zm-.012 9.693c-2.949 0-5.5-2.198-5.935-5.112a5.946 5.946 0 0 1 1.117-4.45 5.969 5.969 0 0 1 3.942-2.357c.294-.043.594-.066.889-.066 2.949 0 5.5 2.198 5.934 5.112a5.942 5.942 0 0 1-1.116 4.449 5.973 5.973 0 0 1-3.942 2.36 6.146 6.146 0 0 1-.889.064z"/>
        <path fill="#F9F9F9" d="M27.319 145.169c-1.373-.519-1.889-1.105-1.254-1.77 4.417-4.616 24.816-4.029 34.71-3.808 12.443.277 25.388-.578 36.624.814 4.702.582 15.34 2.269 17.201 3.904 4.882 4.295-28.995 4.71-34.482 4.648-9.146-.104-44.957-.829-52.799-3.788"/>
        <path fill="#101820" stroke="#101820" stroke-width="2.4" d="M72.75 49.05l7.215 14.554 4.583 9.247c.942 1.9 1.679 4.327 4.05 4.754 5.272.95 10.64 1.522 15.94 2.278l10.197 1.456c2.063.295 4.915.203 5.822 2.514.98 2.497-1.283 4.121-2.827 5.64l-7.193 7.073c-3.957 3.892-8.063 7.677-11.893 11.696-1.655 1.735-.85 4.049-.49 6.121l1.743 10.018c.943 5.417 2.062 10.834 2.833 16.279.347 2.452-1.81 4.441-4.16 3.277-.641-.318-1.27-.665-1.903-.996l-8.544-4.474c-5.212-2.729-10.388-5.543-15.642-8.19-2.1-1.058-3.855-.003-5.673.962l-8.308 4.412c-5.328 2.83-10.618 5.752-15.993 8.493-1.9.969-4.103-.37-4.415-2.434-.109-.721.075-1.462.195-2.173l1.435-8.54 3.199-19.041c.195-1.16.222-2.268-.526-3.286-.348-.476-.83-.876-1.25-1.285l-6.209-6.034-13.803-13.417c-.805-.782-1.45-1.661-1.421-2.856.038-1.648 1.197-2.842 2.77-3.076l7.187-1.07 20.27-3.014c1.906-.283 3.68-.597 4.651-2.542 1.016-2.034 1.996-4.087 2.994-6.13l9.139-18.709c.264-.54.514-1.092.794-1.625.41-.783 1.037-1.48 1.947-1.651 1.373-.26 2.658.595 3.287 1.77.129.24.98-.075.891-.24-1.011-1.887-3.245-2.424-5.138-1.558-1.002.459-1.593 1.259-2.06 2.213l-3.407 6.976-8.971 18.367c-.433.886-.805 1.788-1.744 2.274-.62.322-1.38.357-2.062.458l-8.953 1.332c-6.246.928-12.496 1.83-18.737 2.786-1.214.186-2.367.63-3.1 1.677-1.028 1.47-.765 3.328.46 4.578 1.458 1.489 2.993 2.91 4.487 4.362L39.7 107.13c.478.464.974.915 1.436 1.395.913.95 1.159 2.079.947 3.34l-1.239 7.372-3.426 20.39c-.096.57-.24 1.165-.255 1.746-.062 2.426 2.337 3.955 4.56 3.454.728-.164 1.36-.535 2.01-.88l3.04-1.615 19.185-10.188c.876-.464 1.752-.93 2.627-1.395.993-.527 2.019-.66 3.084-.123 1.978.998 3.928 2.057 5.891 3.085l18.666 9.772c.53.278 1.055.57 1.593.834 1.648.81 3.763.451 4.99-.961 1.47-1.69.592-4.184.25-6.148l-3.726-21.419-.62-3.56c-.147-.847-.355-1.68-.117-2.538.263-.948.926-1.538 1.59-2.19l2.527-2.486 15.447-15.19c1.315-1.294 3.465-2.811 3.53-4.821.06-1.896-1.346-3.302-3.135-3.597-.644-.106-1.294-.184-1.94-.277L95.65 78.138c-2.104-.3-4.225-.544-6.32-.903-2.238-.383-2.951-2.729-3.838-4.518L75.86 53.286l-2.218-4.475c-.12-.241-.978.064-.891.24"/>
        <path fill="#FFF" d="M26.56 26.296c-.81 1.148-1.17 4.191-1.17 4.191s-1.902-2.598-3.215-3.43c-1.345-.85-4.242-1.414-4.242-1.414s2.344-1.374 3.13-2.49c.788-1.117 1.6-4.22 1.6-4.22s1.506 2.141 2.851 2.992c1.185.75 4.336 1.491 4.336 1.491s-2.394 1.609-3.29 2.88"/>
        <path fill="#101820" d="M26.142 26.276c-.79 1.214-1.027 2.846-1.199 4.261l.86-.23c-.888-1.207-1.888-2.519-3.128-3.377-1.268-.877-2.981-1.25-4.473-1.545l.013.409c1.215-.718 2.645-1.597 3.398-2.826.744-1.215 1.136-2.718 1.497-4.086l-.86.231c.867 1.223 1.93 2.562 3.29 3.247 1.253.63 2.682.992 4.041 1.314l-.012-.409c-1.244.84-2.525 1.799-3.427 3.011-.253.339.647.293.835.04.825-1.107 2.02-1.982 3.155-2.749.174-.117.253-.346-.013-.409-1.302-.309-2.676-.648-3.876-1.252-1.308-.659-2.332-1.975-3.168-3.154-.178-.252-.791-.026-.86.231-.336 1.276-.707 2.634-1.35 3.79-.673 1.21-2.05 2.032-3.213 2.719-.18.105-.25.357.012.409 1.438.284 3.093.629 4.307 1.483 1.19.837 2.151 2.12 3.007 3.284.167.227.826.046.86-.231.164-1.36.382-2.956 1.14-4.12.235-.364-.663-.308-.836-.041"/>
        <path fill="#FFF" d="M87.623 18.519c-1.256.623-3.018 3.127-3.018 3.127s-.44-3.193-1.2-4.55c-.779-1.391-3.059-3.27-3.059-3.27s2.714-.09 3.936-.696c1.221-.606 3.409-2.947 3.409-2.947s.308 2.602 1.087 3.993c.686 1.225 3.106 3.381 3.106 3.381s-2.87.271-4.261.962"/>
        <path fill="#101820" d="M87.341 18.368c-1.3.71-2.31 2.065-3.153 3.258l.863-.1c-.204-1.46-.456-3.063-1.117-4.392-.687-1.383-2.004-2.518-3.175-3.489l-.468.449c1.444-.052 3.129-.161 4.411-.887 1.27-.718 2.359-1.879 3.35-2.936l-.807.031c.175 1.432.459 3.04 1.252 4.268.775 1.2 1.916 2.221 2.974 3.168l.468-.45c-1.507.148-3.114.384-4.498 1.026-.56.26-.052.602.363.41 1.237-.575 2.677-.768 4.024-.899.121-.012.706-.236.468-.449-1.019-.91-2.093-1.888-2.872-3.018-.834-1.21-1.112-2.857-1.288-4.295-.038-.314-.687-.097-.807.031-.877.936-1.818 1.914-2.89 2.624-1.123.745-2.725.792-4.037.84-.12.004-.71.248-.468.448 1.174.973 2.543 2.129 3.19 3.539.594 1.298.839 2.814 1.036 4.22.05.357.753.057.863-.099.77-1.087 1.694-2.348 2.881-2.996.526-.287-.25-.473-.563-.302"/>
        <path fill="#F26B6B" d="M60.06 24.722c.306.19.488.232.561.24.158-.219.26-1.026-.15-1.69-.495-.803-1.508-1.571-2.504-1.558.254 1.172 1.14 2.416 2.093 3.008zm-1.597 2.583c-1.53-.952-2.851-2.71-3.365-4.602a14.7 14.7 0 0 0-1.8 1.21 1.512 1.512 0 0 1-2.125-.272 1.522 1.522 0 0 1 .272-2.132c1.282-.994 2.514-1.723 3.724-2.2.598-1.64 1.395-3.116 2.367-4.387a1.512 1.512 0 0 1 2.125-.28c.663.511.788 1.465.279 2.131a12.56 12.56 0 0 0-1.222 1.954c1.886.277 3.494 1.592 4.33 2.944 1.103 1.787.967 4.19-.31 5.471a3.005 3.005 0 0 1-1.545.814c-.706.133-1.626.036-2.73-.65z"/>
        <path fill="#101820" d="M53.738 19.62c-1.29.697-4.024 1.956-3.181 3.853.296.668.966 1.066 1.687 1.077.985.016 1.669-.705 2.44-1.217.502-.334-.23-.638-.589-.4-.441.294-1.023.913-1.558.97-.758.082-1.302-.742-1.214-1.42.138-1.054 1.97-1.894 2.807-2.346.534-.288.052-.756-.392-.516"/>
        <path fill="#101820" d="M58.842 22.312c.733.453 1.957 1.606 1.352 2.597l.58-.275c-.856-.186-1.663-1.234-1.972-2-.388-.96-.25-2.002.058-2.965.289-.897.748-1.66 1.265-2.438.358-.54.689-1.153.54-1.825-.229-1.029-1.325-1.55-2.302-1.349-1.396.288-2.188 2.084-2.768 3.23-1.576 3.112-1.234 6.84 1.308 9.316 1.85 1.8 5.047 2.627 6.676.079 2.003-3.133-.569-6.832-3.571-7.999-.384-.15-1.04.404-.513.61 2.49.967 4.535 3.64 3.643 6.403-.41 1.272-1.5 2.163-2.884 1.936-1.477-.243-2.757-1.472-3.578-2.657-1.76-2.537-1.297-5.775.17-8.321.341-.59.83-1.64 1.493-1.898.719-.28 1.436.38 1.438 1.103.002.685-.496 1.215-.854 1.759a8.02 8.02 0 0 0-.86 1.785c-.426 1.23-.611 2.537-.03 3.747.452.936 1.39 1.915 2.435 2.142.222.048.468-.092.58-.276.743-1.219-.58-2.644-1.52-3.224-.339-.21-1.117.254-.686.52"/>
        <path fill="#F26B6B" d="M119.557 38.233c-.036.923.109 1.787.447 2.509.108.228.435.925 1.331.682.67-.181 1.304-.821 1.227-1.694-.03-.339-.159-.772-.894-1.116-.59-.276-1.352-.39-2.111-.38zm3.296 5.86c-.238.11-.482.199-.727.265-2.034.551-3.943-.36-4.864-2.322-.41-.875-.647-1.855-.716-2.887-.826.717-1.873 2.1-1.91 2.906-.005.13.014.146.065.189.64.54.722 1.499.183 2.14a1.512 1.512 0 0 1-2.135.185c-.782-.66-1.186-1.602-1.14-2.65.106-2.352 2.452-4.762 3.506-5.5.512-.36 1.135-.642 1.818-.845a12.532 12.532 0 0 1 1.501-3.376c1.85-2.915 4.528-4.584 7.35-4.577a1.517 1.517 0 0 1 1.512 1.523 1.518 1.518 0 0 1-1.52 1.517c-1.734-.005-3.524 1.18-4.785 3.169a9.644 9.644 0 0 0-.73 1.388c.97.065 1.905.276 2.688.642 1.556.728 2.491 2.007 2.632 3.603.194 2.208-1.137 3.892-2.728 4.63z"/>
        <path fill="#101820" d="M115.151 40.164c-.347.463-.711.962-.878 1.526-.143.484-.07.56.192.913.623.838.088 2.573-1.165 1.873-.677-.378-1.093-1.25-1.205-1.982-.371-2.426 1.88-5.126 3.865-6.25.522-.295-.241-.52-.571-.333-2.448 1.385-5.532 5.28-3.678 8.132.774 1.19 2.376 1.627 3.451.53.48-.488.669-1.223.408-1.87-.134-.333-.469-.535-.459-.89.015-.533.583-1.195.88-1.59.265-.352-.639-.327-.84-.06"/>
        <path fill="#101820" d="M120.981 35.618c2.087.413 3.962 1.682 4.154 3.965.184 2.193-1.402 4.328-3.62 4.602-2.524.311-4.01-1.961-4.408-4.167-.222-1.23.011-2.51.195-3.733.187-1.24.612-2.421 1.23-3.511 1.069-1.88 2.655-3.573 4.694-4.381.892-.353 2.686-.912 3.37.043.369.516.344 1.364-.213 1.754-.39.273-1.16.191-1.629.306-1.733.423-3.138 1.7-4.098 3.164-1.105 1.686-1.84 4.228-1.419 6.238.138.66.41 1.49 1.088 1.773.629.262 1.42.013 1.932-.393.577-.46.933-1.243.689-1.977-.304-.914-1.463-1.173-2.285-1.312-.408-.069-.918.5-.322.601.677.114 1.581.333 1.757 1.11.166.735-.673 1.947-1.425 1.261-.84-.767-.677-2.528-.516-3.513.42-2.55 1.833-5.525 4.512-6.332.87-.263 1.746-.054 2.471-.718.573-.525.782-1.357.436-2.072-.783-1.615-3.199-.975-4.487-.498-1.943.72-3.547 2.133-4.73 3.817-1.4 1.994-1.928 4.143-2.189 6.536-.23 2.109.396 4.632 2.23 5.895 1.501 1.033 3.512.918 5.054.039 1.777-1.014 2.844-2.962 2.545-5.021-.335-2.315-2.35-3.615-4.49-4.038-.349-.07-1.054.458-.526.562"/>
        <path fill="#F26B6B" d="M26.768 51.168c-.911-.135-1.783-.082-2.534.178-.239.083-.964.335-.819 1.255.108.686.675 1.387 1.548 1.404.34.006.782-.076 1.202-.773.336-.559.531-1.306.603-2.064zm-6.16 2.662a4.595 4.595 0 0 1-.186-.754c-.33-2.087.778-3.894 2.822-4.603.91-.315 1.907-.447 2.937-.405-.622-.9-1.882-2.093-2.676-2.214-.128-.02-.146-.003-.194.043-.604.58-1.563.56-2.142-.046a1.523 1.523 0 0 1 .045-2.148c.738-.71 1.714-1.013 2.75-.854 2.32.356 4.458 2.953 5.078 4.082.301.55.514 1.202.642 1.904a12.47 12.47 0 0 1 3.186 1.857c2.693 2.156 4.062 5.006 3.753 7.819a1.516 1.516 0 0 1-1.671 1.345 1.519 1.519 0 0 1-1.34-1.677c.188-1.73-.795-3.64-2.632-5.111a9.587 9.587 0 0 0-1.299-.876c-.167.96-.476 1.87-.922 2.612-.888 1.474-2.256 2.27-3.853 2.24-2.21-.042-3.737-1.549-4.298-3.214z"/>
        <path fill="#101820" d="M25.662 46.8c-.572-.538-1.583-1.535-2.47-1.17-.496.204-.398.687-1.287.28-.31-.143-.556-.483-.65-.8-.315-1.055.704-1.808 1.623-1.97 2.466-.435 5.11 2.441 5.995 4.506.15.35 1.031.085.892-.24-1.142-2.66-4.495-5.813-7.6-4.634-1.33.505-2.748 2.225-1.223 3.429.484.382 1.113.477 1.705.343.281-.064.736-.477.949-.481-.464.009.35.376.397.405.309.198.58.451.847.701.257.242 1.1-.11.822-.37M29.031 53.1c-.72 2.326-2.61 4.242-5.212 3.41-1.854-.592-3.127-2.543-2.992-4.48.183-2.62 2.842-3.802 5.198-3.618 2.306.18 4.702 1.103 6.504 2.546 1.75 1.4 3.163 3.325 3.571 5.567.155.853.443 2.911-.866 2.997-1.494.097-1.068-1.797-1.226-2.663-.351-1.926-1.848-3.626-3.483-4.61-1.615-.97-3.812-1.76-5.715-1.396-.602.115-1.319.316-1.666.874-.401.644-.147 1.513.351 2.028.493.51 1.271.721 1.952.515.93-.281 1.351-1.247 1.593-2.11.141-.506-.744-.517-.856-.116-.186.662-.531 1.864-1.452 1.563-.537-.176-1.137-1.035-.821-1.61.274-.497 1.128-.536 1.602-.548.803-.02 1.6.201 2.355.454 2.357.79 4.782 2.585 5.249 5.196.163.914-.177 1.84.57 2.568.54.525 1.358.667 2.061.417 1.84-.654 1.49-3.095 1.059-4.577-1.307-4.488-5.769-7.11-10.15-7.729-1.944-.274-4.318.251-5.667 1.77-1.234 1.392-1.366 3.405-.56 5.042a4.996 4.996 0 0 0 4.964 2.774c2.313-.226 3.835-2.022 4.493-4.146.156-.503-.732-.516-.856-.117"/>
        <path fill="#41BC98" d="M123.135 63.935l-3.915-3.402a.597.597 0 0 1-.059-.84l5.867-6.757a.592.592 0 0 1 .822-.07l4.034 3.288c.261.212.294.6.073.853l-5.986 6.87a.592.592 0 0 1-.836.058"/>
        <path fill="#101820" d="M128.632 57.941l-3.835 4.417c-.274.315-.937 1.382-1.326 1.31-.198-.037-.543-.472-.684-.595l-1.403-1.218c-.401-.349-2.092-1.367-1.836-2.042.203-.536.997-1.148 1.366-1.573l2.499-2.877 1.089-1.255c.219-.252.463-.663.741-.854.232-.16.169-.151.422.02.449.303.857.724 1.27 1.074.8.675 1.598 1.35 2.397 2.027.308.26 1.082-.187.686-.522l-2.532-2.14c-.646-.547-1.516-1.661-2.48-1.18-.65.325-1.178 1.219-1.635 1.745l-2.772 3.192c-.586.676-1.29 1.334-1.799 2.072-.626.908.32 1.463.934 1.997.948.823 1.871 1.69 2.85 2.476.728.583 1.396.403 1.984-.261 1.622-1.83 3.208-3.695 4.812-5.542.37-.426-.478-.582-.748-.27"/>
        <path fill="#41BC98" d="M46.158 40.762l-4.239 1.492c-.268.095-.574-.08-.682-.392L38.303 33.4c-.105-.303.017-.624.275-.726l4.198-1.652c.271-.107.588.069.698.387l2.974 8.622c.107.31-.022.636-.29.73"/>
        <path fill="#101820" d="M43.484 32.887l1.81 5.225c.225.646.587 1.356.706 2.033.094.537-.096.53-.51.675l-1.61.567-1.49.525c-.115.04-.363.187-.492.173-.222-.023-.14-.072-.222-.361-.183-.64-.44-1.268-.657-1.896l-2.13-6.145c-.075-.216-.287-.68-.13-.885.15-.195.91-.336 1.123-.415l2.938-1.086c.592-.219.038-.373-.318-.241l-3.016 1.114c-.683.253-1.792.424-1.618 1.379.137.757.537 1.55.789 2.276l1.339 3.862c.252.729.43 1.592.789 2.276.45.86 1.356.39 2.055.144 1.115-.393 2.278-.727 3.368-1.186.848-.357.73-.878.481-1.597l-2.314-6.676c-.08-.233-.964.03-.891.24"/>
        <path fill="#41BC98" d="M86.902 41.115l-4.315-1.255c-.273-.08-.42-.401-.328-.717l2.514-8.597c.09-.308.375-.498.644-.43l4.374 1.1c.283.072.439.4.344.723l-2.574 8.75c-.092.315-.387.505-.66.426"/>
        <path fill="#101820" d="M89.273 33.365l-1.529 5.227c-.173.593-.268 1.613-.623 2.13-.16.234.147.048-.058.116-.085.028-.316-.092-.407-.119l-1.727-.502c-.623-.181-2.247-.29-2.219-1.149.02-.58.38-1.298.542-1.85l1.81-6.191c.016-.054.175-.672.126-.644.168-.094 1.02.279 1.206.33.98.27 1.96.538 2.941.807.287.078 1.047-.352.545-.49l-3.1-.849c-.83-.228-1.933-.665-2.425.365-.302.632-.426 1.417-.621 2.086l-1.144 3.911c-.247.843-.628 1.743-.765 2.613-.153.98.84 1.05 1.557 1.258 1.053.307 2.155.761 3.237.942.924.155 1.313-.469 1.533-1.222l2.012-6.88c.093-.318-.802-.195-.891.11"/>
        <path fill="#41BC98" d="M11.594 65.946l-3.318 3.038c-.21.193-.56.151-.78-.093l-6.004-6.633c-.215-.238-.229-.58-.03-.776l3.216-3.17c.208-.204.568-.167.794.083l6.104 6.765c.219.243.227.594.018.786"/>
        <path fill="#101820" d="M6.005 59.631l3.707 4.096c.437.483 1.11 1.01 1.43 1.581.438.78-1.12 1.707-1.626 2.17L8.42 68.482c-.089.08-.267.323-.386.353-.245.063.06.048-.135-.125-.47-.42-.87-.962-1.292-1.428l-4.384-4.844c-.222-.246-.56-.531-.389-.913.138-.305.693-.654.931-.88l2.22-2.097c.359-.339-.516-.274-.702-.099l-2.28 2.154c-.541.512-1.455 1.041-.898 1.851.47.683 1.165 1.288 1.719 1.9L5.56 67.38c.485.536.95 1.218 1.515 1.674.81.654 1.544-.014 2.147-.566.867-.794 1.788-1.555 2.613-2.393.6-.61.198-1.054-.262-1.562L6.838 59.3c-.183-.203-1.03.114-.833.331"/>
        <path fill="#9B9B9B" d="M52.377 48.886a2.731 2.731 0 0 1-2.727 2.735 2.731 2.731 0 0 1-2.727-2.735 2.731 2.731 0 0 1 2.727-2.736 2.731 2.731 0 0 1 2.727 2.736"/>
        <path fill="#101820" d="M49.496 46.48c2.365.106 3.461 3.504 1.124 4.61-1.073.507-2.347-.025-2.917-1.022-.6-1.048-.323-2.283.515-3.097.399-.388-.46-.551-.748-.27-2.46 2.392.218 6.243 3.33 5.017 3.117-1.228 2.316-5.747-.997-5.897-.438-.02-.908.631-.307.658"/>
        <path fill="#9B9B9B" d="M103.354 55.33a2.731 2.731 0 0 1-2.728 2.736A2.731 2.731 0 0 1 97.9 55.33c0-1.511 1.221-2.736 2.727-2.736a2.731 2.731 0 0 1 2.728 2.736"/>
        <path fill="#101820" d="M100.337 52.775c2.398.108 3.62 3.464 1.423 4.827-1.151.714-2.62-.092-3.153-1.219-.513-1.083-.228-2.316.616-3.138.18-.175-.65-.08-.805.071-1.087 1.056-1.315 2.725-.298 3.928.893 1.055 2.373 1.207 3.611.749 1.22-.452 2.127-1.561 2.063-2.907-.076-1.574-1.383-2.603-2.878-2.67-.19-.01-1.012.34-.58.36"/>
        <path fill="#9B9B9B" d="M7.045 39.281a2.731 2.731 0 0 1-2.727 2.736 2.731 2.731 0 0 1-2.727-2.736 2.731 2.731 0 0 1 2.727-2.735 2.731 2.731 0 0 1 2.727 2.735"/>
        <path fill="#101820" d="M4.037 36.758c2.315.104 3.62 3.302 1.505 4.716-1.172.783-2.688.021-3.243-1.14-.519-1.085-.219-2.298.622-3.115.225-.218-.64-.148-.818.026C1.01 38.308.803 40 1.815 41.207c.881 1.05 2.386 1.245 3.62.78 3.026-1.141 2.44-5.505-.836-5.653-.23-.01-1.027.403-.562.424"/>
        <path fill="#FFF" d="M41.523 12.779a2.731 2.731 0 0 1-2.727 2.735 2.731 2.731 0 0 1-2.728-2.735 2.731 2.731 0 0 1 2.728-2.735 2.731 2.731 0 0 1 2.727 2.735"/>
        <path fill="#101820" d="M38.506 10.223c2.398.108 3.62 3.465 1.423 4.828-1.15.714-2.619-.093-3.152-1.22-.513-1.083-.23-2.316.616-3.137.18-.175-.65-.08-.806.07-1.087 1.057-1.315 2.726-.297 3.929.892 1.055 2.372 1.206 3.61.748 1.22-.452 2.127-1.561 2.063-2.906-.076-1.574-1.382-2.604-2.878-2.671-.189-.009-1.012.34-.58.36"/>
        <path fill="#FFF" d="M135.105 80.292a2.731 2.731 0 0 1-2.728 2.736 2.731 2.731 0 0 1-2.727-2.736 2.731 2.731 0 0 1 2.727-2.735 2.731 2.731 0 0 1 2.728 2.735"/>
        <path fill="#101820" d="M139.175 49.801c2.31.104 3.525 3.133 1.641 4.672-1.17.955-2.803.126-3.372-1.07-.516-1.087-.227-2.313.618-3.133.19-.185-.649-.095-.809.061-1.088 1.058-1.31 2.733-.295 3.935.89 1.054 2.376 1.215 3.613.755 3.03-1.127 2.454-5.445-.82-5.593-.197-.009-1.015.353-.576.373"/>
        <path fill="#FFF" d="M9.1 83.903a2.731 2.731 0 0 1-2.726 2.735 2.731 2.731 0 0 1-2.728-2.735 2.731 2.731 0 0 1 2.728-2.735A2.731 2.731 0 0 1 9.1 83.903"/>
        <path fill="#9B9B9B" d="M74.045 3.503a2.731 2.731 0 0 1-2.727 2.735 2.731 2.731 0 0 1-2.727-2.735A2.731 2.731 0 0 1 71.318.767a2.731 2.731 0 0 1 2.727 2.736"/>
        <path fill="#101820" d="M71.145 1.025c2.352.106 3.448 3.455 1.272 4.703-1.148.658-2.582-.061-3.118-1.173-.5-1.036-.24-2.237.571-3.025.373-.363-.5-.364-.716-.154-1.092 1.062-1.378 2.719-.407 3.973.864 1.115 2.42 1.404 3.7.906 1.27-.494 2.16-1.729 2.032-3.121-.144-1.57-1.5-2.557-2.989-2.624-.345-.016-.945.488-.345.515"/>
        <path fill="#FFF" d="M108.253 19.527a2.731 2.731 0 0 1-2.727 2.735 2.731 2.731 0 0 1-2.728-2.735 2.731 2.731 0 0 1 2.728-2.736 2.731 2.731 0 0 1 2.727 2.736"/>
        <path fill="#101820" d="M105.24 16.99c2.351.105 3.585 3.3 1.513 4.743-1.164.81-2.7-.006-3.246-1.153-.518-1.086-.223-2.307.62-3.126.205-.2-.646-.117-.814.046-1.09 1.06-1.306 2.742-.292 3.947.886 1.052 2.38 1.228 3.616.766 1.223-.457 2.12-1.587 2.056-2.93-.076-1.57-1.386-2.622-2.883-2.69-.212-.009-1.02.376-.57.396"/>
        <path fill="#101820" stroke="#101820" stroke-width="1.2" d="M79.493 107.129c-1.15-2.289-3.393-4.266-5.848-4.972-3.025-.87-6.618.193-8.836 2.428-.225.227-1.117.084-.806-.23 2.369-2.386 6.148-3.495 9.41-2.825 2.915.599 5.622 2.76 6.964 5.43.171.34-.733.471-.884.169M67.008 94.775c-.183.465-.499.939-.912 1.225-.772.534-1.674.075-2.21-.574-.204-.247-1.094-.12-.805.23 1.401 1.698 4 1.352 4.81-.711.145-.367-.762-.48-.883-.17M80.441 92.85c-.183.466-.498.94-.911 1.225-.772.534-1.674.075-2.21-.574-.204-.247-1.095-.12-.806.23 1.402 1.698 4 1.352 4.812-.71.144-.368-.763-.48-.885-.17"/>
    </g>
</svg>
