<svg xmlns="http://www.w3.org/2000/svg" width="135" height="139" viewBox="0 0 135 139">
    <g fill="none" fill-rule="evenodd">
        <path fill="#EEE" d="M2.159 127.178c-1.061 1.03-2.02 2.266-1.949 4.236.153 4.188 5.645 5.183 7.891 5.58 3.979.703 7.966.587 11.965.778 14.524.693 58.37 1.108 65.827.607 6.55-.441 15.059-.109 21.268-3.432 3.726-1.994 16.377-12.617 18.095-16.73 3.012-7.21-7.509-8.614-10.403-9.4-11.38-3.094-23.12-3.627-34.7-4.07-11.783-.448-23.602-.137-35.34 1.507C30.1 108.315 14.36 114.86 2.327 127.02l-.167.159"/>
        <path fill="#AA7637" d="M33.274 114.973h87.291V55.137h-87.29z"/>
        <path fill="#AA7637" d="M33.404 55.137L11.96 73.403v59.836l21.444-12.998V55.137"/>
        <path fill="#000" d="M33.012 55.05L14.204 71.072l-2.636 2.246c-.428.364.534.385.784.172l18.808-16.02 2.636-2.246c.428-.365-.534-.385-.784-.172M33.891 72.414V57.175c0-.412-.974-.21-.974.119v15.238c0 .412.974.21.974-.118"/>
        <path fill="#000" d="M39.191 54.795h-5.668c-.544 0-.757.683-.094.683h5.668c.544 0 .757-.683.094-.683M76.42 54.795H49.704c-.545 0-.757.683-.095.683h26.716c.545 0 .758-.683.095-.683M120.613 54.795H86.5c-.544 0-.757.683-.094.683h34.112c.545 0 .757-.683.095-.683"/>
        <path fill="#FFF" d="M83.55 119.614c1.517.586 3.022 1.212 4.537 1.786 2.62.993 5.27 1.831 8.068 2.042 1.335.1 3.775.266 3.635-1.8-.113-1.656-1.923-1.226-3.015-2.02-4.51-3.282-2.552-12.39-2.666-17.088-.148-6.102-.567-12.21-1.564-18.237-.981-5.932-3.281-11.468-4.93-17.217-1.463-5.095-2.604-10.264-4.324-15.277-.253-.737-1.198-.936-1.74-.377-.687.711-1.506 1.443-1.793 1.775-1.082 1.252-2.197 2.483-3.248 3.761-.82.998-1.528 2.26-2.642 2.96-.946.594-1.912.207-3.066.204-5.779-.017-11.552.011-17.332-.07-1.364-.018-2.396-1.598-3.194-2.496a345.289 345.289 0 0 0-6.739-7.35.421.421 0 0 0-.694.125c-2.886 6.931-4.623 14.119-6.723 21.28-2.151 7.339-3.24 14.973-3.172 22.622.057 6.343 1.372 12.546 1.545 18.872.039 1.395.074 3.177-1.313 4.027-1.15.704-4.341-.576-3.83 1.937.355 1.737 5.242 2.125 6.643 2.305 2.124.272 4.297-.07 6.478-.667l41.078-1.097"/>
        <path fill="#000" d="M89.69 72.025c-1.098-3.346-2.064-6.72-2.96-10.124-.461-1.747-.919-3.495-1.41-5.234-.457-1.62-.812-3.475-1.542-4.995-1.077-2.242-3.65.675-4.463 1.558a72.272 72.272 0 0 0-3.342 3.879c-.416.522-.79 1.078-1.214 1.595-.246.3-.51.615-.819.852-.598.46-1.28.48-1.993.414-1.705-.16-3.454-.059-5.165-.06-1.838-.001-3.676-.002-5.514-.007a761.888 761.888 0 0 1-5.515-.032c-.812-.008-1.824.13-2.584-.171-.614-.243-1.095-.748-1.525-1.234-2.177-2.457-4.355-4.908-6.599-7.307-.64-.686-1.321-1.755-2.357-1.07-.351.232-.452.63-.604 1.007-.266.662-.52 1.329-.767 1.998-2.367 6.423-4.09 13.065-5.973 19.64-.064.222.888.096.962-.163 1.587-5.542 3.076-11.115 4.904-16.584a97.318 97.318 0 0 1 1.451-4.073c.109-.282.218-.563.33-.844.02-.05.339-.77.088-.69.188-.06 1.61 1.717 1.836 1.96a343.403 343.403 0 0 1 3.367 3.675c.946 1.048 1.825 2.198 2.824 3.195.93.928 1.762 1.054 3.036 1.069 1.707.02 3.415.031 5.122.038 3.479.014 6.958.008 10.438.016 1.185.003 2.478.317 3.639.004 1.061-.285 1.84-1.096 2.497-1.935 1.822-2.329 3.705-4.566 5.804-6.65.95-.942 1.274.497 1.53 1.284.3.92.583 1.846.855 2.776a212.822 212.822 0 0 1 1.482 5.413c.98 3.718 2.009 7.407 3.206 11.061.08.243 1.048-.037.974-.26"/>
        <path fill="#000" d="M53.292 68.838a1.512 1.512 0 1 1-3.023-.042 1.512 1.512 0 0 1 3.023.042M73.873 68.788a1.512 1.512 0 1 1-3.023-.042 1.512 1.512 0 0 1 3.023.042M61.748 72.285l-.018 1.213c-.003.231.97.074.974-.261l.017-1.213c.004-.232-.969-.075-.973.26"/>
        <path fill="#000" d="M62.105 72.788l-1.61-.948c-.182-.106-.104-.383.105-.38l3.29.045c.211.003.28.285.094.385l-1.679.902a.204.204 0 0 1-.2-.004M49.458 70.277h4.223c.324 0 1.047-.487.396-.487h-4.223c-.324 0-1.046.487-.396.487M70.031 70.25h4.223c.29 0 1.056-.432.41-.432h-4.222c-.29 0-1.056.431-.41.431"/>
        <path fill="#FFF" d="M97.576 73.119c1.694-.67 2.15-3.178.726-4.327-.753-.609-1.841-.598-2.775-.34-1.834.508-3.38 1.907-4.137 3.645-.37.851-.452 1.858-.627 2.766-.157.81-.166 1.632-.104 2.452.067.886.383 1.909 1.226 2.193.564.19 1.217-.045 1.612-.49.396-.444.556-1.062.539-1.656-.02-.644.13-.976.271-1.604.2-.893.824-1.68 1.647-2.08.515-.25 1.09-.349 1.622-.56"/>
        <path fill="#000" d="M98.757 72.64c1.81-1.882.58-4.667-2.015-4.588-2.54.078-4.797 1.877-5.836 4.118-.106.229.837.137.968-.145.837-1.806 2.78-3.761 4.948-3.456 2.05.29 2.294 2.79 1.04 4.095-.247.256.703.175.895-.023"/>
        <path fill="#BD8849" d="M99.121 73.78c-2.808 4.502-6.044 9.223-8.055 13.089-1.218 2.34-3.514 2.993-6.008 2.999l-73.499.174v42.739h87.562v-63 4z"/>
        <path fill="#BD8849" d="M120.565 80.924l-7.12 6.826c-2.449.982-5.251.2-6.836-1.909l-7.488-9.959v57.357l21.444-17.957V80.924"/>
        <path fill="#000" d="M98.635 76.09v55.046c0 .3.973.118.973-.26v-18.607-29.647-6.793c0-.3-.973-.118-.973.26"/>
        <path fill="#000" d="M120.07 80.459v32.472c0 .678-.082 1.415 0 2.089.006.045.006.531.083.155.048-.237.002-.052-.192.093-1.774 1.331-3.426 2.869-5.125 4.292l-14.768 12.367c-.1.084-1.28.927-1.252 1.048-.038-.16.635-.08-.02-.117-1.054-.058-2.128 0-3.183 0H11.596l.458.35v-14.011-22.345-5.145c0-.534-.99-.411-.99.06V133.27c0 .258.233.35.459.35H97.786c.539 0 1.225.126 1.7-.166.486-.299.923-.773 1.359-1.138l2.892-2.422 8.046-6.737 7.15-5.988c.632-.53 2.053-1.278 2.127-2.17.156-1.855 0-3.791 0-5.652V99.231 81.448v-1.05c0-.535-.99-.411-.99.06"/>
        <path fill="#BD8849" d="M99.121 73.403H11.963L2.6 88.589a1.08 1.08 0 0 0 .93 1.628h84.234c.891 0 1.716-.471 2.169-1.238l9.187-15.576"/>
        <path fill="#000" d="M99.312 73.131H12.75c-.427 0-.914-.066-1.24.267-.245.248-.417.675-.598.969L9.48 76.69 2.523 87.975c-.21.34-.506.716-.555 1.122-.101.858.643 1.342 1.4 1.391.4.026.81 0 1.212 0h81.912c.358 0 .719.01 1.077 0 1.722-.049 2.577-1.094 3.362-2.426l6.91-11.713 1.733-2.939c.227-.385-.745-.286-.905-.015l-6.623 11.227c-.845 1.433-1.623 2.945-2.552 4.326-.7 1.043-1.426.997-2.429.997H5.96c-.68 0-1.377.045-2.055 0-1.752-.114-.572-1.8-.107-2.554 2.645-4.29 5.29-8.58 7.934-12.872l.684-1.109-.643.264H88.17c3.524 0 7.083.144 10.604 0 .052-.002.105 0 .157 0 .36 0 1.036-.543.381-.543"/>
        <path fill="#BD8849" d="M120.565 55.137L99.121 73.403l11.972 11.568c.307.307.74.37 1.118.084l19.38-17.115c.366-.365.78-1.097.332-1.545l-11.358-11.258"/>
        <path fill="#000" d="M120.174 55.052l-18.808 16.02-2.636 2.245c-.074.063-.148.193-.06.278l9.765 9.437c.978.945 2.52 3.22 4.08 2.174.915-.614 1.722-1.509 2.545-2.236l12.469-11.01 4.122-3.64c.448-.396.991-.892.954-1.545-.031-.537-.578-.917-.931-1.267l-10.657-10.564c-.247-.245-1.17.121-.903.385l9.222 9.141 1.812 1.797c.515.51.583 1.038-.023 1.654-.958.973-2.073 1.83-3.096 2.734l-12.011 10.607-3.866 3.413c-.324.286-.31.347-.689.025-.517-.439-.986-.953-1.474-1.424L99.573 73.21l-.06.278 18.808-16.02 2.636-2.246c.428-.364-.535-.383-.783-.17"/>
        <path fill="#101820" d="M95.369 71.791c2.212-12.633 2.797-25.481 4.57-38.174.04-.29-.928-.112-.965.154-1.773 12.693-2.358 25.54-4.57 38.174-.05.282.918.116.965-.154"/>
        <path fill="#41BC98" d="M128.065 40.445s-55.27-1.792-55.854-3.584c-1.552-4.765 1.4-32.64 2.472-34.73C75.7.149 136.197-1.683 134.124 4.704c-1.614 4.976-6.059 35.742-6.059 35.742"/>
        <text fill="#000" font-family="EuphemiaUCAS, Euphemia UCAS" font-size="13.709" transform="rotate(2 101.806 17.27)">
            <tspan x="80.306" y="23.269">uh!-oh!</tspan>
        </text>
        <path fill="#101820" d="M128.26 40.19c-4.121-.134-8.242-.289-12.363-.451-8.172-.323-16.343-.68-24.508-1.15-3.628-.208-7.256-.434-10.877-.739-2.272-.19-4.593-.337-6.83-.8-.384-.079-.894-.185-1.006-.389-.222-.405-.223-1.077-.27-1.525a27.596 27.596 0 0 1-.13-2.121c-.121-4.261.185-8.544.522-12.79.343-4.31.773-8.62 1.365-12.904.193-1.395.386-2.798.69-4.175.075-.34.182-.663.275-.996.02-.067-.099-.016.1-.064 1.41-.344 3.407-.575 5.057-.723 3.205-.288 6.421-.451 9.636-.577 8.095-.318 16.214-.378 24.311-.063 3.598.14 7.2.35 10.777.784 2.343.284 4.844.57 7.042 1.487.524.218 1.212.516 1.506 1.041.306.547-.064 1.208-.202 1.756-.832 3.315-1.367 6.716-1.94 10.082-1.31 7.692-2.482 15.407-3.614 23.126-.074.505-.148 1.009-.22 1.513-.05.344.925.17.97-.135a1176.88 1176.88 0 0 1 2.871-18.813c.68-4.227 1.37-8.456 2.198-12.656.253-1.283.502-2.576.859-3.836.16-.57.298-1.01-.095-1.518-.997-1.29-3.352-1.628-4.822-1.925-3.098-.627-6.27-.901-9.42-1.12C111.872-.07 103.554-.08 95.27.12 89.116.27 82.792.32 76.7 1.308c-.633.102-1.317.195-1.91.452-.56.241-.677.58-.822 1.154-.806 3.197-1.067 6.59-1.424 9.857-.514 4.708-.92 9.434-1.137 14.165-.091 1.98-.154 3.965-.114 5.947.025 1.23-.044 2.708.367 3.89.356 1.022 2.617.983 3.49 1.093 2.96.375 5.94.587 8.915.795 8.372.587 16.758.971 25.142 1.328 5.913.252 11.828.48 17.743.68l.92.03c.342.011 1.043-.488.39-.509"/>
        <path fill="#000" d="M108.668 34.03c.622-1 1.816.556.937.985-.577.282-1.34-.34-.937-.986M111.966 32.759c.623-.999 1.817.557.938.986-.577.282-1.34-.34-.938-.986M111 33.514c.256-.111.403-.445.362-.731a.844.844 0 0 0-.482-.63c-.335-.157-.879.008-1.004.45-.178.63.633 1.126 1.124.911M113.14 34.415c-.264-.05-.516.334-.517.602a.682.682 0 0 0 .47.646.465.465 0 0 0 .38-.032c.207-.126.263-.444.177-.67a1.238 1.238 0 0 0-.408-.506.29.29 0 0 0-.101-.04M111.957 34.971c.091.273.409.375.525.636.128.285-.045.663-.305.845-.26.181-.576.211-.875.217-.808.015-1.725-.648-1.087-1.594.177-.262.698-.796.978-.88.58-.176.624.359.764.776"/>
    </g>
</svg>
