<svg xmlns="http://www.w3.org/2000/svg" width="24" height="24" viewBox="0 0 24 24">
    <g fill="#000" fill-rule="nonzero">
        <path stroke="#FFF" stroke-width=".5" d="M12 1C5.916 1 1 5.916 1 12s4.916 11 11 11 11-4.916 11-11S18.084 1 12 1zm0 20.625c-5.294 0-9.625-4.331-9.625-9.625S6.706 2.375 12 2.375 21.625 6.706 21.625 12 17.328 21.625 12 21.625z"/>
        <path d="M12.619 8.563h-3.61l2.785-2.785-.963-.962L6.397 9.25l4.778 4.778.962-.962L9.01 9.937h3.61a3.448 3.448 0 0 1 3.437 3.438 3.448 3.448 0 0 1-3.437 3.438h-.963v1.375h.963a4.827 4.827 0 0 0 4.812-4.813 4.827 4.827 0 0 0-4.812-4.813z"/>
    </g>
</svg>