<svg xmlns="http://www.w3.org/2000/svg" width="24" height="24" viewBox="0 0 24 24">
    <g fill="none" fill-rule="nonzero">
        <path fill="#000" stroke="#FFF" stroke-width=".5" d="M12 1C5.916 1 1 5.916 1 12s4.916 11 11 11 11-4.916 11-11S18.084 1 12 1zm0 20.625c-5.294 0-9.625-4.331-9.625-9.625S6.706 2.375 12 2.375 21.625 6.706 21.625 12 17.328 21.625 12 21.625z"/>
        <path stroke="#000" stroke-width=".7" d="M12 18a.334.334 0 0 1-.086-.012C9.893 17.428 7.5 14.182 7.5 12V7.397c0-.207.155-.375.346-.375.647 0 1.608-.285 2.823-.647.388-.115.802-.238 1.243-.363a.325.325 0 0 1 .177 0c.405.117.789.232 1.15.34 1.247.375 2.231.67 2.915.67.191 0 .346.168.346.375V12c0 2.262-1.976 5.44-4.43 5.992A.323.323 0 0 1 12 18z"/>
        <path fill="#000" d="M11.654 13.875a.333.333 0 0 1-.245-.11l-1.385-1.5a.397.397 0 0 1 0-.53.327.327 0 0 1 .49 0l1.123 1.216 2.18-2.698a.327.327 0 0 1 .488-.036.397.397 0 0 1 .033.53l-2.423 3a.335.335 0 0 1-.25.127h-.011z"/>
    </g>
</svg>
