<svg xmlns="http://www.w3.org/2000/svg" width="14" height="14" viewBox="0 0 14 14">
    <g fill="none" fill-rule="nonzero">
        <path fill="#000" d="M13.59 0H.41A.41.41 0 0 0 0 .41v13.18c0 .226.184.41.41.41h13.18a.41.41 0 0 0 .41-.41V.41a.41.41 0 0 0-.41-.41zM6.092.82h1.816v2.695H6.092V.82zm7.088 12.36H.82V.82h4.452v3.105c0 .226.184.41.41.41h2.636a.41.41 0 0 0 .41-.41V.82h4.452v12.36z"/>
        <path fill="#939393" d="M9.636 7.249h-5.6l.618-.618a.41.41 0 1 0-.58-.58L2.756 7.369a.41.41 0 0 0 0 .58l1.318 1.318a.409.409 0 0 0 .58 0 .41.41 0 0 0 0-.58l-.618-.618h5.6a.909.909 0 0 1 0 1.816H7a.41.41 0 0 0 0 .82h2.636a1.73 1.73 0 0 0 1.728-1.728 1.73 1.73 0 0 0-1.728-1.728z"/>
    </g>
</svg>
