<svg xmlns="http://www.w3.org/2000/svg" xmlns:xlink="http://www.w3.org/1999/xlink" width="63" height="68" viewBox="0 0 63 68">
    <defs>
        <path id="a" d="M1.883.185a.837.837 0 0 0-.698.358c-.008.013-.25.374-.5.846a6.714 6.714 0 0 0-.357.777 3.514 3.514 0 0 0-.13.422 2.013 2.013 0 0 0-.06.457v-.003.008c0 .383.113.72.248 1.012.204.437.465.8.647 1.115.09.157.163.299.208.42a.854.854 0 0 1 .064.296v.014-.002c.002.056-.04.234-.13.431-.133.3-.355.653-.542.917a8.662 8.662 0 0 1-.307.411l-.018.022-.004.005c-.273.33-.202.8.159 1.05a.865.865 0 0 0 .493.152.845.845 0 0 0 .653-.297c.012-.014.313-.379.629-.872.158-.247.32-.525.452-.821.13-.297.24-.607.25-.967v-.002l.001-.041a2.4 2.4 0 0 0-.247-1.01c-.205-.438-.465-.8-.647-1.115a2.797 2.797 0 0 1-.209-.42.86.86 0 0 1-.063-.296V3.05c0-.02.005-.073.021-.144a2.85 2.85 0 0 1 .172-.476 7.78 7.78 0 0 1 .555-1.013l.044-.069.01-.016.003-.004c.236-.353.116-.815-.27-1.031a.87.87 0 0 0-.427-.111z"/>
    </defs>
    <g fill="none" fill-rule="evenodd">
        <path fill="#F2F2F2" d="M50.68 62.747c0 1.584-.151 4.133-17 4.133-17 0-17-2.549-17-4.133 0-1.583 7.611-2.867 17-2.867s17 1.284 17 2.867"/>
        <path fill="#E6E6E6" d="M50.95 63.286h-.73c0 .18-.004.334-.029.47a1.013 1.013 0 0 1-.12.333 1.294 1.294 0 0 1-.269.321c-.23.207-.63.454-1.292.695-.992.363-2.563.707-4.952.952-2.389.246-5.596.397-9.878.397-4.3 0-7.516-.15-9.908-.393-1.794-.183-3.125-.42-4.095-.68-.728-.194-1.252-.402-1.616-.6a2.486 2.486 0 0 1-.581-.413 1.029 1.029 0 0 1-.293-.494c-.042-.162-.048-.352-.047-.588h-.26l.248.077a.248.248 0 0 0 .012-.077h-.26l.248.077-.126-.04.113.07.013-.03-.126-.04.113.07.018-.02c.048-.055.224-.184.506-.31.494-.228 1.294-.47 2.31-.682 1.527-.322 3.551-.592 5.895-.78a99.245 99.245 0 0 1 7.836-.295c4.737 0 9.027.3 12.097.78 1.532.238 2.764.525 3.558.819.395.144.68.295.815.4a.705.705 0 0 1 .073.064l.02.023.002.001.175-.107h-.2a.225.225 0 0 0 .025.107l.175-.107h-.2 1.46a1.203 1.203 0 0 0-.203-.658 1.785 1.785 0 0 0-.398-.423c-.282-.22-.617-.391-1.015-.552-.696-.28-1.592-.518-2.675-.733-1.623-.32-3.662-.579-5.992-.76-2.33-.179-4.948-.28-7.717-.28-4.802 0-9.146.302-12.327.798-1.592.249-2.89.542-3.844.893-.478.178-.872.365-1.197.61a1.82 1.82 0 0 0-.429.447c-.118.18-.204.412-.203.658 0 .186-.002.428.043.705.039.243.118.515.266.784.129.236.31.467.542.68.41.376.972.699 1.749.985 1.167.428 2.834.78 5.304 1.035 2.47.254 5.74.405 10.096.405 4.297 0 7.538-.15 9.996-.401 1.843-.189 3.245-.434 4.329-.722.812-.217 1.446-.458 1.95-.727.38-.202.686-.42.931-.66.37-.355.59-.763.69-1.137.104-.374.103-.705.104-.947h-.73"/>
        <path fill="#E6E6E6" d="M61.68 60.38c0 1.933-12.312 3.5-27.5 3.5s-27.5-1.567-27.5-3.5 12.312-3.5 27.5-3.5 27.5 1.567 27.5 3.5"/>
        <path fill="#CCC" d="M61.951 60.38h-.728.239l-.223-.094a.272.272 0 0 0-.016.094h.239l-.223-.094.096.04-.09-.056-.006.016.096.04-.09-.056v.001a.723.723 0 0 1-.169.154c-.205.152-.593.347-1.12.534-.924.332-2.271.656-3.94.944-2.506.433-5.743.793-9.463 1.043-3.72.25-7.923.391-12.373.391-7.643 0-14.564-.417-19.546-1.086-2.488-.333-4.496-.733-5.833-1.158-.667-.21-1.168-.433-1.444-.617a.989.989 0 0 1-.236-.197l-.006-.01-.174.111h.196a.247.247 0 0 0-.022-.11l-.174.11h.196-.239l.224.094a.272.272 0 0 0 .015-.094h-.239l.224.094-.097-.04.09.056.007-.016-.097-.04.09.056-.005-.003.005.003-.005-.003.005.003c0-.003.046-.064.15-.141.194-.149.575-.345 1.096-.532.914-.333 2.257-.66 3.925-.95 2.504-.436 5.747-.798 9.477-1.05 3.73-.252 7.95-.394 12.417-.394 7.643 0 14.564.417 19.546 1.086 2.488.333 4.496.733 5.834 1.159.666.21 1.167.433 1.443.616.139.09.217.17.236.197l.006.01.174-.111h-.196a.25.25 0 0 0 .022.11l.174-.11h-.196 1.457c0-.167-.033-.333-.088-.478a1.717 1.717 0 0 0-.476-.667c-.365-.322-.823-.557-1.402-.786-1.008-.395-2.386-.74-4.1-1.05-2.567-.464-5.88-.842-9.7-1.107-3.821-.263-8.148-.412-12.734-.412-7.695 0-14.659.418-19.729 1.098-2.537.341-4.596.745-6.069 1.212-.739.236-1.33.481-1.793.783-.231.153-.435.32-.606.544-.084.111-.16.239-.215.385a1.36 1.36 0 0 0 0 .956c.11.284.284.493.476.667.365.322.824.557 1.402.786 1.008.395 2.386.74 4.1 1.05 2.567.464 5.88.842 9.7 1.107 3.821.263 8.148.412 12.734.412 7.695 0 14.659-.418 19.729-1.098 2.537-.341 4.596-.745 6.07-1.212.738-.236 1.329-.481 1.792-.783.232-.153.436-.32.606-.544.084-.111.16-.239.215-.385.055-.145.088-.31.088-.478h-.729"/>
        <path fill="#CAF4FF" d="M51.988 59.88H16.372c-.93 0-1.692-.769-1.692-1.708V34.588c0-.94.761-1.708 1.692-1.708h35.616c.93 0 1.692.769 1.692 1.708v23.584c0 .94-.761 1.708-1.692 1.708"/>
        <path fill="#52B9DD" d="M52.23 60.134v-.745h-36.1a.996.996 0 0 1-.98-.994v-24.03a.995.995 0 0 1 .98-.994h36.1a.995.995 0 0 1 .98.994v24.03a.995.995 0 0 1-.98.994v1.491c.674 0 1.29-.281 1.731-.73.442-.447.72-1.072.719-1.756V34.366c0-.684-.277-1.31-.719-1.756a2.43 2.43 0 0 0-1.731-.73h-36.1a2.43 2.43 0 0 0-1.73.73 2.5 2.5 0 0 0-.72 1.756v24.028a2.5 2.5 0 0 0 .72 1.756c.44.449 1.056.73 1.73.73h36.1v-.746"/>
        <path fill="#A1EDFF" d="M14.68 59.88l19.116-23 18.884 23"/>
        <path fill="#52B9DD" d="M15.958 60.61l18.333-22.817L52.4 60.607a.708.708 0 0 0 1.015.106.757.757 0 0 0 .103-1.045L34.854 36.153a.712.712 0 0 0-1.116-.003L14.845 59.664a.757.757 0 0 0 .097 1.046.708.708 0 0 0 1.016-.1"/>
        <path fill="#A1EDFF" d="M53.68 35.88c0 10.647-8.058 20-18.894 20-10.837 0-20.106-9.353-20.106-20"/>
        <path fill="#52B9DD" d="M52.243 35.62c0 5.276-1.927 10.232-5.136 13.858-1.604 1.813-3.527 3.293-5.69 4.32A16.544 16.544 0 0 1 34.28 55.4c-5.146 0-9.94-2.307-13.449-5.945-3.509-3.638-5.714-8.59-5.713-13.835a.73.73 0 0 0-.718-.74.73.73 0 0 0-.719.74c.001 5.678 2.378 10.987 6.13 14.878 3.753 3.89 8.9 6.381 14.469 6.382 2.783 0 5.395-.624 7.74-1.738 3.518-1.671 6.433-4.438 8.468-7.84 2.035-3.404 3.193-7.446 3.193-11.682a.73.73 0 0 0-.719-.74.73.73 0 0 0-.718.74"/>
        <path fill="#29ABE2" d="M28.68 40.38a1.5 1.5 0 1 1-3 0 1.5 1.5 0 0 1 3 0M41.68 40.38a1.5 1.5 0 1 1-3 0 1.5 1.5 0 0 1 3 0"/>
        <path fill="#52B9DD" d="M31.68 45.88c0 1.429 1.12 3 2.5 3s2.5-1.571 2.5-3h-5"/>
        <path fill="#52B9DD" d="M31.458 46.607h-.778c0 .418.103.824.279 1.2.264.564.69 1.068 1.239 1.446a3.504 3.504 0 0 0 1.982.627c.5 0 .972-.112 1.392-.297.63-.28 1.144-.72 1.512-1.234.367-.517.594-1.115.596-1.742a.708.708 0 0 0-.228-.514.811.811 0 0 0-.55-.213h-5.444a.812.812 0 0 0-.55.213.709.709 0 0 0-.228.514h.778v.728h5.444v-.728h-.778c0 .189-.048.404-.149.619-.149.322-.413.636-.733.855-.322.22-.685.344-1.062.344-.253 0-.495-.055-.727-.157a2.19 2.19 0 0 1-.883-.726c-.22-.308-.336-.652-.334-.935h-.778v.728-.728"/>
        <path fill="#F2F2F2" d="M10.698 5.131c-.726-1.455-.15-3.231 1.287-3.967A2.896 2.896 0 0 1 15.9 2.468"/>
        <path fill="#E6E6E6" d="M11.348 4.798a2.223 2.223 0 0 1-.235-.996c0-.404.11-.803.315-1.148a2.182 2.182 0 0 1 1.868-1.07 2.178 2.178 0 0 1 1.953 1.217c.182.364.62.51.98.326a.743.743 0 0 0 .32-.992A3.66 3.66 0 0 0 15.182.639a3.589 3.589 0 0 0-3.525-.134 3.648 3.648 0 0 0-1.476 1.387 3.74 3.74 0 0 0-.132 3.572c.18.364.62.51.978.326a.743.743 0 0 0 .322-.992"/>
        <path fill="#E6E6E6" d="M4.596 30.914a1.824 1.824 0 0 1-2.185-1.256C-.639 19.605 3.831 8.714 13.325 3.853c9.56-4.894 20.954-2.008 27.1 6.581a1.885 1.885 0 0 1-.205 2.444c-1.527 1.498-5.576 4.398-16.233 9.66-11.948 5.898-17.14 7.808-19.39 8.376"/>
        <path fill="#CCC" d="M4.596 30.914l-.175-.717a1.08 1.08 0 0 1-.911-.182 1.113 1.113 0 0 1-.403-.574 21.14 21.14 0 0 1 2.096-17.046 20.963 20.963 0 0 1 8.45-7.883 20.687 20.687 0 0 1 9.45-2.299c6.483.001 12.748 3.086 16.733 8.654.147.206.216.438.216.67 0 .298-.113.588-.34.81-.7.69-2.057 1.768-4.565 3.32-2.507 1.553-6.165 3.584-11.479 6.207-5.965 2.944-10.238 4.89-13.29 6.168-3.053 1.278-4.89 1.886-5.957 2.155l.351 1.433c1.183-.299 3.068-.93 6.161-2.223 3.092-1.294 7.39-3.252 13.373-6.206 5.344-2.638 9.038-4.688 11.601-6.275 2.563-1.588 3.994-2.71 4.82-3.518a2.617 2.617 0 0 0 .782-1.87A2.64 2.64 0 0 0 41.016 10C36.75 4.043 30.04.736 23.103.737c-3.401 0-6.859.795-10.106 2.457a22.43 22.43 0 0 0-9.039 8.433 22.631 22.631 0 0 0-2.243 18.248 2.59 2.59 0 0 0 .935 1.331 2.53 2.53 0 0 0 2.122.424l-.176-.716"/>
        <path fill="#FF6470" d="M46.427 22.25c-.006.013-.179.386-.357.875-.09.245-.181.518-.254.802-.037.142-.07.287-.094.436a2.97 2.97 0 0 0-.042.473v-.004.01c0 .395.08.743.177 1.044.146.453.331.827.461 1.153.066.162.117.309.15.434.032.125.044.225.044.306v.014-.002c.002.059-.027.242-.092.446-.095.31-.254.675-.387.948a9.544 9.544 0 0 1-.22.425l-.012.022-.002.005c-.195.341-.145.827.112 1.086.258.258.624.191.818-.15.009-.016.224-.392.45-.901.112-.256.228-.544.322-.85.092-.307.17-.626.179-.999V27.78c0-.395-.08-.743-.177-1.045-.146-.451-.331-.825-.46-1.151a3.59 3.59 0 0 1-.15-.434 1.242 1.242 0 0 1-.045-.308h-.252l.252.002v-.002h-.252l.252.002v-.003c0-.02.003-.076.015-.149a3.89 3.89 0 0 1 .122-.492 9.714 9.714 0 0 1 .428-1.118l.008-.017.001-.003c.169-.365.083-.843-.192-1.067-.275-.223-.634-.109-.803.256"/>
        <g transform="translate(59.68 31.88)">
            <mask id="b" fill="#fff">
                <use xlink:href="#a"/>
            </mask>
            <path fill="#FFC1C6" d="M.031.185h2.91v8.708H.031z" mask="url(#b)"/>
        </g>
        <path fill="#FF6470" d="M7.427 41.25c-.006.013-.179.386-.357.875-.09.245-.181.518-.254.802a4.899 4.899 0 0 0-.094.436 2.97 2.97 0 0 0-.042.473v-.001.006c0 .396.08.744.177 1.045.146.453.331.827.461 1.153.066.162.117.309.15.434.032.125.045.225.044.306v.013c.002.058-.027.241-.092.445-.095.31-.254.675-.387.948a9.784 9.784 0 0 1-.22.425l-.012.022-.002.005c-.195.341-.145.827.112 1.086.258.258.624.191.818-.15.009-.016.224-.392.45-.901.112-.256.228-.544.322-.85.092-.307.17-.626.179-.999v-.044c0-.395-.08-.743-.177-1.045-.146-.451-.331-.825-.46-1.151a3.59 3.59 0 0 1-.15-.434 1.242 1.242 0 0 1-.045-.308v-.001c0-.02.003-.076.015-.149a3.89 3.89 0 0 1 .122-.492 9.714 9.714 0 0 1 .428-1.118l.008-.017.001-.003c.169-.365.083-.843-.192-1.067-.275-.223-.634-.109-.803.256M41.187 17.332c-.005.012-.122.288-.243.65-.06.182-.123.385-.172.595-.05.212-.09.426-.092.67v-.002.006c0 .289.054.547.12.773.1.34.227.618.312.852.088.234.129.412.127.53v.01c0 .043-.019.175-.06.32a5.308 5.308 0 0 1-.255.681 7.072 7.072 0 0 1-.144.304l-.007.015-.002.003.086.05-.086-.05.086.05-.086-.05c-.193.37-.068.838.28 1.044.347.206.786.073.98-.298.007-.014.153-.295.307-.674.077-.19.156-.406.22-.633.064-.23.116-.467.122-.74v-.032a2.74 2.74 0 0 0-.12-.772c-.1-.34-.227-.618-.312-.851-.088-.234-.129-.412-.127-.532h-.541l.54.004v-.004h-.54l.54.004v-.005a1.542 1.542 0 0 1 .049-.297c.05-.214.135-.471.206-.666a8.941 8.941 0 0 1 .118-.304l.007-.017.001-.003c.164-.386.002-.841-.36-1.015-.363-.174-.79-.002-.954.384"/>
        <path fill="#FFC1C6" d="M22.966 24.88a.706.706 0 0 0-.585.308c-.008.012-.133.195-.268.443a3.862 3.862 0 0 0-.199.42c-.03.076-.058.157-.081.244a1.402 1.402 0 0 0-.047.296l-.001.058c0 .238.06.438.123.603.1.246.212.432.281.574.035.07.059.128.07.166l.012.043.001.008a.356.356 0 0 1-.012.036 2.161 2.161 0 0 1-.242.428 4.05 4.05 0 0 1-.13.177l-.038.048-.008.011-.002.002a.688.688 0 0 0 .097.977.707.707 0 0 0 .99-.095c.011-.013.166-.198.335-.457.084-.13.173-.279.25-.445a1.68 1.68 0 0 0 .165-.594l.003-.084c0-.237-.06-.437-.124-.602-.099-.246-.212-.432-.28-.574a1.231 1.231 0 0 1-.071-.166.277.277 0 0 1-.012-.05.965.965 0 0 1 .051-.146 3.355 3.355 0 0 1 .277-.504l.023-.035.006-.008v-.001a.689.689 0 0 0-.193-.963.707.707 0 0 0-.39-.118"/>
    </g>
</svg>
