<svg xmlns="http://www.w3.org/2000/svg" width="51" height="39" viewBox="0 0 51 39">
    <g fill="none" fill-rule="evenodd" transform="translate(0 1)">
        <g fill-rule="nonzero">
            <path fill="#000" d="M8.421 28.819a.444.444 0 0 0 .387.18.465.465 0 0 0 .358-.25l5.759-6.79c.14-.253.078-.591-.14-.754-.217-.163-.548-.365-.784 0L8.68 27.212 7.23 25.43c-.174-.224-.818-.202-1.012 0-.193.201-.306.55-.132.773L8.42 28.82z"/>
            <path fill="#101820" stroke="#101820" stroke-width=".5" d="M8.973 0a3.63 3.63 0 0 0-3.566 3.001 7.924 7.924 0 0 1 1.28-.162 2.393 2.393 0 0 1 2.286-1.63H46.38a2.397 2.397 0 0 1 2.413 2.417v3.626H21.8c.193.386.356.79.486 1.209h26.508V29.01a2.397 2.397 0 0 1-2.413 2.418H27.57a.603.603 0 0 0-.53.909c.11.188.313.303.53.3h18.81A3.629 3.629 0 0 0 50 29.009V3.626A3.629 3.629 0 0 0 46.38 0H8.973z"/>
            <path fill="#000" d="M11.32 4.717c-2.624 0-4.552.477-5.877 1.412-1.326.935-1.96 2.365-1.96 3.801v5.54C1.457 16.188 0 18.094 0 20.357v12.165c0 2.874 2.345 5.214 5.225 5.214h12.192c2.88 0 5.225-2.34 5.225-5.214V20.357c0-2.263-1.458-4.169-3.484-4.887V9.93c0-1.436-.634-2.866-1.96-3.801-1.324-.935-3.253-1.412-5.877-1.412zm-6.003 11.32h12.007c1.916 0 3.43 1.592 3.43 3.603v12.607c0 2.011-1.514 3.602-3.43 3.602H5.317c-1.915 0-3.43-1.59-3.43-3.602V19.64c0-2.011 1.515-3.602 3.43-3.602zm5.532-9.433c2.414 0 3.993.44 4.9 1.061.908.622 1.232 1.387 1.232 2.335v5.094H4.717V10c0-.948.325-1.713 1.232-2.335.907-.621 2.486-1.061 4.9-1.061z"/>
        </g>
        <rect width="6.5" height="5.5" x="36.75" y="14.75" stroke="#101820" stroke-width="1.5" rx="2"/>
    </g>
</svg>
