<svg xmlns="http://www.w3.org/2000/svg" width="94" height="140" viewBox="0 0 94 140">
    <g fill="none" fill-rule="evenodd">
        <path fill="#FFF" d="M9.488 104.5c.182.279.35.567.506.861.634 1.198 1.054 2.504 1.318 3.832.442 2.226.463 4.512.482 6.782.028 3.292.057 19.672.085 22.963 0 0 45.431.886 45.635.886l-.04-28.404c1.944-1.729 3.182-4.312 3.182-7.202v-.518c0-4.016.017-8.033 0-12.05-.007-1.598.085-1.777-1.215-2.482-1.039-.564-2.17-.997-3.26-1.438a57.565 57.565 0 0 0-9.57-2.927c-8.671-1.85-17.731-1.705-26.325.527-3.035.789-6.1 1.879-8.466 4.031-.258.235-.505.48-.74.738-1.51 1.665-2.338 3.77-2.52 6.006-.04.495-.073 1.009-.039 1.505.03.434-.138.888-.222 1.318-.194.989-.317 2.008-.171 3.013.105.723.286 1.156.736 1.705a9.8 9.8 0 0 1 .624.853"/>
        <path fill="#101820" d="M57.96 137.408l-.025-17.245-.013-8.276c0-.12-.052-.381 0-.494-.035.076.35-.24.409-.302.252-.26.487-.532.708-.82.436-.567.814-1.186 1.12-1.835 1.445-3.073.945-6.764.95-10.062.002-2.008.003-4.016-.004-6.024-.003-.876.236-2.148-.438-2.845-.892-.922-2.482-1.374-3.636-1.84-1.71-.689-3.433-1.33-5.195-1.873a58.574 58.574 0 0 0-21.479-2.447 56.194 56.194 0 0 0-10.742 1.829c-3.033.832-6.078 2.025-8.381 4.252-2.33 2.25-3.06 5.072-3.16 8.216-.055 1.729-.81 3.35-.234 5.098.196.593.584 1.026.945 1.522.59.81 1.054 1.706 1.409 2.643 1.151 3.045 1.135 6.363 1.157 9.574.012 1.797.017 3.594.023 5.39.016 4.461.025 8.922.047 13.383.003.628.006 1.256.011 1.883.004.473.897.348.893-.062-.064-7.722.087-15.455-.114-23.174-.085-3.26-.458-6.641-2.232-9.456-.383-.608-.956-1.145-1.219-1.819-.33-.847-.287-1.843-.178-2.73.102-.829.382-1.629.379-2.465-.003-.842.044-1.679.2-2.508 1.376-7.368 9.915-9.308 16.158-10.325 7.22-1.177 14.646-.93 21.781.678 3.439.774 6.77 1.9 10.027 3.246 1.04.43 2.977.897 3.074 2.244.123 1.688.016 3.424.016 5.117 0 1.887-.004 3.773-.006 5.66-.002 1.62.117 3.287-.242 4.88a9.256 9.256 0 0 1-2.102 4.1c-.337.378-.769.6-.839 1.097-.105.751.003 1.598.004 2.355l.007 4.47.028 18.633v.395c.001.473.894.348.894-.063M55.145 35.876c-1.818-2.275-2.24-5.484-1.046-8.15.582-1.302 1.512-2.308 2.6-3.19l6.016-4.868 16.36-13.24c.479-.387.948-.797 1.451-1.153 2.52-1.78 5.932-1.728 8.448.036 4.33 3.036 4.401 9.382.368 12.676-4.805 3.924-9.646 7.806-14.469 11.708l-7.625 6.171c-.528.427-1.05.863-1.585 1.283-1.982 1.558-4.544 2.041-6.942 1.244-1.419-.472-2.626-1.366-3.576-2.517-.212-.257-1.057.066-.814.361 3.107 3.765 8.479 3.968 12.177.99 2.012-1.62 4.017-3.25 6.025-4.875l17.003-13.76c.911-.738 1.77-1.498 2.414-2.502 1.561-2.432 1.718-5.626.386-8.193-2.49-4.797-8.77-5.823-12.887-2.533-5 3.995-9.952 8.053-14.927 12.08l-7.777 6.294c-.546.441-1.12.867-1.63 1.352a8.366 8.366 0 0 0-2.454 7.477 8.239 8.239 0 0 0 1.67 3.67c.208.26 1.054-.06.814-.36"/>
        <path fill="#E5E5E5" d="M21.998 3.575h36.864c3.36 0 6.084 3.239 6.084 7.234V98.43c0 3.995-2.724 7.234-6.084 7.234H21.998c-3.36 0-6.085-3.24-6.085-7.234V10.809c0-3.995 2.724-7.234 6.085-7.234"/>
        <path fill="#101820" d="M22.983 1.924h42.832c3.905 0 7.07 3.239 7.07 7.234V96.78c0 3.995-3.165 7.234-7.07 7.234H22.983c-3.905 0-7.07-3.239-7.07-7.234V9.158c0-3.995 3.165-7.234 7.07-7.234"/>
        <path fill="#101820" stroke="#000" stroke-width="2" d="M25.069 1.924H67.9c3.905 0 7.07 3.239 7.07 7.234V96.78c0 3.995-3.165 7.234-7.07 7.234H25.07c-3.905 0-7.07-3.239-7.07-7.234V9.158c0-3.995 3.165-7.234 7.07-7.234"/>
        <path fill="#F26C6B" fill-rule="nonzero" d="M50 96a3 3 0 1 1-6 0 3 3 0 0 1 6 0"/>
        <path fill="#F2F2F2" d="M21.155 88.442h51v-75h-51z"/>
        <path fill="#101820" d="M41.496 9.215h8.708c.533 0 1.19.091 1.704-.096 1.13-.413 1.317-2.218.058-2.61-.505-.156-1.17-.058-1.685-.058h-6.947c-.661 0-1.475-.128-2.125.053-1.48.412-1.323 2.506.173 2.708.437.06.895-.568.304-.648-.72-.098-.896-1.241-.152-1.46.151-.044.382 0 .537 0H50.011c.376 0 1.021-.13 1.38 0 .276.1.573.452.548.762-.016.188-.267.633-.443.695-.103.037-.288 0-.396 0h-9.528c-.504 0-.674.654-.076.654M35.743 9.09c.714 0 1.67-.232 1.794-1.08.115-.783-.3-1.396-1.112-1.433-.69-.032-1.62.192-1.822.966-.2.773.231 1.494 1.044 1.545.194.012.473-.03.623-.168.113-.104.135-.22-.062-.232-.552-.034-.77-.518-.757-1.014.011-.387.14-.76.569-.69.491.082.66.568.648 1.007-.006.213-.035.447-.193.607-.12.122-.182.088-.363.088-.158 0-.502.067-.587.222-.09.165.078.181.218.181"/>
        <path fill="#000" d="M42.21 39.496h-.02c-.728 0-1.325.587-1.336 1.35 0 .64-.345 1.238-.9 1.558a1.801 1.801 0 0 1-2.7-1.553 1.337 1.337 0 0 0-1.312-1.356h-.047c-.356.006-.689.15-.937.406a1.322 1.322 0 0 0-.376.946 4.464 4.464 0 0 0 4.472 4.466 4.464 4.464 0 0 0 4.472-4.462 1.338 1.338 0 0 0-1.317-1.355M54.079 48.635a1.332 1.332 0 0 0-.637-.177h-.001a1.336 1.336 0 0 0-1.182.673 8.09 8.09 0 0 1-6.948 3.962l-.092-.001a1.34 1.34 0 0 0-.014 2.676h.108c3.784 0 7.32-2.015 9.245-5.276.186-.304.242-.663.158-1.01a1.35 1.35 0 0 0-.637-.847"/>
        <path fill="#000" d="M45.326 28.007c-9.383 0-17.016 7.634-17.016 17.017 0 9.382 7.633 17.016 17.016 17.016s17.017-7.634 17.017-17.016c0-9.383-7.634-17.017-17.017-17.017m14.345 17.017c0 7.91-6.436 14.344-14.345 14.344-7.91 0-14.345-6.435-14.345-14.344 0-7.91 6.435-14.345 14.345-14.345 7.91 0 14.345 6.435 14.345 14.345"/>
        <path fill="#000" d="M53.804 39.874a1.35 1.35 0 0 0-.405.973c0 .64-.345 1.237-.9 1.557a1.8 1.8 0 0 1-2.7-1.553 1.337 1.337 0 0 0-1.312-1.356h-.047c-.356.006-.69.15-.937.406a1.322 1.322 0 0 0-.376.946 4.464 4.464 0 0 0 4.472 4.466c.773 0 1.547-.198 2.236-.597a4.48 4.48 0 0 0 2.236-3.865 1.339 1.339 0 0 0-1.317-1.355 1.348 1.348 0 0 0-.95.378"/>
        <path fill="#41BC98" d="M54.079 48.635a1.332 1.332 0 0 0-.637-.177h-.001a1.336 1.336 0 0 0-1.182.673 8.09 8.09 0 0 1-6.948 3.962l-.092-.001a1.34 1.34 0 0 0-.014 2.676h.108c3.784 0 7.32-2.015 9.245-5.276.186-.304.242-.663.158-1.01a1.35 1.35 0 0 0-.637-.847"/>
        <path fill="#41BC98" fill-rule="nonzero" d="M53.406 80.509c-.038.705-.482 1.45-1.281 1.364-.723-.076-1.226-.794-1.223-1.487.004-.756.597-1.479 1.399-1.297.705.16 1.071.815 1.108 1.496.019.353.901.155.88-.237-.14-2.627-4.288-2.339-4.28.199.007 2.657 4.15 2.386 4.284-.123.022-.422-.868-.273-.887.085M48.373 80.466c0 1.05-.845 1.9-1.888 1.9a1.894 1.894 0 0 1-1.888-1.9c0-1.05.845-1.9 1.888-1.9s1.888.85 1.888 1.9M42.08 80.585c-.047.867-.773 1.742-1.704 1.203a1.67 1.67 0 0 1-.815-1.44c.003-.813.707-1.658 1.57-1.265.604.276.914.854.949 1.502.01.179.894.026.88-.237-.138-2.572-4.292-2.171-4.28.237.015 2.6 4.153 2.139 4.28-.237.008-.153-.865-.04-.88.237"/>
        <path fill="#FFF" d="M37.343 109.367c.091-.97.185-1.941.284-2.911.164-1.624.341-3.247.538-4.867.599-4.923-.212-9.21-3.212-13.302-3.187-4.346-7.986-7.104-12.32-10.129-1.973-1.377-4.107-3.237-6.379-4.397v-24.43c0-4.286-3.452-7.76-7.711-7.76h-.068c-4.253 0-7.702 3.47-7.702 7.75v28.86c-.13 1.221.083 2.419.154 3.598.06 1.009.157 1.99.245 2.99.093 1.055.222 2.107.373 3.155.295 2.05.678 4.085 1.072 6.117.74 3.813 3.655 6.835 6.164 9.584 2.358 2.583 2.872 7.532 3.002 11.312l25.56-5.57"/>
        <path fill="#101820" d="M37.783 109.248c.23-2.422.472-4.842.76-7.257.241-2.032.354-4.061.062-6.095-.551-3.848-2.482-7.266-5.16-10.025-2.841-2.925-6.334-5.075-9.67-7.364-1.69-1.158-3.277-2.456-4.968-3.609-.433-.295-.874-.58-1.326-.844-.139-.08-.72-.284-.787-.428-.034-.075.012-.223 0-.303-.183-1.296 0-2.755 0-4.062v-6.827-12.25c0-1.662-.144-3.255-.974-4.75-1.47-2.648-4.323-4.154-7.31-4.044-2.89.107-5.675 1.67-7.098 4.234-.81 1.46-.979 3.023-.979 4.651v24.688c0 1.065.027 2.135 0 3.2-.086 3.492.344 7.11.873 10.562.332 2.164.6 4.464 1.255 6.556.57 1.816 1.61 3.435 2.775 4.92 1.201 1.53 2.773 2.851 3.825 4.487.95 1.477 1.435 3.23 1.753 4.945.331 1.788.463 3.607.53 5.422.005.162.89.02.88-.237-.106-2.873-.336-5.864-1.386-8.566-1.084-2.789-3.548-4.652-5.277-7.02-.906-1.241-1.693-2.585-2.175-4.052-.541-1.65-.759-3.45-1.05-5.16-.605-3.544-1.05-7.202-1.157-10.799-.059-1.971.035-3.972.035-5.946V62.35 52.181c0-2.47-.19-4.925 1.211-7.12 1.638-2.565 4.662-3.82 7.61-3.089 2.635.654 4.757 2.752 5.492 5.376.588 2.101.287 4.623.287 6.776V73.88l.026.034c2.639 1.382 4.896 3.391 7.35 5.065 2.332 1.592 4.714 3.12 6.907 4.908 4.513 3.68 7.694 8.55 7.808 14.53.034 1.748-.209 3.47-.403 5.201-.22 1.954-.414 3.91-.6 5.867-.012.128.855.036.88-.237"/>
        <path fill="#FFF" d="M60.892 52.053c-2.733-3.27-2.313-8.151.937-10.9l15.244-12.9a7.604 7.604 0 0 1 10.76.937l.082.098c2.705 3.238 2.29 8.07-.928 10.792L71.723 52.996a7.654 7.654 0 0 1-10.831-.943"/>
        <path fill="#101820" d="M61.302 51.886c-2.658-3.182-2.213-7.992.89-10.69 1.19-1.035 2.408-2.038 3.61-3.056l11.305-9.565c2.757-2.333 6.582-2.549 9.403-.14 3.333 2.843 3.703 8.122.516 11.238-1.058 1.036-2.269 1.943-3.397 2.898l-6.48 5.482-5.463 4.624c-1.084.916-2.278 1.61-3.702 1.827-2.537.387-5.024-.7-6.682-2.618-.182-.21-1.022.1-.82.334 2.743 3.176 7.498 3.69 10.935 1.329 1.441-.991 2.736-2.259 4.069-3.387 3.919-3.316 7.857-6.61 11.758-9.948 2.913-2.495 3.811-6.736 1.789-10.095-2.146-3.563-6.66-4.84-10.398-3.13-1.706.78-3.14 2.249-4.56 3.45l-7.108 6.015c-1.738 1.47-3.479 2.938-5.215 4.412-2.552 2.167-3.798 5.505-2.707 8.785a7.93 7.93 0 0 0 1.436 2.569c.178.212 1.02-.095.821-.334"/>
        <path fill="#FFF" d="M67.259 85.44c-2.215-2.652-1.875-6.608.76-8.838l12.5-10.577a6.162 6.162 0 0 1 8.721.76l.048.057c2.204 2.638 1.865 6.574-.756 8.792L76.04 86.204a6.205 6.205 0 0 1-8.781-.764"/>
        <path fill="#101820" d="M67.661 85.242c-2.126-2.545-1.76-6.308.702-8.47 1.006-.884 2.046-1.732 3.068-2.597 3.035-2.567 6.062-5.143 9.104-7.703 2.168-1.824 5.135-2.146 7.443-.326 2.816 2.22 3.107 6.622.457 9.103-2.508 2.346-5.269 4.465-7.89 6.682a97283.67 97283.67 0 0 1-4.474 3.787c-2.566 2.171-6.127 2.144-8.41-.476-.272-.312-1.105.05-.804.396 2.322 2.665 6.314 3.146 9.167 1.022 1.15-.855 2.212-1.853 3.305-2.778 3.154-2.669 6.353-5.292 9.465-8.01 2.4-2.094 3.142-5.57 1.494-8.38-1.707-2.91-5.395-4.02-8.45-2.685-1.446.632-2.669 1.9-3.86 2.908l-5.854 4.953c-1.45 1.226-2.92 2.432-4.35 3.68-2.697 2.355-3.283 6.458-.917 9.29.265.317 1.1-.042.804-.396"/>
        <path fill="#FFF" d="M63.115 70.47c-2.786-3.334-2.358-8.309.955-11.112l14.007-11.852a7.737 7.737 0 0 1 10.948.954l.081.097c2.764 3.308 2.34 8.245-.947 11.026L74.156 71.43a7.802 7.802 0 0 1-11.041-.96"/>
        <path fill="#101820" d="M63.526 70.306c-2.71-3.243-2.258-8.141.892-10.902 1.058-.928 2.15-1.82 3.224-2.729 3.523-2.98 7.038-5.97 10.568-8.942 2.786-2.345 6.691-2.44 9.495-.032 3.056 2.626 3.706 7.299 1.281 10.578-.977 1.322-2.467 2.352-3.71 3.403l-6.052 5.121c-1.721 1.457-3.44 2.916-5.163 4.369-3.245 2.735-7.751 2.357-10.535-.866-.173-.2-1.011.109-.823.328 2.658 3.076 7.184 3.714 10.657 1.655 1.519-.9 2.85-2.255 4.19-3.39 3.645-3.084 7.332-6.124 10.938-9.255 2.971-2.58 3.806-6.97 1.672-10.365-2.111-3.358-6.285-4.635-9.95-3.267-1.838.686-3.272 2.118-4.747 3.366l-6.729 5.693c-1.611 1.364-3.227 2.722-4.834 4.091-2.59 2.207-3.769 5.683-2.62 8.976.318.908.808 1.76 1.423 2.496.17.202 1.01-.104.823-.328M68.99 84.44c-1.44-1.636-1.14-4.022.401-5.45.877-.813 1.771-1.757 2.766-2.423 2.315-1.553 5.21.702 5.268 3.212.044 1.915-1.3 2.971-2.582 4.114-.494.44-.975.948-1.526 1.317-1.435.963-3.22.408-4.327-.77-.172-.184-.998.133-.825.317 1.706 1.816 4.495 1.722 6.321.136 1.243-1.079 3.038-2.272 3.6-3.89.902-2.594-1.09-5.265-3.761-5.34-2.135-.058-3.488 1.356-4.962 2.67-.804.717-1.612 1.387-1.98 2.448a4.048 4.048 0 0 0 .782 3.976c.164.186.996-.124.825-.318"/>
        <path fill="#101820" d="M64.922 69.159c-1.768-2.008-1.387-4.963.53-6.695.606-.548 1.22-1.088 1.829-1.631.607-.542 1.219-1.189 1.952-1.554 2.916-1.455 6.103 1.407 6.075 4.365-.021 2.296-1.708 3.557-3.249 4.932-.642.572-1.286 1.264-2.04 1.688-1.737.98-3.813.277-5.097-1.105-.15-.161-.962.158-.83.3 2.03 2.185 5.337 2.025 7.516.16.79-.677 1.553-1.385 2.328-2.077.86-.767 1.644-1.529 2.014-2.669 1.01-3.112-1.382-6.263-4.578-6.31-2.523-.036-4.128 1.663-5.873 3.218-.916.817-1.836 1.574-2.295 2.764a4.847 4.847 0 0 0 .888 4.914c.142.162.96-.151.83-.3M62.522 50.766c-1.767-2.008-1.385-4.96.532-6.692.606-.547 1.22-1.087 1.829-1.63.608-.543 1.217-1.188 1.952-1.553 2.918-1.45 6.102 1.399 6.075 4.361-.022 2.295-1.71 3.556-3.25 4.93-.642.572-1.286 1.264-2.04 1.686-1.74.976-3.811.282-5.098-1.102-.152-.165-.967.154-.829.302 2.027 2.181 5.343 2.037 7.517.16.787-.678 1.552-1.384 2.328-2.076.86-.767 1.643-1.53 2.014-2.67 1.01-3.112-1.383-6.266-4.58-6.314-2.522-.038-4.129 1.664-5.872 3.219-.917.817-1.836 1.574-2.295 2.765a4.853 4.853 0 0 0 .888 4.916c.146.166.966-.147.83-.302"/>
    </g>
</svg>
