<svg xmlns="http://www.w3.org/2000/svg" xmlns:xlink="http://www.w3.org/1999/xlink" width="96" height="139" viewBox="0 0 96 139">
    <defs>
        <path id="a" d="M44.699 22.52c0 12.377-9.97 22.41-22.266 22.41C10.136 44.93.167 34.896.167 22.52.167 10.146 10.136.113 22.433.113c12.297 0 22.266 10.033 22.266 22.409"/>
    </defs>
    <g fill="none" fill-rule="evenodd">
        <path fill="#E5E5E5" d="M60.833 90.65c-.007-1.598.085-1.777-1.214-2.482-1.04-.564-2.17-.997-3.261-1.438a57.565 57.565 0 0 0-9.57-2.927 57.894 57.894 0 0 0-16.181-1.131c-2.472-2.004-5.216-3.713-7.796-5.514-1.973-1.377-4.107-3.237-6.38-4.397v-24.43c0-4.286-3.452-7.76-7.711-7.76h-.067C4.399 40.57.95 44.04.95 48.32v28.86c-.13 1.221.083 2.419.153 3.598.06 1.009.157 1.99.245 2.99.094 1.055.222 2.107.373 3.155.295 2.05.678 4.085 1.072 6.117.74 3.813 3.655 6.835 6.164 9.584 2.352 2.577 2.87 7.508 3.002 11.284.005.356.008.711.011 1.066.029 3.292.057 19.672.085 22.963 0 0 45.431.886 45.635.886l-.039-28.404c1.944-1.729 3.181-4.312 3.181-7.202v-.518c0-4.016.018-8.033 0-12.05"/>
        <path fill="#FFF" d="M11.488 103.5c.182.279.35.567.506.861.634 1.198 1.054 2.504 1.318 3.832.442 2.226.463 4.512.482 6.782.028 3.292.057 19.672.085 22.963 0 0 45.431.886 45.635.886l-.04-28.404c1.944-1.729 3.182-4.312 3.182-7.202v-.518c0-4.016.017-8.033 0-12.05-.007-1.598.085-1.777-1.215-2.482-1.039-.564-2.17-.997-3.26-1.438a57.565 57.565 0 0 0-9.57-2.927c-8.671-1.85-17.731-1.705-26.325.527-3.035.789-6.1 1.879-8.466 4.031-.258.235-.505.48-.74.738-1.51 1.665-2.338 3.77-2.52 6.006-.04.495-.073 1.009-.039 1.505.03.434-.138.888-.222 1.318-.194.989-.317 2.008-.171 3.013.105.723.286 1.156.736 1.705a9.8 9.8 0 0 1 .624.853"/>
        <path fill="#6A79A8" d="M59.96 136.408l-.025-17.245-.013-8.276c0-.12-.052-.381 0-.494-.035.076.35-.24.409-.302.252-.26.487-.532.708-.82.436-.567.814-1.186 1.12-1.835 1.445-3.073.945-6.764.95-10.062.002-2.008.003-4.016-.004-6.024-.003-.876.236-2.148-.438-2.845-.892-.922-2.482-1.374-3.636-1.84-1.71-.689-3.433-1.33-5.195-1.873a58.574 58.574 0 0 0-21.479-2.447 56.194 56.194 0 0 0-10.742 1.829c-3.033.832-6.078 2.025-8.381 4.252-2.33 2.25-3.06 5.072-3.16 8.216-.055 1.729-.81 3.35-.234 5.098.196.593.584 1.026.945 1.522.59.81 1.054 1.706 1.409 2.643 1.151 3.045 1.135 6.363 1.157 9.574.012 1.797.017 3.594.023 5.39.016 4.461.025 8.922.047 13.383.003.628.006 1.256.011 1.883.004.473.897.348.893-.062-.064-7.722.087-15.455-.114-23.174-.085-3.26-.458-6.641-2.232-9.456-.383-.608-.956-1.145-1.219-1.819-.33-.847-.287-1.843-.178-2.73.102-.829.382-1.629.379-2.465-.003-.842.044-1.679.2-2.508 1.376-7.368 9.915-9.308 16.158-10.325 7.22-1.177 14.646-.93 21.781.678 3.439.774 6.77 1.9 10.027 3.246 1.04.43 2.977.897 3.074 2.244.123 1.688.016 3.424.016 5.117 0 1.887-.004 3.773-.006 5.66-.002 1.62.117 3.287-.242 4.88a9.256 9.256 0 0 1-2.102 4.1c-.337.378-.769.6-.839 1.097-.105.751.003 1.598.004 2.355l.007 4.47.028 18.633v.395c.001.473.894.348.894-.063"/>
        <path fill="#FFF" d="M56.738 35.057c-2.764-3.46-2.218-8.52 1.22-11.301L81.829 4.437a7.913 7.913 0 0 1 11.174 1.221l.043.054c2.754 3.447 2.21 8.488-1.215 11.26L67.967 36.284a7.953 7.953 0 0 1-11.229-1.227"/>
        <path fill="#6A79A8" d="M57.145 34.876c-1.818-2.275-2.24-5.484-1.046-8.15.582-1.302 1.512-2.308 2.6-3.19l6.016-4.868 16.36-13.24c.479-.387.948-.797 1.451-1.153 2.52-1.78 5.932-1.728 8.448.036 4.33 3.036 4.401 9.382.368 12.676-4.805 3.924-9.646 7.806-14.469 11.708l-7.625 6.171c-.528.427-1.05.863-1.585 1.283-1.982 1.558-4.544 2.041-6.942 1.244-1.419-.472-2.626-1.366-3.576-2.517-.212-.257-1.057.066-.814.361 3.107 3.765 8.479 3.968 12.177.99 2.012-1.62 4.017-3.25 6.025-4.875l17.003-13.76c.911-.738 1.77-1.498 2.414-2.502 1.561-2.432 1.718-5.626.386-8.193-2.49-4.797-8.77-5.823-12.887-2.533-5 3.995-9.952 8.053-14.927 12.08l-7.777 6.294c-.546.441-1.12.867-1.63 1.352a8.366 8.366 0 0 0-2.454 7.477 8.239 8.239 0 0 0 1.67 3.67c.208.26 1.054-.06.814-.36"/>
        <path fill="#E5E5E5" d="M23.998 2.575h36.864c3.36 0 6.084 3.239 6.084 7.234V97.43c0 3.995-2.724 7.234-6.084 7.234H23.998c-3.36 0-6.085-3.24-6.085-7.234V9.809c0-3.995 2.724-7.234 6.085-7.234"/>
        <path fill="#45689A" d="M24.983.924h42.832c3.905 0 7.07 3.239 7.07 7.234V95.78c0 3.995-3.165 7.234-7.07 7.234H24.983c-3.905 0-7.07-3.239-7.07-7.234V8.158c0-3.995 3.165-7.234 7.07-7.234"/>
        <path fill="#6A79A8" d="M23.107 102.48c-2.917-1.065-4.773-3.756-4.82-6.83-.004-.291 0-.584 0-.876V89.22 67.485 39.977 16.814 10.01c0-1.797-.08-3.522.764-5.203.836-1.665 2.322-2.996 4.131-3.52.508-.146.457-.388-.064-.237-2.923.845-5.192 3.104-5.645 6.162-.082.557-.077 1.112-.077 1.671v85.221c0 2.102.008 4.097 1.293 5.943.881 1.266 2.124 2.197 3.575 2.727.241.088.89-.274.843-.292"/>
        <path fill="#FFF" d="M27.069.924H69.9c3.905 0 7.07 3.239 7.07 7.234V95.78c0 3.995-3.165 7.234-7.07 7.234H27.07c-3.905 0-7.07-3.239-7.07-7.234V8.158C20 4.163 23.164.924 27.07.924"/>
        <path fill="#6A79A8" d="M27.025 1.23H56.963c4.212 0 8.426-.022 12.638 0 3.852.02 6.852 3.107 6.925 6.967.01.506 0 1.013 0 1.52v81.508c0 2.497.388 5.604-.784 7.881a6.59 6.59 0 0 1-5.798 3.602c-.272.004-.546 0-.818 0H28.904c-1.832 0-3.55.028-5.197-1.012-2.217-1.397-3.263-3.813-3.263-6.373v-8.415-16.28-20.073-19.72V15.34c0-2.37-.023-4.743 0-7.114.035-3.752 2.755-6.926 6.58-6.995.489-.009.69-.623.089-.612-4.134.074-7.503 3.42-7.558 7.594-.009.622 0 1.244 0 1.866v82.638c0 .938-.003 1.876 0 2.815.007 2.727 1.198 5.28 3.57 6.72 1.684 1.022 3.476 1.069 5.353 1.069H69.092c2.522 0 4.896-.726 6.572-2.753 1.296-1.566 1.752-3.445 1.752-5.432V85.9v-17.05-20.675-19.823-14.775c0-2.172.242-4.527-.094-6.687C76.74 3.164 73.49.633 69.823.618c-1.344-.006-2.69 0-4.034 0H27.113c-.49 0-.688.612-.088.612"/>
        <path fill="#E5E5E5" d="M23.155 89.857h50.66v-76.83h-50.66z"/>
        <path fill="#C9DFFF" d="M23.155 89.857H71.73v-76.83H23.155z"/>
        <path fill="#6A79A8" d="M72.176 88.792v-7.49V63.42 41.802 23.111v-6.186c0-.94.13-1.987 0-2.919-.006-.042 0-.09 0-.132 0-.477-.894-.356-.894.06V85.801c0 .94-.13 1.987 0 2.919.006.042 0 .09 0 .132 0 .477.894.356.894-.06"/>
        <path fill="#6A79A8" d="M22.868 90.043h50.66c.152 0 .727-.07.727-.294v-7.666V63.77 41.531 22.38v-6.34-1.96c0-.27.103-.79 0-1.044-.013-.032 0-.093 0-.129 0-.05-.136-.057-.153-.057h-50.66c-.152 0-.727.07-.727.295V88.813c0 .27-.104.792 0 1.044.013.032 0 .094 0 .13 0 .129.88.008.88-.238v-7.666V63.77 41.531 22.38v-6.34-1.96c0-.296.09-.759 0-1.044-.01-.035 0-.09 0-.129l-.727.294H72.544c.266 0 .658-.076.914 0-.027-.008-.028-.094-.083.119-.065.246 0 .598 0 .853v72.718c0 .902-.075 1.84 0 2.74.01.116 0 .237 0 .354l.727-.294h-50.66c-.182 0-.993.351-.574.351"/>
        <path fill="#E5E5E5" d="M42.478 8.112h8.71c.54 0 1.167.076 1.698-.067 1.087-.292 1.612-2.02.304-2.433-.494-.156-1.142-.059-1.646-.059h-6.947c-.678 0-1.444-.099-2.115.043-1.392.293-1.686 2.296-.1 2.51.244.033 1.025-.372.55-.436-.586-.08-1.219-1.33-.425-1.669.11-.046.343 0 .46 0h7.962c.45 0 1-.085 1.445 0 .6.115.953.98.527 1.468-.228.263-.155.159-.464.195-1.646.194-3.43 0-5.088 0h-4.514c-.296 0-.945.448-.357.448"/>
        <path fill="#6A79A8" d="M43.496 8.215h8.708c.533 0 1.19.091 1.704-.096 1.13-.413 1.317-2.218.058-2.61-.505-.156-1.17-.058-1.685-.058h-6.947c-.661 0-1.475-.128-2.125.053-1.48.412-1.323 2.506.173 2.708.437.06.895-.568.304-.648-.72-.098-.896-1.241-.152-1.46.151-.044.382 0 .537 0H52.011c.376 0 1.021-.13 1.38 0 .276.1.573.452.548.762-.016.188-.267.633-.443.695-.103.037-.288 0-.396 0h-9.528c-.504 0-.674.654-.076.654"/>
        <path fill="#E5E5E5" d="M36.89 8.12c.725 0 1.668-.237 1.789-1.1.113-.807-.332-1.449-1.171-1.475-.723-.022-1.672.253-1.789 1.1-.113.826.334 1.422 1.171 1.475.312.02.943-.427.353-.464-.815-.051-.93-1.75-.088-1.647.497.062.668.543.652.982-.007.202-.033.397-.173.555-.122.138-.22.11-.391.11-.17 0-.495.062-.583.234-.09.174.075.23.23.23"/>
        <path fill="#6A79A8" d="M37.743 8.09c.714 0 1.67-.232 1.794-1.08.115-.783-.3-1.396-1.112-1.433-.69-.032-1.62.192-1.822.966-.2.773.231 1.494 1.044 1.545.194.012.473-.03.623-.168.113-.104.135-.22-.062-.232-.552-.034-.77-.518-.757-1.014.011-.387.14-.76.569-.69.491.082.66.568.648 1.007-.006.213-.035.447-.193.607-.12.122-.182.088-.363.088-.158 0-.502.067-.587.222-.09.165.078.181.218.181"/>
        <path fill="#E5E5E5" d="M47.217 101.127c1.901 0 3.664-.507 4.747-2.212 1.133-1.783.864-4.168-.638-5.649-2.883-2.845-8.749-1.025-8.751 3.304-.002 2.533 2.062 4.482 4.529 4.554.43.012.896-.634.302-.651-2.341-.068-4.186-2.082-3.91-4.466.274-2.375 2.313-3.51 4.507-3.4 2.328.115 4.073 2.256 3.733 4.58-.176 1.201-.903 2.286-1.973 2.858-.788.422-1.607.425-2.47.425-.506 0-.673.657-.076.657"/>
        <path fill="#6A79A8" d="M48.073 101.11c1.872 0 3.618-.485 4.71-2.147 1.2-1.826.912-4.311-.7-5.791-2.924-2.687-8.64-.86-8.646 3.402-.004 2.534 2.063 4.463 4.523 4.535.41.012.905-.604.311-.621-2.346-.068-4.192-2.103-3.916-4.485.275-2.377 2.302-3.526 4.504-3.413 2.333.12 4.078 2.277 3.739 4.603-.173 1.185-.874 2.252-1.918 2.838-.802.45-1.636.456-2.522.456-.493 0-.684.622-.085.622"/>
        <g transform="translate(25.31 22.007)">
            <mask id="b" fill="#fff">
                <use xlink:href="#a"/>
            </mask>
            <path fill="#FFF" d="M44.699 22.52c0 12.377-9.97 22.41-22.266 22.41C10.136 44.93.167 34.896.167 22.52.167 10.146 10.136.113 22.433.113c12.297 0 22.266 10.033 22.266 22.409" mask="url(#b)"/>
            <path fill="#FFF" d="M9.497 55.834c.522-3.89 1.377-9.05 2.696-13.935.327-1.22.683-2.434 1.082-3.633.526-1.583.781-1.88-1-1.987.018.001.21-.91.224-.965.067-.277.157-.553.198-.833l.137-.94c.054-.364.185-1.172.185-1.172.117-.01.633.022.787.033.31.02.622.022.932.004.47-.027.858-.186 1.201-.518.569-.549.954-1.219 1.393-1.866.045-.066 0 0 0 0 2.195-2.807 4.917-4.052 8.275-2.425.93.45 1.774 1.066 2.526 1.776.93.878 1.546 1.98 2.403 2.917a7.448 7.448 0 0 0 1.755 1.417c.312.181.636.34.947.523.192.114.816.435.799.686-.01.137-.228.378-.294.506-.092.18-.173.366-.242.557-.132.368-.396 1.174-.396 1.174s3.155 14.21 3.442 19.182c0 0-5.254 2.415-14.04 2.027-3.31-.146-13.01-2.528-13.01-2.528" mask="url(#b)"/>
            <path fill="#FFF" d="M24.66 35.698l2.566-1.805c.81-.57 1.879-1.1 2.57-1.807.65-.664-.045-1.22-.555-1.894a12.961 12.961 0 0 0-1.484-1.674c-2.143-2.001-4.855-2.503-7.479-1.111-1.536.814-2.78 2.15-3.749 3.581-.647.955.149 1.555.859 2.3a11.643 11.643 0 0 0 2.13 1.76c.673.433 1.451.805 2.24.683.788-.122 1.5-.942 1.24-1.7l1.661 1.667" mask="url(#b)"/>
            <path fill="#F2F2F2" d="M17.036 32.89c.804 1.003 1.733 1.854 2.872 2.454.328.173.999.55 1.443.707l1.24-2.02c.197-.323.773-.17.967.068l1.415 1.73 4.213-3.302c.4-.314 1.358.25.85.648l-4.68 3.669c-.25.196-.7.082-.887-.148l-1.26-1.539-.638 1.042c-.322.525-.455.861-1.138.693-2.08-.511-4.008-2.01-5.322-3.65-.441-.55.598-.76.925-.352" mask="url(#b)"/>
            <path fill="#6A79A8" d="M16.525 32.7c.864 1.142 1.892 2.1 3.17 2.755.494.253 1.249.75 1.803.757.218.002.595-.052.718-.264l1.311-2.266c.014-.032.007-.059-.02-.08l-.093-.119-.828.308 1.825 2.365c.142.184.685-.074.814-.181l4.414-3.668c.196-.162-.628-.088-.8.055l-4.414 3.667.814-.181-1.825-2.365c-.135-.175-.973.12-.828.308.187.242-1.029 1.942-1.24 2.306l.719-.264c-.551-.006-1.58-.685-2.043-.963-1.062-.636-1.924-1.494-2.669-2.479-.132-.175-.973.117-.828.308" mask="url(#b)"/>
            <path fill="#FFF" d="M29.046 19.96c.039-6.133-2.612-11.122-5.922-11.143-3.31-.021-6.023 4.933-6.062 11.065l-.007 1.1c-.022 3.4.25 5.77.743 7.422 1.011 3.397 5.046 4.837 5.046 4.837s4.15-1.361 5.23-4.384c.59-1.655.941-4.124.965-7.799l.007-1.099" mask="url(#b)"/>
            <path fill="#BBDFF5" d="M27.537 11.846c.52-.526 1.379-1.42 1.401-2.197.291.867.358 1.853.622 2.753.148.502.296 1.01.323 1.533.04.807-.214 1.607-.6 2.316-.385.709-.896 1.339-1.41 1.96.087.078.18-.088.179-.204l-.016-1.487c-.095.095-.424.248-.518.344l-.617.62c.175-.32.19-.723.039-1.055l-.168-.002c-.265.342-.659.482-1.037.69l.22-.055a2.001 2.001 0 0 0-.151-.728c-.182-.44-.545-.782-.722-1.219-.272-.668.05-.6.361-1.159.463-.83 1.436-1.445 2.094-2.11M15.255 12.153c.78-1.54 1.776-2.935 3.202-4.018 1.385-1.051 3.182-1.943 4.921-2.114 1.292-.127 2.5.427 3.485 1.23.83.678 2.291 1.681 1.485 2.796a14.98 14.98 0 0 1-4.744 4.229c-.927.526-1.91.953-2.927 1.269-.448.139-.97.179-1.326.482-.175.15-.74.924-.732 1.15-.004-.109-.357-1.328-.5-1.215a4.817 4.817 0 0 0-1.178 1.367c-.07.12-.164.257-.208.388-.046.138-.018.281-.012.43a7.03 7.03 0 0 1-.001.533c-.004.08-.075.397-.034.455-.178-.253-.473-.407-.643-.665-.236-.357-.185-.809-.24-1.214a11.892 11.892 0 0 0-.242-1.287 1.656 1.656 0 0 0-.49.932c-.048.277-.056.56-.118.834-.086.373-.271.76-.14 1.12-.526-.447-.655-1.3-.715-1.952-.067-.728.01-1.46.16-2.173.098-.455.218-.849.4-1.282.185-.438.382-.87.597-1.295" mask="url(#b)"/>
            <path fill="#6A79A8" d="M29.49 19.917c-.004-2.64-.405-5.35-1.6-7.728-.803-1.597-2.073-3.22-3.914-3.588-4.247-.848-6.43 4.574-7.035 7.845-.485 2.63-.42 5.437-.228 8.096.15 2.098.403 4.37 1.755 6.067.976 1.226 2.384 2.223 3.838 2.795.784.31 1.69-.302 2.376-.672 1.906-1.027 3.447-2.462 4.051-4.6.75-2.653.739-5.481.756-8.215.003-.425-.885-.268-.887.085-.023 3.718.346 8.842-2.921 11.382-.603.469-1.264.859-1.953 1.186-.137.065-.93.325-.949.4.073-.3.504.167.118-.085-.172-.113-.399-.18-.584-.273-.67-.34-1.314-.746-1.895-1.225-3.263-2.684-2.948-7.602-2.914-11.434.022-2.384.375-4.815 1.349-7.006.67-1.507 1.784-3.335 3.502-3.757 1.987-.489 3.596 1.33 4.468 2.887 1.332 2.379 1.776 5.229 1.78 7.925 0 .426.887.268.886-.085" mask="url(#b)"/>
            <path fill="#BBDFF5" d="M23.704 39.169c.049 2.052.106 4.105.142 6.158.043 2.43.532 4.687 1.585 6.606-.255.686-1.96 2.867-2.024 3.619-.45-.442-2.184-2.354-2.637-2.825-.908-.943-.033-7.268.354-9.12.195-.932.957-5.169 1.829-5.14l.32.01c.25.009.442.296.43.642v.05" mask="url(#b)"/>
            <path fill="#6A79A8" d="M23.258 39.202c.046 1.933.095 3.865.135 5.797.035 1.638.183 3.26.667 4.833.207.672.688 1.36.828 2.032.077.37-.317.81-.54 1.154-.498.771-1.233 1.634-1.387 2.567l.849-.229c-.606-.605-1.177-1.249-1.758-1.879-.384-.416-.92-.822-1.085-1.381-.461-1.568-.092-3.566.09-5.153.164-1.423.398-2.83.688-4.233.177-.858.364-1.719.629-2.554.117-.369.24-.775.44-1.109.057-.097.12-.232.215-.3-.197.043-.194.06.008.05.173.087.246.222.22.405-.001.463.89.331.892-.067.006-1.342-1.574-1.182-2.11-.307-.771 1.26-.987 2.963-1.275 4.39a45.593 45.593 0 0 0-.646 4.227c-.161 1.524-.433 3.316-.046 4.828.158.615.616.99 1.034 1.443.628.68 1.243 1.376 1.898 2.03.234.234.789.134.849-.228.16-.973 1.048-1.931 1.558-2.744.135-.214.463-.597.466-.875.004-.263-.313-.684-.405-.888-.166-.367-.311-.744-.439-1.126-1.133-3.394-.798-7.22-.884-10.75-.01-.464-.901-.329-.891.067" mask="url(#b)"/>
            <path fill="#BBDFF5" d="M23.526 36.272c-.155-.166-.34-.227-.572.01-.33.34-.532.905-.734 1.328-.167.35-.238.59.24.66.422.06.913-.03 1.34-.044.684-.023.247-1.095.08-1.39-.1-.178-.215-.414-.354-.564" mask="url(#b)"/>
            <path fill="#6A79A8" d="M23.93 36.083c-.799-.753-1.564.261-1.888.957-.138.296-.427.722-.388 1.065.042.372.468.455.777.481.472.04 1.062.023 1.524-.087.313-.074.592-.285.651-.617.104-.59-.318-1.368-.676-1.8-.24-.287-1.08.053-.809.38.217.26.389.582.5.904.048.141.104.306.106.457.001.059-.022.122-.02.178.182-.076.185-.1.008-.072-.067.004-.134.009-.2.015-.262.02-.573.083-.833.029-.207-.043-.14-.097-.064-.28.088-.212.188-.422.286-.629a4.691 4.691 0 0 1 .258-.475c.125-.1.111-.142-.04-.128.27.256 1.103-.1.808-.378M25.433 27.011c.03.786-1.167 1.633-2.016 1.774a2.098 2.098 0 0 1-1.335-.218c-.697-.387-1.311-1.438-.083-1.649.38-.065.768.013 1.137.103.219.054.39.066.61.11.285.058.596.113.865.01.145-.056.266-.155.418-.195.152-.041.399-.067.404.065M33.306 36.576c1.641.994 2.65 2.828 2.485 4.769-.168 1.978-1.557 3.375-3.274 4.185-2.078.98-4.475 1.27-6.726 1.583-.919.128-1.97.134-2.854.437-.5.172-.795.44-.78.993.003.137.886.005.88-.237-.02-.742 1.29-.701 1.864-.78.542-.074 1.083-.148 1.624-.228a40.311 40.311 0 0 0 3.288-.611c1.656-.39 3.353-.92 4.737-1.95 2.94-2.183 2.74-6.549-.414-8.459-.211-.128-.934.235-.83.298M12.707 34.12c-2.44.37-4.527-1.297-5.82-3.227-1.448-2.161-1.944-4.63-1.682-7.206.212-2.08.818-4.098 1.041-6.171.138-1.289.05-2.884-1.601-2.794-.281.015-.946.465-.361.433 1.828-.1.999 3.224.795 4.21-.513 2.472-1.127 5.144-.714 7.675.637 3.908 3.883 8.148 8.201 7.493.39-.059.756-.506.141-.413" mask="url(#b)"/>
            <path fill="#6A79A8" d="M36.96 55.825c-.35-4.755-1.257-9.47-2.294-14.116-.31-1.39-.637-2.775-.987-4.154-.034-.133-.085-.272-.104-.407-.032-.23-.082.13.033-.211.15-.446.276-.915.489-1.336.162-.32.482-.597.322-.97-.156-.364-.75-.6-1.074-.78-.644-.358-1.266-.704-1.825-1.19-.933-.811-1.825-1.754-2.66-2.666-.256-.279-1.094.07-.81.38.674.736 1.416 1.381 2.082 2.105.821.894 1.798 1.43 2.828 2.033.171.1.422.195.503.39.101.24-.08.37-.203.615-.222.438-.447 1.001-.538 1.487-.048.255-.034.342.029.598.83 3.386 1.606 6.781 2.224 10.214.492 2.73.9 5.478 1.105 8.245.028.376.91.17.88-.237M9.96 55.583c.57-4.168 1.297-8.32 2.32-12.4.492-1.956 1.132-3.854 1.702-5.785.338-1.145-.428-1.269-1.431-1.339l.163.157c.44-1.235.534-2.623.743-3.91l-.615.29c1.08-.014 2.194.23 3.152-.423.87-.592 1.395-1.3 2.052-2.143.22-.28-.65-.196-.812.01-.459.59-.793 1.234-1.436 1.615-1.009.599-1.574.475-2.6.488-.15.002-.583.082-.617.29-.21 1.287-.302 2.674-.743 3.91-.035.097.09.151.163.157.448.03 1.137-.036 1.216.51.073.513-.393 1.35-.541 1.81a74.15 74.15 0 0 0-1.6 5.843c-.851 3.644-1.486 7.338-1.992 11.046-.042.305.839.143.876-.126" mask="url(#b)"/>
        </g>
        <path fill="#6A79A8" d="M69.568 44.647c-.05 9.189-5.8 17.702-14.445 20.834-8.698 3.151-18.647.076-24.374-7.139-5.655-7.124-6.376-17.326-1.795-25.192 4.766-8.183 14.447-12.442 23.64-10.223 8.653 2.088 15.374 9.458 16.718 18.307a23.6 23.6 0 0 1 .256 3.413c.002.203.882.057.88-.238-.053-9.568-6.222-18.275-15.265-21.323-8.805-2.967-18.888-.124-24.873 7.019-6.217 7.42-6.989 18.37-1.797 26.569 5.074 8.012 14.748 11.938 23.946 9.944 9.065-1.966 16.322-9.475 17.73-18.745.174-1.147.253-2.304.26-3.464 0-.2-.879-.058-.88.238"/>
        <path fill="#45689A" d="M55.406 79.509c-.038.705-.482 1.45-1.281 1.364-.723-.076-1.226-.794-1.223-1.487.004-.756.597-1.479 1.399-1.297.705.16 1.071.815 1.108 1.496.019.353.901.155.88-.237-.14-2.627-4.288-2.339-4.28.199.007 2.657 4.15 2.386 4.284-.123.022-.422-.868-.273-.887.085M50.373 79.466c0 1.05-.845 1.9-1.888 1.9a1.894 1.894 0 0 1-1.888-1.9c0-1.05.845-1.9 1.888-1.9s1.888.85 1.888 1.9M44.08 79.585c-.047.867-.773 1.742-1.704 1.203a1.67 1.67 0 0 1-.815-1.44c.003-.813.707-1.658 1.57-1.265.604.276.914.854.949 1.502.01.179.894.026.88-.237-.138-2.572-4.292-2.171-4.28.237.015 2.6 4.153 2.139 4.28-.237.008-.153-.865-.04-.88.237"/>
        <path fill="#FFF" d="M39.343 108.367c.091-.97.185-1.941.284-2.911.164-1.624.341-3.247.538-4.867.599-4.923-.212-9.21-3.212-13.302-3.187-4.346-7.986-7.104-12.32-10.129-1.973-1.377-4.107-3.237-6.379-4.397v-24.43c0-4.286-3.452-7.76-7.711-7.76h-.068c-4.253 0-7.702 3.47-7.702 7.75v28.86c-.13 1.221.083 2.419.154 3.598.06 1.009.157 1.99.245 2.99.093 1.055.222 2.107.373 3.155.295 2.05.678 4.085 1.072 6.117.74 3.813 3.655 6.835 6.164 9.584 2.358 2.583 2.872 7.532 3.002 11.312l25.56-5.57"/>
        <path fill="#6A79A8" d="M39.783 108.248c.23-2.422.472-4.842.76-7.257.241-2.032.354-4.061.062-6.095-.551-3.848-2.482-7.266-5.16-10.025-2.841-2.925-6.334-5.075-9.67-7.364-1.69-1.158-3.277-2.456-4.968-3.609-.433-.295-.874-.58-1.326-.844-.139-.08-.72-.284-.787-.428-.034-.075.012-.223 0-.303-.183-1.296 0-2.755 0-4.062v-6.827-12.25c0-1.662-.144-3.255-.974-4.75-1.47-2.648-4.323-4.154-7.31-4.044-2.89.107-5.675 1.67-7.098 4.234-.81 1.46-.979 3.023-.979 4.651v24.688c0 1.065.027 2.135 0 3.2-.086 3.492.344 7.11.873 10.562.332 2.164.6 4.464 1.255 6.556.57 1.816 1.61 3.435 2.775 4.92 1.201 1.53 2.773 2.851 3.825 4.487.95 1.477 1.435 3.23 1.753 4.945.331 1.788.463 3.607.53 5.422.005.162.89.02.88-.237-.106-2.873-.336-5.864-1.386-8.566-1.084-2.789-3.548-4.652-5.277-7.02-.906-1.241-1.693-2.585-2.175-4.052-.541-1.65-.759-3.45-1.05-5.16-.605-3.544-1.05-7.202-1.157-10.799-.059-1.971.035-3.972.035-5.946V61.35 51.181c0-2.47-.19-4.925 1.211-7.12 1.638-2.565 4.662-3.82 7.61-3.089 2.635.654 4.757 2.752 5.492 5.376.588 2.101.287 4.623.287 6.776V72.88l.026.034c2.639 1.382 4.896 3.391 7.35 5.065 2.332 1.592 4.714 3.12 6.907 4.908 4.513 3.68 7.694 8.55 7.808 14.53.034 1.748-.209 3.47-.403 5.201-.22 1.954-.414 3.91-.6 5.867-.012.128.855.036.88-.237"/>
        <path fill="#E5E5E5" d="M61.069 51.97c-2.732-3.27-2.313-8.15.937-10.9l15.244-12.9a7.604 7.604 0 0 1 10.76.937l.082.098c2.705 3.238 2.29 8.07-.927 10.792L71.9 52.913a7.654 7.654 0 0 1-10.831-.943"/>
        <path fill="#94C5E3" d="M67.436 85.357c-2.215-2.651-1.875-6.608.76-8.837l12.5-10.578a6.162 6.162 0 0 1 8.721.76l.048.057c2.204 2.638 1.866 6.574-.755 8.792l-12.493 10.57a6.205 6.205 0 0 1-8.78-.764"/>
        <path fill="#94C5E3" d="M63.292 70.387c-2.785-3.334-2.357-8.309.955-11.112l14.007-11.852a7.737 7.737 0 0 1 10.948.954l.082.097c2.763 3.308 2.339 8.245-.948 11.026L74.333 71.35a7.802 7.802 0 0 1-11.041-.962"/>
        <path fill="#FFF" d="M62.892 51.053c-2.733-3.27-2.313-8.151.937-10.9l15.244-12.9a7.604 7.604 0 0 1 10.76.937l.082.098c2.705 3.238 2.29 8.07-.928 10.792L73.723 51.996a7.654 7.654 0 0 1-10.831-.943"/>
        <path fill="#6A79A8" d="M63.302 50.886c-2.658-3.182-2.213-7.992.89-10.69 1.19-1.035 2.408-2.038 3.61-3.056l11.305-9.565c2.757-2.333 6.582-2.549 9.403-.14 3.333 2.843 3.703 8.122.516 11.238-1.058 1.036-2.269 1.943-3.397 2.898l-6.48 5.482-5.463 4.624c-1.084.916-2.278 1.61-3.702 1.827-2.537.387-5.024-.7-6.682-2.618-.182-.21-1.022.1-.82.334 2.743 3.176 7.498 3.69 10.935 1.329 1.441-.991 2.736-2.259 4.069-3.387 3.919-3.316 7.857-6.61 11.758-9.948 2.913-2.495 3.811-6.736 1.789-10.095-2.146-3.563-6.66-4.84-10.398-3.13-1.706.78-3.14 2.249-4.56 3.45l-7.108 6.015c-1.738 1.47-3.479 2.938-5.215 4.412-2.552 2.167-3.798 5.505-2.707 8.785a7.93 7.93 0 0 0 1.436 2.569c.178.212 1.02-.095.821-.334"/>
        <path fill="#FFF" d="M69.259 84.44c-2.215-2.652-1.875-6.608.76-8.838l12.5-10.577a6.162 6.162 0 0 1 8.721.76l.048.057c2.204 2.638 1.865 6.574-.756 8.792L78.04 85.204a6.205 6.205 0 0 1-8.781-.764"/>
        <path fill="#6A79A8" d="M69.661 84.242c-2.126-2.545-1.76-6.308.702-8.47 1.006-.884 2.046-1.732 3.068-2.597 3.035-2.567 6.062-5.143 9.104-7.703 2.168-1.824 5.135-2.146 7.443-.326 2.816 2.22 3.107 6.622.457 9.103-2.508 2.346-5.269 4.465-7.89 6.682a97283.67 97283.67 0 0 1-4.474 3.787c-2.566 2.171-6.127 2.144-8.41-.476-.272-.312-1.105.05-.804.396 2.322 2.665 6.314 3.146 9.167 1.022 1.15-.855 2.212-1.853 3.305-2.778 3.154-2.669 6.353-5.292 9.465-8.01 2.4-2.094 3.142-5.57 1.494-8.38-1.707-2.91-5.395-4.02-8.45-2.685-1.446.632-2.669 1.9-3.86 2.908l-5.854 4.953c-1.45 1.226-2.92 2.432-4.35 3.68-2.697 2.355-3.283 6.458-.917 9.29.265.317 1.1-.042.804-.396"/>
        <path fill="#FFF" d="M65.115 69.47c-2.786-3.334-2.358-8.309.955-11.112l14.007-11.852a7.737 7.737 0 0 1 10.948.954l.081.097c2.764 3.308 2.34 8.245-.947 11.026L76.156 70.43a7.802 7.802 0 0 1-11.041-.96"/>
        <path fill="#6A79A8" d="M65.526 69.306c-2.71-3.243-2.258-8.141.892-10.902 1.058-.928 2.15-1.82 3.224-2.729 3.523-2.98 7.038-5.97 10.568-8.942 2.786-2.345 6.691-2.44 9.495-.032 3.056 2.626 3.706 7.299 1.281 10.578-.977 1.322-2.467 2.352-3.71 3.403l-6.052 5.121c-1.721 1.457-3.44 2.916-5.163 4.369-3.245 2.735-7.751 2.357-10.535-.866-.173-.2-1.011.109-.823.328 2.658 3.076 7.184 3.714 10.657 1.655 1.519-.9 2.85-2.255 4.19-3.39 3.645-3.084 7.332-6.124 10.938-9.255 2.971-2.58 3.806-6.97 1.672-10.365-2.111-3.358-6.285-4.635-9.95-3.267-1.838.686-3.272 2.118-4.747 3.366l-6.729 5.693c-1.611 1.364-3.227 2.722-4.834 4.091-2.59 2.207-3.769 5.683-2.62 8.976.318.908.808 1.76 1.423 2.496.17.202 1.01-.104.823-.328M70.99 83.44c-1.44-1.636-1.14-4.022.401-5.45.877-.813 1.771-1.757 2.766-2.423 2.315-1.553 5.21.702 5.268 3.212.044 1.915-1.3 2.971-2.582 4.114-.494.44-.975.948-1.526 1.317-1.435.963-3.22.408-4.327-.77-.172-.184-.998.133-.825.317 1.706 1.816 4.495 1.722 6.321.136 1.243-1.079 3.038-2.272 3.6-3.89.902-2.594-1.09-5.265-3.761-5.34-2.135-.058-3.488 1.356-4.962 2.67-.804.717-1.612 1.387-1.98 2.448a4.048 4.048 0 0 0 .782 3.976c.164.186.996-.124.825-.318"/>
        <path fill="#6A79A8" d="M66.922 68.159c-1.768-2.008-1.387-4.963.53-6.695.606-.548 1.22-1.088 1.829-1.631.607-.542 1.219-1.189 1.952-1.554 2.916-1.455 6.103 1.407 6.075 4.365-.021 2.296-1.708 3.557-3.249 4.932-.642.572-1.286 1.264-2.04 1.688-1.737.98-3.813.277-5.097-1.105-.15-.161-.962.158-.83.3 2.03 2.185 5.337 2.025 7.516.16.79-.677 1.553-1.385 2.328-2.077.86-.767 1.644-1.529 2.014-2.669 1.01-3.112-1.382-6.263-4.578-6.31-2.523-.036-4.128 1.663-5.873 3.218-.916.817-1.836 1.574-2.295 2.764a4.847 4.847 0 0 0 .888 4.914c.142.162.96-.151.83-.3M64.522 49.766c-1.767-2.008-1.385-4.96.532-6.692.606-.547 1.22-1.087 1.829-1.63.608-.543 1.217-1.188 1.952-1.553 2.918-1.45 6.102 1.399 6.075 4.361-.022 2.295-1.71 3.556-3.25 4.93-.642.572-1.286 1.264-2.04 1.686-1.74.976-3.811.282-5.098-1.102-.152-.165-.967.154-.829.302 2.027 2.181 5.343 2.037 7.517.16.787-.678 1.552-1.384 2.328-2.076.86-.767 1.643-1.53 2.014-2.67 1.01-3.112-1.383-6.266-4.58-6.314-2.522-.038-4.129 1.664-5.872 3.219-.917.817-1.836 1.574-2.295 2.765a4.853 4.853 0 0 0 .888 4.916c.146.166.966-.147.83-.302"/>
    </g>
</svg>
