<svg xmlns="http://www.w3.org/2000/svg" width="17" height="21" viewBox="0 0 17 21">
    <g fill="none" fill-rule="evenodd">
        <path fill="#FFF" d="M-376-26h1440v694H-376z"/>
        <g fill="#A5A5A5" fill-rule="nonzero">
            <path d="M3.168 0h11.2c.62 0 1.135.25 1.548.6.413.4.62.9.62 1.5v16.75c0 .6-.259 1.1-.62 1.5-.413.4-.929.6-1.548.6h-11.2c-.62 0-1.136-.25-1.549-.6-.413-.4-.619-.9-.619-1.5V2.1c0-.6.258-1.1.62-1.5.36-.35.928-.6 1.548-.6zm4.284 19h2.58v-1.15h-2.58V19zM6.935 2.55h3.407v-.5H6.935v.5zm7.381-1.3h-11.2c-.258 0-.464.1-.62.25a.816.816 0 0 0-.257.6v16.75c0 .25.103.45.258.6.155.15.361.25.62.25h11.2c.257 0 .464-.1.618-.25a.816.816 0 0 0 .259-.6V2.1c0-.25-.104-.45-.259-.6a.868.868 0 0 0-.619-.25z"/>
            <path d="M13.542 3.2l-9.755.05h-.361V17.3H13.903V3.2h-.361zm-.361 13.45H4.2V4h8.98v12.65z"/>
            <path d="M6.058 4.4L4.716 6.2v1.6l2.58-3.4z"/>
        </g>
    </g>
</svg>
