<svg xmlns="http://www.w3.org/2000/svg" width="42" height="42" viewBox="0 0 42 42">
    <g fill="none" fill-rule="nonzero">
        <path fill="#000" d="M42 21c0 11.598-9.402 21-21 21a20.933 20.933 0 0 1-14.785-6.087A20.935 20.935 0 0 1 0 21C0 9.402 9.402 0 21 0s21 9.402 21 21z"/>
        <path fill="#ECF0F1" d="M31.865 34.818a4.804 4.804 0 0 0-1.842.127 4.88 4.88 0 0 0-2.977-3.456 2.374 2.374 0 0 0-2.506-2.578 3.326 3.326 0 1 0-6.425-.346 2.007 2.007 0 0 0-1.641 1.855 5.016 5.016 0 0 0-4.302 3.165 5.13 5.13 0 0 0-2.257 1.38 7.196 7.196 0 0 0-2.791-.56c-.649 0-1.276.086-1.874.247A21.347 21.347 0 0 0 21.396 42c6.733 0 12.738-3.109 16.666-7.97a4.006 4.006 0 0 0-6.198.788zM5.358 18.534c.15-.146.296-.098.323.107l.036.263a.802.802 0 0 0 .394.542l.244.121c.19.094.187.243-.004.332l-.247.114a.804.804 0 0 0-.41.532l-.042.263c-.034.203-.18.248-.327.098l-.188-.193a.84.84 0 0 0-.647-.213l-.27.041c-.21.033-.299-.09-.197-.27l.13-.234a.78.78 0 0 0 .01-.664l-.125-.237c-.096-.184-.004-.304.205-.266l.269.049a.841.841 0 0 0 .652-.197l.194-.188z" opacity=".5"/>
        <path fill="#ECF0F1" d="M8.733 8.058c.027-.196.167-.242.312-.103l.238.228a.82.82 0 0 0 .63.187l.33-.06c.202-.035.291.079.198.254l-.152.288a.737.737 0 0 0 .01.633l.16.283c.098.173.013.29-.19.259l-.331-.05a.817.817 0 0 0-.625.204l-.23.234c-.142.143-.284.101-.316-.093l-.053-.318a.769.769 0 0 0-.396-.507l-.303-.139c-.185-.084-.187-.227-.005-.317l.3-.146a.766.766 0 0 0 .38-.518l.043-.32zM36.925 22.49c.047-.202.197-.237.333-.077l.49.578c.136.16.42.276.632.258l.765-.068c.212-.018.292.11.178.286l-.41.634a.792.792 0 0 0-.056.668l.302.69c.084.191-.017.306-.223.254l-.744-.186a.841.841 0 0 0-.666.155l-.578.494c-.16.137-.303.079-.317-.129l-.049-.749a.806.806 0 0 0-.356-.572l-.66-.385c-.182-.106-.17-.257.028-.333l.714-.277a.814.814 0 0 0 .446-.509l.17-.731z"/>
        <path fill="#ECF0F1" d="M32.88 10.627c.144-.147.291-.107.328.09l.05.27a.787.787 0 0 0 .418.51l.262.114c.193.083.198.228.01.322l-.255.128a.78.78 0 0 0-.385.533l-.033.271c-.025.2-.17.248-.322.109l-.207-.19a.858.858 0 0 0-.656-.181l-.283.054c-.208.04-.302-.075-.21-.255l.128-.245a.74.74 0 0 0-.02-.646l-.142-.237c-.105-.175-.018-.295.192-.267l.286.038c.21.029.5-.07.644-.217l.195-.2z" opacity=".5"/>
        <g>
            <g transform="translate(14.62 9.45)">
                <circle cx="6.785" cy="6.785" r="6.785" fill="#ECF0F1"/>
                <g fill="#8FCC92">
                    <path d="M3.08 3a.498.498 0 0 1-.25-.123.3.3 0 0 1 0-.433c.558-.496 1.24-.934 1.979-1.18.186-.063.308 0 .372.188.064.186 0 .31-.186.373-.617.24-1.234.555-1.729 1.052-.064.122-.128.122-.186.122zM1.224 7.162c-.187 0-.309-.123-.309-.31 0-.934.186-1.798.617-2.61.064-.122.25-.186.43-.122.123.064.187.25.123.432a5.281 5.281 0 0 0-.558 2.359c.005.123-.117.25-.303.25z"/>
                </g>
                <path fill="#DCDCDC" d="M10.558 1.212c.74 1.052 1.167 2.35 1.167 3.775 0 3.776-3.011 6.807-6.762 6.807a6.424 6.424 0 0 1-3.751-1.175c1.23 1.792 3.26 3.031 5.595 3.031 3.75 0 6.762-3.031 6.762-6.807 0-2.35-1.167-4.45-3.011-5.631z"/>
                <path fill="#0E9347" d="M6.183 8.562a.55.55 0 0 1-.377-.154L3.952 6.556a.53.53 0 0 1 .75-.748l1.476 1.475 3.337-3.332a.53.53 0 0 1 .749.748L6.555 8.408a.514.514 0 0 1-.372.154z"/>
            </g>
            <path fill="#C97629" d="M23.256 33.762H10.952c-.37 0-.614-.25-.614-.616V18.335h12.924v15.427h-.006z"/>
            <path fill="#C97629" d="M23.256 33.762H10.952c-.37 0-.614-.25-.614-.616V18.335h12.924v15.427h-.006z"/>
            <path fill="#B06328" d="M23.262 33.762h8.67c.373 0 .618-.25.618-.616V18.335h-9.288v15.427z"/>
            <path fill="#B06328" d="M23.262 33.762h8.67c.373 0 .618-.25.618-.616V18.335h-9.288v15.427zM10.957 33.146v-7.403c0-.679.555-1.235 1.232-1.235h9.354c.307 0 .555-.186.613-.494l1.106-5.68H10.338V33.147c0 .372.249.616.614.616h12.304a2.145 2.145 0 0 0-1.475-.616H10.957z"/>
            <path fill="#A35425" d="M31.933 18.335h-8.671l1.112 5.68a.603.603 0 0 0 .617.493h5.701c.682 0 1.24.556 1.24 1.235v7.403h-7.185a2.18 2.18 0 0 0-1.485.616h8.67c.373 0 .618-.25.618-.616V18.335h-.617z"/>
            <path fill="#C97629" d="M27.022 23.262h7.337c.37 0 .614-.308.614-.615 0-.122 0-.249-.122-.307l-2.341-4.005h-9.248l2.712 4.376c.249.307.614.55 1.048.55z"/>
            <path fill="#DA8C36" d="M19.496 23.262H8.45a.615.615 0 0 1-.615-.615c0-.122 0-.249.122-.307l2.344-4.005h12.96l-2.715 4.376c-.244.307-.615.55-1.05.55z"/>
            <g fill="#FFCB5B">
                <path d="M11.816 29.448h3.668c.184 0 .305.118.305.298s-.121.297-.305.297h-3.668c-.184 0-.305-.118-.305-.297 0-.18.121-.298.305-.298zM11.816 30.703h2.444c.183 0 .304.118.304.297 0 .18-.12.298-.304.298h-2.444c-.184 0-.305-.118-.305-.298 0-.179.121-.297.305-.297z"/>
            </g>
        </g>
    </g>
</svg>
