<svg xmlns="http://www.w3.org/2000/svg" width="34" height="29" viewBox="0 0 34 29">
    <g fill="#6C717D" fill-rule="nonzero">
        <path d="M30.01 8.89h-3.57V3.696C26.436 1.75 24.541.175 22.204.173H4.51C3.385.171 2.304.541 1.507 1.203.71 1.862.26 2.76.26 3.697v11.918c.003.936.452 1.832 1.25 2.492.796.66 1.876 1.029 3 1.027h2.127v4.04c0 .293.21.557.535.669.325.112.698.05.946-.157l5.447-4.552h1.041v1.899c.002 1.707 1.66 3.093 3.712 3.103H22.6l4.603 3.824a.999.999 0 0 0 .947.157c.324-.111.536-.375.535-.667v-3.314h1.325c2.06-.002 3.728-1.39 3.73-3.103v-9.04c-.002-1.714-1.67-3.102-3.73-3.103zm-16.806 8.801a.964.964 0 0 0-.614.211l-4.232 3.519v-3.008a.666.666 0 0 0-.254-.51.963.963 0 0 0-.614-.212H4.51c-.664.003-1.303-.214-1.775-.603-.472-.39-.738-.919-.74-1.472V3.698c0-.554.265-1.085.737-1.476.473-.39 1.112-.608 1.778-.605h17.694c1.382 0 2.502.931 2.502 2.08v11.919c-.004 1.147-1.123 2.075-2.502 2.075h-9zm18.801 3.343c0 .917-.893 1.66-1.995 1.66h-2.192c-.48 0-.868.323-.868.721v2.31l-3.379-2.806a.964.964 0 0 0-.614-.21h-4.639a2.219 2.219 0 0 1-1.428-.487c-.378-.315-.589-.743-.584-1.188v-1.9h5.898c2.336-.001 4.23-1.574 4.236-3.518v-5.282h3.57c1.102 0 1.995.743 1.995 1.66v9.04z"/>
        <path d="M13.402 4.672l.005-.002a2.788 2.788 0 0 1 1.15 5.285 1.044 1.044 0 0 0-.595.935v.29a.634.634 0 0 1-1.267 0v-.3-.015c.012-.87.514-1.66 1.297-2.04a1.52 1.52 0 0 0-.626-2.88c-.41-.016-.81.139-1.102.428-.295.285-.46.678-.46 1.088a.634.634 0 1 1-1.267 0 2.788 2.788 0 0 1 2.865-2.789zm-.079 8.5a.634.634 0 0 1 .634.633v.231a.634.634 0 1 1-1.268 0v-.23c0-.35.284-.634.634-.634z"/>
    </g>
</svg>
