<svg xmlns="http://www.w3.org/2000/svg" width="34" height="34" viewBox="0 0 34 34">
    <g fill="#6C717D" fill-rule="nonzero">
        <path d="M30.01 10.651h-3.57V4.406A4.24 4.24 0 0 0 22.204.173H4.51A4.24 4.24 0 0 0 .26 4.41v14.325a4.24 4.24 0 0 0 4.25 4.229h2.127v4.857a.867.867 0 0 0 1.481.614l5.447-5.471h1.041v2.283a3.733 3.733 0 0 0 3.712 3.73H22.6l4.603 4.596a.867.867 0 0 0 1.482-.614v-3.983h1.325a3.733 3.733 0 0 0 3.73-3.73V14.382a3.733 3.733 0 0 0-3.73-3.73zM13.204 21.229c-.23 0-.45.09-.614.253l-4.232 4.23v-3.615a.867.867 0 0 0-.868-.868H4.51a2.501 2.501 0 0 1-2.515-2.494V4.41A2.501 2.501 0 0 1 4.51 1.908h17.694a2.501 2.501 0 0 1 2.502 2.502v14.325a2.501 2.501 0 0 1-2.502 2.494h-9zm18.801 4.018a1.995 1.995 0 0 1-1.995 1.995h-2.192a.867.867 0 0 0-.868.867v2.775l-3.379-3.372a.867.867 0 0 0-.614-.253h-4.639a1.995 1.995 0 0 1-2.012-2.012v-2.283h5.898a4.24 4.24 0 0 0 4.236-4.23v-6.348h3.57c1.102 0 1.995.893 1.995 1.995v10.866z"/>
        <path d="M13.458 4.673a3.816 3.816 0 0 0-3.92 3.817.867.867 0 1 0 1.734 0A2.06 2.06 0 0 1 11.9 7c.4-.396.947-.608 1.51-.586a2.082 2.082 0 0 1 .856 3.941 3.154 3.154 0 0 0-1.776 2.793v.43a.867.867 0 0 0 1.734 0v-.395a1.43 1.43 0 0 1 .816-1.28 3.816 3.816 0 0 0-1.575-7.234l-.007.003zM13.35 16.306a.867.867 0 0 0-.867.867v.316a.867.867 0 0 0 1.735 0v-.316a.867.867 0 0 0-.868-.867z"/>
    </g>
</svg>
