<svg xmlns="http://www.w3.org/2000/svg" width="72" height="71" viewBox="0 0 72 71">
    <g fill="none" fill-rule="evenodd">
        <path fill="#C8C7CC" d="M43.16 53.174c-3.902 0-6.958-3.05-6.958-6.942 0-.763.62-1.381 1.385-1.381H48.73c.765 0 1.385.618 1.385 1.381 0 3.892-3.056 6.942-6.957 6.942zm-3.972-5.56c.547 1.661 2.073 2.796 3.971 2.796 1.898 0 3.424-1.135 3.97-2.796h-7.94z"/>
        <path fill="#FFDC0D" d="M43.397 28.722c-3.307 0-10.997-.347-10.997-3.569 0-3.221 7.69-3.569 10.997-3.569 3.306 0 10.997.348 10.997 3.57 0 3.221-7.69 3.568-10.997 3.568zm-7.277-3.569c1.35.4 3.826.806 7.277.806s5.927-.405 7.277-.806c-1.35-.399-3.826-.806-7.277-.806s-5.927.407-7.277.806z"/>
        <path fill="#C8C7CC" d="M55.547 37.747a1.383 1.383 0 0 1-1.384-1.381.808.808 0 0 0-1.616 0c0 .763-.619 1.381-1.384 1.381a1.383 1.383 0 0 1-1.385-1.381 3.577 3.577 0 0 1 7.154 0c0 .763-.62 1.381-1.385 1.381M34.778 37.747a1.383 1.383 0 0 1-1.384-1.381.808.808 0 0 0-1.616 0c0 .763-.62 1.381-1.384 1.381a1.383 1.383 0 0 1-1.385-1.381 3.577 3.577 0 0 1 7.154 0c0 .763-.62 1.381-1.385 1.381"/>
        <path fill="#FFDC0D" d="M35.86 70.617c-.459 0-.908-.228-1.171-.644L22.372 50.5a1.38 1.38 0 0 1 .432-1.906 1.387 1.387 0 0 1 1.91.431L37.03 68.5a1.38 1.38 0 0 1-1.17 2.118"/>
        <path fill="#FFDC0D" d="M21.487 51.504c-.482 0-.967-.06-1.446-.181a5.785 5.785 0 0 1-3.57-2.663 5.762 5.762 0 0 1-.638-4.4 5.774 5.774 0 0 1 2.668-3.563 5.797 5.797 0 0 1 4.411-.636 5.783 5.783 0 0 1 3.57 2.662 5.762 5.762 0 0 1 .638 4.401 5.773 5.773 0 0 1-2.669 3.562 5.792 5.792 0 0 1-2.964.818zm-.016-8.86c-.542 0-1.077.145-1.555.429a3.027 3.027 0 0 0-1.4 1.867c-.2.79-.081 1.609.336 2.308a3.031 3.031 0 0 0 1.871 1.397 3.05 3.05 0 0 0 2.314-.334 3.027 3.027 0 0 0 1.399-1.868 3.02 3.02 0 0 0-.335-2.308 3.036 3.036 0 0 0-1.872-1.396 3.09 3.09 0 0 0-.758-.095z"/>
        <path fill="#C8C7CC" d="M23.69 10.819c-2.807 0-5.09-2.279-5.09-5.079S20.883.663 23.69.663c2.805 0 5.088 2.277 5.088 5.077s-2.283 5.079-5.089 5.079zm0-7.393a2.32 2.32 0 0 0-2.32 2.314 2.32 2.32 0 0 0 4.639 0 2.32 2.32 0 0 0-2.32-2.314zM67.535 25.543a4.154 4.154 0 0 1-4.153-4.145 4.154 4.154 0 0 1 8.307 0 4.154 4.154 0 0 1-4.154 4.145zm0-5.526c-.763 0-1.384.62-1.384 1.381a1.385 1.385 0 0 0 2.769 0c0-.761-.621-1.381-1.385-1.381zM4.305 36.596A4.154 4.154 0 0 1 .15 32.45a4.154 4.154 0 0 1 8.307 0 4.154 4.154 0 0 1-4.153 4.145zm0-5.527c-.764 0-1.385.62-1.385 1.382a1.385 1.385 0 0 0 2.77 0c0-.762-.622-1.382-1.385-1.382zM63.843 67.003c-2.806 0-5.089-2.278-5.089-5.078 0-2.8 2.283-5.078 5.09-5.078 2.805 0 5.088 2.278 5.088 5.078 0 2.8-2.283 5.078-5.089 5.078zm0-7.393a2.32 2.32 0 0 0-2.32 2.315 2.32 2.32 0 0 0 4.64 0 2.32 2.32 0 0 0-2.32-2.315z"/>
        <path fill="#FFDC0D" d="M30.721 59.898l3.509-2.264a1.175 1.175 0 0 1 1.621.344 1.162 1.162 0 0 1-.342 1.613l-3.51 2.264a1.175 1.175 0 0 1-1.62-.344 1.162 1.162 0 0 1 .342-1.613zM35.417 66.188l2.408-1.554a1.175 1.175 0 0 1 1.621.344 1.162 1.162 0 0 1-.343 1.613l-2.407 1.554a1.175 1.175 0 0 1-1.622-.345 1.162 1.162 0 0 1 .343-1.612zM33.069 62.49l1.5-.967a1.175 1.175 0 0 1 1.621.344 1.162 1.162 0 0 1-.342 1.613l-1.5.968a1.175 1.175 0 0 1-1.622-.345 1.162 1.162 0 0 1 .343-1.612z"/>
    </g>
</svg>
