<svg xmlns="http://www.w3.org/2000/svg" width="48" height="47" viewBox="0 0 48 47">
    <g fill="#000" fill-rule="nonzero">
        <path stroke="#FFF" stroke-width=".6" d="M24 1C11.278 1 1 11.055 1 23.5S11.278 46 24 46s23-10.055 23-22.5S36.722 1 24 1zm0 42.188c-11.069 0-20.125-8.86-20.125-19.688S12.931 3.812 24 3.812s20.125 8.86 20.125 19.688S35.141 43.188 24 43.188z"/>
        <path d="M25.294 16.469h-7.547l5.822-5.696-2.013-1.968-9.272 9.07 9.991 9.773 2.013-1.968-6.541-6.399h7.547c3.953 0 7.187 3.164 7.187 7.032 0 3.867-3.234 7.03-7.187 7.03H23.28v2.813h2.013c5.534 0 10.062-4.43 10.062-9.843 0-5.415-4.528-9.844-10.062-9.844z"/>
    </g>
</svg>
