<svg xmlns="http://www.w3.org/2000/svg" xmlns:xlink="http://www.w3.org/1999/xlink" width="100" height="68" viewBox="0 0 100 68">
    <defs>
        <path id="a" d="M.492 3.17a2.95 2.95 0 0 0 2.946 2.954A2.95 2.95 0 0 0 6.385 3.17 2.95 2.95 0 0 0 3.438.217 2.95 2.95 0 0 0 .492 3.17z"/>
        <path id="c" d="M.223 2.724c0 1.185.96 2.146 2.144 2.146 1.183 0 2.143-.96 2.143-2.146 0-1.187-.96-2.149-2.143-2.149A2.147 2.147 0 0 0 .223 2.724z"/>
        <path id="e" d="M.492 2.275c0 1.187.959 2.148 2.143 2.148 1.183 0 2.143-.961 2.143-2.148 0-1.186-.96-2.147-2.143-2.147-1.184 0-2.143.96-2.143 2.147z"/>
        <path id="g" d="M.581 2.365c0 1.186.96 2.148 2.143 2.148a2.146 2.146 0 0 0 2.143-2.148 2.144 2.144 0 0 0-4.286 0z"/>
        <path id="i" d="M.313 1.47a1.25 1.25 0 0 0 2.5 0A1.25 1.25 0 0 0 1.563.217c-.69 0-1.25.56-1.25 1.253z"/>
        <path id="k" d="M.581.844a.715.715 0 0 0 1.429 0 .715.715 0 0 0-1.429 0z"/>
        <path id="m" d="M.313.844a.715.715 0 0 0 1.429 0 .715.715 0 0 0-1.429 0z"/>
        <path id="o" d="M.224 1.023a.715.715 0 0 0 1.429 0 .715.715 0 0 0-1.429 0z"/>
        <path id="q" d="M.046 1.202c0 .394.32.715.714.715a.715.715 0 1 0 0-1.43.714.714 0 0 0-.714.715z"/>
        <path id="s" d="M.223 1.291a.715.715 0 0 0 1.43 0A.715.715 0 0 0 .94.575a.717.717 0 0 0-.717.716z"/>
        <path id="u" d="M.492 1.917a1.251 1.251 0 0 0 2.5 0 1.251 1.251 0 0 0-2.5 0z"/>
        <path id="w" d="M.67 2.544c0 1.087.88 1.968 1.965 1.968a1.966 1.966 0 0 0 1.963-1.968A1.966 1.966 0 0 0 2.635.575 1.967 1.967 0 0 0 .67 2.544z"/>
        <path id="y" d="M.223 1.38a1.251 1.251 0 0 0 2.5 0h.001c0-.691-.56-1.252-1.25-1.252S.224.688.224 1.38z"/>
        <path id="A" d="M.492 2.007a1.251 1.251 0 0 0 2.5 0 1.251 1.251 0 0 0-2.5 0z"/>
        <path id="C" d="M.67 1.828c0 .692.56 1.253 1.25 1.253s1.252-.56 1.252-1.253c0-.69-.562-1.253-1.252-1.253S.67 1.137.67 1.828z"/>
        <path id="E" d="M.85 1.649a1.251 1.251 0 0 0 2.5 0C3.35.957 2.79.396 2.1.396 1.408.396.85.957.85 1.65z"/>
        <path id="G" d="M.224 1.56a1.251 1.251 0 0 0 2.5 0 1.25 1.25 0 0 0-2.5 0z"/>
        <path id="I" d="M.135 2.812A2.324 2.324 0 0 0 2.456 5.14a2.325 2.325 0 0 0 2.322-2.327 2.322 2.322 0 0 0-4.643 0z"/>
        <path id="K" d="M3.528.412A2.951 2.951 0 0 0 .904 3.655 2.949 2.949 0 0 0 4.14 6.284 2.95 2.95 0 0 0 6.764 3.04 2.948 2.948 0 0 0 3.838.395c-.103 0-.207.005-.31.017z"/>
        <path id="M" d="M2.095.453A2.145 2.145 0 0 0 .187 2.81 2.144 2.144 0 0 0 2.54 4.723a2.145 2.145 0 0 0 1.907-2.36A2.143 2.143 0 0 0 2.321.44c-.075 0-.15.004-.226.013z"/>
        <path id="O" d="M1.943.875a2.147 2.147 0 0 0-1.908 2.36A2.145 2.145 0 0 0 2.39 5.146a2.147 2.147 0 0 0 1.907-2.36A2.146 2.146 0 0 0 2.167.863c-.073 0-.148.004-.224.012z"/>
        <path id="Q" d="M2.43.518a2.145 2.145 0 0 0-1.908 2.36A2.143 2.143 0 0 0 2.876 4.79a2.145 2.145 0 0 0 1.907-2.36A2.144 2.144 0 0 0 2.654.505c-.074 0-.149.004-.225.012z"/>
        <path id="S" d="M1.946.732c-.042 0-.086.003-.13.006A1.254 1.254 0 0 0 .703 2.115 1.249 1.249 0 0 0 2.076 3.23 1.253 1.253 0 1 0 1.948.732h-.002z"/>
        <path id="U" d="M1.167.17a.715.715 0 0 0-.636.786.715.715 0 0 0 .784.638.715.715 0 1 0-.073-1.428l-.075.003z"/>
        <path id="W" d="M1.4.519a.717.717 0 0 0-.637.787.715.715 0 0 0 1.42-.15.714.714 0 0 0-.709-.642A.717.717 0 0 0 1.4.52z"/>
        <path id="Y" d="M.992.405a.718.718 0 0 0-.636.788.715.715 0 0 0 1.422-.15.716.716 0 0 0-.71-.641c-.024 0-.05 0-.076.003z"/>
        <path id="aa" d="M1.04.35a.716.716 0 0 0-.636.787.715.715 0 0 0 1.42-.15h.001a.714.714 0 0 0-.709-.64c-.025 0-.05.002-.076.004z"/>
        <path id="ac" d="M1.35.649a.714.714 0 0 0-.635.786.714.714 0 0 0 .784.637.715.715 0 1 0-.073-1.428.717.717 0 0 0-.075.005z"/>
        <path id="ae" d="M1.821.81A1.252 1.252 0 0 0 .577 2.192a1.25 1.25 0 0 0 1.374 1.116A1.252 1.252 0 1 0 1.823.81h-.002z"/>
        <path id="ag" d="M2.062.402A1.967 1.967 0 0 0 .105 2.576a1.964 1.964 0 0 0 2.158 1.75 1.966 1.966 0 0 0 1.749-2.16A1.965 1.965 0 0 0 2.062.401z"/>
        <path id="ai" d="M1.87.246A1.252 1.252 0 0 0 .759 1.623a1.25 1.25 0 0 0 1.373 1.115 1.25 1.25 0 0 0 1.112-1.376A1.249 1.249 0 0 0 2.003.239c-.044 0-.089.003-.132.007z"/>
        <path id="ak" d="M1.641.837A1.252 1.252 0 0 0 .396 2.221 1.25 1.25 0 0 0 1.77 3.337 1.253 1.253 0 0 0 2.883 1.96 1.252 1.252 0 0 0 1.642.837z"/>
        <path id="am" d="M1.262.015A1.252 1.252 0 0 0 .15 1.391a1.25 1.25 0 0 0 2.487-.261A1.252 1.252 0 0 0 1.393.008a1.07 1.07 0 0 0-.13.007z"/>
        <path id="ao" d="M1.986.15A1.25 1.25 0 0 0 .872 1.525 1.25 1.25 0 0 0 2.246 2.64 1.252 1.252 0 1 0 2.118.142c-.044 0-.089.003-.132.007z"/>
        <path id="aq" d="M1.397.615A1.251 1.251 0 0 0 .286 1.99a1.25 1.25 0 0 0 1.373 1.116A1.251 1.251 0 0 0 2.77 1.73 1.25 1.25 0 0 0 1.53.608a1.11 1.11 0 0 0-.132.007z"/>
        <path id="as" d="M2.342.783A2.325 2.325 0 0 0 .275 3.338a2.322 2.322 0 0 0 2.55 2.072 2.326 2.326 0 0 0 2.067-2.556A2.323 2.323 0 0 0 2.587.77c-.08 0-.163.005-.245.014z"/>
        <path id="au" d="M20.85 1.023L1.83 12.207c-1.25.716-1.875 2.505-1.518 4.116L5.85 44.596l15.625 6.71 28.66-8.767 6.43-23.89c.535-1.879-.268-4.026-1.786-4.653L22.813.844a1.968 1.968 0 0 0-.77-.157c-.405 0-.815.12-1.194.336z"/>
        <path id="aw" d="M14.046.08a.734.734 0 0 0-.25.048C11.563.934 7.367 2.007 1.83.575 1.206.396.67 1.291.938 2.096 2.813 6.75 8.35 17.217 14.688 1.56c.314-.706-.06-1.48-.638-1.48h-.004z"/>
        <path id="ay" d="M.67 2.365c-.267.268 0 .537.447.537 3.571-.09 6.16.447 7.5.805.357.09.804-.178.625-.447C7.863 1.034 6.354.306 4.966.306c-1.848 0-3.48 1.292-4.295 2.059z"/>
        <path id="aA" d="M.046 2.724c-.09.178.088.536.357.446 2.143-.446 3.838-.09 4.732.179.268 0 .535-.268.357-.447C4.54.96 3.618.3 2.799.3 1.543.3.532 1.857.046 2.724z"/>
        <path id="aC" d="M.583 1.468c.026.008.324.372.814.736 1.043.772 2.956 1.544 4.988-1.092 0 0-1.082-.699-2.633-.699C2.82.413 1.72.665.583 1.468z"/>
        <path id="aE" d="M.403 5.496L4.25 41.242l5.358 2.237L8.439.666z"/>
        <path id="aG" d="M.224 4.423C.85.934 2.366.486 2.366.486-.669 1.023.224 4.423.224 4.423z"/>
        <path id="aI" d="M3.081 4.333C3.974 1.381.581.754.492.754c2.856 1.97 2.59 3.58 2.59 3.58z"/>
        <path id="aK" d="M.224 1.65v5.904l7.054-1.878V.04z"/>
        <path id="aM" d="M8.081.844L4.063 3.08c-.268.179-.445.357-.535.626L.849 12.475c-.269.806.179 1.612.982 1.88l5.447 1.7c.803.268 1.607-.18 1.875-.985l2.677-8.767c.18-.18.09-.538 0-.807L9.6 1.291c-.186-.371-.583-.57-.988-.57-.183 0-.366.04-.53.123zm-.089 2.952c-1.34-.447-.714-2.415.624-2.058 1.13.405.73 2.122-.28 2.122a1.01 1.01 0 0 1-.344-.064z"/>
    </defs>
    <g fill="none" fill-rule="evenodd">
        <path fill="#F9F9F9" d="M34.487 3.965C33.37 5.225 32.5 6.8 31.26 7.87c-2.295 1.953-5.46 1.953-8.376 2.08-2.915.125-6.203.818-7.817 3.527-1.675 2.834-.868 6.676-1.613 9.952-1.55 6.488-9.12 9.51-10.547 16.124-.745 3.402.434 6.992 2.047 10.016 2.42 4.536 6.205 8.504 10.858 9.637 2.522.632 5.102.404 7.687.175 2.056-.181 4.114-.363 6.148-.112 3.288.441 6.39 1.952 9.493 3.275a71.495 71.495 0 0 0 20.288 5.292c2.543.252 5.273.378 7.631-.882 4.343-2.394 5.77-8.63 9.554-11.968 3.165-2.771 7.756-3.276 10.548-6.55 2.791-3.276 2.853-9.009.062-12.283-1.428-1.638-3.413-2.709-4.405-4.662-1.242-2.33-.87-5.29-.932-8.062-.123-4.724-2.853-5.67-5.459-8.504-2.42-2.52-3.909-6.362-7.196-7.747-2.11-.882-4.53-.441-6.826-.693-3.722-.504-7.01-2.961-10.485-4.599C49.425.703 46.598 0 43.848 0c-3.54 0-6.951 1.165-9.361 3.965z"/>
        <g transform="translate(80.357 9.842)">
            <mask id="b" fill="#fff">
                <use xlink:href="#a"/>
            </mask>
            <path fill="#40B992" d="M-8.437 15.07h23.75v-23.8h-23.75z" mask="url(#b)"/>
        </g>
        <g transform="translate(75 18.79)">
            <mask id="d" fill="#fff">
                <use xlink:href="#c"/>
            </mask>
            <path fill="#40B992" d="M-8.704 13.817h22.142v-22.19H-8.704z" mask="url(#d)"/>
        </g>
        <g transform="translate(80.357 17)">
            <mask id="f" fill="#fff">
                <use xlink:href="#e"/>
            </mask>
            <path fill="#40B992" d="M-8.437 13.37h22.143V-8.82H-8.437z" mask="url(#f)"/>
        </g>
        <g transform="translate(66.964 32.21)">
            <mask id="h" fill="#fff">
                <use xlink:href="#g"/>
            </mask>
            <path fill="#40B992" d="M-8.347 13.46h22.143V-8.73H-8.347z" mask="url(#h)"/>
        </g>
        <g transform="translate(91.071 14.316)">
            <mask id="j" fill="#fff">
                <use xlink:href="#i"/>
            </mask>
            <path fill="#40B992" d="M-8.615 11.67h20.357v-20.4H-8.615z" mask="url(#j)"/>
        </g>
        <g transform="translate(70.536 28.632)">
            <mask id="l" fill="#fff">
                <use xlink:href="#k"/>
            </mask>
            <path fill="#40B992" d="M-8.347 10.507h19.285V-8.82H-8.347z" mask="url(#l)"/>
        </g>
        <g transform="translate(85.714 28.632)">
            <mask id="n" fill="#fff">
                <use xlink:href="#m"/>
            </mask>
            <path fill="#40B992" d="M-8.615 10.507H10.67V-8.82H-8.615z" mask="url(#n)"/>
        </g>
        <g transform="translate(96.429 25.947)">
            <mask id="p" fill="#fff">
                <use xlink:href="#o"/>
            </mask>
            <path fill="#40B992" d="M-8.704 10.686H10.58V-8.64H-8.704z" mask="url(#p)"/>
        </g>
        <g transform="translate(77.679 33.105)">
            <mask id="r" fill="#fff">
                <use xlink:href="#q"/>
            </mask>
            <path fill="#40B992" d="M-8.883 10.865h19.286V-8.462H-8.883z" mask="url(#r)"/>
        </g>
        <g transform="translate(98.214 10.737)">
            <mask id="t" fill="#fff">
                <use xlink:href="#s"/>
            </mask>
            <path fill="#40B992" d="M-8.704 10.954H10.58V-8.372H-8.704z" mask="url(#t)"/>
        </g>
        <g transform="translate(88.393 25.053)">
            <mask id="v" fill="#fff">
                <use xlink:href="#u"/>
            </mask>
            <path fill="#40B992" d="M-8.437 12.117h20.358v-20.4H-8.437z" mask="url(#v)"/>
        </g>
        <g transform="translate(87.5 18.79)">
            <mask id="x" fill="#fff">
                <use xlink:href="#w"/>
            </mask>
            <path fill="#40B992" d="M-8.258 13.46h21.786V-8.372H-8.258z" mask="url(#x)"/>
        </g>
        <g transform="translate(75 26.842)">
            <mask id="z" fill="#fff">
                <use xlink:href="#y"/>
            </mask>
            <path fill="#40B992" d="M-8.704 11.58h20.357v-20.4H-8.704z" mask="url(#z)"/>
        </g>
        <g transform="translate(88.393 8.053)">
            <mask id="B" fill="#fff">
                <use xlink:href="#A"/>
            </mask>
            <path fill="#40B992" d="M-8.437 12.207h20.358v-20.4H-8.437z" mask="url(#B)"/>
        </g>
        <g transform="translate(91.964 1.79)">
            <mask id="D" fill="#fff">
                <use xlink:href="#C"/>
            </mask>
            <path fill="#40B992" d="M-8.258 12.028h20.357v-20.4H-8.258z" mask="url(#D)"/>
        </g>
        <g transform="translate(70.536 23.263)">
            <mask id="F" fill="#fff">
                <use xlink:href="#E"/>
            </mask>
            <path fill="#40B992" d="M-8.08 11.849h20.358v-20.4H-8.08z" mask="url(#F)"/>
        </g>
        <g transform="translate(94.643 20.579)">
            <mask id="H" fill="#fff">
                <use xlink:href="#G"/>
            </mask>
            <path fill="#40B992" d="M-8.704 11.76h20.357v-20.4H-8.704z" mask="url(#H)"/>
        </g>
        <g transform="translate(80.357 24.158)">
            <mask id="J" fill="#fff">
                <use xlink:href="#I"/>
            </mask>
            <path fill="#40B992" d="M-8.794 14.086h22.5V-8.462h-22.5z" mask="url(#J)"/>
        </g>
        <g transform="translate(18.75 18.79)">
            <mask id="L" fill="#fff">
                <use xlink:href="#K"/>
            </mask>
            <path fill="#97999C" d="M-8.773 15.98H16.44V-9.286H-8.773z" mask="url(#L)"/>
        </g>
        <g transform="translate(12.5 26.842)">
            <mask id="N" fill="#fff">
                <use xlink:href="#M"/>
            </mask>
            <path fill="#97999C" d="M-9.406 14.335H14.04V-9.162H-9.406z" mask="url(#N)"/>
        </g>
        <g transform="translate(14.286 20.579)">
            <mask id="P" fill="#fff">
                <use xlink:href="#O"/>
            </mask>
            <path fill="#97999C" d="M-9.558 14.76h23.447V-8.737H-9.558z" mask="url(#P)"/>
        </g>
        <g transform="translate(0 35.79)">
            <mask id="R" fill="#fff">
                <use xlink:href="#Q"/>
            </mask>
            <path fill="#97999C" d="M-9.07 14.403h23.447V-9.095H-9.071z" mask="url(#R)"/>
        </g>
        <g transform="translate(16.964 11.632)">
            <mask id="T" fill="#fff">
                <use xlink:href="#S"/>
            </mask>
            <path fill="#97999C" d="M-8.796 12.75h21.484V-8.78H-8.796z" mask="url(#T)"/>
        </g>
        <g transform="translate(6.25 34.895)">
            <mask id="V" fill="#fff">
                <use xlink:href="#U"/>
            </mask>
            <path fill="#97999C" d="M-8.913 11.057h20.309v-20.35h-20.31z" mask="url(#V)"/>
        </g>
        <g transform="translate(4.464 19.684)">
            <mask id="X" fill="#fff">
                <use xlink:href="#W"/>
            </mask>
            <path fill="#97999C" d="M-8.681 11.406h20.309v-20.35h-20.31z" mask="url(#X)"/>
        </g>
        <g transform="translate(6.25 8.947)">
            <mask id="Z" fill="#fff">
                <use xlink:href="#Y"/>
            </mask>
            <path fill="#97999C" d="M-9.088 11.292h20.31v-20.35h-20.31z" mask="url(#Z)"/>
        </g>
        <g transform="translate(.893 28.632)">
            <mask id="ab" fill="#fff">
                <use xlink:href="#aa"/>
            </mask>
            <path fill="#97999C" d="M-9.04 11.238h20.309v-20.35h-20.31z" mask="url(#ab)"/>
        </g>
        <g transform="translate(20.536 5.368)">
            <mask id="ad" fill="#fff">
                <use xlink:href="#ac"/>
            </mask>
            <path fill="#97999C" d="M-8.73 11.536h20.31v-20.35H-8.73z" mask="url(#ad)"/>
        </g>
        <g transform="translate(6.25 15.21)">
            <mask id="af" fill="#fff">
                <use xlink:href="#ae"/>
            </mask>
            <path fill="#97999C" d="M-8.922 12.828h21.485v-21.53H-8.922z" mask="url(#af)"/>
        </g>
        <g transform="translate(11.607 14.316)">
            <mask id="ah" fill="#fff">
                <use xlink:href="#ag"/>
            </mask>
            <path fill="#97999C" d="M-9.47 13.922h23.055V-9.182H-9.471z" mask="url(#ah)"/>
        </g>
        <g transform="translate(6.25 29.526)">
            <mask id="aj" fill="#fff">
                <use xlink:href="#ai"/>
            </mask>
            <path fill="#97999C" d="M-8.742 12.257h21.486v-21.53H-8.742z" mask="url(#aj)"/>
        </g>
        <g transform="translate(23.214 13.421)">
            <mask id="al" fill="#fff">
                <use xlink:href="#ak"/>
            </mask>
            <path fill="#97999C" d="M-9.103 12.855h21.486v-21.53H-9.103z" mask="url(#al)"/>
        </g>
        <g transform="translate(29.464 9.842)">
            <mask id="an" fill="#fff">
                <use xlink:href="#am"/>
            </mask>
            <path fill="#97999C" d="M-9.35 12.026h21.486v-21.53H-9.35z" mask="url(#an)"/>
        </g>
        <g transform="translate(9.821 33.105)">
            <mask id="ap" fill="#fff">
                <use xlink:href="#ao"/>
            </mask>
            <path fill="#97999C" d="M-8.628 12.16h21.486V-9.37H-8.628z" mask="url(#ap)"/>
        </g>
        <g transform="translate(10.714 8.947)">
            <mask id="ar" fill="#fff">
                <use xlink:href="#aq"/>
            </mask>
            <path fill="#97999C" d="M-9.214 12.626H12.27v-21.53H-9.214z" mask="url(#ar)"/>
        </g>
        <g transform="translate(6.25 21.474)">
            <mask id="at" fill="#fff">
                <use xlink:href="#as"/>
            </mask>
            <path fill="#97999C" d="M-9.337 15.04h23.84V-8.848h-23.84z" mask="url(#at)"/>
        </g>
        <g transform="translate(15.179 15.21)">
            <mask id="av" fill="#fff">
                <use xlink:href="#au"/>
            </mask>
            <path fill="#BD8849" d="M-8.715 60.254h74.373V-8.259H-8.715z" mask="url(#av)"/>
        </g>
        <g stroke="#231F20" stroke-width="1.78">
            <path d="M65.313 57.75l6.429-23.89c.535-1.88-.268-4.027-1.786-4.653L37.992 16.054c-.625-.268-1.34-.179-1.965.18L17.01 27.417c-1.25.715-1.875 2.505-1.518 4.115l5.535 28.274 15.625 6.71 28.661-8.768zM36.028 16.233l.625 50.285"/>
        </g>
        <g transform="translate(47.321 44.737)">
            <mask id="ax" fill="#fff">
                <use xlink:href="#aw"/>
            </mask>
            <path fill="#080A09" d="M-8.06 18.801H23.73V-8.868H-8.06z" mask="url(#ax)"/>
        </g>
        <g transform="translate(43.75 34.895)">
            <mask id="az" fill="#fff">
                <use xlink:href="#ay"/>
            </mask>
            <path fill="#080A09" d="M-8.365 12.671H18.21V-8.64H-8.365z" mask="url(#az)"/>
        </g>
        <g transform="translate(59.821 35.79)">
            <mask id="aB" fill="#fff">
                <use xlink:href="#aA"/>
            </mask>
            <path fill="#080A09" d="M-8.906 12.296h23.385V-8.648H-8.906z" mask="url(#aB)"/>
        </g>
        <g transform="translate(51.786 51)">
            <mask id="aD" fill="#fff">
                <use xlink:href="#aC"/>
            </mask>
            <path fill="#F06C6A" d="M-8.347 11.886h23.66v-20.42h-23.66z" mask="url(#aD)"/>
        </g>
        <g transform="translate(20.536 19.684)">
            <mask id="aF" fill="#fff">
                <use xlink:href="#aE"/>
            </mask>
            <path fill="#020303" d="M-8.526 53.007h27.143v-61.29H-8.526z" mask="url(#aF)"/>
        </g>
        <g transform="translate(47.321 43.842)">
            <mask id="aH" fill="#fff">
                <use xlink:href="#aG"/>
            </mask>
            <path fill="#080A09" d="M-8.827 13.37h20.123V-8.462H-8.827z" mask="url(#aH)"/>
        </g>
        <g transform="translate(59.821 42.947)">
            <mask id="aJ" fill="#fff">
                <use xlink:href="#aI"/>
            </mask>
            <path fill="#080A09" d="M-8.437 13.28H12.16V-8.192H-8.437z" mask="url(#aJ)"/>
        </g>
        <g transform="translate(40.179 54.579)">
            <mask id="aL" fill="#fff">
                <use xlink:href="#aK"/>
            </mask>
            <path fill="#40B992" d="M-8.704 16.502h24.91v-25.41h-24.91z" mask="url(#aL)"/>
        </g>
        <g transform="translate(8.036 23.263)">
            <mask id="aN" fill="#fff">
                <use xlink:href="#aM"/>
            </mask>
            <path fill="#40B992" d="M-8.157 25.08h29.02V-8.228h-29.02z" mask="url(#aN)"/>
        </g>
        <g stroke="#040505">
            <path stroke-width=".5" d="M19.867 28.76l-2.232-4.205c-.268-.537-.982-.716-1.518-.448l-4.018 2.237c-.268.179-.446.358-.536.626L8.885 35.74c-.268.805.178 1.61.982 1.879l5.446 1.7c.804.268 1.607-.18 1.875-.985l2.679-8.768c.178-.179.09-.537 0-.805zm-3.84-1.7c-1.339-.448-.714-2.416.626-2.058 1.25.447.625 2.505-.625 2.058z"/>
            <path stroke-width=".89" d="M17.01 26.702c-.893-.358-1.429-1.253-1.429-2.237a2.403 2.403 0 0 1 2.411-2.416c1.34 0 2.41 1.074 2.41 2.416v.268M12.188 28.76l6.072 1.968M11.653 30.37l6.071 1.969"/>
        </g>
    </g>
</svg>
