<svg xmlns="http://www.w3.org/2000/svg" width="216" height="186" viewBox="0 0 216 186">
    <defs>
        <linearGradient id="a" x1="19.36%" x2="84.476%" y1="86.933%" y2="11.897%">
            <stop offset="0%" stop-color="#D81667"/>
            <stop offset="100%" stop-color="#3330E2"/>
        </linearGradient>
    </defs>
    <g fill="none" fill-rule="evenodd">
        <path fill="#0070AC" d="M89.281 124.211h34.841v3.811H89.281zM146.293 39.206c1.022 0 1.854.832 1.854 1.855a1.857 1.857 0 0 1-1.854 1.854 1.857 1.857 0 0 1-1.855-1.854c0-1.023.832-1.855 1.855-1.855zm0 4.741a2.89 2.89 0 0 0 2.886-2.886 2.89 2.89 0 0 0-2.886-2.887 2.89 2.89 0 0 0-2.887 2.887 2.89 2.89 0 0 0 2.887 2.886zM172.027 98.616a.473.473 0 0 0-.668.669l.776.776a.47.47 0 0 0 .668 0 .472.472 0 0 0 0-.668l-.776-.777M172.428 100.959a.473.473 0 0 0-.473-.473h-1.098a.473.473 0 0 0 0 .945h1.098c.26 0 .473-.211.473-.472M172.128 101.86l-.776.775a.472.472 0 1 0 .668.669l.776-.776a.472.472 0 1 0-.668-.669M173.694 102.235a.472.472 0 0 0-.472.473v1.097a.472.472 0 0 0 .945 0v-1.097a.472.472 0 0 0-.473-.473M175.263 101.866a.473.473 0 0 0-.668.668l.776.777a.472.472 0 1 0 .668-.669l-.776-.776M176.541 100.496h-1.098a.472.472 0 1 0 0 .945h1.098a.472.472 0 1 0 0-.945M174.936 100.206c.12 0 .242-.046.334-.138l.776-.777a.472.472 0 1 0-.668-.668l-.776.776a.473.473 0 0 0 .334.807M173.704 97.649a.472.472 0 0 0-.473.472v1.098a.472.472 0 1 0 .945 0v-1.098a.472.472 0 0 0-.472-.472M215 85.024a.313.313 0 1 0-.542.312 1.127 1.127 0 0 1-1.95 1.125 1.127 1.127 0 0 1 .994-1.688.313.313 0 1 0 .011-.626 1.75 1.75 0 1 0 1.487.877M54.516 21.78a3.047 3.047 0 0 0 1.117-4.157.544.544 0 1 0-.943.544 1.957 1.957 0 0 1-.717 2.67 1.957 1.957 0 0 1-2.67-.717 1.957 1.957 0 0 1 1.726-2.932.543.543 0 1 0 .02-1.088 3.047 3.047 0 0 0-2.69 4.564 3.047 3.047 0 0 0 4.157 1.116M70.258 46.201l1.276-1.276a.502.502 0 1 0-.71-.71l-1.277 1.276-1.276-1.277a.503.503 0 0 0-.71.71l1.276 1.277-1.277 1.277a.503.503 0 0 0 .71.71l1.277-1.276 1.277 1.276a.502.502 0 0 0 .71-.71L70.258 46.2M7.3 163.93H5.861v-1.438a.4.4 0 1 0-.8 0v1.438H3.624a.4.4 0 0 0 0 .8h1.438v1.437a.4.4 0 0 0 .8 0v-1.437h1.437a.4.4 0 0 0 0-.8M41.94 103.257h-2.11a.908.908 0 0 0 0 1.816h2.11a.908.908 0 0 0 0-1.816M48.17 103.257h-2.109a.908.908 0 0 0 0 1.816h2.109a.908.908 0 0 0 0-1.816M44 99.088a.908.908 0 0 0-.907.907v2.109a.906.906 0 0 0 .908.908.908.908 0 0 0 .907-.908v-2.109a.908.908 0 0 0-.907-.907M44 105.318a.908.908 0 0 0-.907.908v2.109a.905.905 0 0 0 .908.907.908.908 0 0 0 .907-.907v-2.11a.908.908 0 0 0-.907-.907M204.594 165.606a.712.712 0 0 0-1.006 1.006l1.168 1.168a.711.711 0 0 0 1.006-1.005l-1.168-1.169M208.046 169.058a.711.711 0 0 0-1.006 1.006l1.168 1.169a.712.712 0 0 0 1.006-1.006l-1.168-1.169M208.046 167.78l1.168-1.168a.712.712 0 0 0-1.006-1.006l-1.168 1.169a.71.71 0 0 0 0 1.005.711.711 0 0 0 1.006 0M204.756 169.058l-1.168 1.169a.708.708 0 0 0 0 1.006.712.712 0 0 0 1.006 0l1.168-1.169a.712.712 0 0 0-1.006-1.006M1.16 85.63a1.086 1.086 0 1 0 0 2.171 1.086 1.086 0 0 0 0-2.172M166.256 17.086a1.034 1.034 0 1 0 0-2.068 1.034 1.034 0 0 0 0 2.068"/>
        <path fill="#A8CCE2" d="M31.996 157.852a1.222 1.222 0 0 0-.34 1.694 91.35 91.35 0 0 0 2.214 3.177 1.22 1.22 0 0 0 1.707.267 1.222 1.222 0 0 0 .268-1.707 89.355 89.355 0 0 1-2.155-3.091 1.222 1.222 0 0 0-1.694-.34M181.88 161.152c.39 0 .772-.185 1.01-.53a91.702 91.702 0 0 0 2.127-3.244 1.222 1.222 0 1 0-2.071-1.296 88.951 88.951 0 0 1-2.071 3.157 1.222 1.222 0 0 0 1.006 1.913M174.072 170.984c.33 0 .66-.134.902-.398.869-.95 1.728-1.931 2.555-2.915a1.222 1.222 0 1 0-1.872-1.571 89.656 89.656 0 0 1-2.487 2.838 1.222 1.222 0 0 0 .902 2.046M166.84 41.239c-.451.502-.41 1.274.092 1.725a89.5 89.5 0 0 1 2.753 2.58 1.219 1.219 0 0 0 1.728-.02 1.222 1.222 0 0 0-.02-1.728 91.803 91.803 0 0 0-2.828-2.65 1.222 1.222 0 0 0-1.726.093M195.987 100.242a1.222 1.222 0 1 0 2.432-.24 92.83 92.83 0 0 0-.461-3.847 1.223 1.223 0 0 0-2.42.342c.175 1.236.326 2.496.45 3.745M197.508 114.084l.052.002c.652 0 1.193-.514 1.22-1.171.054-1.283.081-2.586.081-3.869v-.204a1.222 1.222 0 0 0-1.222-1.217h-.005a1.222 1.222 0 0 0-1.217 1.227v.19c0 1.253-.026 2.522-.078 3.77a1.222 1.222 0 0 0 1.17 1.272M20.755 90.685c.258-1.225.545-2.46.855-3.674a1.222 1.222 0 0 0-2.368-.604 91.284 91.284 0 0 0-.878 3.775 1.222 1.222 0 0 0 2.391.503M44.143 171.407a1.214 1.214 0 0 0-.326-.647c-.87-.9-1.733-1.83-2.564-2.765a1.222 1.222 0 0 0-1.826 1.623 92.35 92.35 0 0 0 2.634 2.841c.146.152.323.251.511.31a11.013 11.013 0 0 1 1.571-1.362M196.293 87.458a90.037 90.037 0 0 0-.994-3.746 1.222 1.222 0 1 0-2.348.678c.347 1.203.672 2.429.967 3.644a1.222 1.222 0 0 0 2.375-.576M62.525 32.366c.209 0 .42-.054.612-.166a89.106 89.106 0 0 1 3.296-1.82 1.222 1.222 0 1 0-1.135-2.164 91.575 91.575 0 0 0-3.387 1.87 1.222 1.222 0 0 0 .614 2.28M73.79 26.842c.154 0 .31-.03.46-.09a88.254 88.254 0 0 1 3.524-1.344 1.222 1.222 0 1 0-.822-2.302c-1.21.432-2.428.897-3.621 1.381a1.222 1.222 0 0 0 .46 2.355M157.162 35.347a89.782 89.782 0 0 1 3.087 2.174 1.22 1.22 0 0 0 1.708-.259c.4-.543.284-1.308-.26-1.708a91.996 91.996 0 0 0-3.17-2.234 1.222 1.222 0 0 0-1.365 2.027M17.635 110.38a1.222 1.222 0 0 0-1.187 1.256c.036 1.288.1 2.59.19 3.87a1.222 1.222 0 1 0 2.437-.17 90.455 90.455 0 0 1-.185-3.768 1.222 1.222 0 0 0-1.255-1.187M85.723 22.947c.098 0 .198-.012.298-.037a88.679 88.679 0 0 1 3.677-.837 1.222 1.222 0 0 0-.491-2.394 91.509 91.509 0 0 0-3.78.86 1.222 1.222 0 0 0 .296 2.408M164.979 179.638c.274 0 .55-.092.778-.28a92.406 92.406 0 0 0 2.932-2.532 1.222 1.222 0 1 0-1.636-1.816 89.813 89.813 0 0 1-2.854 2.465 1.222 1.222 0 0 0 .78 2.163M134.93 24.534a89.05 89.05 0 0 1 3.573 1.239 1.223 1.223 0 0 0 .85-2.291 90.98 90.98 0 0 0-3.672-1.273 1.221 1.221 0 1 0-.75 2.325M54.476 34.899a91.948 91.948 0 0 0-3.096 2.325 1.222 1.222 0 1 0 1.508 1.922 90.28 90.28 0 0 1 3.014-2.263 1.222 1.222 0 0 0-1.426-1.984M43.696 47.448a90.153 90.153 0 0 1 2.674-2.66 1.222 1.222 0 1 0-1.686-1.769 92.768 92.768 0 0 0-2.747 2.733 1.212 1.212 0 0 0-.319.619c.573.422 1.117.88 1.633 1.368.164-.062.316-.157.445-.291M146.427 29.16a88.682 88.682 0 0 1 3.361 1.725 1.223 1.223 0 0 0 1.162-2.15 91.367 91.367 0 0 0-3.454-1.772 1.222 1.222 0 0 0-1.069 2.197M21.85 77.944a1.222 1.222 0 1 0 2.297.833c.216-.595.44-1.192.67-1.788a17.507 17.507 0 0 1-2.216-1.038c-.258.663-.51 1.329-.751 1.993M18.315 97.845a1.221 1.221 0 0 0-1.349 1.08 91.557 91.557 0 0 0-.343 3.86 1.221 1.221 0 1 0 2.438.165c.085-1.25.197-2.515.334-3.757a1.221 1.221 0 0 0-1.08-1.348"/>
        <path fill="#0070AC" d="M110.642 124.18h-5.748c.698.077 1.403.132 2.117.152 1.224.033 2.437-.02 3.63-.153M210.106 181.943h-11.817a1.955 1.955 0 1 0 0 3.91h11.817a1.955 1.955 0 1 0 0-3.91M39.543 183.898v-1.955H20.514a1.955 1.955 0 1 0 0 3.91h20.903a1.958 1.958 0 0 1-1.874-1.955M149.056 181.943v3.91h39.287a1.955 1.955 0 0 0 0-3.91h-39.287zM10.485 181.943H5.203a1.955 1.955 0 1 0 0 3.91h5.282a1.955 1.955 0 1 0 0-3.91M64.02 183.898v-1.955h-2.6v1.955c0 1.053-.832 1.91-1.875 1.955h6.35a1.958 1.958 0 0 1-1.874-1.955M108.5 157.428a2.932 2.932 0 0 1-2.928-2.928 2.93 2.93 0 0 1 2.929-2.928 2.931 2.931 0 0 1 2.928 2.928 2.932 2.932 0 0 1-2.929 2.928zm0-8.428a5.506 5.506 0 0 0-5.5 5.5c0 1.551.647 2.954 1.683 3.954A5.48 5.48 0 0 0 108.5 160a5.48 5.48 0 0 0 3.817-1.545 5.483 5.483 0 0 0 1.684-3.955c0-3.033-2.468-5.5-5.5-5.5z"/>
        <path fill="#0070AC" d="M57.501 181.938h-14.04H57.5zm-18.383 0c0 1.054-1.042 3.87 0 3.915h20.427a1.958 1.958 0 0 0 1.875-1.955v-1.955h-3.018c0-.002.002-.003.003-.005h3.015-22.302zM152.231 136.349c0-6.81-5.54-12.349-12.35-12.349H122.73c-.09.053-.18.11-.271.162a29.363 29.363 0 0 1-11.636 3.757h29.06c4.649 0 8.431 3.78 8.431 8.43v38.967H67.918v-38.967c0-4.65 3.782-8.43 8.431-8.43h28.307a28.857 28.857 0 0 1-7.842-1.96 29.467 29.467 0 0 1-3.684-1.797c-.09-.053-.177-.11-.267-.162H76.35C69.54 124 64 129.54 64 136.349v45.41h3.918v-2.524h80.395v2.524h3.918v.004H64v1.955c0 1.054.832 1.91 1.874 1.955h86.357v-49.324z"/>
        <g>
            <g fill="#2D9BC1">
                <path d="M46.127 61.278c0 8.203-6.65 14.853-14.855 14.853-8.203 0-14.853-6.65-14.853-14.853 0-8.204 6.65-14.854 14.853-14.854 8.205 0 14.855 6.65 14.855 14.854"/>
                <path stroke="#0070AC" d="M24.63 45.968a.308.308 0 0 1-.121-.594A17.168 17.168 0 0 1 31.273 44c1.058 0 2.117.096 3.148.286.168.03.28.192.248.36a.307.307 0 0 1-.36.249 16.852 16.852 0 0 0-3.036-.276c-2.262 0-4.455.446-6.52 1.324l-.121.025zm19.372 4.4a.305.305 0 0 1-.232-.105 16.796 16.796 0 0 0-2.969-2.651.31.31 0 0 1 .354-.508c1.131.79 2.167 1.715 3.08 2.75a.31.31 0 0 1-.233.514zM15.8 54.61l-.127-.027a.31.31 0 0 1-.155-.41c.377-.835.825-1.647 1.332-2.413a.309.309 0 1 1 .516.341c-.489.74-.921 1.522-1.284 2.327a.31.31 0 0 1-.282.182zm31.083.318a.311.311 0 0 1-.285-.188 16.56 16.56 0 0 0-1.235-2.351.309.309 0 1 1 .523-.33c.491.775.922 1.596 1.281 2.437a.309.309 0 0 1-.163.407l-.12.025zM14.31 61.17h-.008a.31.31 0 0 1-.302-.316c.034-1.385.232-2.76.59-4.086a.309.309 0 1 1 .597.161 16.685 16.685 0 0 0-.568 3.94.309.309 0 0 1-.31.301zm31.108 9.79a.309.309 0 0 1-.257-.48 16.584 16.584 0 0 0 2.77-9.203.31.31 0 0 1 .619 0 17.2 17.2 0 0 1-2.874 9.546.31.31 0 0 1-.258.138zm-23.506 4.781a.309.309 0 0 1-.17-.051 17.271 17.271 0 0 1-6.38-7.665.31.31 0 1 1 .57-.242 16.652 16.652 0 0 0 6.151 7.39.31.31 0 0 1-.171.568zm14.705 1.955a.31.31 0 0 1-.098-.604 16.61 16.61 0 0 0 3.6-1.697.309.309 0 1 1 .329.524 17.202 17.202 0 0 1-3.734 1.761l-.097.016zm-5.326.859a.31.31 0 0 1 0-.62c.889 0 1.78-.072 2.648-.212a.31.31 0 0 1 .099.612c-.901.144-1.825.218-2.747.22z"/>
            </g>
            <path fill="#FFFFFE" d="M28.548 65.95c-1.851-.066-3.009-1.394-3.315-2.473a3.545 3.545 0 0 0 1.527-.045l.051-.024c-1.002-.233-1.776-.77-2.313-1.635a3.451 3.451 0 0 1-.522-1.894c.5.268 1.024.417 1.585.432-.754-.543-1.259-1.253-1.466-2.16-.205-.907-.072-1.768.382-2.58 1.929 2.271 4.37 3.516 7.346 3.722-.02-.142-.042-.266-.057-.39-.1-.838.069-1.62.521-2.33.566-.888 1.376-1.44 2.416-1.61 1.197-.196 2.243.146 3.118.993.059.057.107.076.19.057a7.188 7.188 0 0 0 2.071-.796l.047-.025.024-.002a3.644 3.644 0 0 1-1.525 1.939 6.828 6.828 0 0 0 1.983-.534l.015.016c-.136.178-.268.36-.41.534a7.017 7.017 0 0 1-1.295 1.23l-.058.113c.02.528-.001 1.056-.067 1.581a10.459 10.459 0 0 1-.918 3.172 10.245 10.245 0 0 1-1.925 2.807 9.519 9.519 0 0 1-4.895 2.728c-.652.143-1.316.217-1.984.236-2.054.06-3.953-.45-5.7-1.53l-.083-.055a7.193 7.193 0 0 0 5.257-1.478"/>
        </g>
        <g>
            <path fill="#29498C" d="M37.127 137.28c0 7-4.846 12.873-11.369 14.432a14.39 14.39 0 0 1-4.475.384c-7.742-.508-13.863-6.95-13.863-14.816 0-8.207 6.653-14.854 14.853-14.854s14.854 6.647 14.854 14.854"/>
            <path fill="#29498C" stroke="#0070AC" d="M24.941 153.724c-.867.142-1.758.21-2.65.21a.31.31 0 0 0-.308.31c0 .173.136.31.309.31.922 0 1.845-.075 2.748-.217a.31.31 0 0 0-.099-.613zm6.604-2.228a.304.304 0 0 0-.427-.1 16.565 16.565 0 0 1-3.596 1.696.31.31 0 0 0-.198.39c.043.13.167.217.297.217l.093-.018a17.348 17.348 0 0 0 3.738-1.758.31.31 0 0 0 .093-.427zm-18.462-.322a16.667 16.667 0 0 1-6.152-7.39.307.307 0 0 0-.402-.167.316.316 0 0 0-.167.409 17.315 17.315 0 0 0 6.38 7.668c.05.03.112.05.174.05.099 0 .198-.05.253-.143a.303.303 0 0 0-.086-.427zm26.16-14.204a.307.307 0 0 0-.309.31c0 3.286-.959 6.473-2.773 9.203a.308.308 0 0 0 .254.476.29.29 0 0 0 .26-.136 17.186 17.186 0 0 0 2.878-9.543.31.31 0 0 0-.31-.31zm-33.27-4.419a.314.314 0 0 0-.385.217A17.798 17.798 0 0 0 5 136.853c0 .173.13.315.304.321h.005a.313.313 0 0 0 .31-.303c.031-1.336.223-2.661.57-3.942a.312.312 0 0 0-.217-.378zm32.194-2.055a16.61 16.61 0 0 0-1.281-2.438.315.315 0 0 0-.428-.099.31.31 0 0 0-.092.427c.47.749.89 1.542 1.231 2.352a.321.321 0 0 0 .285.192l.124-.025a.315.315 0 0 0 .16-.409zM8.28 127.674a.303.303 0 0 0-.427.087 16.7 16.7 0 0 0-1.33 2.414.304.304 0 0 0 .148.408l.13.025a.322.322 0 0 0 .285-.18 15.94 15.94 0 0 1 1.281-2.326.309.309 0 0 0-.087-.428zm26.953-1.819a17.248 17.248 0 0 0-3.076-2.748.308.308 0 0 0-.432.074.302.302 0 0 0 .08.428 17.033 17.033 0 0 1 2.965 2.654.318.318 0 0 0 .234.106.296.296 0 0 0 .205-.08.3.3 0 0 0 .024-.434zm-9.816-5.57a17.734 17.734 0 0 0-3.144-.285c-2.345 0-4.623.464-6.764 1.374a.312.312 0 0 0-.16.409c.048.117.16.185.284.185l.117-.025a16.57 16.57 0 0 1 6.523-1.324c1.022 0 2.043.093 3.033.279a.312.312 0 1 0 .111-.613z"/>
            <path fill="#FFFFFE" d="M25.764 134.538c-.024.922-.037 3.058-.037 3.058h4.246l-.564 4.313h-3.651v9.803a14.39 14.39 0 0 1-4.475.384v-10.2h-3.657v-4.3h3.682v-.323c0-.866-.018-1.726 0-2.593.019-.55.043-1.107.137-1.652.228-1.312.835-2.42 1.93-3.212.96-.688 2.055-.966 3.218-.99.762-.02 1.516.018 2.278.05.414.024.83.08 1.22.117v3.849h-.304c-.743 0-1.48-.018-2.222.007-1.015.036-1.764.42-1.8 1.69"/>
        </g>
        <g>
            <path fill="url(#a)" d="M17.227 32.08c-8.204 0-14.854-6.65-14.854-14.853 0-8.204 6.65-14.854 14.854-14.854 8.204 0 14.854 6.65 14.854 14.854 0 8.203-6.65 14.853-14.854 14.853z" transform="translate(95 1)"/>
            <path fill="#2D9BC1" stroke="#0070AC" d="M105.63 2.968a.308.308 0 0 1-.121-.594A17.168 17.168 0 0 1 112.273 1c1.058 0 2.117.096 3.148.286.168.03.28.192.248.36a.307.307 0 0 1-.36.249 16.852 16.852 0 0 0-3.036-.276c-2.262 0-4.455.446-6.52 1.324l-.121.025zm19.372 4.4a.305.305 0 0 1-.232-.105 16.796 16.796 0 0 0-2.969-2.651.31.31 0 0 1 .354-.508c1.131.79 2.167 1.715 3.08 2.75a.31.31 0 0 1-.233.514zM96.8 11.61l-.127-.027a.31.31 0 0 1-.155-.41c.377-.835.825-1.647 1.332-2.413a.309.309 0 1 1 .516.341c-.489.74-.921 1.522-1.284 2.327a.31.31 0 0 1-.282.182zm31.083.318a.311.311 0 0 1-.285-.188 16.56 16.56 0 0 0-1.235-2.351.309.309 0 1 1 .523-.33c.491.775.922 1.596 1.281 2.437a.309.309 0 0 1-.163.407l-.12.025zM95.31 18.17h-.008a.31.31 0 0 1-.302-.316c.034-1.385.232-2.76.59-4.086a.309.309 0 1 1 .597.161 16.685 16.685 0 0 0-.568 3.94.309.309 0 0 1-.31.301zm31.108 9.79a.309.309 0 0 1-.257-.48 16.584 16.584 0 0 0 2.77-9.203.31.31 0 0 1 .619 0 17.2 17.2 0 0 1-2.874 9.546.31.31 0 0 1-.258.138zm-23.506 4.781a.309.309 0 0 1-.17-.051 17.271 17.271 0 0 1-6.38-7.665.31.31 0 1 1 .57-.242 16.652 16.652 0 0 0 6.151 7.39.31.31 0 0 1-.171.568zm14.705 1.955a.31.31 0 0 1-.098-.604 16.61 16.61 0 0 0 3.6-1.697.309.309 0 1 1 .329.524 17.202 17.202 0 0 1-3.734 1.761l-.097.016zm-5.326.859a.31.31 0 0 1 0-.62c.889 0 1.78-.072 2.648-.212a.31.31 0 0 1 .099.612c-.901.144-1.825.218-2.747.22z"/>
            <path fill="#FFF" d="M118.138 13.075a1.12 1.12 0 1 1-2.24-.005 1.12 1.12 0 0 1 2.24.005zm-6.125 8.058a3.096 3.096 0 1 1 .057-6.19 3.096 3.096 0 0 1-.057 6.19zm.033-7.877a4.785 4.785 0 1 0-.006 9.57 4.785 4.785 0 0 0 .006-9.57zm7.46 9.462c-.249 1.63-1.33 2.64-2.97 2.82-1.505.165-8.229.255-9.625-.135-1.336-.374-2.1-1.292-2.322-2.637-.211-1.284-.264-7.7-.002-9.418.245-1.617 1.327-2.625 2.958-2.807 1.653-.186 7.602-.206 9.186.037 1.627.25 2.635 1.334 2.814 2.976.167 1.53.215 7.518-.038 9.164zm1.719-9.326c-.126-1.228-.596-2.315-1.51-3.185-.96-.916-2.134-1.322-3.422-1.39-2.193-.12-7.402-.195-9.231.103-2.09.341-3.46 1.56-4.038 3.625-.444 1.588-.356 8.907-.096 10.477.353 2.146 1.622 3.522 3.75 4.07 1.471.38 8.707.332 10.33.069 2.148-.347 3.53-1.609 4.088-3.733.427-1.63.278-8.565.129-10.036z"/>
        </g>
        <g>
            <path fill="#FCEA22" d="M195.126 61.278c0 8.203-6.65 14.853-14.854 14.853-8.203 0-14.853-6.65-14.853-14.853 0-8.204 6.65-14.854 14.853-14.854 8.204 0 14.854 6.65 14.854 14.854"/>
            <path fill="#FCEA22" stroke="#0070AC" d="M173.63 45.968a.31.31 0 0 1-.121-.594A17.173 17.173 0 0 1 180.272 44c1.057 0 2.116.096 3.147.286.169.03.28.192.248.36a.307.307 0 0 1-.36.249 16.833 16.833 0 0 0-3.035-.276c-2.262 0-4.456.445-6.52 1.324l-.122.025zm19.372 4.4a.309.309 0 0 1-.232-.105 16.802 16.802 0 0 0-2.97-2.652.31.31 0 1 1 .355-.507c1.13.79 2.166 1.715 3.079 2.75a.31.31 0 0 1-.232.514zM164.8 54.61l-.128-.028a.31.31 0 0 1-.155-.409c.377-.835.826-1.647 1.333-2.413a.309.309 0 1 1 .516.341c-.49.74-.921 1.522-1.285 2.327a.31.31 0 0 1-.281.182zm31.082.317a.31.31 0 0 1-.284-.187 16.56 16.56 0 0 0-1.235-2.351.309.309 0 1 1 .523-.33c.491.775.922 1.596 1.281 2.437a.309.309 0 0 1-.163.406l-.122.025zm-32.574 6.244h-.008a.309.309 0 0 1-.3-.316 17.27 17.27 0 0 1 .588-4.086.31.31 0 0 1 .598.161 16.654 16.654 0 0 0-.568 3.94.31.31 0 0 1-.31.301zm31.108 9.79a.31.31 0 0 1-.257-.48 16.58 16.58 0 0 0 2.771-9.203.309.309 0 1 1 .619 0c0 3.412-.994 6.714-2.875 9.546a.31.31 0 0 1-.258.138zm-23.506 4.781a.306.306 0 0 1-.17-.052 17.273 17.273 0 0 1-6.379-7.664.31.31 0 0 1 .57-.242 16.653 16.653 0 0 0 6.151 7.39.31.31 0 0 1-.172.568zm14.706 1.955a.31.31 0 0 1-.098-.604 16.597 16.597 0 0 0 3.6-1.697.309.309 0 1 1 .33.524 17.199 17.199 0 0 1-3.735 1.76l-.097.017zm-5.327.859a.309.309 0 0 1 0-.62c.89 0 1.78-.072 2.649-.212a.31.31 0 0 1 .098.611 17.44 17.44 0 0 1-2.747.22z"/>
            <path fill="#2D2E2C" d="M180.368 51.262h-.187a5.655 5.655 0 0 0-5.649 5.648v2.254l-.007-.004c-.327-.17-.684-.327-1.085-.327-.41 0-.78.164-1.097.486-.408.415-.391.843-.344 1.062.105.496.538.897 1.287 1.19l.246.093c.349.128.816.301.897.504-.173.642-.636 1.556-1.837 2.467-.934.71-1.449.71-1.618.71h-.079l-.076-.002c-.632 0-.785.484-.81.581-.178.714.133 1.604 1.542 1.964.383.098.679.148.894.184.093.016.2.034.268.05l.021.05c.067.174.102.314.133.438.062.25.228.91.981.91.111 0 .243-.016.506-.05.362-.049.909-.121 1.384-.121.433 0 .604.062.646.08.146.065.385.246.64.438.758.572 1.797 1.356 3.216 1.425l.035.002.034-.002c1.42-.069 2.459-.853 3.217-1.425.254-.192.494-.373.64-.438.042-.019.213-.08.646-.08.475 0 1.021.072 1.383.12.263.035.395.052.507.052.752 0 .918-.662.98-.91.032-.124.067-.265.134-.438l.02-.051c.067-.016.176-.034.268-.05.215-.036.511-.086.895-.184 1.408-.36 1.72-1.25 1.54-1.964-.024-.097-.176-.58-.809-.58h-.076l-.079.001c-.169 0-.683 0-1.618-.71-1.2-.911-1.664-1.825-1.837-2.467.082-.203.548-.376.898-.504l.245-.093c.75-.293 1.182-.694 1.288-1.19.047-.219.064-.647-.344-1.062-.318-.322-.687-.486-1.097-.486-.401 0-.759.157-1.085.327l-.008.004V56.91a5.655 5.655 0 0 0-5.649-5.648zm0 .714a4.933 4.933 0 0 1 4.934 4.934v2.958c.079.022.25.062.457.062.183 0 .395-.032.596-.136.273-.142.52-.246.755-.246.201 0 .394.077.586.273.417.423-.02.82-.694 1.085-.619.243-1.588.493-1.608 1.3.225.994.892 2.058 2.13 2.999 1.046.793 1.712.855 2.051.855l.155-.002c.07 0 .108.006.116.04.04.158.166.793-1.025 1.098-1.19.304-1.435.1-1.673.72-.239.622-.149.89-.446.89-.204 0-1.103-.173-1.89-.173-.362 0-.701.037-.938.143-.731.327-1.883 1.719-3.6 1.802-1.716-.083-2.867-1.475-3.598-1.802-.238-.106-.576-.143-.938-.143-.788 0-1.686.173-1.89.173-.297 0-.208-.268-.446-.89-.239-.62-.483-.416-1.674-.72-1.19-.305-1.064-.94-1.025-1.098.009-.034.047-.04.116-.04l.155.002c.34 0 1.006-.062 2.05-.855 1.24-.941 1.906-2.005 2.132-2.998-.02-.808-.99-1.058-1.608-1.301-.676-.265-1.112-.662-.695-1.085.192-.196.385-.273.587-.273.235 0 .482.104.755.246.2.104.412.136.596.136.207 0 .378-.04.456-.062V56.91a4.934 4.934 0 0 1 4.934-4.934h.187z"/>
            <path fill="#FFFFFE" d="M180.275 70.578c1.716-.083 2.868-1.475 3.599-1.802.754-.337 2.53.03 2.828.03.297 0 .208-.268.446-.89.238-.62.483-.416 1.673-.72 1.19-.305 1.065-.94 1.025-1.098-.04-.159-.754.297-2.322-.893-1.238-.941-1.905-2.005-2.13-2.998.02-.808.99-1.058 1.608-1.301.675-.265 1.111-.662.694-1.085-.416-.423-.832-.291-1.341-.027-.426.221-.906.115-1.053.074V56.91a4.933 4.933 0 0 0-4.934-4.934h-.187a4.934 4.934 0 0 0-4.934 4.934v2.958c-.147.041-.626.147-1.052-.074-.51-.264-.926-.396-1.342.027-.417.423.02.82.695 1.085.619.243 1.588.493 1.608 1.301-.226.993-.892 2.057-2.131 2.998-1.568 1.19-2.282.734-2.322.893-.04.158-.165.793 1.025 1.098 1.19.304 1.435.1 1.674.72.238.622.149.89.446.89.298 0 2.074-.367 2.828-.03.731.327 1.882 1.719 3.599 1.802"/>
        </g>
        <g fill="#DF4B43">
            <path d="M206.126 137.278c0 8.203-6.65 14.853-14.854 14.853-8.203 0-14.853-6.65-14.853-14.853 0-8.204 6.65-14.854 14.853-14.854 8.204 0 14.854 6.65 14.854 14.854"/>
            <path stroke="#0070AC" d="M184.63 121.968a.31.31 0 0 1-.12-.594 17.168 17.168 0 0 1 6.762-1.374c1.057 0 2.116.096 3.148.286a.31.31 0 0 1-.112.609 16.84 16.84 0 0 0-3.036-.276 16.55 16.55 0 0 0-6.52 1.324l-.121.025zm19.372 4.4a.31.31 0 0 1-.232-.105 16.82 16.82 0 0 0-2.969-2.652.309.309 0 1 1 .354-.507c1.13.79 2.167 1.715 3.08 2.75a.31.31 0 0 1-.233.514zM175.8 130.61l-.128-.028a.31.31 0 0 1-.155-.409c.377-.835.826-1.647 1.333-2.413a.309.309 0 1 1 .516.341 16.56 16.56 0 0 0-1.284 2.327.31.31 0 0 1-.282.182zm31.082.317a.31.31 0 0 1-.284-.187 16.56 16.56 0 0 0-1.235-2.351.31.31 0 1 1 .523-.33c.491.775.922 1.596 1.281 2.437a.309.309 0 0 1-.163.406l-.122.025zm-32.574 6.244h-.007a.31.31 0 0 1-.302-.316 17.3 17.3 0 0 1 .59-4.086.31.31 0 0 1 .598.161 16.654 16.654 0 0 0-.569 3.94.31.31 0 0 1-.31.301zm31.109 9.79a.31.31 0 0 1-.258-.48 16.58 16.58 0 0 0 2.771-9.203.31.31 0 1 1 .619 0c0 3.412-.994 6.714-2.875 9.546a.308.308 0 0 1-.257.138zm-23.506 4.781a.305.305 0 0 1-.17-.052 17.27 17.27 0 0 1-6.38-7.664.31.31 0 1 1 .57-.242 16.647 16.647 0 0 0 6.151 7.39.31.31 0 0 1-.171.568zm14.705 1.955a.309.309 0 0 1-.098-.604 16.592 16.592 0 0 0 3.6-1.697.309.309 0 1 1 .33.524 17.186 17.186 0 0 1-3.735 1.76l-.097.017zm-5.327.859a.309.309 0 0 1 0-.62c.89 0 1.78-.072 2.649-.212a.31.31 0 1 1 .098.611c-.9.145-1.824.22-2.747.22z"/>
        </g>
    </g>
</svg>
