<svg xmlns="http://www.w3.org/2000/svg" width="14" height="17" viewBox="0 0 14 17">
    <g fill="none" fill-rule="nonzero">
        <path fill="#000" d="M13.984 4.534v-.013c-.008-.159-.013-.328-.016-.515a1.751 1.751 0 0 0-1.64-1.723c-1.89-.106-3.353-.728-4.602-1.958l-.01-.01a1.045 1.045 0 0 0-1.43 0l-.011.01c-1.25 1.23-2.712 1.852-4.602 1.958A1.751 1.751 0 0 0 .032 4.006c-.003.186-.008.355-.015.515v.03c-.037 1.946-.083 4.367.72 6.564a8.365 8.365 0 0 0 1.986 3.123c.998.983 2.306 1.764 3.887 2.32a1.193 1.193 0 0 0 .621.044c.055-.011.109-.026.16-.044 1.58-.557 2.885-1.339 3.883-2.322a8.377 8.377 0 0 0 1.986-3.123c.806-2.204.76-4.63.724-6.579zm-1.629 6.242c-.846 2.316-2.574 3.907-5.282 4.863a.215.215 0 0 1-.146 0c-2.71-.954-4.44-2.544-5.285-4.86C.902 8.753.944 6.53.98 4.57v-.01c.008-.17.013-.346.016-.54a.778.778 0 0 1 .73-.765c1.07-.06 2.009-.269 2.872-.637A7.512 7.512 0 0 0 6.94 1.03a.088.088 0 0 1 .12 0c.713.7 1.479 1.22 2.341 1.588.863.368 1.803.577 2.873.637a.778.778 0 0 1 .73.765c.003.195.008.372.015.54.037 1.962.078 4.186-.664 6.216z"/>
        <path fill="#939393" d="M7 4.194c-2.26 0-4.097 1.855-4.097 4.135S4.74 12.464 7 12.464c2.259 0 4.097-1.855 4.097-4.135S9.259 4.194 7 4.194zm0 7.296c-1.727 0-3.133-1.418-3.133-3.161S5.273 5.167 7 5.167s3.132 1.419 3.132 3.162c0 1.743-1.405 3.161-3.132 3.161z"/>
        <path fill="#939393" d="M8.177 7.045l-1.903 1.92-.516-.52a.48.48 0 0 0-.682 0 .49.49 0 0 0 0 .688l.857.866a.478.478 0 0 0 .682 0L8.86 7.734a.49.49 0 0 0 0-.689.479.479 0 0 0-.683 0z"/>
    </g>
</svg>
