<svg xmlns="http://www.w3.org/2000/svg" width="18" height="16" viewBox="0 0 18 16">
    <path fill="#FC3" fill-rule="nonzero" d="M4.634 16a.937.937 0 0 1-.55-.182.888.888 0 0 1-.351-.944l1.099-4.518a.3.3 0 0 0-.1-.303L1.099 7.026a.898.898 0 0 1-.283-.972.923.923 0 0 1 .807-.627l4.808-.388a.308.308 0 0 0 .26-.181L8.54.552A.926.926 0 0 1 9.394 0c.37 0 .706.217.851.552l1.852 4.3a.308.308 0 0 0 .26.181l4.807.388c.374.03.693.277.808.627a.898.898 0 0 1-.283.972l-3.636 3.027a.293.293 0 0 0-.098.303l1.098 4.518a.9.9 0 0 1-.332.912.94.94 0 0 1-.982.099l-4.154-2.422a.314.314 0 0 0-.315 0l-4.172 2.422a.94.94 0 0 1-.463.121zm4.74-14.381a.263.263 0 0 0-.246.158L7.518 5.52a.804.804 0 0 1-.677.474l-4.18.337a.267.267 0 0 0-.233.183.26.26 0 0 0 .082.28L5.671 9.43a.776.776 0 0 1 .263.784l-.982 3.929a.26.26 0 0 0 .1.274c.087.064.204.07.297.016l3.613-2.107a.813.813 0 0 1 .82 0l3.608 2.107c.093.054.21.048.296-.016a.26.26 0 0 0 .1-.274l-.954-3.929a.776.776 0 0 1 .263-.784l3.16-2.633a.26.26 0 0 0 .083-.281.267.267 0 0 0-.232-.183l-4.182-.337a.804.804 0 0 1-.676-.474l-1.61-3.739a.263.263 0 0 0-.263-.163z"/>
</svg>
