<svg xmlns="http://www.w3.org/2000/svg" width="18" height="16" viewBox="0 0 18 16">
    <path fill="#E1E1E1" fill-rule="nonzero" d="M4.652 16a.937.937 0 0 1-.549-.182.888.888 0 0 1-.352-.944l1.099-4.518a.3.3 0 0 0-.099-.303L1.116 7.026a.898.898 0 0 1-.283-.972.923.923 0 0 1 .808-.627l4.807-.388a.308.308 0 0 0 .26-.181L8.559.552A.926.926 0 0 1 9.411 0c.371 0 .706.217.852.552l1.851 4.3a.308.308 0 0 0 .26.181l4.807.388c.374.03.693.277.808.627a.898.898 0 0 1-.283.972l-3.635 3.027a.293.293 0 0 0-.1.303l1.1 4.518a.9.9 0 0 1-.333.912.94.94 0 0 1-.982.099l-4.154-2.422a.314.314 0 0 0-.315 0l-4.172 2.422a.94.94 0 0 1-.463.121zM9.436 1.619a.265.265 0 0 0-.248.159l-1.62 3.767a.81.81 0 0 1-.681.477l-4.207.34a.269.269 0 0 0-.234.183.262.262 0 0 0 .083.282l3.18 2.65a.78.78 0 0 1 .265.79l-.988 3.952a.262.262 0 0 0 .101.276c.087.063.205.07.299.015l3.634-2.12a.818.818 0 0 1 .826 0l3.63 2.12a.274.274 0 0 0 .298-.015.262.262 0 0 0 .101-.276l-.961-3.953a.78.78 0 0 1 .264-.79l3.181-2.649a.262.262 0 0 0 .083-.282.269.269 0 0 0-.234-.184l-4.207-.339a.81.81 0 0 1-.68-.477L9.7 1.783a.265.265 0 0 0-.265-.164z"/>
</svg>
