<svg xmlns="http://www.w3.org/2000/svg" width="20" height="20" viewBox="0 0 20 20">
    <g fill="none" fill-rule="evenodd">
        <path d="M18.484 8.613a1.806 1.806 0 0 1-.58 1.355l-7.936 7.935a1.903 1.903 0 0 1-2.742 0l-5.13-5.129a1.903 1.903 0 0 1 0-2.742l7.936-7.935a1.806 1.806 0 0 1 1.355-.58h6.452c.356 0 .645.288.645.644v6.452z"/>
        <path fill="#000" fill-rule="nonzero" d="M19.774 2.161A1.935 1.935 0 0 0 17.84.226h-6.452a3.194 3.194 0 0 0-2.29.935L1.16 9.097a3.258 3.258 0 0 0 0 4.58l5.162 5.162a3.29 3.29 0 0 0 2.29.935 3.355 3.355 0 0 0 2.29-.935l7.936-7.936a3.194 3.194 0 0 0 .935-2.29V2.16zm-1.29 6.452a1.806 1.806 0 0 1-.58 1.355l-7.936 7.935a1.903 1.903 0 0 1-2.742 0l-5.13-5.129a1.903 1.903 0 0 1 0-2.742l7.936-7.935a1.806 1.806 0 0 1 1.355-.58h6.452c.356 0 .645.288.645.644v6.452z"/>
        <path fill="#000" fill-rule="nonzero" d="M13.226 3.968a2.839 2.839 0 0 0-2.032 4.838 2.851 2.851 0 0 0 4.032-4.032 2.903 2.903 0 0 0-2-.806zM14.29 7.87a1.516 1.516 0 0 1-1.064.452 1.548 1.548 0 0 1-1.549-1.549c.004-.4.167-.783.452-1.064a1.516 1.516 0 0 1 2.161 0c.299.272.464.66.452 1.064a1.42 1.42 0 0 1-.452 1.097z"/>
    </g>
</svg>
