<svg xmlns="http://www.w3.org/2000/svg" xmlns:xlink="http://www.w3.org/1999/xlink" width="428" height="236" viewBox="0 0 428 236">
    <defs>
        <path id="b" d="M37.883 0h360a6 6 0 0 1 6 6v202h-372V6a6 6 0 0 1 6-6z"/>
        <filter id="a" width="112.1%" height="121.6%" x="-6%" y="-9.4%" filterUnits="objectBoundingBox">
            <feOffset dy="3" in="SourceAlpha" result="shadowOffsetOuter1"/>
            <feGaussianBlur in="shadowOffsetOuter1" result="shadowBlurOuter1" stdDeviation="7"/>
            <feColorMatrix in="shadowBlurOuter1" values="0 0 0 0 0 0 0 0 0 0 0 0 0 0 0 0 0 0 0.159801136 0"/>
        </filter>
        <path id="c" d="M.186.498h8.451v5.35H.186z"/>
    </defs>
    <g fill="none" fill-rule="evenodd">
        <g transform="translate(-9.883 11)">
            <use fill="#000" filter="url(#a)" xlink:href="#b"/>
            <use fill="#FFF" xlink:href="#b"/>
        </g>
        <path fill="#00C7B1" d="M34 209h112v10H24c0-5.523 4.477-10 10-10z"/>
        <path fill="#888B8D" d="M147 209h122v10H147z"/>
        <path fill="#EF6079" d="M270 209h112c5.523 0 10 4.477 10 10H270v-10z"/>
        <g>
            <path fill="#717578" d="M41.517 79.767s.533.66 2.174.308c1.651-.355 11.143-1.666 11.943 1.134 0 0 1.673-2.478-.927-5.256-2.683-2.85-11.983-.982-14.127 1.346l.937 2.468zM37.989 65.81c1.76-.41 11.893-1.973 12.79 1.062 0 0 1.744-2.716-1.089-5.728-2.92-3.121-10.622-1.626-15.234.376l3.533 4.29z"/>
            <path fill="#888B8D" d="M42.058 79.773l-1.95-4.902s12.69-5.71 10.07-12.975c0 0 4.527 8.024-1.26 12.913-5.487 4.649-6.86 4.964-6.86 4.964M53.418 75.528s3.467 1.945.785 7.834c-2.885 6.477 5.63 11.293 5.63 11.293l5.098-2.138s-9.18-1.092-8.252-7.023c.989-6.374.427-7.773-3.26-9.966"/>
            <path fill="#CD435B" d="M26.331 105.879s1.338.736 3.788-.965c2.453-1.71 17.11-10.321 20.374-6.259 0 0 1.011-5.189-5.206-8.016-6.403-2.922-20.339 6.493-22.236 11.782l3.28 3.458zM9.44 85.095c2.59-1.855 18.157-11.09 21.926-6.55 0 0 .844-5.735-6.092-8.953-7.154-3.33-18.763 4.2-24.886 10.573l9.053 4.93z"/>
            <path fill="#EF6079" d="M26.071 106.311l-6.648-6.83s17.365-18.754 7.97-29.082c0 0 13.112 10.23 6.778 22.618-6.01 11.786-8.1 13.294-8.1 13.294M42.023 89.967s7.28.707 6.663 12.384c-.533 12.813 17.358 14.527 17.358 14.527l7.306-7.252s-16.498 4.913-18.947-5.559c-2.646-11.28-4.553-13.152-12.38-14.1M65.785 44.503l5.211 4.177 3.228-7.928-7.89-6.446z"/>
            <path fill="#23BBB8" d="M69.428 63.247l-1.548-3.774-2.18.709-.279 3.413z"/>
            <path fill="#EB008B" d="M95.955 38.452l-.294-2.716-2.462 1.884.471 3.597zM55.879 52.343l-.302-2.703-2.465 1.867.475 3.614zM87.611 58.4l-.295-2.705-2.465 1.868.474 3.613z"/>
            <path fill="#00C7B1" d="M78.522 41.9l2.258 2.841 2.684-3.62-3.392-4.392zM41.29 34.345l-2.765-7.877 7.73 2.606 6.376-5.076.078 8.37L36.6 41.104zM52.34 39.858l-2.402 7.822-4.906-6.532-8.367.288 16.762-8.696 6.88 4.549z"/>
        </g>
        <g>
            <path fill="#717578" d="M383.94 80.717s-.423.844-2.214.807c-1.8-.038-12.006.552-12.273 3.817 0 0-2.257-2.378-.1-6.003 2.23-3.725 12.347-3.658 15.067-1.547l-.48 2.926zM384.605 65.47c-1.92-.074-12.805.37-13.125 3.87 0 0-2.37-2.592-.025-6.478 2.413-4.024 10.749-4.026 15.965-2.82l-2.815 5.428z"/>
            <path fill="#888B8D" d="M384.29 81.34l1.13-5.508s-15.63-3.382-14.263-11.491c0 0-3.361 9.285 4.27 13.213 7.239 3.737 8.862 3.787 8.862 3.787M371.285 78.34s-3.335 2.702.796 8.228c4.475 6.1-3.708 12.773-3.708 12.773l-5.953-1.182s9.682-2.966 7.436-8.893c-2.406-6.372-2.093-7.926 1.429-10.925"/>
            <path fill="#4FAFB4" d="M404.705 105.98s-1.23.994-4.04-.32c-2.814-1.322-19.326-7.553-21.926-2.713 0 0-1.967-5.236 3.859-9.34 5.997-4.214 21.932 3.01 24.822 8.162l-2.715 4.211zM418.855 80.34c-3.056-1.541-21.066-8.71-24.171-2.921 0 0-1.944-6.196 4.713-11.15 6.878-5.125 20.423.942 28.023 6.817l-8.565 7.255z"/>
            <path fill="#00C7B1" d="M405.457 105.34l5.963-8.317S388.645 80.77 396.952 68.34c0 0-12.414 13.017-3.015 24.709 8.924 11.091 11.52 12.29 11.52 12.29M386.42 92.34s-7.454 2.106-4.644 14.341c2.935 13.477-15.39 18.66-15.39 18.66l-8.966-6.31s18.109 2.093 18.718-9.45c.654-12.412 2.304-14.777 10.282-17.24M351.42 48.914l-4.799 5.427-5.201-7.645 7.239-8.355z"/>
            <path fill="#23BBB8" d="M351.42 69.34l1-4 2.843.264 1.157 3.314z"/>
            <path fill="#EB008B" d="M318.726 48.06l-.306-2.72 3.701 1.376.299 3.625zM364.713 54.062l-.293-2.721 3.688 1.378.312 3.622zM347.727 99.074l-.307-2.733 3.701 1.362.299 3.638zM331.721 68.055l-.301-2.714 3.7 1.363.3 3.637z"/>
            <path fill="#EF6079" d="M375.905 33.19l1.34-8.85-7.838 4.322-7.987-4.036 1.68 8.818 19.32 5.897z"/>
            <path fill="#EF6079" d="M365.424 40.606l4.171 7.735 3.866-7.874 8.959-1.406-19.624-5.72-6.376 6.191z"/>
        </g>
    </g>
</svg>
