<svg xmlns="http://www.w3.org/2000/svg" xmlns:xlink="http://www.w3.org/1999/xlink" width="39" height="43" viewBox="0 0 39 43">
    <defs>
        <path id="a" d="M19.06.125A51.378 51.378 0 0 1 .864 7.053l-.17.03A.84.84 0 0 0 0 7.91v10.993a24.77 24.77 0 0 0 5.43 15.45 24.667 24.667 0 0 0 13.89 8.627.825.825 0 0 0 .36 0 24.685 24.685 0 0 0 13.891-8.635A24.785 24.785 0 0 0 39 18.892V7.91a.84.84 0 0 0-.693-.827l-.058-.01A51.998 51.998 0 0 1 19.94.124a.837.837 0 0 0-.878 0z"/>
        <path id="c" d="M38.307 7.083l-.058-.01A51.992 51.992 0 0 1 19.94.124a.836.836 0 0 0-.879 0A51.39 51.39 0 0 1 .864 7.054l-.17.03A.84.84 0 0 0 0 7.91v10.993a24.77 24.77 0 0 0 5.43 15.45 24.669 24.669 0 0 0 13.89 8.627.847.847 0 0 0 .36 0 24.684 24.684 0 0 0 13.891-8.635A24.784 24.784 0 0 0 39 18.892V7.91a.839.839 0 0 0-.693-.827z"/>
        <path id="e" d="M0 6.483v9.826c0 10.163 6.927 19.128 16.495 21.384 9.57-2.262 16.496-11.23 16.496-21.395V6.482A48.72 48.72 0 0 1 16.497 0 48.184 48.184 0 0 1 0 6.483z"/>
    </defs>
    <g fill="none" fill-rule="evenodd">
        <g>
            <mask id="b" fill="#fff">
                <use xlink:href="#a"/>
            </mask>
            <path fill="#fff" d="M-1.639 44.617H40.64V-1.617H-1.64z" mask="url(#b)"/>
        </g>
        <g>
            <mask id="d" fill="#fff">
                <use xlink:href="#c"/>
            </mask>
            <g fill="#000" mask="url(#d)">
                <path d="M13.951-.97h5.713v22.632H-3.277v-5.403C-3.277 6.744 4.436-.97 13.95-.97z"/>
                <path d="M13.951 44.293h5.713V21.662H-3.277v5.403c0 9.515 7.713 17.228 17.228 17.228zM25.376-.97h-5.712v22.632h22.941v-5.403c0-9.515-7.713-17.229-17.229-17.229z"/>
                <path d="M25.376 44.293h-5.712V21.662h22.941v5.403c0 9.515-7.713 17.228-17.229 17.228z"/>
            </g>
        </g>
        <g transform="translate(3 3)">
            <mask id="f" fill="#fff">
                <use xlink:href="#e"/>
            </mask>
            <path fill="#FFF" d="M-1.32 39.361h35.63V-1.334H-1.32z" mask="url(#f)"/>
        </g>
        <path fill="#000" fill-rule="nonzero" d="M15.076 28c-.592 0-1.087-.186-1.482-.56-.396-.372-.594-.853-.594-1.44s.198-1.068.594-1.44c.395-.374.89-.56 1.482-.56.73 0 1.274.315 1.632.945l-.713.348a1.068 1.068 0 0 0-.377-.403.983.983 0 0 0-.542-.16c-.354 0-.647.12-.877.36-.23.24-.345.543-.345.91s.115.67.345.91c.23.24.523.36.877.36a.996.996 0 0 0 .542-.157c.165-.104.291-.24.377-.406l.713.342c-.37.634-.914.951-1.632.951zm6.164-.07h-.947l-.24-.655H18.38l-.246.655h-.947l1.509-3.866h1.041l1.503 3.866zm-1.415-1.38l-.608-1.663-.609 1.664h1.217zm5.374 1.38h-.953l-.767-1.373h-.608v1.373h-.83v-3.866h1.825c.401 0 .72.116.956.348.236.231.354.531.354.898 0 .317-.083.574-.249.771a1.092 1.092 0 0 1-.605.377l.877 1.472zm-1.456-2.098a.62.62 0 0 0 .42-.142.477.477 0 0 0 .165-.38.477.477 0 0 0-.164-.38.62.62 0 0 0-.421-.142h-.872v1.044h.872zM29 27.93h-2.76v-3.866H29v.724h-1.93v.818h1.89v.724h-1.89v.876H29v.724z"/>
        <g fill="#000">
            <path d="M18.373 18.39h-1.456c-.201 0-.364.152-.364.339v3.722c0 .187.163.338.364.338h1.456c.2 0 .364-.151.364-.338v-3.722c0-.187-.163-.338-.364-.338M18.373 16.028h-1.456c-.201 0-.364.152-.364.338v1.352c0 .187.163.339.364.339h1.456c.2 0 .364-.152.364-.339v-1.352c0-.186-.163-.338-.364-.338M16.553 14.338c0-.186-.164-.338-.364-.338h-5.825c-.201 0-.364.152-.364.338v1.352c0 .187.163.338.364.338h1.82v6.423c0 .187.163.338.364.338h1.456c.201 0 .364-.151.364-.338v-6.423h1.82c.201 0 .365-.15.365-.338v-1.352zM23.47 20.76h-1.82v-6.422c0-.186-.164-.338-.365-.338H19.83c-.201 0-.364.151-.364.338v8.113c0 .187.163.338.364.338h3.64c.201 0 .364-.151.364-.338v-1.352c0-.187-.163-.338-.364-.338M28.535 19.58a1.17 1.17 0 0 1-1.202 1.197c-.711 0-1.288-.536-1.288-1.196v-2.363c0-.66.576-1.196 1.288-1.196a1.17 1.17 0 0 1 1.202 1.196v2.363zm2.204 2.535v-7.431c-.006-.167-.153-.3-.334-.3l-1.152-.007a1.76 1.76 0 0 1-.556-.106c-.036-.014-.072-.024-.108-.037-.07-.026-.14-.05-.212-.071l-.04-.012a2.924 2.924 0 0 0-.864-.14l-.284-.001a3.605 3.605 0 0 0-1.575.383c-.02.01-.039.023-.059.034l-.027.016a3.4 3.4 0 0 0-.347.218c-.059.04-.117.081-.171.126-.035.027-.067.058-.1.087a3.519 3.519 0 0 0-.239.232 3.1 3.1 0 0 0-.155.18l-.065.083a3.141 3.141 0 0 0-.474.922l-.012.036c-.033.111-.062.222-.082.333l-.003.012v.003c-.031.176-.046.35-.042.522l.007.45c0 .282.003.39.004.547l.002.194-.002.194-.004.648-.007.372c-.004.171.01.346.041.522v.003l.004.012c.02.11.049.222.082.333l.012.036c.033.103.071.204.115.305l.012.028c.092.204.208.402.347.589l.065.082a2.932 2.932 0 0 0 .394.413c.033.03.065.06.1.087.054.044.113.085.171.127.11.078.225.15.346.216l.028.017c.02.01.039.023.06.034.463.235.97.361 1.488.38.028.002.057.002.085.003h.015l.27-.002a2.943 2.943 0 0 0 .904-.151 3.47 3.47 0 0 0 .212-.071c.036-.013.072-.023.108-.037.153-.06.346-.097.556-.106l1.167-.007c.178 0 .321-.135.319-.3z"/>
        </g>
    </g>
</svg>
