<svg xmlns="http://www.w3.org/2000/svg" width="25" height="29" viewBox="0 0 25 29">
    <g fill="#6C717D" fill-rule="nonzero">
        <path stroke="#6C717D" stroke-width=".901" d="M12.656 27.738c2.846 0 11.414-4.913 11.414-12.166V4.544a.543.543 0 0 0-.48-.527l-8.242-2.948a10.081 10.081 0 0 0-5.384 0L1.723 4.017a.543.543 0 0 0-.482.527v11.028c0 7.253 8.57 12.166 11.415 12.166zM2.368 5.005l7.799-2.886a.539.539 0 0 0 .078-.017 8.89 8.89 0 0 1 4.822 0 .539.539 0 0 0 .079.017l7.798 2.886v10.567c0 6.494-7.801 11.1-10.288 11.1s-10.288-4.606-10.288-11.1V5.005z"/>
        <path d="M10.994 17.694a.604.604 0 0 0 .957-.077l5.681-6.014a.603.603 0 1 0-1.014-.653l-5.254 5.35-2.007-2.235a.604.604 0 0 0-.898.806l2.535 2.823z"/>
    </g>
</svg>
