<svg xmlns="http://www.w3.org/2000/svg" width="28" height="32" viewBox="0 0 28 32">
    <g fill="#6C717D" fill-rule="nonzero">
        <path stroke="#6C717D" d="M13.917 30.792c3.158 0 12.666-5.76 12.666-14.262V3.6a.625.625 0 0 0-.534-.618L16.904 1.64a10.612 10.612 0 0 0-5.975 0L1.784 2.982a.625.625 0 0 0-.534.618v12.93c0 8.502 9.509 14.262 12.667 14.262zM2.5 4.14l8.655-1.27a.57.57 0 0 0 .087-.02 9.357 9.357 0 0 1 5.35 0 .57.57 0 0 0 .088.02l8.653 1.27v12.39c0 7.612-8.657 13.012-11.416 13.012-2.76 0-11.417-5.4-11.417-13.012V4.14z"/>
        <path d="M12.351 20.808a.625.625 0 0 0 .99-.08l5.66-8.78a.625.625 0 1 0-1.05-.677l-5.216 8.093-2.08-2.315a.625.625 0 0 0-.93.836l2.626 2.923z"/>
    </g>
</svg>
