<svg xmlns="http://www.w3.org/2000/svg" width="60" height="50" viewBox="0 0 60 50">
    <g fill="none" fill-rule="nonzero" opacity=".897">
        <path fill="#D63230" d="M33.606 44.03H22.44c0 3.275 2.671 5.94 5.955 5.94 3.283 0 5.955-2.665 5.955-5.94h-.744z"/>
        <path fill="#FFB234" d="M43.275 34.98a2.969 2.969 0 0 0-1.683-2.665l-1.076-.518a.741.741 0 0 1-.402-.507l-3.934-17.6a2.976 2.976 0 0 0-2.906-2.323H23.51a2.976 2.976 0 0 0-2.906 2.323l-3.935 17.6a.737.737 0 0 1-.402.506l-1.078.52a2.967 2.967 0 0 0-1.68 2.664l-.008 2.366a.748.748 0 0 0 .744.745h28.293a.745.745 0 0 0 .745-.744l-.008-2.367z"/>
        <path fill="#FF9E00" d="M15.735 37.347l.007-2.366a2.97 2.97 0 0 1 1.68-2.663l1.078-.52a.737.737 0 0 0 .402-.507l3.935-17.6a2.976 2.976 0 0 1 2.906-2.324H23.51a2.976 2.976 0 0 0-2.906 2.323l-3.935 17.6a.737.737 0 0 1-.402.506l-1.078.52a2.967 2.967 0 0 0-1.68 2.664l-.008 2.366a.748.748 0 0 0 .744.745h2.234a.745.745 0 0 1-.744-.744z"/>
        <path fill="#FFB234" d="M31.578 3.686a3.733 3.733 0 0 0-2.765-1.227h-.836c-1.052 0-2.06.448-2.765 1.227a3.71 3.71 0 0 0-.936 2.87.681.681 0 0 0 .015.093l1.333 5.63a.743.743 0 0 0 .724.573h4.094a.745.745 0 0 0 .725-.573l1.332-5.63a.663.663 0 0 0 .016-.094 3.708 3.708 0 0 0-.937-2.869z"/>
        <path fill="#F5A623" d="M27.112 12.28l-1.333-5.631a.663.663 0 0 1-.015-.094 3.71 3.71 0 0 1 .936-2.869 3.717 3.717 0 0 1 2.439-1.192c-.11-.01-.216-.035-.326-.035h-.836c-1.052 0-2.06.448-2.765 1.227a3.71 3.71 0 0 0-.936 2.87.681.681 0 0 0 .015.093l1.333 5.63a.743.743 0 0 0 .724.573h1.489a.745.745 0 0 1-.725-.573z"/>
        <g fill="#BF6F44">
            <path d="M39.477 28.441l-.202-.904a.743.743 0 0 0-.726-.58H34.35v1.484h5.127zM35.839 30.668v1.485h3.54a.743.743 0 0 0 .726-.904l-.13-.58H35.84zM16.803 30.668l-.129.58a.743.743 0 0 0 .726.905h3.551v-1.485h-4.148zM22.44 28.441v-1.485h-4.21c-.349 0-.65.242-.726.58l-.202.905h5.138z"/>
        </g>
        <g fill="#9BC53D">
            <path d="M27.308 31.114a2.228 2.228 0 0 1-1.146-1.9.742.742 0 0 0-.87-.793 3.693 3.693 0 0 0-2.343 1.448 3.687 3.687 0 0 0-.172 4.143.745.745 0 0 0 .45.33 3.705 3.705 0 0 0 4.416-2.331.742.742 0 0 0-.335-.897zM33.842 29.87a3.697 3.697 0 0 0-2.343-1.448.734.734 0 0 0-.607.162.74.74 0 0 0-.263.63 2.231 2.231 0 0 1-1.147 1.9.74.74 0 0 0-.334.898 3.703 3.703 0 0 0 4.416 2.331.744.744 0 0 0 .451-.33 3.69 3.69 0 0 0-.173-4.144z"/>
            <path d="M28.531 26.124a3.708 3.708 0 0 0-4.56-2.843.744.744 0 0 0-.45.33 3.69 3.69 0 0 0 1.768 5.372.741.741 0 0 0 .597-.017.744.744 0 0 0 .393-.448A2.221 2.221 0 0 1 27.949 27a.744.744 0 0 0 .582-.876z"/>
            <path d="M33.27 23.612a.745.745 0 0 0-.45-.33 3.704 3.704 0 0 0-4.56 2.843.744.744 0 0 0 .582.876c.785.158 1.426.74 1.67 1.517a.744.744 0 0 0 .99.466 3.69 3.69 0 0 0 1.768-5.372z"/>
        </g>
        <path fill="#FE7B35" d="M31.372 15.821h1.489v1.485h-1.489z"/>
        <g fill="#F8E71C">
            <path d="M45.516 18.79h1.489v1.486h-1.49zM45.516 21.76h1.489v1.485h-1.49z"/>
            <path d="M47.005 20.276h1.489v1.485h-1.49zM44.027 20.276h1.489v1.485h-1.49z"/>
        </g>
        <g fill="#9BC53D">
            <path d="M10.53 6.913h1.49v1.485h-1.49zM10.53 9.882h1.49v1.485h-1.49zM12.02 8.398h1.488v1.485H12.02z"/>
            <path d="M9.041 8.398h1.49v1.485H9.04z"/>
        </g>
        <g fill="#9BBBE3">
            <path d="M1.489 38.525h1.489v1.485H1.489zM1.489 41.494h1.489v1.485H1.489zM2.978 40.01h1.489v1.485H2.978zM0 40.01h1.489v1.485H0z"/>
        </g>
        <g fill="#9BBBE3">
            <path d="M56.557 0h1.49v1.485h-1.49zM56.557 2.969h1.49v1.485h-1.49z"/>
            <path d="M58.046 1.485h1.49V2.97h-1.49zM55.068 1.485h1.49V2.97h-1.49z"/>
        </g>
        <ellipse cx="28.395" cy="29.183" fill="#D63230" rx="3.722" ry="3.712"/>
        <path fill="#A12624" d="M27.651 28.441h1.489v1.485h-1.489z"/>
        <path fill="#FDC567" d="M44.027 36.607H12.763c-.823 0-1.489.664-1.489 1.485v4.454h34.242v-4.454c0-.82-.667-1.485-1.49-1.485z"/>
        <path fill="#FF9E00" d="M14.996 36.607h-2.233c-.823 0-1.489.664-1.489 1.485v4.454h2.233v-4.454c0-.82.667-1.485 1.49-1.485z"/>
    </g>
</svg>
