<svg xmlns="http://www.w3.org/2000/svg" width="18" height="18" viewBox="0 0 18 18">
    <path fill="#000" fill-rule="nonzero" d="M15.176 11.663c-1.241-.39-2.559-.492-3.086-.694-.092-.035-.153-.091-.217-.216a1.61 1.61 0 0 1-.133-.478c.34-.35.636-.756.887-1.189.777-1.346 1.155-2.977 1.155-4.27C13.782 2.158 11.638 0 9.001 0 6.363 0 4.217 2.159 4.217 4.815c0 1.293.379 2.925 1.157 4.271.239.414.52.803.842 1.143a1.905 1.905 0 0 1-.123.529c-.06.136-.116.186-.181.211-.53.202-1.847.303-3.088.694-1.24.391-2.486 1.144-2.817 2.696a.314.314 0 0 0 .095.298c4.9 4.457 12.896 4.457 17.796 0a.314.314 0 0 0 .095-.298c-.332-1.552-1.576-2.305-2.817-2.696zM5.91 8.772c-.71-1.23-1.072-2.79-1.072-3.957 0-2.318 1.861-4.19 4.163-4.19 2.302 0 4.16 1.872 4.16 4.19 0 1.167-.36 2.727-1.07 3.957-.711 1.23-1.729 2.113-3.09 2.113-1.362 0-2.38-.883-3.09-2.113zM.656 14.316c.323-1.163 1.261-1.712 2.353-2.056 1.146-.361 2.38-.423 3.123-.706h.001c.249-.096.423-.307.527-.542.04-.091.073-.188.099-.29.629.485 1.377.788 2.242.788.848 0 1.585-.291 2.205-.761.03.102.068.199.114.29.116.226.303.42.549.515.742.283 1.976.345 3.121.706 1.092.344 2.03.892 2.353 2.056-4.615 4.065-12.071 4.065-16.687 0z"/>
</svg>
