<?xml version="1.0" encoding="UTF-8"?>
<svg width="14px" height="14px" viewBox="0 0 14 14" version="1.1" xmlns="http://www.w3.org/2000/svg" xmlns:xlink="http://www.w3.org/1999/xlink">
    <!-- Generator: Sketch 54.1 (76490) - https://sketchapp.com -->
    
    
    <g id="Page-1" stroke="none" stroke-width="1" fill="none" fill-rule="evenodd">
        <g id="Group-15-Copy" transform="translate(1.000000, 3.000000)" fill="#BEBEBE">
            <g id="fa-eye" transform="translate(0.000000, 0.652174)">
                <path d="M0.27047259,4.28786389 C0.888695652,5.29776938 1.72022684,6.11765595 2.76559546,6.7237051 C3.81096408,7.34139887 4.91614367,7.6499811 6.08007561,7.6499811 C7.24453686,7.6499811 8.34971645,7.34139887 9.39508507,6.73534972 C10.4404537,6.11765595 11.2719849,5.30941399 11.8896786,4.28786389 C11.9727788,4.13330813 12.0204159,3.97875236 12.0204159,3.83637051 C12.0204159,3.68181474 11.9727788,3.52778828 11.8896786,3.37323251 C11.2719849,2.36332703 10.4404537,1.54344045 9.39508507,0.937391304 C8.34971645,0.319697543 7.24453686,0.0111153119 6.08007561,0.0111153119 C4.91614367,0.0111153119 3.81096408,0.319697543 2.76559546,0.937391304 C1.72022684,1.54344045 0.888695652,2.36332703 0.27047259,3.37323251 C0.187372401,3.52778828 0.14026465,3.68181474 0.14026465,3.83637051 C0.14026465,3.97875236 0.187372401,4.13330813 0.27047259,4.28786389 L0.27047259,4.28786389 Z M3.51402647,1.48415879 C3.24090737,1.94729679 3.11017013,2.44642722 3.11017013,2.98102079 C3.11017013,3.80090737 3.39546314,4.50170132 3.97716446,5.08393195 C4.55939509,5.66616257 5.26071834,5.95145558 6.08007561,5.95145558 C6.89996219,5.95145558 7.60075614,5.66616257 8.17134216,5.08393195 C8.75357278,4.50170132 9.0505104,3.80090737 9.0505104,2.98102079 C9.0505104,2.44642722 8.90759924,1.94729679 8.64665406,1.48415879 C9.65655955,2.00710775 10.4997353,2.79100189 11.1650662,3.83637051 C10.5828355,4.73935728 9.84657845,5.46396975 8.95523629,5.99856333 C8.07606805,6.5331569 7.11379962,6.80680529 6.08007561,6.80680529 C5.04688091,6.80680529 4.08461248,6.5331569 3.19327032,5.99856333 C2.31410208,5.46396975 1.57731569,4.73935728 0.983440454,3.83637051 C1.66094518,2.79100189 2.50412098,2.00710775 3.51402647,1.48415879 L3.51402647,1.48415879 Z M4.65466919,1.55561437 C5.04688091,1.16340265 5.52166352,0.96120983 6.08007561,0.96120983 C6.1637051,0.96120983 6.23463138,0.997202268 6.30608696,1.05648393 C6.36536862,1.1157656 6.38918715,1.18722117 6.38918715,1.28196597 C6.38918715,1.36506616 6.36536862,1.44869565 6.30608696,1.50797732 C6.23463138,1.56725898 6.1637051,1.60272212 6.08007561,1.60272212 C5.70003781,1.60272212 5.36763705,1.73345936 5.10616257,2.00710775 C4.83304348,2.28022684 4.70230624,2.60098299 4.70230624,2.98102079 C4.70230624,3.0762949 4.6663138,3.14722117 4.60703214,3.20703214 C4.54775047,3.2663138 4.46465028,3.30177694 4.38155009,3.30177694 C4.28627599,3.30177694 4.21534972,3.2663138 4.15553875,3.20703214 C4.09625709,3.14722117 4.06079395,3.0762949 4.06079395,2.98102079 C4.06079395,2.4226087 4.26245747,1.94729679 4.65466919,1.55561437 L4.65466919,1.55561437 Z" id="Fill-1"></path>
            </g>
        </g>
    </g>
</svg>