<svg xmlns="http://www.w3.org/2000/svg" width="12" height="14" viewBox="0 0 12 14">
    <g fill="none" fill-rule="evenodd">
        <path fill="#BEBEBE" d="M.27 7.94a7.01 7.01 0 0 0 2.496 2.436c1.045.618 2.15.926 3.314.926 1.165 0 2.27-.308 3.315-.914A7.036 7.036 0 0 0 11.89 7.94a.975.975 0 0 0 .13-.451.98.98 0 0 0-.13-.464A7.004 7.004 0 0 0 9.395 4.59c-1.045-.618-2.15-.927-3.315-.927-1.164 0-2.269.309-3.314.927A7.01 7.01 0 0 0 .27 7.025a.978.978 0 0 0-.13.464c0 .142.047.296.13.451zm3.244-2.804a2.891 2.891 0 0 0-.404 1.497c0 .82.285 1.52.867 2.103a2.862 2.862 0 0 0 2.103.868c.82 0 1.52-.286 2.091-.868.583-.582.88-1.283.88-2.103 0-.534-.143-1.034-.404-1.497 1.01.523 1.853 1.307 2.518 2.353a6.734 6.734 0 0 1-2.21 2.162 5.447 5.447 0 0 1-2.875.808 5.52 5.52 0 0 1-2.887-.808 6.97 6.97 0 0 1-2.21-2.162c.678-1.046 1.521-1.83 2.531-2.353zm1.14.072a1.946 1.946 0 0 1 1.426-.595c.084 0 .155.036.226.096.06.059.083.13.083.225a.315.315 0 0 1-.083.226.348.348 0 0 1-.226.095c-.38 0-.712.13-.974.404a1.319 1.319 0 0 0-.404.974.306.306 0 0 1-.095.226.324.324 0 0 1-.225.095.305.305 0 0 1-.226-.095.305.305 0 0 1-.095-.226c0-.558.201-1.034.594-1.425z"/>
        <g stroke-width=".609">
            <path stroke="#BEBEBE" d="M8.4 0L3 14"/>
            <path stroke="#F9F9F9" d="M9 0L3.6 14M9 0L3.6 14"/>
        </g>
    </g>
</svg>
