<?xml version="1.0" encoding="UTF-8"?>
<svg width="24px" height="17px" viewBox="0 0 24 17" version="1.1" xmlns="http://www.w3.org/2000/svg" xmlns:xlink="http://www.w3.org/1999/xlink">
    <!-- Generator: sketchtool 50.2 (55047) - http://www.bohemiancoding.com/sketch -->
    <title>EC3B8CE2-48D7-4B0D-82A7-B56AAA00BABC</title>
    <desc>Created with sketchtool.</desc>
    <defs></defs>
    <g id="Symbols" stroke="none" stroke-width="1" fill="none" fill-rule="evenodd">
        <g id="Title" transform="translate(-1576.000000, -55.000000)">
            <g id="Group-2">
                <g id="Group">
                    <g id="icon-compare" transform="translate(1576.000000, 55.000000)">
                        <rect id="Rectangle-6" fill="#FFFFFF" x="1.30769231" y="6.53846154" width="6.53846154" height="9.15384615"></rect>
                        <rect id="Rectangle-6-Copy-2" fill="#FFFFFF" x="15.6923077" y="9.15384615" width="6.53846154" height="6.53846154"></rect>
                        <rect id="Rectangle-6-Copy" fill="#FFFFFF" x="7.84615385" y="1.30769231" width="7.84615385" height="14.3846154"></rect>
                        <path d="M8.01473061,0.00104862048 C7.63868444,0.0424512312 7.35375446,0.376555857 7.35577658,0.773728229 L7.35577658,5.66736575 L0.735587285,5.66736575 C0.710063772,5.66596759 0.684488236,5.66596759 0.658964723,5.66736575 C0.282918553,5.70876836 -0.00201143126,6.04287298 1.06959007e-05,6.44004536 L1.06959007e-05,16.2273204 C5.13128992e-05,16.6540419 0.329356378,16.9999573 0.735587285,17 L22.8028849,17 C23.2091159,16.9999573 23.5384209,16.6540419 23.5384615,16.2273204 L23.5384615,9.53076379 C23.5384209,9.1040423 23.2091159,8.75812685 22.8028849,8.75808418 L16.1826957,8.75808418 L16.1826957,0.773728229 C16.182655,0.347006739 15.85335,0.00109128623 15.4471191,0.00104862048 L8.09135317,0.00104862048 C8.06582966,-0.000349540161 8.04025412,-0.000349540161 8.01473061,0.00104862048 Z M8.82692976,1.54640784 L14.7115425,1.54640784 L14.7115425,15.4546408 L8.82692976,15.4546408 L8.82692976,1.54640784 Z M1.47116387,7.21272496 L7.35577658,7.21272496 L7.35577658,15.4546408 L1.47116387,15.4546408 L1.47116387,7.21272496 Z M16.1826957,10.3034434 L22.0673084,10.3034434 L22.0673084,15.4546408 L16.1826957,15.4546408 L16.1826957,10.3034434 Z" id="Shape" fill="#000000" fill-rule="nonzero"></path>
                    </g>
                </g>
            </g>
        </g>
    </g>
</svg>