<svg xmlns="http://www.w3.org/2000/svg" width="20" height="20" viewBox="0 0 20 20">
    <g fill="#4A4A4A" fill-rule="nonzero" opacity=".537">
        <path d="M.5 16.743v2.314c0 .255.194.463.434.463h4.123v-.926H1.368v-1.389h10.85v1.389H7.661v.926h4.991c.24 0 .434-.208.434-.463v-2.314a.463.463 0 0 0-.245-.412c.008-.01.02-.018.027-.028 1.152-1.51-.09-4.553-2.828-6.928C7.303 7 4.256 6.322 3.104 7.833c-1.152 1.51.09 4.553 2.828 6.928.68.592 1.419 1.102 2.204 1.519H.934c-.24 0-.434.207-.434.463zm5.98-2.7C4 11.89 3.065 9.35 3.778 8.417a1.444 1.444 0 0 1 1.2-.46c1.142 0 2.838.682 4.513 2.136 2.48 2.152 3.414 4.692 2.702 5.626-.36.472-1.144.594-2.153.338a9.185 9.185 0 0 1-3.56-2.014z"/>
        <path d="M5.925 18.594h1v1h-1zM11.177 15.253c.237-.024.41-.248.39-.5-.052-.622-.668-2.246-2.621-3.94-1.65-1.43-3.168-1.94-3.968-1.94-.061 0-.122.004-.183.01-.236.025-.41.248-.389.5.053.622.668 2.246 2.622 3.94 1.649 1.43 3.168 1.937 3.967 1.937.073.001.134-.002.182-.007zm-3.603-2.647a7.943 7.943 0 0 1-2.14-2.748 7.46 7.46 0 0 1 2.962 1.671 7.944 7.944 0 0 1 2.14 2.749 7.451 7.451 0 0 1-2.962-1.672zM15.473 19.597h2.604c.72 0 1.303-.622 1.303-1.389V9.8c0-.256-.195-.463-.434-.463V4.708c0-.256-.195-.463-.435-.463V1.39c0-.562-.317-1.068-.803-1.283a1.243 1.243 0 0 0-1.42.3l-.867.926c-.245.26-.383.614-.382.983v1.93c-.24 0-.434.207-.434.463v4.629c-.24 0-.434.207-.434.463v8.408c0 .767.583 1.389 1.302 1.389zm.434-17.282c0-.123.046-.241.128-.328l.868-.926a.414.414 0 0 1 .473-.1c.162.072.268.24.267.428v2.856h-1.736v-1.93zm-.434 2.856h2.604v4.166h-2.604V5.17zm-.434 5.091h3.472v7.946c0 .256-.194.463-.434.463h-2.604c-.24 0-.434-.207-.434-.463v-7.946z"/>
    </g>
</svg>
