<svg xmlns="http://www.w3.org/2000/svg" width="17" height="21" viewBox="0 0 17 21">
    <g fill="none" fill-rule="evenodd">
        <path fill="#FFF" d="M-115-26h1440v694H-115z"/>
        <g fill="#A5A5A5" fill-rule="nonzero">
            <path d="M13.211 5.89h.85l.2-.82c.05-.102.25-1.024 0-2.56-.25-1.588-1.3-2.51-2.8-2.51-.35 0-.6.051-.65.051l-.8.205c-.15.051-.25.205-.2.41.05.205.05.512-.1.82-.1.153-.25.204-.5.204h-2-.05c-.2 0-.35-.051-.5-.205-.15-.205-.1-.563-.05-.82.05-.153-.05-.306-.2-.358l-.85-.205c-.05 0-.3-.05-.65-.05-1.5 0-2.55.972-2.8 2.509s0 2.459 0 2.561l.2.82h1.4c.35.665.65 1.536.65 1.997 0 .359-.3.973-.65 1.588-1.05 1.946-2.6 4.866-.75 10.244l.25.768h9.8l.25-.768c1.8-5.327.3-8.195-.7-10.09-.4-.718-.7-1.332-.7-1.793 0-.461.3-1.332.65-1.998h.7zm-4.95 13.471h-4.15c-.15-.461-.3-.922-.4-1.383h9.1c-.1.41-.25.87-.4 1.383h-4.15zm4.7-2.049h-9.4c-1.1-5.48 2.05-7.478 2.05-9.424 0-1.178-1.1-3.125-1.1-3.125h-1.2s-.2-.768 0-2.1c.2-1.383 1.15-1.587 1.7-1.587.25 0 .4.05.4.05s-.1.257.5 1.025c.45.564 1.05.615 1.35.615h.2c0 2.51.8 3.227.8 3.227s.8-.717.8-3.227h.2c.3 0 .9-.103 1.35-.615.6-.768.5-1.024.5-1.024s.15-.051.4-.051c.55 0 1.5.204 1.7 1.587.2 1.332 0 2.1 0 2.1h-1.2s-1.1 1.947-1.1 3.125c0 2.151 3.1 3.995 2.05 9.424z"/>
            <path d="M6 8h4.3v1H6z"/>
        </g>
    </g>
</svg>
