<svg xmlns="http://www.w3.org/2000/svg" width="23" height="20" viewBox="0 0 23 20">
    <path fill="#4A4A4A" fill-rule="nonzero" d="M22.768 18.527c-.258.866-1.003 1.444-1.92 1.444L2.012 20c-.888 0-1.662-.549-1.92-1.416-.258-.866.028-1.733.774-2.253l9.546-7.801h.028c.172-.116.344-.202.516-.231v-2.08a.217.217 0 0 0-.143-.203c-1.376-.289-2.38-1.56-2.38-2.976 0-.837.316-1.618.918-2.195.602-.578 1.376-.896 2.207-.838a3.007 3.007 0 0 1 2.896 2.976c0 .144 0 .26-.029.375-.029.29-.344.52-.602.376-.23-.058-.344-.26-.344-.491 0-.087.029-.174 0-.26-.029-1.098-.917-1.994-1.978-2.052a1.977 1.977 0 0 0-1.52.578c-.4.405-.63.925-.63 1.502 0 .983.688 1.85 1.634 2.052.23.058.43.173.573.318.23.23.316.549.316.866v2.37c0 .288-.2.52-.488.548a.849.849 0 0 0-.43.145l-7.195 5.865 13.903.029c.172 0 .316.087.402.231.229.405.028.722-.43.722H2.558l.143-.115-1.29 1.04h-.028c-.488.318-.516.838-.43 1.184.114.376.43.752 1.003.752h18.891c.574 0 .889-.376 1.004-.752.114-.375.057-.866-.43-1.184l-.029-.029-8.543-6.934a.467.467 0 0 1-.172-.376c0-.404.46-.635.774-.375l8.543 6.905c.717.52 1.032 1.387.774 2.254z" opacity=".532"/>
</svg>
