<svg xmlns="http://www.w3.org/2000/svg" width="17" height="21" viewBox="0 0 17 21">
    <g fill="none" fill-rule="evenodd">
        <path fill="#FFF" d="M-661-26H779v694H-661z"/>
        <path fill="#A5A5A5" fill-rule="nonzero" d="M13.862 13.047c-.61-.67-1.395-1.207-2.267-1.475v-.76h5.361L12.772 0H4.228L.088 10.857h5.36v.76c-2.092.626-3.574 2.636-3.574 4.915 0 1.787.96 3.485 2.441 4.379l.131.089h8.195l.13-.09a5.126 5.126 0 0 0 2.442-4.378c0-.849-.175-1.609-.567-2.323-.261-.581-.784-1.162-.784-1.162zM4.14 9.65l1.918-6.21H4.795L2.92 9.65H1.787l3.226-8.445h6.93l3.226 8.445h-1.133l-1.83-5.942h-1.221l1.83 5.942h-1.961l-.698-6.479H8.98l.698 6.48H7.279l.567-4.737H6.67L6.103 9.65H4.14zm6.277 1.743H6.582v-.537h3.836v.537zm1.83 8.4h-7.54c-1.09-.715-1.744-1.966-1.744-3.262 0-1.966 1.395-3.62 3.313-3.887h4.402c1.875.268 3.313 1.921 3.313 3.887 0 1.296-.654 2.547-1.743 3.262z"/>
    </g>
</svg>
