<svg xmlns="http://www.w3.org/2000/svg" width="26" height="20" viewBox="0 0 26 20">
    <path fill="#4A4A4A" fill-rule="evenodd" d="M24.706 15c.413 0 .749.32.749.714v3.572c0 .394-.336.714-.75.714H.75C.335 20 0 19.68 0 19.286v-3.572C0 15.32.335 15 .749 15V3.928C.749 1.758 2.592 0 4.866 0h15.723c2.274 0 4.117 1.758 4.117 3.928V15zM6.97 1.429H4.866c-1.447 0-2.62 1.119-2.62 2.499V15h20.963V3.928c0-1.38-1.173-2.5-2.62-2.5h-1.124v7.265c.873.295 1.498 1.088 1.498 2.021 0 1.184-1.006 2.143-2.246 2.143s-2.246-.96-2.246-2.143c0-.933.625-1.726 1.497-2.02V1.428H13.85v7.264c.873.295 1.498 1.088 1.498 2.021 0 1.184-1.006 2.143-2.246 2.143s-2.246-.96-2.246-2.143c0-.933.625-1.726 1.497-2.02V1.428H8.49L7.193 8.548c.627.38 1.042 1.048 1.042 1.81 0 1.183-1.005 2.142-2.246 2.142-1.24 0-2.246-.96-2.246-2.143 0-1.1.87-2.007 1.988-2.129l1.24-6.8zM1.497 18.57h22.46V16.43H1.497v2.142zm17.22-7.142c.413 0 .748-.32.748-.715 0-.394-.335-.714-.748-.714-.414 0-.75.32-.75.714 0 .395.336.715.75.715zm-5.615 0c.413 0 .748-.32.748-.715 0-.394-.335-.714-.748-.714-.414 0-.75.32-.75.714 0 .395.336.715.75.715zm-7.113-.358c.414 0 .749-.32.749-.714 0-.394-.335-.714-.749-.714-.413 0-.748.32-.748.714 0 .395.335.714.748.714z" opacity=".498"/>
</svg>
