<svg xmlns="http://www.w3.org/2000/svg" width="28" height="19" viewBox="0 0 28 19">
    <g fill="none" fill-rule="evenodd" stroke="#F5A623">
        <rect width="27" height="17.919" x=".5" y=".5" fill="#FFF" rx="2"/>
        <path stroke-linecap="round" stroke-linejoin="round" d="M18.54 7.946l-1.308 2.057M18.54 7.946l2.27 3.027"/>
        <path stroke-linecap="square" d="M18.54 1.5v16M.5 7.946h27"/>
        <g>
            <path d="M18.72 7.67c1.54-3.248 2.742-5.003 3.608-5.265 1.298-.392 3.91 1.777 2.86 3.31-.7 1.021-2.856 1.673-6.468 1.955zM17.964 7.466c-1.042-2.198-1.855-3.385-2.441-3.562-.879-.266-2.646 1.202-1.935 2.239.473.691 1.932 1.132 4.376 1.323z"/>
        </g>
    </g>
</svg>
