<svg xmlns="http://www.w3.org/2000/svg" width="34" height="11" viewBox="0 0 34 11">
    <g fill="none" fill-rule="nonzero">
        <path fill="#3C58BF" d="M12.467 10.079L14.194.364h2.698L15.22 10.08z"/>
        <path fill="#293688" d="M12.467 10.079L14.679.364h2.213L15.22 10.08z"/>
        <path fill="#3C58BF" d="M24.987.472C24.447.256 23.584.04 22.505.04c-2.699 0-4.642 1.35-4.642 3.293 0 1.457 1.35 2.212 2.43 2.698 1.078.486 1.402.81 1.402 1.241 0 .648-.863.972-1.619.972-1.08 0-1.673-.162-2.59-.54l-.378-.162-.378 2.213c.648.27 1.835.54 3.076.54 2.86 0 4.75-1.35 4.75-3.4 0-1.134-.702-1.997-2.321-2.699-.972-.486-1.565-.756-1.565-1.241 0-.432.486-.864 1.565-.864.917 0 1.565.162 2.05.378l.27.108.432-2.105z"/>
        <path fill="#293688" d="M24.987.472C24.447.256 23.584.04 22.505.04c-2.699 0-4.156 1.35-4.156 3.293 0 1.457.864 2.212 1.943 2.698 1.08.486 1.403.81 1.403 1.241 0 .648-.863.972-1.619.972-1.08 0-1.673-.162-2.59-.54l-.378-.162-.378 2.213c.648.27 1.835.54 3.076.54 2.86 0 4.75-1.35 4.75-3.4 0-1.134-.702-1.997-2.321-2.699-.972-.486-1.565-.756-1.565-1.241 0-.432.486-.864 1.565-.864.917 0 1.565.162 2.05.378l.27.108.432-2.105z"/>
        <path fill="#3C58BF" d="M29.629.364c-.648 0-1.134.054-1.404.702l-4.047 9.013h2.914l.54-1.62h3.454l.324 1.62H34L31.733.364H29.63zM28.387 6.84c.162-.485 1.08-2.86 1.08-2.86s.216-.593.377-.971l.162.917s.54 2.429.648 2.968h-2.267V6.84z"/>
        <path fill="#293688" d="M30.276.364c-.647 0-1.133.054-1.403.702l-4.695 9.013h2.914l.54-1.62h3.454l.324 1.62H34L31.733.364h-1.457zM28.387 6.84c.216-.54 1.08-2.86 1.08-2.86s.216-.593.377-.971l.162.917s.54 2.429.648 2.968h-2.267V6.84z"/>
        <path fill="#3C58BF" d="M7.502 7.164l-.27-1.403c-.486-1.619-2.051-3.4-3.778-4.263l2.429 8.635h2.914L13.168.418h-2.914L7.502 7.164z"/>
        <path fill="#293688" d="M7.502 7.164l-.27-1.403c-.486-1.619-2.051-3.4-3.778-4.263l2.429 8.635h2.914L13.168.418h-2.374L7.502 7.164z"/>
        <path fill="#FFBC00" d="M0 .364l.486.108c3.454.81 5.828 2.86 6.746 5.29L6.26 1.173C6.098.526 5.613.364 5.02.364H0z"/>
        <path fill="#F7981D" d="M0 .364c3.454.81 6.314 2.915 7.232 5.343l-.918-3.832A1.317 1.317 0 0 0 5.02.85L0 .364z"/>
        <path fill="#ED7C00" d="M0 .364c3.454.81 6.314 2.915 7.232 5.343l-.648-2.105c-.162-.647-.378-1.295-1.133-1.565L0 .364z"/>
        <g fill="#051244">
            <path d="M10.2 6.84L8.365 5.006l-.863 2.05-.216-1.349c-.486-1.619-2.051-3.4-3.778-4.263l2.429 8.635H8.85L10.2 6.84zM15.219 10.079l-2.32-2.375-.432 2.375zM21.425 6.733c.216.215.324.377.27.593 0 .648-.863.972-1.619.972-1.08 0-1.673-.162-2.59-.54l-.378-.162-.378 2.213c.648.27 1.835.54 3.076.54 1.727 0 3.13-.486 3.94-1.35l-2.32-2.266zM24.556 10.079h2.536l.54-1.62h3.454l.324 1.62H34l-.917-3.94-3.239-3.13.162.863s.54 2.429.648 2.968h-2.267c.216-.54 1.08-2.86 1.08-2.86s.216-.593.377-.971"/>
        </g>
    </g>
</svg>
