<svg xmlns="http://www.w3.org/2000/svg" width="58" height="58" viewBox="0 0 58 58">
    <g fill="none" fill-rule="evenodd">
        <circle cx="29" cy="29" r="28.615" fill="#DF4930" stroke="#DDD" stroke-width=".77"/>
        <path fill="#FFF" d="M27.02 22h4.123v.062c0 .406-.825.468-1.399.562-.179 0-.573.03-.68.093 1.039.468 1.219 1.248 1.219 2.37 0 1.31-.574 1.996-1.22 2.464-.358.312-.68.53-.68.842 0 .311.43.623.895.998.789.592 1.865 1.403 1.865 2.775 0 1.435-.717 2.463-2.08 3.025-1.075.468-2.223.53-2.689.53-.071 0-.107-.031-.143-.031 0 0-.036.031-.072.031-.681 0-4.159-.156-4.159-2.9 0-2.682 3.765-2.9 4.912-2.9h.036c-.645-.78-.538-1.56-.538-1.56h-.25c-.431 0-1.255-.062-1.973-.467-.896-.468-1.326-1.31-1.326-2.495 0-3.274 4.123-3.399 4.158-3.399zm-.144 8.638h-.287a3.663 3.663 0 0 0-2.043.717c-.502.406-.79.936-.753 1.466.107 1.091 1.434 1.715 3.083 1.621 1.613-.093 2.725-.904 2.618-1.996-.072-1.06-1.076-1.808-2.618-1.808zm-.645-7.671c-.108 0-.215 0-.359.031-.466.124-.824.468-1.04.967-.179.499-.215 1.029-.035 1.652.322 1.06 1.219 1.84 2.115 1.84.107 0 .215 0 .323-.031 1.004-.25 1.613-1.528 1.183-2.775-.43-1.31-1.112-1.684-2.187-1.684zm11.832 4.397v1.465h-2.69v2.34H33.69v-2.34h-2.69v-1.465h2.69v-2.34h1.685v2.34h2.689z"/>
    </g>
</svg>
