<svg xmlns="http://www.w3.org/2000/svg" width="58" height="58" viewBox="0 0 58 58">
    <defs>
        <linearGradient id="a" x1="31.216%" x2="58.863%" y1="100%" y2="0%">
            <stop offset="0%" stop-color="#FDB757"/>
            <stop offset="20.764%" stop-color="#F45E3B"/>
            <stop offset="42.327%" stop-color="#CD3085"/>
            <stop offset="62.575%" stop-color="#BD2F9E"/>
            <stop offset="100%" stop-color="#4A65D6"/>
        </linearGradient>
    </defs>
    <g fill="none" fill-rule="evenodd">
        <circle cx="29" cy="29" r="28.615" fill="url(#a)" stroke="#DDD" stroke-width=".77"/>
        <path fill="#FFF" d="M29.501 19c-2.852 0-3.21.012-4.33.063-1.117.052-1.88.229-2.548.488a5.142 5.142 0 0 0-1.86 1.211 5.154 5.154 0 0 0-1.212 1.86c-.26.668-.437 1.43-.488 2.548-.05 1.12-.063 1.478-.063 4.33 0 2.852.013 3.208.063 4.328.052 1.118.229 1.881.488 2.549.269.69.627 1.276 1.211 1.86.584.584 1.17.944 1.86 1.212.668.26 1.431.436 2.549.488 1.12.05 1.477.063 4.329.063 2.852 0 3.208-.012 4.328-.063 1.118-.052 1.882-.229 2.55-.488a5.137 5.137 0 0 0 1.859-1.212 5.154 5.154 0 0 0 1.212-1.86c.258-.668.435-1.431.488-2.548.05-1.12.063-1.477.063-4.329 0-2.852-.013-3.21-.063-4.33-.053-1.117-.23-1.88-.488-2.548a5.153 5.153 0 0 0-1.212-1.86 5.132 5.132 0 0 0-1.86-1.21c-.669-.26-1.432-.437-2.55-.489-1.12-.05-1.477-.063-4.33-.063h.004zm-.942 1.892h.942c2.804 0 3.136.01 4.243.06 1.024.047 1.58.218 1.95.362.49.19.839.418 1.206.785.368.368.595.718.786 1.208.144.37.315.925.361 1.949.05 1.107.062 1.44.062 4.242s-.011 3.134-.062 4.241c-.046 1.024-.217 1.58-.361 1.95-.19.49-.418.838-.786 1.205a3.247 3.247 0 0 1-1.207.786c-.37.144-.925.315-1.95.362-1.106.05-1.438.06-4.242.06-2.804 0-3.136-.01-4.243-.06-1.024-.048-1.58-.219-1.95-.363-.49-.19-.84-.417-1.207-.785a3.254 3.254 0 0 1-.786-1.207c-.144-.37-.315-.925-.362-1.949-.05-1.107-.06-1.44-.06-4.243 0-2.804.01-3.135.06-4.242.047-1.023.218-1.579.362-1.95.19-.49.418-.84.786-1.207a3.259 3.259 0 0 1 1.207-.785c.37-.145.926-.315 1.95-.362.969-.044 1.344-.057 3.301-.06v.003zm6.547 1.744a1.26 1.26 0 1 0 0 2.52 1.26 1.26 0 0 0 0-2.52zM29.5 24.108a5.392 5.392 0 1 0 0 10.785 5.392 5.392 0 0 0 0-10.785zm0 1.892a3.5 3.5 0 1 1 0 7 3.5 3.5 0 0 1 0-7z"/>
    </g>
</svg>
