<svg xmlns="http://www.w3.org/2000/svg" width="11" height="20" viewBox="0 0 11 20">
    <path fill="#3B5998" fill-rule="nonzero" d="M.523 10.652h2.193v9.025c0 .179.144.323.322.323h3.717a.323.323 0 0 0 .323-.323v-8.982h2.52a.323.323 0 0 0 .32-.286l.383-3.323a.323.323 0 0 0-.32-.36H7.078V4.645c0-.628.338-.947 1.005-.947H9.98a.323.323 0 0 0 .323-.322V.325A.323.323 0 0 0 9.98.002H7.365L7.245 0c-.454 0-2.031.09-3.277 1.236-1.381 1.27-1.19 2.791-1.143 3.055v2.436H.523a.323.323 0 0 0-.322.322v3.28c0 .179.144.323.322.323z"/>
</svg>
