<svg xmlns="http://www.w3.org/2000/svg" width="19" height="19" viewBox="0 0 19 19">
    <g fill="none" fill-rule="nonzero">
        <path fill="#FDBD00" d="M3.982 11.126l-.625 2.365-2.286.049A9.148 9.148 0 0 1 0 9.228C0 7.72.362 6.297 1.005 5.044l2.035.378.892 2.049a5.47 5.47 0 0 0-.288 1.757c0 .668.12 1.308.338 1.898z"/>
        <path fill="#3E82F7" d="M18.157 7.434a8.915 8.915 0 0 1-.04 3.585 9.04 9.04 0 0 1-3.25 5.176l-2.634-.133-.372-2.285a5.428 5.428 0 0 0 2.366-2.758H9.292V7.434h8.865z"/>
        <path fill="#2DA94F" d="M14.867 16.324a9.188 9.188 0 0 1-5.735 1.995 9.175 9.175 0 0 1-8.07-4.766L4.03 11.15a5.445 5.445 0 0 0 5.1 3.495 5.464 5.464 0 0 0 2.752-.736l2.984 2.415z"/>
        <path fill="#ED412D" d="M15.133 2.121l-2.986 2.444a5.482 5.482 0 0 0-8.081 2.869L1.061 4.976A9.216 9.216 0 0 1 9.249 0c2.237 0 4.287.796 5.884 2.121z"/>
    </g>
</svg>
