<svg xmlns="http://www.w3.org/2000/svg" width="278" height="153" viewBox="0 0 278 153">
    <g fill="none" fill-rule="evenodd">
        <path fill="#E3E3E3" d="M223.219 134.681c11.117 6.056-16.36 14.274-20.216 14.865-41.633 6.38-86.681 3.41-127.927-4.72-1.692-.332-3.44-.704-4.838-1.739-10.197-7.55 22.557-12.67 25.598-13.066 11.305-1.469 22.79-2.428 34.19-2.588 16.157-.226 79.41-.26 93.193 7.248" opacity=".494"/>
        <path fill="#DFF2FE" d="M119.891 52.25h55.22c4.782 0 8.693 3.907 8.693 8.68 0 4.775-3.911 8.681-8.692 8.681h-55.22c-4.781 0-8.693-3.906-8.693-8.68 0-4.774 3.912-8.68 8.692-8.68M138.566 15.542c2.692 0 4.874 1.663 4.874 3.714 0 2.052-2.182 3.714-4.874 3.714h21.268c-2.692 0-4.874-1.662-4.874-3.714 0-2.05 2.182-3.714 4.874-3.714h-21.268"/>
        <path fill="#DFF2FE" d="M131.676 44.497c2.81 0 5.088 1.736 5.088 3.877 0 2.14-2.278 3.877-5.088 3.877h22.201c-2.81 0-5.088-1.736-5.088-3.877s2.278-3.877 5.088-3.877h-22.2"/>
        <path fill="#6A79A8" d="M258.065 57.665h1.917v-4.743h-1.917zM258.065 67.271h1.917v-4.743h-1.917zM251.81 61.024h4.75v-1.915h-4.75zM261.429 61.024h4.751v-1.915h-4.751z"/>
        <path fill="#BBDFF5" d="M269.187 120.152l-5.014 1.33 1.994-4.782-2.815-4.35 5.17.415 3.273-4.017 1.201 5.037 4.838 1.867-4.426 2.699-.284 5.17-3.937-3.369M6.712 112.203a3.94 3.94 0 0 0-3.937 3.932 3.939 3.939 0 0 0 3.937 3.932 3.939 3.939 0 0 0 3.938-3.932 3.94 3.94 0 0 0-3.938-3.932zm0 10.417c-3.58 0-6.493-2.91-6.493-6.485 0-3.576 2.912-6.485 6.493-6.485 3.581 0 6.494 2.91 6.494 6.485 0 3.576-2.913 6.485-6.494 6.485z"/>
        <path fill="#FF9C81" d="M17.912 8.899h1.918V4.156h-1.918zM17.912 18.505h1.918v-4.743h-1.918zM11.657 12.258h4.75v-1.915h-4.75zM21.277 12.258h4.749v-1.915h-4.75z"/>
        <path fill="#6A79A8" d="M37.382 132.238h1.917v-4.743h-1.917zM37.382 141.844h1.917V137.1h-1.917zM31.126 135.597h4.75v-1.915h-4.75zM40.746 135.597h4.75v-1.915h-4.75z"/>
        <path fill="#FFC261" d="M242.243 11.627l-5.012 1.329 1.992-4.782-2.814-4.349 5.169.415L244.85.222l1.203 5.038 4.837 1.867-4.426 2.698-.283 5.171-3.938-3.37"/>
        <path fill="#FFF" d="M57.946 125.491l163.53.5a3.417 3.417 0 0 0 3.43-3.415V9.908a3.417 3.417 0 0 0-3.418-3.414H62.178c-5.5.105-7.324 3.761-7.408 6.632v.185l-.14 105.2s.13 2.824.613 4.186a33.95 33.95 0 0 0 1.14 2.746l1.563.048"/>
        <path fill="#6A79A8" d="M57.956 124.853l163.522.5h.01c.74 0 1.437-.288 1.962-.81a2.755 2.755 0 0 0 .818-1.967V9.908a2.781 2.781 0 0 0-2.78-2.775H62.178c-4.861.092-6.686 3.166-6.77 6.011v.17l-.138 105.199s.13 2.715.575 3.97c.323.91.73 1.843.953 2.334l1.158.036zm163.532 1.776h-.013l-163.531-.5h-.018l-1.564-.048a.639.639 0 0 1-.557-.365 34.211 34.211 0 0 1-1.165-2.806c-.509-1.435-.642-4.25-.648-4.37l.14-105.417c.094-3.292 2.256-7.157 8.034-7.267h159.322a4.06 4.06 0 0 1 4.058 4.052v112.668a4.023 4.023 0 0 1-1.194 2.87 4.033 4.033 0 0 1-2.864 1.183z"/>
        <path fill="#FFF" d="M54.63 118.512l.14-105.201.142-.951s.919 2.102 4.322 1.92H213.38a3.18 3.18 0 0 1 3.182 3.177v112.464a3.18 3.18 0 0 1-3.182 3.178H69.238c-8.067 0-14.607-6.53-14.607-14.587"/>
        <path fill="#6A79A8" d="M55.27 118.512c0 7.692 6.266 13.95 13.968 13.95H213.38a2.544 2.544 0 0 0 2.543-2.54V17.456c0-1.4-1.14-2.54-2.543-2.54H59.25c-1.873.098-3.089-.44-3.842-1.021l-.138 104.617v-.001zm158.11 15.226H69.238c-8.407 0-15.247-6.83-15.247-15.226v-.001l.14-105.201c0-.032.002-.063.006-.094l.143-.95a.639.639 0 0 1 1.218-.162c.03.063.825 1.694 3.702 1.538H213.38a3.823 3.823 0 0 1 3.821 3.815v112.464a3.823 3.823 0 0 1-3.821 3.817z"/>
        <path fill="#6A79A8" d="M114.697 80.13a3.037 3.037 0 0 1-2.052-1.098c-1.052-1.276-.899-3.144.342-4.164a2.853 2.853 0 0 1 2.164-.627 3.03 3.03 0 0 1 1.993 1.092c1.052 1.276.899 3.144-.342 4.163-.608.5-1.366.705-2.105.634M154.766 78.378a3.038 3.038 0 0 1-2.051-1.098c-1.052-1.276-.899-3.144.342-4.163 1.24-1.02 3.105-.812 4.156.464.506.613.751 1.381.691 2.163a2.847 2.847 0 0 1-3.138 2.634"/>
        <path fill="#BBDFF5" d="M105.3 94.497c-.349 3.588-2.816 6.286-5.511 6.025-2.695-.26-4.598-3.38-4.25-6.97.349-3.588 2.816-6.286 5.51-6.025 2.696.26 4.598 3.381 4.25 6.97M165.489 94.884c.348 3.588 2.815 6.286 5.51 6.025 2.695-.26 4.598-3.381 4.25-6.97-.349-3.588-2.816-6.286-5.511-6.025-2.695.261-4.598 3.381-4.25 6.97"/>
        <path fill="#6A79A8" d="M126.696 106.272a.639.639 0 0 1-.638-.623 8.74 8.74 0 0 1 2.44-6.283 8.761 8.761 0 0 1 6.172-2.719c4.863-.111 8.903 3.749 9.014 8.601a.638.638 0 0 1-.625.653.648.648 0 0 1-.653-.623c-.095-4.15-3.55-7.45-7.707-7.355a7.493 7.493 0 0 0-5.278 2.325 7.472 7.472 0 0 0-2.085 5.371.638.638 0 0 1-.625.653h-.015M210.116 55.56a.638.638 0 0 1-.639-.638V36.753a.638.638 0 0 1 1.278 0v18.169a.639.639 0 0 1-.639.638M155.655 127.19h-8.863a.639.639 0 1 1 0-1.276h8.863a.638.638 0 1 1 0 1.277M131.306 127.19H90.653a.639.639 0 1 1 0-1.276h40.653a.639.639 0 1 1 0 1.277M60.958 68.706a.638.638 0 0 1-.639-.638V34.884a.639.639 0 0 1 1.278 0v33.184a.639.639 0 0 1-.639.638M60.58 95.04a.639.639 0 0 1-.638-.638V82.32a.638.638 0 0 1 1.278 0v12.082a.639.639 0 0 1-.64.638M90.653 38.813a.638.638 0 0 1-.463-1.078l10.214-10.732a.64.64 0 0 1 .926.88L91.116 38.613a.638.638 0 0 1-.463.199M98.1 37.537a.639.639 0 0 1-.419-1.12l4.743-4.091a.64.64 0 0 1 .835.966l-4.743 4.09a.636.636 0 0 1-.417.155"/>
        <path fill="#6A79A8" d="M105.34 40.994a.64.64 0 0 1-.485-.223L93.779 27.858a.638.638 0 1 1 .97-.83l11.077 12.913a.637.637 0 0 1-.485 1.053M95.76 38.813a.638.638 0 0 1-.463-.199l-5.107-5.366a.638.638 0 1 1 .926-.879l5.107 5.366a.638.638 0 0 1-.463 1.078M200.033 116.997a.637.637 0 0 1-.518-1.011l1.032-1.429h-4.669a.64.64 0 0 1-.539-.98l1.861-2.915-7.278 1.332a.639.639 0 0 1-.555-1.09l6.39-6.063a.638.638 0 1 1 .88.925l-4.833 4.586 6.608-1.209a.638.638 0 0 1 .655.97l-2.023 3.168h4.752a.64.64 0 0 1 .518 1.011l-1.762 2.44a.639.639 0 0 1-.52.265"/>
        <path fill="#FF9C81" d="M226.297 62.459h-39.482l-7.164 7.155a8.024 8.024 0 0 0 .269 11.614l6.52 5.937 39.857.001V62.459"/>
        <path fill="#6A79A8" d="M226.296 87.804l-39.855-.001a.64.64 0 0 1-.431-.167l-6.521-5.936a8.588 8.588 0 0 1-2.83-6.207 8.587 8.587 0 0 1 2.54-6.33l7.165-7.155a.64.64 0 0 1 .451-.187h7.725a.639.639 0 1 1 0 1.276h-7.46l-6.977 6.968a7.322 7.322 0 0 0-2.166 5.398 7.325 7.325 0 0 0 2.413 5.294l6.338 5.77h38.97v-23.43h-23.215a.638.638 0 1 1 0-1.276h23.853c.354 0 .64.286.64.638v24.707a.638.638 0 0 1-.64.638"/>
        <path fill="#6A79A8" d="M198.527 70.647a4.454 4.454 0 0 0-4.451 4.446 4.453 4.453 0 0 0 4.451 4.445 4.454 4.454 0 0 0 4.452-4.445 4.454 4.454 0 0 0-4.452-4.446zm0 10.168c-3.159 0-5.73-2.567-5.73-5.722 0-3.155 2.571-5.722 5.73-5.722 3.16 0 5.73 2.567 5.73 5.722 0 3.155-2.57 5.722-5.73 5.722z"/>
    </g>
</svg>
