<svg xmlns="http://www.w3.org/2000/svg" width="374" height="375" viewBox="0 0 374 375">
    <g fill="none" fill-rule="evenodd">
        <path fill="#FFF" d="M-1 374.981h375V0H-1z"/>
        <path fill="#F9F9F9" d="M110.842 323.356c-6.619-1.431-86.138-14.326-80.284-109.432 5.853-95.107 13.2-123.708 44.116-134.172 30.916-10.465 106.067-59.98 165.038-12.899 58.971 47.081 122.607 89.308 97.354 164.482-25.253 75.175-29.387 100.25-95.272 96.415-28.714-1.672-51.296-1.428-70.242-1.184-24.524.315-42.956.63-60.71-3.21"/>
        <path fill="#EFEFEF" d="M223.673 181.994c-2.844 30.987-30.367 53.881-61.353 51.037-30.986-2.844-53.881-30.367-51.037-61.353 2.844-30.987 30.368-53.882 61.354-51.037 30.986 2.844 53.88 30.367 51.036 61.353m47.555 121.97a7.18 7.18 0 0 0 2.565-4.877 7.18 7.18 0 0 0-1.635-5.264l-54.461-65.47c11.862-11.546 19.835-27.2 21.462-44.937 3.629-39.525-25.576-74.633-65.1-78.262-39.526-3.628-74.634 25.577-78.262 65.102-3.628 39.525 25.576 74.633 65.101 78.261 15.169 1.393 29.683-2.055 42.021-9.06l3.406-2.253 54.76 65.83a7.202 7.202 0 0 0 10.143.93"/>
        <path fill="#6A79A8" d="M104.04 142.708c-2.89 6.112-5.458 12.43-7.27 18.95-1.676 6.025-2.227 12.154-1.972 18.394.481 11.741 3.91 23.294 9.872 33.417 11.938 20.27 33.407 33.678 56.865 35.466 14.786 1.127 30.968-2.168 43.45-10.423.633-.418-.87-.27-1.163-.075-11.579 7.657-26.47 10.761-40.196 9.928-11.748-.714-23.243-4.348-33.249-10.547-19.064-11.813-31.854-32.386-33.845-54.743-.604-6.769-.342-13.63 1.345-20.232 1.797-7.033 4.556-13.836 7.654-20.39.125-.263-1.302-.146-1.491.255M207.126 239.283a1531809.85 1531809.85 0 0 0 50.6 60.829c.87 1.046 1.719 2.117 2.614 3.142 3.719 4.258 10.728 3.186 13.426-1.644.128-.23-1.271-.14-1.491.254-2.527 4.522-7.765 4.139-10.812.509-.973-1.16-1.936-2.327-2.903-3.49l-12.133-14.586-30.585-36.768-7.297-8.772c-.247-.297-1.675.219-1.419.526M138.64 128.743c15.683-9.515 35.418-10.553 52.027-2.77 13.256 6.213 23.767 17.609 28.913 31.312 2.982 7.94 4.08 16.47 3.339 24.911-.02.237 1.468.07 1.51-.404 1.381-15.722-3.88-31.458-14.496-43.151-10.786-11.88-26.362-18.649-42.396-18.562-10.603.058-21.007 3.095-30.061 8.588-.641.389.867.256 1.164.076"/>
        <path fill="#FFF" d="M227.498 176.595c-2.845 30.986-30.368 53.88-61.354 51.037-30.986-2.845-53.881-30.368-51.037-61.354 2.845-30.986 30.368-53.881 61.354-51.037 30.986 2.844 53.88 30.367 51.036 61.354m47.555 121.97a7.18 7.18 0 0 0 2.565-4.878 7.177 7.177 0 0 0-1.635-5.264l-54.461-65.47c11.862-11.546 19.835-27.2 21.463-44.937 3.628-39.525-25.577-74.633-65.102-78.261-39.525-3.628-74.633 25.576-78.261 65.101-3.628 39.526 25.576 74.633 65.102 78.262 15.168 1.392 29.683-2.055 42.02-9.061l3.406-2.253 54.76 65.83a7.202 7.202 0 0 0 10.143.931"/>
        <path fill="#6A79A8" d="M275.674 298.755c3.3-2.938 3.52-7.57.76-10.945-.902-1.102-1.822-2.19-2.732-3.283l-12.343-14.838a1055409488.56 1055409488.56 0 0 1-39.144-47.057l-.071.51c11.752-11.514 19.412-26.782 21.383-43.139 1.716-14.241-.873-28.826-7.426-41.588-6.267-12.205-15.993-22.539-27.823-29.495-12.202-7.174-26.428-10.597-40.556-9.887-13.858.696-27.404 5.46-38.69 13.521-11.22 8.015-20.105 19.197-25.252 32-5.344 13.29-6.635 28.108-3.634 42.119 2.902 13.55 9.795 26.153 19.58 35.956 9.848 9.867 22.485 16.793 36.128 19.69 16.748 3.556 34.492 1.104 49.6-6.974 1.806-.966 3.478-2.107 5.184-3.236l-1.183.016 21.051 25.307 30.156 36.25c1.113 1.34 2.217 2.686 3.34 4.017 2.952 3.495 7.922 4.001 11.54 1.17.805-.63-.43-1.04-.98-.608-3.225 2.523-7.009 1.397-9.43-1.515l-3.135-3.767-12.7-15.267-31.062-37.342-7.392-8.886c-.28-.336-.881-.184-1.184.016-25.07 16.58-58.904 14.576-82.35-3.986-21.84-17.29-31.805-46.419-25.121-73.462 6.614-26.766 28.95-47.883 56.066-52.92 27.65-5.135 56.279 7.14 71.989 30.364 7.623 11.27 11.95 24.681 12.265 38.29.366 15.81-4.55 31.555-13.983 44.262a73.787 73.787 0 0 1-7.627 8.714c-.132.13-.202.354-.071.51l19.824 23.833 29.815 35.841 4.091 4.919c.236.282.48.56.707.85 2.38 3.02 2.036 7.103-.836 9.66-.682.608.793.784 1.246.38"/>
        <path fill="#6A79A8" d="M226.736 176.664c-2.204 23.036-18.71 42.922-41.166 48.87-22.672 6.004-47.147-3.444-60.272-22.778-13.123-19.333-12.72-45.622 1.121-64.481 13.855-18.877 38.646-27.198 61.058-20.298 21.861 6.73 37.773 26.895 39.368 49.692.21 2.997.154 6.004-.109 8.995-.063.724 1.468.485 1.523-.139 2.092-23.802-11.249-46.962-33.041-56.89-21.585-9.833-47.64-5.017-64.406 11.707-17.051 17.007-21.557 43.77-10.808 65.362 10.63 21.35 34.033 34.061 57.742 31.3 23.218-2.704 43.085-19.82 48.95-42.485a57.82 57.82 0 0 0 1.563-8.994c.069-.722-1.463-.486-1.523.14"/>
        <path fill="#FCFCFC" d="M171.745 227.327c-18.255 0-35.968-9.135-46.447-24.571-13.123-19.333-12.72-45.622 1.121-64.481.132-.178.264-.358.398-.534a56.92 56.92 0 0 1 10.898-8.823c.333-.008.778-.086.925-.175 8.703-5.28 18.655-7.95 28.627-7.95 7.997 0 16.007 1.717 23.4 5.18 13.256 6.213 23.767 17.609 28.913 31.312 2.982 7.94 4.08 16.47 3.339 24.911-.007.072.127.107.317.107.121 0 .266-.014.412-.042a56.16 56.16 0 0 1-5.136 18.667c-7.357 11.852-19.003 20.914-32.942 24.606a53.971 53.971 0 0 1-13.825 1.793"/>
        <path fill="#F7F7F7" d="M218.512 200.928a56.16 56.16 0 0 0 5.136-18.667c.375-.071.76-.232.78-.469 1.382-15.722-3.879-31.458-14.495-43.151-10.717-11.805-26.165-18.562-42.09-18.562h-.306c-10.603.058-21.007 3.095-30.061 8.588-.304.185-.124.252.181.252h.058a56.921 56.921 0 0 0-10.898 8.822c10.62-14.108 27.411-22.167 44.63-22.167 5.36 0 10.76.78 16.03 2.403 21.861 6.73 37.773 26.895 39.368 49.692.21 2.997.154 6.004-.109 8.995-.836 8.737-3.73 17.021-8.224 24.264"/>
        <path fill="#B5BCD4" d="M223.236 182.303c-.19 0-.323-.035-.317-.107.742-8.442-.357-16.97-3.339-24.911-5.146-13.703-15.657-25.1-28.913-31.311-7.393-3.464-15.403-5.181-23.4-5.181-9.972 0-19.924 2.67-28.627 7.95-.147.089-.592.167-.925.175h-.058c-.305 0-.485-.066-.181-.25 9.054-5.494 19.458-8.531 30.06-8.589h.307c15.925 0 31.373 6.757 42.09 18.562 10.616 11.693 15.877 27.429 14.495 43.151-.02.237-.405.398-.78.47a2.278 2.278 0 0 1-.412.041"/>
        <path fill="#B5BCD4" d="M171.344 227.87c-1.72 0-3.455-.078-5.2-.238-30.986-2.845-53.881-30.368-51.037-61.354 2.684-29.24 27.345-51.276 56.153-51.276 1.72 0 3.455.079 5.2.239 30.987 2.844 53.882 30.367 51.037 61.354-2.684 29.24-27.344 51.276-56.153 51.275m-44.527-90.13c-.134.177-.266.357-.398.535-13.841 18.86-14.244 45.148-1.121 64.48 10.479 15.437 28.192 24.572 46.447 24.572 4.61 0 9.254-.583 13.825-1.793 13.94-3.692 25.585-12.754 32.942-24.606 4.495-7.243 7.388-15.527 8.224-24.264.263-2.991.318-5.998.109-8.995-1.595-22.797-17.507-42.962-39.368-49.692a54.421 54.421 0 0 0-16.03-2.403c-17.219 0-34.01 8.059-44.63 22.167"/>
        <path fill="#6A79A8" d="M176.743 114.773c-23.548-2.07-46.7 10.794-57.005 32.159-10.429 21.619-5.805 48.113 11.255 64.97 16.985 16.785 43.428 21.12 64.942 10.796 21.475-10.305 34.675-33.376 32.273-57.139-2.374-23.497-19.829-43.567-42.716-49.305a59.09 59.09 0 0 0-8.749-1.481c-.634-.06-1.582.839-.565.936 23.01 2.202 42.741 18.82 48.83 41.131 6.147 22.53-2.74 47.17-21.868 60.564-19.293 13.508-45.64 13.09-64.594-.85-18.69-13.746-27.101-38.27-20.784-60.592 6.289-22.22 26.412-38.747 49.48-40.36 2.978-.209 5.963-.154 8.936.107.634.056 1.584-.847.565-.936"/>
        <path fill="#6A79A8" d="M191.178 186.287c-3.095-3.775-7.822-6.553-12.431-7.96-7.75-2.365-16.302-.838-23.038 3.554-1.567 1.022-3.147 2.2-4.405 3.599-.622.691.83.836 1.245.376 2.98-3.314 7.443-5.613 11.68-6.754 7.67-2.063 15.693-.275 21.97 4.5 1.286.979 2.56 2.068 3.59 3.324.396.483 1.84-.088 1.389-.639M154.29 163.476a2.827 2.827 0 1 0-5.654-.027 2.827 2.827 0 0 0 5.654.027M193.07 163.689a2.827 2.827 0 1 0-5.653-.027 2.827 2.827 0 0 0 5.653.027"/>
        <path fill="#FF9C81" d="M145.527 176.196c.033 3.016-1.775 5.482-4.037 5.506-2.263.025-4.123-2.401-4.156-5.417-.032-3.017 1.775-5.482 4.038-5.507 2.262-.024 4.122 2.401 4.155 5.418M204.245 175.56c.033 3.017-1.775 5.482-4.037 5.506-2.262.025-4.123-2.4-4.155-5.417-.033-3.017 1.774-5.482 4.037-5.506 2.262-.025 4.123 2.4 4.155 5.417"/>
    </g>
</svg>
