<svg xmlns="http://www.w3.org/2000/svg" width="74" height="34" viewBox="0 0 74 34">
    <g fill="#000" fill-rule="nonzero">
        <rect width="7.64" height="33.472" x="8.192" y=".219" rx="3.11"/>
        <rect width="7.64" height="33.401" x="33.662" y=".219" rx="3.11"/>
        <rect width="7.64" height="16.748" x="23.476" y="16.939" rx="3.11"/>
        <rect width="7.64" height="7.723" x="23.476" y="7.942" rx="3.11"/>
        <rect width="7.64" height="23.172" x="8.194" y="-7.506" rx="3.11" transform="rotate(-90 12.014 4.08)"/>
        <path d="M33.583 32.373v-6.367h14.16c.71 0 1.286.57 1.286 1.272v5.107a1.28 1.28 0 0 1-1.286 1.273H34.87c-.343 0-.672-.136-.914-.377a1.266 1.266 0 0 1-.373-.908zM71.938 1.68l-4.03-.028a5.732 5.732 0 0 1-1.965-.397c-.125-.055-.251-.091-.392-.143-.244-.099-.491-.186-.739-.27L64.671.8a9.43 9.43 0 0 0-3.025-.532h-.994c-1.923.028-3.81.53-5.5 1.46-.074.04-.137.088-.207.132-.071.043-.063.04-.095.06-.422.25-.828.525-1.217.825-.2.159-.393.314-.597.48-.118.108-.232.223-.346.334-.191.183-.376.37-.554.56a11.262 11.262 0 0 0-.825 1.013c-.078.103-.157.206-.228.313-.48.704-.889 1.456-1.217 2.244 0 .035-.024.071-.04.107-.153.397-.286.77-.393 1.16 0 .047-.027.094-.043.138-.12.418-.216.842-.287 1.27a.14.14 0 0 0 0 .044 11.38 11.38 0 0 0-.149 1.986c0 .667.024 1.23.028 1.719v6.023c0 .489 0 .75-.028 1.414-.008.665.042 1.33.15 1.985a.18.18 0 0 0 0 .044c.07.429.166.853.286 1.27 0 .044.028.092.043.14.114.396.248.794.393 1.159 0 .036.028.071.04.107.33.788.737 1.54 1.217 2.243.075.108.15.21.228.314.15.207.306.41.471.608.118.135.232.27.354.397.122.127.361.377.554.56.114.11.228.226.346.33.192.17.392.325.6.483.386.3.79.574 1.21.822l.099.064c.07.04.133.091.208.13 1.6.884 3.382 1.38 5.205 1.45H61.654a9.54 9.54 0 0 0 3.024-.532l.142-.044c.247-.083.495-.174.738-.274.126-.047.252-.083.393-.138a5.732 5.732 0 0 1 1.964-.398l4.078-.027c.299 0 .585-.121.795-.336.21-.215.327-.506.324-.808V2.824a1.184 1.184 0 0 0-1.174-1.144zm-6.545 19.79c0 2.517-1.716 4.558-4.207 4.558-2.489-.002-4.505-2.043-4.505-4.559v-8.993c0-1.21.475-2.37 1.322-3.224a4.485 4.485 0 0 1 3.191-1.334c2.49 0 4.207 2.04 4.207 4.558l-.008 8.993z"/>
    </g>
</svg>
