<?xml version="1.0" encoding="utf-8"?>
<!-- Generator: Adobe Illustrator 23.0.3, SVG Export Plug-In . SVG Version: 6.00 Build 0)  -->
<svg version="1.1" id="Layer_1" xmlns="http://www.w3.org/2000/svg" xmlns:xlink="http://www.w3.org/1999/xlink" x="0px" y="0px"
	 viewBox="0 0 195.5 107.1" style="enable-background:new 0 0 195.5 107.1;" xml:space="preserve">
<g>
	<path d="M96.4,84.1h-13c-1.8,0-3.2-1.5-3.2-3.2V3.2c0-1.8,1.5-3.2,3.2-3.2h13c1.8,0,3.2,1.5,3.2,3.2v77.6
		C99.7,82.7,98.2,84.1,96.4,84.1z"/>
	<path d="M180.7,41.6h-13.1c-1.8,0-3.2,1.5-3.2,3.2v19.8H44.9v19.5h135.8c1.8,0,3.2-1.5,3.2-3.2v-0.3v-16V44.8
		C184,43.1,182.5,41.6,180.7,41.6z"/>
	<path d="M138.6,83.8h-13c-1.8,0-3.2-1.5-3.2-3.2V44.8c0-1.8,1.5-3.2,3.2-3.2h13c1.8,0,3.2,1.5,3.2,3.2v35.7
		C141.9,82.3,140.4,83.8,138.6,83.8z"/>
	<path d="M58.5,6H48.2c-1.9-0.1-3.6-0.4-5-1c-0.3-0.1-0.6-0.2-1-0.4c-0.6-0.2-1.2-0.5-1.9-0.7c-0.1,0-0.2-0.1-0.4-0.1
		c-3.3-1-6.7-1.3-10.1-1.4h-0.1c-4.9,0.1-9.7,1.3-14,3.7c-0.2,0.1-0.3,0.2-0.5,0.3c-0.1,0-0.2,0.1-0.2,0.1c-1,0.7-2.1,1.4-3,2.2
		c-0.5,0.4-1,0.8-1.5,1.2c-0.3,0.3-0.6,0.6-0.9,0.8c-0.5,0.5-1,0.9-1.4,1.4c-0.2,0.3-0.5,0.5-0.7,0.8C7,13.5,6.6,14,6.1,14.6
		c-0.2,0.3-0.4,0.5-0.6,0.8c-1.2,1.8-2.3,3.7-3.1,5.7c0,0.1-0.1,0.2-0.1,0.3c-0.4,1-0.7,1.9-1,2.9c0,0.1-0.1,0.2-0.1,0.3
		c-0.3,1.1-0.6,2.1-0.7,3.2v0.1l0,0C0.1,29.7,0,30.6,0,32.2c0,1.7,0.1,3.6,0.1,4.8c0,2.7,0,4.3,0,5.8c0,0.7,0,1.3,0,1.9
		c0,0.6,0,1.2,0,1.9c0,1.5,0,4.2,0,6.9c0,1.2,0,1.9-0.1,3.6c0,1.6,0.1,3.3,0.4,5l0,0v0.1c0.2,1.1,0.4,2.1,0.7,3.2
		c0,0.1,0.1,0.2,0.1,0.3c0.3,1,0.6,2,1,2.9c0,0.1,0.1,0.2,0.1,0.3c0.8,2,1.9,3.9,3.1,5.7c0.2,0.3,0.4,0.5,0.6,0.8
		c0.4,0.5,0.8,1,1.2,1.5c0.3,0.3,0.6,0.7,0.9,1c0.5,0.5,0.9,0.9,1.4,1.4c0.3,0.3,0.6,0.6,0.9,0.8c0.5,0.4,1,0.8,1.5,1.2
		c1,0.8,2,1.4,3.1,2.1c0.1,0.1,0.2,0.1,0.3,0.2c0.2,0.1,0.3,0.2,0.5,0.3c4.4,2.4,9.2,3.6,14,3.7c3.6,0.1,6.8-0.3,10.2-1.4
		c0.1,0,0.2-0.1,0.4-0.1c0.6-0.2,1.3-0.4,1.9-0.7c0.3-0.1,0.6-0.2,1-0.4c1.4-0.6,3.1-0.9,5-1c0.9,0,1.9-0.1,2.8-0.1h7.6
		c1.6,0,2.9-1.3,2.8-2.9V8.9C61.4,7.3,60.1,6,58.5,6z M41.8,56.8c0,6.3-4.4,11.5-10.7,11.5s-11.5-5.1-11.5-11.5V32.4
		c0-6.3,5.1-10.7,11.5-10.7s10.7,4.4,10.7,10.7V56.8z"/>
	<path d="M169.5,38.7h-13c-1.8,0-3.2-1.5-3.2-3.2v-13c0-1.8,1.5-3.2,3.2-3.2h13c1.8,0,3.2,1.5,3.2,3.2v13
		C172.8,37.2,171.3,38.7,169.5,38.7z"/>
	<path d="M192.3,38.7h-13c-1.8,0-3.2-1.5-3.2-3.2v-13c0-1.8,1.5-3.2,3.2-3.2h13c1.8,0,3.2,1.5,3.2,3.2v13
		C195.5,37.2,194.1,38.7,192.3,38.7z"/>
	<path d="M127.2,107.1h-13c-1.8,0-3.2-1.5-3.2-3.2v-13c0-1.8,1.5-3.2,3.2-3.2h13c1.8,0,3.2,1.5,3.2,3.2v13
		C130.5,105.6,129,107.1,127.2,107.1z"/>
	<path d="M150,107.1h-13c-1.8,0-3.2-1.5-3.2-3.2v-13c0-1.8,1.5-3.2,3.2-3.2h13c1.8,0,3.2,1.5,3.2,3.2v13
		C153.2,105.6,151.8,107.1,150,107.1z"/>
</g>
</svg>
