<?xml version="1.0" encoding="utf-8"?>
<!-- Generator: Adobe Illustrator 23.0.3, SVG Export Plug-In . SVG Version: 6.00 Build 0)  -->
<svg version="1.1" id="Layer_1" xmlns="http://www.w3.org/2000/svg" xmlns:xlink="http://www.w3.org/1999/xlink" x="0px" y="0px"
	 viewBox="0 0 461.6 210.9" style="enable-background:new 0 0 461.6 210.9;" xml:space="preserve">
<style type="text/css">
	.st0{fill:#231F20;}
</style>
<g>
	<path class="st0" d="M89.2,210.7H56.8c-4.5,0-8.1-3.6-8.1-8.1V8.1c0-4.5,3.6-8.1,8.1-8.1h32.4c4.5,0,8.1,3.6,8.1,8.1v194.5
		C97.3,207.1,93.6,210.7,89.2,210.7z"/>
	<path class="st0" d="M251.3,210.3h-32.4c-4.5,0-8.1-3.6-8.1-8.1V8.1c0-4.5,3.6-8.1,8.1-8.1h32.4c4.5,0,8.1,3.6,8.1,8.1v194.1
		C259.4,206.7,255.7,210.3,251.3,210.3z"/>
	<path class="st0" d="M186.4,210.7H154c-4.5,0-8.1-3.6-8.1-8.1v-89.3c0-4.5,3.6-8.1,8.1-8.1h32.4c4.5,0,8.1,3.6,8.1,8.1v89.3
		C194.5,207.1,190.9,210.7,186.4,210.7z"/>
	<path class="st0" d="M186.4,97.3H154c-4.5,0-8.1-3.6-8.1-8.1V56.8c0-4.5,3.6-8.1,8.1-8.1h32.4c4.5,0,8.1,3.6,8.1,8.1v32.4
		C194.5,93.6,190.9,97.3,186.4,97.3z"/>
	<path class="st0" d="M145.9,8.1v32.4c0,4.5-3.6,8.1-8.1,8.1H8.1C3.6,48.6,0,45,0,40.5V8.1C0,3.6,3.6,0,8.1,0h129.7
		C142.3,0,145.9,3.6,145.9,8.1z"/>
	<path class="st0" d="M308,170.2v32.4c0,4.5-3.6,8.1-8.1,8.1h-81.1c-4.5,0-8.1-3.6-8.1-8.1v-40.5h89.2
		C304.4,162.1,308,165.7,308,170.2z"/>
	<path class="st0" d="M454.3,9.2L428.6,9c-4.7-0.2-9-1.1-12.4-2.5c-0.8-0.3-1.6-0.6-2.4-0.9c-1.5-0.6-3.1-1.2-4.7-1.7
		c-0.3-0.1-0.6-0.2-0.9-0.3c-6.8-2.1-12-3.3-19.2-3.3c-2.1,0-4.2-0.1-6.3-0.1c-12.2,0.2-24.2,3.3-35.1,9.2c-0.5,0.3-0.9,0.6-1.3,0.8
		c-0.2,0.1-0.4,0.3-0.6,0.4c-2.7,1.6-5.3,3.3-7.7,5.2c-1.3,1-2.6,2-3.8,3c-0.8,0.7-1.5,1.4-2.2,2.1c-1.2,1.1-2.4,2.3-3.5,3.5
		c-0.6,0.7-1.2,1.4-1.8,2.1c-1.2,1.4-2.3,2.8-3.4,4.3c-0.5,0.7-1,1.3-1.4,2c-3.1,4.5-5.7,9.2-7.7,14.1c-0.1,0.2-0.2,0.4-0.3,0.7
		c-1,2.4-1.8,4.9-2.6,7.3c-0.1,0.3-0.2,0.6-0.3,0.9c-0.8,2.6-1.4,5.3-1.8,8c0,0.1-0.1,0.2-0.1,0.3c0,0,0,0,0,0.1
		c-0.7,4.2-1,8.4-0.9,12.5c0.1,4.2,0.1,7.7,0.2,10.8c0,6.7,0,9.3,0.1,13.1c0,1.6,0,3.1,0,4.7c0,1.5,0,3,0,4.7
		c0,3.8-0.1,8.8-0.1,15.5c0,3.1-0.1,4.7-0.2,8.9c-0.1,4.1,0.2,8.3,0.9,12.5c0,0,0,0,0,0.1s0,0.2,0.1,0.3c0.4,2.7,1.1,5.3,1.8,8
		c0.1,0.3,0.2,0.6,0.3,0.9c0.7,2.5,1.6,4.9,2.6,7.3c0.1,0.2,0.2,0.4,0.3,0.7c2.1,4.9,4.6,9.6,7.7,14.1c0.5,0.7,1,1.3,1.4,2
		c1,1.3,2,2.6,3,3.8c0.7,0.9,1.5,1.7,2.2,2.6c1.1,1.2,2.3,2.4,3.5,3.5c0.7,0.7,1.5,1.4,2.2,2.1c1.2,1.1,2.5,2,3.8,3
		c2.4,1.9,5,3.6,7.7,5.2c0.2,0.1,0.4,0.3,0.6,0.4c0.4,0.3,0.9,0.6,1.3,0.8c10.3,5.6,21.6,8.7,33.1,9.1c0.6,0,1.3,0,1.9,0.1
		c0.1,0,0.2,0,0.3,0l6-0.1c7.3-0.1,12.5-1.2,19.2-3.3c0.3-0.1,0.6-0.2,0.9-0.3c1.6-0.5,3.1-1.1,4.7-1.7c0.8-0.3,1.6-0.5,2.4-0.9
		c3.4-1.4,7.7-2.3,12.4-2.5l26-0.2c4,0,7.2-3.2,7.1-7.2V16.4C461.6,12.4,458.3,9.2,454.3,9.2z M412.7,133.8
		c0,15.8-10.9,28.7-26.8,28.7c-15.8,0-28.7-12.8-28.7-28.7V77.2c0-15.8,12.8-28.7,28.7-28.7c15.8,0,26.8,12.8,26.8,28.7V133.8z"/>
</g>
</svg>
