<?xml version="1.0" encoding="UTF-8"?>
<svg width="66px" height="36px" viewBox="0 0 66 36" version="1.1" xmlns="http://www.w3.org/2000/svg" xmlns:xlink="http://www.w3.org/1999/xlink">
    <!-- Generator: Sketch 54.1 (76490) - https://sketchapp.com -->
    <title>Group 8</title>
    <desc>Created with Sketch.</desc>
    <defs>
        <polygon id="path-1" points="0.0758311927 0.312770642 6.50034495 0.312770642 6.50034495 28.0940367 0.0758311927 28.0940367"></polygon>
    </defs>
    <g id="Symbols" stroke="none" stroke-width="1" fill="none" fill-rule="evenodd">
        <g id="Fashion-header" transform="translate(-141.000000, -15.000000)">
            <g id="Group-8" transform="translate(141.500000, 15.017505)">
                <g id="Group-3" transform="translate(26.421911, 0.000000)">
                    <mask id="mask-2" fill="white">
                        <use xlink:href="#path-1"></use>
                    </mask>
                    <g id="Clip-2"></g>
                    <path d="M5.42959266,28.0940367 L1.14658349,28.0940367 C0.55506055,28.0940367 0.0758311927,27.6148073 0.0758311927,27.0232844 L0.0758311927,1.3833578 C0.0758311927,0.792165138 0.55506055,0.312605505 1.14658349,0.312605505 L5.42959266,0.312605505 C6.0211156,0.312605505 6.50034495,0.792165138 6.50034495,1.3833578 L6.50034495,27.0232844 C6.50034495,27.6148073 6.0211156,28.0940367 5.42959266,28.0940367" id="Fill-1" fill="#000000" mask="url(#mask-2)"></path>
                </g>
                <path d="M59.6923517,14.0528147 L55.3713609,14.0528147 C54.7801682,14.0528147 54.3006086,14.5323743 54.3006086,15.123567 L54.3006086,21.6521174 L14.8327187,21.6521174 L14.8327187,28.0769615 L59.6923517,28.0769615 C60.2838746,28.0769615 60.763104,27.5974018 60.763104,27.0062092 L60.763104,26.9147229 L60.763104,21.6521174 L60.763104,15.123567 C60.763104,14.5323743 60.2838746,14.0528147 59.6923517,14.0528147" id="Fill-4" fill="#000000"></path>
                <path d="M45.782381,27.9856404 L41.4993719,27.9856404 C40.9078489,27.9856404 40.4286196,27.5060807 40.4286196,26.9148881 L40.4286196,15.1237321 C40.4286196,14.5325394 40.9078489,14.0526495 41.4993719,14.0526495 L45.782381,14.0526495 C46.373904,14.0526495 46.8531333,14.5325394 46.8531333,15.1237321 L46.8531333,26.9148881 C46.8531333,27.5060807 46.373904,27.9856404 45.782381,27.9856404" id="Fill-6" fill="#000000"></path>
                <path d="M13.8190709,19.0885541 C13.8190709,21.1808477 12.3747774,22.876811 10.2824838,22.876811 C8.19019021,22.876811 6.49389664,21.1808477 6.49389664,19.0885541 L6.49389664,11.0288477 C6.49389664,8.9368844 8.19019021,7.49259083 10.2824838,7.49259083 C12.3747774,7.49259083 13.8190709,8.9368844 13.8190709,11.0288477 L13.8190709,19.0885541 Z M19.3194746,2.30132477 L15.9308508,2.27952661 C15.3115847,2.25145321 14.745493,2.13453578 14.2946673,1.94462752 C14.1893095,1.90037064 14.0813095,1.86866422 13.9752911,1.82771009 C13.7708508,1.74514128 13.5644287,1.67016881 13.3550343,1.60213211 C13.3160618,1.5889211 13.2780801,1.57736147 13.2384471,1.56580183 C12.1485388,1.25005872 11.0322086,1.12719633 9.90002508,1.11596697 C9.88582324,1.11629725 9.87129113,1.1169578 9.85741957,1.1169578 C8.24930948,1.14271927 6.66464893,1.54730642 5.22663058,2.33171009 C5.16619021,2.36473761 5.11268563,2.40569174 5.05290581,2.44037064 C5.02549297,2.45523303 5.00072232,2.47339817 4.97363976,2.48925138 C4.61628196,2.6983156 4.2757682,2.92950826 3.95110765,3.17853578 C3.78002508,3.30965505 3.60861223,3.43846239 3.44875902,3.57783853 C3.34736453,3.66668257 3.25323609,3.76279266 3.15547462,3.85593028 C2.99562141,4.00653578 2.83940122,4.16011376 2.69110765,4.3196367 C2.60952966,4.40881101 2.53059388,4.49897615 2.4516581,4.59079266 C2.29312599,4.77541651 2.14152966,4.96697615 1.99686911,5.16249908 C1.93213517,5.24969174 1.86707095,5.3342422 1.80597003,5.42308624 C1.39543792,6.0156 1.05525443,6.64180183 0.784098472,7.28914128 C0.771878288,7.31787523 0.761309481,7.3476 0.749749848,7.3769945 C0.619621407,7.69604037 0.506997554,8.01838899 0.410887462,8.34371009 C0.399327829,8.38268257 0.387768196,8.4209945 0.376869114,8.45897615 C0.27745627,8.80906789 0.192575536,9.16114128 0.13345627,9.51387523 C0.131144343,9.52708624 0.12652049,9.53897615 0.124869114,9.55152661 C0.124208563,9.55482936 0.124208563,9.55813211 0.123548013,9.56077431 C0.0333828753,10.115967 -0.00823180359,10.4188294 0.00134617807,10.9624624 C0.0105938845,11.5163339 0.0178599395,12.1564073 0.0238048937,12.5629761 C0.0254562698,13.4547193 0.030080123,13.9851413 0.0347039762,14.4838569 C0.0363553524,14.701178 0.0380067285,14.8996734 0.0396581047,15.0984991 C0.0380067285,15.2973248 0.0363553524,15.4964807 0.0347039762,15.7134716 C0.030080123,16.2128477 0.0254562698,17.0864257 0.0238048937,17.9781688 C0.0178599395,18.3847376 0.0105938845,18.6004073 0.00134617807,19.1542789 C-0.00823180359,19.6985725 0.0333828753,20.2527743 0.123548013,20.8076367 C0.124208563,20.8109394 0.124208563,20.8139119 0.124869114,20.8168844 C0.12652049,20.8294349 0.131144343,20.8419853 0.13345627,20.8551963 C0.192575536,21.2079303 0.27745627,21.5586826 0.376869114,21.9094349 C0.387768196,21.9477468 0.399327829,21.9860587 0.410887462,22.0250312 C0.506997554,22.3506826 0.619621407,22.6730312 0.749749848,22.9914165 C0.761309481,23.0211413 0.771878288,23.0511963 0.784098472,23.0792697 C1.05525443,23.7262789 1.39543792,24.352811 1.80597003,24.9459853 C1.86740122,25.0344991 1.93246544,25.1193798 1.99653884,25.2062422 C2.12303425,25.3789761 2.25679572,25.5470862 2.39518104,25.7105725 C2.49228196,25.825178 2.58971315,25.9381321 2.69077737,26.048444 C2.83940122,26.2089578 2.99562141,26.3618752 3.15547462,26.5131413 C3.25323609,26.6066092 3.34736453,26.7013982 3.44875902,26.7902422 C3.60960306,26.9306092 3.78134618,27.0604073 3.9530893,27.1915266 C4.27609847,27.4395633 4.61463058,27.6687743 4.97000673,27.8765174 C4.99874067,27.8936917 5.02516269,27.9125174 5.05323609,27.9293615 C5.11268563,27.9630495 5.16619021,28.0040037 5.22663058,28.0370312 C6.66464893,28.8214349 8.24930948,29.2256917 9.85741957,29.2514532 C11.0302269,29.2696183 12.1138599,29.1434532 13.237126,28.8036 C13.2770893,28.7913798 13.3154012,28.7801505 13.3550343,28.7669394 C13.5644287,28.6985725 13.7708508,28.6232697 13.9752911,28.5403706 C14.0813095,28.4997468 14.1893095,28.4687009 14.2946673,28.424444 C14.745493,28.2338752 15.3115847,28.1179486 15.9308508,28.0888844 C16.2386673,28.0743523 16.5494563,28.0684073 16.8592544,28.0660954 L19.3617498,28.0677468 C19.8855664,28.0677468 20.3076581,27.6390495 20.3000618,27.1155633 L20.3000618,3.25317798 C20.2845388,2.72275596 19.8502269,2.30132477 19.3194746,2.30132477 L19.3194746,2.30132477 Z" id="Fill-8" fill="#000000"></path>
                <path d="M55.996737,13.088444 L51.7133976,13.088444 C51.1222049,13.088444 50.6426453,12.6092147 50.6426453,12.0176917 L50.6426453,7.73435229 C50.6426453,7.14315963 51.1222049,6.6636 51.7133976,6.6636 L55.996737,6.6636 C56.5882599,6.6636 57.0674893,7.14315963 57.0674893,7.73435229 L57.0674893,12.0176917 C57.0674893,12.6092147 56.5882599,13.088444 55.996737,13.088444" id="Fill-10" fill="#000000"></path>
                <path d="M63.5137352,13.088444 L59.230726,13.088444 C58.6392031,13.088444 58.1599737,12.6092147 58.1599737,12.0176917 L58.1599737,7.73435229 C58.1599737,7.14315963 58.6392031,6.6636 59.230726,6.6636 L63.5137352,6.6636 C64.1052581,6.6636 64.5844875,7.14315963 64.5844875,7.73435229 L64.5844875,12.0176917 C64.5844875,12.6092147 64.1052581,13.088444 63.5137352,13.088444" id="Fill-12" fill="#000000"></path>
                <path d="M42.0198856,35.6697248 L37.7365462,35.6697248 C37.1453535,35.6697248 36.6657939,35.1904954 36.6657939,34.5989725 L36.6657939,30.315633 C36.6657939,29.7244404 37.1453535,29.2448807 37.7365462,29.2448807 L42.0198856,29.2448807 C42.6114086,29.2448807 43.0906379,29.7244404 43.0906379,30.315633 L43.0906379,34.5989725 C43.0906379,35.1904954 42.6114086,35.6697248 42.0198856,35.6697248" id="Fill-14" fill="#000000"></path>
                <path d="M49.5368508,35.6697248 L45.2535113,35.6697248 C44.6623187,35.6697248 44.1830893,35.1904954 44.1830893,34.5989725 L44.1830893,30.315633 C44.1830893,29.7244404 44.6623187,29.2448807 45.2535113,29.2448807 L49.5368508,29.2448807 C50.1283737,29.2448807 50.6076031,29.7244404 50.6076031,30.315633 L50.6076031,34.5989725 C50.6076031,35.1904954 50.1283737,35.6697248 49.5368508,35.6697248" id="Fill-16" fill="#000000"></path>
            </g>
        </g>
    </g>
</svg>