<?xml version="1.0" encoding="utf-8"?>
<!-- Generator: Adobe Illustrator 23.0.3, SVG Export Plug-In . SVG Version: 6.00 Build 0)  -->
<svg version="1.1" id="Layer_1" xmlns="http://www.w3.org/2000/svg" xmlns:xlink="http://www.w3.org/1999/xlink" x="0px" y="0px"
	 viewBox="0 0 161.4 88.4" style="enable-background:new 0 0 161.4 88.4;" xml:space="preserve">
<style type="text/css">
	.st0{fill:#2AC497;}
</style>
<g>
	<g>
		<path d="M79.6,69.4H68.9c-1.5,0-2.7-1.2-2.7-2.7v-64c0-1.5,1.2-2.7,2.7-2.7h10.7c1.5,0,2.7,1.2,2.7,2.7v64.1
			C82.3,68.2,81.1,69.4,79.6,69.4z"/>
		<path d="M149.2,34.3h-10.8c-1.5,0-2.7,1.2-2.7,2.7v16.3H37.1v16.1h112.1c1.5,0,2.7-1.2,2.7-2.7v-0.2V53.3V37
			C151.9,35.5,150.7,34.3,149.2,34.3z"/>
		<path class="st0" d="M114.4,69.2h-10.7c-1.5,0-2.7-1.2-2.7-2.7V37c0-1.5,1.2-2.7,2.7-2.7h10.7c1.5,0,2.7,1.2,2.7,2.7v29.5
			C117.1,68,115.9,69.2,114.4,69.2z"/>
		<path class="st0" d="M117.1,56v10.7c0,1.5-1.2,2.7-2.7,2.7H82.3V53.3h32.1C115.9,53.3,117.1,54.5,117.1,56z"/>
		<path d="M48.3,5l-8.5-0.1c-1.5-0.1-3-0.4-4.1-0.8c-0.3-0.1-0.5-0.2-0.8-0.3c-0.5-0.2-1-0.4-1.6-0.6c-0.1,0-0.2-0.1-0.3-0.1
			C30.4,2.3,27.6,2,24.7,2h-0.1c-4,0.1-8,1.1-11.6,3c-0.2,0.1-0.3,0.2-0.4,0.3c-0.1,0-0.1,0.1-0.2,0.1C11.5,6,10.7,6.5,9.9,7.2
			C9.4,7.5,9,7.8,8.6,8.2C8.4,8.4,8.1,8.6,7.9,8.9C7.5,9.2,7.1,9.6,6.7,10c-0.2,0.2-0.4,0.4-0.6,0.7c-0.4,0.5-0.8,0.9-1.1,1.4
			c-0.2,0.2-0.3,0.4-0.5,0.7c-1,1.5-1.9,3-2.6,4.7c0,0.1-0.1,0.1-0.1,0.2c-0.3,0.8-0.6,1.6-0.8,2.4c0,0.1-0.1,0.2-0.1,0.3
			c-0.2,0.9-0.5,1.8-0.6,2.6v0.1l0,0C0.1,24.5,0,25.3,0,26.6c0,1.4,0,3,0.1,4c0,2.2,0,3.6,0,4.8c0,0.5,0,1,0,1.5s0,1,0,1.5
			c0,1.2,0,3.4,0,5.7c0,1,0,1.6-0.1,2.9c0,1.4,0.1,2.7,0.3,4.1l0,0v0.1c0.1,0.9,0.4,1.8,0.6,2.6C1,54.1,1,54.2,1,54.3
			c0.2,0.8,0.5,1.6,0.8,2.4c0,0.1,0.1,0.1,0.1,0.2c0.7,1.6,1.5,3.2,2.6,4.7C4.7,61.8,4.8,62,5,62.2c0.3,0.4,0.7,0.9,1,1.3
			c0.2,0.3,0.5,0.6,0.7,0.8c0.4,0.4,0.8,0.8,1.2,1.2c0.2,0.2,0.5,0.5,0.7,0.7c0.4,0.4,0.8,0.7,1.3,1c0.8,0.6,1.7,1.2,2.5,1.7
			c0.1,0,0.1,0.1,0.2,0.1c0.1,0.1,0.3,0.2,0.4,0.3c3.6,2,7.6,3,11.6,3c2.9,0,5.6-0.3,8.4-1.1c0.1,0,0.2-0.1,0.3-0.1
			c0.5-0.2,1-0.4,1.6-0.6c0.3-0.1,0.5-0.2,0.8-0.3c1.1-0.5,2.5-0.8,4.1-0.8c0.8,0,1.5-0.1,2.3-0.1h6.3c1.3,0,2.4-1.1,2.3-2.4V7.3
			C50.7,6,49.6,5,48.3,5z M34.5,46.9c0,5.2-3.6,9.5-8.8,9.5s-9.5-4.2-9.5-9.5V26.8c0-5.2,4.2-8.8,9.5-8.8s8.8,3.6,8.8,8.8V46.9z"/>
		<path d="M139.9,31.9h-10.7c-1.5,0-2.7-1.2-2.7-2.7V18.5c0-1.5,1.2-2.7,2.7-2.7h10.7c1.5,0,2.7,1.2,2.7,2.7v10.7
			C142.6,30.7,141.4,31.9,139.9,31.9z"/>
		<path d="M158.7,31.9H148c-1.5,0-2.7-1.2-2.7-2.7V18.5c0-1.5,1.2-2.7,2.7-2.7h10.7c1.5,0,2.7,1.2,2.7,2.7v10.7
			C161.4,30.7,160.2,31.9,158.7,31.9z"/>
		<path class="st0" d="M105,88.4H94.3c-1.5,0-2.7-1.2-2.7-2.7V75c0-1.5,1.2-2.7,2.7-2.7H105c1.5,0,2.7,1.2,2.7,2.7v10.7
			C107.7,87.2,106.5,88.4,105,88.4z"/>
		<path class="st0" d="M123.8,88.4h-10.7c-1.5,0-2.7-1.2-2.7-2.7V75c0-1.5,1.2-2.7,2.7-2.7h10.7c1.5,0,2.7,1.2,2.7,2.7v10.7
			C126.5,87.2,125.3,88.4,123.8,88.4z"/>
	</g>
</g>
</svg>
