<?xml version="1.0" encoding="utf-8"?>
<!-- Generator: Adobe Illustrator 23.0.3, SVG Export Plug-In . SVG Version: 6.00 Build 0)  -->
<svg version="1.1" id="Layer_1" xmlns="http://www.w3.org/2000/svg" xmlns:xlink="http://www.w3.org/1999/xlink" x="0px" y="0px"
	 viewBox="0 0 150.7 68.8" style="enable-background:new 0 0 150.7 68.8;" xml:space="preserve">
<style type="text/css">
	.st0{fill:#939393;}
</style>
<g>
	<g id="Layer_1-2">
		<path class="st0" d="M18.5,0h10.6c1.5,0,2.6,1.2,2.6,2.6v63.5c0,1.5-1.2,2.6-2.6,2.6H18.5c-1.5,0-2.6-1.2-2.6-2.6V2.6
			C15.9,1.2,17,0,18.5,0z"/>
		<path d="M71.4,0H82c1.5,0,2.6,1.2,2.6,2.6V66c0,1.5-1.2,2.6-2.6,2.6H71.4c-1.5,0-2.6-1.2-2.6-2.6V2.6C68.7,1.2,69.9,0,71.4,0z"/>
		<path d="M50.2,34.3h10.6c1.5,0,2.6,1.2,2.6,2.6v29.1c0,1.5-1.2,2.6-2.6,2.6H50.2c-1.5,0-2.6-1.2-2.6-2.6V37
			C47.6,35.5,48.8,34.3,50.2,34.3z"/>
		<path d="M50.2,15.9h10.6c1.5,0,2.6,1.2,2.6,2.6v10.6c0,1.5-1.2,2.6-2.6,2.6H50.2c-1.5,0-2.6-1.2-2.6-2.6V18.5
			C47.6,17,48.8,15.9,50.2,15.9z"/>
		<path class="st0" d="M0,13.2V2.6C0,1.2,1.2,0,2.6,0H45c1.5,0,2.6,1.2,2.6,2.6v10.6c0,1.5-1.2,2.6-2.6,2.6H2.6
			C1.2,15.9,0,14.7,0,13.2z"/>
		<path d="M68.8,66.1V52.9l0,0h29.1c1.5,0,2.6,1.2,2.6,2.6v10.6c0,1.5-1.2,2.6-2.6,2.6c0,0,0,0,0,0H71.4
			C69.9,68.8,68.7,67.6,68.8,66.1C68.7,66.1,68.7,66.1,68.8,66.1z"/>
		<path d="M148.2,3l-8.4,0c-1.4,0-2.7-0.3-4-0.8c-0.3-0.1-0.5-0.2-0.8-0.3c-0.5-0.2-1-0.4-1.5-0.6l-0.3-0.1c-2-0.7-4.2-1.1-6.3-1.1
			h-2.1c-4,0.1-7.9,1.1-11.4,3c-0.2,0.1-0.3,0.2-0.4,0.3l-0.2,0.1c-0.9,0.5-1.7,1.1-2.5,1.7c-0.4,0.3-0.8,0.6-1.2,1
			s-0.5,0.5-0.7,0.7c-0.4,0.4-0.8,0.8-1.2,1.1l-0.6,0.7c-0.4,0.5-0.8,0.9-1.1,1.4c-0.2,0.2-0.3,0.4-0.5,0.6c-1,1.4-1.8,3-2.5,4.6
			l-0.1,0.2c-0.3,0.8-0.6,1.6-0.8,2.4l-0.1,0.3c-0.2,0.9-0.4,1.7-0.6,2.6v0.1l0,0c-0.2,1.3-0.3,2.7-0.3,4.1c0,1.4,0,2.5,0.1,3.5
			c0,2.2,0,3,0,4.3c0,0.5,0,1,0,1.5s0,1,0,1.5c0,1.2,0,2.9,0,5.1c0,1,0,1.5-0.1,2.9c0,1.4,0.1,2.7,0.3,4.1l0,0V48
			c0.2,0.9,0.4,1.7,0.6,2.6l0.1,0.3c0.2,0.8,0.5,1.6,0.8,2.4l0.1,0.2c0.7,1.6,1.5,3.2,2.5,4.6c0.2,0.2,0.3,0.4,0.5,0.6
			c0.3,0.4,0.6,0.8,1,1.2s0.5,0.6,0.7,0.8s0.8,0.8,1.2,1.2c0.2,0.2,0.5,0.5,0.7,0.7s0.8,0.7,1.2,1c0.8,0.6,1.6,1.2,2.5,1.7l0.2,0.1
			c0.2,0.1,0.3,0.2,0.4,0.3c3.3,1.8,7,2.8,10.8,3h0.6h0.1h2c2.1,0,4.3-0.4,6.3-1.1l0.3-0.1c0.5-0.2,1-0.4,1.5-0.6
			c0.3-0.1,0.5-0.2,0.8-0.3c1.3-0.5,2.6-0.8,4-0.8l8.5-0.1c1.3,0,2.3-1,2.3-2.3c0,0,0,0,0,0V5.3C150.7,4,149.5,3,148.2,3
			C148.2,3,148.2,3,148.2,3z M134.6,43.7c0,5.2-3.6,9.3-8.7,9.3c-5.2,0-9.3-4.2-9.3-9.3V25.2c0-5.2,4.2-9.3,9.3-9.4
			c5.2,0,8.7,4.2,8.7,9.4V43.7z"/>
	</g>
</g>
</svg>
