
<svg xmlns="http://www.w3.org/2000/svg" viewBox="0 0 152.87 84.67"><defs><style>.cls-1{font-size:6.85px;fill:#777;stroke:#777;stroke-miterlimit:10;stroke-width:0.5px;font-family:Lato-Regular, Lato;}.cls-2{fill:#939393;}</style></defs><title>Logo-Tila-Fashion</title><g id="Layer_2" data-name="Layer 2"><g id="Layer_1-2" data-name="Layer 1"><text class="cls-1" transform="translate(103.81 83.17)">FASHION</text><rect class="cls-2" x="15.86" width="15.86" height="68.74" rx="2.64" ry="2.64"/><rect x="68.74" width="15.86" height="68.6" rx="2.64" ry="2.64"/><rect x="47.59" y="34.34" width="15.86" height="34.4" rx="2.64" ry="2.64"/><rect x="47.59" y="15.86" width="15.86" height="15.86" rx="2.64" ry="2.64"/><rect class="cls-2" x="15.86" y="-15.86" width="15.86" height="47.59" rx="2.64" ry="2.64" transform="translate(15.86 31.73) rotate(-90)"/><path d="M79.32,44.95H92.54a0,0,0,0,1,0,0V74a2.64,2.64,0,0,1-2.64,2.64H79.32A2.64,2.64,0,0,1,76.67,74V47.59A2.64,2.64,0,0,1,79.32,44.95Z" transform="translate(23.8 145.42) rotate(-90)"/><path d="M148.2,3l-8.37-.05a12,12,0,0,1-4-.83c-.26-.11-.53-.19-.79-.29q-.76-.31-1.53-.56l-.29-.09A19.83,19.83,0,0,0,126.91.09l-2.07,0a24.64,24.64,0,0,0-11.43,3c-.15.08-.28.18-.43.27l-.2.12a24.41,24.41,0,0,0-2.52,1.7c-.42.32-.85.64-1.24,1s-.48.46-.72.69c-.4.37-.78.75-1.15,1.15l-.59.67c-.39.46-.77.93-1.12,1.41-.16.21-.32.42-.47.64a25.18,25.18,0,0,0-2.52,4.61l-.08.22a25.18,25.18,0,0,0-.84,2.39l-.08.29a24.11,24.11,0,0,0-.6,2.6l0,.09v0a23,23,0,0,0-.3,4.08c0,1.37,0,2.52.06,3.53,0,2.2,0,3,0,4.27,0,.54,0,1,0,1.52s0,1,0,1.52c0,1.23,0,2.87,0,5.07,0,1,0,1.54-.06,2.9a23,23,0,0,0,.3,4.08v0l0,.09a24.11,24.11,0,0,0,.6,2.6l.08.29a25.06,25.06,0,0,0,.84,2.39l.08.22A25.28,25.28,0,0,0,105,58.11c.15.22.31.43.47.64.31.43.64.84,1,1.24s.48.56.73.83.75.77,1.15,1.15c.24.23.47.46.72.68s.82.67,1.25,1a24.27,24.27,0,0,0,2.51,1.69l.21.13c.15.08.28.18.43.27a24.6,24.6,0,0,0,10.81,3l.62,0h.11l2,0a19.91,19.91,0,0,0,6.28-1.09l.29-.09q.78-.25,1.53-.56c.26-.1.53-.18.79-.29a12,12,0,0,1,4-.83l8.47-.05a2.32,2.32,0,0,0,2.32-2.35V5.35A2.42,2.42,0,0,0,148.2,3ZM134.62,43.65c0,5.17-3.57,9.35-8.73,9.35a9.35,9.35,0,0,1-9.35-9.35V25.17a9.35,9.35,0,0,1,9.35-9.35c5.17,0,8.73,4.19,8.73,9.35Z"/></g></g></svg>
