<?xml version="1.0" encoding="utf-8"?>
<!-- Generator: Adobe Illustrator 23.0.3, SVG Export Plug-In . SVG Version: 6.00 Build 0)  -->
<svg version="1.1" id="Layer_1" xmlns="http://www.w3.org/2000/svg" xmlns:xlink="http://www.w3.org/1999/xlink" x="0px" y="0px"
	 viewBox="0 0 161.6 88.5" style="enable-background:new 0 0 161.6 88.5;" xml:space="preserve">
<style type="text/css">
	.st0{fill:#939393;}
</style>
<g>
	<g>
		<path d="M79.7,69.5H69c-1.5,0-2.7-1.2-2.7-2.7V2.7C66.3,1.2,67.5,0,69,0h10.7c1.5,0,2.7,1.2,2.7,2.7v64.2
			C82.4,68.3,81.2,69.5,79.7,69.5z"/>
		<path d="M149.4,34.4h-10.8c-1.5,0-2.7,1.2-2.7,2.7v16.3H37.1v16.1h112.3c1.5,0,2.7-1.2,2.7-2.7v-0.2V53.4V37.1
			C152.1,35.6,150.9,34.4,149.4,34.4z"/>
		<path d="M114.6,69.3h-10.7c-1.5,0-2.7-1.2-2.7-2.7V37.1c0-1.5,1.2-2.7,2.7-2.7h10.7c1.5,0,2.7,1.2,2.7,2.7v29.5
			C117.3,68.1,116.1,69.3,114.6,69.3z"/>
		<path d="M117.3,56.1v10.7c0,1.5-1.2,2.7-2.7,2.7H82.4V53.4h32.2C116.1,53.4,117.3,54.6,117.3,56.1z"/>
		<path d="M48.3,5l-8.5-0.1c-1.6-0.1-3-0.4-4.1-0.8C35.5,4,35.2,3.9,35,3.8c-0.5-0.2-1-0.4-1.6-0.6c-0.1,0-0.2-0.1-0.3-0.1
			C30.4,2.3,27.6,2,24.8,2h-0.1c-4,0.1-8,1.1-11.6,3c-0.2,0.1-0.3,0.2-0.4,0.3c-0.1,0-0.1,0.1-0.2,0.1C11.6,6,10.7,6.5,9.9,7.2
			C9.5,7.5,9,7.8,8.6,8.2C8.4,8.4,8.1,8.6,7.9,8.9C7.5,9.2,7.1,9.6,6.7,10c-0.2,0.2-0.4,0.4-0.6,0.7c-0.4,0.5-0.8,0.9-1.1,1.4
			c-0.2,0.2-0.3,0.4-0.5,0.7c-1,1.5-1.9,3.1-2.6,4.7c0,0.1-0.1,0.1-0.1,0.2c-0.3,0.8-0.6,1.6-0.8,2.4c0,0.1-0.1,0.2-0.1,0.3
			c-0.2,0.9-0.5,1.8-0.6,2.6v0.1l0,0C0.1,24.5,0,25.3,0,26.7c0,1.4,0,3,0.1,4c0,2.2,0,3.6,0,4.8c0,0.5,0,1,0,1.5s0,1,0,1.5
			c0,1.2,0,3.4,0,5.7c0,1,0,1.6-0.1,2.9c0,1.4,0.1,2.7,0.3,4.1l0,0v0.1c0.1,0.9,0.4,1.8,0.6,2.6C1,54.1,1,54.2,1,54.3
			c0.2,0.8,0.5,1.6,0.8,2.4c0,0.1,0.1,0.1,0.1,0.2c0.7,1.6,1.5,3.2,2.6,4.7C4.7,61.8,4.8,62,5,62.3c0.3,0.4,0.7,0.9,1,1.3
			c0.2,0.3,0.5,0.6,0.7,0.8c0.4,0.4,0.8,0.8,1.2,1.2c0.2,0.2,0.5,0.5,0.7,0.7c0.4,0.4,0.8,0.7,1.3,1c0.8,0.6,1.7,1.2,2.5,1.7
			c0.1,0,0.1,0.1,0.2,0.1c0.1,0.1,0.3,0.2,0.4,0.3c3.6,2,7.6,3,11.6,3c2.9,0,5.6-0.3,8.5-1.1c0.1,0,0.2-0.1,0.3-0.1
			c0.5-0.2,1-0.4,1.6-0.6c0.3-0.1,0.5-0.2,0.8-0.3c1.1-0.5,2.5-0.8,4.1-0.8c0.8,0,1.5-0.1,2.3-0.1h6.3c1.3,0,2.4-1.1,2.3-2.4V7.4
			C50.8,6,49.7,5,48.3,5z M34.6,47c0,5.2-3.6,9.5-8.9,9.5s-9.5-4.2-9.5-9.5V26.8c0-5.2,4.2-8.9,9.5-8.9s8.9,3.6,8.9,8.9V47z"/>
		<path class="st0" d="M140.1,32h-10.7c-1.5,0-2.7-1.2-2.7-2.7V18.6c0-1.5,1.2-2.7,2.7-2.7h10.7c1.5,0,2.7,1.2,2.7,2.7v10.7
			C142.8,30.8,141.6,32,140.1,32z"/>
		<path class="st0" d="M158.9,32h-10.7c-1.5,0-2.7-1.2-2.7-2.7V18.6c0-1.5,1.2-2.7,2.7-2.7h10.7c1.5,0,2.7,1.2,2.7,2.7v10.7
			C161.6,30.8,160.4,32,158.9,32z"/>
		<path d="M105.2,88.5H94.4c-1.5,0-2.7-1.2-2.7-2.7V75.1c0-1.5,1.2-2.7,2.7-2.7h10.7c1.5,0,2.7,1.2,2.7,2.7v10.7
			C107.8,87.3,106.6,88.5,105.2,88.5z"/>
		<path d="M124,88.5h-10.7c-1.5,0-2.7-1.2-2.7-2.7V75.1c0-1.5,1.2-2.7,2.7-2.7H124c1.5,0,2.7,1.2,2.7,2.7v10.7
			C126.7,87.3,125.5,88.5,124,88.5z"/>
		<g>
			<path class="st0" d="M149.4,69.3h-10.7c-1.5,0-2.7-1.2-2.7-2.7V37.1c0-1.5,1.2-2.7,2.7-2.7h10.7c1.5,0,2.7,1.2,2.7,2.7v29.5
				C152.1,68.1,150.9,69.3,149.4,69.3z"/>
			<path class="st0" d="M152.1,56.1v10.7c0,1.5-1.2,2.7-2.7,2.7h-32.2V53.4h32.2C150.9,53.4,152.1,54.6,152.1,56.1z"/>
		</g>
	</g>
</g>
</svg>
