<svg xmlns="http://www.w3.org/2000/svg" width="17" height="17" viewBox="0 0 17 17">
    <path fill="#101820" fill-rule="nonzero" d="M8.5 0A8.5 8.5 0 1 0 17 8.5 8.51 8.51 0 0 0 8.5 0zm-.665 1.172a6.989 6.989 0 0 1 1.33 0V4.27c-.44-.07-.89-.07-1.33 0V1.172zm3.81 7.328a3.144 3.144 0 1 1-6.29 0 3.144 3.144 0 0 1 6.29 0zm-4.94-7.136v3.253a4.309 4.309 0 0 0-2.088 2.078H1.364a7.387 7.387 0 0 1 5.331-5.33h.01zM1.14 8.5c0-.224.011-.446.032-.665H4.27c-.07.44-.07.89 0 1.33H1.17a7.68 7.68 0 0 1-.03-.665zm5.555 7.136a7.387 7.387 0 0 1-5.33-5.331h3.252a4.309 4.309 0 0 0 2.078 2.078v3.253zm2.47.19a6.989 6.989 0 0 1-1.33 0V12.73c.44.07.89.07 1.33 0v3.095zm1.14-.19v-3.253a4.309 4.309 0 0 0 2.078-2.078h3.253a7.387 7.387 0 0 1-5.331 5.33zM15.86 8.5c0 .224-.011.446-.032.665H12.73c.07-.44.07-.89 0-1.33h3.097c.02.219.032.44.032.665zm-3.477-1.805a4.309 4.309 0 0 0-2.078-2.078V1.364a7.387 7.387 0 0 1 5.33 5.331h-3.252z"/>
</svg>
