<svg xmlns="http://www.w3.org/2000/svg" width="138" height="106" viewBox="0 0 138 106">
    <g fill="none" fill-rule="evenodd" transform="translate(0 1)">
        <path fill="#E5E5E5" d="M60.1 97.1l-43.7.6c-5.5.1-11.1.2-16.2 2.8 3.4 3.3 8.4-.3 12.5 1.4 1.1.5 2.1 1.3 3.2 1.8 1.3.6 2.8.6 4.2.7l12.8.3c7.8.2 15.6.3 23.4-.1 6.3-.3 12.6-1 18.8-2 1.2-.2 2.7-.7 2.9-2.3-6.2-1.4-11.5-3.3-17.9-3.2zM84.5 77l38.8.6c4.9.1 9.9.2 14.4 2.8-3.1 3.3-7.5-.3-11.1 1.4-1 .5-1.9 1.3-2.8 1.8-1.2.6-2.5.6-3.7.7-3.8.1-7.6.2-11.3.3-6.9.2-13.9.3-20.8-.1-5.6-.3-11.2-1-16.7-2-1.1-.2-2.4-.7-2.6-2.3 5.5-1.3 10.1-3.3 15.8-3.2zM40.4 63.7l38.8.6c4.9.1 9.9.2 14.4 2.8-3.1 3.3-7.5-.3-11.1 1.4-1 .5-1.9 1.3-2.8 1.8-1.1.7-2.4.7-3.7.7-3.8.1-7.6.2-11.3.3-6.9.2-13.9.3-20.8-.1-5.6-.3-11.2-1-16.7-2-1.1-.2-2.4-.7-2.6-2.3 5.5-1.3 10.1-3.3 15.8-3.2z"/>
        <path fill="#FDFEFE" stroke="#000" stroke-width="2" d="M78.4 67.6H20.1c-2.9 0-5.3-2.4-5.3-5.3V29.1c0-2.9 2.4-5.3 5.3-5.3h58.4c2.9 0 5.3 2.4 5.3 5.3v33.1c0 3-2.4 5.4-5.4 5.4z"/>
        <path fill="#FFF" stroke="#000" stroke-width="2" d="M124.5 79.5H81.7c-4 0-7.2-3.2-7.2-7.2V7.8c0-4 3.2-7.2 7.2-7.2h42.8c4 0 7.2 3.2 7.2 7.2v64.5c.1 4-3.2 7.2-7.2 7.2zM59.3 61.8l-50.5-.5c-1.8 0-1.8-2.5-.1-2.5h-.4 53.5c.9 0 1.3.3 1.3.7V95c0 .4-.3.7-.7.7h-1.6c-.4 0-.7-.3-.7-.7V62.5c0-.4-.4-.7-.8-.7"/>
        <path fill="#FFF" stroke="#000" stroke-width="2" d="M58.2 101.1H10.3c-1.5 0-2.8-1.2-2.8-2.8V61.4h50.7c1.5 0 2.8 1.2 2.8 2.8v34.1c-.1 1.5-1.3 2.8-2.8 2.8z"/>
        <path fill="#030303" fill-rule="nonzero" d="M34.4 51.6c2.5-.5 7.2-1.2 11.9 0 .6.2 1.3-.5.6-.7-2.5-1.9-7.5-4.8-13.4 0-.4.5.3.9.9.7z"/>
        <path fill="#F26C6B" fill-rule="nonzero" d="M15.8 31.2h57.6v9.2H15.8z"/>
        <path fill="#010101" fill-rule="nonzero" d="M32.7 37.2c-2.2 0-3.8-.9-4.7-1.6-.6-.6-.9-1.3-.3-1.9.3-.6 1.3-.6 1.9-.3 0 0 3.1 2.2 6.3 0 .6-.3 1.3-.3 1.9.3.3.6.3 1.3-.3 1.9-1.7.9-3.6 1.6-4.8 1.6zM48.1 37.2c-2.2 0-3.8-.9-4.7-1.6-.6-.3-.6-1.3-.3-1.9.3-.6 1.3-.6 1.9-.3 0 0 3.1 2.2 6.3 0 .6-.3 1.3-.3 1.9.3.3.6.3 1.3-.3 1.9-1.7.9-3.2 1.6-4.8 1.6z"/>
        <path fill="#030303" fill-rule="nonzero" d="M86.3 67.5c3.1-.8 9-2.1 14.9 0 .8.4 1.6-.8.8-1.3-3.1-3.4-9.4-8.4-16.8 0-.5.8.3 1.7 1.1 1.3z"/>
        <path fill="#010101" fill-rule="nonzero" d="M83.4 50.5c-1.4 0-2.3-.9-2.9-1.6-.4-.6-.6-1.3-.2-1.9.2-.6.8-.6 1.2-.3 0 0 1.9 2.2 3.9 0 .4-.3.8-.3 1.2.3.2.6.2 1.3-.2 1.9-1.1 1-2.2 1.6-3 1.6zM103.1 50.2c-1.7 0-2.8-.9-3.5-1.6-.5-.3-.5-1.3-.2-1.9.2-.6.9-.6 1.4-.3 0 0 2.4 2.2 4.7 0 .5-.3.9-.3 1.4.3.2.6.2 1.3-.2 1.9-1.2 1-2.4 1.6-3.6 1.6z"/>
        <path fill="#D3D2D1" fill-rule="nonzero" d="M125.1 71.4h-5.8c-1.3 0-2.4-1.1-2.4-2.4v-7.9c0-1.3 1.1-2.4 2.4-2.4h5.8c1.3 0 2.4 1.1 2.4 2.4V69c0 1.4-1.1 2.4-2.4 2.4z"/>
        <circle cx="120.3" cy="19.1" r="3.8" fill="#F26C6B" fill-rule="nonzero"/>
        <circle cx="120.3" cy="13.4" r="3.8" fill="#40BB94" fill-rule="nonzero"/>
        <path stroke="#000" stroke-linecap="round" stroke-width="2" d="M113.1 73.9V56.4M113.1 50.7V33.2M113.1 28.6V11.2"/>
        <path fill="#D3D2D1" fill-rule="nonzero" d="M30.8 96.1c-1.8 0-3.6 0-5.4.2-1 .1-2 .3-3 .2-1-.1-2-.6-2.5-1.5-.3-.6-.3-1.4-.2-2.1.4-2.3 2.2-4.2 4.4-5.2s4.6-1.2 6.9-1.2h.5c2.4-.1 4.8.1 6.9 1.2 2.1 1 3.9 2.9 4.4 5.2.1.7.1 1.4-.2 2.1-.5.9-1.5 1.4-2.5 1.5-1 .1-2-.1-3-.2-1.8-.2-3.6-.3-5.4-.2h-.9z"/>
        <ellipse cx="31.2" cy="94.1" fill="#F26C6B" fill-rule="nonzero" rx="3.8" ry="1.6"/>
        <ellipse cx="24.6" cy="78.6" fill="#030303" fill-rule="nonzero" rx="2.1" ry="1.8"/>
        <ellipse cx="38.6" cy="78.6" fill="#030303" fill-rule="nonzero" rx="2.1" ry="1.8"/>
        <path stroke="#000" stroke-linecap="round" stroke-width="2" d="M12.6 65.1h41.5M57.4 69.5v24.9c0 1.5-1.2 2.7-2.7 2.7h-7.2"/>
        <path fill="#FFF" fill-rule="nonzero" stroke="#000" stroke-width="2" d="M64.4 83.4H54.1c-2 0-3.7-1.6-3.7-3.7 0-2 1.6-3.7 3.7-3.7h10.3v7.4z"/>
        <circle cx="54.1" cy="79.8" r="1.1" fill="#F26C6B" fill-rule="nonzero"/>
        <path fill="#FFF" fill-rule="nonzero" d="M118.7 7.5h1v13.4h-1zM119.8 7.5h1v13.4h-1zM121.2 7.5h1v13.4h-1z"/>
        <path fill="#40BB94" fill-rule="nonzero" d="M81.7 1.6h9.6v22.2h-9.6z"/>
        <path stroke="#000" stroke-linecap="round" stroke-width="2" d="M112.4 4.3h12c2.2 0 3.9 1.8 3.9 3.9v39M46.3 26.6H20.9c-1.8 0-3.2 1.4-3.2 3.2v18.7"/>
    </g>
</svg>
