<svg xmlns="http://www.w3.org/2000/svg" xmlns:xlink="http://www.w3.org/1999/xlink" width="156" height="118" viewBox="0 0 156 118">
    <defs>
        <path id="a" d="M.77 4.973c0 2.56 2.065 4.634 4.61 4.634 2.546 0 4.611-2.075 4.611-4.634 0-2.557-2.065-4.632-4.61-4.632C2.834.341.77 2.416.77 4.973z"/>
        <path id="c" d="M.35 4.273A3.362 3.362 0 0 0 3.703 7.64a3.36 3.36 0 0 0 3.353-3.367A3.362 3.362 0 0 0 3.704.903a3.363 3.363 0 0 0-3.355 3.37z"/>
        <path id="e" d="M.77 3.57a3.36 3.36 0 0 0 3.353 3.368A3.361 3.361 0 0 0 7.476 3.57 3.361 3.361 0 0 0 4.123.2 3.36 3.36 0 0 0 .77 3.57z"/>
        <path id="g" d="M.91 3.71c0 1.861 1.5 3.37 3.353 3.37a3.362 3.362 0 0 0 3.353-3.37A3.36 3.36 0 0 0 4.263.342 3.359 3.359 0 0 0 .91 3.71z"/>
        <path id="i" d="M.49 2.306c0 1.085.876 1.965 1.956 1.965 1.082 0 1.955-.88 1.955-1.965A1.958 1.958 0 0 0 2.446.341 1.96 1.96 0 0 0 .49 2.306z"/>
        <path id="k" d="M.91 1.324c0 .62.5 1.123 1.117 1.123a1.12 1.12 0 0 0 1.118-1.123A1.12 1.12 0 0 0 2.027.2 1.12 1.12 0 0 0 .91 1.324z"/>
        <path id="m" d="M.49 1.324c0 .62.5 1.123 1.118 1.123a1.12 1.12 0 0 0 1.118-1.123C2.726.704 2.226.2 1.608.2A1.12 1.12 0 0 0 .49 1.324z"/>
        <path id="o" d="M.35 1.604c0 .62.5 1.123 1.118 1.123a1.12 1.12 0 0 0 1.118-1.123c0-.619-.5-1.123-1.118-1.123A1.12 1.12 0 0 0 .351 1.604z"/>
        <path id="q" d="M.071 1.885c0 .62.5 1.123 1.118 1.123.616 0 1.118-.504 1.118-1.123a1.119 1.119 0 0 0-2.235 0z"/>
        <path id="s" d="M.35 2.025c0 .62.502 1.123 1.121 1.123a1.12 1.12 0 0 0 1.115-1.123A1.12 1.12 0 0 0 1.471.903C.852.903.35 1.405.35 2.025z"/>
        <path id="u" d="M.77 2.008a1.96 1.96 0 0 0 1.956 1.965 1.96 1.96 0 0 0 1.956-1.965A1.96 1.96 0 0 0 2.726.043 1.96 1.96 0 0 0 .77 2.008z"/>
        <path id="w" d="M.048 3.99A3.082 3.082 0 0 0 3.123 7.08 3.08 3.08 0 0 0 6.195 3.99 3.08 3.08 0 0 0 3.123.903 3.082 3.082 0 0 0 .048 3.99z"/>
        <path id="y" d="M.35 2.166c0 1.086.877 1.965 1.957 1.965a1.96 1.96 0 0 0 1.956-1.965A1.961 1.961 0 0 0 2.307.2C1.227.2.349 1.08.349 2.166z"/>
        <path id="A" d="M.77 3.148a1.96 1.96 0 0 0 1.956 1.966 1.96 1.96 0 0 0 1.956-1.966 1.96 1.96 0 0 0-1.956-1.965A1.96 1.96 0 0 0 .77 3.148z"/>
        <path id="C" d="M1.05 2.868a1.96 1.96 0 0 0 1.954 1.965 1.965 1.965 0 0 0 0-3.93 1.962 1.962 0 0 0-1.955 1.965z"/>
        <path id="E" d="M1.329 2.587c0 1.085.876 1.965 1.956 1.965A1.96 1.96 0 0 0 5.24 2.587 1.96 1.96 0 0 0 3.285.622c-1.08 0-1.956.88-1.956 1.965z"/>
        <path id="G" d="M.35 2.447a1.96 1.96 0 0 0 1.955 1.965 1.96 1.96 0 0 0 1.958-1.965A1.96 1.96 0 0 0 2.305.48 1.96 1.96 0 0 0 .351 2.447z"/>
        <path id="I" d="M.211 4.412a3.641 3.641 0 0 0 3.633 3.65c2.006 0 3.632-1.635 3.632-3.65A3.64 3.64 0 0 0 3.844.764 3.639 3.639 0 0 0 .21 4.412z"/>
        <path id="K" d="M5.52.646C2.987.912 1.148 3.19 1.414 5.734c.265 2.543 2.534 4.39 5.066 4.124 2.533-.265 4.37-2.545 4.105-5.088A4.618 4.618 0 0 0 6.006.619c-.162 0-.324.008-.486.027z"/>
        <path id="M" d="M3.278.71A3.363 3.363 0 0 0 .292 4.41 3.357 3.357 0 0 0 3.976 7.41a3.364 3.364 0 0 0 2.985-3.702A3.357 3.357 0 0 0 3.633.691a3.04 3.04 0 0 0-.355.02z"/>
        <path id="O" d="M3.04 1.373A3.366 3.366 0 0 0 .054 5.074 3.358 3.358 0 0 0 3.74 8.075a3.367 3.367 0 0 0 2.985-3.703 3.362 3.362 0 0 0-3.333-3.017c-.116 0-.233.005-.352.018z"/>
        <path id="Q" d="M3.802.813A3.363 3.363 0 0 0 .817 4.514a3.356 3.356 0 0 0 3.683 3A3.363 3.363 0 0 0 7.485 3.81 3.359 3.359 0 0 0 4.154.793a3.33 3.33 0 0 0-.352.02z"/>
        <path id="S" d="M3.046 1.148A1.966 1.966 0 0 0 1.1 3.318a1.955 1.955 0 0 0 2.148 1.75 1.965 1.965 0 0 0 1.745-2.16 1.963 1.963 0 0 0-1.944-1.76h-.003z"/>
        <path id="U" d="M1.826.265a1.122 1.122 0 0 0-.995 1.236 1.12 1.12 0 0 0 1.227.999 1.122 1.122 0 0 0 .996-1.234A1.12 1.12 0 0 0 1.944.26c-.04 0-.08.002-.118.005z"/>
        <path id="W" d="M2.19.814a1.123 1.123 0 0 0-.995 1.235 1.118 1.118 0 0 0 1.226 1 1.121 1.121 0 0 0 .996-1.234A1.12 1.12 0 0 0 2.307.807c-.038 0-.079.003-.118.007z"/>
        <path id="Y" d="M1.552.636A1.125 1.125 0 0 0 .557 1.87a1.118 1.118 0 0 0 1.23.998 1.121 1.121 0 0 0 .996-1.232A1.121 1.121 0 0 0 1.671.63c-.038 0-.078.002-.119.006z"/>
        <path id="aa" d="M1.628.55a1.122 1.122 0 0 0-.995 1.234 1.118 1.118 0 0 0 1.227 1 1.122 1.122 0 0 0 .996-1.234A1.119 1.119 0 0 0 1.746.545c-.039 0-.08.002-.118.005z"/>
        <path id="ac" d="M2.114 1.018a1.12 1.12 0 0 0-.995 1.233 1.118 1.118 0 0 0 1.227 1 1.122 1.122 0 0 0 .996-1.235 1.12 1.12 0 0 0-1.11-1.005c-.038 0-.079.002-.118.007z"/>
        <path id="ae" d="M2.85 1.27A1.964 1.964 0 0 0 .904 3.44a1.957 1.957 0 0 0 2.149 1.75 1.962 1.962 0 0 0 1.742-2.158 1.96 1.96 0 0 0-1.942-1.76H2.85z"/>
        <path id="ag" d="M3.226.63A3.084 3.084 0 0 0 .163 4.04v.001A3.075 3.075 0 0 0 3.54 6.788a3.083 3.083 0 0 0 2.737-3.391A3.078 3.078 0 0 0 3.227.63h-.001z"/>
        <path id="ai" d="M2.927.386a1.963 1.963 0 0 0-1.74 2.16 1.957 1.957 0 0 0 2.148 1.75 1.961 1.961 0 0 0 1.74-2.16A1.956 1.956 0 0 0 3.133.375c-.069 0-.138.004-.207.011z"/>
        <path id="ak" d="M2.568 1.314A1.963 1.963 0 0 0 .62 3.485a1.959 1.959 0 0 0 2.15 1.75A1.964 1.964 0 0 0 4.51 3.073a1.96 1.96 0 0 0-1.942-1.76h-.001z"/>
        <path id="am" d="M1.976.024A1.962 1.962 0 0 0 .233 2.183a1.958 1.958 0 0 0 2.15 1.749 1.961 1.961 0 0 0 1.741-2.16A1.96 1.96 0 0 0 2.18.013c-.067 0-.136.003-.204.012z"/>
        <path id="ao" d="M3.107.234a1.961 1.961 0 0 0-1.742 2.16 1.958 1.958 0 0 0 2.149 1.75 1.966 1.966 0 0 0 1.742-2.16A1.961 1.961 0 0 0 3.314.223c-.068 0-.138.003-.207.01z"/>
        <path id="aq" d="M2.187.964a1.962 1.962 0 0 0-1.74 2.158 1.956 1.956 0 0 0 2.149 1.75 1.962 1.962 0 0 0 1.74-2.159A1.959 1.959 0 0 0 2.394.953c-.068 0-.135.003-.206.011z"/>
        <path id="as" d="M3.665 1.228A3.645 3.645 0 0 0 .43 5.238a3.636 3.636 0 0 0 3.99 3.25 3.647 3.647 0 0 0 3.235-4.01 3.638 3.638 0 0 0-3.606-3.27c-.126 0-.256.006-.384.02z"/>
        <path id="au" d="M32.625.604L2.865 18.15C.909 19.273-.067 22.08.49 24.607l8.663 44.356 24.45 10.528 44.85-13.755 10.059-37.48c.838-2.947-.42-6.316-2.795-7.298L35.7.324a3.073 3.073 0 0 0-1.206-.246c-.633 0-1.275.187-1.868.526z"/>
        <path id="aw" d="M21.979.126c-.125 0-.257.026-.391.075-3.493 1.264-10.06 2.947-18.722.702-.978-.281-1.818 1.122-1.398 2.386 2.934 7.299 11.597 23.722 21.517-.842.49-1.108-.094-2.32-1-2.32h-.006z"/>
        <path id="ay" d="M1.05 3.71c-.42.421 0 .842.698.842 5.589-.14 9.64.702 11.736 1.263.559.14 1.257-.279.978-.701C12.305 1.623 9.942.48 7.771.48c-2.892 0-5.446 2.027-6.722 3.23z"/>
        <path id="aA" d="M.073 4.273c-.141.28.137.84.557.7 3.353-.7 6.007-.14 7.405.28.42 0 .837-.42.559-.7C7.104 1.505 5.661.47 4.38.47 2.414.472.833 2.913.073 4.273z"/>
        <path id="aC" d="M.912 2.303c.04.013.508.583 1.275 1.154C3.818 4.67 6.81 5.88 9.99 1.745c0 0-1.693-1.097-4.12-1.097-1.457 0-3.179.395-4.959 1.655z"/>
        <path id="aE" d="M.63 8.623L6.652 64.7l8.384 3.509-1.831-67.166z"/>
        <path id="aG" d="M.35 6.938C1.33 1.465 3.703.762 3.703.762-1.046 1.604.351 6.938.351 6.938z"/>
        <path id="aI" d="M4.822 6.798C6.219 2.166.91 1.183.77 1.183c4.47 3.09 4.052 5.615 4.052 5.615z"/>
        <path id="aK" d="M.35 2.588v9.263l11.038-2.946V.062z"/>
        <path id="aM" d="M12.646 1.324l-6.288 3.51c-.42.28-.697.56-.838.981L1.33 19.571c-.42 1.264.28 2.528 1.537 2.95l8.522 2.665c1.258.421 2.515-.28 2.934-1.544l4.19-13.755c.281-.282.142-.843 0-1.264l-3.491-6.598c-.29-.582-.911-.895-1.545-.895-.285 0-.572.063-.83.194zm-.14 4.632c-2.096-.702-1.118-3.789.977-3.229 1.767.635 1.141 3.328-.44 3.328-.167 0-.347-.03-.537-.1z"/>
        <path id="aO" d="M.115 10.161c0 5.425 4.38 9.827 9.783 9.827 5.402 0 9.781-4.402 9.781-9.827 0-5.43-4.379-9.827-9.781-9.827C4.495.334.115 4.732.115 10.161z"/>
    </defs>
    <g fill="none" fill-rule="evenodd">
        <g transform="translate(125.113 12.477)">
            <mask id="b" fill="#fff">
                <use xlink:href="#a"/>
            </mask>
            <path fill="#40B992" d="M-13.202 23.642h37.165v-37.338h-37.165z" mask="url(#b)"/>
        </g>
        <g transform="translate(116.73 26.514)">
            <mask id="d" fill="#fff">
                <use xlink:href="#c"/>
            </mask>
            <path fill="#40B992" d="M-13.62 21.677h34.649v-34.811h-34.65z" mask="url(#d)"/>
        </g>
        <g transform="translate(125.113 23.706)">
            <mask id="f" fill="#fff">
                <use xlink:href="#e"/>
            </mask>
            <path fill="#40B992" d="M-13.202 20.975h34.65v-34.811h-34.65z" mask="url(#f)"/>
        </g>
        <g transform="translate(104.156 47.569)">
            <mask id="h" fill="#fff">
                <use xlink:href="#g"/>
            </mask>
            <path fill="#40B992" d="M-13.062 21.115h34.65v-34.81h-34.65z" mask="url(#h)"/>
        </g>
        <g transform="translate(141.88 19.495)">
            <mask id="j" fill="#fff">
                <use xlink:href="#i"/>
            </mask>
            <path fill="#40B992" d="M-13.481 18.308h31.855v-32.004H-13.48z" mask="url(#j)"/>
        </g>
        <g transform="translate(109.745 41.954)">
            <mask id="l" fill="#fff">
                <use xlink:href="#k"/>
            </mask>
            <path fill="#40B992" d="M-13.062 16.483h30.179v-30.319h-30.18z" mask="url(#l)"/>
        </g>
        <g transform="translate(133.496 41.954)">
            <mask id="n" fill="#fff">
                <use xlink:href="#m"/>
            </mask>
            <path fill="#40B992" d="M-13.481 16.483h30.178v-30.319H-13.48z" mask="url(#n)"/>
        </g>
        <g transform="translate(150.262 37.743)">
            <mask id="p" fill="#fff">
                <use xlink:href="#o"/>
            </mask>
            <path fill="#40B992" d="M-13.62 16.764h30.178v-30.32h-30.179z" mask="url(#p)"/>
        </g>
        <g transform="translate(120.922 48.972)">
            <mask id="r" fill="#fff">
                <use xlink:href="#q"/>
            </mask>
            <path fill="#40B992" d="M-13.9 17.045h30.178v-30.32H-13.9z" mask="url(#r)"/>
        </g>
        <g transform="translate(153.057 13.88)">
            <mask id="t" fill="#fff">
                <use xlink:href="#s"/>
            </mask>
            <path fill="#40B992" d="M-13.62 17.185h30.178v-30.32h-30.179z" mask="url(#t)"/>
        </g>
        <g transform="translate(137.688 37.34)">
            <mask id="v" fill="#fff">
                <use xlink:href="#u"/>
            </mask>
            <path fill="#40B992" d="M-13.202 18.01h31.856v-32.004h-31.856z" mask="url(#v)"/>
        </g>
        <g transform="translate(137.29 26.514)">
            <mask id="x" fill="#fff">
                <use xlink:href="#w"/>
            </mask>
            <path fill="#40B992" d="M-13.922 21.115h34.09v-34.25h-34.09z" mask="url(#x)"/>
        </g>
        <g transform="translate(116.73 39.147)">
            <mask id="z" fill="#fff">
                <use xlink:href="#y"/>
            </mask>
            <path fill="#40B992" d="M-13.62 18.168h31.854v-32.004H-13.62z" mask="url(#z)"/>
        </g>
        <g transform="translate(137.688 9.67)">
            <mask id="B" fill="#fff">
                <use xlink:href="#A"/>
            </mask>
            <path fill="#40B992" d="M-13.202 19.15h31.856v-32.003h-31.856z" mask="url(#B)"/>
        </g>
        <g transform="translate(143.277 -.156)">
            <mask id="D" fill="#fff">
                <use xlink:href="#C"/>
            </mask>
            <path fill="#40B992" d="M-12.922 18.87h31.855v-32.004h-31.855z" mask="url(#D)"/>
        </g>
        <g transform="translate(109.745 33.532)">
            <mask id="F" fill="#fff">
                <use xlink:href="#E"/>
            </mask>
            <path fill="#40B992" d="M-12.643 18.589h31.855v-32.004h-31.855z" mask="url(#F)"/>
        </g>
        <g transform="translate(147.468 29.321)">
            <mask id="H" fill="#fff">
                <use xlink:href="#G"/>
            </mask>
            <path fill="#40B992" d="M-13.62 18.448h31.854v-32.003H-13.62z" mask="url(#H)"/>
        </g>
        <g transform="translate(125.113 34.936)">
            <mask id="J" fill="#fff">
                <use xlink:href="#I"/>
            </mask>
            <path fill="#40B992" d="M-13.76 22.098h35.208v-35.373h-35.209z" mask="url(#J)"/>
        </g>
        <g transform="translate(28.71 26.514)">
            <mask id="L" fill="#fff">
                <use xlink:href="#K"/>
            </mask>
            <path fill="#97999C" d="M-13.729 25.07h39.455V-14.57h-39.455z" mask="url(#L)"/>
        </g>
        <g transform="translate(18.93 39.147)">
            <mask id="N" fill="#fff">
                <use xlink:href="#M"/>
            </mask>
            <path fill="#97999C" d="M-14.72 22.49h36.692v-36.864H-14.72z" mask="url(#N)"/>
        </g>
        <g transform="translate(21.723 29.321)">
            <mask id="P" fill="#fff">
                <use xlink:href="#O"/>
            </mask>
            <path fill="#97999C" d="M-14.957 23.155h36.691v-36.862h-36.69z" mask="url(#P)"/>
        </g>
        <g transform="translate(-.631 53.183)">
            <mask id="R" fill="#fff">
                <use xlink:href="#Q"/>
            </mask>
            <path fill="#97999C" d="M-14.194 22.595h36.691v-36.863h-36.69z" mask="url(#R)"/>
        </g>
        <g transform="translate(25.915 15.284)">
            <mask id="T" fill="#fff">
                <use xlink:href="#S"/>
            </mask>
            <path fill="#97999C" d="M-13.765 20.002h33.62v-33.776h-33.62z" mask="url(#T)"/>
        </g>
        <g transform="translate(9.149 51.78)">
            <mask id="V" fill="#fff">
                <use xlink:href="#U"/>
            </mask>
            <path fill="#97999C" d="M-13.948 17.347h31.78V-14.58h-31.78z" mask="url(#V)"/>
        </g>
        <g transform="translate(6.355 27.917)">
            <mask id="X" fill="#fff">
                <use xlink:href="#W"/>
            </mask>
            <path fill="#97999C" d="M-13.585 17.894h31.78v-31.926h-31.78z" mask="url(#X)"/>
        </g>
        <g transform="translate(9.149 11.073)">
            <mask id="Z" fill="#fff">
                <use xlink:href="#Y"/>
            </mask>
            <path fill="#97999C" d="M-14.22 17.716h31.78v-31.927h-31.78z" mask="url(#Z)"/>
        </g>
        <g transform="translate(.766 41.954)">
            <mask id="ab" fill="#fff">
                <use xlink:href="#aa"/>
            </mask>
            <path fill="#97999C" d="M-14.146 17.63h31.78v-31.926h-31.78z" mask="url(#ab)"/>
        </g>
        <g transform="translate(31.504 5.459)">
            <mask id="ad" fill="#fff">
                <use xlink:href="#ac"/>
            </mask>
            <path fill="#97999C" d="M-13.66 18.098h31.78V-13.83h-31.78z" mask="url(#ad)"/>
        </g>
        <g transform="translate(9.149 20.9)">
            <mask id="af" fill="#fff">
                <use xlink:href="#ae"/>
            </mask>
            <path fill="#97999C" d="M-13.962 20.124H19.66v-33.776h-33.62z" mask="url(#af)"/>
        </g>
        <g transform="translate(17.532 19.495)">
            <mask id="ah" fill="#fff">
                <use xlink:href="#ag"/>
            </mask>
            <path fill="#97999C" d="M-14.82 21.841h36.078v-36.245H-14.82z" mask="url(#ah)"/>
        </g>
        <g transform="translate(9.149 43.358)">
            <mask id="aj" fill="#fff">
                <use xlink:href="#ai"/>
            </mask>
            <path fill="#97999C" d="M-13.68 19.229h33.622v-33.777H-13.68z" mask="url(#aj)"/>
        </g>
        <g transform="translate(35.695 18.092)">
            <mask id="al" fill="#fff">
                <use xlink:href="#ak"/>
            </mask>
            <path fill="#97999C" d="M-14.244 20.167h33.621V-13.61h-33.621z" mask="url(#al)"/>
        </g>
        <g transform="translate(45.475 12.477)">
            <mask id="an" fill="#fff">
                <use xlink:href="#am"/>
            </mask>
            <path fill="#97999C" d="M-14.631 18.867H18.99V-14.91H-14.63z" mask="url(#an)"/>
        </g>
        <g transform="translate(14.738 48.972)">
            <mask id="ap" fill="#fff">
                <use xlink:href="#ao"/>
            </mask>
            <path fill="#97999C" d="M-13.5 19.077h33.62v-33.776H-13.5z" mask="url(#ap)"/>
        </g>
        <g transform="translate(16.135 11.073)">
            <mask id="ar" fill="#fff">
                <use xlink:href="#aq"/>
            </mask>
            <path fill="#97999C" d="M-14.419 19.807h33.622v-33.776H-14.42z" mask="url(#ar)"/>
        </g>
        <g transform="translate(9.149 30.725)">
            <mask id="at" fill="#fff">
                <use xlink:href="#as"/>
            </mask>
            <path fill="#97999C" d="M-14.61 23.596h37.306v-37.478H-14.61z" mask="url(#at)"/>
        </g>
        <g transform="translate(23.12 21.9)">
            <mask id="av" fill="#fff">
                <use xlink:href="#au"/>
            </mask>
            <path fill="#BD8849" d="M-13.638 93.527h116.381V-13.957h-116.38z" mask="url(#av)"/>
        </g>
        <g stroke="#231F20" stroke-width="2.8">
            <path d="M101.572 87.634l10.06-37.478c.838-2.948-.42-6.316-2.794-7.299L58.819 22.223c-.978-.421-2.096-.28-3.074.28L25.985 40.05c-1.955 1.123-2.933 3.93-2.374 6.457l8.662 44.355 24.45 10.528 44.85-13.756zM55.746 22.504l.978 78.886"/>
        </g>
        <g transform="translate(73.418 67.22)">
            <mask id="ax" fill="#fff">
                <use xlink:href="#aw"/>
            </mask>
            <path fill="#080A09" d="M-12.614 29.495h49.75v-43.407h-49.75z" mask="url(#ax)"/>
        </g>
        <g transform="translate(67.83 51.78)">
            <mask id="az" fill="#fff">
                <use xlink:href="#ay"/>
            </mask>
            <path fill="#080A09" d="M-13.09 19.879h41.587v-33.436H-13.09z" mask="url(#az)"/>
        </g>
        <g transform="translate(92.979 53.183)">
            <mask id="aB" fill="#fff">
                <use xlink:href="#aA"/>
            </mask>
            <path fill="#080A09" d="M-13.937 19.29h36.593v-32.856h-36.593z" mask="url(#aB)"/>
        </g>
        <g transform="translate(80.404 77.046)">
            <mask id="aD" fill="#fff">
                <use xlink:href="#aC"/>
            </mask>
            <path fill="#F06C6A" d="M-13.062 18.646h37.025v-32.034h-37.025z" mask="url(#aD)"/>
        </g>
        <g transform="translate(31.504 27.917)">
            <mask id="aF" fill="#fff">
                <use xlink:href="#aE"/>
            </mask>
            <path fill="#020303" d="M-13.342 83.158h42.474v-96.152h-42.474z" mask="url(#aF)"/>
        </g>
        <g transform="translate(73.418 65.817)">
            <mask id="aH" fill="#fff">
                <use xlink:href="#aG"/>
            </mask>
            <path fill="#080A09" d="M-13.812 20.975h31.488v-34.25h-31.488z" mask="url(#aH)"/>
        </g>
        <g transform="translate(92.979 64.413)">
            <mask id="aJ" fill="#fff">
                <use xlink:href="#aI"/>
            </mask>
            <path fill="#080A09" d="M-13.202 20.835h32.229v-33.688h-32.229z" mask="url(#aJ)"/>
        </g>
        <g transform="translate(62.241 82.66)">
            <mask id="aL" fill="#fff">
                <use xlink:href="#aK"/>
            </mask>
            <path fill="#40B992" d="M-13.62 25.888h38.98v-39.864h-38.98z" mask="url(#aL)"/>
        </g>
        <g transform="translate(11.943 33.532)">
            <mask id="aN" fill="#fff">
                <use xlink:href="#aM"/>
            </mask>
            <path fill="#40B992" d="M-12.764 39.345h45.412v-52.252h-45.412z" mask="url(#aN)"/>
        </g>
        <g stroke="#040505">
            <path stroke-width=".5" d="M30.457 42.155l-3.493-6.597c-.42-.842-1.537-1.123-2.375-.702l-6.287 3.51c-.42.28-.699.56-.839.982l-4.191 13.756c-.42 1.263.28 2.527 1.537 2.948l8.522 2.667c1.258.42 2.515-.281 2.934-1.544l4.192-13.756c.28-.281.14-.843 0-1.264zm-6.008-2.667c-2.096-.702-1.118-3.79.978-3.228 1.956.702.978 3.93-.978 3.228z"/>
            <path stroke-width="1.4" d="M25.986 38.926c-1.397-.561-2.235-1.965-2.235-3.509a3.765 3.765 0 0 1 3.772-3.79 3.765 3.765 0 0 1 3.773 3.79v.421M18.441 42.155l9.5 3.088M17.603 44.682l9.501 3.088"/>
        </g>
        <g stroke-width="1.4">
            <path stroke="#221E1F" d="M91.095 117.263c5.403 0 9.782-4.4 9.782-9.828 0-5.426-4.38-9.825-9.782-9.825-5.401 0-9.781 4.399-9.781 9.825 0 5.428 4.38 9.828 9.781 9.828z"/>
            <path stroke="#40B992" d="M85.93 106.964l4.54 3.773 5.868-6.681"/>
        </g>
        <g transform="translate(111.064 75.138)">
            <mask id="aP" fill="#fff">
                <use xlink:href="#aO"/>
            </mask>
            <path fill="#40B992" d="M-6.871 27.007h33.534V-6.684H-6.87z" mask="url(#aP)"/>
        </g>
        <path stroke="#FEFEFE" stroke-width="1.4" d="M115.796 84.827l4.54 3.773 5.868-6.682"/>
    </g>
</svg>
