<svg xmlns="http://www.w3.org/2000/svg" width="11" height="13" viewBox="0 0 11 13">
    <g fill="#9D9999" fill-rule="nonzero">
        <path d="M10.842 2.81a.54.54 0 0 0-.757 0l-.775.764a5.374 5.374 0 0 0-3.14-1.425V1.061h1.074a.534.534 0 0 0 .536-.53C7.78.238 7.54 0 7.244 0h-3.22a.534.534 0 0 0-.536.53c0 .294.24.531.536.531h1.074V2.15a5.374 5.374 0 0 0-3.14 1.425l-.775-.764a.541.541 0 0 0-.728.027.526.526 0 0 0-.028.72l.826.82A5.264 5.264 0 0 0 2.06 11.4a5.411 5.411 0 0 0 7.146 0 5.264 5.264 0 0 0 .808-7.021l.827-.82a.526.526 0 0 0 0-.748zm-5.208 8.863c-2.37 0-4.293-1.9-4.293-4.244 0-2.345 1.922-4.245 4.293-4.245 2.37 0 4.293 1.9 4.293 4.245A4.221 4.221 0 0 1 8.67 10.43a4.317 4.317 0 0 1-3.036 1.243z"/>
        <path d="M7.78 6.898H6.17V4.776c0-.294-.24-.531-.536-.531a.534.534 0 0 0-.536.53V7.43c0 .293.24.53.536.53H7.78a.534.534 0 0 0 .537-.53c0-.293-.24-.531-.537-.531z"/>
    </g>
</svg>
