<svg xmlns="http://www.w3.org/2000/svg" xmlns:xlink="http://www.w3.org/1999/xlink" width="150" height="136" viewBox="0 0 150 136">
    <defs>
        <path id="a" d="M.627 39.172c4.246-.472 6.606-2.833 7.078-7.084.471 4.25 2.83 6.612 7.077 7.084-4.246.473-6.606 2.834-7.077 7.084-.472-4.25-2.832-6.611-7.078-7.084z"/>
        <path id="b" d="M15.955 90.674c5.945-.661 9.248-3.967 9.909-9.918.66 5.95 3.963 9.256 9.909 9.918-5.946.66-9.248 3.967-9.91 9.917-.66-5.95-3.963-9.256-9.908-9.917z"/>
        <path id="c" d="M.384 11.334C7.18 10.58 10.954 6.8 11.71 0c.754 6.8 4.53 10.578 11.324 11.334-6.795.756-10.57 4.534-11.324 11.334-.756-6.8-4.53-10.578-11.325-11.334z"/>
    </defs>
    <g fill="none" fill-rule="evenodd" transform="translate(0 -1)">
        <path fill="#E3E3E3" d="M133.843 127.875c7.868 2.844-11.579 6.704-14.309 6.982-29.466 2.996-61.35 1.601-90.542-2.217-1.198-.156-2.435-.33-3.425-.817-7.217-3.546 15.965-5.951 18.118-6.137 8.001-.69 16.13-1.14 24.198-1.215 11.436-.107 56.205-.123 65.96 3.404"/>
        <path fill="#F9F9F9" fill-rule="nonzero" stroke="#101820" stroke-width="2.5" d="M26.056 26.69c19.842-19.825 39.37-11.094 55.14 2.978 15.665-14.072 35.194-22.906 55.14-2.979 15.56 15.51 15.665 40.471 0 55.982-26.212 23.625-52.52 45.446-55.515 45.312-2.64-.118-28.344-21.687-54.765-45.312-15.665-15.408-15.56-40.368 0-55.982z"/>
        <path fill="#030303" fill-rule="nonzero" d="M72.124 78.872c3.907-1.013 11.344-2.66 18.781 0 1.008.506 2.017-1.013 1.008-1.646-3.907-4.305-11.848-10.635-21.176 0-.63 1.012.378 2.152 1.387 1.646z"/>
        <path fill="#010101" fill-rule="nonzero" d="M68.468 57.349c-1.765 0-2.899-1.14-3.655-2.026-.505-.76-.757-1.646-.252-2.406.252-.76 1.008-.76 1.512-.38 0 0 2.395 2.786 4.916 0 .504-.38 1.009-.38 1.513.38.252.76.252 1.646-.252 2.406-1.387 1.266-2.773 2.026-3.782 2.026zM93.3 56.969c-2.143 0-3.53-1.14-4.412-2.026-.63-.38-.63-1.646-.252-2.405.252-.76 1.135-.76 1.765-.38 0 0 3.025 2.785 5.924 0 .63-.38 1.135-.38 1.765.38.252.76.252 1.645-.252 2.405-1.513 1.266-3.025 2.026-4.538 2.026z"/>
        <use fill="#F26C6B" fill-rule="nonzero" xlink:href="#a"/>
        <g fill-rule="nonzero" transform="translate(112.07 .92)">
            <use fill="#40BB94" xlink:href="#b"/>
            <use fill="#D3D2D1" xlink:href="#c"/>
        </g>
    </g>
</svg>
