<svg xmlns="http://www.w3.org/2000/svg" width="30" height="27" viewBox="0 0 30 27">
    <g fill="none" fill-rule="nonzero" opacity=".38" transform="translate(.6 .5)">
        <path fill="#C97523" d="M7.541 18.09v6.062H4.964v-6.063"/>
        <path fill="#A85613" d="M6.113 18.09v6.062h-1.15v-6.063"/>
        <ellipse cx="6.252" cy="9.721" fill="#8CC928" rx="6.252" ry="9.699"/>
        <path fill="#82B20B" d="M6.252 19.42C2.8 19.42 0 15.079 0 9.722s2.799-9.7 6.252-9.7c-1.528 0-2.767 4.343-2.767 9.7 0 5.357 1.239 9.7 2.767 9.7z"/>
        <path fill="#E9EAEF" d="M26.94 13.265v12.35H10.52v-12.35l8.256-7.902z"/>
        <path fill="#9EB1B7" d="M22.922 8.905V6.624h4.105v6.138"/>
        <path fill="#879BA0" d="M22.922 8.905V6.624h.986v6.138"/>
        <path fill="#85C10D" d="M.843 23.027h9.542c.466 0 .843.372.843.831v1.757H0v-1.757c0-.459.377-.831.843-.831z"/>
        <path fill="#D2D4D8" d="M26.94 13.75v2.308l-8.21-7.734-8.21 7.734V13.75l7.558-7.103.652-.597.651.597z"/>
        <path fill="#EA4756" d="M18.73 7.04l-9.347 8.805-1.307-1.083 10.002-9.4.652-.597.652.598 10.002 9.4-1.307 1.082z"/>
        <path fill="#C97523" d="M12.529 16.362h5.415v9.252h-5.415z"/>
        <path fill="#8E480E" d="M18.334 25.615h-.78v-8.869H12.92v8.869h-.78v-9.253c0-.212.175-.384.39-.384h5.415c.215 0 .39.172.39.384v9.253z"/>
        <path fill="#A0D9F2" d="M19.516 16.362h6.166v5.343h-6.166z"/>
        <path fill="#C97523" d="M19.516 16.362h6.166v1.624h-6.166z"/>
        <g fill="#8E480E">
            <path d="M25.682 22.09h-6.166a.387.387 0 0 1-.39-.385v-5.343c0-.212.175-.384.39-.384h6.166c.215 0 .39.172.39.384v5.343a.387.387 0 0 1-.39.385zm-5.776-.77h5.386v-4.573h-5.386v4.574zM16.727 21.343h-.786a.387.387 0 0 1-.39-.384c0-.213.175-.385.39-.385h.786c.215 0 .39.172.39.385a.387.387 0 0 1-.39.384z"/>
        </g>
        <ellipse cx="18.73" cy="12.233" fill="#413740" rx="1.506" ry="1.486"/>
        <path fill="#8E480E" d="M19.516 17.601h6.166v1h-6.166z"/>
        <path fill="#EA4756" d="M18.73 14.104c-1.045 0-1.896-.839-1.896-1.87 0-1.032.85-1.871 1.896-1.871 1.045 0 1.896.839 1.896 1.87 0 1.032-.85 1.871-1.896 1.871zm0-2.973a1.11 1.11 0 0 0-1.117 1.102 1.11 1.11 0 0 0 1.117 1.103 1.11 1.11 0 0 0 1.117-1.103 1.11 1.11 0 0 0-1.117-1.102z"/>
        <g fill="#85C10D">
            <path d="M2.697 23.766a.447.447 0 0 1-.45-.443V22.2c0-.245.202-.443.45-.443s.45.198.45.443v1.123a.447.447 0 0 1-.45.443zM1.253 23.766a.447.447 0 0 1-.45-.443V22.2c0-.245.202-.443.45-.443s.45.198.45.443v1.123a.447.447 0 0 1-.45.443zM9.03 23.766a.447.447 0 0 1-.449-.443V22.2c0-.245.201-.443.45-.443.248 0 .45.198.45.443v1.123a.447.447 0 0 1-.45.443z"/>
        </g>
    </g>
</svg>
