<svg xmlns="http://www.w3.org/2000/svg" width="87" height="50" viewBox="0 0 87 50">
    <g fill="none" fill-rule="evenodd" transform="translate(0 1)">
        <path fill="#F26C6B" fill-rule="nonzero" d="M70.223 12.916l9.988 4.086L69.05 44.21l-9.988-4.087z"/>
        <path fill="#40BB94" fill-rule="nonzero" d="M27.327 40.197l-9.988 4.086L4.245 12.361l9.988-4.087z"/>
        <g fill-rule="nonzero">
            <path fill="#E5E5E5" d="M30.548 38.481c-1.897.131-3.728.458-5.495 1.046-1.439-4.443-2.943-8.82-4.382-13.263a33.368 33.368 0 0 1 9.158-1.699c.196 4.639.457 9.278.72 13.916z"/>
            <path fill="#000" d="M31.137 39.004h-.589c-1.831.065-3.598.457-5.364.98l-.523.196-4.775-14.308.523-.196a37.647 37.647 0 0 1 9.289-1.764h.588l.85 15.092zm-5.757-.196a21.96 21.96 0 0 1 4.514-.85l-.654-12.805a36.047 36.047 0 0 0-7.915 1.503l4.055 12.152z"/>
        </g>
        <g fill-rule="nonzero">
            <path fill="#E5E5E5" d="M23.091 40.245c-2.682 1.176-5.102 2.94-7.13 5.227-4.056-3.593-8.046-7.187-12.102-10.715a36.398 36.398 0 0 1 12.625-9.212c2.224 4.9 4.448 9.8 6.607 14.7z"/>
            <path fill="#000" d="M16.026 46.256L3.074 34.757l.393-.392c3.598-3.985 7.915-7.186 12.821-9.342l.523-.262 7.065 15.746-.523.261c-2.682 1.176-4.972 2.875-6.934 5.096l-.393.392zM4.71 34.692l11.25 9.996a20.892 20.892 0 0 1 6.346-4.639h.065l-6.148-13.72C11.84 28.29 7.98 31.164 4.71 34.692z"/>
        </g>
        <g fill-rule="nonzero">
            <path fill="#E5E5E5" d="M26.689 39.07a21.9 21.9 0 0 0-6.476 2.809c-1.832-2.744-3.598-5.554-5.43-8.298 2.879-1.894 6.15-3.266 9.485-4.116.85 3.136 1.636 6.403 2.42 9.604z"/>
            <path fill="#000" d="M27.343 39.461l-.523.131c-2.225.523-4.318 1.437-6.28 2.679l-.458.326-6.084-9.277.458-.327c2.944-1.96 6.215-3.332 9.682-4.181l.523-.13 2.682 10.78zm-5.037.523a19.104 19.104 0 0 1 3.663-1.372l-2.093-8.559c-2.944.784-5.756 1.96-8.308 3.594l4.776 7.382c.654-.326 1.308-.718 1.962-1.045z"/>
        </g>
        <path stroke="#020202" stroke-linecap="round" stroke-width=".65" d="M5.495 36.195a34.753 34.753 0 0 1 7.064-6.076M6.868 37.37a31.412 31.412 0 0 1 6.738-5.749M8.177 38.547c1.897-2.091 3.99-3.92 6.345-5.423M9.55 39.788c1.767-1.96 3.794-3.724 6.018-5.161M19.886 36.325a24.247 24.247 0 0 1 5.625-2.09M20.605 37.828c1.701-.85 3.467-1.503 5.299-1.96M21.325 39.265c1.57-.784 3.205-1.437 4.906-1.829"/>
        <g fill-rule="nonzero">
            <path fill="#E5E5E5" d="M26.754 26.656c.589 3.985 1.178 8.036 1.832 12.021"/>
            <path fill="#000" d="M28.782 39.2c-.065 0-.13.065-.13.065-.328.066-.59-.196-.655-.457l-1.832-12.087c-.065-.326.197-.588.458-.653.327-.065.589.196.654.457l1.832 12.022c0 .326-.13.522-.327.653z"/>
        </g>
        <g fill-rule="nonzero">
            <path fill="#E5E5E5" d="M26.492 24.892c-1.046.13-2.093.392-3.14.588l-1.373-5.488a70.043 70.043 0 0 1 3.598-.719c.327 1.83.588 3.724.915 5.619z"/>
            <path fill="#000" d="M27.081 25.35l-.589.065a25.47 25.47 0 0 0-3.074.588l-.458.13-1.635-6.598.523-.131a60.566 60.566 0 0 1 3.663-.719l.589-.065.981 6.73zm-3.336-.523c.654-.131 1.374-.262 2.028-.392l-.654-4.508c-.85.13-1.636.326-2.42.457l1.046 4.443z"/>
        </g>
        <g fill-rule="nonzero">
            <path fill="#E5E5E5" d="M24.072 19.535c-.13 0-.261.065-.392.065-.524-2.483-.982-5.03-1.505-7.513.131 0 .327-.066.458-.066.523 2.483.981 4.966 1.44 7.514z"/>
            <path fill="#000" d="M24.726 19.992l-.523.065c-.13 0-.262.066-.392.066l-.59.13-1.7-8.624.589-.13c.13 0 .327-.066.458-.066l.588-.13 1.57 8.689z"/>
        </g>
        <g fill-rule="nonzero">
            <path fill="#E5E5E5" d="M14.783 26.33c-2.616 1.306-5.036 2.94-7.326 4.9-2.093-2.418-4.12-4.835-6.214-7.253C4.056 21.56 7.13 19.47 10.4 17.836c1.439 2.875 2.943 5.684 4.382 8.493z"/>
            <path fill="#000" d="M7.392 32.079L.458 23.977l.458-.392a47 47 0 0 1 9.289-6.206l.523-.262 4.84 9.474-.523.261a37.486 37.486 0 0 0-7.195 4.835l-.458.392zm-5.364-7.971l5.495 6.403c2.027-1.634 4.186-3.136 6.475-4.312l-3.793-7.514c-2.944 1.438-5.626 3.267-8.177 5.423z"/>
        </g>
        <g>
            <g fill-rule="nonzero">
                <path fill="#E5E5E5" d="M56.452 39.723c1.897.13 3.728.457 5.495 1.045 1.439-4.443 2.943-8.82 4.382-13.263a33.368 33.368 0 0 0-9.158-1.698c-.196 4.638-.457 9.277-.72 13.916z"/>
                <path fill="#000" d="M56.714 25.153h.588c3.14.196 6.28.784 9.289 1.764l.523.196-4.775 14.308-.523-.196a18.533 18.533 0 0 0-5.364-.98h-.589l.85-15.092zm8.961 2.744a36.047 36.047 0 0 0-7.915-1.502L57.106 39.2c1.57.13 3.074.392 4.514.85l4.055-12.153z"/>
            </g>
            <g fill-rule="nonzero">
                <path fill="#E5E5E5" d="M63.909 41.487c2.682 1.176 5.102 2.94 7.13 5.226C75.095 43.12 79.085 39.527 83.141 36a36.398 36.398 0 0 0-12.625-9.212c-2.224 4.9-4.383 9.8-6.607 14.7z"/>
                <path fill="#000" d="M70.647 47.105a21.438 21.438 0 0 0-6.934-5.096l-.524-.261 7.065-15.745.523.261c4.906 2.221 9.224 5.357 12.821 9.343l.393.392-12.886 11.498-.458-.392zm.13-19.6l-6.148 13.72h.065c2.42 1.176 4.514 2.744 6.345 4.639l11.251-9.93c-3.27-3.529-7.13-6.403-11.513-8.429z"/>
            </g>
            <path stroke="#020202" stroke-linecap="round" stroke-width=".65" d="M81.505 37.436a34.753 34.753 0 0 0-7.064-6.076M80.393 38.416c-2.093-2.352-4.186-4.116-6.737-5.815M79.347 39.396c-2.094-2.352-3.99-3.92-6.542-5.619"/>
            <g fill-rule="nonzero">
                <path fill="#E5E5E5" d="M67.18 37.567a24.247 24.247 0 0 0-5.626-2.091"/>
                <path fill="#000" d="M61.292 35.999c.066 0 .066 0 .131.065a26.319 26.319 0 0 1 5.495 2.025c.262.131.589 0 .785-.261.13-.261 0-.588-.262-.784a30.574 30.574 0 0 0-5.756-2.156.544.544 0 0 0-.654.392c-.131.327 0 .588.261.719z"/>
            </g>
            <g fill-rule="nonzero">
                <path fill="#E5E5E5" d="M66.395 39.07a25.834 25.834 0 0 0-5.299-1.96"/>
                <path fill="#000" d="M60.9 37.567c.065 0 .065 0 .13.065a28.775 28.775 0 0 1 5.168 1.895c.262.13.59 0 .785-.262.131-.261 0-.588-.261-.784-1.7-.849-3.533-1.568-5.43-2.025a.544.544 0 0 0-.654.392c-.13.392 0 .653.262.719z"/>
            </g>
            <g fill-rule="nonzero">
                <path fill="#E5E5E5" d="M65.675 40.507c-1.57-.784-3.205-1.438-4.906-1.83"/>
                <path fill="#000" d="M60.508 39.2c.065 0 .065 0 .13.065 1.636.392 3.271.98 4.776 1.764.261.131.588 0 .72-.261.13-.261 0-.588-.263-.784a25.82 25.82 0 0 0-5.036-1.895.544.544 0 0 0-.655.392c-.065.327.066.588.328.719z"/>
            </g>
            <g fill-rule="nonzero">
                <path fill="#E5E5E5" d="M60.311 27.897c-.588 3.986-1.177 8.036-1.831 12.022"/>
                <path fill="#000" d="M58.218 40.441c.065 0 .13.066.13.066.328.065.59-.196.655-.458l1.832-12.021c.065-.327-.197-.588-.458-.653-.327-.066-.589.196-.654.457L57.89 39.853c0 .262.13.458.327.588z"/>
            </g>
            <g fill-rule="nonzero">
                <path fill="#E5E5E5" d="M60.573 26.133c1.047.131 2.093.392 3.14.588l1.373-5.488a70.043 70.043 0 0 0-3.597-.718c-.393 1.894-.654 3.724-.916 5.618z"/>
                <path fill="#000" d="M60.9 19.861l.589.066c1.243.196 2.485.457 3.663.718l.523.131-1.57 6.664-.523-.13a23.248 23.248 0 0 0-3.074-.589l-.59-.065.982-6.795zm3.402 1.764c-.785-.196-1.636-.326-2.42-.457l-.655 4.508c.654.13 1.374.261 2.028.392l1.047-4.443z"/>
            </g>
            <g fill-rule="nonzero">
                <path fill="#E5E5E5" d="M72.282 27.636c2.616 1.307 5.037 2.94 7.326 4.9 2.094-2.417 4.121-4.835 6.215-7.252-2.813-2.417-5.888-4.508-9.158-6.141a345.664 345.664 0 0 0-4.383 8.493z"/>
                <path fill="#000" d="M79.216 32.928a37.486 37.486 0 0 0-7.196-4.835l-.523-.261 4.84-9.473.524.261a47 47 0 0 1 9.289 6.207l.458.392-7 8.101-.392-.392zM76.86 19.861l-3.794 7.514a42.9 42.9 0 0 1 6.476 4.312l5.495-6.403a57.211 57.211 0 0 0-8.177-5.423z"/>
            </g>
        </g>
        <path fill="#E5E5E5" fill-rule="nonzero" d="M61.423 44.1l-37.35.392c-4.71.065-9.486.13-13.868 1.764 2.943 2.09 7.195-.196 10.662.915.916.326 1.766.849 2.682 1.11 1.112.392 2.355.392 3.598.392l10.924.196c6.672.131 13.344.196 20.016-.065 5.364-.196 10.728-.588 16.092-1.241 1.047-.131 2.29-.392 2.486-1.438-5.364-.849-9.812-2.09-15.242-2.025z"/>
        <path fill="#E5E5E5" fill-rule="nonzero" stroke="#000" stroke-linecap="round" stroke-width="1.95" d="M10.205 46.256s32.052-20.645 66.983 0"/>
        <ellipse cx="43.696" cy="41.225" fill="#40BB94" fill-rule="nonzero" rx="8.177" ry="1.829"/>
        <path fill="#F26C6B" fill-rule="nonzero" stroke="#000" stroke-width="1.95" d="M43.696.523c-6.803 0-12.363 5.553-12.363 12.348 0 0-1.047 13.654 12.429 27.178 0 0 12.56-12.152 12.297-27.178C55.93 6.076 50.5.523 43.696.523zm.066 17.705c-7.72 0-7.72-11.956 0-11.956 7.718 0 7.718 11.956 0 11.956z"/>
    </g>
</svg>
