<svg xmlns="http://www.w3.org/2000/svg" xmlns:xlink="http://www.w3.org/1999/xlink" width="216" height="163" viewBox="0 0 216 163">
    <defs>
        <path id="a" d="M37.156 19.327C37.268 9.292 29.223 1.063 19.185.952 9.15.839.924 8.884.811 18.919.697 28.956 8.742 37.183 18.779 37.298c10.035.111 18.264-7.934 18.377-17.971"/>
        <path id="c" d="M37.156 19.327C37.268 9.292 29.223 1.063 19.185.952 9.15.839.924 8.884.811 18.919.697 28.956 8.742 37.183 18.779 37.298c10.035.111 18.264-7.934 18.377-17.971"/>
        <path id="e" d="M37.156 19.327C37.268 9.292 29.223 1.063 19.185.952 9.15.839.924 8.884.811 18.919.697 28.956 8.742 37.183 18.779 37.298c10.035.111 18.264-7.934 18.377-17.971"/>
        <path id="g" d="M37.156 19.327C37.268 9.292 29.223 1.063 19.185.952 9.15.839.924 8.884.811 18.919.697 28.956 8.742 37.183 18.779 37.298c10.035.111 18.264-7.934 18.377-17.971"/>
        <path id="i" d="M22.49 11.698C22.556 5.624 17.687.643 11.611.576 5.538.508.559 5.377.491 11.451c-.07 6.075 4.8 11.055 10.875 11.124 6.074.067 11.055-4.802 11.123-10.877"/>
        <path id="k" d="M22.49 11.698C22.556 5.624 17.687.643 11.611.576 5.538.508.559 5.377.491 11.451c-.07 6.075 4.8 11.055 10.875 11.124 6.074.067 11.055-4.802 11.123-10.877"/>
    </defs>
    <g fill="none" fill-rule="evenodd">
        <path fill="#F0FAFC" d="M150.055 21.165c32.86 22.473 71.887 37.933 52.183 76.072-19.704 38.138-19.397 58.695-85.7 51.067-66.305-7.627-68.787 2.901-93.726-12.03-24.939-14.93-25.94-53.205-19.36-73.677 6.58-20.47 15.099-44.87 48.516-49.449 33.418-4.578 65.227-14.457 98.087 8.017z"/>
        <g transform="translate(69)">
            <mask id="b" fill="#fff">
                <use xlink:href="#a"/>
            </mask>
            <path fill="#FFF" d="M27.994 51.356L-13.025 9.409l-1.762 1.727L26.23 53.081l1.764-1.725M32.865 46.593L-8.154 4.647-9.916 6.37l41.018 41.947 1.763-1.724M37.736 41.829L-3.283-.118l-1.762 1.726 41.018 41.948 1.763-1.727M42.607 37.067L1.59-4.88-.174-3.157 40.844 38.79l1.763-1.723M47.479 32.304L6.461-9.644 4.697-7.921l41.018 41.949 1.764-1.724M52.35 27.54L11.332-14.407 9.57-12.683l41.016 41.948 1.764-1.725" mask="url(#b)"/>
        </g>
        <g transform="translate(10 38)">
            <mask id="d" fill="#fff">
                <use xlink:href="#c"/>
            </mask>
            <path fill="#FFF" d="M27.994 51.356L-13.025 9.409l-1.762 1.727L26.23 53.081l1.764-1.725M32.865 46.593L-8.154 4.647-9.916 6.37l41.018 41.947 1.763-1.724M37.736 41.829L-3.283-.118l-1.762 1.726 41.018 41.948 1.763-1.727M42.607 37.067L1.59-4.88-.174-3.157 40.844 38.79l1.763-1.723M47.479 32.304L6.461-9.644 4.697-7.921l41.018 41.949 1.764-1.724M52.35 27.54L11.332-14.407 9.57-12.683l41.016 41.948 1.764-1.725" mask="url(#d)"/>
        </g>
        <g transform="translate(178 40)">
            <mask id="f" fill="#fff">
                <use xlink:href="#e"/>
            </mask>
            <path fill="#FFF" d="M27.994 51.356L-13.025 9.409l-1.762 1.727L26.23 53.081l1.764-1.725M32.865 46.593L-8.154 4.647-9.916 6.37l41.018 41.947 1.763-1.724M37.736 41.829L-3.283-.118l-1.762 1.726 41.018 41.948 1.763-1.727M42.607 37.067L1.59-4.88-.174-3.157 40.844 38.79l1.763-1.723M47.479 32.304L6.461-9.644 4.697-7.921l41.018 41.949 1.764-1.724M52.35 27.54L11.332-14.407 9.57-12.683l41.016 41.948 1.764-1.725" mask="url(#f)"/>
        </g>
        <g transform="translate(135 125)">
            <mask id="h" fill="#fff">
                <use xlink:href="#g"/>
            </mask>
            <path fill="#FFF" d="M27.994 51.356L-13.025 9.409l-1.762 1.727L26.23 53.081l1.764-1.725M32.865 46.593L-8.154 4.647-9.916 6.37l41.018 41.947 1.763-1.724M37.736 41.829L-3.283-.118l-1.762 1.726 41.018 41.948 1.763-1.727M42.607 37.067L1.59-4.88-.174-3.157 40.844 38.79l1.763-1.723M47.479 32.304L6.461-9.644 4.697-7.921l41.018 41.949 1.764-1.724M52.35 27.54L11.332-14.407 9.57-12.683l41.016 41.948 1.764-1.725" mask="url(#h)"/>
        </g>
        <g transform="translate(8 105)">
            <mask id="j" fill="#fff">
                <use xlink:href="#i"/>
            </mask>
            <path fill="#FFF" d="M16.944 31.084L-7.884 5.694-8.95 6.74l24.826 25.388 1.068-1.044M19.892 28.201L-4.935 2.813l-1.067 1.043 24.827 25.389 1.067-1.044M22.84 25.318L-1.987-.072-3.054.974l24.827 25.39 1.067-1.045M25.788 22.435L.962-2.954-.105-1.91 24.72 23.48l1.067-1.044M28.737 19.552L3.911-5.838 2.843-4.793l24.827 25.39 1.067-1.044M31.686 16.669L6.859-8.72 5.792-7.677l24.826 25.39 1.068-1.044" mask="url(#j)"/>
        </g>
        <g transform="translate(84 103)">
            <mask id="l" fill="#fff">
                <use xlink:href="#k"/>
            </mask>
            <path fill="#FFF" d="M16.944 31.084L-7.884 5.694-8.95 6.74l24.826 25.388 1.068-1.044M19.892 28.201L-4.935 2.813l-1.067 1.043 24.827 25.389 1.067-1.044M22.84 25.318L-1.987-.072-3.054.974l24.827 25.39 1.067-1.045M25.788 22.435L.962-2.954-.105-1.91 24.72 23.48l1.067-1.044M28.737 19.552L3.911-5.838 2.843-4.793l24.827 25.39 1.067-1.044M31.686 16.669L6.859-8.72 5.792-7.677l24.826 25.39 1.068-1.044" mask="url(#l)"/>
        </g>
        <path fill="#FFF" d="M91.575 45.885c3.762-4.486 9.82-5.264 14.595-1.876 4.769 3.386 5.055 10.113 1.874 14.595-1.346 1.898 1.512 4.117 2.863 2.211 4.552-6.413 3.499-14.614-2.526-19.668-6.02-5.048-14.922-3.134-19.668 2.527-1.502 1.789 1.367 3.993 2.862 2.211"/>
        <path fill="#FFB49B" d="M52.504 120.721a2.76 2.76 0 0 0-2.236 1.124 2.757 2.757 0 0 0-.516 2.063 2.792 2.792 0 0 0 3.157 2.34 2.757 2.757 0 0 0 1.823-1.093 2.757 2.757 0 0 0 .516-2.063 2.791 2.791 0 0 0-2.744-2.37zM52.496 128c-2.21 0-4.12-1.65-4.446-3.84a4.472 4.472 0 0 1 .836-3.34 4.47 4.47 0 0 1 2.953-1.77c.22-.033.445-.05.666-.05 2.21 0 4.12 1.65 4.445 3.839a4.47 4.47 0 0 1-.835 3.34 4.473 4.473 0 0 1-3.62 1.821z"/>
        <path fill="#6775A7" d="M108.007 139.678a4.294 4.294 0 0 0-3.478 1.748 4.29 4.29 0 0 0-.803 3.21c.312 2.102 2.146 3.687 4.268 3.687.213 0 .428-.016.642-.048a4.288 4.288 0 0 0 2.836-1.7 4.286 4.286 0 0 0 .803-3.21c-.312-2.103-2.147-3.687-4.268-3.687zM107.993 151c-3.436 0-6.41-2.568-6.916-5.972a6.958 6.958 0 0 1 1.302-5.196 6.953 6.953 0 0 1 4.593-2.754 7.065 7.065 0 0 1 1.036-.078c3.436 0 6.41 2.568 6.915 5.972a6.953 6.953 0 0 1-1.3 5.196 6.958 6.958 0 0 1-4.594 2.756c-.343.05-.692.076-1.036.076z"/>
        <path fill="#FFB49B" d="M161.006 34.295a3.68 3.68 0 0 0-2.981 1.499 3.677 3.677 0 0 0-.689 2.75 3.723 3.723 0 0 0 3.659 3.161 3.714 3.714 0 0 0 2.981-1.498c.59-.795.834-1.772.688-2.75a3.722 3.722 0 0 0-3.658-3.162zM160.994 44c-2.945 0-5.494-2.2-5.928-5.119a5.964 5.964 0 0 1 1.116-4.454 5.96 5.96 0 0 1 3.937-2.36c.294-.044.593-.067.888-.067 2.945 0 5.494 2.2 5.927 5.119a5.96 5.96 0 0 1-1.114 4.454A5.964 5.964 0 0 1 160.994 44z"/>
        <path fill="#FFB49B" d="M152.246 102l-7.036 18.501L135 107.427 152.246 102" opacity=".3"/>
        <path fill="#6775A7" d="M184.811 105.514c-.359 0-.722.027-1.082.08a7.246 7.246 0 0 0-4.78 2.867 7.226 7.226 0 0 0-1.354 5.41c.525 3.543 3.62 6.215 7.195 6.215.36 0 .723-.025 1.082-.08a7.228 7.228 0 0 0 4.781-2.867 7.227 7.227 0 0 0 1.354-5.408c-.526-3.545-3.619-6.217-7.196-6.217zm-.023 19.086c-5.793 0-10.805-4.328-11.658-10.067a11.72 11.72 0 0 1 2.193-8.759 11.719 11.719 0 0 1 7.744-4.643 11.911 11.911 0 0 1 1.746-.131c5.793 0 10.807 4.328 11.66 10.067a11.722 11.722 0 0 1-2.193 8.759 11.73 11.73 0 0 1-7.746 4.645c-.578.086-1.166.129-1.746.129z" opacity=".4"/>
        <g transform="translate(41 54)">
            <rect width="90.5" height="59.5" x=".25" y=".25" fill="#FFF" stroke="#5969A0" stroke-width=".5" rx="8"/>
            <path fill="#BADFF6" d="M3 14h43.1a2.4 2.4 0 0 1 2.4 2.4v10.2a2.4 2.4 0 0 1-2.4 2.4H3V14z"/>
            <circle cx="66.5" cy="20.5" r="8.5" fill="#BADFF6"/>
            <circle cx="72.5" cy="20.5" r="8.5" fill="#BADFF6"/>
            <circle cx="64.5" cy="20.5" r="8.25" stroke="#5969A0" stroke-width=".5"/>
            <path stroke="#5969A0" stroke-width=".5" d="M71.75 28.746a8.25 8.25 0 0 0 0-16.492v16.492z"/>
            <path stroke="#5969A0" stroke-linecap="square" stroke-width=".5" d="M10.5 6.5h32.894M.5 11.5h38.89M.5 25.5h38.89M69.5 56.5h8M49.5 56.5h2M39.254 56.5H47.5"/>
            <path stroke="#5969A0" stroke-width=".5" d="M4.078 44.604L16.224 56.75H9.828A5.75 5.75 0 0 1 4.078 51v-6.396z"/>
            <path fill="#FFF" d="M3 48h2v2H3z"/>
        </g>
        <g transform="translate(76 40)">
            <rect width="90.5" height="59.5" x=".25" y=".25" fill="#FFF" stroke="#5969A0" stroke-width=".5" rx="8"/>
            <rect width="22" height="15" x="12" y="12" fill="#BADFF6" rx="2.4"/>
            <rect width="21.5" height="14.5" x="10.25" y="11.25" stroke="#5969A0" stroke-width=".5" rx="2.4"/>
            <circle cx="66.5" cy="20.5" r="8.5" fill="#BADFF6"/>
            <circle cx="72.5" cy="20.5" r="8.5" fill="#BADFF6"/>
            <circle cx="64.5" cy="20.5" r="8.25" stroke="#5969A0" stroke-width=".5"/>
            <path stroke="#5969A0" stroke-width=".5" d="M71.5 28.75a8.25 8.25 0 1 0 0-16.5 8.25 8.25 0 0 0 0 16.5z"/>
            <path stroke="#5969A0" stroke-linecap="square" stroke-width=".5" d="M10.5 6.5h32.894"/>
            <path fill="#BADFF6" d="M11 42h15v7H11zM31 42h15v7H31zM51 42h15v7H51zM71 42h15v7H71z"/>
            <path stroke="#5969A0" stroke-linecap="square" stroke-width=".5" d="M10.5 48.5h14M30.5 48.5h14M50.5 48.5h14M70.5 48.5h14"/>
        </g>
    </g>
</svg>
