<svg xmlns="http://www.w3.org/2000/svg" width="78" height="56" viewBox="0 0 78 56">
    <g fill="none" fill-rule="evenodd">
        <path fill="#E3E3E3" d="M62.63 50.845c3.119 1.705-4.59 4.017-5.672 4.183-11.682 1.795-24.321.96-35.893-1.328-.475-.094-.966-.198-1.358-.49-2.861-2.124 6.329-3.565 7.182-3.676 3.172-.413 6.394-.683 9.593-.728 4.533-.064 22.28-.073 26.148 2.04" opacity=".494"/>
        <path fill="#DFF2FE" d="M33.639 27.65h15.493c1.342 0 2.439 1.1 2.439 2.443a2.448 2.448 0 0 1-2.439 2.443H33.64a2.448 2.448 0 0 1-2.44-2.443 2.448 2.448 0 0 1 2.44-2.442M38.878 17.321c.756 0 1.368.468 1.368 1.046 0 .577-.612 1.045-1.368 1.045h5.968c-.756 0-1.368-.468-1.368-1.045 0-.578.612-1.046 1.368-1.046h-5.968"/>
        <path fill="#DFF2FE" d="M36.945 25.469c.789 0 1.428.488 1.428 1.09 0 .603-.64 1.092-1.428 1.092h6.23c-.79 0-1.429-.489-1.429-1.091 0-.603.64-1.091 1.428-1.091h-6.229"/>
        <path fill="#F26B6B" d="M72.407 29.174h.538V27.84h-.538zM72.407 31.877h.538v-1.334h-.538zM70.652 30.12h1.332v-.54h-1.332zM73.35 30.12h1.334v-.54H73.35z"/>
        <path fill="#41BC98" d="M75.527 46.757l-1.406.374.56-1.345-.79-1.224 1.45.117.918-1.13.337 1.417 1.357.525-1.241.76-.08 1.454-1.105-.948M1.883 44.52a1.107 1.107 0 0 0 0 2.213 1.107 1.107 0 0 0 0-2.213zm0 2.931a1.825 1.825 0 0 1 0-3.65 1.825 1.825 0 0 1 0 3.65z"/>
        <path fill="#F26B6B" d="M5.026 15.452h.538v-1.335h-.538zM5.026 18.155h.538V16.82h-.538zM3.27 16.397h1.333v-.539H3.271zM5.97 16.397h1.332v-.539H5.97zM10.488 50.158h.538v-1.335h-.538zM10.488 52.86h.538v-1.334h-.538zM8.733 51.103h1.333v-.539H8.733zM11.432 51.103h1.333v-.539h-1.333z"/>
        <path fill="#41BC98" d="M67.967 16.22l-1.406.374.56-1.346-.79-1.224 1.45.117.918-1.13.337 1.417 1.358.525-1.242.76-.08 1.455-1.105-.948"/>
        <path fill="#FFF" d="M16.258 48.26l45.883.14a.96.96 0 0 0 .962-.96V15.735a.96.96 0 0 0-.959-.96H17.446c-1.543.029-2.055 1.058-2.079 1.866v.052l-.039 29.601s.036.795.172 1.178c.135.383.32.773.32.773l.438.013"/>
        <path fill="#101820" stroke="#101820" stroke-width=".56" d="M16.261 48.08l45.88.14h.003c.208 0 .403-.08.55-.228a.776.776 0 0 0 .23-.553V15.736c0-.43-.35-.781-.78-.781H17.446c-1.364.026-1.876.891-1.9 1.692v.047l-.039 29.602s.037.764.162 1.117c.09.256.205.519.267.657l.325.01zm45.883.5h-.004l-45.882-.14-.005-.001-.44-.014a.18.18 0 0 1-.156-.102 9.642 9.642 0 0 1-.326-.79c-.143-.404-.18-1.196-.182-1.23l.039-29.662c.027-.927.633-2.014 2.254-2.045h44.702a1.14 1.14 0 0 1 1.139 1.14V47.44c0 .305-.12.592-.335.808a1.13 1.13 0 0 1-.804.332z"/>
        <g transform="rotate(-90 26.985 5.65)">
            <rect width="31.719" height="20.439" x=".25" y=".25" fill="#FFF" stroke="#101820" stroke-width=".5" rx="2.25"/>
            <path fill="#41BC98" d="M1.062 4.886h15.435c.373 0 .675.302.675.675v3.884a.675.675 0 0 1-.675.675H1.062V4.886z"/>
            <ellipse cx="23.545" cy="7.154" fill="#101820" rx="3.009" ry="2.966"/>
            <ellipse cx="25.669" cy="7.154" fill="#FF9C81" rx="3.009" ry="2.966"/>
            <path stroke="#101820" stroke-linecap="square" stroke-width=".5" d="M3.718 2.268h11.646M.177 4.013h13.77M.177 8.899h13.77M24.607 19.717h2.833"/>
            <path stroke="#5969A0" stroke-linecap="square" stroke-width=".5" d="M17.526 19.717h.708M13.898 19.717h2.92"/>
            <path stroke="#101820" stroke-width=".5" d="M1.605 15.953l3.743 3.689H3.043a1.438 1.438 0 0 1-1.438-1.438v-2.251z"/>
            <path fill="#FFF" d="M1.062 16.751h1v1h-1z"/>
        </g>
        <g transform="rotate(-60 39.613 -16.838)">
            <rect width="24.264" height="15.668" x=".25" y=".25" fill="#FFF" stroke="#101820" stroke-width=".5" rx="1.731"/>
            <rect width="5.987" height="4.042" x="3.266" y="3.234" fill="#41BC98" rx=".519"/>
            <path stroke="#101820" stroke-width=".5" d="M3.24 3.214a.27.27 0 0 0-.269.27v3.003c0 .149.12.27.27.27h4.948a.27.27 0 0 0 .27-.27V3.483a.27.27 0 0 0-.27-.269H3.24z"/>
            <ellipse cx="18.096" cy="5.524" fill="#101820" rx="2.313" ry="2.29"/>
            <ellipse cx="19.729" cy="5.524" fill="#FF9C81" rx="2.313" ry="2.29"/>
            <path stroke="#101820" stroke-linecap="square" stroke-width=".5" d="M2.857 1.752h8.952"/>
            <path fill="#41BC98" d="M2.993 11.318h4.082v1.886H2.993zM8.436 11.318h4.082v1.886H8.436zM13.879 11.318h4.081v1.886H13.88zM19.321 11.318h4.082v1.886h-4.082z"/>
            <path stroke="#101820" stroke-linecap="square" stroke-width=".5" d="M2.857 13.07h3.81M8.3 13.07h3.81M13.742 13.07h3.81M19.185 13.07h3.81"/>
        </g>
        <path fill="#FFF" d="M15.328 46.295l.039-29.601.04-.268s.258.592 1.213.54h43.25c.492 0 .892.4.892.894v31.646c0 .494-.4.894-.893.894H19.427a4.102 4.102 0 0 1-4.099-4.105"/>
        <path fill="#030303" fill-rule="nonzero" d="M40.715 36.058c-1.308.3-3.798.787-6.288 0-.338-.15-.675.3-.338.488 1.309 1.274 3.967 3.148 7.09 0 .211-.3-.126-.637-.464-.488z"/>
        <path fill="#010101" fill-rule="nonzero" d="M33.386 30.957c-.591 0-.97-.38-1.224-.676-.169-.254-.253-.55-.084-.803.084-.253.337-.253.506-.126 0 0 .802.929 1.646 0 .168-.127.337-.127.506.126.084.254.084.55-.084.803-.465.422-.929.676-1.266.676zM41.52 30.957c-.731 0-1.204-.38-1.504-.676-.215-.127-.215-.55-.086-.803.086-.253.386-.253.601-.126 0 0 1.031.929 2.02 0 .214-.127.386-.127.601.126.086.254.086.55-.086.803-.515.422-1.03.676-1.547.676z"/>
        <path fill="#101820" stroke="#101820" stroke-width=".56" d="M15.507 46.296a3.927 3.927 0 0 0 3.92 3.925h40.442c.394 0 .714-.32.714-.715V17.86a.715.715 0 0 0-.714-.714H16.624c-.526.027-.866-.124-1.078-.288l-.039 29.438zM59.87 50.58H19.427a4.286 4.286 0 0 1-4.278-4.284l.039-29.603c0-.009 0-.017.002-.026l.04-.268a.18.18 0 0 1 .341-.045c.009.018.232.476 1.039.433h43.26c.59 0 1.071.481 1.071 1.073v31.646c0 .592-.48 1.074-1.072 1.074z"/>
        <path fill="#101820" d="M58.953 28.582a.18.18 0 0 1-.179-.18V23.29a.18.18 0 1 1 .359 0v5.112c0 .1-.08.18-.18.18M43.673 48.738h-2.487a.18.18 0 0 1 0-.36h2.487a.18.18 0 0 1 0 .36M36.841 48.738H25.435a.18.18 0 0 1 0-.36h11.406a.18.18 0 0 1 0 .36M17.103 32.28a.18.18 0 0 1-.179-.179v-9.337a.18.18 0 1 1 .359 0v9.337c0 .1-.08.18-.18.18M16.997 39.691a.18.18 0 0 1-.179-.18v-3.4a.18.18 0 1 1 .359 0v3.4c0 .1-.08.18-.18.18M56.124 45.87a.18.18 0 0 1-.145-.285l.29-.402h-1.31a.18.18 0 0 1-.152-.276l.523-.82-2.043.375a.179.179 0 0 1-.155-.307l1.793-1.706a.18.18 0 1 1 .247.26L53.815 44l1.855-.34a.18.18 0 0 1 .184.273l-.568.892h1.333a.18.18 0 0 1 .145.284l-.494.687a.179.179 0 0 1-.146.074"/>
        <path fill="#F26B6B" d="M63.493 30.523H52.416l-2.01 2.013c-.91.912-.876 2.4.075 3.268l1.83 1.67 11.182.001v-6.952"/>
        <path fill="#101820" stroke="#101820" stroke-width=".56" d="M63.493 37.655H52.311a.18.18 0 0 1-.121-.047l-1.83-1.67a2.42 2.42 0 0 1-.794-1.747 2.42 2.42 0 0 1 .713-1.782l2.01-2.013a.18.18 0 0 1 .127-.053h2.167a.18.18 0 0 1 0 .36H52.49l-1.958 1.96a2.063 2.063 0 0 0-.607 1.52c.013.573.253 1.102.677 1.489l1.778 1.623h10.934v-6.592H56.8a.18.18 0 0 1 0-.36h6.692c.1 0 .18.08.18.18v6.952a.18.18 0 0 1-.18.18"/>
        <path fill="#101820" stroke="#101820" stroke-width=".56" d="M55.702 32.827a1.251 1.251 0 0 0 0 2.502 1.251 1.251 0 0 0 0-2.502zm0 2.861a1.61 1.61 0 0 1 0-3.22 1.61 1.61 0 0 1 0 3.22z"/>
    </g>
</svg>
