<svg xmlns="http://www.w3.org/2000/svg" width="42" height="37" viewBox="0 0 42 37">
    <g fill="none" fill-rule="nonzero">
        <g fill="#44C868">
            <path d="M41.183 36.235l-3.24-18.189a.616.616 0 0 0-.302-.428l-8.156-4.622a.594.594 0 0 0-.34-.075l1.483 19.502-.05.023 9.76 4.461a.597.597 0 0 0 .622-.076.622.622 0 0 0 .223-.596zM20.57 17.415l-8.342-4.427a.594.594 0 0 0-.233-.067l-1.484 19.502 9.81 4.485c.08.036.164.054.249.054V17.415z"/>
        </g>
        <g fill="#4CE166">
            <path d="M12.048 12.922a.595.595 0 0 0-.34.074L3.55 17.618a.615.615 0 0 0-.301.428L.01 36.236a.622.622 0 0 0 .222.595.598.598 0 0 0 .621.077l9.708-4.438 1.487-19.548zM29.197 12.921a.595.595 0 0 0-.233.067l-8.341 4.427v19.547a.596.596 0 0 0 .248-.054l9.81-4.484-1.484-19.503z"/>
        </g>
        <path fill="#FFDB56" d="M2.253 23.596l-.638 3.752 9.437-5.327.22-3.02.036-.501z"/>
        <path fill="#A8EEFC" d="M11.308 20.913l-.087 1.152-9.63 5.239-1.581 8.97a.625.625 0 0 0 .22.595.587.587 0 0 0 .613.077l9.592-4.432.873-11.601z"/>
        <g fill="#FFBB24">
            <path d="M20.68 20.016l-9.029-1.28-.264 3.385 9.29 13.997v-5.09l-5.544-8.66 5.546.658zM37.15 17.48l-3.929-2.168-3.719.862.047.596.184 2.35z"/>
        </g>
        <path fill="#FFDB56" d="M30.692 23.326l-.363-4.552-.215-2.687L21 19.967v3.04l5.953-2.51z"/>
        <path fill="#FFBB24" d="M41.183 36.422l-.794-4.52-10.504-12.598.32 4.278L40.979 37a.62.62 0 0 0 .205-.578z"/>
        <path fill="#FF4A4A" d="M20.596 0c-4.676 0-8.48 3.79-8.48 8.447 0 2.882 1.372 5.975 4.078 9.195 1.988 2.365 3.949 3.886 4.031 3.95a.607.607 0 0 0 .742 0c.083-.064 2.043-1.585 4.031-3.95 2.707-3.22 4.079-6.313 4.079-9.195C29.077 3.79 25.272 0 20.597 0zm3.14 8.447a3.135 3.135 0 0 1-3.14 3.129c-1.734 0-3.14-1.4-3.14-3.129a3.135 3.135 0 0 1 3.14-3.128c1.735 0 3.14 1.4 3.14 3.128z"/>
        <path fill="#E7343F" d="M20.492 0c-.375 0-.745.024-1.107.07 4.212.536 7.477 4.089 7.477 8.377 0 2.882-1.389 5.975-4.129 9.195a30.468 30.468 0 0 1-3.348 3.351c.429.366.702.575.731.598a.619.619 0 0 0 .752 0c.083-.063 2.068-1.584 4.08-3.95 2.74-3.219 4.129-6.312 4.129-9.194C29.077 3.79 25.226 0 20.492 0z"/>
        <path fill="#FFDB56" d="M21.257 36.948l3.781-1.61L21 31.37V37a.655.655 0 0 0 .257-.052z"/>
        <g fill="#1EA4E9">
            <path d="M37.94 18.503a.601.601 0 0 0-.301-.419l-.642-.355-7.397 1.64 10.766 12.426-2.426-13.292zM20.569 36.963v-.602L11.304 22.37l-.793 10.165 9.81 4.376c.08.035.164.053.248.053z"/>
        </g>
    </g>
</svg>
