<svg xmlns="http://www.w3.org/2000/svg" width="31" height="34" viewBox="0 0 31 34">
    <g fill="none" fill-rule="nonzero">
        <path fill="#101820" d="M8.263 23.393h17.163c1.946 0 3.534-1.579 3.534-3.514V12.7v-.025-.051c0-.013 0-.026-.007-.039 0-.012-.006-.031-.006-.044 0-.013-.007-.026-.007-.038-.006-.013-.006-.026-.012-.045-.007-.013-.007-.025-.013-.038-.007-.013-.007-.025-.013-.038-.006-.013-.013-.026-.02-.045a6818.65 6818.65 0 0 1-.038-.07c-.006-.013-.012-.019-.019-.032-.006-.012-.019-.025-.025-.038a.112.112 0 0 0-.026-.032c-.006-.012-.02-.019-.026-.031-.006-.013-.019-.02-.025-.032-.007-.013-.02-.02-.026-.026l-.032-.032c-.013-.006-.02-.019-.032-.025-.013-.006-.025-.02-.038-.026-.013-.006-.02-.012-.032-.019a.134.134 0 0 1-.039-.025l-.038-.02-.039-.018-.038-.02c-.013-.006-.026-.006-.038-.012a.12.12 0 0 0-.045-.013c-.013 0-.026-.006-.032-.006-.02-.007-.032-.007-.051-.007-.007 0-.013-.006-.026-.006L6.464 8.861V5.843c0-.031 0-.063-.007-.089 0-.006 0-.012-.006-.025 0-.02-.006-.038-.006-.057-.007-.02-.007-.032-.013-.051 0-.013-.007-.02-.007-.032l-.019-.058c0-.006-.006-.019-.006-.025a.19.19 0 0 0-.026-.05c-.006-.007-.006-.02-.013-.026-.006-.013-.012-.026-.025-.039l-.02-.031c-.006-.013-.012-.02-.019-.032-.006-.013-.019-.026-.025-.038l-.02-.02-.038-.038-.02-.019c-.012-.013-.025-.025-.044-.038-.006-.006-.02-.013-.025-.02-.013-.012-.026-.018-.039-.03-.02-.014-.038-.026-.051-.033-.007-.006-.013-.006-.02-.012-.025-.013-.057-.026-.083-.039L1.214 3.068a.865.865 0 0 0-1.133.458c-.185.44.02.942.461 1.127L4.73 6.41v18.829c0 1.782 1.344 3.26 3.08 3.482a3.457 3.457 0 0 0-.5 1.782c0 1.916 1.568 3.47 3.489 3.47 1.92 0 3.489-1.56 3.489-3.47 0-.636-.173-1.24-.48-1.75h7.771a3.406 3.406 0 0 0-.48 1.75c0 1.916 1.569 3.47 3.49 3.47 1.92 0 3.488-1.56 3.488-3.47 0-1.91-1.568-3.469-3.489-3.469H8.263a1.802 1.802 0 0 1-1.806-1.795v-2.33a3.59 3.59 0 0 0 1.806.484zm4.302 7.104c0 .968-.794 1.75-1.76 1.75-.967 0-1.761-.789-1.761-1.75s.794-1.75 1.76-1.75c.967 0 1.76.782 1.76 1.75zm13.79 0c0 .968-.795 1.75-1.761 1.75-.967 0-1.76-.789-1.76-1.75s.793-1.75 1.76-1.75c.966 0 1.76.782 1.76 1.75zm-.93-8.823H8.264a1.802 1.802 0 0 1-1.806-1.795V10.592l20.774 2.845v6.436c0 1-.813 1.801-1.805 1.801z"/>
        <path fill="#101820" d="M22 18c4.963 0 9-4.037 9-9s-4.037-9-9-9-9 4.037-9 9 4.037 9 9 9z"/>
        <path fill="#FFF" d="M21.373 13.811c.045.043.095.07.145.098.02.012.04.032.06.041.076.033.156.05.235.05a.597.597 0 0 0 .281-.073c.034-.018.06-.054.091-.078.049-.039.101-.07.142-.124l.013-.018h.001v-.002l5.485-7.343c.253-.337.227-.855-.057-1.155-.284-.3-.718-.27-.97.068l-5.057 6.771-3.614-3.583c-.293-.289-.725-.242-.969.105-.243.347-.203.863.088 1.152l4.126 4.091z"/>
    </g>
</svg>
