<svg xmlns="http://www.w3.org/2000/svg" width="17" height="19" viewBox="0 0 17 19">
    <path fill="#101820" fill-rule="nonzero" d="M4.845 12.313h10.08c1.143 0 2.075-.954 2.075-2.122V5.856 5.84 5.81c0-.008 0-.016-.004-.023 0-.008-.004-.02-.004-.027 0-.008-.003-.016-.003-.023-.004-.008-.004-.016-.008-.027-.004-.008-.004-.016-.007-.023-.004-.008-.004-.016-.008-.023a.19.19 0 0 1-.011-.027.084.084 0 0 0-.011-.02l-.012-.022c-.003-.008-.007-.012-.011-.02-.004-.007-.011-.015-.015-.023-.004-.007-.008-.011-.015-.019-.004-.008-.011-.011-.015-.02-.004-.007-.011-.01-.015-.018-.004-.008-.011-.012-.015-.016l-.019-.019c-.007-.004-.011-.011-.019-.015l-.022-.016-.02-.011a.079.079 0 0 1-.022-.016l-.022-.011a4700.755 4700.755 0 0 0-.045-.023c-.008-.004-.015-.004-.023-.008a.069.069 0 0 0-.026-.008c-.008 0-.015-.003-.019-.003-.011-.004-.019-.004-.03-.004-.004 0-.008-.004-.015-.004L3.789 3.538V1.717c0-.02 0-.039-.004-.054 0-.004 0-.008-.004-.015 0-.012-.004-.024-.004-.035-.003-.012-.003-.02-.007-.03 0-.008-.004-.012-.004-.02l-.011-.035c0-.003-.004-.011-.004-.015a.116.116 0 0 0-.015-.03c-.004-.005-.004-.012-.008-.016-.003-.008-.007-.015-.015-.023l-.01-.02c-.005-.007-.008-.01-.012-.019-.004-.007-.011-.015-.015-.023l-.012-.011-.022-.023-.011-.012c-.008-.007-.015-.015-.027-.023-.003-.004-.01-.008-.015-.011-.007-.008-.015-.012-.022-.02a.345.345 0 0 0-.03-.019c-.004-.004-.008-.004-.012-.007l-.048-.024L.706.042A.503.503 0 0 0 .04.317a.522.522 0 0 0 .27.68l2.46 1.06v11.369c0 1.076.79 1.968 1.808 2.102a2.131 2.131 0 0 0-.293 1.076c0 1.157.921 2.095 2.049 2.095s2.049-.942 2.049-2.095c0-.384-.102-.749-.282-1.056h4.564a2.1 2.1 0 0 0-.282 1.056c0 1.157.921 2.095 2.05 2.095 1.127 0 2.048-.942 2.048-2.095 0-1.153-.92-2.094-2.049-2.094H4.845c-.586 0-1.06-.488-1.06-1.084V12.02c.308.185.673.293 1.06.293zm2.527 4.289c0 .584-.467 1.056-1.034 1.056a1.05 1.05 0 0 1-1.034-1.056c0-.58.466-1.057 1.034-1.057.567 0 1.034.472 1.034 1.057zm8.098 0c0 .584-.466 1.056-1.034 1.056a1.05 1.05 0 0 1-1.034-1.056c0-.58.466-1.057 1.034-1.057.568 0 1.034.472 1.034 1.057zm-.545-5.327H4.845c-.586 0-1.06-.488-1.06-1.084V4.584l12.2 1.718v3.885c0 .604-.478 1.088-1.06 1.088z"/>
</svg>
