<svg xmlns="http://www.w3.org/2000/svg" width="17" height="19" viewBox="0 0 17 19">
    <path fill="#FFF" fill-rule="nonzero" d="M4.845 12.313h10.08c1.143 0 2.075-.954 2.075-2.122V5.856c0-.054 0-.062-.004-.07-.011-.057-.011-.065-.015-.076l-.026-.073c-.026-.05-.03-.054-.034-.062-.034-.05-.041-.053-.045-.061l-.049-.054-.06-.042a.473.473 0 0 0-.045-.027c-.053-.027-.06-.027-.068-.03-.056-.016-.064-.016-.075-.016L3.789 3.538V1.717c-.004-.058-.004-.062-.008-.07-.007-.046-.007-.053-.011-.065l-.015-.054c-.023-.05-.023-.057-.027-.061l-.037-.062a.677.677 0 0 0-.05-.057c-.04-.039-.048-.042-.052-.046a.384.384 0 0 0-.052-.039c-.027-.015-.045-.023-.06-.03L.706.04A.503.503 0 0 0 .04.318a.522.522 0 0 0 .27.68l2.46 1.06v11.369c0 1.076.79 1.968 1.808 2.102a2.131 2.131 0 0 0-.293 1.076c0 1.157.921 2.095 2.049 2.095s2.049-.942 2.049-2.095c0-.384-.102-.749-.282-1.056h4.564a2.1 2.1 0 0 0-.282 1.056c0 1.157.921 2.095 2.05 2.095 1.127 0 2.048-.942 2.048-2.095 0-1.153-.92-2.094-2.049-2.094H4.845c-.586 0-1.06-.488-1.06-1.084V12.02c.308.185.673.293 1.06.293zm2.527 4.289c0 .584-.467 1.056-1.034 1.056a1.05 1.05 0 0 1-1.034-1.056c0-.58.466-1.057 1.034-1.057.567 0 1.034.472 1.034 1.057zm8.098 0c0 .584-.466 1.056-1.034 1.056a1.05 1.05 0 0 1-1.034-1.056c0-.58.466-1.057 1.034-1.057.568 0 1.034.472 1.034 1.057zm-.545-5.327H3.845c-.42 0-.435 0-1.075-.084V4.584l13.215 1.718v3.885c0 .604-.478 1.088-1.06 1.088z"/>
</svg>
