<!-- <?xml version="1.0" encoding="UTF-8"?> -->
<svg width="20px" height="22px" viewBox="0 0 20 22" version="1.1" xmlns="http://www.w3.org/2000/svg" xmlns:xlink="http://www.w3.org/1999/xlink">
    <!-- Generator: sketchtool 50.2 (55047) - http://www.bohemiancoding.com/sketch -->
    <desc>Created with sketchtool.</desc>
    <defs></defs>
    <g id="Symbols" stroke="none" stroke-width="1" fill="none" fill-rule="evenodd">
        <g id="Title" transform="translate(-1515.000000, -51.000000)" fill="#000000" class="product-cart-list-inn" fill-rule="nonzero">
            <g id="Group-2">
                <g id="Group">
                    <path d="M1520.70003,65.4853374 L1532.55843,65.4853374 C1533.90306,65.4853374 1535,64.3640159 1535,62.9894927 L1535,57.8892885 C1535,57.8847671 1535,57.8757241 1535,57.8712027 C1535,57.8576383 1535,57.8485954 1535,57.835031 C1535,57.8259881 1535,57.8169452 1534.99558,57.8079023 C1534.99558,57.7988594 1534.99115,57.785295 1534.99115,57.7762521 C1534.99115,57.7672092 1534.98673,57.7581662 1534.98673,57.7491233 C1534.98231,57.7400804 1534.98231,57.7310375 1534.97788,57.7174731 C1534.97346,57.7084302 1534.97346,57.6993873 1534.96904,57.6903444 C1534.96461,57.6813015 1534.96461,57.6722585 1534.96019,57.6632156 C1534.95577,57.6541727 1534.95135,57.6451298 1534.94692,57.6315654 C1534.9425,57.6225225 1534.93808,57.6134796 1534.93365,57.6089581 C1534.92923,57.5999152 1534.92481,57.5908723 1534.92038,57.5818294 C1534.91596,57.5727865 1534.91154,57.568265 1534.90711,57.5592221 C1534.90269,57.5501792 1534.89384,57.5411363 1534.88942,57.5320934 C1534.885,57.5230504 1534.88058,57.518529 1534.87173,57.5094861 C1534.86731,57.5004432 1534.85846,57.4959217 1534.85404,57.4868788 C1534.84961,57.4778359 1534.84077,57.4733144 1534.83634,57.4642715 C1534.83192,57.4552286 1534.82307,57.4507071 1534.81865,57.4461857 C1534.80981,57.4371427 1534.80538,57.4326213 1534.79654,57.4235784 C1534.78769,57.4190569 1534.78327,57.410014 1534.77442,57.4054925 C1534.76557,57.4009711 1534.75673,57.3919282 1534.74788,57.3874067 C1534.73904,57.3828853 1534.73461,57.3783638 1534.72577,57.3738423 C1534.71692,57.3693209 1534.70807,57.3647994 1534.69923,57.3557565 C1534.69038,57.3512351 1534.68153,57.3467136 1534.67269,57.3421921 C1534.66384,57.3376707 1534.655,57.3331492 1534.64615,57.3286278 C1534.6373,57.3241063 1534.62846,57.3195848 1534.61961,57.3150634 C1534.61076,57.3105419 1534.60192,57.3105419 1534.59307,57.3060205 C1534.58423,57.301499 1534.57096,57.2969776 1534.56211,57.2969776 C1534.55326,57.2969776 1534.54442,57.2924561 1534.53999,57.2924561 C1534.52673,57.2879346 1534.51788,57.2879346 1534.50461,57.2879346 C1534.50019,57.2879346 1534.49576,57.2834132 1534.48692,57.2834132 L1519.45713,55.1628495 L1519.45713,53.0196786 C1519.45713,52.9970713 1519.45713,52.974464 1519.45271,52.9563782 C1519.45271,52.9518568 1519.45271,52.9473353 1519.44828,52.9382924 C1519.44828,52.924728 1519.44386,52.9111636 1519.44386,52.8975993 C1519.43944,52.8840349 1519.43944,52.874992 1519.43501,52.8614276 C1519.43501,52.8523847 1519.43059,52.8478632 1519.43059,52.8388203 C1519.42617,52.8252559 1519.42175,52.8116916 1519.41732,52.7981272 C1519.41732,52.7936057 1519.4129,52.7845628 1519.4129,52.7800414 C1519.40848,52.766477 1519.40405,52.7574341 1519.39521,52.7438697 C1519.39078,52.7393482 1519.39078,52.7303053 1519.38636,52.7257839 C1519.38194,52.716741 1519.37751,52.707698 1519.36867,52.6986551 C1519.36424,52.6896122 1519.35982,52.6850908 1519.3554,52.6760478 C1519.35098,52.6670049 1519.34655,52.6624835 1519.34213,52.6534405 C1519.33771,52.6443976 1519.32886,52.6353547 1519.32444,52.6263118 C1519.32001,52.6217903 1519.31559,52.6172689 1519.31117,52.6127474 C1519.30232,52.6037045 1519.29347,52.5946616 1519.28463,52.5856187 C1519.28021,52.5810972 1519.27578,52.5765758 1519.27136,52.5720543 C1519.26251,52.5630114 1519.25367,52.5539685 1519.2404,52.5449256 C1519.23597,52.5404041 1519.22713,52.5358826 1519.2227,52.5313612 C1519.21386,52.5223183 1519.20501,52.5177968 1519.19617,52.5087539 C1519.1829,52.499711 1519.16963,52.4906681 1519.16078,52.4861466 C1519.15636,52.4816252 1519.15193,52.4816252 1519.14751,52.4771037 C1519.12982,52.4680608 1519.1077,52.4590179 1519.09001,52.449975 L1515.83017,51.0483231 C1515.52497,50.9172008 1515.17554,51.0618875 1515.04727,51.373868 C1514.919,51.6858486 1515.06054,52.0430438 1515.36574,52.174166 L1518.25846,53.4220883 L1518.25846,56.1892204 L1518.25846,56.6278018 L1518.25846,59.9917663 L1518.25846,62.9985357 L1518.25846,66.7965601 C1518.25846,68.0625682 1519.18732,69.1115464 1520.38599,69.2697974 C1520.16925,69.640557 1520.04098,70.0746169 1520.04098,70.5358056 C1520.04098,71.8967643 1521.12465,73 1522.45159,73 C1523.77853,73 1524.86219,71.8922429 1524.86219,70.5358056 C1524.86219,70.0836598 1524.74277,69.6541213 1524.53046,69.2924047 L1529.90013,69.2924047 C1529.68782,69.6586428 1529.5684,70.0836598 1529.5684,70.5358056 C1529.5684,71.8967643 1530.65207,73 1531.979,73 C1533.30594,73 1534.38961,71.8922429 1534.38961,70.5358056 C1534.38961,69.1793683 1533.30594,68.0716112 1531.979,68.0716112 L1520.70003,68.0716112 C1520.01002,68.0716112 1519.45271,67.497386 1519.45271,66.7965601 L1519.45271,65.1417066 C1519.8154,65.3587366 1520.24445,65.4853374 1520.70003,65.4853374 Z M1523.67237,70.5312841 C1523.67237,71.2185457 1523.1239,71.774685 1522.45601,71.774685 C1521.78812,71.774685 1521.23965,71.2140242 1521.23965,70.5312841 C1521.23965,69.848544 1521.78812,69.2878833 1522.45601,69.2878833 C1523.1239,69.2878833 1523.67237,69.8440226 1523.67237,70.5312841 Z M1533.19979,70.5312841 C1533.19979,71.2185457 1532.65132,71.774685 1531.98343,71.774685 C1531.31553,71.774685 1530.76707,71.2140242 1530.76707,70.5312841 C1530.76707,69.848544 1531.31553,69.2878833 1531.98343,69.2878833 C1532.65132,69.2878833 1533.19979,69.8440226 1533.19979,70.5312841 Z M1532.55843,64.2645438 L1520.70003,64.2645438 C1520.01002,64.2645438 1519.45271,63.6903187 1519.45271,62.9894927 L1519.45271,59.9827234 L1519.45271,56.6187589 L1519.45271,56.392686 L1533.80576,58.4137776 L1533.80576,62.9849713 C1533.80576,63.6948401 1533.24402,64.2645438 1532.55843,64.2645438 Z" id="icon-cart"></path>
                </g>
            </g>
        </g>
    </g>
</svg>