<svg xmlns="http://www.w3.org/2000/svg" xmlns:xlink="http://www.w3.org/1999/xlink" width="175" height="136" viewBox="0 0 175 136">
    <defs>
        <path id="a" d="M57.875 16.345C53.25 20.213 46.874 20.213 41 20.462c-5.874.25-12.499 1.622-15.751 6.989C21.874 33.065 23.5 40.675 22 47.163 18.875 60.015 3.625 66.003.75 79.105c-1.5 6.737.875 13.85 4.125 19.838 4.875 8.984 12.5 16.844 21.875 19.09 5.081 1.251 10.279.8 15.486.347 4.142-.36 8.29-.719 12.388-.221 6.625.872 12.876 3.867 19.125 6.487a146.085 146.085 0 0 0 40.876 10.48c5.125.5 10.625.75 15.374-1.747 8.751-4.74 11.627-17.092 19.251-23.706 6.375-5.49 15.625-6.488 21.25-12.976s5.749-17.84.124-24.329c-2.874-3.245-6.875-5.366-8.874-9.234-2.5-4.617-1.75-10.48-1.875-15.97-.25-9.358-5.749-11.23-11-16.845-4.875-4.99-7.875-12.602-14.5-15.345-4.25-1.748-9.125-.874-13.75-1.374-7.501-.998-14.125-5.864-21.125-9.108C94.472 2.146 88.776.755 83.236.755c-7.133 0-14.007 2.306-18.861 7.854-2.25 2.494-4 5.615-6.5 7.736z"/>
        <path id="b" d="M1.625.125c-.5 0-.875.374-.875.874v3.243c0 .5.375.874.875.874h3.25c.5 0 .876-.375.876-.874V1C5.625.374 5.25.125 4.875.125h-3.25z"/>
        <path id="d" d="M1.375.498C1.125.498 1 .624 1 .875v1.62c0 .25.125.375.375.375H3c.25 0 .375-.125.375-.375V.875C3.5.624 3.25.498 3 .498H1.375z"/>
        <path id="f" d="M.875.749C.625.749.5.875.5 1.123v1.622c0 .25.125.376.375.376H2.5c.25 0 .376-.127.376-.376V1.248c0-.25-.126-.5-.376-.5H.875z"/>
        <path id="h" d="M.5.25C.25.25.126.374.126.625v1.62c0 .25.124.375.374.375h1.625c.25 0 .375-.125.375-.374V.626C2.5.498 2.375.25 2.125.25H.5z"/>
        <path id="j" d="M1.375 1.123c-.375 0-.624.248-.624.624v2.37c0 .375.249.624.624.624H3.75c.376 0 .625-.25.625-.624v-2.37c0-.376-.249-.624-.625-.624H1.375z"/>
        <path id="l" d="M1.375.251C.875.251.5.627.5 1.125v3.244c0 .499.375.873.875.873h3.25c.5 0 .875-.374.875-.873V1.125A.854.854 0 0 0 4.625.25h-3.25z"/>
        <path id="n" d="M.376.873C.125.873 0 .998 0 1.25v1.62c0 .25.125.375.376.375H2c.251 0 .375-.125.375-.374V1.249c0-.25-.124-.376-.375-.376H.376z"/>
        <path id="p" d="M1.125 1.123c-.25 0-.375.125-.375.375V3.12c0 .251.125.375.375.375h1.624c.251 0 .376-.124.376-.375V1.5c.125-.127-.125-.376-.376-.376H1.125z"/>
        <path id="r" d="M1.625.624c-.5 0-.875.374-.875.873v3.246c0 .497.375.873.875.873h3.25a.854.854 0 0 0 .875-.873V1.497c-.125-.499-.5-.873-.875-.873h-3.25z"/>
        <path id="t" d="M1 .998c-.375 0-.625.251-.625.624v2.37c0 .375.25.626.625.626h2.374c.376 0 .626-.251.626-.625V1.622c0-.373-.25-.624-.626-.624H1z"/>
        <path id="v" d="M.625.125C.376.125.25.25.25.499v1.622c0 .25.126.374.375.374H2.25c.25 0 .375-.124.375-.374V.5c0-.248-.125-.374-.375-.374H.625z"/>
        <path id="x" d="M1.75.125c-.5 0-.876.374-.876.873v3.244c0 .5.376.874.876.874H5c.5 0 .875-.375.875-.874V.998C5.875.5 5.5.125 5 .125H1.75z"/>
        <path id="z" d="M1.375.374c-.25 0-.374.125-.374.373v1.748c0 .251.124.376.374.376H3c.25 0 .374-.125.374-.376V.873c0-.25-.124-.499-.374-.499H1.375z"/>
        <path id="B" d="M1.75.003c-.5 0-.876.374-.876.87V4.12c0 .5.376.875.876.875H5c.5 0 .875-.376.875-.875V.874A.853.853 0 0 0 5 .003H1.75z"/>
        <path id="D" d="M1.375.374c-.25 0-.374.124-.374.375v1.746c0 .25.124.375.374.375H3c.251 0 .375-.125.375-.375V.875c0-.251-.124-.5-.375-.5H1.375z"/>
        <path id="F" d="M1.626.374a.853.853 0 0 0-.876.874v3.244c0 .5.375.873.876.873h3.249c.5 0 .875-.373.875-.873V1.248c0-.5-.375-.874-.875-.874H1.626z"/>
        <path id="H" d="M.625 0C.25 0 0 .25 0 .625v2.37c0 .374.25.623.625.623H3c.375 0 .625-.25.625-.624V.625C3.501.25 3.25 0 3 0H.625z"/>
        <path id="J" d="M1.125 1.123c-.25 0-.374.125-.374.374v1.624c0 .248.124.373.374.373H2.75c.25 0 .375-.125.375-.373V1.497c0-.125-.125-.374-.375-.374H1.125z"/>
        <path id="L" d="M1.626.749a.853.853 0 0 0-.875.873v3.244c0 .5.374.873.875.873h3.249a.853.853 0 0 0 .875-.873V1.622c-.125-.5-.374-.873-.875-.873H1.626z"/>
        <path id="N" d="M1.5.998c-.25 0-.375.125-.375.374v1.621c0 .251.125.377.375.377h1.624c.251 0 .376-.126.376-.377v-1.62c.125-.25-.125-.375-.376-.375H1.5z"/>
        <path id="P" d="M1.375 2.746l-1 9.856c-.125 1.123.376 1.497 1.125.873l2.375-2.12L8.25 7.486l2.375-2.12c.75-.626.624-1.373-.125-1.624L3.125 1.248a1.41 1.41 0 0 0-.377-.055c-.706 0-1.266.595-1.373 1.553z"/>
        <path id="Q" d="M29.5.624L2.875 16.22C1.125 17.218.249 19.715.75 21.96L8.5 61.387l21.876 9.358L70.5 58.517l9-33.312c.75-2.622-.375-5.615-2.5-6.49L32.251.376a2.736 2.736 0 0 0-1.077-.219c-.568 0-1.144.166-1.674.468z"/>
        <path id="S" d="M.375 2.871c-.375.375 0 .749.624.749C6 3.495 9.625 4.244 11.5 4.744c.501.124 1.125-.25.875-.625C10.445 1.017 8.332 0 6.389 0 3.8.002 1.517 1.803.375 2.871z"/>
        <path id="U" d="M.376 4.242c-.126.25.124.749.499.623 3-.623 5.375-.124 6.624.25.376 0 .752-.374.501-.623C6.668 1.784 5.376.863 4.23.863 2.47.865 1.056 3.034.376 4.243z"/>
        <path id="W" d="M2.25 3.122c-.5.248-2.75 2.496-2 2.496C6.25 4.743 8.125.126 16 3.495c.626 0 1.25-.25 1-.499-1.286-.982-3.949-2.65-7.346-2.65-2.215 0-4.74.709-7.404 2.776z"/>
        <path id="Y" d="M42.75 9.964l-5.625 3.12c-.376.25-.624.5-.75.873l-3.75 12.227c-.375 1.123.25 2.246 1.376 2.62l7.624 2.371c1.125.374 2.25-.25 2.625-1.372l3.749-12.228c.251-.25.126-.749 0-1.123l-3.125-5.864c-.259-.517-.815-.796-1.383-.796-.252 0-.508.056-.741.172zm-.125 4.117c-1.875-.623-1-3.368.875-2.87 1.581.565 1.021 2.958-.392 2.958-.152 0-.313-.026-.483-.088z"/>
        <path id="aa" d="M.25 3.247s2.5-.875 0-3.245c0 0 1.126 2.12 0 3.245z"/>
        <path id="ab" d="M1.125 2.87C.125 1.995.5.125.5.125c-1 2.12.625 2.745.625 2.745z"/>
        <path id="ac" d="M.75 1.123c3.5-.25 5.375.5 5.375.5C4.633.903 3.458.691 2.591.691 1.355.691.75 1.123.75 1.123z"/>
        <path id="ad" d="M.125 2.246S4.25.624 6.75.873c0 0-.536-.295-1.593-.295-1.108 0-2.79.325-5.032 1.668z"/>
    </defs>
    <g fill="none" fill-rule="evenodd">
        <use fill="#F4F4F4" xlink:href="#a"/>
        <g transform="translate(102.5 74.862)">
            <mask id="c" fill="#fff">
                <use xlink:href="#b"/>
            </mask>
            <path fill="#3CB891" d="M-5.5 11.354H12V-6.114H-5.5z" mask="url(#c)"/>
        </g>
        <g transform="translate(86.25 38.679)">
            <mask id="e" fill="#fff">
                <use xlink:href="#d"/>
            </mask>
            <path fill="#3CB891" d="M-5.25 9.108H9.658V-5.739H-5.25z" mask="url(#e)"/>
        </g>
        <g transform="translate(73.75 51.156)">
            <mask id="g" fill="#fff">
                <use xlink:href="#f"/>
            </mask>
            <path fill="#CFD1D2" d="M-5.75 9.358H9.125V-5.49H-5.75z" mask="url(#g)"/>
        </g>
        <g transform="translate(123.75 87.34)">
            <mask id="i" fill="#fff">
                <use xlink:href="#h"/>
            </mask>
            <path fill="#929292" d="M-6.125 8.857H8.749V-5.989H-6.125z" mask="url(#i)"/>
        </g>
        <g transform="translate(141.25 72.367)">
            <mask id="k" fill="#fff">
                <use xlink:href="#j"/>
            </mask>
            <path fill="#3CB891" d="M-5.5 10.98h16.124V-5.116H-5.5z" mask="url(#k)"/>
        </g>
        <g transform="translate(57.5 104.431)">
            <mask id="m" fill="#fff">
                <use xlink:href="#l"/>
            </mask>
            <path fill="#F26B6B" d="M-5.75 11.48h17.5V-5.987h-17.5z" mask="url(#m)"/>
        </g>
        <g transform="translate(90 114.789)">
            <mask id="o" fill="#fff">
                <use xlink:href="#n"/>
            </mask>
            <path fill="#929292" d="M-6.25 9.481H8.625V-5.365H-6.25z" mask="url(#o)"/>
        </g>
        <g transform="translate(67.5 91.083)">
            <mask id="q" fill="#fff">
                <use xlink:href="#p"/>
            </mask>
            <path fill="#929292" d="M-5.5 9.732H9.409V-5.116H-5.5z" mask="url(#q)"/>
        </g>
        <g transform="translate(72.5 116.037)">
            <mask id="s" fill="#fff">
                <use xlink:href="#r"/>
            </mask>
            <path fill="#3CB891" d="M-5.5 11.853H12V-5.615H-5.5z" mask="url(#s)"/>
        </g>
        <g transform="translate(140 58.642)">
            <mask id="u" fill="#fff">
                <use xlink:href="#t"/>
            </mask>
            <path fill="#3CB891" d="M-5.875 10.855h16.124V-5.24H-5.875z" mask="url(#u)"/>
        </g>
        <g transform="translate(41.25 88.587)">
            <mask id="w" fill="#fff">
                <use xlink:href="#v"/>
            </mask>
            <path fill="#3CB891" d="M-6 8.734H8.875V-6.114H-6z" mask="url(#w)"/>
        </g>
        <g transform="translate(76.25 99.817)">
            <mask id="y" fill="#fff">
                <use xlink:href="#x"/>
            </mask>
            <path fill="#CFD1D2" d="M-5.375 11.354h17.5V-6.114h-17.5z" mask="url(#y)"/>
        </g>
        <g transform="translate(27.5 101.064)">
            <mask id="A" fill="#fff">
                <use xlink:href="#z"/>
            </mask>
            <path fill="#CFD1D2" d="M-5.25 9.108H9.624V-5.864H-5.25z" mask="url(#A)"/>
        </g>
        <g transform="translate(76.25 27.074)">
            <mask id="C" fill="#fff">
                <use xlink:href="#B"/>
            </mask>
            <path fill="#F26B6B" d="M-5.375 11.231h17.5V-6.237h-17.5z" mask="url(#C)"/>
        </g>
        <g transform="translate(93.75 16.22)">
            <mask id="E" fill="#fff">
                <use xlink:href="#D"/>
            </mask>
            <path fill="#929292" d="M-5.25 9.108H9.624V-5.864H-5.25z" mask="url(#E)"/>
        </g>
        <g transform="translate(97.5 56.147)">
            <mask id="G" fill="#fff">
                <use xlink:href="#F"/>
            </mask>
            <path fill="#3CB891" d="M-5.5 11.604H12V-5.864H-5.5z" mask="url(#G)"/>
        </g>
        <g transform="translate(133.75 19.963)">
            <mask id="I" fill="#fff">
                <use xlink:href="#H"/>
            </mask>
            <path fill="#3CB891" d="M-6.25 9.856H9.875V-6.24H-6.25z" mask="url(#I)"/>
        </g>
        <g transform="translate(51.25 7.486)">
            <mask id="K" fill="#fff">
                <use xlink:href="#J"/>
            </mask>
            <path fill="#3CB891" d="M-5.5 9.732H9.374V-5.116H-5.5z" mask="url(#K)"/>
        </g>
        <g transform="translate(117.5 7.486)">
            <mask id="M" fill="#fff">
                <use xlink:href="#L"/>
            </mask>
            <path fill="#CFD1D2" d="M-5.5 11.978H12V-5.49H-5.5z" mask="url(#M)"/>
        </g>
        <g transform="translate(53.75 24.954)">
            <mask id="O" fill="#fff">
                <use xlink:href="#N"/>
            </mask>
            <path fill="#CFD1D2" d="M-5.125 9.607H9.784V-5.24H-5.125z" mask="url(#O)"/>
        </g>
        <g transform="translate(47.375 32.048)">
            <mask id="R" fill="#fff">
                <use xlink:href="#Q"/>
            </mask>
            <path fill="#BD8849" d="M-5.64 76.983h91.623V-6.083H-5.64z" mask="url(#R)"/>
        </g>
        <g stroke="#010202" stroke-linecap="round" stroke-width="2.503">
            <path d="M117.875 90.566l9-33.313c.75-2.621-.375-5.615-2.5-6.488l-44.75-18.343c-.875-.373-1.875-.25-2.75.251L50.25 48.27c-1.75.996-2.625 3.492-2.125 5.738l7.75 39.428 21.875 9.358 40.125-12.228zM76.875 32.673l.875 70.12"/>
        </g>
        <g transform="translate(88.25 59.122)">
            <mask id="T" fill="#fff">
                <use xlink:href="#S"/>
            </mask>
            <path fill="#050706" d="M-6.024 11.005h24.707V-6.238H-6.024z" mask="url(#T)"/>
        </g>
        <g transform="translate(109.875 59.498)">
            <mask id="V" fill="#fff">
                <use xlink:href="#U"/>
            </mask>
            <path fill="#050706" d="M-5.907 11.354H14.33V-5.374H-5.908z" mask="url(#V)"/>
        </g>
        <g transform="translate(94.875 75.342)">
            <mask id="X" fill="#fff">
                <use xlink:href="#W"/>
            </mask>
            <path fill="#050706" d="M-6.151 11.856h29.457V-5.893H-6.15z" mask="url(#X)"/>
        </g>
        <path fill="#231F20" d="M55.75 45.15l5.5 50.657 7.5 3.118L67 38.41z"/>
        <path fill="#41BA93" d="M83 88.446v8.235l9.875-2.62v-7.862z"/>
        <g transform="translate(6.25 33.688)">
            <mask id="Z" fill="#fff">
                <use xlink:href="#Y"/>
            </mask>
            <path fill="#41BA93" d="M26.266 37.522h28.129V3.553H26.266z" mask="url(#Z)"/>
        </g>
        <g stroke="#010202">
            <path stroke-width=".569" d="M54.25 50.14l-3.125-5.864c-.375-.748-1.375-.998-2.124-.624l-5.625 3.12c-.376.25-.625.499-.751.873l-3.75 12.228c-.375 1.122.25 2.245 1.376 2.618l7.624 2.372c1.126.375 2.25-.25 2.625-1.372l3.75-12.229c.25-.248.126-.747 0-1.122zm-5.375-2.37c-1.875-.624-1-3.37.875-2.87 1.75.624.876 3.494-.875 2.87z"/>
            <path stroke-width="1.251" d="M50.25 47.271c-1.25-.5-2-1.747-2-3.12a3.359 3.359 0 0 1 3.376-3.368A3.358 3.358 0 0 1 55 44.152v.374M43.5 50.14l8.5 2.745M42.75 52.386l8.5 2.745"/>
        </g>
        <g transform="translate(67.5 69.872)">
            <mask id="ae" fill="#fff">
                <use xlink:href="#ad"/>
            </mask>
            <path fill="#050706" d="M-6.125 8.484H13V-5.662H-6.125z" mask="url(#ae)"/>
        </g>
    </g>
</svg>
