<svg xmlns="http://www.w3.org/2000/svg" xmlns:xlink="http://www.w3.org/1999/xlink" width="46" height="46" viewBox="0 0 46 46">
    <defs>
        <circle id="a" cx="23" cy="23" r="23"/>
        <filter id="b" width="108.7%" height="108.7%" x="-4.3%" y="-4.3%" filterUnits="objectBoundingBox">
            <feGaussianBlur in="SourceAlpha" result="shadowBlurInner1" stdDeviation="1.5"/>
            <feOffset dy="1" in="shadowBlurInner1" result="shadowOffsetInner1"/>
            <feComposite in="shadowOffsetInner1" in2="SourceAlpha" k2="-1" k3="1" operator="arithmetic" result="shadowInnerInner1"/>
            <feColorMatrix in="shadowInnerInner1" values="0 0 0 0 0 0 0 0 0 0 0 0 0 0 0 0 0 0 0.093558785 0"/>
        </filter>
    </defs>
    <g fill="none" fill-rule="evenodd">
        <g opacity=".5">
            <use fill="#F1F1F1" xlink:href="#a"/>
            <use fill="#000" filter="url(#b)" xlink:href="#a"/>
        </g>
        <g fill-rule="nonzero" transform="translate(13 9)">
            <path fill="#FFF" d="M17.32 11.653h-.82V7.45h.82c1.17 0 2.107.96 2.107 2.162 0 1.081-.937 2.042-2.107 2.042z"/>
            <path fill="#000" d="M16.033 6.968h2.106c.937 0 1.756.84 1.756 1.802v1.682c0 .961-.82 1.802-1.756 1.802h-2.106c.936-3.724 0-5.286 0-5.286zm.936 4.205h1.17c.468 0 .82-.36.82-.841V8.65c0-.48-.352-.841-.82-.841h-1.17v3.364zM9.947 17.3c-.936 0-1.872-.24-2.691-.721l1.638 4.926c.117.48.585.84 1.053.84.468 0 .937-.36 1.054-.84l1.638-4.926c-.82.48-1.755.72-2.692.72zm.234 3.844c0 .12-.117.12-.234.12 0 0-.117 0-.234-.12L8.426 17.42h2.926l-1.17 3.724z"/>
            <path fill="#000" d="M9.947 17.78c-3.979 0-7.255-3.964-7.255-8.65 0-4.685 3.276-8.65 7.255-8.65 3.98 0 7.14 3.965 7.14 8.65 0 4.686-3.16 8.65-7.14 8.65zm0-16.458c-3.51 0-6.32 3.483-6.32 7.688s2.81 7.81 6.32 7.81c3.511 0 6.32-3.485 6.32-7.69 0-4.204-2.926-7.808-6.32-7.808z"/>
            <path fill="#000" d="M9.947 27.391H2.926L.35 21.865c-.702-1.322-.117-3.003 1.17-3.844l4.33-2.523.469.84-4.448 2.644c-.819.48-1.17 1.682-.702 2.523l2.34 4.925h6.437v.961z"/>
            <path fill="#000" d="M16.618 27.391H9.596v-.96h6.437l2.34-4.926c.468-.962.117-2.043-.702-2.523l-4.447-2.643.468-.841 4.447 2.643c1.288.72 1.756 2.402 1.17 3.844l-2.691 5.406z"/>
            <path fill="#000" d="M13.107 15.618c-.585 0-1.287-.12-1.99-.36l.235-.962c4.33 1.442 6.202-2.763 6.32-2.883l.818.36c.117.12-1.638 3.845-5.383 3.845z"/>
            <path fill="#020202" d="M7.84 12.614c.937.24 2.693.601 4.448 0 .234-.12.468.24.234.36-.936.962-2.809 2.404-5.032 0-.117-.24.117-.48.35-.36z"/>
            <path fill="#FFF" d="M10.181 15.978c-.936 0-1.755-.48-1.755-1.201 0-.6.82-1.201 1.755-1.201.937 0 1.756.48 1.756 1.2 0 .722-.702 1.202-1.756 1.202zm0-2.042c-.819 0-1.52.48-1.52.961 0 .48.701.961 1.52.961.82 0 1.522-.48 1.522-.961 0-.6-.702-.961-1.522-.961z"/>
            <path fill="#000" d="M7.022 10.332c-.82 0-1.405-.36-1.756-.6-.234-.241-.35-.481-.117-.722.117-.24.468-.24.702-.12 0 0 1.17.841 2.341 0 .234-.12.468-.12.702.12.117.24.117.48-.117.721-.585.36-1.287.6-1.755.6zM12.639 10.332c-.82 0-1.404-.36-1.755-.6-.234-.121-.234-.481-.117-.722.117-.24.468-.24.702-.12 0 0 1.17.841 2.34 0 .234-.12.468-.12.702.12.117.24.117.48-.117.721-.585.36-1.17.6-1.755.6z"/>
            <path fill="#000" d="M1.755 11.053c-.117 0-.234 0-.35-.12-.235-.24-.118-.481 0-.721 0 0 0-.12.116-.12 1.99-3.725 4.916-4.205 6.905-3.845 3.16.48 5.734-2.523 6.085-3.003.117-.48.352-1.442 0-1.922-.234-.24-.234-.481 0-.721.235-.24.469-.24.703 0 .936.96.234 2.763.234 3.003l-.234.24c-.117.12-3.043 3.965-6.905 3.364-2.575-.36-4.564.721-6.085 3.364-.117.24-.117.24-.235.36 0 .12-.117.12-.234.12z"/>
            <path fill="#000" d="M14.863 3.965c-.352 0-.469-.24-.469-.481 0-.24.234-.48.469-.48.117 0 1.053 0 1.287-.601.117-.24.35-.36.585-.24.234.12.351.36.234.6-.351 1.202-1.755 1.202-2.106 1.202zM17.203 7.449c-2.926-.24-4.096-2.283-4.096-2.403-.117-.24 0-.48.234-.6.234-.121.585 0 .702.24 0 .12.937 1.681 3.16 1.801.351 0 .585.24.468.481.117.36-.117.48-.468.48z"/>
            <ellipse cx="10.181" cy="14.777" fill="#020202" rx="1.521" ry="1"/>
        </g>
    </g>
</svg>
