<svg xmlns="http://www.w3.org/2000/svg" xmlns:xlink="http://www.w3.org/1999/xlink" width="46" height="46" viewBox="0 0 46 46">
    <defs>
        <circle id="a" cx="23" cy="23" r="23"/>
        <filter id="b" width="108.7%" height="108.7%" x="-4.3%" y="-4.3%" filterUnits="objectBoundingBox">
            <feGaussianBlur in="SourceAlpha" result="shadowBlurInner1" stdDeviation="1.5"/>
            <feOffset dy="1" in="shadowBlurInner1" result="shadowOffsetInner1"/>
            <feComposite in="shadowOffsetInner1" in2="SourceAlpha" k2="-1" k3="1" operator="arithmetic" result="shadowInnerInner1"/>
            <feColorMatrix in="shadowInnerInner1" values="0 0 0 0 0 0 0 0 0 0 0 0 0 0 0 0 0 0 0.093558785 0"/>
        </filter>
    </defs>
    <g fill="none" fill-rule="evenodd">
        <g opacity=".5">
            <use fill="#F1F1F1" xlink:href="#a"/>
            <use fill="#000" filter="url(#b)" xlink:href="#a"/>
        </g>
        <g fill-rule="nonzero">
            <path fill="#000" d="M33.095 36H13.769C12.817 36 12 35.223 12 34.317V23.445c0-.906.817-1.683 1.77-1.683h19.46c.953 0 1.77.777 1.77 1.683v10.872c-.136.906-.953 1.683-1.905 1.683zM13.769 22.539c-.544 0-.816.388-.816.776v10.873c0 .518.408.777.816.777h19.462c.544 0 .816-.389.816-.777V23.315c0-.518-.408-.776-.816-.776H13.769z"/>
            <path fill="#FFF" d="M27.571 28.333l-8.142-.138-4.143-3.73v-10.36c0-.69.571-1.105 1.143-1.105h13.714c.714 0 1.143.553 1.143 1.105V24.88l-3.715 3.453z"/>
            <path fill="#000" d="M27.744 28.333l-8.214-.13-4.244-3.768v-9.876c0-.78.684-1.559 1.643-1.559H30.07c.822 0 1.643.65 1.643 1.56v10.395l-3.97 3.378zm-7.804-.91l7.53.13 3.423-2.858V14.559c0-.39-.274-.65-.685-.65H16.792c-.274 0-.685.26-.685.65v9.616l3.833 3.249z"/>
            <path fill="#000" d="M13.609 22.538l.075-.082 5.935 5.364-.075.081zM27.298 28.01l6.675-6.036.075.08-6.675 6.037z"/>
            <path fill="#FFF" d="M34.459 33.323L24.312 25.96a1.64 1.64 0 0 0-1.894 0l-9.877 7.363v1.07c0 .536.406 1.072 1.083 1.072h19.752c.542 0 1.083-.402 1.083-1.071v-1.071z"/>
            <path fill="#000" d="M33.376 35.732H13.624c-.812 0-1.489-.669-1.489-1.472v-1.205l10.012-7.496c.677-.536 1.759-.536 2.435 0L35 33.055v1.205c-.135.803-.812 1.472-1.624 1.472zm-20.429-2.275v.803c0 .268.27.535.541.535h19.753c.27 0 .541-.267.541-.535v-.803l-10.011-7.229a1.24 1.24 0 0 0-1.353 0l-9.47 7.229zM28.162 18.148h-9.324c-.133 0-.267-.11-.267-.22 0-.109.134-.218.267-.218h9.324c.133 0 .267.109.267.219s-.134.219-.267.219zM28.294 19.243H18.84c-.135 0-.27-.11-.27-.22 0-.109.135-.218.27-.218h9.453c.135.11.135.11.135.219 0 .11 0 .219-.135.219zM28.162 20.338h-9.324c-.133 0-.267-.11-.267-.219 0-.11.134-.219.267-.219h9.324c.133 0 .267.11.267.219 0 .11-.134.22-.267.22zM28.162 21.433h-9.324c-.133 0-.267-.11-.267-.219 0-.11.134-.219.267-.219h9.324c.133 0 .267.11.267.22l-.267.218z"/>
        </g>
    </g>
</svg>
