<svg xmlns="http://www.w3.org/2000/svg" width="96" height="71" viewBox="0 0 96 71">
    <g fill="none" fill-rule="evenodd">
        <path fill="#E0E5E9" d="M92.299 57.152H77.649c-1.83 0-3.454-1.572-3.462-3.399.008-1.826 1.632-3.241 3.462-3.241h9.476c1.835 0 3.29-1.57 3.298-3.397-.008-1.827-1.463-3.243-3.293-3.243h-2.836c-1.83 0-3.452-1.57-3.46-3.396.008-1.827 1.63-3.245 3.46-3.245h6.774c1.83 0 3.405-1.567 3.414-3.394-.009-1.826-1.584-3.195-3.414-3.195H84.68a33.948 33.948 0 0 0-9.433-17.905C62.784.287 43.085-.53 29.674 10.29l-11.214-.182a3.321 3.321 0 0 0-3.178 4.413 3.323 3.323 0 0 0 3.099 2.226l5.8.124a3.321 3.321 0 0 1 3.282 3.359 3.321 3.321 0 0 1-3.362 3.28l-8.924-.117-9.27-.121a3.321 3.321 0 0 0-3.362 3.28 3.321 3.321 0 0 0 3.283 3.358l9.27.128 2.28.032a3.321 3.321 0 0 1 3.283 3.358 3.321 3.321 0 0 1-3.362 3.28l-2.28-.05-1.236-.029a3.321 3.321 0 0 0-3.362 3.28 3.321 3.321 0 0 0 3.283 3.359l3.86.059a33.947 33.947 0 0 0 9.387 17.658c12.322 12.31 31.718 13.246 45.117 2.808h20.23c1.83 0 3.292-1.574 3.3-3.4"/>
        <path fill="#FFF" d="M73.26 17.582v31.904H53.839l-8.632 8.7v-8.7H28.664V17.582z"/>
        <g fill-rule="nonzero">
            <path fill="#41BC98" d="M50.962 29.183c1.985 0 3.596 1.625 3.596 3.626s-1.611 3.625-3.596 3.625c-1.986 0-3.597-1.624-3.597-3.625s1.611-3.626 3.597-3.626z"/>
            <path fill="#F26B6B" d="M61.032 30.634v4.35h-3.208c-.13.406-.295.798-.49 1.175l2.274 2.291-3.05 3.075-2.273-2.292a7.492 7.492 0 0 1-1.165.493v3.234h-4.316v-3.234a7.5 7.5 0 0 1-1.166-.493l-2.273 2.291-3.05-3.074 2.274-2.291a7.62 7.62 0 0 1-.49-1.175h-3.208v-4.35H44.1c.13-.406.294-.798.489-1.175l-2.273-2.291 3.05-3.075 2.272 2.291a7.492 7.492 0 0 1 1.166-.493v-3.233h4.316v3.234a7.5 7.5 0 0 1 1.165.493l2.273-2.292 3.05 3.075-2.273 2.291c.194.377.36.769.489 1.175h3.208zm-6.474 2.175c0-2.001-1.611-3.626-3.596-3.626s-3.597 1.625-3.597 3.626 1.612 3.625 3.597 3.625c1.985 0 3.596-1.624 3.596-3.625z"/>
        </g>
        <g fill-rule="nonzero">
            <path fill="#101820" d="M32.233 37.313h-1.356v-17.36h4.274v1.366h-2.918z"/>
            <path fill="#FFF" d="M30.877 41.663h1.356v1.45h-1.356zM69.719 46.014h1.356v1.45h-1.356z"/>
            <g fill="#231F20">
                <path d="M59.607 17.052v1.367h12.989v30.537H53.572L45.9 56.691v-7.735h-6.432v1.367h5.077v9.667l9.59-9.667h19.818v-33.27zM29.356 18.419h28.093v-1.367H28v33.27h9.31v-1.366h-7.954z"/>
                <path d="M56.572 23.28l-2.412 2.432a8.191 8.191 0 0 0-.349-.148v-3.436h-5.67v3.436a8.191 8.191 0 0 0-.35.148l-2.411-2.431-4.009 4.04 2.412 2.432a8.33 8.33 0 0 0-.146.35h-3.41v5.718h3.41c.045.117.094.234.146.351l-2.412 2.431 4.009 4.041 2.412-2.431c.115.052.232.101.348.148v3.436h5.671V40.36c.117-.047.233-.096.349-.148l2.412 2.431 4.008-4.04-2.412-2.432c.052-.117.1-.234.147-.351h3.409v-5.717h-3.41a8.524 8.524 0 0 0-.146-.351l2.412-2.432-4.008-4.04zm.175 6.647c.182.354.332.713.445 1.07l.152.473h3.024v2.984h-3.024l-.152.475a6.952 6.952 0 0 1-.445 1.068l-.229.445 2.145 2.162-2.091 2.108-2.145-2.162-.44.23a6.85 6.85 0 0 1-1.06.45l-.471.151v3.05h-2.96v-3.05l-.47-.152a6.85 6.85 0 0 1-1.06-.449l-.441-.23-2.145 2.162-2.091-2.109 2.144-2.161-.229-.445a6.976 6.976 0 0 1-.445-1.068l-.151-.475h-3.025V31.47h3.025l.151-.474c.113-.355.263-.715.445-1.069l.23-.444-2.145-2.162 2.09-2.108 2.146 2.162.44-.23c.35-.184.708-.335 1.06-.45l.47-.152v-3.049h2.96v3.05l.471.151c.353.115.71.266 1.06.45l.441.23 2.145-2.162 2.091 2.108-2.145 2.162.23.444z"/>
                <path d="M50.976 28.654c-2.357 0-4.275 1.933-4.275 4.308 0 2.376 1.918 4.309 4.275 4.309s4.274-1.933 4.274-4.309c0-2.375-1.917-4.308-4.274-4.308zm0 7.25c-1.61 0-2.919-1.32-2.919-2.942s1.31-2.942 2.919-2.942c1.61 0 2.918 1.32 2.918 2.942 0 1.623-1.309 2.943-2.918 2.943zM30.877 38.763h1.356v1.45h-1.356zM30.877 44.564h1.356v1.45h-1.356zM69.719 43.114h1.356v1.45h-1.356zM66.842 46.014h1.356v1.45h-1.356zM71.074 19.953H67.52v1.366h2.2v4.393h1.355z"/>
            </g>
        </g>
        <path fill="#E0E5E9" d="M95.623 60.388v.058-.058zM90.448 47.11l-.001.03v.028-.058zM94.507 33.832V33.89v-.058z"/>
        <path fill="#5B5B5B" d="M84.176 37.231h-2.953a.357.357 0 0 1-.37-.355c0-.203.166-.354.37-.354h2.953c.204 0 .37.15.37.354a.357.357 0 0 1-.37.355M94.514 37.231H86.39a.357.357 0 0 1-.369-.355c0-.203.165-.354.37-.354h8.122c.204 0 .369.15.369.354a.357.357 0 0 1-.37.355M90.453 39.462h-5.907a.357.357 0 0 1-.37-.355c0-.204.165-.355.37-.355h5.907c.204 0 .369.151.369.355a.357.357 0 0 1-.37.355M12.183 44.987h-1.107a.357.357 0 0 1-.37-.355c0-.204.166-.355.37-.355h1.107c.204 0 .37.151.37.355a.357.357 0 0 1-.37.355M17.721 44.987h-1.107a.357.357 0 0 1-.37-.355c0-.204.166-.355.37-.355h1.107c.204 0 .37.151.37.355a.357.357 0 0 1-.37.355M12.049 47.293a.368.368 0 0 1-.261-.63l.783-.782a.37.37 0 0 1 .522.521l-.783.782a.368.368 0 0 1-.261.109M15.965 43.38a.368.368 0 0 1-.261-.629l.783-.782a.37.37 0 0 1 .522.521l-.783.783a.368.368 0 0 1-.261.108M14.39 48.317a.379.379 0 0 1-.381-.37v-1.106c0-.204.176-.369.38-.369.204 0 .38.165.38.37v1.106a.379.379 0 0 1-.38.369M14.39 42.784a.379.379 0 0 1-.381-.369V41.31c0-.204.176-.369.38-.369.204 0 .38.165.38.369v1.106a.379.379 0 0 1-.38.37M16.748 47.293a.368.368 0 0 1-.26-.109l-.784-.782a.368.368 0 1 1 .522-.521l.783.782a.368.368 0 0 1-.26.63M12.832 43.38a.368.368 0 0 1-.26-.107l-.784-.783a.368.368 0 1 1 .522-.521l.783.782a.368.368 0 0 1-.26.63M82.33 25.826h-1.107a.379.379 0 0 1-.37-.38c0-.204.166-.38.37-.38h1.107c.204 0 .37.176.37.38 0 .204-.166.38-.37.38M87.868 25.826h-1.107a.379.379 0 0 1-.37-.38c0-.204.166-.38.37-.38h1.107c.204 0 .37.176.37.38 0 .204-.166.38-.37.38M82.196 28.113a.368.368 0 0 1-.261-.63l.783-.781a.37.37 0 0 1 .522.521l-.783.782a.368.368 0 0 1-.261.108M86.112 24.201a.368.368 0 0 1-.261-.63l.783-.781a.37.37 0 0 1 .522.521l-.783.782a.368.368 0 0 1-.261.108M84.537 29.137a.357.357 0 0 1-.355-.368v-1.107c0-.204.151-.369.355-.369s.355.165.355.37v1.106a.357.357 0 0 1-.355.368M84.537 23.605a.357.357 0 0 1-.355-.369V22.13c0-.204.151-.37.355-.37s.355.166.355.37v1.106a.357.357 0 0 1-.355.369M86.895 28.113a.368.368 0 0 1-.26-.108l-.784-.782a.368.368 0 1 1 .522-.521l.783.782a.369.369 0 0 1-.26.63M82.98 24.201a.368.368 0 0 1-.262-.108l-.783-.782a.368.368 0 1 1 .522-.521l.783.782a.368.368 0 0 1-.26.63M52.056 2.965h-.738a.379.379 0 0 1-.37-.38c0-.204.166-.38.37-.38h.738c.204 0 .37.176.37.38 0 .203-.166.38-.37.38M55.748 2.965h-.738a.379.379 0 0 1-.37-.38c0-.204.166-.38.37-.38h.738c.204 0 .37.176.37.38 0 .203-.166.38-.37.38M53.51 5.164a.379.379 0 0 1-.381-.37v-.737c0-.204.177-.369.38-.369.205 0 .381.165.381.37v.737a.379.379 0 0 1-.38.369M53.51 1.475a.379.379 0 0 1-.381-.369V.37c0-.204.177-.369.38-.369.205 0 .381.165.381.369v.737a.379.379 0 0 1-.38.37M91.93 56.797h-.739a.357.357 0 0 1-.37-.354c0-.204.166-.355.37-.355h.738c.204 0 .37.15.37.355a.357.357 0 0 1-.37.354M95.621 56.797h-.738a.357.357 0 0 1-.37-.354c0-.204.166-.355.37-.355h.738c.204 0 .37.15.37.355a.357.357 0 0 1-.37.354M93.391 59.013a.379.379 0 0 1-.38-.37v-.737c0-.204.176-.369.38-.369.204 0 .38.165.38.37v.737a.379.379 0 0 1-.38.369M93.391 55.324a.379.379 0 0 1-.38-.369v-.737c0-.204.176-.369.38-.369.204 0 .38.165.38.369v.737a.379.379 0 0 1-.38.37M4.43 26.941H.738a.379.379 0 0 1-.369-.38c0-.204.165-.38.37-.38H4.43c.204 0 .37.176.37.38 0 .204-.166.38-.37.38M16.614 25.066H5.907a.357.357 0 0 1-.37-.355c0-.204.166-.355.37-.355h10.707c.204 0 .369.151.369.355a.357.357 0 0 1-.37.355M12.922 22.48H9.968a.357.357 0 0 1-.369-.354c0-.204.165-.355.37-.355h2.953c.204 0 .369.151.369.355a.357.357 0 0 1-.37.355M7.015 22.48H.369A.357.357 0 0 1 0 22.127c0-.204.165-.355.37-.355h6.645c.204 0 .369.151.369.355a.357.357 0 0 1-.37.355M39.504 64.908H20.306a.357.357 0 0 1-.37-.355c0-.204.166-.355.37-.355h19.198c.204 0 .369.151.369.355a.357.357 0 0 1-.37.355M30.643 67.493h-6.645a.357.357 0 0 1-.37-.355c0-.204.166-.355.37-.355h6.645c.204 0 .37.151.37.355a.357.357 0 0 1-.37.355M36.55 67.493h-2.215a.357.357 0 0 1-.37-.355c0-.204.166-.355.37-.355h2.215c.204 0 .37.151.37.355a.357.357 0 0 1-.37.355"/>
    </g>
</svg>
