<svg xmlns="http://www.w3.org/2000/svg" width="96" height="72" viewBox="0 0 96 72">
    <g fill="none" fill-rule="evenodd">
        <path fill="#E0E5E9" d="M92.299 58.152H77.649c-1.83 0-3.454-1.572-3.462-3.399.008-1.826 1.632-3.241 3.462-3.241h9.476c1.835 0 3.29-1.57 3.298-3.397-.008-1.827-1.463-3.243-3.293-3.243h-2.836c-1.83 0-3.452-1.57-3.46-3.396.008-1.827 1.63-3.245 3.46-3.245h6.774c1.83 0 3.405-1.567 3.414-3.394-.009-1.826-1.584-3.195-3.414-3.195H84.68a33.948 33.948 0 0 0-9.433-17.905C62.784 1.287 43.085.47 29.674 11.29l-11.214-.182a3.321 3.321 0 0 0-3.178 4.413 3.323 3.323 0 0 0 3.099 2.226l5.8.124a3.321 3.321 0 0 1 3.282 3.359 3.321 3.321 0 0 1-3.362 3.28l-8.924-.117-9.27-.121a3.321 3.321 0 0 0-3.362 3.28 3.321 3.321 0 0 0 3.283 3.358l9.27.128 2.28.032a3.321 3.321 0 0 1 3.283 3.358 3.321 3.321 0 0 1-3.362 3.28l-2.28-.05-1.236-.029a3.321 3.321 0 0 0-3.362 3.28 3.321 3.321 0 0 0 3.283 3.359l3.86.059a33.947 33.947 0 0 0 9.387 17.658c12.322 12.31 31.718 13.246 45.117 2.808h20.23c1.83 0 3.292-1.574 3.3-3.4"/>
        <path fill="#40BB94" fill-rule="nonzero" d="M70.876 13.853c1.179-.057.954-1.853-.169-1.797-1.572 0-3.256.674-3.874 2.133-.561.169-1.067.337-1.46.562-1.01.561 0 2.02 1.01 1.516.113-.056.17-.056.282-.113.224 1.572 1.235 3.144 3.031 2.639 1.629-.505 2.583-2.302 1.348-3.705a3.689 3.689 0 0 0-1.628-.955c.393-.224.954-.28 1.46-.28zm-1.067 2.526c.056.45-.393.674-.786.505-.337-.112-.506-.617-.562-1.123.113 0 .225.057.337 0 .225.113.898.225 1.01.618z"/>
        <path fill="#D3D2D1" fill-rule="nonzero" d="M12.428 14.807c-.955.168-1.123-1.291-.169-1.46 1.348-.224 2.751 0 3.537 1.01.45 0 .899.113 1.292.17.954.28.337 1.627-.562 1.347-.056-.056-.168-.056-.224-.056.056 1.29-.45 2.75-1.965 2.638-1.46-.168-2.47-1.403-1.685-2.75.281-.506.674-.843 1.18-1.011-.562 0-.955.056-1.404.112zm1.347 1.853c.056.336.45.449.73.28.28-.168.337-.617.28-1.01-.111 0-.168 0-.28.112-.224.056-.786.28-.73.618z"/>
        <path fill="#40BB94" fill-rule="nonzero" d="M29.664 31.256c-.73.393-1.74-2.302-2.47-2.75-.337-.17-.786-.225-1.179-.225-.337 0-1.404.393-1.684.28-.618-.393-.225-1.852-1.123-2.357-.562-.393-3.088 0-3.088-.45-.056-1.066-1.74-.842-1.685.225.056 1.291 1.067 1.909 2.302 1.796.674 0 .786-.336 1.404.169.505.449.168.674.45 1.123.224.561.504.898 1.066 1.066.674.225 1.291-.224 1.853-.112 1.403.168.954 1.067 1.403 1.909.674 1.347 2.19 1.516 3.425.954.842-.561.281-2.133-.674-1.628z"/>
        <path fill="#D3D2D1" fill-rule="nonzero" d="M85.923 15.65c-.225.56-1.966-.282-2.47-.113-.282.056-.562.28-.73.449-.17.168-.618.898-.843.954-.505.169-.898-.786-1.628-.617-.45.112-1.685 1.572-1.853 1.347-.505-.505-1.291.45-.842.898.561.562 1.404.393 2.021-.28.337-.393.28-.562.786-.562.45-.056.337.169.73.337.393.169.618.169 1.01-.056.45-.225.562-.73.955-.954.786-.618 1.01 0 1.572.224.955.337 1.853-.337 2.19-1.235.393-.674-.674-1.067-.898-.393z"/>
        <path fill="#F26C6B" fill-rule="nonzero" d="M76.04 30.526a3.64 3.64 0 0 0 1.068-1.179c.112 0 .28 0 .393-.112.673-.224 1.46-.786 2.021-1.572 1.291-.224 2.527-1.572 2.695-2.695.056-.561-.786-.786-.842-.224-.056.505-.618 1.347-1.18 1.684.113-.28.113-.617.057-.898-.169-.955-1.291-1.684-2.19-1.01-1.01.785-.617 2.47.393 3.03-.28.225-.505.45-.786.618.112-.505 0-1.066-.393-1.46-.786-.785-2.19-.392-2.358.787-.168.898.45 1.46 1.235 1.74-.505.73-1.179.561-2.077-.449.056-.561-.842-.561-.899 0-.28 1.796 1.348 2.75 2.864 1.74zm2.303-4.66c-.056 0-.056 0 0 0l.168-.168c.506-.561 1.348.225.843.786-.506.505-1.236-.056-1.011-.617zm-2.47 1.573c.449-.506 1.235.224.73.73-.45.56-1.18-.169-.73-.73z"/>
        <path fill="#FFF" fill-rule="nonzero" stroke="#000" stroke-linecap="round" stroke-width=".56" d="M21.804 20.477c-.505.505-.225 1.572.674 1.46.842-.112.898-1.123.393-1.516"/>
        <path fill="#40BB94" fill-rule="nonzero" d="M85.193 22.33c-1.01.224-.618 1.909.393 1.628 1.01-.225.617-1.853-.393-1.628z"/>
        <path fill="#D3D2D1" fill-rule="nonzero" d="M24.948 12.45c-1.909.224-1.516 3.143.337 2.918 1.91-.28 1.516-3.143-.337-2.919z"/>
        <path fill="#FFF" fill-rule="nonzero" stroke="#000" stroke-linecap="round" stroke-width="1.12" d="M80.701 5.993c-1.235.674-.842 2.863.842 2.75 1.74-.168 2.021-2.3.45-2.862M67.226 26.484c-1.909.225-1.516 3.144.337 2.92 1.067-.113 1.46-1.123 1.179-1.965"/>
        <path fill="#F26B6B" fill-rule="nonzero" d="M69.753 3.074S67.45 1.782 67 3.523c-.561 2.077 3.425 3.312 4.604 2.695.393-.225 1.18-1.516 1.292-2.64.28-1.571-.225-2.525-1.01-2.75-1.685-.393-2.134 2.246-2.134 2.246z"/>
        <path fill="#F26C6B" fill-rule="nonzero" d="M17.144 5.993c.393.168 1.01.28 1.572.28a.677.677 0 0 0 .28.281c.562.45 1.46.786 2.415.842.898.955 2.695 1.292 3.762.843.505-.225.224-1.067-.28-.843-.45.225-1.46.225-2.022-.056.28-.056.617-.224.786-.449.674-.673.73-1.965-.337-2.358-1.18-.449-2.414.786-2.358 1.91-.337-.113-.674-.225-.955-.338.506-.168.899-.561 1.011-1.123.225-1.066-.842-2.02-1.909-1.571-.842.393-1.01 1.178-.842 1.964-.898-.056-1.123-.73-.73-1.964.505-.225 0-1.011-.505-.73-1.572.673-1.516 2.638.112 3.312zm5.165-.561c.057 0 .169 0 .225.056.73.168.561 1.29-.168 1.123-.674-.169-.618-1.067-.057-1.18zm-2.638-1.236c.673.113.505 1.18-.225 1.011-.674-.056-.45-1.067.225-1.01z"/>
        <path fill="#F26B6B" fill-rule="nonzero" d="M32.079 25.586s-.899-.45-1.067.225c-.168.842 1.404 1.235 1.797.954.168-.056.449-.618.505-1.067.112-.617-.112-1.01-.393-1.01-.73-.169-.842.898-.842.898zM55.997 23.79s-.169-1.011-.786-.73c-.786.28-.169 1.796.28 2.077.113.056.73 0 1.123-.225.562-.28.73-.673.618-.954-.337-.618-1.235-.169-1.235-.169z"/>
        <path fill="#D3D2D1" fill-rule="nonzero" d="M59.478 19.242s-.225-.73-.73-.561c-.618.168 0 1.235.393 1.403.112.056.618.056.955-.056.449-.168.505-.393.393-.617-.281-.393-1.011-.169-1.011-.169z"/>
        <path fill="#40BB94" fill-rule="nonzero" d="M58.748 6.161s1.01-1.347 1.797-.505c1.01 1.01-1.123 2.807-2.022 2.807-.28 0-1.179-.561-1.628-1.123-.617-.842-.617-1.572-.168-1.852.954-.618 2.021.673 2.021.673z"/>
        <g fill-rule="nonzero">
            <path fill="#D0D2D3" d="M59.815 12.337h-1.46a.384.384 0 0 0-.393.393v1.46c0 .224.168.392.393.392h1.46a.384.384 0 0 0 .393-.393v-1.46c-.056-.224-.225-.392-.393-.392"/>
            <g fill="#3CB992">
                <path d="M32.584.772h-1.46a.384.384 0 0 0-.393.393v1.46c0 .224.169.393.393.393h1.46a.384.384 0 0 0 .393-.393v-1.46a.384.384 0 0 0-.393-.393M28.092 21.263h-.73c-.112 0-.168.056-.168.169v.73c0 .112.056.168.168.168h.73c.113 0 .169-.056.169-.169v-.73c.056-.112-.056-.168-.169-.168"/>
            </g>
        </g>
        <g fill-rule="nonzero" transform="translate(26.24 3.13)">
            <path fill="#E5E5E5" d="M38.348 54.85c-9.208.168-18.472.224-27.68.392-3.481.056-7.019.169-10.331 1.797 2.133 2.077 5.334-.169 7.916.898.674.337 1.292.842 2.078 1.179.842.393 1.796.393 2.639.393 2.695.056 5.334.168 8.14.168 4.942.169 9.883.169 14.823-.056 4.043-.168 7.973-.674 11.96-1.235.73-.168 1.74-.393 1.796-1.46-3.93-.898-7.299-2.133-11.341-2.077z"/>
            <path fill="#FFF" d="M43.625 31.72l-32.059-.338c-1.179 0-1.179-1.571-.056-1.571h-.225 33.969c.561 0 .842.168.842.393v22.568a.384.384 0 0 1-.393.393h-1.01a.384.384 0 0 1-.394-.393V32.168c-.168-.168-.393-.449-.674-.449"/>
            <path fill="#010101" d="M45.534 53.895h-1.01c-.562 0-1.067-.506-1.067-1.067V32.393l-31.891-.337c-.393 0-.842-.168-1.067-.393-.224-.224-.393-.561-.393-1.01 0-.73.506-1.292 1.18-1.404h33.968c1.066 0 1.46.562 1.46 1.067v22.512c-.113.561-.506 1.067-1.18 1.067zm-.842-1.235h.674V30.484H11.51c-.056 0-.169 0-.169.169 0 .168.169.168.225.168l32.06.337c.56 0 1.178.505 1.178 1.067V52.66h-.112z"/>
            <g transform="translate(12.352)">
                <path fill="#41BB94" stroke="#FFF" stroke-width=".5" d="M6.962 32.225C9.713 22.175-2.302 17.46.45 7.41c3.2-2.415 6.4-4.829 9.657-7.243-1.628 12.127 15.609 17.404 13.98 29.53-5.726.842-11.453 1.684-17.124 2.527z"/>
                <path fill="#41BB94" stroke="#FFF" stroke-width=".5" d="M21.335 24.87c0-.056 0-.056-.056-.112-1.067-2.92-3.425-5.558-5.951-8.365-2.639-2.92-5.334-5.95-6.738-9.656-.898.112-1.796-.112-2.358-.955l-2.47 1.853c.28 1.347-.45 2.358-1.516 2.807 0 1.01.168 2.021.561 3.032.618 1.684 1.629 3.312 2.751 5.052 1.18 1.853 2.359 3.762 3.145 5.895.28.842.505 1.684.673 2.526 1.067-.112 2.134.337 2.583 1.628.056.169.112.337.112.506l6.626-1.01c-.45-1.797 1.066-3.145 2.638-3.2z"/>
                <ellipse cx="8.08" cy="4.767" fill="#FFF" rx="1" ry="1" transform="rotate(-20.024 8.08 4.767)"/>
                <ellipse cx="6.509" cy="12.137" fill="#FFF" rx="3.088" ry="2.133" transform="rotate(-29.821 6.509 12.137)"/>
            </g>
            <g transform="translate(7.86 .561)">
                <path fill="#41BB94" stroke="#FFF" stroke-width=".5" d="M10.948 32.45C11.96 22.062-.73 19.536.281 9.15L8.534.394c.45 12.182 18.304 14.372 18.809 26.61-5.446 1.797-10.948 3.593-16.395 5.446z"/>
                <path fill="#41BB94" stroke="#FFF" stroke-width=".5" d="M23.862 22.737c0-.056-.056-.056-.056-.112-1.572-2.695-4.323-4.885-7.3-7.186-3.087-2.414-6.287-4.94-8.309-8.365-.842.28-1.796.168-2.526-.506L3.537 8.814c.506 1.291-.056 2.414-1.01 3.032a8.36 8.36 0 0 0 1.066 2.919c.899 1.572 2.19 2.975 3.538 4.491 1.46 1.628 2.975 3.312 4.098 5.277.45.786.786 1.572 1.123 2.358 1.01-.28 2.19-.056 2.864 1.123.112.168.168.337.224.505l6.457-2.077c-.898-1.796.449-3.368 1.965-3.705z"/>
                <ellipse cx="7.297" cy="5.227" fill="#FFF" rx="1" ry="1" transform="rotate(-29.947 7.297 5.227)"/>
                <ellipse cx="7.07" cy="12.736" fill="#FFF" rx="3.088" ry="2.133" transform="rotate(-39.746 7.07 12.736)"/>
            </g>
            <g transform="translate(3.369 1.684)">
                <path fill="#41BB94" stroke="#FFF" stroke-width=".5" d="M13.756 31.944C13.587 21.502.674 20.435.506 9.937c2.414-3.2 4.828-6.4 7.242-9.656C9.601 12.407 27.624 12.63 29.42 24.7l-15.664 7.243z"/>
                <path fill="#41BB94" stroke="#FFF" stroke-width=".5" d="M25.49 20.884c0-.056-.056-.056-.056-.112-1.853-2.526-4.828-4.379-8.029-6.344-3.369-2.077-6.793-4.21-9.208-7.354-.786.393-1.74.393-2.526-.225L3.818 9.32c.674 1.18.225 2.414-.674 3.144.28.955.73 1.853 1.404 2.751 1.067 1.46 2.526 2.75 4.042 4.098 1.629 1.46 3.313 2.92 4.717 4.772.505.73.954 1.46 1.347 2.19.955-.393 2.134-.281 2.976.842.112.168.224.28.28.449l6.12-2.807c-1.123-1.628 0-3.369 1.46-3.874z"/>
                <ellipse cx="7.14" cy="5.314" fill="#FFF" rx="1" ry="1" transform="rotate(-36.362 7.14 5.314)"/>
                <ellipse cx="7.69" cy="12.809" fill="#FFF" rx="3.088" ry="2.134" transform="rotate(-46.159 7.69 12.809)"/>
            </g>
            <path fill="#FFF" d="M42.895 56.702h-30.43c-1.011 0-1.797-.73-1.797-1.797v-23.41h32.171c1.01 0 1.797.73 1.797 1.796v21.67c0 .899-.73 1.74-1.74 1.74z"/>
            <path fill="#010101" d="M42.895 57.375h-30.43c-1.292 0-2.415-1.066-2.415-2.414V30.933h32.79c1.29 0 2.414 1.067 2.414 2.414v21.67c-.057 1.292-1.123 2.358-2.359 2.358zM11.341 32.168v22.737c0 .674.506 1.18 1.18 1.18h30.43c.562 0 1.067-.506 1.18-1.18V33.291c0-.673-.506-1.179-1.18-1.179-.056.056-31.61.056-31.61.056z"/>
            <path fill="#010101" d="M40.257 34.526H13.868c-.337 0-.674-.224-.674-.673 0-.337.225-.674.674-.674h26.389c.336 0 .673.225.673.674 0 .336-.28.673-.673.673zM40.65 54.793h-4.548c-.337 0-.674-.225-.674-.674 0-.337.225-.673.674-.673h4.548c.561 0 1.066-.506 1.066-1.067v-15.72c0-.336.225-.673.674-.673.337 0 .674.225.674.674V52.49c0 1.235-1.067 2.302-2.414 2.302z"/>
            <path fill="#FFF" d="M46.826 45.474h-6.513a2.312 2.312 0 0 1-2.302-2.302 2.312 2.312 0 0 1 2.302-2.302h6.513v4.604z"/>
            <path fill="#010101" d="M47.443 46.091h-7.186a2.96 2.96 0 0 1-2.976-2.975c0-1.684 1.291-2.976 2.976-2.976h7.186v5.951zm-7.186-4.716c-.899 0-1.741.73-1.741 1.74 0 1.011.73 1.741 1.74 1.741h5.952v-3.48h-5.951z"/>
            <ellipse cx="40.257" cy="43.172" fill="#F26D6B" rx="1" ry="1"/>
            <path fill="#040404" d="M34.08 43.677a13.002 13.002 0 0 0-4.379-.112c-.224.056-.393-.169-.337-.28.73-.899 2.808-2.976 5.053.111.169.113-.056.281-.336.281zM19.595 43.509a13.002 13.002 0 0 0-4.38-.113c-.224.057-.393-.168-.336-.28.73-.898 2.807-2.976 5.053.112.168.112-.056.28-.337.28z"/>
            <g>
                <path fill="#040404" d="M30.543 47.27c-2.077.505-5.951 1.18-11.06.28-.562-.111-1.067.45-.843.955 1.74 2.92 6.85 9.488 12.69-.337.392-.505-.113-1.066-.787-.898z"/>
                <path fill="#F26D6B" d="M27.848 51.818s-2.582-1.123-5.334.224c-.056-.056 2.527 2.246 5.334-.224z"/>
                <path fill="#040404" d="M19.988 46.933s-1.404.281-1.965 2.47c0 0-.842-2.133 1.965-2.47zM32.228 48.786s.224-1.01-2.415-2.246c.057 0 3.2.393 2.415 2.246z"/>
            </g>
        </g>
        <g transform="translate(20.064 43.55)">
            <ellipse cx="8.759" cy="8.814" fill="#41BB94" fill-rule="nonzero" rx="8.59" ry="8.589"/>
            <path stroke="#FFF" stroke-linecap="round" stroke-width="2.24" d="M4.099 8.365l4.042 3.312 5.222-5.838"/>
        </g>
        <path fill="#E0E5E9" d="M95.623 61.388v.058-.058zM90.448 48.11l-.001.03v.028-.058zM94.507 34.832V34.89v-.058z"/>
        <path fill="#5B5B5B" d="M84.176 38.231h-2.953a.357.357 0 0 1-.37-.355c0-.203.166-.354.37-.354h2.953c.204 0 .37.15.37.354a.357.357 0 0 1-.37.355M94.514 38.231H86.39a.357.357 0 0 1-.369-.355c0-.203.165-.354.37-.354h8.122c.204 0 .369.15.369.354a.357.357 0 0 1-.37.355M90.453 40.462h-5.907a.357.357 0 0 1-.37-.355c0-.204.165-.355.37-.355h5.907c.204 0 .369.151.369.355a.357.357 0 0 1-.37.355M12.183 45.987h-1.107a.357.357 0 0 1-.37-.355c0-.204.166-.355.37-.355h1.107c.204 0 .37.151.37.355a.357.357 0 0 1-.37.355M17.721 45.987h-1.107a.357.357 0 0 1-.37-.355c0-.204.166-.355.37-.355h1.107c.204 0 .37.151.37.355a.357.357 0 0 1-.37.355M12.049 48.293a.368.368 0 0 1-.261-.63l.783-.782a.37.37 0 0 1 .522.521l-.783.782a.368.368 0 0 1-.261.109M15.965 44.38a.368.368 0 0 1-.261-.629l.783-.782a.37.37 0 0 1 .522.521l-.783.783a.368.368 0 0 1-.261.108M14.39 49.317a.379.379 0 0 1-.381-.37v-1.106c0-.204.176-.369.38-.369.204 0 .38.165.38.37v1.106a.379.379 0 0 1-.38.369M14.39 43.784a.379.379 0 0 1-.381-.369V42.31c0-.204.176-.369.38-.369.204 0 .38.165.38.369v1.106a.379.379 0 0 1-.38.37M16.748 48.293a.368.368 0 0 1-.26-.109l-.784-.782a.368.368 0 1 1 .522-.521l.783.782a.368.368 0 0 1-.26.63M12.832 44.38a.368.368 0 0 1-.26-.107l-.784-.783a.368.368 0 1 1 .522-.521l.783.782a.368.368 0 0 1-.26.63M82.33 26.826h-1.107a.379.379 0 0 1-.37-.38c0-.204.166-.38.37-.38h1.107c.204 0 .37.176.37.38 0 .204-.166.38-.37.38M87.868 26.826h-1.107a.379.379 0 0 1-.37-.38c0-.204.166-.38.37-.38h1.107c.204 0 .37.176.37.38 0 .204-.166.38-.37.38M82.196 29.113a.368.368 0 0 1-.261-.63l.783-.781a.37.37 0 0 1 .522.521l-.783.782a.368.368 0 0 1-.261.108M86.112 25.201a.368.368 0 0 1-.261-.63l.783-.781a.37.37 0 0 1 .522.521l-.783.782a.368.368 0 0 1-.261.108M84.537 30.137a.357.357 0 0 1-.355-.368v-1.107c0-.204.151-.369.355-.369s.355.165.355.37v1.106a.357.357 0 0 1-.355.368M84.537 24.605a.357.357 0 0 1-.355-.369V23.13c0-.204.151-.37.355-.37s.355.166.355.37v1.106a.357.357 0 0 1-.355.369M86.895 29.113a.368.368 0 0 1-.26-.108l-.784-.782a.368.368 0 1 1 .522-.521l.783.782a.369.369 0 0 1-.26.63M82.98 25.201a.368.368 0 0 1-.262-.108l-.783-.782a.368.368 0 1 1 .522-.521l.783.782a.368.368 0 0 1-.26.63M52.056 3.965h-.738a.379.379 0 0 1-.37-.38c0-.204.166-.38.37-.38h.738c.204 0 .37.176.37.38 0 .203-.166.38-.37.38M55.748 3.965h-.738a.379.379 0 0 1-.37-.38c0-.204.166-.38.37-.38h.738c.204 0 .37.176.37.38 0 .203-.166.38-.37.38M53.51 6.164a.379.379 0 0 1-.381-.37v-.737c0-.204.177-.369.38-.369.205 0 .381.165.381.37v.737a.379.379 0 0 1-.38.369M53.51 2.475a.379.379 0 0 1-.381-.369V1.37c0-.204.177-.369.38-.369.205 0 .381.165.381.369v.737a.379.379 0 0 1-.38.37M91.93 57.797h-.739a.357.357 0 0 1-.37-.354c0-.204.166-.355.37-.355h.738c.204 0 .37.15.37.355a.357.357 0 0 1-.37.354M95.621 57.797h-.738a.357.357 0 0 1-.37-.354c0-.204.166-.355.37-.355h.738c.204 0 .37.15.37.355a.357.357 0 0 1-.37.354M93.391 60.013a.379.379 0 0 1-.38-.37v-.737c0-.204.176-.369.38-.369.204 0 .38.165.38.37v.737a.379.379 0 0 1-.38.369M93.391 56.324a.379.379 0 0 1-.38-.369v-.737c0-.204.176-.369.38-.369.204 0 .38.165.38.369v.737a.379.379 0 0 1-.38.37M4.43 27.941H.738a.379.379 0 0 1-.369-.38c0-.204.165-.38.37-.38H4.43c.204 0 .37.176.37.38 0 .204-.166.38-.37.38M12.922 23.48H9.968a.357.357 0 0 1-.369-.354c0-.204.165-.355.37-.355h2.953c.204 0 .369.151.369.355a.357.357 0 0 1-.37.355M7.015 23.48H.369A.357.357 0 0 1 0 23.127c0-.204.165-.355.37-.355h6.645c.204 0 .369.151.369.355a.357.357 0 0 1-.37.355M39.504 65.908H20.306a.357.357 0 0 1-.37-.355c0-.204.166-.355.37-.355h19.198c.204 0 .369.151.369.355a.357.357 0 0 1-.37.355M30.643 68.493h-6.645a.357.357 0 0 1-.37-.355c0-.204.166-.355.37-.355h6.645c.204 0 .37.151.37.355a.357.357 0 0 1-.37.355M36.55 68.493h-2.215a.357.357 0 0 1-.37-.355c0-.204.166-.355.37-.355h2.215c.204 0 .37.151.37.355a.357.357 0 0 1-.37.355"/>
    </g>
</svg>
