<svg xmlns="http://www.w3.org/2000/svg" width="125" height="92" viewBox="0 0 125 92">
    <g fill="none" fill-rule="evenodd">
        <path fill="#E0E5E9" d="M120.18 74.057h-19.075c-2.383 0-4.497-2.037-4.508-4.405.011-2.366 2.125-4.2 4.508-4.2h12.345c2.383 0 4.278-2.035 4.288-4.402-.01-2.367-1.905-4.202-4.288-4.202H109.758c-2.383 0-4.495-2.033-4.506-4.4.011-2.367 2.123-4.205 4.506-4.205h8.82c2.383 0 4.434-2.03 4.445-4.398-.01-2.366-2.062-4.14-4.445-4.14h-8.318c-1.577-8.5-5.67-16.628-12.283-23.201C81.75.37 56.1-.686 38.638 13.334l-14.602-.236c-2.39-.028-4.349 1.875-4.377 4.25-.007.514.079 1.008.24 1.468a4.326 4.326 0 0 0 4.035 2.884l7.55.162c2.39.028 4.304 1.976 4.276 4.352-.029 2.375-1.989 4.278-4.378 4.25l-11.62-.152-12.07-.157c-2.39-.028-4.35 1.874-4.378 4.25-.028 2.375 1.886 4.324 4.275 4.352l12.07.166 2.968.04c2.39.029 4.303 1.977 4.275 4.352-.028 2.376-1.988 4.279-4.377 4.25l-2.968-.066-1.61-.035c-2.39-.029-4.35 1.874-4.378 4.25-.028 2.375 1.886 4.323 4.275 4.351l5.026.077c1.62 8.383 5.693 16.39 12.222 22.88 16.045 15.952 41.3 17.164 58.746 3.639h26.342c2.383 0 4.286-2.039 4.297-4.406-.01-2.366-1.914-4.198-4.297-4.198"/>
        <path fill="#FFF" d="M66 20s-8.447 9.11-22 8.54l.393 21.355C44.57 59.53 52.373 67.708 66 72c13.628-4.292 21.43-12.47 21.607-22.105L88 28.54C74.447 29.11 66 20 66 20z"/>
        <path fill="#41BC98" fill-rule="nonzero" d="M54 36h24v20H54z"/>
        <path fill="#F26B6B" d="M62 36h8v6h-8z"/>
        <g fill="#000" fill-rule="nonzero">
            <path d="M77.894 57.15c.599 0 1.085-.471 1.085-1.054V35.904c0-.583-.486-1.055-1.085-1.055H54.106c-.599 0-1.085.472-1.085 1.055v20.192c0 .583.486 1.055 1.085 1.055h23.788zm-8.971-20.192v4.214h-5.846v-4.214h5.846zm-13.732 0h5.716v5.27c0 .582.486 1.054 1.085 1.054h8.016c.599 0 1.085-.472 1.085-1.055v-5.269h5.716v18.083H55.19V36.958z"/>
            <path d="M70.008 49.379h-8.016c-.599 0-1.085.472-1.085 1.054 0 .583.486 1.055 1.085 1.055h8.016c.599 0 1.085-.472 1.085-1.055 0-.582-.486-1.054-1.085-1.054z"/>
            <path d="M88.576 27.821a1.096 1.096 0 0 0-.805-.298c-6.642.28-11.974-1.944-15.278-3.86-3.612-2.095-5.666-4.291-5.685-4.312A1.1 1.1 0 0 0 66 19c-.309 0-.602.128-.808.35-.078.085-7.698 8.197-19.813 8.197-.379 0-.763-.008-1.15-.024-.3-.014-.59.095-.805.298a1.04 1.04 0 0 0-.327.774l.39 21.311c.054 2.97.793 5.835 2.195 8.513a1.1 1.1 0 0 0 1.46.462c.533-.264.746-.9.474-1.419a16.904 16.904 0 0 1-1.96-7.593l-.37-20.213c6.673.02 12.024-2.252 15.403-4.223 2.544-1.483 4.347-2.993 5.31-3.882.965.889 2.768 2.399 5.312 3.882 3.365 1.963 8.682 4.224 15.318 4.224h.085l-.37 20.212C86.176 59.07 78.767 66.699 66 70.835c-5.4-1.75-9.866-4.132-13.279-7.085a1.107 1.107 0 0 0-1.531.086 1.034 1.034 0 0 0 .089 1.49c3.708 3.208 8.548 5.773 14.385 7.622a1.114 1.114 0 0 0 .672 0c6.868-2.176 12.31-5.31 16.172-9.311 3.837-3.976 5.914-8.724 6.006-13.731l.39-21.31a1.039 1.039 0 0 0-.328-.775z"/>
            <path d="M49.007 60.428c-.598 0-1.085.474-1.085 1.055 0 .58.487 1.055 1.085 1.055.597 0 1.085-.474 1.085-1.055s-.488-1.055-1.085-1.055z"/>
        </g>
        <path fill="#E0E5E9" d="M124.51 78.25l-.002.037.001.037v-.075zM117.77 61.044v.075-.075zM123.056 43.84l-.001.037v.037-.075z"/>
        <path fill="#5B5B5B" d="M109.605 48.243h-3.846c-.266 0-.48-.196-.48-.46 0-.263.214-.46.48-.46h3.846c.265 0 .48.197.48.46 0 .264-.215.46-.48.46M123.065 48.243h-10.576c-.266 0-.48-.196-.48-.46 0-.263.214-.46.48-.46h10.576c.265 0 .48.197.48.46 0 .264-.215.46-.48.46M117.777 51.133h-7.692c-.265 0-.48-.196-.48-.46 0-.263.215-.46.48-.46h7.692c.266 0 .48.197.48.46 0 .264-.214.46-.48.46M15.864 58.293h-1.442c-.266 0-.481-.196-.481-.46s.215-.46.48-.46h1.443c.266 0 .48.196.48.46s-.214.46-.48.46M23.075 58.293h-1.443c-.265 0-.48-.196-.48-.46s.215-.46.48-.46h1.443c.265 0 .48.196.48.46s-.215.46-.48.46M15.689 61.28a.476.476 0 0 1-.34-.816l1.02-1.013a.482.482 0 0 1 .68 0 .476.476 0 0 1 0 .676l-1.02 1.013a.48.48 0 0 1-.34.14M20.787 56.211a.476.476 0 0 1-.34-.816l1.02-1.013a.483.483 0 0 1 .68 0 .476.476 0 0 1 0 .676l-1.02 1.013a.48.48 0 0 1-.34.14M18.736 62.607a.492.492 0 0 1-.496-.478v-1.433c0-.264.23-.478.496-.478.265 0 .495.214.495.478v1.433c0 .265-.23.478-.495.478M18.736 55.439a.492.492 0 0 1-.496-.478v-1.434c0-.264.23-.478.496-.478.265 0 .495.214.495.478v1.434c0 .264-.23.478-.495.478M21.808 61.28a.48.48 0 0 1-.34-.14l-1.02-1.013a.476.476 0 0 1 0-.676.482.482 0 0 1 .68 0l1.02 1.014a.476.476 0 0 1-.34.815M16.709 56.211a.48.48 0 0 1-.34-.14l-1.02-1.013a.476.476 0 0 1 0-.676.483.483 0 0 1 .68 0l1.02 1.014a.476.476 0 0 1-.34.815M107.201 33.465h-1.442a.492.492 0 0 1-.48-.493c0-.264.214-.493.48-.493h1.442c.266 0 .48.23.48.493a.492.492 0 0 1-.48.493M114.412 33.465h-1.442a.492.492 0 0 1-.481-.493c0-.264.215-.493.48-.493h1.443c.265 0 .48.23.48.493a.492.492 0 0 1-.48.493M107.026 36.429a.476.476 0 0 1-.34-.816l1.02-1.014a.483.483 0 0 1 .68 0 .476.476 0 0 1 0 .676l-1.02 1.014a.48.48 0 0 1-.34.14M112.125 31.36a.476.476 0 0 1-.34-.816l1.02-1.014a.483.483 0 0 1 .68 0 .476.476 0 0 1 0 .676l-1.02 1.014a.48.48 0 0 1-.34.14M110.074 37.756a.464.464 0 0 1-.462-.478v-1.434c0-.264.197-.478.462-.478.266 0 .463.214.463.478v1.434a.464.464 0 0 1-.463.478M110.074 30.587a.464.464 0 0 1-.462-.478v-1.434c0-.264.197-.478.462-.478.266 0 .463.214.463.478v1.434a.464.464 0 0 1-.463.478M113.145 36.429a.48.48 0 0 1-.34-.14l-1.02-1.014a.476.476 0 0 1 0-.676.483.483 0 0 1 .68 0l1.02 1.014a.476.476 0 0 1-.34.816M108.046 31.36a.48.48 0 0 1-.34-.14l-1.02-1.014a.476.476 0 0 1 0-.676.483.483 0 0 1 .68 0l1.02 1.014a.476.476 0 0 1-.34.816M67.782 3.842h-.962a.492.492 0 0 1-.48-.493c0-.264.215-.492.48-.492h.962c.265 0 .48.228.48.492a.492.492 0 0 1-.48.493M72.589 3.842h-.961a.492.492 0 0 1-.481-.493c0-.264.215-.492.48-.492h.962c.266 0 .48.228.48.492a.492.492 0 0 1-.48.493M69.674 6.69a.492.492 0 0 1-.496-.477v-.956c0-.264.23-.478.496-.478s.495.214.495.478v.956c0 .264-.23.478-.495.478M69.674 1.912a.492.492 0 0 1-.496-.478V.478c0-.264.23-.478.496-.478s.495.214.495.478v.956c0 .264-.23.478-.495.478M119.7 73.597h-.962c-.265 0-.48-.196-.48-.46s.215-.46.48-.46h.962c.265 0 .48.196.48.46s-.215.46-.48.46M124.507 73.597h-.962c-.265 0-.48-.196-.48-.46s.215-.46.48-.46h.962c.266 0 .48.196.48.46s-.214.46-.48.46M121.603 76.467a.492.492 0 0 1-.495-.478v-.956c0-.264.23-.478.495-.478.266 0 .496.214.496.478v.956c0 .264-.23.478-.496.478M121.603 71.688a.492.492 0 0 1-.495-.478v-.956c0-.264.23-.478.495-.478.266 0 .496.214.496.478v.956c0 .264-.23.478-.496.478M5.769 34.91H.96a.492.492 0 0 1-.48-.493c0-.264.215-.492.48-.492H5.77c.265 0 .48.228.48.492a.492.492 0 0 1-.48.493M21.632 32.48H7.692c-.266 0-.481-.196-.481-.46s.215-.46.48-.46h13.941c.266 0 .481.196.481.46s-.215.46-.48.46M16.825 29.13H12.98c-.265 0-.48-.196-.48-.46s.215-.46.48-.46h3.846c.266 0 .481.196.481.46s-.215.46-.48.46M9.134 29.13H.48c-.266 0-.481-.196-.481-.46s.215-.46.48-.46h8.654c.265 0 .48.196.48.46s-.215.46-.48.46M51.437 84.106H26.44c-.266 0-.481-.196-.481-.46s.215-.46.48-.46h24.998c.266 0 .48.196.48.46s-.214.46-.48.46M39.9 87.456h-8.653c-.266 0-.48-.196-.48-.46s.214-.46.48-.46H39.9c.266 0 .48.196.48.46s-.214.46-.48.46M47.591 87.456h-2.884c-.266 0-.48-.196-.48-.46s.214-.46.48-.46h2.884c.266 0 .481.196.481.46s-.215.46-.48.46"/>
    </g>
</svg>
