<svg xmlns="http://www.w3.org/2000/svg" xmlns:xlink="http://www.w3.org/1999/xlink" width="96" height="71" viewBox="0 0 96 71">
    <defs>
        <path id="a" d="M32.371 4.305c-1.131 1.247-2.012 2.807-3.268 3.867-2.326 1.934-5.532 1.934-8.486 2.06-2.954.124-6.286.81-7.92 3.493-1.697 2.807-.88 6.613-1.634 9.857-1.572 6.425-9.24 9.42-10.686 15.97-.754 3.37.44 6.926 2.074 9.92 2.451 4.491 6.286 8.422 11 9.545 2.556.625 5.17.399 7.79.173 2.08-.18 4.166-.36 6.228-.112 3.331.438 6.474 1.935 9.617 3.245a73.746 73.746 0 0 0 20.554 5.24c2.577.25 5.343.375 7.731-.873 4.4-2.37 5.846-8.547 9.68-11.853 3.206-2.745 7.858-3.244 10.686-6.488 2.829-3.244 2.892-8.922.063-12.166-1.446-1.622-3.457-2.682-4.463-4.616-1.257-2.308-.88-5.24-.943-7.985-.125-4.68-2.891-5.614-5.531-8.422-2.452-2.496-3.96-6.301-7.292-7.674-2.137-.873-4.588-.436-6.914-.686-3.771-.5-7.103-2.932-10.622-4.554-2.529-1.173-5.393-1.869-8.18-1.869-3.586 0-7.043 1.154-9.484 3.928z"/>
        <path id="b" d="M.817.062A.428.428 0 0 0 .377.5v1.622c0 .25.189.437.44.437h1.634c.252 0 .44-.187.44-.437V.5C2.83.188 2.64.062 2.451.062H.817z"/>
        <path id="d" d="M.691.25C.566.25.503.312.503.436v.812c0 .124.063.187.188.187h.818c.125 0 .188-.063.188-.187V.436C1.76.312 1.634.25 1.509.25H.69z"/>
        <path id="f" d="M.44.374C.314.374.251.436.251.561v.811c0 .125.063.188.189.188h.817c.126 0 .189-.063.189-.188V.624c0-.125-.063-.25-.189-.25H.44z"/>
        <path id="h" d="M.251.125C.126.125.063.187.063.312v.812c0 .124.063.186.188.186h.818c.125 0 .188-.062.188-.186V.312c0-.062-.063-.187-.188-.187H.25z"/>
        <path id="j" d="M.691.561C.503.561.377.686.377.873V2.06c0 .187.126.312.314.312h1.195c.188 0 .314-.125.314-.312V.873c0-.187-.126-.312-.314-.312H.69z"/>
        <path id="l" d="M.691.561A.428.428 0 0 0 .251 1V2.62c0 .25.189.437.44.437h1.635c.251 0 .44-.187.44-.437V1a.428.428 0 0 0-.44-.438H.69z"/>
        <path id="n" d="M.189.437C.063.437 0 .499 0 .624v.811c0 .125.063.187.189.187h.817c.125 0 .188-.062.188-.187V.624c0-.125-.063-.187-.188-.187H.189z"/>
        <path id="p" d="M.566.561C.439.561.377.624.377.75v.811c0 .124.062.187.189.187h.817c.126 0 .188-.063.188-.187V.75C1.634.686 1.51.56 1.383.56H.566z"/>
        <path id="r" d="M.817.313a.428.428 0 0 0-.44.436V2.37c0 .25.189.436.44.436h1.634c.252 0 .44-.187.44-.436V.749C2.83.499 2.64.313 2.451.313H.817z"/>
        <path id="t" d="M.503.5C.314.5.189.623.189.81v1.185c0 .187.125.312.314.312h1.194c.189 0 .314-.125.314-.312V.811c0-.187-.125-.312-.314-.312H.503z"/>
        <path id="v" d="M.314.063C.19.063.126.125.126.25v.81c0 .125.063.188.188.188h.817c.126 0 .189-.063.189-.187V.25c0-.125-.063-.187-.19-.187H.315z"/>
        <path id="x" d="M.88.063A.428.428 0 0 0 .44.5V2.12c0 .25.189.437.44.437h1.634c.252 0 .44-.187.44-.437V.5a.428.428 0 0 0-.44-.437H.88z"/>
        <path id="z" d="M.691.187C.566.187.503.25.503.374v.874c0 .124.063.187.188.187h.818c.125 0 .188-.063.188-.187V.437c0-.125-.063-.25-.188-.25H.69z"/>
        <path id="B" d="M.88.437a.428.428 0 0 0-.44.436v1.623c0 .249.189.436.44.436h1.634c.252 0 .44-.187.44-.436V.873a.428.428 0 0 0-.44-.436H.88z"/>
        <path id="D" d="M.691.188C.566.188.503.25.503.374v.874c0 .124.063.187.188.187h.818c.125 0 .188-.063.188-.187V.436c0-.124-.063-.248-.188-.248H.69z"/>
        <path id="F" d="M.88.187a.428.428 0 0 0-.44.437v1.622c0 .25.189.437.44.437h1.634c.252 0 .44-.187.44-.437V.624a.428.428 0 0 0-.44-.437H.88z"/>
        <path id="H" d="M.754.5C.566.5.44.623.44.81v1.185c0 .187.127.312.315.312H1.95c.188 0 .314-.125.314-.312V.811C2.2.624 2.074.499 1.949.499H.754z"/>
        <path id="J" d="M.566.561C.44.561.377.624.377.75v.81c0 .125.063.188.189.188h.817c.126 0 .188-.063.188-.187V.749c0-.063-.062-.188-.188-.188H.566z"/>
        <path id="L" d="M.817.374a.428.428 0 0 0-.44.437v1.622c0 .25.189.437.44.437h1.634c.252 0 .44-.187.44-.437V.811c-.062-.25-.188-.437-.44-.437H.817z"/>
        <path id="N" d="M.754.5C.63.5.566.56.566.685v.811c0 .125.063.187.188.187h.817c.126 0 .189-.062.189-.187v-.81C1.823.56 1.697.498 1.571.498H.754z"/>
        <path id="P" d="M4.086.749l-.943 1.247-1.697 2.371-.943 1.248c-.314.374-.189.748.251.811l3.897.374c.44.063.755-.374.692-.936L4.714.998c-.037-.332-.163-.512-.31-.512-.103 0-.216.084-.318.263z"/>
        <path id="R" d="M.691 1.372L.19 6.302c-.064.56.188.748.565.436l1.195-1.06 2.2-1.935 1.194-1.06c.377-.312.314-.687-.063-.811L1.571.624a.69.69 0 0 0-.19-.028c-.355 0-.636.299-.69.776z"/>
        <path id="T" d="M14.834.313L1.446 8.11c-.88.5-1.32 1.747-1.069 2.87l3.897 19.714 11 4.678 20.177-6.113 4.526-16.657c.377-1.31-.19-2.808-1.257-3.244L16.217.188a1.393 1.393 0 0 0-.542-.11c-.285 0-.574.083-.84.235z"/>
        <path id="V" d="M3.653.437c-1.3 0-2.45.9-3.024 1.435-.19.187 0 .374.314.374 2.514-.063 4.337.312 5.28.561.251.063.566-.124.44-.311C5.693.946 4.63.436 3.655.436h-.002z"/>
        <path id="X" d="M.189 2.121c-.063.125.062.375.25.312a6.807 6.807 0 0 1 3.332.125c.189 0 .378-.187.252-.312C3.353.892 2.703.432 2.127.432 1.243.432.531 1.517.19 2.122z"/>
        <path id="Z" d="M24.954.686L1.886 7.861C.817 8.172.25 9.295.629 10.357l4.651 13.1 20.617 4.866 11.189-3.68 3.96-15.472a1.899 1.899 0 0 0-1.069-2.246L26.337.749a1.95 1.95 0 0 0-.763-.15c-.211 0-.422.031-.62.087z"/>
        <path id="ab" d="M.125.998c4.526 8.547 8.486 2.808 9.87.25.188-.436-.19-.874-.63-.812-3.96.75-6.977.188-8.611-.248a.632.632 0 0 0-.158-.02c-.43 0-.751.44-.47.83z"/>
        <path id="ad" d="M.377.437c2.2 2.183 4.149.187 4.149.187a4.569 4.569 0 0 0-2.24-.58C1.17.044.378.437.378.437z"/>
        <path id="af" d="M2.703.187c-.189.686-.629 2.62-.629 2.62l-.628-.873-.943 15.035 4.211-1.373L6.663.25S5.909 2.496 5.53 1.934C5.154 1.372 4.903.25 4.903.25S4.4 2.183 4.149 3.057c-.252.873-.378 1.123-.755.187-.125-.25-.188-1.56-.188-1.56S2.97.054 2.786.054c-.03 0-.058.04-.083.133z"/>
        <path id="ah" d="M9.24.312C7.668.873 4.713 1.622.816.624.377.5 0 1.123.19 1.684c1.32 3.244 5.217 10.544 9.68-.374.22-.492-.042-1.032-.449-1.032a.536.536 0 0 0-.18.034z"/>
        <path id="aj" d="M.568 1.247c.018.006.228.259.573.513.734.538 2.08 1.075 3.51-.762 0 0-.76-.487-1.853-.487-.655 0-1.43.175-2.23.736z"/>
        <path id="al" d="M.314 3.306C.754.873 1.823.561 1.823.561-.314.936.314 3.306.314 3.306z"/>
        <path id="an" d="M2.326 2.62C2.954.561.566.125.503.125 2.514 1.497 2.326 2.62 2.326 2.62z"/>
        <path id="ap" d="M5.217.187L2.39 1.747c-.189.125-.315.25-.378.437L.125 8.298c-.188.56.126 1.122.692 1.31l3.834 1.185c.566.187 1.131-.124 1.32-.687l1.886-6.113c.125-.125.063-.375 0-.562L6.286.5C6.155.24 5.876.102 5.59.102a.85.85 0 0 0-.374.085zm-.063 2.06C4.21 1.933 4.65.56 5.594.81c.795.282.513 1.48-.197 1.48a.733.733 0 0 1-.243-.045z"/>
        <path id="ar" d="M1.886 1.06s.565 2.87.565 3.307c0 .374-.88 3.619-1.194 4.804-.063.312-.126.436-.126.436 0 .063-.565.063-.502.312l1.32 5.99c.062.123.125.186.251.186.377 0 .754 0 1.194.063.817.063 1.886.125 3.457-.25 1.07-.25 2.326-.686 3.395-1.123l2.828-.936c.504-.124.692-.748.504-1.371-.19-.5-.567-.812-.944-.874l.377-.125c.567-.187.818-.811.629-1.435-.189-.561-.629-.811-1.131-.811l.125-.062c.629-.25.944-.874.755-1.498-.189-.623-.88-.935-1.509-.748l-1.697.561v-.062l1.383-.437c.565-.187.817-.81.628-1.435-.188-.624-.817-.997-1.383-.81L6.286 6.238l-.629.124s.817-.624-.628-3.805C4.296 1.013 3.533.615 2.943.615c-.625 0-1.057.446-1.057.446z"/>
        <path id="as" d="M3.206.437L.754.999a.646.646 0 0 0-.503.748l1.383 6.3a.572.572 0 0 0 .755.437l2.451-.562a.646.646 0 0 0 .503-.748L3.96.874a.578.578 0 0 0-.558-.47.621.621 0 0 0-.196.033z"/>
    </defs>
    <g fill="none" fill-rule="evenodd">
        <path fill="#E0E5E9" d="M92.299 57.152H77.649c-1.83 0-3.454-1.572-3.462-3.399.008-1.826 1.632-3.241 3.462-3.241h9.476c1.835 0 3.29-1.57 3.298-3.397-.008-1.827-1.463-3.243-3.293-3.243h-2.836c-1.83 0-3.452-1.57-3.46-3.396.008-1.827 1.63-3.245 3.46-3.245h6.774c1.83 0 3.405-1.567 3.414-3.394-.009-1.826-1.584-3.195-3.414-3.195H84.68a33.948 33.948 0 0 0-9.433-17.905C62.784.287 43.085-.53 29.674 10.29l-11.214-.182a3.321 3.321 0 0 0-3.178 4.413 3.323 3.323 0 0 0 3.099 2.226l5.8.124a3.321 3.321 0 0 1 3.282 3.359 3.321 3.321 0 0 1-3.362 3.28l-8.924-.117-9.27-.121a3.321 3.321 0 0 0-3.362 3.28 3.321 3.321 0 0 0 3.283 3.358l9.27.128 2.28.032a3.321 3.321 0 0 1 3.283 3.358 3.321 3.321 0 0 1-3.362 3.28l-2.28-.05-1.236-.029a3.321 3.321 0 0 0-3.362 3.28 3.321 3.321 0 0 0 3.283 3.359l3.86.059a33.947 33.947 0 0 0 9.387 17.658c12.322 12.31 31.718 13.246 45.117 2.808h20.23c1.83 0 3.292-1.574 3.3-3.4"/>
        <g transform="translate(60.543 38.431)">
            <mask id="c" fill="#fff">
                <use xlink:href="#b"/>
            </mask>
            <path fill="#3CB891" d="M-2.766 5.677h8.8v-8.734h-8.8z" mask="url(#c)"/>
        </g>
        <g transform="translate(52.371 20.34)">
            <mask id="e" fill="#fff">
                <use xlink:href="#d"/>
            </mask>
            <path fill="#3CB891" d="M-2.64 4.554h7.497V-2.87H-2.64z" mask="url(#e)"/>
        </g>
        <g transform="translate(46.086 26.578)">
            <mask id="g" fill="#fff">
                <use xlink:href="#f"/>
            </mask>
            <path fill="#CFD1D2" d="M-2.891 4.679h7.48v-7.424h-7.48z" mask="url(#g)"/>
        </g>
        <g transform="translate(71.229 44.67)">
            <mask id="i" fill="#fff">
                <use xlink:href="#h"/>
            </mask>
            <path fill="#929292" d="M-3.08 4.43H4.4v-7.424h-7.48z" mask="url(#i)"/>
        </g>
        <g transform="translate(80.029 37.183)">
            <mask id="k" fill="#fff">
                <use xlink:href="#j"/>
            </mask>
            <path fill="#3CB891" d="M-2.766 5.49h8.109v-8.048h-8.109z" mask="url(#k)"/>
        </g>
        <g transform="translate(37.914 52.78)">
            <mask id="m" fill="#fff">
                <use xlink:href="#l"/>
            </mask>
            <path fill="#929292" d="M-2.891 6.176h8.8v-8.734h-8.8z" mask="url(#m)"/>
        </g>
        <g transform="translate(54.257 58.394)">
            <mask id="o" fill="#fff">
                <use xlink:href="#n"/>
            </mask>
            <path fill="#929292" d="M-3.143 4.741h7.48v-7.424h-7.48z" mask="url(#o)"/>
        </g>
        <g transform="translate(42.943 46.541)">
            <mask id="q" fill="#fff">
                <use xlink:href="#p"/>
            </mask>
            <path fill="#929292" d="M-2.766 4.866h7.497v-7.424h-7.497z" mask="url(#q)"/>
        </g>
        <g transform="translate(45.457 59.018)">
            <mask id="s" fill="#fff">
                <use xlink:href="#r"/>
            </mask>
            <path fill="#3CB891" d="M-2.766 5.927h8.8v-8.734h-8.8z" mask="url(#s)"/>
        </g>
        <g transform="translate(79.4 30.321)">
            <mask id="u" fill="#fff">
                <use xlink:href="#t"/>
            </mask>
            <path fill="#3CB891" d="M-2.954 5.427h8.108V-2.62h-8.108z" mask="url(#u)"/>
        </g>
        <g transform="translate(29.743 45.294)">
            <mask id="w" fill="#fff">
                <use xlink:href="#v"/>
            </mask>
            <path fill="#3CB891" d="M-3.017 4.367h7.48v-7.424h-7.48z" mask="url(#w)"/>
        </g>
        <g transform="translate(47.343 50.908)">
            <mask id="y" fill="#fff">
                <use xlink:href="#x"/>
            </mask>
            <path fill="#CFD1D2" d="M-2.703 5.677h8.8v-8.734h-8.8z" mask="url(#y)"/>
        </g>
        <g transform="translate(22.829 51.532)">
            <mask id="A" fill="#fff">
                <use xlink:href="#z"/>
            </mask>
            <path fill="#CFD1D2" d="M-2.64 4.554h7.48v-7.486h-7.48z" mask="url(#A)"/>
        </g>
        <g transform="translate(47.343 14.1)">
            <mask id="C" fill="#fff">
                <use xlink:href="#B"/>
            </mask>
            <path fill="#929292" d="M-2.703 6.051h8.8v-8.734h-8.8z" mask="url(#C)"/>
        </g>
        <g transform="translate(56.143 9.11)">
            <mask id="E" fill="#fff">
                <use xlink:href="#D"/>
            </mask>
            <path fill="#929292" d="M-2.64 4.554h7.48v-7.486h-7.48z" mask="url(#E)"/>
        </g>
        <g transform="translate(58.657 18.468)">
            <mask id="G" fill="#fff">
                <use xlink:href="#F"/>
            </mask>
            <path fill="#3CB891" d="M-2.703 5.802h8.8v-8.734h-8.8z" mask="url(#G)"/>
        </g>
        <g transform="translate(76.257 13.477)">
            <mask id="I" fill="#fff">
                <use xlink:href="#H"/>
            </mask>
            <path fill="#3CB891" d="M-2.703 5.427h8.109V-2.62h-8.109z" mask="url(#I)"/>
        </g>
        <g transform="translate(34.771 4.743)">
            <mask id="K" fill="#fff">
                <use xlink:href="#J"/>
            </mask>
            <path fill="#3CB891" d="M-2.766 4.866h7.48v-7.424h-7.48z" mask="url(#K)"/>
        </g>
        <g transform="translate(68.086 4.743)">
            <mask id="M" fill="#fff">
                <use xlink:href="#L"/>
            </mask>
            <path fill="#CFD1D2" d="M-2.766 5.989h8.8v-8.734h-8.8z" mask="url(#M)"/>
        </g>
        <g transform="translate(36.029 13.477)">
            <mask id="O" fill="#fff">
                <use xlink:href="#N"/>
            </mask>
            <path fill="#CFD1D2" d="M-2.577 4.803H4.92V-2.62h-7.497z" mask="url(#O)"/>
        </g>
        <g transform="translate(66.829 9.11)">
            <mask id="Q" fill="#fff">
                <use xlink:href="#P"/>
            </mask>
            <path fill="#41BC98" d="M-2.815 9.926H8.494v-12.56H-2.815z" mask="url(#Q)"/>
        </g>
        <path stroke="#41BC98" stroke-linecap="round" stroke-width="3.12" d="M69.343 12.417C56.77 1.063 37.6 5.554 28.989 19.279c-2.138 3.431-3.583 7.3-4.275 11.292"/>
        <g transform="translate(29.114 50.284)">
            <mask id="S" fill="#fff">
                <use xlink:href="#R"/>
            </mask>
            <path fill="#F16C6A" d="M-2.964 10.007H8.74v-12.53H-2.964z" mask="url(#S)"/>
        </g>
        <path stroke="#F16C6A" stroke-linecap="round" stroke-width="3.12" d="M32.006 54.776c9.617 13.912 29.354 13.912 40.857 2.433 2.891-2.87 5.154-6.3 6.726-10.043"/>
        <g transform="translate(16.543 12.23)">
            <mask id="U" fill="#fff">
                <use xlink:href="#T"/>
            </mask>
            <path fill="#FFF" fill-rule="nonzero" d="M-2.836 38.491h46.073V-3.04H-2.836z" mask="url(#U)"/>
        </g>
        <g stroke="#010202" stroke-linecap="round" stroke-width="2.248">
            <path d="M51.994 41.488L56.52 24.83c.377-1.31-.189-2.807-1.257-3.243L32.76 12.416c-.44-.186-.943-.124-1.383.126L17.99 20.34c-.88.498-1.32 1.746-1.069 2.869l3.897 19.714 11 4.679 20.177-6.114zM31.377 12.542l.44 35.06"/>
        </g>
        <g transform="translate(36.657 25.33)">
            <mask id="W" fill="#fff">
                <use xlink:href="#V"/>
            </mask>
            <path fill="#050706" d="M-2.59 5.94H9.836v-8.623H-2.59z" mask="url(#W)"/>
        </g>
        <g transform="translate(47.971 25.954)">
            <mask id="Y" fill="#fff">
                <use xlink:href="#X"/>
            </mask>
            <path fill="#050706" d="M-2.97 5.677H7.206v-8.364H-2.971z" mask="url(#Y)"/>
        </g>
        <g transform="translate(49.229 32.193)">
            <mask id="aa" fill="#fff">
                <use xlink:href="#Z"/>
            </mask>
            <path fill="#FFF" fill-rule="nonzero" d="M-2.631 31.442h46.89V-2.52h-46.89z" mask="url(#aa)"/>
        </g>
        <g stroke="#010202" stroke-linecap="round">
            <path stroke-width="2.248" d="M54.509 55.65l-4.652-13.101c-.377-1.06.189-2.184 1.257-2.496l23.069-7.174c.44-.125.943-.125 1.383.062l13.64 6.176a1.9 1.9 0 0 1 1.068 2.246l-3.96 15.472-11.188 3.68-20.617-4.865zM75.566 32.941l-.44 27.574"/>
            <path stroke-width=".78" d="M54.949 45.294s1.885 1.185 3.457-.562M64.063 44.607s1.886 1.186 3.457-.56"/>
        </g>
        <g transform="translate(56.771 48.413)">
            <mask id="ac" fill="#fff">
                <use xlink:href="#ab"/>
            </mask>
            <path fill="#050706" d="M-3.123 8.635h16.31V-2.951h-16.31z" mask="url(#ac)"/>
        </g>
        <g transform="translate(59.286 52.156)">
            <mask id="ae" fill="#fff">
                <use xlink:href="#ad"/>
            </mask>
            <path fill="#F16D6A" d="M-2.766 4.578H7.67v-7.654H-2.766z" mask="url(#ae)"/>
        </g>
        <g transform="translate(78.771 42.174)">
            <mask id="ag" fill="#fff">
                <use xlink:href="#af"/>
            </mask>
            <path fill="#F26B6B" d="M-2.64 20.087H9.806V-3.066H-2.64z" mask="url(#ag)"/>
        </g>
        <path fill="#41BC98" d="M20.754 18.78l2.766 25.328 3.771 1.56-.88-30.257z"/>
        <g transform="translate(39.8 32.193)">
            <mask id="ai" fill="#fff">
                <use xlink:href="#ah"/>
            </mask>
            <path fill="#050706" d="M-3.004 10.212h16.095V-2.84H-3.004z" mask="url(#ai)"/>
        </g>
        <g transform="translate(42.314 36.56)">
            <mask id="ak" fill="#fff">
                <use xlink:href="#aj"/>
            </mask>
            <path fill="#F16D6A" d="M-2.577 5.39H7.794v-7.998H-2.577z" mask="url(#ak)"/>
        </g>
        <g transform="translate(39.171 31.569)">
            <mask id="am" fill="#fff">
                <use xlink:href="#al"/>
            </mask>
            <path fill="#050706" d="M-2.915 6.426h7.88v-8.984h-7.88z" mask="url(#am)"/>
        </g>
        <g transform="translate(47.971 31.569)">
            <mask id="ao" fill="#fff">
                <use xlink:href="#an"/>
            </mask>
            <path fill="#050706" d="M-2.64 5.74h8.214v-8.734H-2.64z" mask="url(#ao)"/>
        </g>
        <path fill="#41BA93" d="M34.457 40.427v4.118l4.966-1.31v-3.93z"/>
        <path fill="#F16C6A" d="M69.154 57.21l3.897.873v-2.808l-3.897-.623z"/>
        <g transform="translate(12.143 17.844)">
            <mask id="aq" fill="#fff">
                <use xlink:href="#ap"/>
            </mask>
            <path fill="#41BA93" d="M-3.072 13.967h14.144V-3.018H-3.072z" mask="url(#aq)"/>
        </g>
        <g stroke="#010202" stroke-width=".78">
            <path d="M20 21.275l-1.571-2.932c-.189-.375-.692-.499-1.069-.312l-2.828 1.56c-.189.125-.315.249-.378.437l-1.885 6.114c-.189.56.125 1.122.691 1.309l3.834 1.186c.566.187 1.132-.125 1.32-.687L20 21.836c.126-.124.063-.373 0-.56zm-2.703-1.185c-.943-.312-.503-1.685.44-1.435.88.312.44 1.747-.44 1.435z"/>
            <path d="M17.989 19.84c-.629-.249-1.006-.873-1.006-1.56 0-.935.754-1.683 1.697-1.683.943 0 1.697.748 1.697 1.683v.188M14.594 21.275l4.275 1.372M14.217 22.398l4.274 1.373"/>
        </g>
        <path fill="#E0E5E9" d="M95.623 60.388v.058-.058zM90.448 47.11l-.001.03v.028-.058zM94.507 33.832V33.89v-.058z"/>
        <path fill="#5B5B5B" d="M84.176 37.231h-2.953a.357.357 0 0 1-.37-.355c0-.203.166-.354.37-.354h2.953c.204 0 .37.15.37.354a.357.357 0 0 1-.37.355M94.514 37.231H86.39a.357.357 0 0 1-.369-.355c0-.203.165-.354.37-.354h8.122c.204 0 .369.15.369.354a.357.357 0 0 1-.37.355M90.453 39.462h-5.907a.357.357 0 0 1-.37-.355c0-.204.165-.355.37-.355h5.907c.204 0 .369.151.369.355a.357.357 0 0 1-.37.355M12.183 44.987h-1.107a.357.357 0 0 1-.37-.355c0-.204.166-.355.37-.355h1.107c.204 0 .37.151.37.355a.357.357 0 0 1-.37.355M17.721 44.987h-1.107a.357.357 0 0 1-.37-.355c0-.204.166-.355.37-.355h1.107c.204 0 .37.151.37.355a.357.357 0 0 1-.37.355M12.049 47.293a.368.368 0 0 1-.261-.63l.783-.782a.37.37 0 0 1 .522.521l-.783.782a.368.368 0 0 1-.261.109M15.965 43.38a.368.368 0 0 1-.261-.629l.783-.782a.37.37 0 0 1 .522.521l-.783.783a.368.368 0 0 1-.261.108M14.39 48.317a.379.379 0 0 1-.381-.37v-1.106c0-.204.176-.369.38-.369.204 0 .38.165.38.37v1.106a.379.379 0 0 1-.38.369M14.39 42.784a.379.379 0 0 1-.381-.369V41.31c0-.204.176-.369.38-.369.204 0 .38.165.38.369v1.106a.379.379 0 0 1-.38.37M16.748 47.293a.368.368 0 0 1-.26-.109l-.784-.782a.368.368 0 1 1 .522-.521l.783.782a.368.368 0 0 1-.26.63M12.832 43.38a.368.368 0 0 1-.26-.107l-.784-.783a.368.368 0 1 1 .522-.521l.783.782a.368.368 0 0 1-.26.63M82.33 25.826h-1.107a.379.379 0 0 1-.37-.38c0-.204.166-.38.37-.38h1.107c.204 0 .37.176.37.38 0 .204-.166.38-.37.38M87.868 25.826h-1.107a.379.379 0 0 1-.37-.38c0-.204.166-.38.37-.38h1.107c.204 0 .37.176.37.38 0 .204-.166.38-.37.38M82.196 28.113a.368.368 0 0 1-.261-.63l.783-.781a.37.37 0 0 1 .522.521l-.783.782a.368.368 0 0 1-.261.108M86.112 24.201a.368.368 0 0 1-.261-.63l.783-.781a.37.37 0 0 1 .522.521l-.783.782a.368.368 0 0 1-.261.108M84.537 29.137a.357.357 0 0 1-.355-.368v-1.107c0-.204.151-.369.355-.369s.355.165.355.37v1.106a.357.357 0 0 1-.355.368M84.537 23.605a.357.357 0 0 1-.355-.369V22.13c0-.204.151-.37.355-.37s.355.166.355.37v1.106a.357.357 0 0 1-.355.369M86.895 28.113a.368.368 0 0 1-.26-.108l-.784-.782a.368.368 0 1 1 .522-.521l.783.782a.369.369 0 0 1-.26.63M82.98 24.201a.368.368 0 0 1-.262-.108l-.783-.782a.368.368 0 1 1 .522-.521l.783.782a.368.368 0 0 1-.26.63M52.056 2.965h-.738a.379.379 0 0 1-.37-.38c0-.204.166-.38.37-.38h.738c.204 0 .37.176.37.38 0 .203-.166.38-.37.38M55.748 2.965h-.738a.379.379 0 0 1-.37-.38c0-.204.166-.38.37-.38h.738c.204 0 .37.176.37.38 0 .203-.166.38-.37.38M53.51 5.164a.379.379 0 0 1-.381-.37v-.737c0-.204.177-.369.38-.369.205 0 .381.165.381.37v.737a.379.379 0 0 1-.38.369M53.51 1.475a.379.379 0 0 1-.381-.369V.37c0-.204.177-.369.38-.369.205 0 .381.165.381.369v.737a.379.379 0 0 1-.38.37M91.93 56.797h-.739a.357.357 0 0 1-.37-.354c0-.204.166-.355.37-.355h.738c.204 0 .37.15.37.355a.357.357 0 0 1-.37.354M95.621 56.797h-.738a.357.357 0 0 1-.37-.354c0-.204.166-.355.37-.355h.738c.204 0 .37.15.37.355a.357.357 0 0 1-.37.354M93.391 59.013a.379.379 0 0 1-.38-.37v-.737c0-.204.176-.369.38-.369.204 0 .38.165.38.37v.737a.379.379 0 0 1-.38.369M93.391 55.324a.379.379 0 0 1-.38-.369v-.737c0-.204.176-.369.38-.369.204 0 .38.165.38.369v.737a.379.379 0 0 1-.38.37M4.43 26.941H.738a.379.379 0 0 1-.369-.38c0-.204.165-.38.37-.38H4.43c.204 0 .37.176.37.38 0 .204-.166.38-.37.38M12.922 22.48H9.968a.357.357 0 0 1-.369-.354c0-.204.165-.355.37-.355h2.953c.204 0 .369.151.369.355a.357.357 0 0 1-.37.355M7.015 22.48H.369A.357.357 0 0 1 0 22.127c0-.204.165-.355.37-.355h6.645c.204 0 .369.151.369.355a.357.357 0 0 1-.37.355M39.504 64.908H20.306a.357.357 0 0 1-.37-.355c0-.204.166-.355.37-.355h19.198c.204 0 .369.151.369.355a.357.357 0 0 1-.37.355M30.643 67.493h-6.645a.357.357 0 0 1-.37-.355c0-.204.166-.355.37-.355h6.645c.204 0 .37.151.37.355a.357.357 0 0 1-.37.355M36.55 67.493h-2.215a.357.357 0 0 1-.37-.355c0-.204.166-.355.37-.355h2.215c.204 0 .37.151.37.355a.357.357 0 0 1-.37.355"/>
    </g>
</svg>
