<svg xmlns="http://www.w3.org/2000/svg" width="96" height="71" viewBox="0 0 96 71">
    <g fill="none" fill-rule="evenodd">
        <path fill="#E0E5E9" d="M92.299 57.152H77.649c-1.83 0-3.454-1.572-3.462-3.399.008-1.826 1.632-3.241 3.462-3.241H87.13c1.83 0 3.285-1.57 3.293-3.397-.008-1.827-1.463-3.243-3.293-3.243h-2.835c-1.831 0-3.453-1.57-3.462-3.396.01-1.827 1.631-3.245 3.461-3.245h6.774c1.83 0 3.405-1.567 3.414-3.394-.009-1.826-1.584-3.195-3.414-3.195H84.68a33.948 33.948 0 0 0-9.433-17.905C62.784.287 43.085-.53 29.674 10.29l-11.214-.182a3.321 3.321 0 0 0-3.178 4.413 3.323 3.323 0 0 0 3.099 2.226l5.8.124a3.321 3.321 0 0 1 3.282 3.359 3.321 3.321 0 0 1-3.362 3.28l-8.924-.117-9.27-.121a3.321 3.321 0 0 0-3.362 3.28 3.321 3.321 0 0 0 3.283 3.358l9.27.128 2.28.032a3.321 3.321 0 0 1 3.283 3.358 3.321 3.321 0 0 1-3.362 3.28l-2.28-.05-1.236-.029a3.321 3.321 0 0 0-3.362 3.28 3.321 3.321 0 0 0 3.283 3.359l3.86.059a33.947 33.947 0 0 0 9.387 17.658c12.322 12.31 31.718 13.246 45.117 2.808h20.23c1.83 0 3.292-1.574 3.3-3.4-.008-1.827-1.47-3.24-3.3-3.24"/>
        <g fill-rule="nonzero">
            <path fill="#D9EEF7" d="M42.61 29.257h10.143v3.381H42.611z"/>
            <path fill="#FFF" d="M30.778 15.734h33v33.808h-33z"/>
            <path fill="#41BC98" d="M42.61 15.257h10.143v14H42.611z"/>
            <path fill="#F26B6B" d="M67.966 41.09c6.534 0 11.833 5.3 11.833 11.833 0 6.532-5.3 11.832-11.833 11.832s-11.832-5.3-11.832-11.832c0-6.534 5.299-11.833 11.832-11.833z"/>
            <path fill="#D9EEF7" d="M67.966 37.71c8.402 0 15.214 6.811 15.214 15.213 0 8.4-6.812 15.213-15.214 15.213-8.401 0-15.213-6.813-15.213-15.213A15.212 15.212 0 0 1 67.966 37.71zM79.8 52.922c0-6.534-5.3-11.833-11.833-11.833s-11.832 5.3-11.832 11.833c0 6.532 5.299 11.832 11.832 11.832 6.534 0 11.833-5.3 11.833-11.832z"/>
            <path fill="#DE5959" d="M62.895 52.923c0-5.358 3.567-9.88 8.452-11.336a11.807 11.807 0 0 0-3.38-.497c-6.534 0-11.833 5.299-11.833 11.833 0 6.532 5.299 11.832 11.832 11.832 1.176 0 2.31-.177 3.381-.497-4.885-1.456-8.452-5.978-8.452-11.335z"/>
            <path fill="#000" d="M31.599 16.599h10.234v1.782H34.18v1.598h7.653v13.523h11.74V19.979h7.653v-1.598h-7.652v-1.782h10.233v8.497h1.599V15H30v22.774h1.599V16.6zM43.43 31.904v-1.782h8.544v1.782h-8.544zm8.544-15.305v11.924h-8.544V16.6h8.544z"/>
            <path fill="#000" d="M48.594 23.406h1.599v1.69h-1.599zM40.096 45.426h1.69v1.599h-1.69z"/>
            <path fill="#000" d="M77.774 40.313l-.978 1.264c3.562 2.755 5.605 6.914 5.605 11.41 0 7.948-6.466 14.414-14.414 14.414-7.948 0-14.413-6.466-14.413-14.414a14.419 14.419 0 0 1 14.414-14.414c2.33 0 4.553.539 6.608 1.601l.734-1.42a15.99 15.99 0 0 0-9.924-1.568v-9.554h-1.599v9.901a16.028 16.028 0 0 0-11.274 11.274H31.6V40.31H30v10.096h22.186c-.14.855-.211 1.72-.211 2.581 0 8.83 7.183 16.013 16.012 16.013C76.817 69 84 61.817 84 52.987c0-4.995-2.27-9.614-6.226-12.674z"/>
            <path fill="#000" d="M67.987 64.02a10.92 10.92 0 0 1-6.823-2.363l-.99 1.255a12.502 12.502 0 0 0 7.813 2.707c6.966 0 12.632-5.666 12.632-12.632 0-6.965-5.666-12.631-12.632-12.631-6.965 0-12.631 5.666-12.631 12.631 0 2.968 1.05 5.852 2.957 8.121l1.224-1.028a11.04 11.04 0 0 1-2.583-7.092c0-6.084 4.95-11.034 11.033-11.034 6.084 0 11.034 4.95 11.034 11.034 0 6.083-4.95 11.033-11.034 11.033z"/>
            <path fill="#FFF" d="M64.327 57.779l-1.13-1.13 3.991-3.993v-6.43h1.599v7.093z"/>
        </g>
        <path fill="#E0E5E9" d="M95.623 60.388v.058-.058zM90.448 47.11l-.001.03v.028-.058zM94.507 33.832V33.89v-.058z"/>
        <path fill="#5B5B5B" d="M84.176 37.231h-2.953a.357.357 0 0 1-.37-.355c0-.203.166-.354.37-.354h2.953c.204 0 .37.15.37.354a.357.357 0 0 1-.37.355M94.514 37.231H86.39a.357.357 0 0 1-.369-.355c0-.203.165-.354.37-.354h8.122c.204 0 .369.15.369.354a.357.357 0 0 1-.37.355M90.453 39.462h-5.907a.357.357 0 0 1-.37-.355c0-.204.165-.355.37-.355h5.907c.204 0 .369.151.369.355a.357.357 0 0 1-.37.355M12.183 44.987h-1.107a.357.357 0 0 1-.37-.355c0-.204.166-.355.37-.355h1.107c.204 0 .37.151.37.355a.357.357 0 0 1-.37.355M17.721 44.987h-1.107a.357.357 0 0 1-.37-.355c0-.204.166-.355.37-.355h1.107c.204 0 .37.151.37.355a.357.357 0 0 1-.37.355M12.049 47.293a.368.368 0 0 1-.261-.63l.783-.782a.37.37 0 0 1 .522.521l-.783.782a.368.368 0 0 1-.261.109M15.965 43.38a.368.368 0 0 1-.261-.629l.783-.782a.37.37 0 0 1 .522.521l-.783.783a.368.368 0 0 1-.261.108M14.39 48.317a.379.379 0 0 1-.381-.37v-1.106c0-.204.176-.369.38-.369.204 0 .38.165.38.37v1.106a.379.379 0 0 1-.38.369M14.39 42.784a.379.379 0 0 1-.381-.369V41.31c0-.204.176-.369.38-.369.204 0 .38.165.38.369v1.106a.379.379 0 0 1-.38.37M16.748 47.293a.368.368 0 0 1-.26-.109l-.784-.782a.368.368 0 1 1 .522-.521l.783.782a.368.368 0 0 1-.26.63M12.832 43.38a.368.368 0 0 1-.26-.107l-.784-.783a.368.368 0 1 1 .522-.521l.783.782a.368.368 0 0 1-.26.63M82.33 25.826h-1.107a.379.379 0 0 1-.37-.38c0-.204.166-.38.37-.38h1.107c.204 0 .37.176.37.38 0 .204-.166.38-.37.38M87.868 25.826h-1.107a.379.379 0 0 1-.37-.38c0-.204.166-.38.37-.38h1.107c.204 0 .37.176.37.38 0 .204-.166.38-.37.38M82.196 28.113a.368.368 0 0 1-.261-.63l.783-.781a.37.37 0 0 1 .522.521l-.783.782a.368.368 0 0 1-.261.108M86.112 24.201a.368.368 0 0 1-.261-.63l.783-.781a.37.37 0 0 1 .522.521l-.783.782a.368.368 0 0 1-.261.108M84.537 29.137a.357.357 0 0 1-.355-.368v-1.107c0-.204.151-.369.355-.369s.355.165.355.37v1.106a.357.357 0 0 1-.355.368M84.537 23.605a.357.357 0 0 1-.355-.369V22.13c0-.204.151-.37.355-.37s.355.166.355.37v1.106a.357.357 0 0 1-.355.369M86.895 28.113a.368.368 0 0 1-.26-.108l-.784-.782a.368.368 0 1 1 .522-.521l.783.782a.369.369 0 0 1-.26.63M82.98 24.201a.368.368 0 0 1-.262-.108l-.783-.782a.368.368 0 1 1 .522-.521l.783.782a.368.368 0 0 1-.26.63M52.056 2.965h-.738a.379.379 0 0 1-.37-.38c0-.204.166-.38.37-.38h.738c.204 0 .37.176.37.38 0 .203-.166.38-.37.38M55.748 2.965h-.738a.379.379 0 0 1-.37-.38c0-.204.166-.38.37-.38h.738c.204 0 .37.176.37.38 0 .203-.166.38-.37.38M53.51 5.164a.379.379 0 0 1-.381-.37v-.737c0-.204.177-.369.38-.369.205 0 .381.165.381.37v.737a.379.379 0 0 1-.38.369M53.51 1.475a.379.379 0 0 1-.381-.369V.37c0-.204.177-.369.38-.369.205 0 .381.165.381.369v.737a.379.379 0 0 1-.38.37M91.93 56.797h-.739a.357.357 0 0 1-.37-.354c0-.204.166-.355.37-.355h.738c.204 0 .37.15.37.355a.357.357 0 0 1-.37.354M95.621 56.797h-.738a.357.357 0 0 1-.37-.354c0-.204.166-.355.37-.355h.738c.204 0 .37.15.37.355a.357.357 0 0 1-.37.354M93.391 59.013a.379.379 0 0 1-.38-.37v-.737c0-.204.176-.369.38-.369.204 0 .38.165.38.37v.737a.379.379 0 0 1-.38.369M93.391 55.324a.379.379 0 0 1-.38-.369v-.737c0-.204.176-.369.38-.369.204 0 .38.165.38.369v.737a.379.379 0 0 1-.38.37M4.43 26.941H.738a.379.379 0 0 1-.369-.38c0-.204.165-.38.37-.38H4.43c.204 0 .37.176.37.38 0 .204-.166.38-.37.38M16.614 25.066H5.907a.357.357 0 0 1-.37-.355c0-.204.166-.355.37-.355h10.707c.204 0 .369.151.369.355a.357.357 0 0 1-.37.355M12.922 22.48H9.968a.357.357 0 0 1-.369-.354c0-.204.165-.355.37-.355h2.953c.204 0 .369.151.369.355a.357.357 0 0 1-.37.355M7.015 22.48H.369A.357.357 0 0 1 0 22.127c0-.204.165-.355.37-.355h6.645c.204 0 .369.151.369.355a.357.357 0 0 1-.37.355M39.504 64.908H20.306a.357.357 0 0 1-.37-.355c0-.204.166-.355.37-.355h19.198c.204 0 .369.151.369.355a.357.357 0 0 1-.37.355M30.643 67.493h-6.645a.357.357 0 0 1-.37-.355c0-.204.166-.355.37-.355h6.645c.204 0 .37.151.37.355a.357.357 0 0 1-.37.355M36.55 67.493h-2.215a.357.357 0 0 1-.37-.355c0-.204.166-.355.37-.355h2.215c.204 0 .37.151.37.355a.357.357 0 0 1-.37.355"/>
    </g>
</svg>
