<svg xmlns="http://www.w3.org/2000/svg" width="20" height="19" viewBox="0 0 20 19">
    <path fill="#787878" fill-rule="nonzero" d="M18.132 16.925c-1.86 1.86-4.882 1.853-6.75-.015L1.576 7.103a3.344 3.344 0 0 1-.01-4.725 3.344 3.344 0 0 1 4.725.01l9.807 9.808c.743.744.746 1.96.006 2.7-.74.74-1.956.737-2.7-.006l-9.47-9.47a.474.474 0 1 1 .673-.673l9.47 9.47c.381.38.971.381 1.35.002a.942.942 0 0 0-.003-1.35L5.616 3.062a2.37 2.37 0 0 0-3.374-.007 2.37 2.37 0 0 0 .007 3.374l9.807 9.808a3.8 3.8 0 0 0 5.4.011 3.799 3.799 0 0 0-.012-5.399L7.974 1.38a.474.474 0 1 1 .673-.673l9.47 9.469c1.868 1.867 1.874 4.89.015 6.749z"/>
</svg>
