<svg xmlns="http://www.w3.org/2000/svg" width="45" height="27" viewBox="0 0 45 27">
    <g fill="none" fill-rule="evenodd">
        <rect width="45" height="27" fill="#006" rx="1.821"/>
        <path fill="#C00" d="M37.645 13.493c0 4.975-4.016 9.007-8.972 9.007-4.955 0-8.972-4.032-8.972-9.007s4.017-9.008 8.972-9.008c4.956 0 8.972 4.033 8.972 9.008"/>
        <path fill="#06C" d="M21.742 19.213a8.942 8.942 0 0 1-.684-.954h3.18c.191-.306.363-.625.517-.954h-4.213a8.96 8.96 0 0 1-.38-.954h4.972a9.085 9.085 0 0 0 .26-4.766h-5.492c.07-.325.158-.643.26-.954h4.972a9.077 9.077 0 0 0-.38-.953h-4.212c.154-.33.327-.648.517-.954h3.178a9.102 9.102 0 0 0-.683-.953h-1.811c.278-.34.581-.658.905-.953a8.92 8.92 0 0 0-6.024-2.333c-4.956 0-8.973 4.033-8.973 9.008 0 4.975 4.017 9.007 8.973 9.007a8.922 8.922 0 0 0 6.024-2.332c.325-.296.628-.615.907-.955h-1.813"/>
        <path fill="#006" d="M22.52 15.927a4.345 4.345 0 0 1-1.146.15c-1.25 0-1.902-.572-1.902-1.666 0-1.277.83-2.217 1.955-2.217.92 0 1.508.527 1.508 1.352 0 .274-.04.541-.137.918h-2.224c-.079.534.31.769.97.769.397 0 .755-.072 1.152-.232l-.175.926zm-.598-2.216c0-.08.124-.654-.52-.666-.355 0-.61.237-.713.666h1.233zM23.274 13.46c0 .472.265.798.866 1.041.46.19.532.244.532.413 0 .234-.203.341-.654.339a3.714 3.714 0 0 1-1.013-.146l-.161.861c.324.076.779.1 1.182.11 1.201 0 1.756-.395 1.756-1.248 0-.513-.232-.815-.802-1.04-.477-.191-.533-.232-.533-.406 0-.203.19-.306.557-.306.224 0 .53.02.82.056l.162-.865a8.792 8.792 0 0 0-1.003-.074c-1.273 0-1.713.575-1.71 1.265M18.863 16.016h-.933l.022-.392c-.285.31-.664.453-1.178.453-.608 0-1.025-.417-1.025-1.018 0-.914.724-1.44 1.97-1.44.129 0 .292.01.459.028a.81.81 0 0 0 .044-.241c0-.25-.196-.342-.72-.342a4.292 4.292 0 0 0-1.19.166l.16-.838c.559-.143.925-.198 1.34-.198.965 0 1.475.38 1.475 1.094.008.19-.058.573-.091.74-.038.243-.305 1.655-.333 1.988zm-.82-1.666a2.209 2.209 0 0 0-.25-.015c-.636 0-.959.19-.959.565 0 .236.158.383.403.383.457 0 .787-.384.807-.933zM27.747 15.957c-.306.084-.544.12-.802.12-.572 0-.884-.293-.884-.815-.018-.143.122-.806.154-.99.031-.186.526-2.885.526-2.885h1.11l-.167.893h.569l-.155.911h-.572s-.314 1.583-.314 1.704c0 .192.116.275.382.275.127 0 .225-.012.301-.035l-.148.822M32.709 12.194c-.814 0-1.45.337-1.82.898l.321-.833c-.59-.218-.971.093-1.316.535 0 0-.057.073-.115.14v-.655h-1.042c-.142 1.156-.391 2.328-.587 3.486l-.047.252h1.122a34.86 34.86 0 0 1 .28-1.445c.239-1.044.64-1.363 1.242-1.221-.14.3-.215.647-.215 1.03 0 .934.504 1.697 1.757 1.697 1.264 0 2.18-.678 2.18-2.224 0-.932-.61-1.66-1.76-1.66zm-.327 2.977c-.396.006-.636-.327-.636-.827 0-.591.35-1.26.914-1.26.454 0 .61.362.61.747 0 .842-.344 1.34-.888 1.34zM15.226 16.017H14.11l.664-3.511-1.528 3.51h-1.019l-.186-3.49-.666 3.49h-1.013l.863-4.566h1.746l.145 2.546 1.106-2.546h1.885l-.88 4.567"/>
        <path fill="#FFF" d="M22.8 15.645a4.336 4.336 0 0 1-1.145.151c-1.25 0-1.902-.573-1.902-1.666 0-1.278.829-2.217 1.954-2.217.921 0 1.509.527 1.509 1.352 0 .274-.04.54-.137.918h-2.224c-.08.534.309.768.97.768.396 0 .754-.071 1.151-.231l-.175.925zm-.597-2.215c0-.081.123-.654-.52-.667-.355 0-.61.237-.714.667h1.234zM23.554 13.179c0 .472.265.798.866 1.04.46.19.533.244.533.413 0 .235-.203.342-.654.34a3.717 3.717 0 0 1-1.013-.146l-.162.86c.325.076.78.1 1.182.11 1.201 0 1.756-.394 1.756-1.248 0-.513-.231-.815-.802-1.04-.476-.19-.533-.232-.533-.405 0-.203.19-.306.558-.306.223 0 .529.02.819.056l.163-.866a8.666 8.666 0 0 0-1.004-.074c-1.272 0-1.713.575-1.709 1.266M19.143 15.735h-.933l.022-.393c-.284.31-.663.454-1.177.454-.609 0-1.026-.418-1.026-1.019 0-.913.725-1.44 1.971-1.44.128 0 .29.01.458.028a.804.804 0 0 0 .044-.24c0-.251-.196-.343-.72-.343a4.29 4.29 0 0 0-1.19.167l.16-.838c.56-.143.926-.198 1.34-.198.966 0 1.475.38 1.475 1.093.009.191-.058.573-.09.74-.039.244-.306 1.656-.334 1.989zm-.819-1.667a2.087 2.087 0 0 0-.25-.015c-.637 0-.96.19-.96.565 0 .236.158.384.403.384.458 0 .788-.384.807-.934zM28.028 15.675a2.89 2.89 0 0 1-.803.121c-.572 0-.883-.293-.883-.815-.019-.144.121-.806.153-.991.032-.185.527-2.885.527-2.885h1.11l-.168.893h.57l-.155.912h-.572s-.314 1.582-.314 1.703c0 .192.116.275.381.275.127 0 .226-.011.302-.034l-.148.821M33.55 13.549c0 .842-.344 1.34-.887 1.34-.396.007-.637-.327-.637-.826 0-.592.35-1.26.914-1.26.454 0 .61.361.61.746zm1.199.024c0-.932-.61-1.66-1.76-1.66-1.322 0-2.177.884-2.177 2.188 0 .932.504 1.695 1.757 1.695 1.265 0 2.18-.677 2.18-2.223zM29.017 11.998c-.141 1.155-.391 2.327-.586 3.485l-.047.252h1.121c.404-2.236.54-2.873 1.387-2.649l.407-1.058c-.59-.218-.97.093-1.315.535.031-.199.09-.39.076-.565h-1.043M15.506 15.735H14.39l.663-3.51-1.528 3.51h-1.018l-.186-3.49-.666 3.49H10.64l.863-4.567h1.746l.092 2.828 1.229-2.828h1.816l-.88 4.567"/>
    </g>
</svg>
