<svg xmlns="http://www.w3.org/2000/svg" width="45" height="27" viewBox="0 0 45 27">
    <g fill="none" fill-rule="evenodd">
        <rect width="45" height="27" fill="#26337A" rx="1.821"/>
        <path fill="#FFFFFE" d="M18.67 17.796l1.384-8.583h2.212l-1.384 8.583H18.67M28.905 9.423a5.468 5.468 0 0 0-1.982-.36c-2.187 0-3.726 1.165-3.739 2.833-.014 1.234 1.099 1.922 1.937 2.332.862.42 1.152.69 1.148 1.065-.006.575-.688.838-1.324.838-.885 0-1.356-.13-2.083-.45l-.284-.136-.31 1.92c.516.24 1.472.447 2.464.458 2.324 0 3.834-1.15 3.852-2.932.008-.978-.581-1.72-1.858-2.332-.773-.398-1.247-.661-1.242-1.064 0-.357.401-.739 1.267-.739a3.88 3.88 0 0 1 1.656.33l.198.098.3-1.86M31.85 14.753c.183-.493.88-2.4.88-2.4-.012.023.183-.496.295-.818l.15.74s.423 2.049.51 2.478H31.85zm2.728-5.532H32.87c-.53 0-.927.152-1.16.712l-3.284 7.866h2.323s.38-1.058.465-1.29l2.833.004c.066.3.27 1.286.27 1.286h2.052l-1.79-8.578zM16.815 9.22l-2.165 5.852-.232-1.19c-.403-1.37-1.659-2.856-3.063-3.6l1.98 7.507 2.34-.002L19.16 9.22h-2.344"/>
        <path fill="#EC982D" d="M12.64 9.214H9.075l-.03.178c2.776.71 4.612 2.427 5.374 4.49l-.775-3.944c-.133-.544-.522-.705-1.002-.724"/>
    </g>
</svg>
