<svg xmlns="http://www.w3.org/2000/svg" width="24" height="16" viewBox="0 0 24 16">
    <g fill="#000" fill-rule="nonzero">
        <path stroke="#F9FBFD" stroke-width=".25" d="M22.75 1.222a.72.72 0 0 0-.515-.208H1.732a.72.72 0 0 0-.515.208.657.657 0 0 0-.217.49v12.582c0 .189.073.353.217.491a.721.721 0 0 0 .515.208h20.503a.72.72 0 0 0 .514-.208.657.657 0 0 0 .218-.491V1.713a.658.658 0 0 0-.218-.491zm-.499 9.976c-.872 0-1.616.312-2.234.936a3.095 3.095 0 0 0-.925 2.26H4.875c0-.883-.309-1.636-.926-2.26a3.026 3.026 0 0 0-2.233-.936v-6.39c.872 0 1.616-.312 2.233-.936a3.096 3.096 0 0 0 .926-2.259h14.217c0 .882.308 1.635.926 2.26a3.027 3.027 0 0 0 2.233.935v6.39z"/>
        <path d="M13.797 6.498a2.15 2.15 0 0 0-.769-.551 2.535 2.535 0 0 0-1.045-.213c-.378 0-.726.07-1.045.213a2.15 2.15 0 0 0-.768.55c-.194.226-.345.47-.45.732-.107.262-.16.52-.16.774 0 .255.053.513.16.775.105.262.256.506.45.731.194.226.45.41.768.551.319.142.667.213 1.045.213.379 0 .727-.07 1.045-.213a2.15 2.15 0 0 0 .769-.55c.194-.226.344-.47.45-.732a2.05 2.05 0 0 0 .16-.775c0-.254-.054-.512-.16-.774a2.622 2.622 0 0 0-.45-.731z"/>
    </g>
</svg>
