<svg xmlns="http://www.w3.org/2000/svg" width="24" height="17" viewBox="0 0 24 17">
    <g fill="#000" fill-rule="nonzero">
        <path d="M22.247 0H1.753A1.75 1.75 0 0 0 0 1.742V14.57c0 .961.786 1.742 1.753 1.742h20.494c.967 0 1.753-.78 1.753-1.742V1.742C24 .782 23.214 0 22.247 0zM1.753.64h20.494c.612 0 1.109.494 1.109 1.102v.548H.644v-.548c0-.608.497-1.102 1.109-1.102zm20.494 15.032H1.753A1.107 1.107 0 0 1 .644 14.57V5.734h22.712v8.836c0 .608-.497 1.102-1.109 1.102z"/>
        <path d="M21.09 11.316h-3.18a.328.328 0 0 0-.33.327v2.417c0 .181.147.327.33.327h3.18a.328.328 0 0 0 .328-.327v-2.417a.328.328 0 0 0-.329-.327zm-.33 2.417h-2.522V11.97h2.523v1.763z"/>
    </g>
</svg>
