<svg xmlns="http://www.w3.org/2000/svg" width="25" height="17" viewBox="0 0 25 17">
    <g fill="#000" fill-rule="nonzero">
        <path stroke="#F9FBFD" stroke-width=".5" d="M22.083 1H2.917C1.86 1 1 1.747 1 2.667v11.666C1 15.253 1.86 16 2.917 16h19.166C23.14 16 24 15.253 24 14.333V2.667C24 1.747 23.14 1 22.083 1zm.959 13.222H1.958v-1.889h21.084v1.89zm0-2.833H1.958v-8.5c0-.52.43-.945.959-.945h19.166c.53 0 .959.424.959.945v8.5z"/>
        <path d="M5.313 4.778c.263 0 .479.211.479.472s.214.472.479.472.479-.211.479-.472c0-.781-.645-1.417-1.437-1.417-.793 0-1.438.636-1.438 1.417v1.889c0 .781.645 1.417 1.438 1.417.792 0 1.437-.636 1.437-1.417v-.472a.475.475 0 0 0-.48-.473h-.478a.475.475 0 0 0-.48.473c0 .26.215.472.48.472 0 .26-.216.472-.48.472a.476.476 0 0 1-.479-.472V5.25c0-.26.216-.472.48-.472zM14.417 3.833h-4.313a.475.475 0 0 0-.479.473v3.777c0 .261.214.473.48.473.264 0 .478-.212.478-.473V6.667h.959c.265 0 .479-.212.479-.473a.475.475 0 0 0-.48-.472h-.958v-.944H12.5v3.305c0 .261.214.473.48.473.264 0 .478-.212.478-.473V4.778h.959c.265 0 .479-.211.479-.472a.475.475 0 0 0-.48-.473zM8.188 3.833a.475.475 0 0 0-.48.473v3.777c0 .261.215.473.48.473.264 0 .479-.212.479-.473V4.306a.475.475 0 0 0-.48-.473z"/>
    </g>
</svg>
