<svg xmlns="http://www.w3.org/2000/svg" width="24" height="18" viewBox="0 0 24 18">
    <path fill="#000" fill-rule="nonzero" d="M1.674 0C.752 0 0 .673 0 1.5v15c0 .827.752 1.5 1.674 1.5h20.652c.922 0 1.674-.673 1.674-1.5v-15c0-.827-.752-1.5-1.674-1.5H1.674zM3.07 2.25c.311 0 .558.22.558.5s-.247.5-.558.5c-.312 0-.558-.22-.558-.5s.246-.5.558-.5zm3.628 0c.311 0 .558.22.558.5s-.247.5-.558.5c-.312 0-.558-.22-.558-.5s.246-.5.558-.5zm3.628 0c.311 0 .558.22.558.5s-.247.5-.558.5c-.312 0-.559-.22-.559-.5s.247-.5.559-.5zM.558 5.5h22.884v11c0 .558-.493 1-1.116 1H1.674c-.623 0-1.116-.442-1.116-1v-11zm11.285 1.539l-4.744 3a.238.238 0 0 0-.118.284c.037.108.15.18.275.177h1.116v5h-.558c-.154 0-.28.112-.28.25s.126.25.28.25h8.372c.154 0 .28-.112.28-.25s-.126-.25-.28-.25h-.558v-5h1.116a.278.278 0 0 0 .274-.177.238.238 0 0 0-.117-.284l-4.744-3A.301.301 0 0 0 12 6.992a.394.394 0 0 0-.157.047zm.157.516L15.872 10H8.128L12 7.555zM8.93 10.5h1.675v5H8.93v-5zm2.233 0h1.674v5h-1.674v-5zm2.232 0h1.675v5h-1.675v-5z"/>
</svg>
