<?xml version="1.0" encoding="UTF-8"?>
<svg width="113px" height="29px" viewBox="0 0 113 29" version="1.1" xmlns="http://www.w3.org/2000/svg" xmlns:xlink="http://www.w3.org/1999/xlink">
    <!-- Generator: Sketch 54.1 (76490) - https://sketchapp.com -->
    <title>Group 6@1x</title>
    <desc>Created with Sketch.</desc>
    <g id="Desktop_vip2thankyou" stroke="none" stroke-width="1" fill="none" fill-rule="evenodd">
        <g id="Group-6" transform="translate(56.000000, 14.500000) scale(-1, 1) translate(-56.000000, -14.500000) translate(0.000000, 1.000000)">
            <rect id="Rectangle" stroke="#FFCD00" stroke-width="0.5" fill="#FAF2D7" x="3.25" y="4.25" width="108.5" height="18.5" rx="3"></rect>
            <circle id="Oval" stroke="#FFCD00" stroke-width="0.4" fill="#FFFFFF" cx="13.5" cy="13.5" r="13.5"></circle>
            <g id="shipping-(1)" transform="translate(13.000000, 13.500000) scale(-1, 1) translate(-13.000000, -13.500000) translate(3.000000, 7.000000)" fill="#FFC600" fill-rule="nonzero">
                <path d="M19.9997008,6.69607818 C19.9997008,6.6923595 19.9995115,6.68864082 19.9994641,6.68492213 C19.9939732,6.43567619 19.7927041,6.23707966 19.5390349,6.23707966 L19.4181408,6.23707966 L17.5510995,2.64746735 C17.4723338,2.49589569 17.3152284,2.40151644 17.1417923,2.40146937 L13.9542416,2.40081036 L14.0758457,1.44223729 C14.1105424,1.05916581 13.9914471,0.697464995 13.7404286,0.423694568 C13.4898836,0.150489005 13.1400766,0 12.7553837,0 L2.86233214,0 C2.61358579,0 2.40228157,0.191394524 2.37856665,0.438145655 L2.27939946,1.22791873 L7.91597739,1.22791873 C8.28197296,1.22791873 8.57090687,1.52296568 8.56134517,1.88692595 C8.55173612,2.25088622 8.24727628,2.54593317 7.88128071,2.54593317 L6.00117491,2.54593317 C6.00150625,2.5468746 6.0018376,2.54781604 6.00216894,2.54871041 L0.481088836,2.54871041 C0.222260101,2.54871041 0.00693239074,2.75733327 0.000163460759,3.01472266 C-0.00660546923,3.27211205 0.197693145,3.4807349 0.45652188,3.4807349 L7.76583022,3.4807349 C8.10512875,3.53270233 8.35860861,3.82450131 8.34928358,4.17777625 C8.33905918,4.56574321 8.01609129,4.88032501 7.62661747,4.88357298 L2.58740944,4.88357298 C2.32597727,4.88357298 2.10851948,5.09431407 2.10165588,5.35429242 C2.09479228,5.61427077 2.30117364,5.82501186 2.56260581,5.82501186 L7.54245553,5.82501186 C7.88672426,5.87269574 8.14526898,6.16684832 8.13589662,6.52355951 C8.12562488,6.91350349 7.79939086,7.22963867 7.40726627,7.22963867 L1.69424203,7.22963867 L1.69424203,7.23015646 L1.21421602,7.23015646 C0.952783852,7.23015646 0.735326059,7.44089755 0.728462459,7.7008759 C0.721598859,7.96085425 0.927932885,8.17159534 1.18941239,8.17159534 L1.60368984,8.17159534 L1.44166154,9.85761823 C1.40691752,10.2406426 1.52601282,10.6023435 1.77707858,10.8761139 C2.02757633,11.1493665 2.37743061,11.2998085 2.76212357,11.2998085 L3.11950414,11.2998085 C3.2898161,12.2682666 4.13238221,13 5.16301097,13 C6.19363973,13 7.07473667,12.2682666 7.29593394,11.2998555 L11.7558068,11.2998555 C12.1164061,11.2998555 12.4577874,11.162735 12.7255152,10.9382489 C12.9703327,11.171914 13.2948626,11.2998555 13.6492138,11.2998555 L13.7225833,11.2998555 C13.8928479,12.2682666 14.735414,13 15.7660901,13 C16.7967189,13 17.6778158,12.2682666 17.8990131,11.2998555 L18.1933905,11.2998555 C18.9602677,11.2998555 19.6403795,10.679871 19.7094888,9.91782325 L19.9979494,6.74018459 C19.9983281,6.73590105 19.9981387,6.73166457 19.9984227,6.72733395 C19.9988961,6.72079095 19.9997955,6.71438917 19.9999848,6.7077991 C20.0000795,6.70384505 19.9997008,6.70003223 19.9997008,6.69607818 Z M5.1878146,12.0585611 C4.53529922,12.0585611 4.01830444,11.5306963 4.03539243,10.8818096 C4.05248043,10.2328758 4.59726096,9.70496392 5.24977634,9.70496392 C5.90229173,9.70496392 6.41923917,10.2328758 6.40215117,10.8818096 C6.38506317,11.5306963 5.84032998,12.0585611 5.1878146,12.0585611 Z M15.7908937,12.0585611 C15.1383784,12.0585611 14.6214309,11.5306963 14.6384716,10.8818096 C14.6555596,10.2328758 15.2003401,9.70496392 15.8528555,9.70496392 C16.5053709,9.70496392 17.0223656,10.2328758 17.0052303,10.8818096 C16.9881423,11.5306963 16.4434091,12.0585611 15.7908937,12.0585611 Z M18.7663828,9.85761823 C18.7417685,10.1290821 18.4907501,10.3584166 18.2182415,10.3584166 L17.8998178,10.3584166 C17.6889869,9.44272612 16.8705617,8.76352504 15.8776118,8.76352504 C14.8846618,8.76352504 14.0304986,9.44272612 13.7714805,10.3584166 L13.6740174,10.3584166 C13.5536914,10.3584166 13.4463352,10.3135571 13.371593,10.2320285 C13.2963774,10.1500291 13.2609707,10.0384216 13.2719051,9.91777618 L13.8687543,3.34224924 L15.2395336,3.34253167 L15.0222652,5.73623417 C14.9874738,6.11925858 15.1065218,6.4809594 15.3575402,6.75472983 C15.608038,7.02802953 15.9579869,7.17856561 16.3427272,7.17856561 L19.0094963,7.17856561 L18.7663828,9.85761823 Z" id="Shape"></path>
            </g>
        </g>
        <text fill="#000" font-family="ProximaNova-Regular, Proxima Nova" font-size="12" transform="translate(1 1)">
            <tspan x="75.274" y="18">مجاناً</tspan>
        </text>
    </g>
</svg>