<svg xmlns="http://www.w3.org/2000/svg" width="16" height="12" viewBox="0 0 16 12">
    <g fill="none" fill-rule="nonzero">
        <path fill="#8A8A8F" d="M13.342 11.882H1.743c-.961 0-1.743-.78-1.743-1.738V3.096c0-.958.782-1.738 1.743-1.738H4.11l.207-.696A.86.86 0 0 1 5.162 0h4.76c.4 0 .754.278.848.664l.005.024.189.67h2.378c.961 0 1.743.779 1.743 1.737v7.048c0 .958-.782 1.738-1.743 1.738zM1.743 1.938c-.64 0-1.162.52-1.162 1.158v7.048c0 .639.521 1.158 1.162 1.158h11.599c.64 0 1.162-.52 1.162-1.158V3.096c0-.639-.521-1.158-1.162-1.158h-2.818L10.206.807A.292.292 0 0 0 9.923.58h-4.76a.288.288 0 0 0-.284.227l-.336 1.13h-2.8zm5.8 8.193a3.686 3.686 0 0 1-3.688-3.676 3.686 3.686 0 0 1 3.688-3.676 3.686 3.686 0 0 1 3.687 3.676 3.686 3.686 0 0 1-3.687 3.676zm0-6.773a3.105 3.105 0 0 0-3.107 3.097A3.105 3.105 0 0 0 7.543 9.55a3.105 3.105 0 0 0 3.106-3.096 3.105 3.105 0 0 0-3.106-3.097zm5.424-.345a.535.535 0 1 0-.002 1.07.535.535 0 0 0 .002-1.07z"/>
        <path d="M-5-6h26v26H-5z"/>
    </g>
</svg>
