<svg xmlns="http://www.w3.org/2000/svg" width="25" height="21" viewBox="0 0 25 21">
    <g fill="#8A8A8F" fill-rule="nonzero">
        <path stroke="#979797" stroke-width=".5" d="M22.027 4.086h-3.294l-.885-1.922A2 2 0 0 0 16.04 1.01H9.026c-.771 0-1.481.454-1.803 1.154l-.89 1.922H3.039c-1.098 0-2.007.89-2.007 1.988v11.88c0 1.097.909 1.987 2.007 1.987h18.988c1.098 0 2.007-.894 2.007-1.988V6.073c0-1.097-.909-1.987-2.007-1.987zm.871 13.867c0 .469-.402.852-.87.852H3.038c-.469 0-.87-.383-.87-.852V6.073c0-.468.401-.851.87-.851h3.658a.566.566 0 0 0 .516-.331l1.042-2.249a.856.856 0 0 1 .771-.497h7.019c.331 0 .634.195.771.497l1.042 2.249a.575.575 0 0 0 .515.33h3.659c.468 0 .87.38.87.853v11.88h-.004z"/>
        <path stroke="#979797" stroke-width=".5" d="M12.985 5.577A5.594 5.594 0 0 0 7.4 11.164a5.594 5.594 0 0 0 5.586 5.586 5.594 5.594 0 0 0 5.587-5.586 5.594 5.594 0 0 0-5.587-5.587zm0 10.118A4.542 4.542 0 0 1 8.45 11.16c0-2.5 2.035-4.531 4.535-4.531s4.536 2.031 4.536 4.531c0 2.5-2.036 4.536-4.536 4.536z"/>
        <path d="M5.623 6.878H3.825a.57.57 0 0 0-.568.568.57.57 0 0 0 .568.568h1.798a.57.57 0 0 0 .568-.568.57.57 0 0 0-.568-.568z"/>
    </g>
</svg>
