<svg xmlns="http://www.w3.org/2000/svg" width="17" height="21" viewBox="0 0 17 21">
    <path fill="#FFF" fill-rule="nonzero" d="M8.125 19.875c0 .345-.28.625-.625.625H6.25a.625.625 0 0 1-.625-.625v-1.25h-3.75A1.875 1.875 0 0 1 0 16.75V4.25c0-1.036.84-1.875 1.875-1.875h3.75v-1.25c0-.345.28-.625.625-.625H7.5c.345 0 .625.28.625.625v18.75zm2.5-3.75a.625.625 0 0 0-.625.625V18c0 .345.28.625.625.625h3.75c1.036 0 1.875-.84 1.875-1.875V4.25c0-1.036-.84-1.875-1.875-1.875h-3.75A.625.625 0 0 0 10 3v1.25c0 .345.28.625.625.625h3.125v11.25h-3.125z"/>
</svg>
