<svg xmlns="http://www.w3.org/2000/svg" width="30" height="30" viewBox="0 0 30 30">
    <g fill="#939393" fill-rule="nonzero">
        <path d="M26.875 30h-12.5a3.13 3.13 0 0 1-3.125-3.125v-5a.625.625 0 0 1 1.25 0v5c0 1.034.841 1.875 1.875 1.875h12.5a1.877 1.877 0 0 0 1.875-1.875v-12.5a1.877 1.877 0 0 0-1.875-1.875h-6.25a.625.625 0 0 1 0-1.25h6.25A3.13 3.13 0 0 1 30 14.375v12.5A3.13 3.13 0 0 1 26.875 30zM9.375 18.75H8.75a.625.625 0 0 1 0-1.25h.625a.625.625 0 0 1 0 1.25zM6.224 18.75H4.96a.625.625 0 0 1 0-1.25h1.264a.625.625 0 0 1 0 1.25zm-3.782-.095a.629.629 0 0 1-.17-.024 3.121 3.121 0 0 1-1.348-.79.624.624 0 1 1 .881-.886c.225.224.505.388.807.474a.624.624 0 0 1-.17 1.226zM.625 15.696A.625.625 0 0 1 0 15.071v-1.264a.625.625 0 0 1 1.25 0v1.264c0 .345-.28.625-.625.625zm0-3.791A.625.625 0 0 1 0 11.28v-1.264a.625.625 0 0 1 1.25 0v1.264c0 .345-.28.625-.625.625zm0-3.79A.625.625 0 0 1 0 7.49V6.226a.625.625 0 0 1 1.25 0V7.49c0 .345-.28.625-.625.625zm17.5-1.289a.625.625 0 0 1-.625-.625V4.938a.625.625 0 0 1 1.25 0V6.2c0 .345-.28.625-.625.625zM.625 4.324A.625.625 0 0 1 0 3.699v-.574c0-.288.04-.574.117-.85a.62.62 0 0 1 .772-.431.624.624 0 0 1 .431.771c-.046.165-.07.336-.07.51v.574c0 .345-.28.625-.625.625zm17.399-1.279a.626.626 0 0 1-.6-.45 1.888 1.888 0 0 0-.48-.804.625.625 0 0 1 .879-.888c.376.372.653.836.8 1.34a.625.625 0 0 1-.6.802zM2.422 1.35A.626.626 0 0 1 2.247.125C2.531.043 2.828 0 3.126 0h.551a.625.625 0 0 1 0 1.25h-.551c-.18 0-.356.025-.526.075a.613.613 0 0 1-.177.025zm12.627-.1h-1.264a.625.625 0 0 1 0-1.25h1.264a.625.625 0 0 1 0 1.25zm-3.791 0H9.995a.625.625 0 0 1 0-1.25h1.264a.625.625 0 1 1-.002 1.25zm-3.79 0H6.204a.625.625 0 0 1 0-1.25h1.264a.625.625 0 0 1 0 1.25zM18.125 10a.625.625 0 0 1-.625-.625V8.75a.625.625 0 0 1 1.25 0v.625c0 .345-.28.625-.625.625z"/>
        <path d="M15.688 22.5h-2.563A3.13 3.13 0 0 1 10 19.375v-2.241l-.56-.56a1.936 1.936 0 0 1-.571-1.38c0-.522.202-1.012.571-1.38a1.941 1.941 0 0 1 1.115-.554c-.037-.544.151-1.1.566-1.515a1.968 1.968 0 0 1 1.653-.552c.071-.37.249-.724.535-1.01a1.988 1.988 0 0 1 2.021-.464 1.954 1.954 0 0 1 3.237-.786l1.938 1.937a6.773 6.773 0 0 1 1.995 4.818 6.82 6.82 0 0 1-6.813 6.812zm-4.438-4.116v.991c0 1.034.841 1.875 1.875 1.875h2.563a5.568 5.568 0 0 0 5.562-5.563 5.527 5.527 0 0 0-1.629-3.932l-1.937-1.938a.7.7 0 0 0-.993.99.624.624 0 1 1-.882.886l-.625-.625a.717.717 0 0 0-.991 0 .7.7 0 0 0 0 .99l.625.626a.623.623 0 0 1 0 .884.625.625 0 0 1-.884 0l-.938-.938a.717.717 0 0 0-.991 0 .7.7 0 0 0 0 .991l1.563 1.563a.623.623 0 0 1 0 .883.625.625 0 0 1-.884 0L11.315 14.7a.717.717 0 0 0-.991 0 .696.696 0 0 0 0 .99l3.244 3.244a.628.628 0 0 1 0 .884.625.625 0 0 1-.884 0l-1.434-1.433z"/>
    </g>
</svg>
