<svg xmlns="http://www.w3.org/2000/svg" width="117" height="31" viewBox="0 0 117 31">
    <g fill="none" fill-rule="evenodd">
        <g transform="translate(1 1)">
            <rect width="111.5" height="18.5" x="4.25" y="5.25" fill="#FAF2D7" stroke="#FFCD00" stroke-width=".5" rx="3"/>
            <circle cx="14.5" cy="14.5" r="14.5" fill="#FFF" stroke="#FFCD00" stroke-width=".4"/>
            <path fill="#FFC600" fill-rule="nonzero" d="M24.975 14.198v-.012a.497.497 0 0 0-.507-.48h-.132L22.284 9.85a.506.506 0 0 0-.45-.264h-3.502l.134-1.03c.038-.411-.093-.8-.369-1.093a1.464 1.464 0 0 0-1.082-.455H6.145a.531.531 0 0 0-.532.47l-.109.848h6.194c.402 0 .72.317.709.708a.742.742 0 0 1-.747.707H9.594v.003H3.53a.525.525 0 0 0-.529.5c-.007.277.217.501.502.501h8.03a.74.74 0 0 1 .642.748.795.795 0 0 1-.794.758H5.843a.53.53 0 0 0-.534.506c-.007.279.22.505.507.505h5.471a.74.74 0 0 1 .652.75.795.795 0 0 1-.8.758H4.334a.53.53 0 0 0-.534.506c-.007.28.22.506.507.506h.455l-.178 1.81c-.038.411.093.8.369 1.093.275.294.66.455 1.082.455h.393c.187 1.04 1.112 1.826 2.245 1.826 1.132 0 2.1-.786 2.343-1.826h4.9c.397 0 .772-.147 1.066-.388.27.251.626.388 1.015.388h.08c.188 1.04 1.114 1.826 2.246 1.826s2.1-.786 2.344-1.826h.323c.843 0 1.59-.665 1.666-1.483l.317-3.412v-.014l.002-.021v-.013zM8.7 19.956c-.717 0-1.285-.567-1.266-1.263.019-.697.617-1.264 1.334-1.264.717 0 1.285.567 1.266 1.264-.018.696-.617 1.263-1.334 1.263zm11.65 0c-.717 0-1.285-.567-1.266-1.263.019-.697.617-1.264 1.334-1.264.717 0 1.285.567 1.266 1.264-.018.696-.617 1.263-1.334 1.263zm3.27-2.363a.62.62 0 0 1-.603.538h-.35c-.231-.984-1.13-1.713-2.221-1.713-1.091 0-2.03.73-2.315 1.713h-.107a.448.448 0 0 1-.332-.136.427.427 0 0 1-.11-.338l.656-7.06h1.506l-.238 2.57c-.039.412.092.8.368 1.094.275.294.66.455 1.083.455h2.93l-.267 2.877z"/>
        </g>
        <text fill="#000" font-family="ProximaNova-Regular, Proxima Nova" font-size="12" transform="translate(1 1)">
            <tspan x="35.274" y="18">Free Shipping</tspan>
        </text>
    </g>
</svg>
