<svg xmlns="http://www.w3.org/2000/svg" width="16" height="14" viewBox="0 0 16 14">
    <g fill="none" fill-rule="nonzero" opacity=".8">
        <path fill="#DA4453" d="M12.286 1.28C11.809.45 11.239.029 10.589.029c-.747 0-1.524.569-2.308 1.692-.1.143-.195.287-.281.426a9.818 9.818 0 0 0-.281-.426C6.935.598 6.159.029 5.41.029c-.65 0-1.22.42-1.697 1.25-.356.622-.228 1.068-.058 1.333.308.477.994.798 2.1.982.848.141 1.746.162 2.205.162h.077c.46 0 1.358-.02 2.206-.162 1.105-.184 1.792-.505 2.1-.982.17-.265.298-.711-.058-1.332z"/>
        <path fill="#49BFD8" d="M15 6.027c0-.342-.3-.62-.667-.62H1.667c-.368 0-.667.278-.667.62v7.352c0 .343.299.62.667.62h12.666c.368 0 .667-.277.667-.62V6.027z"/>
        <path fill="#49BFD8" d="M16 6.55c0 .342-.3.62-.667.62H.667C.299 7.17 0 6.892 0 6.55V3.443c0-.343.299-.62.667-.62h14.666c.368 0 .667.277.667.62V6.55z"/>
        <path fill="#ED5564" d="M6.333 2.823h3.334v4.346H6.333z"/>
        <path fill="#2698B0" d="M1 7.784l14 1.185V7.19H1z"/>
        <path fill="#DA4453" d="M6.333 7.169h3.334v6.83H6.333z"/>
        <path fill="#C63046" d="M6.333 8.235l3.334.283V7.189H6.333z"/>
    </g>
</svg>
