<svg xmlns="http://www.w3.org/2000/svg" width="22" height="24" viewBox="0 0 22 24">
    <g fill="none" fill-rule="evenodd">
        <path d="M-6-6h34v34H-6z"/>
        <g transform="translate(.071 .071)">
            <path fill="#000" fill-rule="nonzero" d="M17.049 4.233a2.523 2.523 0 0 0 .673-1.722C17.722 1.115 16.607 0 15.255 0c-1.026 0-3.39 1.534-4.335 2.913C9.943 1.534 7.588.045 6.602.045c-1.347 0-2.467 1.115-2.467 2.51 0 .648.24 1.232.629 1.674H0v6h1.303v11.628h19.256V10.233h1.298v-6H17.05zm-1.794-3.3c.839 0 1.535.695 1.535 1.627 0 .785-.549 1.459-1.258 1.602h-3.774c-.24-.072-.316-.156-.316-.205 0-.794 2.787-3.025 3.813-3.025zm-8.653 0c.977 0 3.814 2.23 3.814 3.024 0 .071-.165.151-.286.205h-3.8c-.71-.143-1.258-.817-1.258-1.602-.005-.887.696-1.628 1.53-1.628zm1.534 19.992H2.23V10.233h5.906v10.692zm0-11.575H.932V5.165h7.209V9.35h-.005zm4.648 11.575h-3.72V5.16h3.72v15.764zm6.838 0h-5.906V10.233h5.906v10.692zM20.92 9.35h-7.204V5.165h7.209V9.35h-.005z"/>
            <rect width="2.429" height="2.429" x="15.786" y="20.643" fill="#FFF" rx="1.214"/>
        </g>
    </g>
</svg>
