<svg xmlns="http://www.w3.org/2000/svg" xmlns:xlink="http://www.w3.org/1999/xlink" width="94" height="74" viewBox="0 0 94 74">
    <defs>
        <path id="a" d="M16.622 8.646a8.13 8.13 0 1 0-16.26-.18 8.13 8.13 0 0 0 16.26.18"/>
        <path id="c" d="M16.622 8.646a8.13 8.13 0 1 0-16.26-.18 8.13 8.13 0 0 0 16.26.18"/>
        <path id="e" d="M16.622 8.646a8.13 8.13 0 1 0-16.26-.18 8.13 8.13 0 0 0 16.26.18"/>
        <path id="g" d="M16.622 8.646a8.13 8.13 0 1 0-16.26-.18 8.13 8.13 0 0 0 16.26.18"/>
        <path id="i" d="M9.778 5.086A4.783 4.783 0 1 0 .213 4.98a4.783 4.783 0 0 0 9.565.106"/>
        <path id="k" d="M9.778 5.086A4.783 4.783 0 1 0 .213 4.98a4.783 4.783 0 0 0 9.565.106"/>
    </defs>
    <g fill="none" fill-rule="evenodd">
        <g transform="translate(27)">
            <mask id="b" fill="#fff">
                <use xlink:href="#a"/>
            </mask>
            <path fill="#FFF" d="M12.524 22.975L-5.827 4.21l-.788.773 18.35 18.765.789-.772M14.703 20.844L-3.647 2.08l-.79.77 18.351 18.767.789-.772M16.882 18.713L-1.468-.053l-.789.772 18.35 18.767.789-.773M19.061 16.583L.711-2.183l-.789.77 18.35 18.766.789-.77M21.24 14.452L2.89-4.314l-.789.77 18.35 18.767.79-.771M23.42 12.32L5.07-6.444l-.789.771 18.35 18.766.789-.771" mask="url(#b)"/>
        </g>
        <g transform="translate(1 17)">
            <mask id="d" fill="#fff">
                <use xlink:href="#c"/>
            </mask>
            <path fill="#FFF" d="M12.524 22.975L-5.827 4.21l-.788.773 18.35 18.765.789-.772M14.703 20.844L-3.647 2.08l-.79.77 18.351 18.767.789-.772M16.882 18.713L-1.468-.053l-.789.772 18.35 18.767.789-.773M19.061 16.583L.711-2.183l-.789.77 18.35 18.766.789-.77M21.24 14.452L2.89-4.314l-.789.77 18.35 18.767.79-.771M23.42 12.32L5.07-6.444l-.789.771 18.35 18.766.789-.771" mask="url(#d)"/>
        </g>
        <g transform="translate(77 18)">
            <mask id="f" fill="#fff">
                <use xlink:href="#e"/>
            </mask>
            <path fill="#FFF" d="M12.524 22.975L-5.827 4.21l-.788.773 18.35 18.765.789-.772M14.703 20.844L-3.647 2.08l-.79.77 18.351 18.767.789-.772M16.882 18.713L-1.468-.053l-.789.772 18.35 18.767.789-.773M19.061 16.583L.711-2.183l-.789.77 18.35 18.766.789-.77M21.24 14.452L2.89-4.314l-.789.77 18.35 18.767.79-.771M23.42 12.32L5.07-6.444l-.789.771 18.35 18.766.789-.771" mask="url(#f)"/>
        </g>
        <g transform="translate(58 57)">
            <mask id="h" fill="#fff">
                <use xlink:href="#g"/>
            </mask>
            <path fill="#FFF" d="M12.524 22.975L-5.827 4.21l-.788.773 18.35 18.765.789-.772M14.703 20.844L-3.647 2.08l-.79.77 18.351 18.767.789-.772M16.882 18.713L-1.468-.053l-.789.772 18.35 18.767.789-.773M19.061 16.583L.711-2.183l-.789.77 18.35 18.766.789-.77M21.24 14.452L2.89-4.314l-.789.77 18.35 18.767.79-.771M23.42 12.32L5.07-6.444l-.789.771 18.35 18.766.789-.771" mask="url(#h)"/>
        </g>
        <g transform="translate(0 48)">
            <mask id="j" fill="#fff">
                <use xlink:href="#i"/>
            </mask>
            <path fill="#FFF" d="M7.367 13.515L-3.428 2.476l-.463.455L6.903 13.969l.464-.454M8.649 12.261L-2.146 1.223l-.463.453L8.185 12.715l.464-.454M9.93 11.008L-.863-.032l-.464.455 10.795 11.04.464-.455M11.212 9.754L.418-1.284l-.464.453 10.794 11.039.464-.454M12.494 8.501L1.7-2.538l-.464.454L12.03 8.955l.464-.454M13.776 7.247L2.982-3.79l-.464.453 10.794 11.04.464-.455" mask="url(#j)"/>
        </g>
        <g transform="translate(35 47)">
            <mask id="l" fill="#fff">
                <use xlink:href="#k"/>
            </mask>
            <path fill="#FFF" d="M7.367 13.515L-3.428 2.476l-.463.455L6.903 13.969l.464-.454M8.649 12.261L-2.146 1.223l-.463.453L8.185 12.715l.464-.454M9.93 11.008L-.863-.032l-.464.455 10.795 11.04.464-.455M11.212 9.754L.418-1.284l-.464.453 10.794 11.039.464-.454M12.494 8.501L1.7-2.538l-.464.454L12.03 8.955l.464-.454M13.776 7.247L2.982-3.79l-.464.453 10.794 11.04.464-.455" mask="url(#l)"/>
        </g>
        <path fill="#FFF" d="M51.55 29.285c1.775-1.924 4.633-2.258 6.886-.805 2.25 1.452 2.385 4.337.884 6.26-.635.813.714 1.765 1.351.947 2.148-2.75 1.651-6.267-1.192-8.434-2.84-2.165-7.04-1.344-9.28 1.084-.708.767.645 1.712 1.35.948"/>
        <path fill="#FFB49B" d="M20.002 55.765a1.227 1.227 0 0 0-.994.5c-.196.265-.278.59-.23.917a1.241 1.241 0 0 0 1.404 1.04c.326-.049.614-.221.81-.487.197-.264.278-.59.23-.916a1.24 1.24 0 0 0-1.22-1.054zM19.998 59a2.011 2.011 0 0 1-1.976-1.706 1.987 1.987 0 0 1 .372-1.485A1.986 1.986 0 0 1 20.002 55a2.01 2.01 0 0 1 1.976 1.706 1.986 1.986 0 0 1-.371 1.485 1.988 1.988 0 0 1-1.609.809zM69.502 14.956a1.534 1.534 0 0 0-1.242.624 1.532 1.532 0 0 0-.287 1.147 1.551 1.551 0 0 0 1.754 1.3c.408-.06.768-.276 1.013-.608a1.53 1.53 0 0 0 .287-1.146 1.55 1.55 0 0 0-1.525-1.317zM69.497 19a2.514 2.514 0 0 1-2.47-2.133c-.097-.66.068-1.32.465-1.856A2.483 2.483 0 0 1 69.502 14c1.228 0 2.29.917 2.47 2.133.098.66-.066 1.32-.464 1.856A2.485 2.485 0 0 1 69.498 19z"/>
        <path fill="#F9F9F9" d="M23.023 66.402c-.572-.217-.786-.461-.522-.738 1.838-1.926 10.328-1.681 14.445-1.59 5.18.116 10.567-.24 15.243.34 1.957.243 6.384.947 7.159 1.629 2.032 1.792-12.067 1.965-14.35 1.939-3.807-.043-18.711-.346-21.975-1.58M42.71 22.22l4.543 9.187a2.787 2.787 0 0 0 2.103 1.526l10.102 1.446c2.287.327 3.207 3.148 1.558 4.774l-7.286 7.182a2.81 2.81 0 0 0-.794 2.482l1.754 10.106c.397 2.287-1.987 4.04-4.034 2.965l-9.046-4.747a2.773 2.773 0 0 0-2.594.007l-9.018 4.8c-2.04 1.087-4.435-.651-4.051-2.94l1.695-10.117a2.81 2.81 0 0 0-.808-2.477l-7.328-7.14c-1.658-1.616-.754-4.442 1.53-4.783l11.543-1.72 5.134-10.536c1.016-2.085 3.97-2.094 4.998-.015"/>
        <path fill="#FFF" d="M42.204 22.02L47.7 33.13c.207.42.606.709 1.067.775l12.219 1.748c1.16.166 1.627 1.598.79 2.423l-8.812 8.687a1.426 1.426 0 0 0-.403 1.26l2.121 12.224c.202 1.16-1.008 2.05-2.047 1.504L41.693 56.01a1.407 1.407 0 0 0-1.316.004l-10.908 5.806c-1.036.551-2.25-.33-2.056-1.493l2.051-12.236a1.426 1.426 0 0 0-.41-1.257l-8.864-8.635c-.841-.82-.382-2.254.777-2.427l12.209-1.82c.46-.07.858-.361 1.062-.781l5.43-11.144c.516-1.058 2.015-1.062 2.536-.007"/>
        <path fill="#FFF" d="M41.979 24.796l4.812 9.731c.182.367.53.62.934.679l10.703 1.531c1.016.145 1.425 1.4.692 2.122L51.4 46.467c-.29.287-.423.7-.353 1.103l1.859 10.706c.176 1.017-.884 1.796-1.793 1.318l-9.583-5.029a1.232 1.232 0 0 0-1.153.003l-9.553 5.086c-.907.482-1.971-.29-1.8-1.308L30.82 47.63a1.25 1.25 0 0 0-.359-1.101l-7.763-7.564c-.737-.718-.335-1.974.68-2.125l10.693-1.594c.404-.06.752-.316.93-.684l4.757-9.76a1.235 1.235 0 0 1 2.22-.006"/>
        <path fill="#101820" stroke="#101820" d="M41.93 22.131l3.003 6.072 1.908 3.858c.392.792.698 1.805 1.686 1.983 2.194.396 4.427.635 6.634.95l4.243.608c.859.122 2.046.084 2.423 1.048.408 1.042-.534 1.72-1.177 2.353l-2.993 2.95c-1.647 1.624-3.356 3.204-4.95 4.88-.688.724-.354 1.69-.204 2.554l.726 4.18c.392 2.259.858 4.519 1.179 6.79.144 1.023-.753 1.853-1.732 1.367-.266-.132-.528-.277-.791-.415l-3.556-1.866c-2.17-1.139-4.324-2.313-6.51-3.417-.874-.441-1.605-.002-2.361.401L36 58.267c-2.218 1.181-4.42 2.4-6.656 3.544-.79.404-1.708-.155-1.837-1.016-.046-.3.03-.61.08-.906l.598-3.563 1.331-7.943c.081-.484.093-.947-.218-1.371-.146-.199-.346-.366-.521-.536l-2.584-2.518-5.745-5.597c-.334-.326-.603-.693-.591-1.191.016-.688.498-1.186 1.153-1.284L24 35.44l8.436-1.257c.793-.118 1.531-.25 1.936-1.06.423-.85.83-1.706 1.246-2.558l3.803-7.805c.11-.225.214-.455.33-.678.172-.326.432-.617.811-.689.571-.108 1.106.249 1.368.738.054.1.408-.03.37-.1-.42-.787-1.35-1.01-2.137-.65-.417.192-.664.526-.857.924l-1.419 2.91-3.733 7.662c-.18.37-.336.746-.726.95-.258.133-.574.148-.858.19l-3.726.556c-2.6.387-5.201.763-7.799 1.162-.505.078-.985.263-1.29.7-.427.613-.318 1.388.191 1.91.608.62 1.246 1.213 1.868 1.82l6.36 6.196c.2.193.406.382.598.582.38.396.482.867.394 1.393l-.516 3.076-1.425 8.506c-.04.238-.1.486-.106.729-.026 1.011.972 1.65 1.897 1.44.303-.068.566-.223.837-.367l1.265-.673 7.985-4.25 1.093-.583c.413-.22.84-.275 1.283-.051.824.416 1.635.858 2.452 1.287l7.769 4.077c.22.116.439.238.662.348.686.337 1.567.188 2.077-.401.612-.706.247-1.746.105-2.565l-1.551-8.936-.258-1.485c-.062-.353-.148-.7-.049-1.059.11-.395.385-.641.661-.913l1.052-1.037 6.43-6.337c.547-.54 1.441-1.173 1.468-2.012.025-.79-.56-1.377-1.304-1.5-.269-.044-.539-.077-.808-.116l-8.725-1.248c-.875-.125-1.758-.227-2.63-.376-.932-.16-1.228-1.139-1.597-1.885l-4.009-8.107-.923-1.867c-.05-.1-.407.027-.371.1"/>
        <path fill="#FFF" d="M22.707 16.81c-.337.48-.487 1.749-.487 1.749s-.791-1.084-1.338-1.43c-.56-.356-1.765-.59-1.765-.59s.975-.574 1.303-1.04c.327-.466.665-1.76.665-1.76s.627.893 1.187 1.248c.493.313 1.804.622 1.804.622s-.996.671-1.37 1.202"/>
        <path fill="#101820" d="M22.533 16.802c-.329.507-.427 1.188-.499 1.778l.358-.096c-.37-.504-.786-1.05-1.302-1.409-.528-.366-1.24-.522-1.861-.645l.005.171c.506-.3 1.1-.666 1.414-1.179.31-.507.473-1.134.623-1.704l-.357.096c.36.51.802 1.069 1.368 1.355.522.263 1.117.413 1.683.548l-.006-.17c-.517.35-1.05.75-1.426 1.255-.105.142.27.123.348.017.343-.462.84-.827 1.313-1.147.072-.049.105-.144-.006-.17-.542-.13-1.113-.271-1.613-.523-.544-.275-.97-.824-1.318-1.316-.074-.105-.33-.01-.358.097-.14.532-.295 1.099-.562 1.581-.28.504-.853.848-1.337 1.134-.075.044-.104.15.005.17.598.12 1.287.263 1.792.62.495.349.895.884 1.252 1.37.07.094.343.019.357-.097.069-.567.16-1.233.475-1.719.098-.151-.276-.128-.348-.017"/>
        <path fill="#FFF" d="M48.12 13.566c-.522.26-1.255 1.305-1.255 1.305s-.183-1.332-.5-1.899c-.324-.58-1.273-1.364-1.273-1.364s1.13-.037 1.638-.29 1.419-1.23 1.419-1.23.128 1.086.452 1.666c.286.511 1.293 1.41 1.293 1.41s-1.194.114-1.774.402"/>
        <path fill="#101820" d="M48.003 13.503c-.541.296-.96.862-1.312 1.36l.36-.042c-.086-.61-.19-1.278-.466-1.833-.286-.576-.834-1.05-1.321-1.455l-.195.187c.601-.022 1.302-.067 1.836-.37.529-.3.982-.784 1.394-1.225l-.336.013c.073.598.191 1.269.521 1.78.323.501.798.927 1.238 1.322l.195-.187c-.627.061-1.296.16-1.872.428-.233.108-.022.25.151.17.515-.239 1.114-.32 1.675-.374.05-.005.293-.099.194-.187-.424-.38-.87-.788-1.195-1.26-.347-.505-.463-1.192-.536-1.792-.016-.13-.286-.04-.336.013-.365.39-.757.799-1.203 1.095-.467.31-1.134.33-1.68.35-.05.002-.295.104-.194.188.488.406 1.058.888 1.327 1.476.247.541.35 1.174.431 1.76.02.15.314.024.36-.04.32-.455.705-.98 1.199-1.25.218-.12-.104-.198-.235-.127"/>
        <path fill="#BBF9BC" d="M36.65 16.154a.61.61 0 0 0 .233.1c.066-.091.108-.428-.062-.705-.207-.335-.628-.655-1.043-.65.106.489.475 1.008.871 1.255zm-.665 1.078c-.638-.398-1.187-1.131-1.4-1.92-.242.135-.49.303-.75.505a.628.628 0 0 1-.884-.114.636.636 0 0 1 .113-.89c.533-.414 1.046-.718 1.55-.917.249-.685.58-1.3.985-1.83a.628.628 0 0 1 .884-.117.636.636 0 0 1 .116.889c-.189.247-.359.52-.508.815.785.116 1.454.664 1.802 1.228.459.746.402 1.748-.13 2.283-.09.09-.31.276-.642.339-.294.055-.677.015-1.136-.271z"/>
        <path fill="#101820" d="M34.018 14.026c-.537.29-1.674.816-1.324 1.607a.772.772 0 0 0 .702.45c.41.006.695-.295 1.016-.509.209-.139-.096-.265-.245-.166-.184.122-.426.38-.649.405-.315.033-.542-.31-.505-.593.057-.44.82-.79 1.168-.979.222-.12.022-.315-.163-.215"/>
        <path fill="#101820" d="M36.142 15.149c.305.188.815.67.563 1.083l.242-.115c-.357-.077-.693-.515-.821-.834-.162-.4-.105-.835.024-1.237.12-.374.311-.693.526-1.017.15-.225.287-.481.225-.761-.095-.43-.551-.647-.958-.563-.581.12-.91.87-1.152 1.347-.656 1.299-.513 2.854.545 3.887.769.75 2.1 1.095 2.778.033.834-1.307-.237-2.85-1.486-3.337-.16-.063-.433.168-.214.254 1.036.404 1.887 1.519 1.516 2.671-.17.531-.624.903-1.2.808-.615-.101-1.147-.614-1.49-1.108-.731-1.059-.539-2.41.072-3.472.142-.246.345-.684.62-.792.3-.117.599.159.6.46 0 .286-.207.507-.356.734-.151.231-.268.484-.358.745-.177.513-.254 1.058-.012 1.563.188.39.578.8 1.013.894.093.02.195-.039.241-.115.31-.509-.24-1.103-.632-1.346-.141-.087-.465.107-.286.218"/>
        <path fill="#DEF3F9" d="M61.41 21.79c-.014.386.046.746.187 1.047.045.095.18.386.554.285.279-.076.543-.343.51-.707-.012-.141-.065-.322-.372-.466-.245-.115-.562-.162-.878-.158zm1.373 2.445c-.1.046-.2.083-.303.11-.846.23-1.64-.15-2.024-.968a3.37 3.37 0 0 1-.298-1.204c-.344.299-.78.876-.795 1.212-.002.054.006.06.027.079.266.225.3.625.076.893a.628.628 0 0 1-.888.077 1.337 1.337 0 0 1-.475-1.106c.044-.981 1.02-1.987 1.46-2.295.212-.15.472-.267.756-.352.132-.483.342-.961.625-1.408.77-1.216 1.884-1.913 3.059-1.91.348.001.63.286.629.636-.001.35-.284.633-.632.632-.722-.001-1.467.493-1.992 1.323-.119.187-.22.381-.304.579.404.027.793.115 1.119.267.647.304 1.037.838 1.095 1.504.08.92-.473 1.623-1.135 1.93z"/>
        <path fill="#101820" d="M59.577 22.596c-.144.193-.296.401-.365.637-.06.201-.03.233.08.38.26.35.036 1.074-.485.782-.282-.158-.455-.521-.502-.827-.154-1.012.783-2.139 1.609-2.607.217-.123-.1-.217-.238-.14-1.019.578-2.302 2.203-1.53 3.393.322.497.989.68 1.436.222.2-.204.278-.51.17-.78-.056-.14-.195-.224-.191-.372.006-.222.242-.498.366-.664.11-.146-.266-.136-.35-.024"/>
        <path fill="#101820" d="M62.004 20.7c.868.172 1.649.701 1.728 1.653.077.916-.583 1.806-1.506 1.92-1.05.13-1.669-.818-1.835-1.738-.092-.513.005-1.047.082-1.557.077-.518.254-1.01.512-1.465.444-.784 1.104-1.49 1.953-1.828.371-.147 1.118-.38 1.402.018.154.216.144.57-.088.732-.163.114-.483.08-.678.128-.721.176-1.306.71-1.706 1.32-.46.703-.765 1.763-.59 2.602.057.275.17.622.453.74.261.109.59.005.804-.164.24-.192.388-.519.286-.825-.126-.382-.609-.49-.95-.547-.17-.03-.382.209-.135.25.282.048.659.14.732.463.069.307-.28.813-.593.527-.35-.32-.282-1.055-.215-1.466.175-1.064.763-2.305 1.878-2.642.362-.11.726-.022 1.028-.3a.739.739 0 0 0 .182-.864c-.326-.673-1.332-.406-1.868-.207-.808.3-1.476.89-1.968 1.592-.583.832-.803 1.728-.911 2.727-.096.88.164 1.932.928 2.459.624.431 1.461.383 2.103.016.74-.423 1.184-1.235 1.06-2.094-.14-.966-.979-1.509-1.87-1.685-.145-.029-.438.191-.218.235"/>
        <path fill="#FFF" d="M22.794 27.186a2.234 2.234 0 0 0-1.055.075c-.1.034-.401.14-.34.523.044.287.28.58.643.586.142.003.326-.031.5-.322.14-.233.222-.545.252-.862zm-2.564 1.111a1.92 1.92 0 0 1-.078-.315c-.137-.87.324-1.624 1.175-1.92a3.32 3.32 0 0 1 1.222-.169c-.258-.375-.783-.873-1.113-.923-.054-.009-.061-.002-.081.018a.628.628 0 0 1-.892-.02.636.636 0 0 1 .02-.896 1.323 1.323 0 0 1 1.143-.356c.966.149 1.856 1.232 2.114 1.703.125.23.214.501.267.794.464.184.915.445 1.326.775 1.121.9 1.69 2.088 1.562 3.262a.631.631 0 1 1-1.253-.138c.078-.722-.33-1.52-1.095-2.133a3.99 3.99 0 0 0-.54-.365c-.07.4-.199.78-.385 1.09-.37.615-.939.946-1.603.934-.92-.018-1.556-.646-1.789-1.34z"/>
        <path fill="#101820" d="M22.333 25.364c-.238-.224-.658-.64-1.028-.488-.206.086-.165.287-.535.117a.554.554 0 0 1-.271-.333c-.13-.44.293-.755.676-.822 1.026-.182 2.126 1.018 2.495 1.88.062.145.429.035.37-.1-.474-1.11-1.87-2.426-3.162-1.934-.554.21-1.144.928-.51 1.43.202.16.464.2.71.143.118-.026.307-.199.395-.2-.193.004.146.157.166.17.128.081.241.187.352.291.107.101.458-.045.342-.154M23.735 27.993c-.3.97-1.086 1.77-2.169 1.423-.771-.248-1.301-1.062-1.245-1.87.076-1.093 1.183-1.586 2.163-1.509.96.075 1.957.46 2.707 1.062.728.584 1.317 1.387 1.486 2.323.065.355.185 1.214-.36 1.25-.622.04-.445-.75-.51-1.111-.146-.804-.77-1.513-1.45-1.923-.672-.405-1.586-.734-2.378-.583-.25.048-.55.132-.694.365-.167.268-.06.631.147.846.205.212.529.3.812.215.387-.118.562-.52.663-.88.059-.212-.31-.216-.357-.049-.077.276-.22.778-.604.652-.223-.073-.473-.432-.341-.671.113-.208.469-.224.666-.229.334-.008.667.084.98.19.981.329 1.99 1.078 2.185 2.167.068.381-.074.768.237 1.071.225.22.565.278.858.174.766-.273.62-1.29.44-1.91-.543-1.871-2.4-2.966-4.223-3.223-.81-.115-1.798.104-2.36.738-.513.58-.568 1.42-.232 2.103a2.078 2.078 0 0 0 2.066 1.158c.963-.095 1.596-.844 1.87-1.73.065-.21-.305-.215-.357-.049"/>
        <path fill="#FFFAC3" d="M62.9 32.513l-1.63-1.42a.25.25 0 0 1-.024-.35l2.442-2.819a.246.246 0 0 1 .342-.03l1.679 1.373a.25.25 0 0 1 .03.356l-2.49 2.865a.246.246 0 0 1-.349.025"/>
        <path fill="#101820" d="M65.188 30.012l-1.596 1.843c-.114.131-.39.576-.552.546-.083-.015-.226-.196-.285-.248l-.584-.508c-.167-.146-.87-.57-.764-.852.085-.223.415-.479.569-.656l1.04-1.2.453-.524c.091-.105.193-.276.309-.356.096-.066.07-.063.175.008.187.126.357.302.529.448l.997.846c.128.108.45-.078.286-.218l-1.054-.893c-.269-.228-.63-.693-1.032-.492-.27.136-.49.508-.68.728l-1.154 1.332c-.244.282-.537.556-.749.864-.26.379.133.61.389.833.394.343.778.705 1.186 1.033.303.243.58.168.825-.109.676-.764 1.336-1.541 2.003-2.312.154-.178-.199-.243-.311-.113"/>
        <path fill="#FFFAC3" d="M30.863 22.845l-1.764.623c-.111.04-.239-.034-.284-.164l-1.22-3.53c-.044-.126.006-.26.114-.302l1.747-.69c.113-.044.245.029.29.162l1.238 3.597c.045.129-.01.265-.12.304"/>
        <path fill="#101820" d="M29.75 19.56l.754 2.18c.094.27.244.566.294.848.039.224-.04.22-.213.282l-.67.236-.62.22c-.047.016-.15.077-.204.071-.093-.01-.058-.03-.093-.15-.076-.267-.183-.53-.273-.791l-.887-2.564c-.031-.09-.12-.283-.054-.369.062-.081.379-.14.467-.173l1.223-.453c.247-.091.016-.156-.132-.1l-1.255.464c-.284.105-.746.177-.674.575.057.316.224.647.328.95l.558 1.611c.105.304.179.664.328.95.188.359.565.162.856.06.464-.164.948-.304 1.401-.495.353-.15.304-.366.2-.667l-.963-2.785c-.033-.097-.4.013-.37.1"/>
        <path fill="#FFFAC3" d="M47.82 22.993l-1.795-.524c-.114-.033-.175-.167-.137-.3l1.046-3.585c.038-.129.156-.208.269-.18l1.82.46c.117.03.182.166.143.3l-1.071 3.651c-.039.131-.161.21-.275.178"/>
        <path fill="#101820" d="M48.807 19.76l-.636 2.18c-.072.248-.111.673-.26.889-.066.097.062.02-.024.048-.035.012-.13-.038-.17-.05L47 22.619c-.259-.075-.935-.12-.923-.48.008-.241.158-.54.225-.771l.754-2.583c.006-.022.073-.28.052-.269.07-.038.424.117.502.138l1.224.337c.12.033.436-.147.227-.204l-1.29-.355c-.346-.095-.805-.277-1.01.153-.125.263-.177.59-.258.87l-.476 1.632c-.103.351-.262.726-.318 1.09-.064.408.349.438.647.525.439.127.898.317 1.348.392.384.065.546-.195.638-.51l.837-2.87c.039-.132-.334-.081-.37.047"/>
        <path fill="#FFFAC3" d="M16.478 33.352l-1.38 1.267c-.088.08-.234.063-.325-.039l-2.499-2.767c-.09-.1-.095-.242-.013-.324l1.34-1.322c.086-.085.236-.07.33.035l2.54 2.822c.091.101.094.248.007.328"/>
        <path fill="#101820" d="M14.152 30.717l1.543 1.71c.182.2.462.42.596.659.182.325-.467.712-.677.905l-.457.42c-.037.033-.111.134-.16.146-.103.027.024.02-.057-.052-.195-.175-.362-.401-.538-.596l-1.824-2.02c-.093-.103-.233-.222-.162-.381.057-.127.288-.273.388-.367l.923-.875c.15-.141-.214-.114-.292-.041l-.948.898c-.226.214-.606.434-.374.772.195.285.485.537.715.793l1.14 1.262c.201.223.395.508.63.698.337.273.643-.005.894-.236.36-.331.744-.648 1.087-.998.25-.255.082-.44-.109-.652L14.5 30.58c-.076-.084-.428.048-.347.138"/>
        <path fill="#F4CAC1" d="M33.452 26.234c0 .63-.508 1.142-1.135 1.142s-1.135-.511-1.135-1.142c0-.63.508-1.14 1.135-1.14s1.135.51 1.135 1.14"/>
        <path fill="#101820" d="M32.253 25.23c.984.045 1.44 1.463.468 1.924-.447.212-.977-.01-1.215-.426-.25-.438-.134-.952.215-1.292.166-.162-.191-.23-.311-.113-1.025.998.09 2.604 1.385 2.093 1.297-.512.964-2.398-.415-2.46-.182-.008-.377.263-.127.275"/>
        <path fill="#F4CAC1" d="M54.667 28.923c0 .63-.508 1.141-1.135 1.141s-1.135-.51-1.135-1.14c0-.631.508-1.142 1.135-1.142s1.135.511 1.135 1.141"/>
        <path fill="#101820" d="M53.412 27.857c.998.045 1.506 1.445.592 2.014-.479.298-1.09-.039-1.312-.509-.213-.452-.095-.966.256-1.309.075-.073-.27-.033-.335.03-.452.44-.547 1.137-.124 1.638.372.44.988.504 1.503.313.508-.189.885-.652.858-1.213-.031-.656-.575-1.086-1.197-1.114-.079-.004-.421.142-.241.15"/>
        <path fill="#F4CAC1" d="M14.585 22.228c0 .63-.508 1.14-1.135 1.14s-1.135-.51-1.135-1.14c0-.63.508-1.141 1.135-1.141s1.135.51 1.135 1.14"/>
        <path fill="#101820" d="M13.333 21.175c.964.044 1.507 1.378.627 1.968-.488.326-1.119.008-1.35-.476-.216-.452-.091-.959.259-1.3.093-.09-.266-.061-.34.011-.456.444-.541 1.15-.12 1.653.366.438.992.52 1.506.325 1.26-.475 1.016-2.296-.348-2.358-.096-.004-.427.168-.234.177"/>
        <path fill="#FFF" d="M28.934 11.172c0 .63-.508 1.14-1.135 1.14s-1.135-.51-1.135-1.14c0-.63.508-1.142 1.135-1.142s1.135.511 1.135 1.142"/>
        <path fill="#101820" d="M27.679 10.105c.998.045 1.506 1.446.592 2.014-.479.298-1.09-.038-1.312-.508-.213-.452-.095-.967.256-1.31.075-.072-.27-.033-.335.03-.452.441-.547 1.137-.124 1.639.372.44.988.503 1.503.312.508-.188.885-.651.858-1.212-.031-.657-.575-1.086-1.197-1.114-.079-.004-.421.141-.241.15"/>
        <path fill="#FFF" d="M67.882 39.337c0 .63-.509 1.14-1.135 1.14-.627 0-1.135-.51-1.135-1.14 0-.63.508-1.141 1.135-1.141.626 0 1.135.51 1.135 1.14"/>
        <path fill="#101820" d="M66.68 38.325c.99.045 1.44 1.472.473 1.94-.447.216-.98-.018-1.216-.433-.25-.438-.138-.959.212-1.3.164-.16-.195-.21-.308-.1-1.025.998.09 2.587 1.382 2.078 1.296-.511.968-2.382-.41-2.444-.173-.008-.383.248-.132.26"/>
        <path fill="#FFF" d="M70.83 27.68c0 .63-.507 1.14-1.134 1.14-.627 0-1.135-.51-1.135-1.14 0-.63.508-1.141 1.135-1.141s1.135.51 1.135 1.14"/>
        <path fill="#101820" d="M69.576 26.616c.96.044 1.467 1.307.683 1.95-.487.398-1.167.052-1.403-.447-.215-.454-.095-.965.256-1.307.08-.077-.27-.04-.336.025-.453.442-.546 1.14-.123 1.642.37.44.989.507 1.504.315 1.26-.47 1.02-2.272-.341-2.333-.083-.004-.423.147-.24.155"/>
        <path fill="#FFF" d="M15.44 40.843c0 .63-.507 1.141-1.134 1.141-.627 0-1.135-.51-1.135-1.141 0-.63.508-1.141 1.135-1.141s1.135.51 1.135 1.14"/>
        <path fill="#101820" d="M14.186 39.78c.96.043 1.467 1.306.683 1.948-.487.399-1.167.053-1.404-.446-.215-.453-.094-.965.257-1.307.08-.077-.27-.04-.336.026-.453.441-.546 1.14-.123 1.641.37.44.989.507 1.504.315 1.26-.47 1.02-2.272-.341-2.333-.083-.004-.423.147-.24.156"/>
        <path fill="#F4CAC1" d="M42.47 7.302c0 .63-.509 1.14-1.135 1.14-.627 0-1.135-.51-1.135-1.14 0-.63.508-1.141 1.135-1.141.626 0 1.135.51 1.135 1.14"/>
        <path fill="#101820" d="M41.263 6.268c.978.044 1.435 1.441.529 1.962-.478.274-1.075-.026-1.298-.49-.208-.431-.1-.932.238-1.261.155-.152-.208-.152-.298-.064-.454.442-.573 1.134-.17 1.657.36.465 1.008.586 1.54.378.53-.206.9-.721.846-1.302-.06-.655-.624-1.067-1.244-1.095-.143-.006-.393.204-.143.215"/>
        <path fill="#FFF" d="M56.706 13.987c0 .63-.508 1.14-1.135 1.14s-1.135-.51-1.135-1.14c0-.63.508-1.142 1.135-1.142s1.135.511 1.135 1.142"/>
        <path fill="#101820" d="M55.453 12.928c.978.044 1.492 1.377.63 1.979-.485.338-1.124-.002-1.352-.481-.215-.453-.093-.962.258-1.304.086-.084-.269-.05-.338.019-.454.442-.544 1.144-.122 1.647.369.439.99.512 1.505.32.509-.192.882-.663.856-1.223-.032-.655-.577-1.094-1.2-1.122-.088-.004-.425.157-.237.165"/>
        <path fill="#101820" stroke="#101820" stroke-width=".5" d="M44.737 45.266c-.479.955-1.412 1.78-2.434 2.075-1.259.362-2.754-.081-3.677-1.013-.094-.095-.465-.035-.336.096.986.995 2.559 1.458 3.917 1.178 1.213-.25 2.34-1.15 2.898-2.265.071-.142-.305-.197-.368-.07M39.54 43.71a1.134 1.134 0 0 1-.379.51c-.32.224-.696.032-.92-.239-.084-.103-.455-.05-.335.096.584.709 1.665.564 2.003-.296.06-.153-.318-.2-.368-.071M45.132 42.907a1.134 1.134 0 0 1-.38.51c-.321.224-.696.032-.92-.239-.084-.103-.455-.05-.335.096.584.709 1.665.564 2.003-.296.06-.153-.318-.2-.368-.071"/>
        <path fill="#FFB49B" d="M63 47l-3.264 8L55 49.347 63 47" opacity=".3"/>
    </g>
</svg>
