<svg xmlns:dc="http://purl.org/dc/elements/1.1/" xmlns:cc="http://creativecommons.org/ns#" xmlns:rdf="http://www.w3.org/1999/02/22-rdf-syntax-ns#" xmlns:svg="http://www.w3.org/2000/svg" xmlns="http://www.w3.org/2000/svg" xmlns:sodipodi="http://sodipodi.sourceforge.net/DTD/sodipodi-0.dtd" xmlns:inkscape="http://www.inkscape.org/namespaces/inkscape" version="1.1" x="0px" y="0px" viewBox="0 0 100 100"><g transform="translate(0,-952.36218)"><path style="font-size:medium;font-style:normal;font-variant:normal;font-weight:normal;font-stretch:normal;text-indent:0;text-align:start;text-decoration:none;line-height:normal;letter-spacing:normal;word-spacing:normal;text-transform:none;direction:ltr;block-progression:tb;writing-mode:lr-tb;text-anchor:start;baseline-shift:baseline;opacity:1;color:#000000;fill:#000000;fill-opacity:1;stroke:none;stroke-width:12;marker:none;visibility:visible;display:inline;overflow:visible;enable-background:accumulate;font-family:Sans;-inkscape-font-specification:Sans" d="M 49.96875 2.9375 A 3.0003 3.0003 0 0 0 47 6 L 47 12.125 C 28.44487 13.587244 13.587244 28.444866 12.125 47 L 6 47 A 3.0003 3.0003 0 0 0 5.6875 47 A 3.0040663 3.0040663 0 1 0 6 53 L 12.125 53 C 13.587244 71.555141 28.44487 86.412757 47 87.875 L 47 94 A 3.0003 3.0003 0 1 0 53 94 L 53 87.875 C 71.55513 86.412757 86.412756 71.555141 87.875 53 L 94 53 A 3.0003 3.0003 0 1 0 94 47 L 87.875 47 C 86.412756 28.444866 71.55513 13.587244 53 12.125 L 53 6 A 3.0003 3.0003 0 0 0 49.96875 2.9375 z M 47 18.125 L 47 30 A 3.0003 3.0003 0 1 0 53 30 L 53 18.125 C 68.310176 19.538805 80.461194 31.68982 81.875 47 L 70 47 A 3.0003 3.0003 0 0 0 69.6875 47 A 3.0040663 3.0040663 0 1 0 70 53 L 81.875 53 C 80.461194 68.310145 68.310176 80.46119 53 81.875 L 53 70 A 3.0003 3.0003 0 0 0 49.96875 66.9375 A 3.0003 3.0003 0 0 0 47 70 L 47 81.875 C 31.689824 80.46119 19.538806 68.310145 18.125 53 L 30 53 A 3.0003 3.0003 0 1 0 30 47 L 18.125 47 C 19.538806 31.68982 31.689824 19.538805 47 18.125 z " transform="translate(0,952.36218)"></path></g></svg>