<svg xmlns="http://www.w3.org/2000/svg" width="22" height="21" viewBox="0 0 22 21">
    <g fill="none" fill-rule="evenodd">
        <path d="M-6-7h34v34H-6z"/>
        <g fill-rule="nonzero">
            <path d="M18.684 16.904H.88a.41.41 0 0 1-.404-.413v-2.405h18.617v2.405a.411.411 0 0 1-.409.413zM20.08.729h-7.772c-.702 0-1.28.591-1.28 1.31v4.855c0 .718.578 1.309 1.28 1.309h1.005v2.318l2.363-2.318h4.404c.702 0 1.28-.591 1.28-1.31V2.039c0-.723-.574-1.309-1.28-1.309z"/>
            <path fill="#2C2F33" d="M19.093 9.458a.41.41 0 0 0-.404.413v3.97H.876V4.806c0-.491.39-.896.875-.896h7.71a.41.41 0 0 0 .403-.413.41.41 0 0 0-.404-.414H1.751c-.924 0-1.68.773-1.68 1.718v10.875c0 .945.756 1.718 1.68 1.718h7.63v2.687H5.802a.41.41 0 0 0-.404.414.41.41 0 0 0 .404.413h7.963a.41.41 0 0 0 .404-.413.41.41 0 0 0-.404-.414h-3.577v-2.687h7.629c.924 0 1.68-.773 1.68-1.718v-5.81a.41.41 0 0 0-.405-.41zm-1.28 7.119H1.752c-.48 0-.875-.4-.875-.896v-1.018h17.813v1.018a.884.884 0 0 1-.875.896z"/>
            <path fill="#2C2F33" d="M20.08.315h-7.772c-.928 0-1.684.773-1.684 1.723v4.856c0 .95.756 1.723 1.684 1.723h.6v1.904c0 .164.098.314.245.378a.407.407 0 0 0 .44-.082l2.248-2.205h4.243c.929 0 1.684-.773 1.684-1.723v-4.85c-.004-.95-.76-1.724-1.688-1.724zm.88 6.574a.884.884 0 0 1-.876.896h-4.403a.407.407 0 0 0-.28.113l-1.684 1.65V8.195a.418.418 0 0 0-.404-.414h-1.005a.884.884 0 0 1-.875-.896V2.038c0-.495.391-.895.875-.895h7.772c.484 0 .875.4.875.895V6.89h.004z"/>
            <path fill="#2C2F33" d="M16.196 4.211a.414.414 0 0 0-.284.119.418.418 0 0 0-.12.29c0 .11.044.214.12.291a.395.395 0 0 0 .284.119.414.414 0 0 0 .285-.119.418.418 0 0 0 .12-.29.418.418 0 0 0-.12-.291.403.403 0 0 0-.285-.119zM17.694 4.211a.414.414 0 0 0-.285.119.418.418 0 0 0-.12.29c0 .11.045.214.12.291a.395.395 0 0 0 .285.119.414.414 0 0 0 .284-.119.418.418 0 0 0 .12-.29.418.418 0 0 0-.12-.291.395.395 0 0 0-.284-.119zM14.694 4.211a.414.414 0 0 0-.284.119.418.418 0 0 0-.12.29c0 .11.044.214.12.291a.395.395 0 0 0 .284.119.414.414 0 0 0 .285-.119.418.418 0 0 0 .12-.29.418.418 0 0 0-.12-.291.388.388 0 0 0-.285-.119z"/>
        </g>
    </g>
</svg>
