<svg xmlns="http://www.w3.org/2000/svg" width="25" height="25" viewBox="0 0 25 25">
    <g fill="none" fill-rule="evenodd">
        <path d="M-5-5h34v34H-5z"/>
        <g fill="#000" fill-rule="nonzero" transform="translate(1.071 1.071)">
            <path stroke="#333" stroke-width=".5" d="M21.397 8.894l.186-2.903a.458.458 0 0 0-.186-.372l-2.605-1.302-1.302-2.605c-.075-.15-.224-.224-.372-.186l-2.903.186-2.456-1.6a.403.403 0 0 0-.41 0l-2.455 1.6-2.903-.224a.458.458 0 0 0-.372.187L4.317 4.279 1.712 5.582c-.15.074-.224.223-.186.372l.186 2.902-1.6 2.456a.403.403 0 0 0 0 .41l1.6 2.456-.224 2.902c0 .15.075.298.187.372l2.604 1.303 1.303 2.605c.074.149.223.223.372.186l2.902-.186 2.456 1.6c.075.037.15.074.187.074a.393.393 0 0 0 .186-.074l2.456-1.6 2.902.186a.458.458 0 0 0 .372-.186l1.303-2.605 2.604-1.303c.15-.074.224-.223.187-.372l-.187-2.902 1.6-2.456a.403.403 0 0 0 0-.41l-1.525-2.418zm-.67 4.986c-.037.074-.074.149-.074.223l.148 2.791-2.493 1.265c-.074.038-.111.112-.149.15L16.894 20.8l-2.79-.148c-.075 0-.15 0-.224.074l-2.344 1.526-2.345-1.526c-.074-.037-.148-.074-.186-.074h-.037l-2.79.148-1.266-2.493c-.037-.074-.112-.111-.149-.149L2.27 16.894l.149-2.79c0-.075 0-.15-.075-.224L.82 11.536 2.344 9.19c.038-.074.075-.148.075-.223l-.15-2.79 2.494-1.266c.075-.037.112-.112.149-.149L6.177 2.27l2.791.149c.075 0 .149 0 .223-.075L11.536.82l2.344 1.525c.074.038.149.075.223.075l2.791-.15 1.265 2.494c.038.075.112.112.15.149L20.8 6.177l-.148 2.791c0 .075 0 .149.074.223l1.526 2.345-1.526 2.344z"/>
            <path d="M8.633 10.68c1.34 0 2.382-1.08 2.382-2.382a2.398 2.398 0 0 0-2.382-2.381 2.374 2.374 0 0 0-2.381 2.381 2.398 2.398 0 0 0 2.381 2.382zm0-4.056c.893 0 1.638.744 1.638 1.637s-.745 1.637-1.638 1.637a1.652 1.652 0 0 1-1.637-1.637c0-.893.744-1.637 1.637-1.637zM14.438 12.392a2.374 2.374 0 0 0-2.381 2.381 2.398 2.398 0 0 0 2.381 2.382c1.34 0 2.382-1.08 2.382-2.382a2.398 2.398 0 0 0-2.382-2.381zm0 4.056a1.652 1.652 0 0 1-1.637-1.638c0-.893.744-1.637 1.637-1.637s1.638.744 1.638 1.637-.745 1.638-1.638 1.638z"/>
            <rect width="13.508" height="1" x="5.011" y="11.061" rx=".5" transform="rotate(-45 11.765 11.74)"/>
        </g>
    </g>
</svg>
