<svg xmlns="http://www.w3.org/2000/svg" width="20" height="23" viewBox="0 0 20 23">
    <g fill="none" fill-rule="evenodd">
        <path d="M-7-6h34v34H-7z"/>
        <g fill-rule="nonzero">
            <g fill="#FFF">
                <path d="M10.021.487l9.262 5.4v10.8l-9.262 5.4-9.262-5.4v-10.8z"/>
                <path d="M19.283 5.887l-9.262 5.4-9.262-5.4 9.262-5.4zM10.021 11.287v10.8l9.262-5.4v-10.8z"/>
            </g>
            <g fill="#333">
                <path d="M10.021 11.702a.425.425 0 0 1-.214-.057l-9.262-5.4a.412.412 0 0 1-.148-.57.424.424 0 0 1 .577-.146l9.047 5.276 7.623-4.445a.424.424 0 0 1 .576.146.412.412 0 0 1-.148.57l-7.837 4.569a.426.426 0 0 1-.214.057z"/>
                <path d="M10.021 18.764a.418.418 0 0 1-.42-.415v-7.062c0-.23.188-.415.42-.415.233 0 .421.186.421.415v7.062c0 .23-.188.415-.42.415zM10.021 22.503a.418.418 0 0 1-.42-.416V20.01c0-.23.188-.415.42-.415.233 0 .421.186.421.415v2.077c0 .23-.188.416-.42.416zM9.18 4.911a.414.414 0 1 1-.215-.773l3.859-2.25c.2-.117.46-.051.578.147a.413.413 0 0 1-.15.57l-3.859 2.25a.43.43 0 0 1-.214.056z"/>
                <path d="M6.793 13.56a.428.428 0 0 1-.214-.058l-3.017-1.758a.414.414 0 0 1-.206-.358V7.647c0-.146.078-.282.206-.357l4.14-2.414a.424.424 0 0 1 .577.146.413.413 0 0 1-.149.57L4.198 7.885v3.265l2.174 1.268V9.405c0-.147.079-.283.207-.358l9.262-5.4a.424.424 0 0 1 .577.147.413.413 0 0 1-.149.569l-9.055 5.28v3.501c0 .23-.188.416-.42.416z"/>
                <path d="M10.021 22.503a.425.425 0 0 1-.214-.058l-9.262-5.4a.414.414 0 0 1-.207-.358v-10.8c0-.147.079-.283.207-.358L9.807.13a.426.426 0 0 1 .428 0l9.262 5.4c.128.075.207.211.207.358v9.451c0 .23-.189.416-.421.416a.418.418 0 0 1-.421-.416V6.124L10.022.969 1.18 6.124V16.45l8.841 5.155 8.772-5.35a.424.424 0 0 1 .577.146.412.412 0 0 1-.149.569l-8.986 5.475a.426.426 0 0 1-.214.058z"/>
            </g>
        </g>
    </g>
</svg>
