<svg xmlns="http://www.w3.org/2000/svg" width="21" height="19" viewBox="0 0 21 19">
    <g fill="none" fill-rule="evenodd">
        <path d="M-7-7h34v34H-7z"/>
        <path fill-rule="nonzero" stroke="#333" stroke-width="1.2" d="M.893 6.278c0-2.927 2.385-5.3 5.327-5.3 1.305 0 2.5.468 3.425 1.243a1.499 1.499 0 0 0 1.924 0A5.316 5.316 0 0 1 14.994.978c2.942 0 5.327 2.373 5.327 5.3v-.155c0 5.14-6.283 9.776-8.743 11.394a1.768 1.768 0 0 1-1.942 0C7.176 15.899.893 11.263.893 6.123"/>
    </g>
</svg>
