<svg xmlns="http://www.w3.org/2000/svg" width="18" height="21" viewBox="0 0 18 21">
    <g fill="none" fill-rule="evenodd">
        <path d="M-8-6h34v34H-8z"/>
        <g transform="translate(.5 .071)">
            <path fill="#333" fill-rule="nonzero" d="M16.6 17.06l-1.43-2.346a6.894 6.894 0 0 1-1.01-3.587V9.071c0-3.164-2.616-5.74-5.83-5.74S2.5 5.907 2.5 9.071v2.056a6.894 6.894 0 0 1-1.01 3.587L.06 17.061a.404.404 0 0 0-.006.412.42.42 0 0 0 .363.209h15.826c.15 0 .29-.08.363-.209a.404.404 0 0 0-.005-.412zm-15.448-.198l1.052-1.727a7.698 7.698 0 0 0 1.128-4.008V9.071c0-2.713 2.242-4.92 4.998-4.92 2.756 0 4.998 2.207 4.998 4.92v2.056c0 1.412.39 2.798 1.127 4.008l1.053 1.727H1.152z"/>
            <rect width="2.429" height="1.214" x="1.214" y="9.714" fill="#FFF" rx=".607"/>
            <path fill="#333" fill-rule="nonzero" d="M8.33.342c-.984 0-1.785.715-1.785 1.594v1.595c0 .22.2.398.446.398.247 0 .447-.178.447-.398V1.936c0-.44.4-.797.892-.797.493 0 .892.357.892.797v1.595c0 .22.2.398.447.398.246 0 .446-.178.446-.398V1.936c0-.88-.8-1.594-1.785-1.594zM9.834 17.268c-.118-.178-.372-.236-.57-.134-.2.105-.266.334-.15.512.108.165.167.363.167.559 0 .618-.56 1.12-1.248 1.12-.69 0-1.25-.502-1.25-1.12 0-.196.06-.394.168-.559.116-.179.049-.407-.15-.512-.2-.102-.453-.044-.57.134a1.714 1.714 0 0 0-.281.937c0 1.03.933 1.868 2.082 1.868 1.148 0 2.081-.838 2.083-1.868 0-.33-.097-.655-.281-.937z"/>
        </g>
    </g>
</svg>
