<?xml version="1.0" encoding="UTF-8"?>
<svg width="65px" height="65px" viewBox="0 0 65 65" version="1.1" xmlns="http://www.w3.org/2000/svg" xmlns:xlink="http://www.w3.org/1999/xlink">
    <!-- Generator: Sketch 55.2 (78181) - https://sketchapp.com -->
    <title>Group 4@1.5x</title>
    <desc>Created with Sketch.</desc>
    <g id="PDP--Warranty-and-damage-Protection" stroke="none" stroke-width="1" fill="none" fill-rule="evenodd">
        <g id="PDP---warranty-&amp;-Damage-protection" transform="translate(-324.000000, -656.000000)">
            <g id="Group-4" transform="translate(324.000000, 656.000000)">
                <rect id="Rectangle" stroke="#F1F1F1" fill="#EFEFF4" opacity="0.844424293" x="0.5" y="0.5" width="64" height="64" rx="3"></rect>
                <g id="noun_play_1940008-copy" transform="translate(15.000000, 15.000000)" fill="#000000" fill-rule="nonzero">
                    <path d="M17.5,0 C7.84736842,0 0,7.84736842 0,17.5 C0,27.1526316 7.84736842,35 17.5,35 C27.1526316,35 35,27.1526316 35,17.5 C35,7.84736842 27.1526316,0 17.5,0 Z M25.9217658,18.7228879 L14.3857687,26.314984 C13.4072689,26.9773816 12.0682692,26.2640303 12.0682692,25.092096 L12.0682692,9.90790399 C12.0682692,8.73596971 13.4072689,8.02261841 14.3857687,8.68501605 L25.9217658,16.2771121 C26.7972656,16.8376024 26.7972656,18.1623976 25.9217658,18.7228879 Z" id="Shape"></path>
                </g>
            </g>
        </g>
    </g>
</svg>