<svg xmlns="http://www.w3.org/2000/svg" width="22" height="19" viewBox="0 0 22 19">
    <g fill="none" fill-rule="evenodd">
        <path d="M-6-8h34v34H-6z"/>
        <g fill="#2C2F33" fill-rule="nonzero">
            <path d="M21.558 16.48V2.154A1.63 1.63 0 0 0 19.921.533H1.708A1.63 1.63 0 0 0 .071 2.154v14.33a1.63 1.63 0 0 0 1.637 1.621h18.213c.904 0 1.637-.73 1.637-1.625zM1.708 1.32h18.213c.465 0 .843.373.843.834v1.934H.866V2.154c0-.46.377-.834.842-.834zM.866 16.48V4.875h19.898V16.48c0 .46-.378.834-.843.834H1.708a.839.839 0 0 1-.842-.834z"/>
            <path d="M17.547 13.085h-.76a5.994 5.994 0 0 0-.675-1.612l.535-.53a.854.854 0 0 0 .255-.613.872.872 0 0 0-.255-.613l-.917-.909a.875.875 0 0 0-1.233 0l-.536.53a6.264 6.264 0 0 0-1.628-.669v-.743a.869.869 0 0 0-.873-.865h-1.295a.869.869 0 0 0-.873.865v.752c-.575.143-1.12.37-1.628.67l-.536-.53a.889.889 0 0 0-1.238 0l-.916.908a.854.854 0 0 0-.255.612c0 .23.092.448.255.613l.535.53a6.138 6.138 0 0 0-.676 1.613h-.76a.869.869 0 0 0-.872.865v1.282c0 .478.39.865.873.865h1.075c.22 0 .4-.178.4-.396a.399.399 0 0 0-.4-.395H4.074a.078.078 0 0 1-.08-.078v-1.282c0-.044.036-.079.08-.079h1.075a.399.399 0 0 0 .39-.317 5.21 5.21 0 0 1 .804-1.917.398.398 0 0 0-.048-.5l-.764-.756a.075.075 0 0 1-.022-.052c0-.013.004-.035.022-.052l.917-.909a.076.076 0 0 1 .053-.021c.013 0 .035.004.057.021l.763.757a.402.402 0 0 0 .505.048 5.393 5.393 0 0 1 1.936-.796c.184-.035.32-.2.32-.387V7.926c0-.043.035-.078.079-.078h1.295c.043 0 .079.035.079.078v1.065c0 .187.136.352.32.387a5.316 5.316 0 0 1 1.935.795.408.408 0 0 0 .505-.048l.764-.756c.03-.03.079-.03.11 0l.917.908c.017.018.021.04.021.053a.092.092 0 0 1-.021.056l-.764.756a.392.392 0 0 0-.048.5c.395.583.662 1.23.803 1.917a.399.399 0 0 0 .39.317h1.076c.043 0 .079.035.079.079v1.282a.078.078 0 0 1-.08.078h-1.075c-.22 0-.399.178-.399.395 0 .218.18.396.4.396h1.075a.869.869 0 0 0 .873-.865V13.96a.87.87 0 0 0-.87-.874z"/>
            <path d="M10.815 10.873c-2.072 0-3.752 1.669-3.752 3.716a.399.399 0 0 0 .798 0c0-1.617 1.326-2.93 2.958-2.93 1.633 0 2.958 1.313 2.958 2.93a.399.399 0 0 0 .799 0c-.009-2.051-1.69-3.716-3.761-3.716zM3.661 3.071a.401.401 0 0 0 .4-.395.401.401 0 0 0-.4-.396.401.401 0 0 0-.399.396c0 .104.044.204.118.278a.383.383 0 0 0 .281.117zM5.066 3.071a.401.401 0 0 0 .4-.395.401.401 0 0 0-.4-.396.401.401 0 0 0-.4.396c0 .104.044.204.119.278a.383.383 0 0 0 .28.117zM2.257 3.071a.401.401 0 0 0 .4-.395.401.401 0 0 0-.4-.396.401.401 0 0 0-.4.396c0 .104.044.204.12.278a.383.383 0 0 0 .28.117z"/>
        </g>
    </g>
</svg>
