<svg xmlns="http://www.w3.org/2000/svg" width="19" height="23" viewBox="0 0 19 23">
    <g fill="none" fill-rule="evenodd">
        <path d="M-7-5h34v34H-7z"/>
        <path fill="#000" fill-rule="nonzero" stroke="#FFF" stroke-width=".63" d="M17.618 1.071H.994a.658.658 0 0 0-.667.647v20.124c0 .358.299.647.667.647h16.624c.369 0 .667-.29.667-.647V1.718a.658.658 0 0 0-.667-.647zM1.662 14.725h3.223l-.002.029c-.002.055-.004.11-.004.163v.01c.001.156.012.303.032.442l.009.05c.012.076.026.151.043.223l.009.034c.104.418.279.746.426.988.066.11.168.254.36.455H1.662v-2.394zm7.648 3.471c-.335-.22-.854-.57-1.36-.945h-.001a20.537 20.537 0 0 1-.187-.14l-.01-.008a17.92 17.92 0 0 1-.086-.065l-.002-.002c-.762-.586-1.016-.885-1.095-.998a3.03 3.03 0 0 1-.123-.213 1.94 1.94 0 0 1-.222-.705 1.989 1.989 0 0 1 .004-.428l.001-.013c.006-.04.012-.08.02-.119l.003-.012a1.654 1.654 0 0 1 .072-.248c.025-.067.054-.13.085-.19l.01-.017a1.58 1.58 0 0 1 .041-.073l.026-.04.018-.027c.17-.246.4-.43.662-.515l.027-.008a1.075 1.075 0 0 1 .092-.023l.029-.005a1.014 1.014 0 0 1 .173-.015c.742 0 1.317.602 1.32.605.125.135.3.215.488.218a.662.662 0 0 0 .495-.202l.019-.018c.1-.094.677-.603 1.316-.603a1.017 1.017 0 0 1 .173.015l.03.005a1.077 1.077 0 0 1 .092.023l.026.008c.262.085.494.269.663.516l.016.023a1.625 1.625 0 0 1 .069.115l.01.018a1.719 1.719 0 0 1 .126.31l.001.009c.012.039.021.078.03.118l.002.014c.008.039.015.078.02.118l.002.014a1.704 1.704 0 0 1 .01.123c.01.21-.009.403-.063.596-.007.026-.016.052-.024.077a2.456 2.456 0 0 1-.268.555c-.076.109-.275.338-.78.75-.198.16-.418.33-.647.499-.489.36-.982.692-1.303.903zm3.905-1.533c.18-.295.4-.72.483-1.28l.003-.015.014-.114.003-.03.004-.05a3.145 3.145 0 0 0 .005-.45h3.223v2.395h-4.095c.19-.201.293-.346.36-.456zM1.662 2.366H16.95V13.43h-3.604a2.754 2.754 0 0 0-.668-.784l-.003-.003a2.602 2.602 0 0 0-.266-.186l-.023-.013a2.541 2.541 0 0 0-.112-.064l-.03-.015a2.482 2.482 0 0 0-.28-.123l-.036-.013a2.415 2.415 0 0 0-.112-.036l-.038-.01a2.439 2.439 0 0 0-.297-.063l-.043-.007a2.482 2.482 0 0 0-.114-.011l-.045-.004a2.45 2.45 0 0 0-.154-.005c-.762 0-1.402.33-1.815.618-.383-.27-.967-.577-1.679-.615a2.727 2.727 0 0 0-.298.002c-.015 0-.03.002-.045.004a2.428 2.428 0 0 0-.113.011l-.043.006a2.404 2.404 0 0 0-.298.063l-.038.011a2.444 2.444 0 0 0-.111.036l-.038.013a2.485 2.485 0 0 0-.279.123l-.03.015c-.037.02-.075.041-.112.064l-.023.013c-.092.056-.18.119-.265.186l-.003.003a2.754 2.754 0 0 0-.668.784H1.662V2.366zm15.288 18.83H1.662v-2.783h5.654c.714.52 1.397.957 1.63 1.104a.675.675 0 0 0 .167.075l.009.003.015.003a.686.686 0 0 0 .56-.096c.25-.159.913-.584 1.605-1.09h5.648v2.783z"/>
        <path d="M10.943 12.947c-.917 0-1.637.74-1.637.74s-.678-.74-1.637-.74c-.932 0-1.693.832-1.742 1.84-.029.57.14 1.003.38 1.395.477.784 3.002 2.375 3.002 2.375s2.516-1.584 2.996-2.375c.24-.394.409-.825.38-1.395-.05-1.008-.81-1.84-1.742-1.84"/>
        <path fill-rule="nonzero" d="M5.342 15.918c-.27-.655-.196-1.25-.113-1.471H1.395v2.943h5.014c-.57-.604-.804-.832-1.067-1.472zM13.29 15.912c.27-.655.195-1.25.112-1.471h3.834v2.943h-5.013c.569-.604.803-.832 1.067-1.472z"/>
        <g fill="#2C2F33" fill-rule="nonzero">
            <path d="M4.487 5.877h7.878c.368 0 .378-.164.378-.365 0-.2-.01-.364-.378-.364H4.487c-.369 0-.48.163-.48.364 0 .201.111.365.48.365z"/>
        </g>
        <g fill="#2C2F33" fill-rule="nonzero">
            <path d="M14.299 8.025H6.42c-.369 0-.378-.163-.378-.364 0-.202.01-.365.378-.365H14.3c.368 0 .48.163.48.365 0 .2-.112.364-.48.364z"/>
        </g>
    </g>
</svg>
