<svg xmlns="http://www.w3.org/2000/svg" width="21" height="24" viewBox="0 0 21 24">
    <g fill="none" fill-rule="evenodd">
        <path d="M-7-5h34v34H-7z"/>
        <path d="M12.243 18.949l4.231-4.27 2.2 2.134-4.334 4.144z"/>
        <path fill="#000" fill-rule="nonzero" stroke="#FFF" stroke-width=".1" d="M20.32 14.045l-1.09-1.065a1.162 1.162 0 0 0-1.613 0l-5.884 5.75-.736 2.64a1.033 1.033 0 0 1-.273.461.367.367 0 0 0-.002.525.388.388 0 0 0 .543.004c.13-.127.291-.219.467-.266l2.705-.72.738-.723 5.145-5.028a1.099 1.099 0 0 0 0-1.578zm-7.704 4.88l3.916-3.827 1.622 1.585-3.916 3.827-1.622-1.585zm-.345.72l1.23 1.202-1.692.452.462-1.655zm7.508-4.551l-1.085 1.06-1.622-1.584 1.085-1.06a.384.384 0 0 1 .533-.001l1.09 1.065a.362.362 0 0 1 0 .52z"/>
        <g>
            <path stroke="#2C2F33" stroke-linecap="round" stroke-linejoin="round" stroke-width=".84" d="M9.389 22.613H.572V1.07h16.763v10.372"/>
            <path fill="#333" d="M2.714 1.071h1.203l.012 21.858H2.726z"/>
            <path stroke="#2C2F33" stroke-linecap="round" stroke-linejoin="round" stroke-width=".84" d="M7.571 6.302h6.683"/>
        </g>
    </g>
</svg>
