<svg xmlns="http://www.w3.org/2000/svg" width="91" height="63" viewBox="0 0 91 63">
    <g fill="none" fill-rule="evenodd">
        <path fill="#FFF" d="M7.735 7.618h34.61a2.285 2.285 0 0 1 2.282 2.275v.913a2.285 2.285 0 0 1-2.281 2.275H7.735a2.285 2.285 0 0 1-2.281-2.275v-.913a2.285 2.285 0 0 1 2.28-2.275M4.901 14.967h13.877c1.201 0 2.184.98 2.184 2.179a2.188 2.188 0 0 1-2.184 2.179H4.9a2.188 2.188 0 0 1-2.184-2.18c0-1.197.983-2.178 2.184-2.178M2.305 1.57H16.18c1.202 0 2.185.98 2.185 2.178a2.188 2.188 0 0 1-2.185 2.179H2.305A2.188 2.188 0 0 1 .12 3.748c0-1.198.983-2.179 2.184-2.179"/>
        <path fill="#FFF" d="M9.594 5.753c.677 0 1.225.418 1.225.933 0 .515-.549.932-1.225.932h5.345c-.677 0-1.225-.417-1.225-.932 0-.515.548-.933 1.225-.933H9.594M7.863 13.021c.706 0 1.278.436 1.278.973 0 .538-.572.973-1.278.973h5.579c-.707 0-1.28-.435-1.28-.973 0-.537.573-.973 1.28-.973h-5.58M82.706 56.056h-34.61a2.285 2.285 0 0 1-2.282-2.275v-.913a2.285 2.285 0 0 1 2.281-2.275h34.611a2.285 2.285 0 0 1 2.28 2.275v.913a2.285 2.285 0 0 1-2.28 2.275M85.54 48.707H71.662a2.188 2.188 0 0 1-2.184-2.179c0-1.198.983-2.179 2.184-2.179h13.876c1.202 0 2.185.98 2.185 2.18a2.188 2.188 0 0 1-2.185 2.178M88.136 62.105H74.26a2.188 2.188 0 0 1-2.184-2.18c0-1.197.983-2.178 2.184-2.178h13.876c1.201 0 2.184.98 2.184 2.179a2.188 2.188 0 0 1-2.184 2.179"/>
        <path fill="#FFF" d="M80.847 57.92c-.676 0-1.225-.417-1.225-.932 0-.514.549-.932 1.225-.932h-5.345c.677 0 1.225.418 1.225.932 0 .515-.548.933-1.225.933h5.345M82.579 50.653c-.707 0-1.28-.436-1.28-.973 0-.537.573-.973 1.28-.973h-5.58c.706 0 1.279.436 1.279.973 0 .537-.573.973-1.278.973h5.579M20.184 46.747h-.46c-1.21 0-2.19-.978-2.19-2.184v-10.59h4.84v10.59c0 1.206-.98 2.184-2.19 2.184"/>
        <path fill="#FFF" d="M20.83 47.392h-.46c-1.21 0-2.19-.978-2.19-2.184v-10.59h4.84v10.59c0 1.206-.98 2.184-2.19 2.184"/>
        <path fill="#101820" d="M17.694 33.956v10.43a2.03 2.03 0 0 0 2.03 2.024h.46a2.03 2.03 0 0 0 2.03-2.024v-10.43h-4.52zm2.49 12.774h-.46a2.35 2.35 0 0 1-2.351-2.344v-10.59a.16.16 0 0 1 .16-.16h4.84a.16.16 0 0 1 .161.16v10.59a2.35 2.35 0 0 1-2.35 2.344z"/>
        <path fill="#FFF" d="M57.838 8.216c-.23.004-.453.06-.67.16-.045.022-.09.041-.136.061a718.952 718.952 0 0 1-.842.375l-.587.262-.69.307-.783.35-.869.386-.948.423-1.02.454-1.083.483-1.14.508-1.19.53-1.23.548-1.265.563-1.291.575-1.31.584-1.323.59-1.327.59-1.323.59-1.313.585-1.294.577-1.27.565-1.235.55-1.195.533-1.148.511-1.092.487-1.029.458-.958.427-.88.392-.796.355-.703.313-.602.268-.495.22-.38.17-.256.114-.127.057-.013.005v10.565s33.773 14.811 33.753 14.81l.06.003c3.06 0 5.54-9.023 5.54-20.153a73.416 73.416 0 0 0-.182-5.15 62.744 62.744 0 0 0-.22-2.4 54.802 54.802 0 0 0-.297-2.257c-.107-.7-.229-1.397-.368-2.09a36.14 36.14 0 0 0-.435-1.904c-.148-.57-.31-1.136-.495-1.696a18.456 18.456 0 0 0-.55-1.466 11.675 11.675 0 0 0-.598-1.215 6.755 6.755 0 0 0-.64-.944 3.632 3.632 0 0 0-.678-.651 2.023 2.023 0 0 0-.709-.337 1.519 1.519 0 0 0-.368-.04M24.025 23.139h-6.033a4.812 4.812 0 0 0-4.818 4.805v1.01a4.812 4.812 0 0 0 4.818 4.806h6.033V23.14"/>
        <path fill="#41BC98" d="M24.587 23.94h-6.033a4.812 4.812 0 0 0-4.818 4.805v1.01a4.812 4.812 0 0 0 4.818 4.806h6.033V23.94"/>
        <path fill="#101820" d="M17.992 23.299c-2.569 0-4.658 2.084-4.658 4.645v1.01c0 2.562 2.09 4.646 4.658 4.646h5.873V23.3h-5.873zm6.033 10.622h-6.033c-2.746 0-4.979-2.228-4.979-4.966v-1.01c0-2.739 2.233-4.966 4.979-4.966h6.033a.16.16 0 0 1 .16.16V33.76a.16.16 0 0 1-.16.16z"/>
        <path fill="#FFF" d="M63.884 23.396h-6.54a4.812 4.812 0 0 0-4.818 4.805v1.01a4.812 4.812 0 0 0 4.818 4.806h6.54a4.812 4.812 0 0 0 4.818-4.805v-1.01a4.812 4.812 0 0 0-4.818-4.806"/>
        <path fill="#F26B6B" d="M64.771 24.28h-6.54a4.812 4.812 0 0 0-4.818 4.807v1.01a4.812 4.812 0 0 0 4.818 4.805h6.54a4.812 4.812 0 0 0 4.818-4.805v-1.01a4.812 4.812 0 0 0-4.818-4.806"/>
        <path fill="#101820" d="M57.344 23.556c-2.568 0-4.658 2.084-4.658 4.645v1.01c0 2.562 2.09 4.646 4.658 4.646h6.54c2.568 0 4.657-2.084 4.657-4.645v-1.01c0-2.562-2.09-4.646-4.657-4.646h-6.54zm6.54 10.621h-6.54c-2.746 0-4.979-2.227-4.979-4.965v-1.01c0-2.739 2.233-4.966 4.979-4.966h6.54c2.745 0 4.978 2.227 4.978 4.965v1.01c0 2.739-2.233 4.966-4.978 4.966z"/>
        <path fill="#FFE7E7" d="M58.404 9.055c-.23.003-.452.06-.67.16-.045.022-.09.04-.136.061a718.862 718.862 0 0 0-1.43.637l-.688.307-.783.349-.87.387-.948.422-1.02.455-1.083.482-1.14.508-1.19.53-1.23.548-1.265.564-1.29.575-1.312.584-1.322.59-1.326.59-1.324.59-1.312.585-1.295.576-1.269.566-1.236.55-1.195.533-1.148.51-1.091.487-1.03.459-.958.427-.88.392-.796.355-.703.313-.602.268-.495.22-.38.17-.256.114-.127.056-.012.006v10.564s33.772 14.812 33.752 14.811l.06.003c3.06 0 5.54-9.023 5.54-20.154a73.416 73.416 0 0 0-.182-5.15 62.733 62.733 0 0 0-.22-2.4 54.802 54.802 0 0 0-.296-2.256c-.108-.7-.23-1.397-.37-2.09a36.06 36.06 0 0 0-.434-1.904c-.148-.57-.31-1.137-.495-1.696a18.432 18.432 0 0 0-.55-1.466 11.676 11.676 0 0 0-.598-1.216 6.75 6.75 0 0 0-.64-.944 3.635 3.635 0 0 0-.677-.65 2.023 2.023 0 0 0-.71-.338 1.519 1.519 0 0 0-.368-.04"/>
        <path fill="#101820" d="M57.814 48.36h.024c1.38 0 2.752-2.108 3.763-5.785 1.043-3.793 1.617-8.839 1.617-14.208 0-.877-.016-1.758-.047-2.62a69.25 69.25 0 0 0-.135-2.519 62.965 62.965 0 0 0-.22-2.394 54.953 54.953 0 0 0-.295-2.25c-.11-.718-.234-1.419-.368-2.083a36.097 36.097 0 0 0-.433-1.895 26.331 26.331 0 0 0-.492-1.685 18.178 18.178 0 0 0-.545-1.454 11.474 11.474 0 0 0-.59-1.199 6.563 6.563 0 0 0-.624-.922 3.451 3.451 0 0 0-.647-.622 1.859 1.859 0 0 0-.653-.311 1.348 1.348 0 0 0-.329-.037c-.199.003-.402.052-.605.146l-.094.043-32.955 14.681v10.356a218409.715 218409.715 0 0 1 32.207 14.13l1.07.472.283.124c.024.01.047.02.068.031zm.024.32l-.048-.001-.019-.001a.16.16 0 0 1-.065-.017C57.323 48.485 24.295 34 23.961 33.853a.16.16 0 0 1-.096-.146V23.142a.16.16 0 0 1 .094-.146L57.011 8.271l.089-.04c.243-.112.491-.171.736-.175.135 0 .272.013.407.045.256.06.514.182.766.363.243.174.475.396.708.679.226.275.44.59.656.966.211.37.41.772.606 1.232.195.456.376.94.554 1.48.178.537.34 1.095.498 1.705.156.603.303 1.247.437 1.912a45.9 45.9 0 0 1 .37 2.098c.112.729.212 1.49.298 2.263.087.78.16 1.59.22 2.406a69.885 69.885 0 0 1 .183 5.162c0 5.397-.578 10.473-1.629 14.293-1.067 3.882-2.513 6.02-4.072 6.02z"/>
        <path fill="#101820" d="M60.716 29.412a.16.16 0 0 1-.16-.16c0-.875-.016-1.757-.047-2.62a69.054 69.054 0 0 0-.136-2.518 62.807 62.807 0 0 0-.218-2.395 55.004 55.004 0 0 0-.296-2.25c-.11-.718-.235-1.42-.368-2.083a36.054 36.054 0 0 0-.433-1.895 26.588 26.588 0 0 0-.492-1.685.16.16 0 0 1 .305-.1c.177.537.34 1.094.498 1.705.156.603.303 1.246.437 1.912.134.668.259 1.374.37 2.098.112.728.212 1.49.298 2.263.087.78.16 1.59.22 2.406a69.86 69.86 0 0 1 .183 5.162.16.16 0 0 1-.16.16M56.793 45.705l-.048-.001-.019-.001a.162.162 0 0 1-.065-.017c-.09-.041-2.153-.949-11.378-4.996a.16.16 0 1 1 .129-.293A35800.496 35800.496 0 0 1 55.899 45l.84.37.031.014.023.001a.16.16 0 1 1 0 .32M44.032 40.126a.16.16 0 0 1-.065-.013l-3.332-1.462a.16.16 0 1 1 .13-.294l3.332 1.462a.16.16 0 0 1-.065.307M39.57 38.168a.16.16 0 0 1-.065-.013l-12.288-5.39a.16.16 0 1 1 .129-.293l12.288 5.39a.16.16 0 0 1-.065.306M18.106 33.895c-1.367 0-2.437-2.403-2.437-5.47 0-3.046 1.07-5.432 2.437-5.432a.16.16 0 1 1 0 .32c-1.147 0-2.116 2.34-2.116 5.112 0 2.791.969 5.15 2.116 5.15a.16.16 0 1 1 0 .32"/>
        <path fill="#101820" d="M17.537 28.694a.16.16 0 0 1-.161-.16c0-1.271.194-2.503.548-3.467a.16.16 0 0 1 .301.11c-.34.93-.528 2.122-.528 3.357a.16.16 0 0 1-.16.16M76.173 47.411a.238.238 0 0 1-.17-.07 32.866 32.866 0 0 0-7.355-5.474.24.24 0 1 1 .231-.421A33.34 33.34 0 0 1 76.343 47a.24.24 0 0 1-.17.411M80.357 35.672a.247.247 0 0 1-.064-.009 32.921 32.921 0 0 0-9.103-1.168h-.002a.24.24 0 0 1-.004-.48A33.44 33.44 0 0 1 80.42 35.2a.24.24 0 0 1-.063.472M71.098 24.563a.24.24 0 0 1-.065-.472 32.895 32.895 0 0 0 8.416-3.653.242.242 0 0 1 .331.08.24.24 0 0 1-.08.33 33.384 33.384 0 0 1-8.538 3.706.244.244 0 0 1-.064.009M68.067 15.937a.24.24 0 0 1-.137-.438 32.84 32.84 0 0 0 6.738-6.216.241.241 0 0 1 .373.304 33.314 33.314 0 0 1-6.837 6.307.24.24 0 0 1-.137.043M18.674 44.018a.16.16 0 0 1-.16-.16v-4.486a.16.16 0 0 1 .32 0v4.485a.16.16 0 0 1-.16.16M18.674 38.411a.16.16 0 0 1-.16-.16V35.94a.16.16 0 0 1 .32 0v2.31a.16.16 0 0 1-.16.161M88.18 23.712h.48v-1.19h-.48zM88.18 26.123h.48v-1.19h-.48zM86.608 24.555h1.193v-.48h-1.193zM89.025 24.555h1.193v-.48h-1.193zM22.14 1.619h.48V.429h-.48zM22.14 4.03h.48V2.84h-.48zM20.568 2.462h1.194V1.98h-1.194zM22.986 2.462h1.193V1.98h-1.193z"/>
        <path fill="#FF9C81" d="M63.145 59.316h.48v-1.19h-.48zM63.145 61.727h.48v-1.19h-.48zM61.573 60.159h1.194v-.481h-1.194zM63.99 60.159h1.194v-.481H63.99z"/>
        <path fill="#F26B6B" d="M2.483 31.388h.481v-1.19h-.48zM2.483 33.8h.481v-1.191h-.48zM.912 32.231h1.193v-.48H.912zM3.329 32.231h1.193v-.48H3.33zM49.81 1.867h.48V.676h-.48zM49.81 4.278h.48v-1.19h-.48zM48.237 2.71h1.194v-.481h-1.194zM50.655 2.71h1.193v-.481h-1.193z"/>
        <path fill="#101820" d="M10.882 55.446h.48v-1.19h-.48zM10.882 57.857h.48v-1.19h-.48zM9.31 56.289h1.193v-.48H9.31zM11.727 56.289h1.193v-.48h-1.193zM34.165 49.07h.481v-1.19h-.48zM34.165 51.48h.481v-1.19h-.48zM32.593 49.913h1.194v-.481h-1.194zM35.01 49.913h1.194v-.481h-1.193z"/>
    </g>
</svg>
