<svg xmlns="http://www.w3.org/2000/svg" width="20" height="19" viewBox="0 0 20 19">
    <g fill="none" fill-rule="evenodd">
        <path d="M-7-8h34v34H-7z"/>
        <path fill="#000" fill-rule="nonzero" d="M.738 1.2c.036.245.3.436.554.402 9.395 0 17 7.313 17 16.346 0 .226.192.439.425.467.274.033.549-.202.547-.467 0-9.538-8.052-17.28-17.972-17.28C.892.655.717.93.738 1.2zm.03 4.175c.02.244.27.45.524.43 6.98 0 12.628 5.431 12.628 12.143 0 .245.232.467.486.467.255 0 .486-.222.486-.467 0-7.217-6.095-13.077-13.6-13.077-.364.023-.544.266-.524.504zm.044 4.159c.005.24.23.457.48.46 4.566 0 8.257 3.564 8.257 7.954 0 .245.231.467.486.467.254 0 .485-.222.485-.467 0-4.895-4.137-8.888-9.228-8.888-.33.052-.467.217-.48.474zm1.937 5.13c-1.067 0-1.943.857-1.943 1.883s.876 1.868 1.943 1.868c1.068 0 1.943-.842 1.943-1.868 0-1.026-.875-1.883-1.943-1.883zm0 .949c.543 0 .972.413.972.934 0 .521-.43.92-.972.92s-.971-.399-.971-.92.429-.934.971-.934z"/>
    </g>
</svg>
