<svg xmlns="http://www.w3.org/2000/svg" width="16" height="18" viewBox="0 0 16 18">
    <path fill="#000" fill-rule="nonzero" d="M12.842 11.503a3.159 3.159 0 0 0-2.483 1.206l-4.311-2.562a3.1 3.1 0 0 0 .001-2.514l4.312-2.562a3.158 3.158 0 0 0 2.481 1.204C14.584 6.275 16 4.868 16 3.138S14.583 0 12.842 0c-1.74 0-3.157 1.407-3.157 3.138 0 .446.096.87.266 1.256L5.639 6.955a3.158 3.158 0 0 0-2.481-1.203C1.416 5.752 0 7.159 0 8.889s1.416 3.138 3.158 3.138a3.158 3.158 0 0 0 2.48-1.202l4.312 2.561c-.17.385-.265.809-.265 1.255 0 1.73 1.416 3.137 3.157 3.137S16 16.37 16 14.64s-1.417-3.137-3.158-3.137zm0-10.713a2.358 2.358 0 0 1 2.363 2.348 2.358 2.358 0 0 1-2.363 2.347 2.358 2.358 0 0 1-2.362-2.347A2.358 2.358 0 0 1 12.842.79zM3.158 11.236A2.358 2.358 0 0 1 .795 8.89 2.358 2.358 0 0 1 3.158 6.54 2.358 2.358 0 0 1 5.52 8.89a2.358 2.358 0 0 1-2.362 2.347zm9.684 5.752a2.358 2.358 0 0 1-2.362-2.348 2.358 2.358 0 0 1 2.362-2.347 2.358 2.358 0 0 1 2.363 2.347 2.358 2.358 0 0 1-2.363 2.348z" opacity=".56"/>
</svg>
