<svg xmlns="http://www.w3.org/2000/svg" width="50" height="50" viewBox="0 0 50 50">
    <path fill="#000" fill-rule="evenodd" d="M0 26.515a7.573 7.573 0 0 1 7.583-7.576h1.521c1.549-3.486 4.294-5.303 8.32-5.303 2.718 0 4.362.594 6.605 2.011.08.05.522.332.647.41 1.275.803 2.167 1.2 3.274 1.324-.1-1.466-.04-3.046.283-4.555.111-.52.252-1.015.424-1.48a10.76 10.76 0 0 1-.627.018c-5.81 0-10.538-4.677-10.605-10.482a.758.758 0 0 1 .642-.757C18.603.042 19.147 0 19.697 0c5.255 0 9.624 3.824 10.461 8.85.816-.857 1.894-1.5 3.167-1.963 1-.363 2.06-.595 3.12-.723.37-.045.715-.074 1.025-.09.19-.01.329-.013.409-.013a.758.758 0 1 1 0 1.515 13.537 13.537 0 0 0-1.251.092c-.954.115-1.905.323-2.785.643-1.275.464-2.282 1.122-2.934 1.992-.558.744-.952 1.707-1.195 2.84-.298 1.391-.346 2.884-.243 4.253 1.18-.103 2.095-.5 3.428-1.338l.647-.41c2.244-1.418 3.888-2.012 6.606-2.012C46.84 13.636 50 18.678 50 28.03 50 37.823 44.026 50 37.879 50c-2.666 0-4.254-.256-5.84-.798-.186-.064-.781-.278-.894-.317-.825-.285-1.428-.4-2.357-.4-.929 0-1.532.115-2.357.4-.112.039-.708.253-.894.317-1.586.542-3.174.798-5.84.798-3.14 0-6.132-2.885-8.493-7.576H7.583A7.575 7.575 0 0 1 0 34.844v-8.329zM28.03 9.848c.243 0 .485-.009.724-.028a9.092 9.092 0 0 0-9.781-8.276 9.092 9.092 0 0 0 9.057 8.304zM7.583 20.455a6.06 6.06 0 0 0-5.317 3.135l-.014.084c-.336 2.012 1.008 3.599 3.048 3.599h2.283c.049-2.655.361-4.928.951-6.818h-.951zm2.265 8.333H5.3c-1.624 0-2.973-.722-3.785-1.855v7.911a6.06 6.06 0 0 0 6.068 6.065h26.503a.76.76 0 0 0 .762-.75v-10.62c0-.414-.34-.751-.762-.751h-7.57v3.03a.758.758 0 1 1-1.516 0v-3.03h-6.06v3.03a.758.758 0 1 1-1.516 0v-3.03h-6.06v3.03a.758.758 0 1 1-1.516 0v-3.03zm9.849 19.697c2.501 0 3.924-.23 5.35-.717.171-.059.764-.272.89-.315.975-.337 1.741-.483 2.85-.483 1.111 0 1.877.146 2.853.483.125.043.718.256.89.315 1.425.488 2.847.717 5.349.717 5.017 0 10.606-11.393 10.606-20.455 0-8.62-2.669-12.879-8.333-12.878-2.391 0-3.774.499-5.796 1.776-.076.048-.52.331-.65.412-1.798 1.132-3.04 1.6-4.918 1.6-1.878 0-3.12-.468-4.918-1.6-.13-.08-.574-.364-.65-.412-2.022-1.277-3.405-1.776-5.796-1.776-5.503 0-8.172 3.992-8.326 12.12h24.988a2.273 2.273 0 0 1 2.278 2.27v10.613a2.273 2.273 0 0 1-2.278 2.27H12.912c2.06 3.813 4.509 6.06 6.785 6.06z" opacity=".5"/>
</svg>
