<svg xmlns="http://www.w3.org/2000/svg" width="46" height="45" viewBox="0 0 46 45">
    <g fill="#666" fill-rule="nonzero">
        <path d="M44.79 14.442l-1.464-1.465c-.21-.21-.419-.314-.628-.314a.8.8 0 0 0-.524.21l-3.034 2.406-.105-.105c-.21-.209-.419-.314-.628-.314-.105 0-.314 0-.419.105l-5.023 2.721c-.628-.105-1.151-.21-1.779-.21-2.407 0-4.71.943-6.488 2.617l-9.419 9.419c-.314.314-.523.523-.732.837l-.105.104c-.837 1.047-1.36 2.198-1.675 3.559v.104c0 .105 0 .314-.104.524v2.72c0 .105.104.314.104.42 0 .104.105.208.105.313 0 .105.105.314.105.419 0 .104.104.209.104.314.105.104.105.314.21.418 0 .105.104.21.209.314.105.105.105.314.21.419.104.104.104.209.209.314l.104-.105-.104.21c.104.104.104.209.209.313.105.105.21.314.314.419 0 0 .105.21.21.314.208.21.418.418.627.628.21.21.419.418.733.628 1.57 1.36 3.662 2.093 5.755 2.093h1.047s.419 0 .523-.105c.105 0 .314-.105.419-.105.104 0 .21-.104.418-.104.105 0 .314-.105.419-.105.105 0 .21-.105.314-.105.105-.104.314-.104.419-.209l.209-.105a15.754 15.754 0 0 0 1.779-1.046c.314-.21.628-.523.837-.733l9.419-9.418c2.197-2.198 3.035-5.233 2.511-8.268l2.721-5.023c.21-.314.105-.837-.104-1.046l-.105-.105L45 15.279c.105 0 .105-.523-.21-.837zM26.687 41.337l-10.36-10.36.104-.105 9.419-9.419c1.36-1.36 3.244-2.093 5.128-2.093.523 0 1.15.105 1.779.21.628.104 1.256.418 1.884.732.209.105.418.314.732.419l.21.21c.209.209.523.418.732.627.21.21.419.419.628.733l.105.209c.209.21.313.419.523.733.314.523.523 1.15.732 1.779.628 2.511-.104 5.128-1.883 6.907l-9.733 9.418c.105 0 .105 0 0 0zm11.407-20.511l-.628-.628-.628-.628-.21-.21-.104-.104c-.104-.105-.209-.105-.314-.21-.104-.104-.314-.209-.523-.313l-.21-.105c-.104-.105-.209-.105-.313-.21l3.035-1.674 2.72 2.721-1.674 3.035c-.104-.105-.104-.21-.21-.314l-.208-.21c-.105-.104-.21-.313-.21-.418-.104-.105-.104-.21-.209-.314-.105-.104-.21-.314-.314-.418zm2.302-4.291l2.198-1.78.314.315-1.78 2.197-.732-.732zm-19.57 26.79h-.209c-.314 0-.628-.104-.942-.209-.104 0-.627-.209-.627-.209-.105 0-.21-.105-.314-.105-.105 0-.21-.104-.21-.104-.104 0-.209-.105-.314-.21-.104-.104-.209-.104-.314-.209-.104-.105-.209-.105-.314-.21a1.445 1.445 0 0 0-.418-.313l-.105-.105c-.21-.104-.314-.314-.523-.418-.21-.21-.314-.314-.419-.524l-.104-.209c-.105-.105-.21-.21-.21-.314-.104-.105-.104-.21-.104-.21-.105-.104-.105-.209-.21-.313 0-.105-.104-.21-.104-.314-.105-.105-.105-.21-.105-.314 0-.105-.105-.21-.105-.314 0-.105-.104-.21-.104-.419l-.419-.209c-.104-.21-.104-.419-.104-.628v-.21s-.105-.313-.105-.418v-.314-.314-.314-.314-.523h-.21l.21-.105c0-.104 0-.209.105-.313l.104-.21c.105-.523.314-1.046.523-1.57.105-.104.105-.209.21-.313l9.942 9.941c-.105.105-.21.105-.419.21-.419.209-.942.418-1.57.523h-.104c-.105 0-.21 0-.419.105h-1.779-.21z"/>
        <path d="M35.895 27.314a.8.8 0 0 0-.209-.523l-4.71-4.814a.8.8 0 0 0-.523-.21.8.8 0 0 0-.523.21l-4.186 4.186a.8.8 0 0 0-.21.523.8.8 0 0 0 .21.523l4.814 4.814a.8.8 0 0 0 .523.21.8.8 0 0 0 .524-.21l4.186-4.186c.104-.104.104-.314.104-.523zm-1.046.105l-3.768 3.767-4.5-4.5 3.768-3.767 4.5 4.5zM24.488 30.14a3.037 3.037 0 0 0-3.035 3.034 3.037 3.037 0 0 0 3.035 3.035 3.037 3.037 0 0 0 3.035-3.035c0-1.674-1.256-3.034-3.035-3.034zm0 5.337a2.323 2.323 0 0 1-2.302-2.303 2.323 2.323 0 0 1 2.302-2.302 2.323 2.323 0 0 1 2.303 2.302 2.323 2.323 0 0 1-2.303 2.303zM19.151 22.395c.105 0 .105-.104.21-.104L32.546 9.105a3.79 3.79 0 0 0 0-5.338l-1.675-1.674C30.14 1.36 29.198.942 28.152.942c-1.047 0-1.99.418-2.722 1.151L11.512 15.907l-.21.21-2.825 5.65-6.907 6.907a2.338 2.338 0 0 0 0 3.35l.837.836c.419.42 1.046.733 1.674.733.628 0 1.256-.21 1.675-.733l6.802-6.907 6.593-3.558zm8.477-10.988l-9.419 9.419-6.488 3.558c-.105 0-.105.104-.21.104L7.85 28.256 6.174 26.58l3.768-3.767.21-.21 2.825-5.65 10.15-10.152 4.5 4.605zm.523-8.79c.523 0 1.047.209 1.465.627l1.675 1.675c.418.418.628.837.628 1.465 0 .523-.21 1.046-.628 1.465l-2.407 2.407-4.5-4.5 2.407-2.407c.314-.523.837-.733 1.36-.733zM4.186 31.708c-.105 0-.314-.104-.419-.209l-.837-.837a.506.506 0 0 1 0-.733l1.989-1.988 1.674 1.674-1.988 1.989c-.105 0-.21.104-.419.104z"/>
        <path d="M19.674 16.744a.8.8 0 0 0 .524.21.8.8 0 0 0 .523-.21l3.244-3.244a.8.8 0 0 0 .21-.523.8.8 0 0 0-.21-.524l-1.884-1.988a.8.8 0 0 0-.523-.21.8.8 0 0 0-.523.21L17.79 13.71a.821.821 0 0 0 0 1.151l1.883 1.884zm-1.36-2.511l3.244-3.245 2.093 2.093-3.244 3.245-2.093-2.093zM17.372 19.36h.209l1.047-1.046c.105-.105.105-.21 0-.21l-2.198-2.197h-.104-.105l-1.047 1.046c-.104.105-.104.21 0 .21l2.198 2.197z"/>
    </g>
</svg>
