<svg xmlns="http://www.w3.org/2000/svg" width="42" height="50" viewBox="0 0 42 50">
    <path fill="#000" fill-rule="nonzero" d="M41.34 9.578c-.3-.18-.66-.06-.84.241l-4.44 8.253H21c.3-.482.54-1.024.54-1.626 0-.904-.42-1.687-1.08-2.23.66-.541 1.08-1.324 1.08-2.228 0-.904-.42-1.687-1.08-2.229.66-.542 1.08-1.325 1.08-2.229 0-.903-.42-1.687-1.08-2.229.66-.542 1.08-1.325 1.08-2.229A2.822 2.822 0 0 0 18.72.241C8.64.301.42 8.554.42 18.675c0 8.253 5.58 13.433 15.06 14.397.72.181 1.38.422 1.98.663a21.21 21.21 0 0 0-5.34 3.916 5.952 5.952 0 0 0-2.28-.482c-3.36 0-6.12 2.77-6.12 6.144s2.76 6.145 6.12 6.145c3.36 0 6.12-2.771 6.12-6.145a6.094 6.094 0 0 0-2.7-5.06c1.32-1.325 3.18-2.771 5.76-3.916 2.52 1.145 4.38 2.53 5.7 3.856a6.188 6.188 0 0 0-2.82 5.18c0 3.374 2.76 6.145 6.12 6.145 3.36 0 6.12-2.771 6.12-6.145 0-3.373-2.76-6.144-6.12-6.144-.78 0-1.5.12-2.16.422-1.26-1.265-3-2.711-5.34-3.856.66-.24 1.38-.482 2.16-.723 9-1.144 14.28-6.265 14.34-14.156l4.56-8.434c.18-.362.06-.723-.24-.904zM14.7 43.313c0 2.711-2.22 4.94-4.92 4.94-2.7 0-4.92-2.229-4.92-4.94 0-2.71 2.22-4.94 4.92-4.94.48 0 .96.06 1.44.241-1.02 1.205-1.56 2.23-1.86 2.711-.9.181-1.62 1.024-1.62 1.988 0 1.145.9 2.048 2.04 2.048 1.14 0 2.04-.903 2.04-2.048 0-.783-.48-1.506-1.14-1.807.3-.542.84-1.386 1.68-2.35 1.44.844 2.34 2.41 2.34 4.157zm-4.92-.783c.48 0 .84.362.84.843 0 .482-.36.844-.84.844S9 43.795 9 43.313c0-.421.36-.783.78-.783zm18.18-4.157c2.7 0 4.92 2.23 4.92 4.94 0 2.711-2.22 4.94-4.92 4.94-2.7 0-4.92-2.229-4.92-4.94 0-1.807 1.02-3.433 2.46-4.277.84.964 1.38 1.807 1.74 2.35-.78.3-1.26 1.024-1.26 1.867 0 1.145.9 2.048 2.04 2.048 1.14 0 2.04-.903 2.04-2.048 0-.904-.6-1.687-1.44-1.928-.24-.482-.78-1.566-1.86-2.831.36-.06.78-.12 1.2-.12zm0 4.157c.48 0 .84.362.84.843 0 .482-.36.844-.84.844a.822.822 0 0 1-.84-.844.86.86 0 0 1 .84-.843zm-8.64-27.59c.6.24 1.02.843 1.02 1.506 0 .662-.42 1.265-1.02 1.506V14.94zm0-4.398c.6.241 1.02.844 1.02 1.506 0 .663-.42 1.265-1.02 1.506v-3.012zm0-4.458c.6.241 1.02.844 1.02 1.506 0 .663-.42 1.265-1.02 1.506V6.084zm1.02-2.951c0 .662-.42 1.265-1.02 1.506V1.627c.6.24 1.02.843 1.02 1.506zm-2.22-1.627v16.566H1.68c.3-8.976 7.5-16.265 16.44-16.566zm.6 30.542c-14.7 0-16.92-8.494-17.04-12.77h34.2c-1.08 13.252-15.84 12.77-17.16 12.77z" opacity=".5"/>
</svg>
