<svg xmlns="http://www.w3.org/2000/svg" width="45" height="45" viewBox="0 0 45 45">
    <g fill="none" fill-rule="nonzero">
        <g fill="#666">
            <path d="M44.73 36.99c-.09-1.71-.72-3.33-1.89-4.59-.18-.18-.27-.36-.45-.45-1.26-1.17-2.88-1.8-4.59-1.89h-.72c-1.71.09-3.33.72-4.68 1.98l-.09.09-.09.09-3.69-2.79c9.99-.99 13.14-5.4 13.32-8.1.09-1.26.09-1.8.09-2.07.36-.45.63-1.44-.09-2.25l.18-7.56c.09-.54-.09-1.62-1.35-1.98L35.1 1.89c-.09-.27-.63-1.08-1.62-1.08-.18 0-.36 0-.54.09h-4.32c-.18-.18-.63-.54-1.26-.54-.36 0-.72.09-.99.36l-.09.09-1.44 15.39c-.9.09-1.53.9-1.53 1.71V18l-14.22-.99-4.32-3.33c-.63-.54-1.17-1.62-1.35-2.16l.18-.18c.27-.36.36-.72.27-1.08-.18-.54-.72-.9-1.44-.9-.27 0-.45 0-.72.09a2 2 0 0 0-1.17.72c-.27.36-.36.72-.27 1.08.09.45.63.81 1.26.9.45 1.8 2.07 3.24 2.25 3.33l3.96 2.7v.09c0 .09 0 2.7.27 3.42.36 1.26 2.79 7.02 14.22 7.74l-3.51 2.7-.09-.09-.09-.09c-1.26-1.17-2.88-1.8-4.59-1.89h-.72c-1.71.09-3.33.72-4.59 1.89-.18.18-.36.27-.45.45-1.17 1.26-1.8 2.88-1.89 4.59v.72c.09 1.71.72 3.33 1.89 4.59.18.18.27.36.45.45 1.26 1.17 2.88 1.8 4.59 1.89h.72c1.71-.09 3.33-.72 4.59-1.89.18-.18.36-.27.45-.45.81-.9 1.44-2.07 1.71-3.24 0-.09 0-.18.09-.27h9.63c0 .09 0 .18.09.27.27 1.17.9 2.34 1.71 3.24.18.18.27.36.45.45 1.26 1.17 2.88 1.8 4.59 1.89h.72c1.71-.09 3.33-.72 4.59-1.89.18-.18.36-.27.45-.45 1.17-1.26 1.8-2.88 1.89-4.59v-.36c-.09-.09-.18-.36-.18-.36zm-12.87-4.41c-.18.18-.27.36-.45.54l-4.77-3.6c.36 0 .72 0 1.08-.09l4.14 3.15zm-6.84-15.66c.54 0 .99.45.99.99s-.45.99-.99.99-.99-.45-.99-.99.45-.99.99-.99zm-17.01.81l-3.96-2.7s-1.53-1.35-1.98-2.88c.09 0 .27 0 .36-.09.18-.09.27-.09.45-.18.27.63.72 1.71 1.44 2.34l4.14 3.15-.45.36zm1.08 3.6c-.09-.36-.18-1.62-.18-2.7l.36-.36 13.77.9c.45.72 1.17 1.17 2.07 1.17.81 0 1.53-.36 1.98-.99l13.77.72c0 .27 0 .63-.09 1.17-.18 2.43-3.69 7.02-15.66 7.2h-.54c-12.96-.09-15.3-6.39-15.48-7.11zm13.95 8.19h-.36 1.53l-4.86 3.69c-.18-.18-.27-.36-.45-.54l4.14-3.15zm-3.51 8.01v.09c0 .27 0 .45-.09.63 0 .18-.09.36-.09.54-.27.99-.72 1.89-1.44 2.7-.09.18-.27.27-.36.36a6.212 6.212 0 0 1-3.78 1.62h-.54c-1.44-.09-2.79-.63-3.78-1.62l-.36-.36a6.212 6.212 0 0 1-1.62-3.78v-.27-.27c.09-1.44.63-2.79 1.62-3.78.09-.18.27-.27.36-.36a6.212 6.212 0 0 1 3.78-1.62h.54c1.44.09 2.79.63 3.78 1.62l.09.09.27.27.09.09c.18.18.27.36.45.54.09.18.18.27.27.45.45.81.72 1.71.72 2.61v.36c.09-.09.09 0 .09.09zm1.08.72c0-.27.09-.45.09-.72h9.45c0 .27 0 .45.09.72h-9.63zm10.44-4.5c-.54.99-.9 2.07-.9 3.24h-9.27v-.09c-.09-1.08-.36-2.16-.9-3.15l-.09-.09 5.4-4.05h.81-.18l5.4 4.05c-.27 0-.27 0-.27.09zm12.42 3.87c-.09 1.44-.63 2.79-1.62 3.78-.09.18-.27.27-.36.36a6.212 6.212 0 0 1-3.78 1.62h-.54c-1.44-.09-2.79-.63-3.78-1.62l-.36-.36c-.72-.72-1.17-1.71-1.44-2.7 0-.18-.09-.36-.09-.54 0-.18-.09-.36-.09-.63v-.27-.27c.09-.99.36-1.89.81-2.7.09-.18.18-.27.27-.45.09-.18.27-.36.45-.54l.09-.09.27-.27.09-.09a6.212 6.212 0 0 1 3.78-1.62h.54c1.44.09 2.79.63 3.78 1.62l.36.36a6.212 6.212 0 0 1 1.62 3.78v.63z"/>
            <path d="M18.72 36.99c-.09-.72-.27-1.44-.63-2.07-.09-.18-.18-.36-.27-.45-.09-.18-.27-.36-.45-.54l-.36-.36c-.9-.81-1.98-1.26-3.24-1.35h-.54c-1.26.09-2.43.54-3.24 1.35-.18.09-.27.27-.36.36-.81.9-1.26 1.98-1.35 3.24v.54c.09 1.26.54 2.43 1.35 3.24.09.18.27.27.36.36.9.81 1.98 1.26 3.24 1.35h.54c1.26-.09 2.43-.54 3.24-1.35.18-.09.27-.27.36-.36.54-.63.9-1.26 1.17-2.07.09-.18.09-.36.09-.54 0-.18.09-.45.09-.63v-.09-.18-.27c.09-.18 0-.18 0-.18zm-4.95-4.41c1.08.09 2.07.45 2.79 1.17l-2.07 2.07c-.18-.09-.27-.18-.45-.27-.09 0-.18-.09-.36-.09v-2.88h.09zm-.63 0v2.97c-.27.09-.54.18-.81.36l-2.07-2.07c.81-.72 1.8-1.17 2.88-1.26zM9.9 34.2l2.07 2.07c-.18.27-.27.45-.36.81H8.64c.09-1.17.54-2.16 1.26-2.88zm-1.17 3.42h2.97c.09.27.18.54.36.81L9.9 40.5c-.72-.81-1.17-1.8-1.17-2.88zm4.41 4.5c-1.08-.09-2.07-.54-2.88-1.17l2.07-2.07c.27.18.45.27.81.36v2.88zm.27-3.51h-.18-.09c-.09 0-.27-.09-.36-.18-.18-.09-.27-.27-.36-.36-.09-.09-.09-.27-.18-.36v-.27-.27c0-.09.09-.27.18-.36.09-.18.27-.27.36-.36.09-.09.27-.09.36-.18h.54c.18 0 .27.09.36.18.18.09.27.27.36.36 0 .09.09.09.09.18s.09.18.09.18v.54c0 .18-.09.27-.18.36-.09.18-.27.27-.36.36-.09.09-.27.09-.36.18h-.27zm.36 3.51v-2.97c.27-.09.54-.18.81-.36l2.07 2.07c-.81.72-1.8 1.17-2.88 1.26zm4.32-3.87c0 .18-.09.36-.18.54-.18.63-.54 1.17-.99 1.71l-2.07-2.07c.18-.27.27-.54.36-.81h2.97c0 .18 0 .45-.09.63zm-2.07-1.17h-.72c0-.18-.09-.36-.18-.54 0-.09-.09-.18-.09-.27l2.07-2.07c.18.18.27.36.36.54l.27.54c.27.54.45 1.17.45 1.71v.09h-2.16zM41.4 33.75c-.09-.18-.27-.27-.36-.36-.9-.81-1.98-1.26-3.24-1.35h-.54c-1.26.09-2.43.54-3.24 1.35-.18.09-.27.27-.36.36-.18.18-.27.36-.45.54-.09.18-.18.36-.27.45-.36.63-.54 1.35-.63 2.16v.63c0 .18 0 .45.09.63 0 .18.09.36.09.54.27.81.63 1.53 1.17 2.07.09.18.27.27.36.36.9.81 1.98 1.26 3.24 1.35h.54c1.26-.09 2.43-.54 3.24-1.35.18-.09.27-.27.36-.36.81-.9 1.26-1.98 1.35-3.24v-.27-.27c-.09-1.17-.54-2.34-1.35-3.24zm-3.69-1.17c1.08.09 2.07.54 2.88 1.17l-2.07 2.07c-.27-.18-.45-.27-.81-.36v-2.88zm-3.42 1.17c.81-.63 1.71-1.08 2.79-1.17v2.97c-.09 0-.18.09-.27.09-.18.09-.36.09-.45.27l-2.07-2.16zm-1.62 3.24c.09-.63.18-1.26.54-1.8.09-.18.18-.36.27-.45.09-.18.27-.36.36-.54l2.07 2.07c-.09.09-.09.18-.09.18-.09.18-.18.36-.18.54H32.67zm1.17 3.51c-.45-.45-.72-1.08-.99-1.71-.09-.18-.09-.36-.18-.54 0-.18-.09-.45-.09-.63h2.88c.09.27.18.54.36.81l-1.98 2.07zm3.33 1.62c-1.08-.09-2.07-.54-2.88-1.17l2.07-2.07c.27.18.45.27.81.36v2.88zm.45-3.51h-.45c-.18 0-.27-.09-.36-.18-.18-.09-.27-.27-.36-.36-.09-.09-.09-.27-.18-.36v-.18-.09-.27c0-.09.09-.18.09-.27 0-.09.09-.09.09-.18.09-.18.27-.27.36-.36.09-.09.27-.09.36-.18h.54c.18 0 .27.09.36.18.18.09.27.27.36.36.09.09.09.18.18.27v.63c0 .18-.09.27-.18.36-.09.18-.27.27-.36.36-.09.09-.18.09-.27.09 0 .09-.09.09-.18.18.09-.09.09-.09 0 0zm.09 3.51v-2.97c.27-.09.54-.18.81-.36l2.07 2.07c-.81.72-1.8 1.17-2.88 1.26zm3.24-1.62l-2.07-2.07c.18-.27.27-.54.36-.81h2.97c-.09 1.08-.54 2.07-1.26 2.88zm-1.71-3.42c-.09-.27-.18-.54-.36-.81l2.07-2.07c.72.81 1.17 1.8 1.17 2.88h-2.88z"/>
        </g>
        <g fill="#FFF">
            <path d="M34.2 2.61l-.09-.18c-.09-.09-.27-.45-.54-.45h-.18l-.18.09h-.18l-4.77 10.44 5.94-9.9zM28.08 1.89l-.18-.18c-.09-.09-.36-.27-.54-.27h-.09l-.63 6.39 1.44-5.94zM32.22 2.07h-3.6l-2.34 10.08-.36 3.69zM26.82 17.91v.18l10.17-.9 3.78-.36.18-6.75-14.13 7.29v.54zM26.28 16.56l.27.27 13.14-8.91-5.13-4.95-8.28 13.59zM41.04 17.73l-.27-.27-10.08.9 10.17.54.18-.27c.18-.27.27-.63 0-.9zM40.95 9.45v-.27c0-.18 0-.63-.45-.72l-.27-.09-.09-.09-9.54 6.48 10.35-5.31z"/>
        </g>
        <path fill="#666" d="M1.8 11.16c-.36 0-.54-.18-.54-.18 0-.09 0-.18.09-.27.18-.18.36-.36.63-.36.18 0 .27-.09.45-.09.36 0 .54.09.54.18s0 .18-.09.27c-.18.18-.36.36-.63.36-.18.09-.36.09-.45.09z"/>
    </g>
</svg>
