<svg xmlns="http://www.w3.org/2000/svg" width="30" height="50" viewBox="0 0 30 50">
    <path fill="#666" fill-rule="nonzero" stroke="#666" stroke-width=".2" d="M29.308 17.846c.769-1.23.384-2.923-.846-3.692-.308-.23-.693-.308-1.077-.385l-1.616-4.846c1.616-.923 2.308-2.846 1.616-4.846-.77-2.308-3.077-4.23-5.231-3.539-2.154.693-2.77 3.77-2.077 6 .615 1.924 2.23 3.154 4.154 2.924l1.538 4.615c-.461.23-.846.538-1.077 1-.077.154-1.923 3-5.154 3.615l-7.769-1.384-7.307-4.462c-1.231-.77-2.924-.384-3.693.923-.769 1.308-.384 2.923.923 3.693l9 5.461c.077 1.923.462 8.154.616 9.846-1.462 1.539-6.154 7.154-3.77 14.693.539 1.692 2.308 2.538 3.847 2 1.615-.539 2.538-2.231 2-3.847-1.308-4 1-7.153 2.077-8.307l.615.077c1.077 3.538 3.461 9.23 8.077 11.692.461.23.923.385 1.461.385 1.154 0 2.231-.616 2.77-1.616.384-.692.461-1.538.23-2.384a3.04 3.04 0 0 0-1.538-1.847c-5.692-3-6-13.846-6.308-19.615 5.385-1.154 8.385-5.923 8.539-6.154zM21.462 6C21 4.615 21.23 2.385 22.538 2c1.308-.462 2.847 1.154 3.308 2.615.462 1.462-.077 2.77-1.308 3.231-1.23.308-2.538-.23-3.076-1.846zm-1.693 16.538c-.461.077-.692.462-.615.924.308 1.846-.462 17.384 7.154 21.461.384.23.615.539.769.923.154.385.077.846-.077 1.154-.308.538-.77.846-1.385.846-.23 0-.538-.077-.769-.154-4.308-2.307-6.538-8.077-7.461-11.307a.739.739 0 0 0-.693-.539l-1.461-.154a.873.873 0 0 0-.616.231c-1 1.077-4.307 4.923-2.692 10.077.23.846-.154 1.692-1 1.923-.77.23-1.692-.23-1.923-1-2.308-7.154 2.615-12.461 3.615-13.385a.873.873 0 0 0 .231-.615c-.077-.538-.692-9.77-.615-10.308.077-.307-.077-.615-.385-.769l-9.384-5.692c-.539-.308-.693-1.077-.385-1.616.308-.538 1.077-.692 1.615-.384l7.462 4.538c.077.077.154.077.23.077 8.385 1.462 8 1.462 8.308 1.385 4-.692 6.231-4.23 6.308-4.385.308-.538 1.077-.692 1.615-.384.539.307.693 1.077.385 1.615-.154.23-3 4.846-8.23 5.538zm-3.538-6.076c-2.462 0-4.462-2-4.462-4.462 0-2.462 2-4.462 4.462-4.462 2.461 0 4.461 2 4.461 4.462 0 2.462-2 4.462-4.461 4.462zm0-7.385A2.922 2.922 0 0 0 13.308 12a2.922 2.922 0 0 0 2.923 2.923A2.922 2.922 0 0 0 19.154 12a2.922 2.922 0 0 0-2.923-2.923zm-11-.539L.692 6C.231 5.77.154 5.154.538 4.77L4.462.845c.384-.384 1-.308 1.23.154l2.539 4.538a1.65 1.65 0 0 1-.308 1.924l-.846.846c-.462.461-1.23.538-1.846.23zm-.385-5.846L2.385 5.154l3.615 2 .846-.846-2-3.616z"/>
</svg>
