<svg xmlns="http://www.w3.org/2000/svg" width="46" height="50" viewBox="0 0 46 50">
    <g fill="#666" fill-rule="nonzero" stroke="#666" stroke-width=".2">
        <path d="M37.907 10.385a2.772 2.772 0 0 0-3.585-1.539l-16.17 6.692-12.28-14C4.5.154 2.289-.077.993 1.308c-1.22 1.23-1.22 3.384.305 4.923l12.432 11.154-1.983.846c-1.45.615-2.136 2.23-1.526 3.615.534 1.385 2.136 2.154 3.661 1.539l6.255-2.616v8.154c0 1.77.991 3.385 2.517 4.23l-.763 3.385-6.026 8c-1.067 1.385-.762 3.385.61 4.462a3.08 3.08 0 0 0 4.424-.615l6.483-8.616c.153-.23.305-.538.458-.769l4.347 8.846c.84 1.616 2.746 2.23 4.272 1.462 1.601-.77 2.211-2.693 1.449-4.308l-8.161-16.308c0-3.077-.077-9.923-.153-11.846l6.788-2.77c1.373-.614 2.06-2.23 1.526-3.691zM2.288 5.077c-.763-.77-.915-2-.229-2.692.687-.693 1.983-.539 2.67.23.076.077 11.822 13.462 11.898 13.539l-1.296.538L2.288 5.077zm33.33 42.846c-.762.385-1.754.077-2.211-.77L28.22 36.616l1.144-5.153 7.017 14.23c.382.77.077 1.77-.762 2.231zm.153-35.308l-7.17 2.923c-.304.077-.533.385-.533.77.381 16.307.457 11.461-1.678 21.846-.076.23-.153.461-.305.615l-6.483 8.616c-.534.692-1.602.846-2.288.307-.687-.538-.84-1.615-.306-2.307 6.407-8.616 6.255-8.154 6.331-8.462l.915-4.154c.077-.384-.152-.769-.457-.923-1.297-.461-2.136-1.692-2.136-3.077v-9.154a.752.752 0 0 0-1.068-.692L13.347 22c-.686.23-1.372-.077-1.601-.692-.23-.616.076-1.385.686-1.616C66.356-2.769-19.22 32.615 34.856 10.308c.61-.231 1.373.077 1.602.692.305.615 0 1.385-.687 1.615z"/>
        <path d="M21.966 11.538c2.822 0 5.187-2.307 5.187-5.23 0-2.923-2.289-5.231-5.187-5.231s-5.186 2.385-5.186 5.23c0 2.847 2.288 5.231 5.186 5.231zm0-8.923c1.983 0 3.661 1.693 3.661 3.693S23.95 10 21.967 10a3.677 3.677 0 0 1-3.662-3.692c0-2.077 1.602-3.693 3.661-3.693zM41.644.385c-1.754 0-3.28 1.461-3.28 3.307 0 1.846 1.526 3.231 3.28 3.231 1.754 0 3.28-1.461 3.28-3.23 0-1.77-1.45-3.308-3.28-3.308zm0 5c-.915 0-1.754-.77-1.754-1.77s.763-1.769 1.754-1.769c.992 0 1.754.77 1.754 1.77s-.762 1.769-1.754 1.769z"/>
    </g>
</svg>
