<svg xmlns="http://www.w3.org/2000/svg" width="53" height="50" viewBox="0 0 53 50">
    <g fill="#666" fill-rule="nonzero" stroke="#666" stroke-width=".2">
        <path d="M1.386 34.426c.49 0 .816-.328.816-.82v-8.688h3.18l2.283 11.066c.081.41.407.655.815.655h11.17c.408 0 .735-.246.816-.655l3.262-15.656c.081-.492-.245-.984-.816-.984H5.218c-.489 0-.896.492-.815.984l.57 2.95H2.203v-5.41c0-.491-.327-.819-.816-.819-.49 0-.815.328-.815.82v15.738c0 .491.326.82.815.82zm14.188-8.115l-.163 3.28H12.8l-.163-3.28h2.936zm-3.18-1.639l-.163-3.688H15.9l-.245 3.688h-3.261zm7.664 5H16.96l.163-3.279h3.588l-.653 3.28zm-4.81 1.64L15.003 35h-1.957l-.244-3.689h2.446zm-4.159-1.64H7.991l-.653-3.279h3.588l.163 3.28zm-2.772 1.64h2.854L11.415 35H9.132l-.815-3.689zM18.998 35h-2.283l.245-3.689h2.854L18.998 35zm2.12-10.328h-3.75l.244-3.688h4.322l-.816 3.688zM10.6 20.984l.245 3.688H7.012l-.734-3.688H10.6zM11.578 15.41c2.936 0 5.382-2.46 5.382-5.41s-2.446-5.41-5.382-5.41c-2.935 0-5.381 2.46-5.381 5.41s2.446 5.41 5.381 5.41zm0-9.099c2.039 0 3.751 1.722 3.751 3.771 0 2.05-1.712 3.77-3.75 3.77-2.039 0-3.751-1.72-3.751-3.77s1.712-3.77 3.75-3.77z"/>
        <path d="M51.043 38.607l-4.403-2.705-4.566-17.213c1.06.327 1.794.983 2.12 2.049.49 1.475 2.12 2.295 3.67 1.721.733-.246 1.304-.82 1.63-1.475.326-.656.326-1.476.081-2.214-1.386-4.016-4.729-6.065-9.54-6.065-3.587 0-7.093 1.147-8.806 1.64-.244.081-.407.163-.57.163l-6.931-3.36c-1.468-.738-3.099-.082-3.833 1.311-.652 1.393-.081 3.115 1.305 3.852l7.828 3.853c.652.328 1.304.328 1.957.164l.978-.246 1.712 8.934c-.897 5.984-.57 4.263-1.467 10.082-.082.656 0 1.312.326 1.886l3.995 6.967c.816 1.393 2.528 1.885 3.914 1.065 1.386-.82 1.794-2.54 1.06-3.934l-3.506-6.066.815-5.82.571-.081 2.12 5.737c.245.574.652 1.148 1.223 1.476l5.3 3.197c1.305.82 3.099.41 3.914-.984.897-1.311.49-3.115-.897-3.934zm-.408 3.114c-.326.574-1.141.738-1.712.41l-5.3-3.197c-.245-.164-.408-.327-.49-.655l-2.364-6.312c-.163-.328-.489-.574-.815-.492l-1.794.164c-.408 0-.652.328-.734.738l-.978 6.721c0 .164 0 .328.081.492l3.67 6.312c.326.573.163 1.311-.408 1.721-.571.328-1.305.164-1.713-.41l-3.995-6.967c-.163-.246-.163-.492-.163-.82.326-2.459 1.386-9.836 1.468-10.164v-.41l-1.876-9.918c-.081-.491-.57-.737-.978-.655l-1.876.573c-.244.082-.57.082-.815-.082l-7.828-3.852c-.57-.328-.897-1.066-.57-1.64.244-.573 1.06-.901 1.63-.573l7.176 3.525c.407.163.815 0 1.549-.246 1.63-.492 4.974-1.558 8.317-1.558 4.158 0 6.768 1.64 7.99 5 .245.656-.08 1.312-.733 1.558-.652.246-1.305-.164-1.55-.738-.652-1.967-2.282-3.115-4.729-3.36-.244 0-.57.081-.733.245-.164.246-.245.492-.164.738l4.974 18.77c.082.246.163.41.326.492L50.228 40c.57.41.734 1.148.407 1.721zM35.632 11.066c2.936 0 5.3-2.377 5.3-5.328 0-2.951-2.364-5.328-5.3-5.328-2.935 0-5.3 2.377-5.3 5.328 0 2.95 2.365 5.328 5.3 5.328zm0-9.017c2.039 0 3.67 1.64 3.67 3.689 0 2.049-1.631 3.688-3.67 3.688a3.664 3.664 0 0 1-3.669-3.688c0-2.05 1.63-3.689 3.67-3.689z"/>
    </g>
</svg>
