<svg xmlns="http://www.w3.org/2000/svg" width="45" height="50" viewBox="0 0 45 50">
    <g fill="#666" fill-rule="nonzero" stroke="#666" stroke-width=".2">
        <path d="M23.186 16.538c-.228.077-1.983.462-4.347.924.305-2.385-1.144-4.693-3.585-5.231-2.517-.616-5.034 1-5.644 3.538L6.178 30.462.839 43.615c-.534 1.385.153 3 1.525 3.539 1.373.538 2.975-.077 3.509-1.539l3.737-9.769 3.737 4.23-.152 6.847c0 1.539 1.22 2.77 2.746 2.77 1.525 0 2.745-1.231 2.745-2.693l.153-7.923a2.77 2.77 0 0 0-.686-1.846l-3.128-3.462.992-4.307 1.754 1.846c0 1.923 1.602 3.461 3.509 3.461 1.906 0 3.508-1.615 3.508-3.538 0-1.693-1.144-3.077-2.822-3.462l-4.195-4.384c5.873-1.231 6.407-1.308 6.94-1.462 2.289 1 4.806-.692 4.806-3.23.076-3.616-4.348-5.078-6.33-2.155zm-1.601 12.616c.991.154 1.754 1 1.754 2 0 1.077-.915 2-1.983 2s-1.983-.923-1.983-2.077c0-.077.076-.385-.229-.692l-2.898-3.077c-.382-.385-1.144-.231-1.297.384L13.5 33.77c-.076.231 0 .539.153.693l3.355 3.769c.23.23.306.538.306.769l-.153 7.923a1.21 1.21 0 0 1-1.22 1.23c-.687 0-1.22-.538-1.22-1.153l.152-7.154a.701.701 0 0 0-.229-.538l-4.729-5.385c-.381-.461-1.068-.308-1.296.23L4.5 45c-.229.615-.992.923-1.525.692a1.198 1.198 0 0 1-.687-1.538C8.008 30 7.628 30.924 7.703 30.846l3.433-14.77c.38-1.691 2.059-2.768 3.813-2.384 1.678.385 2.746 2.077 2.365 3.846 0 .077-.916 3.847-1.297 5.539-.076.23.076.538.229.692l4.805 5.077c.076.154.305.23.534.308zm3.508-8.923a.688.688 0 0 0-.762 0c-.382.23-.382.077-6.484 1.384.153-.769.382-1.769.61-2.538 3.738-.77 5.035-1.077 5.187-1.077a.8.8 0 0 0 .687-.385c.991-1.846 3.737-1.153 3.737.923 0 1.462-1.602 2.462-2.975 1.693zM17.314 10.615c2.822 0 5.033-2.307 5.033-5.077 0-2.769-2.288-5.076-5.033-5.076-2.822 0-5.034 2.307-5.034 5.076 0 2.77 2.288 5.077 5.034 5.077zm0-8.692c1.983 0 3.508 1.615 3.508 3.539 0 2-1.602 3.538-3.508 3.538-1.907 0-3.509-1.615-3.509-3.538 0-1.924 1.602-3.539 3.509-3.539zM39.432 8.077V1.154c0-.462-.305-.77-.763-.77-.457 0-.762.308-.762.77v6.923c-2.746.385-4.882 2.77-4.882 5.615v16.231c0 3.154 2.517 5.692 5.644 5.692 3.128 0 5.645-2.538 5.645-5.692v-16.23c0-2.847-2.136-5.231-4.882-5.616zm3.356 7.461h-1.983c-.458 0-.763.308-.763.77 0 .461.305.769.763.769h1.983v12.846c0 2.308-1.83 4.154-4.119 4.154-2.288 0-4.118-1.846-4.118-4.154v-1.846h1.983c.458 0 .763-.308.763-.77 0-.46-.305-.769-.763-.769H34.55V13.692c0-2.307 1.83-4.154 4.118-4.154 2.289 0 4.12 1.847 4.12 4.154v1.846z"/>
    </g>
</svg>
