<svg xmlns="http://www.w3.org/2000/svg" width="59" height="31" viewBox="0 0 59 31">
    <g fill="#666" fill-rule="evenodd">
        <path d="M9.464 28.44h-2.32c-.211 0-.317.105-.317.316v1.899c0 .21.106.316.317.316h2.32c.21 0 .316-.106.316-.316v-1.899c0-.21-.105-.316-.316-.316M52.067 28.44h-2.32c-.21 0-.316.105-.316.316v1.899c0 .21.105.316.316.316h2.32c.211 0 .317-.106.317-.316v-1.899c-.106-.21-.211-.316-.317-.316M54.704 16.945h-2.11v-1.054c0-2.847-1.054-6.538-9.701-6.538-.528 0-1.055 0-1.582.105-.422.106-.844-.105-1.055-.527C38.042 5.135 33.93 2.709 29.5 2.709c-4.43 0-8.542 2.426-10.756 6.222-.211.422-.633.633-1.055.527-.633-.105-1.054-.105-1.582-.105-8.647 0-9.702 3.69-9.702 6.538v1.054H4.296v-1.054c0-5.8 4.008-8.647 11.811-8.647.422 0 .844 0 1.266.105C20.009 3.131 24.543.6 29.5.6c4.956 0 9.49 2.53 12.233 6.75.422 0 .843-.106 1.265-.106 7.804 0 11.811 2.952 11.811 8.647v1.054"/>
        <path d="M5.667 27.596h47.56l.738-5.694c.106-.527.422-.844.95-.95a1.705 1.705 0 0 0 1.476-1.687c0-.949-.738-1.687-1.687-1.687-.528 0-.95.211-1.266.633l-.105.105-3.48 5.8c-.211.317-.633.528-.95.528-7.487-.633-14.236-.844-20.563-.844-6.327 0-12.444.316-18.138.844-.422 0-.844-.106-1.055-.528l-3.48-5.8-.105-.105c-.317-.422-.844-.633-1.371-.633-.95 0-1.687.738-1.687 1.687 0 .844.632 1.582 1.476 1.688.527.105.844.422.95.949l.737 5.694zm48.615 2.11H4.824c-.528 0-.95-.422-1.055-.95l-.738-5.905C1.555 22.324.5 20.847.5 19.265a3.78 3.78 0 0 1 3.796-3.796c1.055 0 2.11.422 2.848 1.266l.21.21 3.27 5.484c5.589-.527 11.494-.844 17.716-.844 6.222 0 12.76.317 20.036.844l3.27-5.484.316-.316c.738-.738 1.687-1.265 2.742-1.265A3.78 3.78 0 0 1 58.5 19.16c0 1.687-1.055 3.058-2.53 3.585l-.74 5.906c0 .633-.42 1.054-.948 1.054z"/>
        <path d="M22.013 22.956c-.317-3.585-1.688-11.072-4.64-14.025l.843-.844c3.164 3.164 4.64 10.757 4.957 14.764l-1.16.105M37.198 22.85l-1.16-.105c.422-4.007 1.898-11.494 4.957-14.658l.843.844c-2.847 2.847-4.323 10.334-4.64 13.92"/>
    </g>
</svg>
