<svg xmlns="http://www.w3.org/2000/svg" width="56" height="50" viewBox="0 0 56 50">
    <path fill="#000" fill-opacity=".5" fill-rule="nonzero" d="M18.894 0c-5.418 0-9.788 4.444-9.788 9.954v9.027a3.066 3.066 0 0 0-1.594-.462H5.236C2.367 18.519 0 20.926 0 23.843V46.99C0 48.657 1.32 50 2.96 50h4.552c1.548 0 2.823-1.25 2.96-2.778.455.324 1.001.463 1.593.463h31.87c.592 0 1.138-.185 1.593-.463A2.932 2.932 0 0 0 48.488 50h4.553C54.68 50 56 48.657 56 46.99V23.844c0-2.917-2.367-5.324-5.236-5.324h-2.276c-.592 0-1.138.185-1.594.462V9.954c0-5.51-4.37-9.954-9.788-9.954H18.894zm0 1.389h18.212c4.644 0 8.422 3.842 8.422 8.565v15.74c0 .37.32.695.683.695a.706.706 0 0 0 .683-.695v-4.166c0-.88.729-1.62 1.594-1.62h2.276c2.14 0 3.87 1.759 3.87 3.935V46.99c0 .88-.728 1.62-1.593 1.62h-4.553c-.865 0-1.594-.74-1.594-1.62v-6.945c0-.926-.41-1.759-1.093-2.315.638-.555 1.093-1.388 1.093-2.314v-4.63c0-1.667-1.32-3.01-2.959-3.01h-31.87c-1.639 0-2.96 1.343-2.96 3.01v4.63c0 .37.32.694.684.694a.706.706 0 0 0 .683-.694v-4.63c0-.88.728-1.62 1.593-1.62h31.87c.865 0 1.593.74 1.593 1.62v4.63c0 .88-.728 1.62-1.593 1.62h-31.87c-1.639 0-2.96 1.343-2.96 3.01V46.99c0 .88-.728 1.62-1.593 1.62H2.96c-.865 0-1.593-.74-1.593-1.62V23.843c0-2.176 1.73-3.936 3.87-3.936h2.276c.865 0 1.594.741 1.594 1.62v4.167c0 .37.318.695.683.695a.706.706 0 0 0 .683-.695V9.954c0-4.723 3.778-8.565 8.422-8.565zm-6.829 37.037h31.87c.865 0 1.593.74 1.593 1.62v4.63c0 .88-.728 1.62-1.593 1.62h-31.87c-.865 0-1.593-.74-1.593-1.62v-4.63c0-.88.728-1.62 1.593-1.62z"/>
</svg>
