<svg xmlns="http://www.w3.org/2000/svg" width="42" height="49" viewBox="0 0 42 49">
    <g fill="#666" fill-rule="evenodd">
        <path fill-rule="nonzero" d="M30.33 33.117c.379-.899.455-2.247 2.804-14.384.833-4.27-4.092-7.417-7.73-4.944L19.57 17.01l-3.486-4.345a2.984 2.984 0 0 0-1.592-.974c-2.568-.141-3.085 1.293-3.182 2.248-.076.674.075 1.423.606 2.022l4.925 6.069c.834 1.049 2.274 1.273 3.41.674l2.35-1.274c-.834 4.495-1.743 8.99-1.743 9.44l-5.38 2.322c-1.365.6-2.122 2.023-1.743 3.447l2.273 9.664c.379 1.648 2.046 2.622 3.637 2.247 1.667-.374 2.653-2.022 2.274-3.596L20.1 37.762l3.94-1.723c.304.075.53.15.682.15L36.62 47.427c1.212 1.198 3.182 1.123 4.32-.075 1.136-1.199 1.136-3.147-.077-4.27L30.33 33.117zm9.548 13.186c-.53.6-1.591.6-2.197.075L25.63 34.99c-.15-.15-1.439-.599-1.894-.45l-4.85 2.099c-.303.15-.53.524-.454.824l1.894 7.791a1.436 1.436 0 0 1-1.136 1.798c-.834.225-1.668-.374-1.82-1.124L15.1 36.264c-.152-.75.227-1.423.909-1.723l5.835-2.472a.823.823 0 0 0 .455-.75c0-.524 0-.224 2.046-11.162.151-.6-.53-1.124-1.137-.824l-3.789 2.022c-.455.3-1.137.15-1.44-.3l-4.925-6.068c-.986-1.198.833-2.622 1.818-1.423l3.94 4.795c.228.3.607.374.986.224l6.441-3.52c3.41-1.874 5.987.823 5.456 3.37-2.728 13.935-2.425 13.56-2.88 14.535a.79.79 0 0 0 .152.899l10.912 10.338c.53.525.606 1.499 0 2.098zM33.664 12.815c2.653 0 4.774-2.098 4.774-4.72S36.317 3.3 33.664 3.3c-2.652 0-4.774 2.098-4.774 4.72s2.122 4.795 4.774 4.795zm0-8.016c1.819 0 3.259 1.423 3.259 3.221s-1.44 3.222-3.259 3.222c-1.818 0-3.258-1.424-3.258-3.222S31.846 4.8 33.664 4.8z"/>
        <path fill-rule="nonzero" d="M38.438 21.43c-1.894 0-3.41 1.499-3.41 3.372 0 1.873 1.516 3.37 3.41 3.37 1.895 0 3.41-1.497 3.41-3.37s-1.515-3.372-3.41-3.372zm0 5.32c-1.06 0-1.894-.825-1.894-1.873 0-1.05.834-1.873 1.894-1.873 1.061 0 1.895.824 1.895 1.873 0 1.048-.834 1.872-1.895 1.872z"/>
        <path stroke="#666" stroke-width=".2" d="M11.231 10.7a.65.65 0 1 0-.918.918l1.176 1.175a.65.65 0 1 0 .918-.918L11.231 10.7z"/>
        <path stroke="#666" stroke-width=".2" d="M4.527.875a2.148 2.148 0 0 0-3.037 0l-.53.53a2.148 2.148 0 0 0 0 3.037l7.25 7.25a2.148 2.148 0 0 0 3.037 0l.53-.53a2.148 2.148 0 0 0 0-3.038L4.526.875z"/>
    </g>
</svg>
