<svg xmlns="http://www.w3.org/2000/svg" width="50" height="50" viewBox="0 0 50 50">
    <g fill="#666" fill-rule="nonzero" stroke="#666" stroke-width=".2">
        <path d="M44.077 30.846l2.77-10.23c.23-.693-.155-1.54-.847-1.847l-1.077-.461c.308-1.077-.154-2.308-1.154-2.77l-4.615-2.076C37.615 10 36.769 8.077 36.538 7.846c-1.23-1.461-3.461-1.615-4.923-.384l-6.307 5.23c-1.462 1.231-1.616 3.462-.462 4.846.154.231.077.154 3.308 4l-5.077 2.077c-.846-1.692-2.308-3.077-4.154-3.923-4.308-1.923-9.308.077-11.23 4.308-2.462 5.615 1.692 11.923 7.769 11.923 3 0 5.692-1.538 7.23-4.077l2.77 1.385c.23.307.538.461.923.615 1.384.616 3 0 3.538-1.384l.462-.924 13.077-4.384-.847 3.154c-.461-.077-1-.154-1.461-.154-3.385 0-6.462 2-7.77 5.077-2.46 5.615 1.693 11.923 7.77 11.923 3.384 0 6.461-2 7.77-5.077 1.922-4.23-.155-9.462-4.847-11.23zm.692-8.538l-11.307-2.77c-.231-.307-.539-.615-.77-.923-.461-.538-1-1.077-1.538-1.846l3-2.538.77 1.923c.23.538.691 1 1.23 1.23l5.461 2.385c.77.385 1.693.231 2.385-.307l1.308.615-.539 2.23zm-16.538.923l-3.154 7.154c-.154.307-.154.538-.23.846l-1.462-.693c.692-1.846.769-3.769.23-5.461l4.616-1.846zm-10.846 4.307l4.846-1.923c.384 1.385.307 2.847-.154 4.231l-4.692-2.308zm-1.923 6.924c-5 0-8.385-5.154-6.385-9.77 1.538-3.461 5.615-5.154 9.23-3.538 1.462.692 2.616 1.77 3.308 3.077l-6.461 2.538c-.308.077-.462.385-.462.693 0 .307.154.615.462.692l6.23 3.077c-1.307 2-3.538 3.23-5.922 3.23zM27 32.538c-.615-.23-.846-.923-.615-1.538l3.846-8.615c.154-.231.077-.616-.077-.77-3.923-4.769-3.923-4.692-4.077-4.923 0 0 0-.077-.077-.077-.692-.846-.615-2.077.23-2.692l6.308-5.23c.847-.693 2.077-.54 2.693.23.23.308 1.461 3.077 2.538 5.539.077.153.231.307.385.384l4.923 2.077c.385.154.385.77.23 1.154-.153.385-.615.538-1 .385l-5.46-2.385a.927.927 0 0 1-.385-.385l-1.154-2.923c-.231-.461-.77-.615-1.231-.307l-4.385 3.615c-.307.23-.384.692-.154 1.077.77 1.077 1.462 1.846 2.077 2.538 1.308 1.462 1.616 1.846 1.308 2.539l-4.308 9.692c-.307.615-1 .846-1.615.615zm4.23-2.846l3-6.846c.232-.538.308-1 .232-1.461l9.923 2.461-.462 1.692-12.692 4.154zm16.232 11.923c-1.154 2.539-3.616 4.154-6.385 4.154-1 0-1.923-.23-2.846-.615-3.539-1.539-5.077-5.692-3.539-9.23 1.154-2.54 3.616-4.155 6.385-4.155.385 0 .692 0 1.077.077l-1.846 6.692c-.077.385.154.847.538.924h.23c.309 0 .616-.231.77-.539l1.846-6.692a7.1 7.1 0 0 1 3.77 9.384zM39.385 8.538c2.153.924 4.692 0 5.615-2.153.923-2.154 0-4.693-2.154-5.616s-4.692 0-5.615 2.154c-1 2.154 0 4.692 2.154 5.615zm-.77-5c.616-1.384 2.154-2 3.539-1.384 1.384.615 2 2.23 1.384 3.615a2.733 2.733 0 0 1-3.615 1.385c-1.308-.616-1.923-2.23-1.308-3.616zM29.77 46.077L1.384 35.307C.846 35.155.308 35.463.308 36v12.846c0 .462.307.77.769.77h28.385c.461 0 .769-.308.769-.77V46.77c.077-.307-.154-.615-.462-.692zm-1 2H1.922v-11l26.846 10.23v.77z"/>
    </g>
</svg>
