<svg xmlns="http://www.w3.org/2000/svg" width="36" height="45" viewBox="0 0 36 45">
    <g fill="#666" fill-rule="nonzero">
        <path d="M34.987 12.6l-3.825-6.3V.675a.242.242 0 0 0-.224-.225H15.412a.242.242 0 0 0-.226.225v5.513l-3.824 6.525V17.1H1.125a.242.242 0 0 0-.225.225v24.75a2.497 2.497 0 0 0 2.475 2.475h31.5a.242.242 0 0 0 .225-.225L34.987 12.6zm-2.587-.675h-3.15l1.462-2.813 1.688 2.813zM17.212 2.362h12.15v4.163h-12.15V2.362zm-1.462 39.6c0 .113 0 .225-.113.338-.112.113-.337.225-.45.225H3.376c-.337 0-.563-.225-.563-.563v-10.35c1.013.338 2.138.788 2.813.788h.45c1.8 0 2.925-.787 3.825-1.462.787-.563 1.575-1.125 2.7-1.125h.338c.45 0 1.687.562 2.7.9v11.25h.112zm0-12.262c-.9-.337-1.912-.675-2.588-.787h-.45c-1.8 0-2.925.787-3.825 1.462-.787.563-1.575 1.125-2.7 1.125H5.85c-.45 0-1.8-.45-2.925-1.012V19.011H15.75V29.7zm11.025 12.938h-9.112c0-.225.112-.338.112-.9v-24.75c0 .224-.112.112-.225.112h-4.163v-4.163h13.388v29.7zM14.063 11.925l2.7-4.5h12.6l-2.25 4.5h-13.05zm19.124 30.713h-4.5v-29.7h4.5v29.7z"/>
        <path d="M5.737 28.125c.226 0 .45-.225.45-.45V21.6a.484.484 0 0 0-.45-.45.484.484 0 0 0-.45.45v6.075c0 .337.226.45.45.45z"/>
    </g>
</svg>
