<svg xmlns="http://www.w3.org/2000/svg" width="39" height="50" viewBox="0 0 39 50">
    <g fill="#000" fill-rule="nonzero" stroke="#FFF" stroke-width=".5" opacity=".5">
        <path d="M33.55 29.002H11.144c-1.408 0-2.555 1.204-2.555 2.683v2.708c0 1.163.714 2.16 1.706 2.53l1.622 9.65c.044 1.486 1.207 2.68 2.631 2.68h15.6c1.424 0 2.588-1.194 2.63-2.68l1.623-9.65c.992-.37 1.706-1.367 1.706-2.53v-2.708c0-1.479-1.147-2.683-2.555-2.683zm.647 5.392c0 .43-.287.784-.64.787l-.802.007-1.873 11.143-.013.156c0 .473-.331.872-.722.872h-15.6c-.392 0-.723-.4-.723-.872l-1.754-10.51h16.767a.394.394 0 0 0 .396-.393.394.394 0 0 0-.396-.393H11.94v-.003l-.802-.007c-.354-.004-.64-.357-.64-.787v-2.708c0-.426.295-.788.646-.788H33.55c.35 0 .646.362.646.788v2.708zM16.607 22.344c1.411-.325 2.813-.834 4.41-1.6.252-.12.511-.264.767-.408.18-.099.358-.199.532-.288a.944.944 0 0 0 .415-1.275.959.959 0 0 0-1.284-.412c-.195.1-.396.21-.597.323-.222.124-.446.25-.666.355-1.466.704-2.74 1.167-4.009 1.46-1.917.44-3.819.21-5.652-.683-2.36-1.151-4.265-2.878-5.949-4.703 1.646-.286 3.176-.792 4.671-1.285.923-.304 1.794-.592 2.689-.83 1.97-.526 3.906-.97 5.91-.677 1.218.179 2.24.606 3.126 1.308.858.68 1.618 1.53 2.385 2.413.546.629.976 1.302 1.247 1.948.326.78.336 1.533.348 2.485l.001.093c.019 1.434-.13 2.97-.44 4.566-.085.437-.205.872-.279 1.311-.067.403-.022 1.022.38 1.244.147.08.306.12.463.12.676 0 .905-.577 1.046-1.128.1-.392.183-.79.265-1.187.335-1.721.494-3.387.474-4.95l-.001-.092c-.013-1.064-.025-2.07-.494-3.187-.351-.84-.877-1.667-1.563-2.458-.83-.955-1.655-1.877-2.642-2.658-1.156-.915-2.476-1.472-4.035-1.7-2.367-.35-4.602.164-6.687.72-.949.254-1.887.563-2.795.863-2.014.665-3.915 1.292-6.04 1.407l-1.929.102L1.93 15c2.108 2.45 4.506 4.934 7.753 6.519 2.239 1.09 4.57 1.37 6.925.826zM37.61 2.535L37.156.746l-1.062 1.515c-.622.887-1.443 1.508-2.313 2.165-.272.205-.543.41-.809.623-1.284 1.031-2.433 1.973-3.495 3.045-1.236 1.25-1.797 2.808-1.575 4.39.12.862.378 1.686.626 2.483.089.286.178.57.26.857.104.36.243.692.377 1.015.083.199.166.397.237.597a.847.847 0 0 0 1.599-.554 12.75 12.75 0 0 0-.27-.686c-.122-.291-.237-.566-.313-.832-.085-.298-.178-.596-.27-.893-.24-.766-.465-1.49-.568-2.217-.189-1.35.497-2.365 1.106-2.98 1-1.008 2.11-1.917 3.353-2.916.251-.202.51-.397.768-.591.51-.385 1.028-.777 1.52-1.233.278 1.439.36 2.622.27 3.777-.136 1.76-.856 3.12-2.201 4.154-.692.534-1.486 1.02-2.498 1.535a.837.837 0 0 0-.368 1.132.85.85 0 0 0 1.14.366c1.108-.564 1.987-1.105 2.764-1.704 1.72-1.323 2.68-3.125 2.852-5.354.135-1.748-.068-3.513-.676-5.905z"/>
    </g>
</svg>
