<svg xmlns="http://www.w3.org/2000/svg" width="35" height="45" viewBox="0 0 35 45">
    <g fill="#666" fill-rule="nonzero">
        <path d="M34.773 7.16c0-.921-.614-1.74-1.432-2.149.409-.818.204-1.84-.41-2.556-.715-.614-1.636-.819-2.556-.41-.307-.92-1.125-1.534-2.045-1.534-.92 0-1.74.614-2.046 1.534-.818-.409-1.84-.204-2.557.41-.613.715-.818 1.636-.409 2.556-1.023.307-1.534 1.125-1.636 2.148 0 .307.102.614.204.92l-.511.103c-1.739.511-3.17 1.636-3.989 3.273-.818-1.637-2.25-2.762-3.988-3.273l-.512-.102c.103-.307.205-.614.205-.92 0-.921-.614-1.74-1.432-2.149.41-.818.205-1.84-.409-2.556-.818-.614-1.739-.819-2.66-.41C8.285 1.125 7.467.614 6.546.511c-.92 0-1.738.614-2.045 1.534-.92-.409-1.943-.204-2.557.41-.613.715-.818 1.636-.409 2.556C.614 5.318 0 6.136 0 7.16c0 .92.614 1.739 1.534 2.046-.409.818-.204 1.84.41 2.556.715.614 1.636.819 2.556.41.307.92 1.125 1.431 2.045 1.534.92 0 1.74-.614 2.046-1.535.818.41 1.84.205 2.557-.409.613-.716.818-1.636.409-2.556l1.432.409c1.943.511 3.272 2.147 3.58 4.09H10.84c-1.227 0-2.148 1.023-2.148 2.148 0 1.228 1.023 2.148 2.148 2.25h.716v2.66c0 1.124-.512 2.147-1.432 2.863-2.864 2.352-4.5 5.932-4.398 9.716.307 6.034 5.012 10.943 11.046 11.25h.511c4.91 0 9.307-3.17 10.943-7.875 1.739-4.91.205-10.125-3.682-13.193a3.392 3.392 0 0 1-1.33-2.66v-2.76h.717c1.227 0 2.148-1.023 2.148-2.25 0-1.228-1.023-2.148-2.148-2.148h-5.727c.306-1.944 1.738-3.58 3.58-4.091l1.43-.41c-.408.819-.204 1.841.41 2.557.716.614 1.636.819 2.557.41.307.92 1.125 1.534 2.045 1.534.92 0 1.739-.614 2.046-1.535.818.41 1.84.205 2.557-.409.613-.716.818-1.636.409-2.556.92-.307 1.534-1.125 1.534-2.046zm-23.625.613c-.205.102-.41.204-.716.204-.307 0-.512.205-.614.41-.102.306-.102.613.102.818.41.409.512 1.022.205 1.534-.511.306-1.125.204-1.432-.205-.204-.204-.511-.204-.716-.102-.204.102-.409.307-.409.613-.204.716-.613 1.228-1.023 1.228-.409 0-.818-.512-.92-1.228 0-.306-.205-.51-.41-.613-.204-.102-.51-.102-.715.102-.41.41-1.023.511-1.432.205-.409-.512-.307-1.125.102-1.534.205-.205.205-.512.103-.716-.103-.307-.41-.41-.614-.41-.716-.102-1.227-.51-1.227-.92 0-.409.511-.92 1.227-1.023.307 0 .511-.204.614-.409.102-.204.102-.511-.103-.716-.409-.409-.51-1.022-.204-1.534.409-.307 1.125-.204 1.432.205.204.204.511.204.716.102.204-.102.409-.307.409-.614.102-.715.511-1.227.92-1.227.41 0 .818.512.92 1.227 0 .307.205.512.41.614.409.102.613.102.818-.102.409-.41 1.023-.512 1.432-.205.307.512.204 1.125-.205 1.534a.874.874 0 0 0 0 .716c.102.307.307.41.614.41.613.102 1.227.51 1.227.92-.102.307-.307.613-.511.716zm12.784 7.363a.7.7 0 0 1 .716.716c0 .205-.103.41-.205.512a.781.781 0 0 1-.511.204H22.5a.7.7 0 0 0-.716.716v3.477c0 1.534.716 2.966 1.943 3.887 3.375 2.659 4.705 7.261 3.375 11.454a9.974 9.974 0 0 1-9.511 6.955c-4.296 0-8.182-2.762-9.614-6.852-1.432-4.091-.102-8.694 3.273-11.455 1.227-.92 1.943-2.455 1.943-3.989v-3.375a.7.7 0 0 0-.716-.716h-1.432a.7.7 0 0 1-.715-.715c0-.205.102-.41.204-.512a.781.781 0 0 1 .511-.204h12.887v-.103zm8.182-7.056c-.307 0-.512.204-.614.409-.102.204-.102.511.102.716.41.409.512 1.022.205 1.534-.512.306-1.125.204-1.432-.205-.205-.204-.511-.204-.716-.102-.204.102-.409.307-.409.613-.102.716-.511 1.228-.92 1.228-.41 0-.819-.512-.92-1.228 0-.306-.205-.51-.41-.613-.205-.102-.511-.102-.716.102-.409.41-1.023.511-1.432.205-.307-.512-.204-1.125.205-1.534.204-.205.204-.512.102-.716-.102-.205-.307-.41-.614-.41-.204 0-.51-.102-.715-.204-.307-.102-.41-.41-.512-.716 0-.409.512-.818 1.227-.92.307 0 .512-.205.614-.41.102-.204.102-.51-.102-.715-.41-.41-.512-1.023-.205-1.534.512-.307 1.125-.205 1.432.204.205.205.511.205.716.102.205-.102.41-.306.41-.613.101-.716.51-1.228.92-1.228.409 0 .818.512.92 1.228 0 .307.205.511.41.613.204.103.51.103.715-.102.41-.409 1.023-.511 1.432-.204.307.51.204 1.125-.205 1.534-.204.204-.204.511-.102.716.102.204.41.306.614.306.613.103 1.227.512 1.227.92 0 .41-.511.921-1.227 1.024z"/>
        <path d="M6.545 9a1.942 1.942 0 0 1-1.943-1.943c0-1.125.818-1.943 1.943-1.943 1.023 0 1.944.92 1.944 1.943C8.489 8.182 7.569 9 6.545 9zm0-2.864c-.51 0-1.022.41-1.022 1.023 0 .614.409 1.023 1.022 1.023.512 0 1.023-.41 1.023-1.023 0-.614-.511-1.023-1.023-1.023zM28.227 9a1.942 1.942 0 0 1-1.943-1.943c0-1.125.818-1.943 1.943-1.943 1.023 0 1.943.92 1.943 1.943C30.17 8.182 29.25 9 28.227 9zm0-2.864c-.511 0-1.022.41-1.022 1.023 0 .614.409 1.023 1.022 1.023.512 0 1.023-.41 1.023-1.023 0-.614-.511-1.023-1.023-1.023zM11.557 38.761c-.102 0-.205-.102-.307-.102-2.66-2.864-3.068-7.159-.92-10.534.102-.102.204-.205.409-.205.102 0 .204 0 .204.103.205.102.307.409.102.613a7.375 7.375 0 0 0-1.227 4.091c0 1.943.716 3.784 2.046 5.216.102.102.204.307.102.512 0 .204-.205.306-.307.306h-.102z"/>
    </g>
</svg>
