<svg xmlns="http://www.w3.org/2000/svg" width="52" height="52" viewBox="0 0 52 52">
    <g fill="#000" fill-rule="nonzero" stroke="#FFF" opacity=".5">
        <path stroke-width="1.5" d="M2.545 49.455c2.018 2.067 5.325 2.047 7.441 0l7.323-7.333 7.618-.61c.325-.03.64-.168.876-.404L47.91 19.002c4.115-4.114 4.115-10.797 0-14.911-4.439-4.046-10.964-4.193-14.911 0L10.892 26.207a1.396 1.396 0 0 0-.404.866l-.61 7.608-7.323 7.333a5.248 5.248 0 0 0-.01 7.44zm1.959-5.473l7.687-7.687c.236-.236.374-.541.403-.866l.61-7.608L34.958 6.069c2.972-3.032 7.972-2.992 10.984 0a7.77 7.77 0 0 1 0 10.984l-3.15 3.15-1.22-1.22a1.396 1.396 0 0 0-1.969 0 1.396 1.396 0 0 0 0 1.968l1.22 1.22-2.686 2.687-1.22-1.22a1.396 1.396 0 0 0-1.97 0 1.396 1.396 0 0 0 0 1.968l1.221 1.22-2.687 2.688-1.22-1.22a1.396 1.396 0 0 0-1.969 0 1.396 1.396 0 0 0 0 1.968l1.22 1.22-2.686 2.687-1.22-1.22a1.396 1.396 0 0 0-1.97 0 1.396 1.396 0 0 0 0 1.968l1.25 1.191-2.686 2.687-7.618.61c-.325.03-.64.168-.876.404l-7.687 7.687c-.935.935-2.579.935-3.514 0a2.495 2.495 0 0 1 0-3.514z"/>
        <path d="M21.787 32.181l19.676-19.675a1.396 1.396 0 0 0 0-1.969c-.6-.61-1.565-.482-1.969 0L19.82 30.213a1.396 1.396 0 0 0 0 1.968 1.396 1.396 0 0 0 1.968 0z"/>
    </g>
</svg>
