<svg xmlns="http://www.w3.org/2000/svg" width="45" height="45" viewBox="0 0 45 45">
    <path fill="#666" fill-rule="nonzero" d="M43.393 17.143a.845.845 0 0 0 .857-.857v-4.179a.845.845 0 0 0-.857-.857H40.07V1.607c-.107-.536-.428-.857-.964-.857H29.68a.845.845 0 0 0-.858.857c0 .536.429.857.858.857h8.571v2.357h-7.5c-3.321 0-6.107 2.786-6.107 6.108v.107H1.607a.845.845 0 0 0-.857.857v4.178c0 .536.429.858.857.858H4.93v10.607c0 .535.428.857.857.857h10.5a.845.845 0 0 0 .857-.857v-3.107l4.286 3.75L4.393 42.536H1.607a.845.845 0 0 0-.857.857c0 .536.429.857.857.857h8.357a.845.845 0 0 0 .857-.857.845.845 0 0 0-.857-.857H7.18l15.535-13.072 15.107 13.072h-2.785a.845.845 0 0 0-.857.857c0 .536.428.857.857.857h8.357a.845.845 0 0 0 .857-.857.845.845 0 0 0-.857-.857h-2.786l-16.5-14.25L37.5 17.143h5.893zm-.857-4.179v2.357H17.143v-2.357h25.393zm-16.072-1.821v-.107c0-2.357 1.929-4.393 4.393-4.393h7.5v4.5H26.464zm-3.75 15.964l-5.571-4.928v-5.036h17.571l-12 9.964zm-16.821.536V12.964H16.07v14.679H5.893zM2.464 15.32v-2.357h2.357v2.357H2.464z"/>
</svg>
