<svg xmlns="http://www.w3.org/2000/svg" width="51" height="50" viewBox="0 0 51 50">
    <g fill="#000" fill-rule="nonzero" opacity=".5">
        <path d="M23.485 30.403c.169-.18.313-.392.426-.633.277-.59.333-1.29.159-1.968-.23-.893-.823-1.603-1.562-1.923a3.075 3.075 0 0 0-.087-1.047c-.258-1.004-.992-1.779-1.853-2.026a2.958 2.958 0 0 0-.067-.335c-.31-1.202-1.275-2.04-2.339-2.097-.482-1.234-1.684-1.975-2.828-1.686-.63.16-1.14.597-1.437 1.23-.22.47-.301 1.01-.236 1.552-.423.22-.765.584-.987 1.058a2.927 2.927 0 0 0-.158 1.968c.046.18.107.353.182.52-.471.633-.633 1.52-.409 2.386.088.342.229.66.417.941-.511.632-.697 1.548-.462 2.459.26 1.012.984 1.765 1.825 2.017a2.926 2.926 0 0 0-.067 1.65c.273 1.043 1.14 1.892 2.574 2.523 3.013 1.325 3.826 3.593 3.98 4.127l.019.074.015.063.002.004.754 2.93a.621.621 0 0 0 1.205-.305l-.753-2.928-.02-.077c-.09-.408-.53-2.907 1.547-5.598.954-1.237 1.304-2.394 1.039-3.44a2.94 2.94 0 0 0-.88-1.439zm-1.148 4.125a9.305 9.305 0 0 0-1.486 2.751l-.817-3.174 1.221-2.043a.615.615 0 0 0-.217-.846.625.625 0 0 0-.853.217l-.587.98-.378-1.47 1.22-2.044a.614.614 0 0 0-.217-.845.624.624 0 0 0-.852.216l-.587.982-.412-1.6 1.221-2.043a.615.615 0 0 0-.217-.846.625.625 0 0 0-.853.217l-.587.98-.722-2.808a.622.622 0 0 0-1.205.305l.694 2.699-.849-.5a.624.624 0 0 0-.852.216.614.614 0 0 0 .218.846l1.92 1.13.41 1.599-.848-.5a.625.625 0 0 0-.853.217.615.615 0 0 0 .218.845l1.92 1.13.377 1.47-.849-.5a.625.625 0 0 0-.852.217.615.615 0 0 0 .217.846l1.92 1.13.823 3.2a9.213 9.213 0 0 0-2.545-1.639c-1.065-.469-1.695-1.039-1.871-1.695-.217-.804.319-1.542.322-1.546a.614.614 0 0 0-.497-.989.632.632 0 0 0-.154.02c-.576.145-1.232-.384-1.432-1.156-.167-.65.019-1.302.452-1.585a.616.616 0 0 0 .085-.964 1.763 1.763 0 0 1-.492-.851c-.153-.596-.006-1.207.367-1.521a.614.614 0 0 0 .115-.812 1.853 1.853 0 0 1-.255-.573 1.7 1.7 0 0 1 .082-1.142c.136-.291.355-.487.616-.553l.069-.013a.627.627 0 0 0 .485-.808l-.028-.095a1.701 1.701 0 0 1 .081-1.142c.136-.291.355-.487.617-.553.577-.144 1.232.383 1.43 1.154l.023.105a.615.615 0 0 0 .281.402c.145.09.324.118.49.075.576-.144 1.232.383 1.43 1.156.046.175.065.358.058.54a.613.613 0 0 0 .175.453.661.661 0 0 0 .45.188c.549-.012 1.064.504 1.238 1.18.087.34.08.682-.022.99a.612.612 0 0 0 .069.527c.102.157.27.26.457.278.509.053.98.537 1.145 1.176.103.403.074.808-.082 1.142-.136.291-.355.487-.616.553a.616.616 0 0 0 .087 1.212c.237.143.749.513.903 1.125.169.661-.106 1.465-.819 2.387z"/>
        <path d="M31.822.915a2.783 2.783 0 0 0-1.975-.812c-.746 0-1.447.288-1.975.812l-6.83 6.779c-2.783-1.87-5.296-3.19-7.517-3.934-4.167-1.393-5.803-.219-5.976-.08a.617.617 0 0 0-.044.922l8.419 8.171L1.25 27.336a2.762 2.762 0 0 0 0 3.92l17.792 17.658a2.783 2.783 0 0 0 1.975.812c.746 0 1.447-.288 1.976-.812l14-13.939 5.816 5.646c.62.602 1.437.933 2.304.933h.038c.88-.01 1.704-.36 2.319-.984a3.258 3.258 0 0 0-.052-4.626l-5.742-5.574 7.936-7.877c.527-.524.818-1.22.818-1.96s-.29-1.436-.818-1.96L31.823.915zM33.08 19.34l-2.623 2.661a.614.614 0 0 0 .01.873l2.326 2.258-1.151 1.169L9.077 4.4c2.075-.372 8.735.232 24.003 14.94zm-10.967 28.7c-.585.582-1.605.581-2.19 0L2.13 30.383a1.53 1.53 0 0 1 0-2.174l14.682-14.572 13.959 13.548-.448.455a.614.614 0 0 0 .01.872l5.77 5.601-13.99 13.928zm24.469-8.334a2.045 2.045 0 0 1-1.445.612 2.095 2.095 0 0 1-1.457-.58L31.65 28.06l2.869-2.912 12.031 11.678a2.03 2.03 0 0 1 .033 2.88zm2.152-18.087l-7.946 7.887-5.845-5.672a.625.625 0 0 0-.88.01l-.4.406-1.881-1.826 2.624-2.663a.612.612 0 0 0-.01-.873c-4.537-4.404-8.65-7.898-12.315-10.48l6.67-6.62c.586-.581 1.606-.581 2.192 0l17.79 17.657a1.53 1.53 0 0 1 0 2.174z"/>
        <path d="M34.423 9.01c-.804-.798-2.205-.798-3.008 0a2.088 2.088 0 0 0-.623 1.493c0 .564.221 1.093.623 1.493l7.034 6.981c.402.399.936.619 1.504.619s1.102-.22 1.504-.619c.402-.399.622-.928.622-1.492s-.22-1.094-.622-1.492L34.423 9.01zm6.155 9.094a.908.908 0 0 1-1.248 0l-7.036-6.981a.867.867 0 0 1-.259-.62c0-.234.092-.454.26-.62a.878.878 0 0 1 .623-.256.88.88 0 0 1 .624.256l7.036 6.983a.868.868 0 0 1 0 1.238z"/>
    </g>
</svg>
