<svg xmlns="http://www.w3.org/2000/svg" width="52" height="44" viewBox="0 0 52 44">
    <g fill="none" fill-rule="nonzero">
        <path fill="#666" d="M51.297 34.784H38.041V19.946c1.337-.365 2.31-1.703 2.31-3.04v-6.203h1.581c2.068 0 3.77-1.703 3.77-3.649V3.65C45.703 1.58 44 0 41.933 0H3.865C1.797 0 .095 1.703.095 3.649v3.405c0 2.068 1.702 3.649 3.77 3.649h.121v6.202c0 1.46.973 2.676 2.311 3.04v6.812C3.135 27.365.703 31.014.703 35.27c0 4.744 2.919 8.635 6.567 8.635 3.649 0 6.568-3.891 6.568-8.635 0-4.256-2.311-7.784-5.473-8.513v-6.933c1.338-.365 2.31-1.702 2.31-3.04V10.58h9.852v6.203c0 1.46.973 2.675 2.31 3.04v8.149h-.486c-2.919 0-5.351 2.432-5.351 5.351l1.095 10.338c0 .122.121.122.121.122h11.19c.121 0 .121-.122.121-.122l1.095-10.338c0-2.919-2.433-5.351-5.352-5.351h-.486v-8.027c1.338-.365 2.31-1.703 2.31-3.04v-6.203h6.568v6.202c0 1.46.973 2.676 2.311 3.04v15.447c0 4.135 3.527 7.419 7.662 7.419 4.257 0 7.662-3.406 7.662-7.54v-.244c.122-.122 0-.243 0-.243zm-22.5-1.581l-.973 8.635h-8.027l-.973-8.635c0-1.825 1.581-3.284 3.406-3.284h3.04c1.946 0 3.527 1.46 3.527 3.284zm6.933-16.298V6.932c0-.73.608-1.337 1.338-1.337.73 0 1.337.608 1.337 1.337v9.973c0 .487-.243.852-.608 1.095-.243.122-.486.243-.73.243-.243 0-.486-.121-.73-.243-.364-.243-.607-.73-.607-1.095zM33.662 6.811v1.824h-6.567V6.811a3.27 3.27 0 0 0-3.284-3.284 3.27 3.27 0 0 0-3.284 3.284v1.824h-9.973V6.811c0-1.216-.608-2.19-1.703-2.797-.486-.244-1.094-.487-1.702-.487-.608 0-1.095.122-1.703.487-.973.608-1.703 1.702-1.703 2.797v1.824h.122c-.973 0-1.824-.851-1.824-1.824V3.405c0-.973.85-1.824 1.824-1.824h38.067c.973 0 1.825.851 1.825 1.824v3.406c0 .973-.852 1.824-1.825 1.824h-1.58V6.811a3.27 3.27 0 0 0-3.284-3.284c-1.825.122-3.406 1.581-3.406 3.284zM7.27 18.243c-.243 0-.486-.121-.73-.243-.364-.243-.608-.608-.608-1.095V6.932c0-.486.244-.85.609-1.094.243-.122.486-.122.73-.122.243 0 .486 0 .607.122.365.243.608.608.608 1.094v9.973c0 .487-.243.852-.608 1.095a.929.929 0 0 1-.608.243zm-.73 10.581c.244 0 .487-.121.73-.121.244 0 .608 0 .852.121 2.189.608 3.77 3.284 3.77 6.568 0 3.649-2.068 6.69-4.5 6.69-2.554 0-4.5-3.041-4.5-6.69-.122-3.284 1.46-6.081 3.649-6.568zm17.27-23.23c.73 0 1.339.609 1.339 1.338v9.973a1.35 1.35 0 0 1-1.338 1.338 1.35 1.35 0 0 1-1.338-1.338V6.932c0-.85.608-1.337 1.338-1.337zm25.541 30.65c-.486 2.675-2.797 4.62-5.594 4.62-2.798 0-5.108-1.945-5.595-4.62h11.19z"/>
        <path fill="#000" d="M22.473 32.473H21.5c-.122 0-.122.122-.122.122v6.446c0 .121.122.121.122.121h.973c.122 0 .122-.121.122-.121v-6.446s0-.122-.122-.122zM25.027 32.716v6.446c0 .122.122.122.122.122h.973c.121 0 .121-.122.121-.122v-6.446c0-.121-.121-.121-.121-.121h-.973s-.122 0-.122.121z"/>
    </g>
</svg>
