<svg xmlns="http://www.w3.org/2000/svg" width="44" height="45" viewBox="0 0 44 45">
    <g fill="#666" fill-rule="nonzero">
        <path d="M36.606 33.32c-.383 0-.67-.288-.766-.575-1.34-4.883-5.266-8.522-10.149-9.479-.478-.096-.765-.479-.67-.957.096-.383.383-.67.766-.67h.192c5.457 1.052 9.957 5.17 11.393 10.627.096.479-.095.862-.574.957 0 .096-.096.096-.192.096z"/>
        <path d="M1.085 45c-.479 0-.766-.383-.766-.862v-4.787c0-.479.383-.862.766-.862h.383v-.766c0-10.532 7.66-19.34 17.904-20.68-.574-.67-.957-1.532-.957-2.394a3.534 3.534 0 0 1 3.542-3.543c1.915 0 3.543 1.628 3.543 3.543 0 .862-.287 1.723-.957 2.394 10.244 1.34 17.904 10.053 17.904 20.68v.766h.383c.479 0 .766.383.766.862v4.787c0 .479-.383.862-.766.862H1.085zm41.075-1.628v-3.16H1.947v3.16H42.16zm-1.15-4.787v-.766c0-10.532-8.52-19.149-18.957-19.149-10.436 0-18.957 8.617-18.957 19.15v.765H41.01zM22.054 12.734a1.92 1.92 0 0 0-1.915 1.915 1.92 1.92 0 0 0 1.915 1.915 1.92 1.92 0 0 0 1.915-1.915 1.92 1.92 0 0 0-1.915-1.915zM37.851 12.926c-.287 0-.574-.192-.67-.383l-.766-1.34c-.67-1.15-1.628-2.203-2.777-2.777l-1.244-.766c-.288-.096-.383-.383-.383-.67 0-.288.191-.575.383-.67l1.34-.767a7.719 7.719 0 0 0 2.777-2.776l.67-1.34c.096-.288.383-.384.67-.384.287 0 .575.192.67.383l.67 1.34c.67 1.15 1.628 2.203 2.777 2.777l1.34.766c.288.096.383.383.383.67 0 .288-.191.575-.382.67l-1.34.767a7.719 7.719 0 0 0-2.778 2.776l-.67 1.34c-.095.288-.383.384-.67.384zM34.5 6.989c1.436.766 2.585 2.011 3.447 3.447a8.534 8.534 0 0 1 3.447-3.447c-1.437-.766-2.585-2.01-3.447-3.446A9.901 9.901 0 0 1 34.5 6.989zM7.691 19.628c-.287 0-.574-.192-.67-.383l-.957-1.724c-.862-1.532-2.107-2.872-3.638-3.734L.702 12.83c-.287-.096-.383-.383-.383-.67 0-.288.192-.575.383-.67l1.724-.958a9.12 9.12 0 0 0 3.638-3.734l.957-1.724c.096-.287.383-.383.67-.383.288 0 .575.192.67.383l.958 1.724c.862 1.532 2.107 2.872 3.638 3.734l1.724.957c.287.096.383.383.383.67 0 .288-.192.575-.383.67l-1.724.958a9.12 9.12 0 0 0-3.638 3.734l-.957 1.724c-.096.191-.383.383-.67.383zm-4.5-7.277c1.82.958 3.256 2.49 4.309 4.309l.191.383.192-.383a10.384 10.384 0 0 1 4.308-4.309l.383-.191-.383-.192A11.628 11.628 0 0 1 7.883 7.66l-.192-.48-.191.384a10.384 10.384 0 0 1-4.309 4.308l-.382.192.382.287zM19.085 6.702c-.479 0-.766-.383-.766-.862V4.596h-1.245c-.478 0-.765-.383-.765-.862s.382-.862.765-.862h1.245V1.628c0-.48.383-.862.766-.862s.766.383.766.862v1.244h1.245c.478 0 .766.383.766.862s-.383.862-.766.862H19.85V5.84c.096.48-.287.862-.766.862zM30.862 15.702c-.479 0-.766-.383-.766-.862v-1.244h-1.34c-.48 0-.767-.383-.767-.862s.383-.862.766-.862H30v-1.244c0-.48.383-.862.766-.862s.766.383.766.862v1.244h1.245c.478 0 .766.383.766.862s-.383.862-.766.862h-1.15v1.244c0 .48-.382.862-.765.862z"/>
    </g>
</svg>
