<svg xmlns="http://www.w3.org/2000/svg" width="23" height="45" viewBox="0 0 23 45">
    <g fill="#666" fill-rule="nonzero">
        <path d="M16.773 14.932v-3.989A1.942 1.942 0 0 0 14.83 9h-.819V5.42h1.944c.102 0 1.33.103 1.636 1.841.204 1.125 1.125 1.841 2.25 1.841h.409c1.227-.204 2.045-1.432 1.84-2.659-.817-4.398-4.295-5.625-6.135-5.625H5.83a2.27 2.27 0 0 0-2.25 2.25 2.27 2.27 0 0 0 2.25 2.25h2.352v3.58h-.818A1.942 1.942 0 0 0 5.42 10.84v3.989C2.352 15.955.307 19.023.307 22.398v19.227a2.532 2.532 0 0 0 2.557 2.557h16.568a2.532 2.532 0 0 0 2.557-2.557V22.5c0-3.375-2.046-6.443-5.216-7.568zM12.58 5.42V9H9.716V5.42h2.864zM5.932 2.25h10.125c1.33 0 3.988.92 4.602 4.398.102.409-.204.818-.614.92h-.102c-.409 0-.716-.307-.818-.613-.614-3.069-2.966-3.069-3.068-3.069H5.932c-.41 0-.818-.409-.818-.818s.409-.818.818-.818zm9.409 12.273c-.41-.103-.818-.103-1.125-.103H8.182c-.41 0-.818 0-1.227.103v-3.58a.44.44 0 0 1 .409-.409h7.466a.44.44 0 0 1 .409.41v3.579h.102zm4.09 28.227H2.865a1.025 1.025 0 0 1-1.023-1.023V22.5c0-3.58 2.864-6.545 6.34-6.545h6.035c3.477 0 6.34 2.965 6.34 6.545v19.227c-.101.512-.51 1.023-1.124 1.023z"/>
        <path d="M16.057 20.352H6.239a.7.7 0 0 0-.716.716v16.568a.7.7 0 0 0 .716.716h9.818a.7.7 0 0 0 .716-.716V21.068a.7.7 0 0 0-.716-.716zM6.239 37.74v-16.67h9.818v16.67H6.239z"/>
    </g>
</svg>
