<svg xmlns="http://www.w3.org/2000/svg" width="44" height="50" viewBox="0 0 44 50">
    <g fill="#000" fill-rule="nonzero" opacity=".5">
        <path d="M22.497 47.251V15.433c0-2.459-1.318-4.818-3.617-6.471a21.256 21.256 0 0 0-1.547-.998c-1.191-.717-1.726-1.055-1.797-2.237a1.428 1.428 0 0 0 1.282-1.422V1.452A1.43 1.43 0 0 0 15.397.017H7.362a1.43 1.43 0 0 0-1.421 1.435v2.853A1.43 1.43 0 0 0 7.362 5.74h.07c-.083 1.127-.59 1.429-1.774 2.105-.467.268-.995.57-1.598.985-2.414 1.663-3.798 4.07-3.798 6.602V47.25c0 1.185 1.158 2.148 2.583 2.148h17.07c1.423 0 2.582-.963 2.582-2.148zM7.163 4.305V1.452a.2.2 0 0 1 .2-.2h8.033c.11 0 .2.09.2.2v2.853a.2.2 0 0 1-.2.201H7.362a.2.2 0 0 1-.2-.201zM1.483 47.25V15.433c0-2.119 1.19-4.153 3.265-5.582a20.223 20.223 0 0 1 1.512-.93c1.319-.755 2.292-1.313 2.401-3.18h5.657c.097 1.882 1.11 2.513 2.39 3.282.434.262.926.558 1.463.944 2.002 1.44 3.105 3.381 3.105 5.465v31.819c0 .495-.624.913-1.362.913H2.844c-.737 0-1.36-.418-1.36-.913zM43.077.016H24.706a.606.606 0 0 0-.432.18.621.621 0 0 0-.18.437l.003 3.753 3.053 38.897v5.498c0 .342.274.618.612.618h12.247c.337 0 .61-.276.612-.616l.011-5.5 3.056-38.946V.633a.618.618 0 0 0-.61-.617zm-3.62 42.624h-11.13L25.362 4.916h17.055L39.457 42.64zm3.01-41.39v2.431h-17.15v-2.43h17.15zM31.968 48.165a1.99 1.99 0 0 1 1.923-1.528c.93 0 1.708.654 1.922 1.528H31.97zm5.083 0c-.231-1.558-1.553-2.762-3.16-2.762-1.608 0-2.93 1.203-3.161 2.762h-2.358v-4.29h11.036l-.01 4.29h-2.347z"/>
    </g>
</svg>
