<svg xmlns="http://www.w3.org/2000/svg" width="39" height="45" viewBox="0 0 39 45">
    <path fill="#666" fill-rule="nonzero" d="M37.947 15.606c.191-.095.383-.383.383-.67v-.479c0-1.34-.958-2.393-2.298-2.585V1.053a.731.731 0 0 0-.192-.479.731.731 0 0 0-.478-.191h-7.277a.755.755 0 0 0-.766.766v10.82h-1.053V7.946c0-.958-.766-1.82-1.82-1.82H14.395c-.958 0-1.82.767-1.82 1.82v4.021H3.096a2.676 2.676 0 0 0-2.681 2.68v.48c0 .287.096.478.383.67l16.085 9.479v1.053l-15.32-9h-.095c-.096-.096-.191-.096-.287-.096-.383 0-.766.383-.766.766v17.904a2.676 2.676 0 0 0 2.68 2.681h25.373l2.968 5.458c0 .095.096.095.096.095s.096 0 .096-.095l2.968-5.458h.957a2.676 2.676 0 0 0 2.681-2.68V17.137a.755.755 0 0 0-.766-.766c-.096 0-.287 0-.383.096l-1.053.766v-.479l1.915-1.149zm-15.51-7.372h-6.128c-.862 0-1.437.575-1.437 1.436v2.298h-.861V7.947c0-.192.095-.287.287-.287h9.957c.192 0 .288.095.288.287v4.021h-.862V9.574c.191-.765-.479-1.34-1.245-1.34zM22.34 9.67v2.202h-5.936V9.67h5.936zm14.458 4.787l-.862.48v-1.533c.575.096.862.575.862 1.053zm-1.15 22.309h-.19l.478-.957V18.957l.862-.478v17.138c0 .574-.479 1.149-1.15 1.149zM34.5 5.84v29.49h-2.202V5.84H34.5zm-2.872 34.947l-2.49-4.691h5.075l-2.585 4.691zM30.862 5.84v29.49H28.66V5.84h2.202zM34.5 1.82v3.35h-5.84V1.82h5.84zm-7.277 20.106v1.053l-5.361 3.16v-1.054l5.361-3.16zm-6.797 6.127h-2.011v-4.979l2.01-.095v5.074zm6.797-6.798l-5.361 3.16v-1.34c0-.766-.67-1.437-1.436-1.437h-2.107c-.766 0-1.436.67-1.436 1.436v1.34L1.947 15.607v-1.149c0-.67.479-1.148 1.149-1.148h24.127v7.946zm-25.276-3.35l14.936 8.808v1.436c0 .766.67 1.436 1.436 1.436h2.107c.765 0 1.436-.67 1.436-1.436v-1.436l5.361-3.16v12.351l.48.862H3.095c-.67 0-1.15-.479-1.15-1.149V17.904z"/>
</svg>
