<svg xmlns="http://www.w3.org/2000/svg" width="50" height="50" viewBox="0 0 50 50">
    <path fill="#000" fill-rule="nonzero" d="M42.87 37.73l-.52-.518L32.279 27.14 50 9.417 40.584 0 22.862 17.723l-8.898-8.897-.023-.002L3.92 3.92 8.819 13.93c-.002.007-.002.015-.005.022l8.91 8.909L0 40.584 9.417 50l17.722-17.722L37.212 42.35l.519.519 2.476 2.476c1.147 1.147 3.232.926 4.65-.49 1.416-1.416 1.636-3.502.489-4.649l-2.476-2.476zM40.584 1.983l7.433 7.433-1.295 1.296-2.863-2.863-.495.496 2.863 2.863-1.374 1.373-1.343-1.343-.495.496 1.342 1.343-1.374 1.373-1.342-1.342-.496.496 1.343 1.342-1.374 1.374-1.342-1.343-.496.496 1.342 1.342-1.373 1.374-1.343-1.342-.496.495 1.343 1.343-1.373 1.373-2.863-2.862-.496.495 2.863 2.862-1.374 1.374-1.342-1.342-.495.495 1.342 1.343-1.374 1.374-1.343-1.343-.495.496 1.343 1.342-1.374 1.374-1.343-1.343-.482.482-6.09-6.09L40.584 1.982zM7.857 8.805l.063.064.97-.97 2.593 1.267-2.316 2.316-1.31-2.677zm16.434 24.337L22.95 31.8l-.496.495 1.343 1.342-1.374 1.375-1.343-1.343-.495.496 1.342 1.342-1.373 1.374-1.343-1.343-.495.495 1.342 1.343-1.374 1.374-2.863-2.862-.495.495 2.863 2.862-1.374 1.374-1.342-1.342-.496.496 1.343 1.342-1.374 1.373-1.342-1.342-.496.496 1.342 1.342-1.373 1.374-1.343-1.343-.496.496 1.343 1.343-1.373 1.373-1.343-1.342-.496.495 1.343 1.343-1.295 1.295-7.434-7.435 16.731-16.731 6.091 6.091-.482.482 1.343 1.343-1.374 1.374zm13.44 7.77L9.814 12.996l3.18-3.181L40.913 37.73l-3.182 3.182zm6.147 2.966c-.862.861-2.095 1.086-2.693.49L38.71 41.89l3.182-3.181 2.476 2.475c.597.598.373 1.83-.489 2.693z" opacity=".5"/>
</svg>
