<svg xmlns="http://www.w3.org/2000/svg" width="53" height="50" viewBox="0 0 53 50">
    <g fill="#666" fill-rule="nonzero" stroke="#666" stroke-width=".2">
        <path d="M4.485 37.295c.163 0 .57-.082 7.746-.738.978-.082 1.794-.655 2.283-1.393l1.794-2.787c.163-.246.407-.41.652-.41h18.59c.164 0 .245 0 .408.082l3.751 2.131c1.06.656 2.61.492 3.588-.41l7.257-6.885c1.223-1.147 1.304-3.196 0-4.426-1.223-1.148-3.099-1.066-4.322.082l-5.463 5.164a116.895 116.895 0 0 1-5.789-3.279c-1.386-.82-2.202-1.311-3.017-1.557.49-.656.815-1.394.815-2.295 0-2.05-1.712-3.77-3.75-3.77h-9.703c-2.039 0-3.751 1.72-3.751 3.77 0 .901.326 1.64.815 2.295-1.304.328-2.364 1.23-2.935 2.459l-3.262 5.246-6.034.574a3.052 3.052 0 0 0-2.772 3.36 3.107 3.107 0 0 0 3.099 2.787zm14.84-18.852h9.703c1.141 0 2.12.983 2.12 2.13 0 1.148-.979 2.132-2.12 2.132h-9.703c-1.142 0-2.12-.984-2.12-2.131 0-1.148.978-2.131 2.12-2.131zM4.322 32.787l6.36-.656c.244 0 .489-.164.652-.41l3.506-5.655s0-.082.082-.082c.489-1.066 1.549-1.722 2.609-1.722h13.372c.897 0 1.305.246 3.262 1.394 1.304.82 3.261 1.967 6.36 3.606.326.164.652.082.978-.164l6.034-5.655c.57-.574 1.55-.574 2.038-.082.571.573.571 1.557 0 2.049l-7.338 6.885c-.408.41-1.142.492-1.712.164C36.937 30.574 36.61 30 35.55 30H16.96c-.815 0-1.63.41-2.038 1.148l-1.794 2.786c-.245.41-.653.656-1.06.656-6.523.656-7.502.738-7.583.738-.734 0-1.387-.574-1.387-1.312-.163-.491.49-1.147 1.224-1.23z"/>
        <path d="M7.012 27.295c2.691 0 4.893-2.213 4.893-4.918s-2.202-4.918-4.893-4.918c-2.69 0-4.892 2.213-4.892 4.918s2.202 4.918 4.892 4.918zm0-8.197c1.794 0 3.262 1.476 3.262 3.279s-1.468 3.279-3.262 3.279-3.261-1.476-3.261-3.279 1.467-3.279 3.261-3.279zM51.206 39.262a6.276 6.276 0 0 1-8.888 0 .883.883 0 0 0-1.223 0 6.276 6.276 0 0 1-8.887 0 .883.883 0 0 0-1.223 0 6.276 6.276 0 0 1-8.888 0c-.245-.246-.897-.328-1.223 0a6.276 6.276 0 0 1-8.888 0c-.244-.246-.897-.328-1.223 0a6.276 6.276 0 0 1-8.888 0 .785.785 0 0 0-1.141 0 .795.795 0 0 0 0 1.148c2.935 2.95 7.583 3.115 10.681.492a7.85 7.85 0 0 0 10.111 0 7.85 7.85 0 0 0 10.11 0 7.85 7.85 0 0 0 10.112 0c3.098 2.623 7.746 2.459 10.681-.492a.795.795 0 0 0 0-1.148.883.883 0 0 0-1.223 0zM41.095 45.82a6.276 6.276 0 0 1-8.887 0 .883.883 0 0 0-1.223 0 6.276 6.276 0 0 1-8.888 0 .883.883 0 0 0-1.223 0 6.276 6.276 0 0 1-8.888 0c-.49-.492-1.468-.246-1.468.573 0 .328.245.656.571.738 2.936 2.705 7.42 2.869 10.437.328a7.85 7.85 0 0 0 10.11 0 7.82 7.82 0 0 0 10.438-.328.787.787 0 0 0 .57-.738c-.08-.82-1.06-1.065-1.549-.573zM47.374 9.754c1.794 0 3.261-1.475 3.261-3.279 0-1.803-1.467-3.278-3.261-3.278s-3.262 1.475-3.262 3.278c0 1.804 1.468 3.28 3.262 3.28zm0-4.918a1.64 1.64 0 0 1 0 3.279 1.64 1.64 0 0 1 0-3.279zM40.035 20.738c1.794 0 3.262-1.476 3.262-3.279s-1.468-3.279-3.262-3.279c-1.793 0-3.261 1.476-3.261 3.279s1.468 3.279 3.261 3.279zm0-4.918a1.64 1.64 0 0 1 0 3.278 1.64 1.64 0 0 1 0-3.278zM9.458 7.213c1.794 0 3.262-1.475 3.262-3.279 0-1.803-1.468-3.278-3.262-3.278-1.793 0-3.261 1.475-3.261 3.278 0 1.804 1.468 3.28 3.261 3.28zm0-4.918a1.64 1.64 0 0 1 0 3.279 1.64 1.64 0 0 1 0-3.279z"/>
    </g>
</svg>
