<svg xmlns="http://www.w3.org/2000/svg" width="45" height="46" viewBox="0 0 45 46">
    <path fill="#666" fill-rule="nonzero" d="M44.884 20.479C42.176-.556 14.477-6.491 3.23 11.627 1.565 14.335.524 17.355.003 20.48v.104c-.416 6.456.73 12.079 5.103 17.285 2.29 2.708 5.102 4.895 8.33 6.144 8.851 3.853 19.368 1.562 25.929-5.935.52-.521 6.664-6.04 5.519-17.598zm-3.853-6.352c.729 1.457 1.353 3.123 1.666 4.79l-2.603-1.875.937-2.915zm-1.354-2.187l-1.562 4.894-5.727 1.874-1.041.417-7.706-6.04V5.796l3.228-2.603c5.31 1.041 9.892 4.27 12.808 8.747zm-12.6 17.598H17.81l-2.916-8.955 7.914-5.728 7.289 5.624-3.02 9.059zm-15.724 8.747l1.042 3.228a15.948 15.948 0 0 1-4.165-3.228h3.123zm-6.56-21.139l-2.395 1.77c.417-1.561.833-3.123 1.562-4.477l.833 2.707zM24.37 2.776L22.6 4.234 20.62 2.776c1.25-.104 2.291-.104 3.749 0zm-6.352.417l3.853 2.811v7.185l-8.123 6.04-6.976-2.29-1.562-4.687c2.811-4.686 7.497-7.914 12.808-9.06zM1.878 21.52l4.06-2.916 7.082 2.291 3.02 9.372-4.478 6.144H6.25c-3.124-4.166-4.894-9.372-4.373-14.891zm12.808 21.034l-1.562-4.998 4.477-6.144h9.789l4.477 6.144-1.562 4.998c-5.206 1.979-10.725 1.979-15.62 0zm17.806-1.041l1.041-3.228h3.333c-1.25 1.25-2.812 2.29-4.374 3.228zm6.144-5.207H33.22l-4.374-6.04 3.124-9.475 1.666-.52 5.415-1.771 4.061 3.02c.521 5.31-1.25 10.725-4.477 14.786z"/>
</svg>
