<svg xmlns="http://www.w3.org/2000/svg" width="46" height="50" viewBox="0 0 46 50">
    <g fill="#000" fill-rule="nonzero" opacity=".5">
        <path d="M14.785.61H6.433a.607.607 0 0 0-.606.609c0 .337.272.61.606.61h.381v1.98l-3.35.03a1.887 1.887 0 0 0-1.343.573c-.356.366-.55.85-.546 1.361l.02 2.11A1.921 1.921 0 0 0 2.6 9.56c.26.14.552.211.848.219v1.736h-.84C1.17 11.514 0 12.693 0 14.141v33.047c0 1.45 1.17 2.628 2.607 2.628h14.996c1.438 0 2.608-1.179 2.608-2.628v-29.24a4.315 4.315 0 0 0 3.74-4.283V9.842c0-5.09-4.112-9.233-9.166-9.233zm-6.76 1.219h4.16V3.76l-4.16.037v-1.97zm-5.22 6.044l-.019-2.11a.692.692 0 0 1 .2-.495.685.685 0 0 1 .488-.21l13.233-.117h.006a.694.694 0 0 1 .692.692l.02 2.11a.697.697 0 0 1-.688.705l-13.232.118c-.115-.015-.23-.026-.333-.082a.7.7 0 0 1-.367-.61zm1.853 1.902l10.895-.097v1.837H4.658v-1.74zm-2.05 2.96h14.995c.77 0 1.397.63 1.397 1.406v5.656H1.21v-5.656c0-.776.628-1.407 1.397-1.407zM1.21 21.015H19v18.922H1.21V21.016zm16.392 27.58H2.607c-.77 0-1.396-.63-1.396-1.408v-6.03H19v6.03c0 .777-.627 1.408-1.398 1.408zm5.137-34.931a3.097 3.097 0 0 1-2.53 3.047V14.14c0-1.448-1.169-2.627-2.607-2.627h-.84V9.665a1.913 1.913 0 0 0 1.872-1.933l-.019-2.11a1.91 1.91 0 0 0-.57-1.352c-.363-.359-.853-.571-1.35-.55l-3.3.03V1.828h1.389c4.386 0 7.955 3.595 7.955 8.014v3.823zM29.502 38.43c-1.917 0-3.476 1.571-3.476 3.502 0 1.75 1.282 3.2 2.949 3.457v4.001c0 .337.27.61.605.61h12.834a.607.607 0 0 0 .606-.61V45.39a3.496 3.496 0 0 0 2.948-3.457c0-1.93-1.56-3.502-3.476-3.502h-3.274V12.788h3.274c1.917 0 3.476-1.57 3.476-3.501 0-1.75-1.282-3.2-2.948-3.458v-4a.607.607 0 0 0-.606-.61H29.58a.607.607 0 0 0-.605.61v4a3.496 3.496 0 0 0-2.949 3.458c0 1.93 1.56 3.5 3.476 3.5h3.274V38.43h-3.274zm.683 10.35v-3.346H41.81v3.346H30.185zm14.572-6.848a2.276 2.276 0 0 1-2.264 2.282H29.502a2.276 2.276 0 0 1-2.265-2.282 2.276 2.276 0 0 1 2.265-2.282h12.99a2.276 2.276 0 0 1 2.265 2.282zM41.81 2.438v3.346H30.185V2.438H41.81zM27.237 9.287a2.276 2.276 0 0 1 2.265-2.283h12.99a2.276 2.276 0 0 1 2.265 2.283 2.276 2.276 0 0 1-2.265 2.281h-12.99a2.276 2.276 0 0 1-2.265-2.281zm6.75 3.5h4.021V38.43h-4.021V12.788z"/>
    </g>
</svg>
