<svg xmlns="http://www.w3.org/2000/svg" width="55" height="44" viewBox="0 0 55 44">
    <path fill="#666" fill-rule="nonzero" d="M51.586 7.2h-1.672V2.829C49.914 1.286 48.63 0 47.086 0h-3.6c-1.543 0-2.829 1.286-2.829 2.829v7.2H38.73l-.129-.386c-1.029-2.443-3.214-4.114-6.043-4.114-.386-1.158-1.414-1.8-2.571-1.8-.643 0-1.286.257-1.8.642-.515-.385-1.157-.642-1.8-.642s-1.286.257-1.8.642c-.515-.385-1.157-.642-1.8-.642s-1.286.257-1.8.642c-.515-.385-1.157-.642-1.8-.642-1.543 0-2.829 1.285-2.829 2.828v3.472h-2.443v-7.2C13.914 1.286 12.63 0 11.086 0h-3.6C5.943 0 4.657 1.286 4.657 2.829V7.2H2.986C1.443 7.2.157 8.486.157 10.029v9.128c0 1.543 1.286 2.829 2.829 2.829h1.671v4.371c0 1.543 1.286 2.829 2.829 2.829h3.6c1.543 0 2.828-1.286 2.828-2.829v-7.071h1.8l.643 2.185c0 .129.129.258.129.386l2.314 3.086-1.414 16.2c-.129.643.128 1.414.643 1.928.514.515 1.157.772 1.8.772h12.214c.643 0 1.414-.257 1.8-.772.514-.514.643-1.157.643-1.928L32.943 25.2c0-.129 0-.257.128-.257l4.886-4.243c.386-.386.772-.771.9-1.414h1.8v7.2c0 1.543 1.286 2.828 2.829 2.828h3.6c1.543 0 2.828-1.285 2.828-2.828v-4.372h1.672c1.543 0 2.828-1.285 2.828-2.828v-9.129c0-1.671-1.285-2.957-2.828-2.957zm-46.8 12.857h-1.8a.879.879 0 0 1-.9-.9V10.03c0-.515.385-.9.9-.9h1.8v10.928zm7.2-9.128V26.486c0 .514-.386.9-.9.9h-3.6a.879.879 0 0 1-.9-.9V2.957c0-.514.385-.9.9-.9h3.6c.514 0 .9.386.9.9v7.972zm17.1-4.5c0-.515.385-.9.9-.9.514 0 .9.385.9.9V11.7c0 .386-.129.643-.386.9h-.129-.128-.386-.128c-.129 0-.129-.129-.258-.129 0 0-.128 0-.128-.128 0 0-.129-.129-.129-.257v-.129c0-.128-.128-.257-.128-.386V6.43zm-3.6 0c0-.515.385-.9.9-.9.514 0 .9.385.9.9v5.4c0 .514-.386.9-.9.9a.879.879 0 0 1-.9-.9v-5.4zm-3.6 0c0-.515.385-.9.9-.9.514 0 .9.385.9.9v5.4c0 .514-.386.9-.9.9a.879.879 0 0 1-.9-.9v-5.4zm-3.6 4.5v-4.5c0-.515.385-.9.9-.9.514 0 .9.385.9.9v5.4c0 .128 0 .257-.129.385v.129c0 .128-.128.128-.128.257 0 0-.129 0-.129.129-.129 0-.129.128-.257.128h-.386-.128-.129-.129c-.257-.128-.385-.514-.385-.9V10.93zm-4.5 6.428v-5.4h2.7c0 1.029.514 1.929 1.285 2.314 0 0 .129 0 .129.129.129 0 .129.129.257.129.129 0 .257.128.257.128h1.157c.129 0 .129 0 .258-.128.128 0 .257-.129.257-.129.128 0 .128-.129.257-.129.128 0 .128-.128.257-.128 0 0 .129 0 .129-.129l.128.129.129.128c.128 0 .128.129.257.129l.128.129c.129 0 .258.128.386.128h1.286c.128 0 .257 0 .386-.128 0 0 .128 0 .128-.129.129 0 .129-.129.257-.129l.129-.128.128-.129.129.129.129.128c.128 0 .128.129.257.129l.128.129c.129 0 .257.128.386.128h1.286c.128 0 .257 0 .385-.128 0 0 .129 0 .129-.129.129 0 .129-.129.257-.129l.129-.128.128-.129s.129 0 .129.129c.9-.129 1.028 0 1.028 0 .129 0 .129.128.258.128.128 0 .257.129.257.129.128 0 .128 0 .257.129h1.286c.128 0 .257 0 .385-.129 0 0 .129 0 .129-.129l.128-.128c.643-.386 1.158-1.029 1.286-1.8 0 .128.129.257.129.386v3.214L31.4 17.229H13.786v.128zm23.4.643c0 .386-.129.771-.515 1.029l-4.885 4.242c-.515.515-.9 1.286-.772 2.058l1.543 15.942c0 .258-.128.386-.128.386s-.129.129-.386.129H19.829c-.258 0-.258-.129-.386-.129 0 0-.129-.257-.129-.386l1.543-16.714c0-.257 0-.514-.128-.643l-2.572-3.343-.514-1.542H31.4c.514 0 .9-.258 1.286-.515l1.285-1.285c.386-.386.515-.772.515-1.286v-3.214c0-1.158-.772-2.186-1.8-2.572V7.2c1.8 0 3.471 1.157 4.114 2.829l.386.9V18zm3.6-.643h-1.8v-5.4h1.8v5.4zm7.2-9.128v18.128c0 .514-.386.9-.9.9h-3.6a.879.879 0 0 1-.9-.9V2.571c0-.514.385-.9.9-.9h3.6c.514 0 .9.386.9.9V8.23zm4.5 10.928c0 .514-.386.9-.9.9h-1.8V9.13h1.8c.514 0 .9.385.9.9v9.128z"/>
</svg>
