<svg xmlns="http://www.w3.org/2000/svg" width="31" height="50" viewBox="0 0 31 50">
    <g fill="#000" fill-rule="nonzero" opacity=".5">
        <path d="M15.461 0C8.711 0 0 12.06 0 24.871c0 13.482 7.08 24.872 15.461 24.872s15.461-11.39 15.461-24.872c0-5.928-1.884-12.21-5.169-17.233C22.625 2.856 18.777 0 15.461 0zm9.81 9.168H5.69a26.341 26.341 0 0 1 2.236-3.13h15.136c.578.698 1.14 1.461 1.678 2.284.182.277.358.56.531.846zm-9.81-7.933c1.987 0 4.307 1.308 6.496 3.568H9.04c2.197-2.252 4.506-3.568 6.421-3.568zm7.784 43.179H7.7c-.007 0-.013.003-.019.003a20.624 20.624 0 0 1-2.262-3.133h20.084a20.718 20.718 0 0 1-2.258 3.13zM8.892 45.648H22.03c-1.99 1.813-4.235 2.86-6.569 2.86-2.333 0-4.577-1.048-6.568-2.86zm17.296-5.6H4.734c-2.17-4.172-3.518-9.516-3.518-15.177 0-5.399 1.555-10.439 3.762-14.469h20.934c.02 0 .037-.01.056-.011 2.392 4.42 3.738 9.576 3.738 14.48 0 5.661-1.348 11.006-3.518 15.178z"/>
        <path d="M18.905 17.66a.612.612 0 0 0 .607-.618.612.612 0 0 0-.607-.617h-2.836v-3.092a.612.612 0 0 0-.608-.618.612.612 0 0 0-.608.618v3.092h-2.835a.612.612 0 0 0-.608.617c0 .341.272.617.608.617h2.835v2.68h-2.835a.612.612 0 0 0-.608.618c0 .341.272.617.608.617h2.835v2.68h-2.835a.612.612 0 0 0-.608.618c0 .341.272.617.608.617h2.835v2.68h-2.835a.612.612 0 0 0-.608.617c0 .342.272.618.608.618h2.835v2.68h-2.835a.612.612 0 0 0-.608.618c0 .341.272.617.608.617h2.835v3.092c0 .341.272.617.608.617a.612.612 0 0 0 .608-.617V33.32h2.836a.612.612 0 0 0 .607-.617.612.612 0 0 0-.607-.617h-2.836v-2.681h2.836a.612.612 0 0 0 .607-.618.612.612 0 0 0-.607-.617h-2.836v-2.68h2.836a.612.612 0 0 0 .607-.617.612.612 0 0 0-.607-.618h-2.836v-2.68h2.836a.612.612 0 0 0 .607-.617.612.612 0 0 0-.607-.617h-2.836v-2.68h2.836z"/>
    </g>
</svg>
