<svg xmlns="http://www.w3.org/2000/svg" width="47" height="45" viewBox="0 0 47 45">
    <g fill="#666" fill-rule="nonzero">
        <path d="M22.969 18.188A13.212 13.212 0 0 0 24 13.875c.094-1.5.188-3.844-1.219-5.156-.375-.375-.937-.656-1.5-.75.188-.563.188-1.125.188-1.5V6.28a5.953 5.953 0 0 0-.938-3.187C19.5 1.406 17.906.563 15.656.469h-.281c-2.438 0-5.156.469-8.25 1.406h-.094C.656 3.094.656 9.656.656 9.75c.656 9.469 5.532 13.5 6.188 13.969v.093l1.218 8.813c.094.656.657 1.219 1.313 1.219h.188l10.968-1.5c.75-.094 1.313-.75 1.125-1.5l-1.218-8.813c0-.093 0-.187-.094-.281a9.41 9.41 0 0 0 1.781-2.063l.844-1.5zm-2.532 12.937c0 .094 0 .188-.093.188L9.375 32.718a.202.202 0 0 1-.188-.188L7.97 23.72v-.094l.093-.094 10.97-1.5c.093 0 .187.094.187.094l1.218 9zm2.063-17.25c-.094 2.344-1.219 5.438-3.469 7.031h-.187l-10.969 1.5c-.188 0-.281.094-.469.094-.843-.656-4.875-4.5-5.531-12.75 0-.188.094-5.438 5.25-6.469h.187c3.094-.937 5.625-1.312 7.97-1.312h.28c1.688 0 2.813.656 3.563 1.875.469.75.75 1.594.75 2.437v.282c0 .375 0 1.125-.188 1.312l-.093.094h-1.125c-1.594.093-3.094.187-4.5.468-.75.188-1.969.376-2.438 1.313-.375.656-.375 1.5-.094 2.438-1.03.187-1.968.28-2.718.28-1.594 0-2.063-.468-2.156-.562-.094-.281-.375-.562-.75-.562h-.188c-.188 0-.375.187-.469.281-.093.188-.187.375-.093.563 0 .187.187.656.843 1.124.657.376 1.594.657 2.719.657.938 0 2.063-.188 3.469-.469.281.375.562.656.844.844.468.281 1.03.469 1.5.469.937 0 1.687-.47 2.25-.844.562-.375 1.03-.656 1.593-.656.188 0 .375-.094.563-.188.093-.188.187-.375.187-.563 0-.374-.375-.75-.75-.75-.937 0-1.687.47-2.343.938-.563.375-1.032.656-1.5.656-.282 0-.47-.094-.75-.281-.657-.375-1.313-1.969-.938-2.625.188-.375.938-.469 1.5-.563a44.466 44.466 0 0 1 4.219-.468h1.5c.843 0 1.406.187 1.687.469.844.843.75 2.718.75 3.937h.094z"/>
        <path d="M11.156 26.719l1.313-.844-1.219-.375c-.281-.094-.375-.281-.375-.563.094-.28.281-.375.563-.375l2.156.47 1.969-1.22c.187-.187.468-.093.656.188a.494.494 0 0 1-.188.656l-1.218.75 1.593.375c.282.094.375.282.375.563-.093.187-.281.375-.468.375h-.094l-2.532-.563-2.156 1.313c-.094.093-.187.093-.281.093-.188 0-.281-.093-.375-.187 0-.281.094-.563.281-.656zm6.281 3.375c-.093.187-.28.375-.468.375h-.094l-2.531-.563-2.156 1.313c-.094.093-.188.093-.282.093-.187 0-.281-.093-.375-.187a.494.494 0 0 1 .188-.656l1.312-.844-1.312-.281c-.281-.094-.375-.282-.375-.563.094-.281.281-.375.562-.375l2.156.469 1.97-1.219c.187-.187.468-.093.655.188.188.187.094.468-.187.656l-1.219.75 1.594.375c.469-.094.563.188.563.469zM22.781 19.781c-.468 1.219-.562 2.907-.468 4.875.187 2.438.937 4.407 2.156 5.813-.094.093-.094.187-.094.281l-2.813 8.438c-.093.374-.093.75.094 1.03.188.376.469.563.75.657l10.5 3.469c.094 0 .282.093.469.093.563 0 1.125-.374 1.313-.937l2.812-8.438v-.093c.656-.282 6.281-3.282 8.719-12.657 0-.093 1.125-6.562-4.875-8.906-2.813-1.5-5.532-2.437-8.063-2.906-.468-.094-.843-.094-1.312-.094-2.625 0-4.594 1.594-5.719 4.688 0 0-.281 1.031-.281 1.969-.563 0-1.125.093-1.782.562-.28.188-.468.469-.656.656.094-.093-.468.75-.75 1.5zM33.563 43.22c0 .093-.094.093-.188.093l-10.5-3.468c-.094 0-.094-.094-.094-.094v-.094l.563-1.781 10.781 3.656-.563 1.688zm.843-2.625l-10.781-3.657 1.031-3.093L35.438 37.5l-1.032 3.094zm1.313-4.032l-10.782-3.656.563-1.687c0-.094.094-.094.188-.094h.093l10.5 3.469c.094 0 .094.093.094.093v.094l-.656 1.782zm9.093-14.53c-1.218 4.687-3.374 7.593-4.874 9.187-1.313 1.406-2.532 2.156-2.907 2.343-.093-.093-.281-.187-.375-.187l-10.5-3.469h-.187c-1.219-1.125-1.969-3-2.157-5.343-.28-3 .188-4.97 1.407-5.813.281-.188.656-.281 1.125-.281h.937c.188 0 .282-.094.282-.282v-.937c0-.094 0-.281.093-.469 0-.375.094-1.031.188-1.218.843-2.438 2.25-3.657 4.312-3.657.375 0 .657 0 1.032.094 2.437.469 4.968 1.313 7.593 2.719 0 0 .094 0 .188.094 4.593 1.874 3.937 6.656 3.843 7.218z"/>
    </g>
</svg>
