<svg xmlns="http://www.w3.org/2000/svg" width="61" height="50" viewBox="0 0 61 50">
    <g fill="#666" fill-rule="nonzero" stroke="#666" stroke-width=".2">
        <path d="M24.494 17.075c1.126 1.416 2.91 2.265 4.692 2.076 4.13-.377 5.725.377 8.352 1.51 1.408 2.83 5.819 7.735 12.857 10 .094 0 3.379 1.131 4.317-1.982.47-1.698-.469-3.49-2.158-3.962-3.66-1.132-7.132-3.68-8.54-5.377 2.252-2.642 1.501-6.604-1.408-8.302-4.13-2.453-13.795-4.529-17.268-1.51-4.129-1.037-8.07-5.471-9.196-7.17-1.22-1.698-3.567-2.075-5.256-.943C9.196 2.642 8.822 5 9.948 6.698c2.909 4.151 8.352 9.245 14.546 10.377zM11.918 3.02c.845-.566 2.065-.377 2.628.472.094.094 4.88 6.886 10.886 8.018.282.095.657 0 .845-.283 2.628-2.735 11.918-.66 15.578 1.416a3.644 3.644 0 0 1 .563 5.849c-.375.283-.469.754-.187 1.226 1.126 1.887 5.161 5.377 10.041 6.792.657.19 1.126.944.845 1.699-.188.754-.375.66-1.97.754-6.382-2.075-10.793-6.698-11.825-9.34a1.134 1.134 0 0 0-.47-.471c-2.346-.943-4.129-2.264-9.572-1.793-1.314.095-2.534-.471-3.285-1.603-.187-.189-.375-.378-.657-.378-5.724-.943-10.98-5.754-13.701-9.622-.75-.944-.563-2.17.281-2.736z"/>
        <path d="M50.395 20.66c2.628.85 5.443-.566 6.288-3.207.845-2.642-.563-5.472-3.285-6.32a4.23 4.23 0 0 0-1.501-.284c-2.159 0-4.13 1.415-4.786 3.49-.845 2.642.657 5.472 3.284 6.321zm-1.501-5.754c.563-1.698 2.252-2.548 3.941-2.076a3.268 3.268 0 0 1 2.065 3.962c-.563 1.699-2.252 2.548-3.942 2.076-1.595-.472-2.533-2.264-2.064-3.962zM59.874 34.811c-.47-.188-1.032.095-1.22.566-1.69 4.623-8.165 4.623-9.854 0-.282-.849-1.502-.849-1.783 0-1.69 4.623-8.165 4.623-9.854 0-.281-.849-1.501-.849-1.783 0-1.69 4.623-8.165 4.623-9.854 0-.281-.849-1.501-.849-1.783 0-1.69 4.623-8.165 4.623-9.854 0-.281-.849-1.501-.849-1.783 0-1.69 4.623-8.164 4.623-9.854 0-.187-.471-.75-.754-1.22-.566-.469.189-.75.755-.563 1.227 2.065 5.471 9.291 6.226 12.482 1.698 2.815 3.962 8.821 3.962 11.637 0 2.815 3.962 8.821 3.962 11.637 0 2.815 3.962 8.821 3.962 11.637 0 3.19 4.622 10.51 3.868 12.481-1.698.282-.472.094-1.038-.47-1.227zM59.874 43.302c-.47-.189-1.032.094-1.22.566-1.69 4.623-8.165 4.623-9.854 0-.282-.85-1.502-.85-1.783 0-1.69 4.623-8.165 4.623-9.854 0-.281-.85-1.501-.85-1.783 0-1.69 4.623-8.165 4.623-9.854 0-.281-.85-1.501-.85-1.783 0-1.69 4.623-8.165 4.623-9.854 0-.281-.85-1.501-.85-1.783 0-1.69 4.623-8.164 4.623-9.854 0-.187-.472-.75-.755-1.22-.566-.469.189-.75.755-.563 1.226C2.534 50 9.76 50.755 12.951 46.226c2.815 3.963 8.821 3.963 11.637 0 2.815 3.963 8.821 3.963 11.637 0 2.815 3.963 8.821 3.963 11.637 0 3.19 4.623 10.51 3.868 12.481-1.698.282-.471.094-1.037-.47-1.226zM15.39 28.019c.47.094 1.033-.189 1.127-.66.938-3.868-1.783-5.567-1.97-5.66-.47-.284-1.033-.095-1.315.376-.281.472-.094 1.038.376 1.321 0 0 1.689 1.038 1.032 3.585-.094.377.188.85.75 1.038zM31.814 27.075c.47-.283.563-.849.375-1.32-.281-.472-.844-.566-1.314-.378-.093.095-2.909 1.698-1.97 5.66.093.472.469.755.938.755.657 0 1.032-.566.939-1.132-.657-2.452.844-3.49 1.032-3.585zM4.223 16.698c.188.094 1.69 1.132 1.032 3.585-.093.472.188 1.038.657 1.132.47.094 1.033-.189 1.126-.66.939-3.868-1.783-5.566-1.97-5.66-.47-.284-1.033-.095-1.314.377-.094.377.094.943.47 1.226z"/>
    </g>
</svg>
