<svg xmlns="http://www.w3.org/2000/svg" width="54" height="33" viewBox="0 0 54 33">
    <g fill="#666" fill-rule="nonzero" stroke="#666" stroke-width=".2">
        <path d="M29.243 11.632c3.074 0 5.65-2.475 5.65-5.61 0-3.135-2.493-5.61-5.65-5.61-3.157 0-5.65 2.475-5.65 5.61 0 3.135 2.576 5.61 5.65 5.61zm0-9.487c2.16 0 3.988 1.732 3.988 3.96 0 2.227-1.745 3.96-3.988 3.96s-3.988-1.733-3.988-3.96c0-2.228 1.828-3.96 3.988-3.96z"/>
        <path d="M52.754 30.855h-2.41V28.05c0-.495-.332-.825-.83-.825-.499 0-.83.33-.83.825v2.722h-6.73v-1.32c0-.495-.997-7.26-1.579-10.807l8.64 3.547a3.123 3.123 0 0 0 4.071-1.65c.665-1.567-.083-3.382-1.661-4.042l-13.043-5.363c-.831-.33-1.828-.247-2.659.165-.415.165-1.994.99-7.394 3.548l-9.304-1.485a3.068 3.068 0 0 0-2.991 1.32l-3.572-.908c.249-2.64-1.662-5.28-4.57-6.022-3.323-.825-6.48.907-7.227 3.795-.914 3.547 2.077 7.095 6.064 7.095 2.326 0 4.403-1.32 5.317-3.218l3.49.908c-.084 1.567.996 3.052 2.575 3.3l11.381 1.815.997 9.487H15.317V28.05c0-.495-.332-.825-.83-.825-.5 0-.832.33-.832.825v2.722h-2.409c-.498 0-.83.33-.83.825 0 .495.332.825.83.825l41.59.165c.5 0 .832-.33.832-.825a.919.919 0 0 0-.914-.907zM6.646 16.912c-2.908 0-5.15-2.475-4.486-5.032.498-1.98 2.825-3.218 5.234-2.64 2.326.577 3.821 2.805 3.24 4.867-.416 1.65-2.077 2.805-3.988 2.805zm24.342 3.63c0-.33-.333-.66-.665-.742l-12.046-1.898c-1.745-.247-1.579-2.887.25-2.887h.248L28.33 16.5c.166 0 .333 0 .499-.083 7.144-3.465 7.227-3.547 7.477-3.63.249-.082.747-.412 1.412-.165l13.043 5.363c.748.33 1.08 1.155.748 1.897-.333.743-1.163 1.073-1.911.743l-9.97-4.043c-.58-.247-1.245.248-1.162.908.664 4.372 1.744 11.467 1.744 12.045v1.32h-8.224l-.997-10.313z"/>
    </g>
</svg>
