<svg xmlns="http://www.w3.org/2000/svg" width="42" height="50" viewBox="0 0 42 50">
    <g fill="#666" fill-rule="nonzero" stroke="#666" stroke-width=".2">
        <path d="M31.92 4.308c-1.45-.385-2.825.538-3.207 1.923-.458 1.923-2.291 7.384-4.735 9.615-.61.23-2.138 1.23-6.873 4.77l-3.589-4.924c-.61-.769-1.603-1.23-2.52-1.077l-2.901-5c1.756-1.461 2.138-3.692.916-5.923C7.636 1.462 4.429-.538 2.138.846c-2.214 1.308-2.29 5.077-.84 7.539 1.222 2.077 3.284 3 5.575 2.077l2.825 4.846c-.993.923-1.145 2.384-.305 3.538L14.585 26a2.7 2.7 0 0 0 3.895.462c1.375-1.231 2.138-1.847 2.52-2.231.993 2.384 1.298 4.307.305 7.538-.84 2.77-2.367 5.539-4.658 7.308-1.45 1.154-3.665 2.846-2.138 5.23.916 1.462 2.75 1.847 4.2.924 2.978-1.923 5.575-5.077 7.255-8.77.229 3.77-.382 6.539-1.68 7.847-1.146 1.154-1.222 3.077 0 4.307 1.145 1.231 3.054 1.231 4.276 0 5.956-5.923 3.207-22 .076-29.923 3.437-4 5.193-10.538 5.346-11.307.229-1.231-.611-2.693-2.062-3.077zM2.596 7.615c-1.145-2-.992-4.692.306-5.461C4.429 1.308 6.796 3 7.789 4.615c1.146 2 .23 3.462-.993 4.231-1.527.846-3.13.539-4.2-1.23zm29.782-.461c-.153.77-1.909 7.308-5.345 11-.23.23-.306.538-.153.846 0 .077.076.077.076.154 2.979 7.384 5.728 23.077.382 28.461-.534.539-1.527.539-2.138 0a1.495 1.495 0 0 1 0-2.153c2.215-2.231 2.367-6.616 2.062-9.924 0-.384-.382-.692-.764-.692h-1.145c-.306 0-.611.154-.688.462C23.138 39 20.618 42.077 17.716 44c-.687.462-1.603.23-2.061-.462-.688-1 0-1.769 1.756-3.23 2.596-2 4.276-5.077 5.193-8.077 1.374-4.462.381-6.154-.535-9.077-.305-.692-.764-.923-1.45-.616-.23.077 0 0-3.208 2.77-.458.384-1.298.307-1.604-.154L10.615 18c-.382-.538-.23-1.23.229-1.538.458-.385 1.221-.231 1.527.23l4.047 5.539c.23.307.764.461 1.07.154 2.977-2.308 6.414-4.77 7.101-5.077.153 0 .23-.077.382-.154 3.36-3 5.269-10.385 5.269-10.462.153-.615.764-.923 1.375-.846.534.077.916.692.763 1.308z"/>
        <path d="M19.396 15.923A4.89 4.89 0 0 0 24.284 11c0-2.77-2.215-4.846-4.888-4.846-2.672 0-4.887 2.154-4.887 4.846s2.215 4.923 4.887 4.923zm0-8.23c1.833 0 3.36 1.538 3.36 3.384 0 1.846-1.527 3.385-3.36 3.385-1.832 0-3.36-1.539-3.36-3.385 0-1.846 1.528-3.385 3.36-3.385zM38.64 1c-1.68 0-3.055 1.385-3.055 3.077s1.375 3.077 3.055 3.077c1.68 0 3.055-1.385 3.055-3.077S40.32 1 38.64 1zm0 4.615c-.84 0-1.527-.692-1.527-1.538 0-.846.687-1.539 1.527-1.539.84 0 1.527.693 1.527 1.539s-.687 1.538-1.527 1.538z"/>
    </g>
</svg>
